<?xml version="1.0" encoding="UTF-8" standalone="no"?>
<!DOCTYPE svg PUBLIC "-//W3C//DTD SVG 1.1//EN"
 "http://www.w3.org/Graphics/SVG/1.1/DTD/svg11.dtd">
<!-- Generated by graphviz version 2.40.1 (20161225.0304)
 -->
<!-- Title: FlagsForFile Pages: 1 -->
<svg width="338pt" height="108pt"
 viewBox="0.00 0.00 338.00 108.00" xmlns="http://www.w3.org/2000/svg" xmlns:xlink="http://www.w3.org/1999/xlink">
<g id="graph0" class="graph" transform="scale(1 1) rotate(0) translate(4 104)">
<title>FlagsForFile</title>
<!-- Node3 -->
<g id="node1" class="node">
<title>Node3</title>
<polygon fill="#bfbfbf" stroke="#000000" points="0,-41.5 0,-58.5 65,-58.5 65,-41.5 0,-41.5"/>
<text text-anchor="middle" x="32.5" y="-48.1" font-family="InputSans" font-size="8.00" fill="#000000">FlagsForFile</text>
</g>
<!-- Node4 -->
<g id="node2" class="node">
<title>Node4</title>
<g id="a_node2"><a xlink:href="_8ycm__extra__conf_8py.html#a42a14573593ce75cd6e385a85326111f" target="_top" xlink:title="GetCompilationInfoForFile">
<polygon fill="none" stroke="#000000" points="101,-82.5 101,-99.5 226,-99.5 226,-82.5 101,-82.5"/>
<text text-anchor="middle" x="163.5" y="-89.1" font-family="InputSans" font-size="8.00" fill="#000000">GetCompilationInfoForFile</text>
</a>
</g>
</g>
<!-- Node3&#45;&gt;Node4 -->
<g id="edge1" class="edge">
<title>Node3&#45;&gt;Node4</title>
<path fill="none" stroke="#191970" d="M57.1466,-58.5643C70.1467,-63.0083 86.3887,-68.4454 101,-73 108.1149,-75.2179 115.7154,-77.4885 123.0781,-79.6374"/>
<polygon fill="#191970" stroke="#191970" points="122.3245,-83.0627 132.903,-82.4758 124.2673,-76.3377 122.3245,-83.0627"/>
</g>
<!-- Node6 -->
<g id="node4" class="node">
<title>Node6</title>
<g id="a_node4"><a xlink:href="_8ycm__extra__conf_8py.html#aa20d30f8cc08fc0ab076b4cf458e0d3d" target="_top" xlink:title="MakeRelativePathsInFlags\lAbsolute">
<polygon fill="none" stroke="#000000" points="101,-37 101,-63 226,-63 226,-37 101,-37"/>
<text text-anchor="start" x="109" y="-52.6" font-family="InputSans" font-size="8.00" fill="#000000">MakeRelativePathsInFlags</text>
<text text-anchor="middle" x="163.5" y="-43.6" font-family="InputSans" font-size="8.00" fill="#000000">Absolute</text>
</a>
</g>
</g>
<!-- Node3&#45;&gt;Node6 -->
<g id="edge3" class="edge">
<title>Node3&#45;&gt;Node6</title>
<path fill="none" stroke="#191970" d="M65.2189,-50C73.0927,-50 81.8181,-50 90.7251,-50"/>
<polygon fill="#191970" stroke="#191970" points="90.823,-53.5001 100.8229,-50 90.8229,-46.5001 90.823,-53.5001"/>
</g>
<!-- Node7 -->
<g id="node5" class="node">
<title>Node7</title>
<g id="a_node5"><a xlink:href="_8ycm__extra__conf_8py.html#aab283cdb607efa6a1a7aaa3f089c63f1" target="_top" xlink:title="DirectoryOfThisScript">
<polygon fill="none" stroke="#000000" points="110,-.5 110,-17.5 217,-17.5 217,-.5 110,-.5"/>
<text text-anchor="middle" x="163.5" y="-7.1" font-family="InputSans" font-size="8.00" fill="#000000">DirectoryOfThisScript</text>
</a>
</g>
</g>
<!-- Node3&#45;&gt;Node7 -->
<g id="edge4" class="edge">
<title>Node3&#45;&gt;Node7</title>
<path fill="none" stroke="#191970" d="M58.8174,-41.4415C71.5446,-37.3298 87.0514,-32.3598 101,-28 108.9265,-25.5225 117.4321,-22.9077 125.5369,-20.437"/>
<polygon fill="#191970" stroke="#191970" points="126.608,-23.7696 135.1585,-17.5135 124.5729,-17.072 126.608,-23.7696"/>
</g>
<!-- Node5 -->
<g id="node3" class="node">
<title>Node5</title>
<g id="a_node3"><a xlink:href="_8ycm__extra__conf_8py.html#a6bb59f541be0dcbde53eba606d48ddf8" target="_top" xlink:title="IsHeaderFile">
<polygon fill="none" stroke="#000000" points="262,-82.5 262,-99.5 330,-99.5 330,-82.5 262,-82.5"/>
<text text-anchor="middle" x="296" y="-89.1" font-family="InputSans" font-size="8.00" fill="#000000">IsHeaderFile</text>
</a>
</g>
</g>
<!-- Node4&#45;&gt;Node5 -->
<g id="edge2" class="edge">
<title>Node4&#45;&gt;Node5</title>
<path fill="none" stroke="#191970" d="M226.2578,-91C234.9116,-91 243.645,-91 251.8653,-91"/>
<polygon fill="#191970" stroke="#191970" points="251.9587,-94.5001 261.9586,-91 251.9586,-87.5001 251.9587,-94.5001"/>
</g>
</g>
</svg>
