<?xml version="1.0" encoding="UTF-8" standalone="no"?>
<!DOCTYPE svg PUBLIC "-//W3C//DTD SVG 1.1//EN"
 "http://www.w3.org/Graphics/SVG/1.1/DTD/svg11.dtd">
<!-- Generated by graphviz version 2.40.1 (20161225.0304)
 -->
<!-- Title: IsHeaderFile Pages: 1 -->
<svg width="338pt" height="26pt"
 viewBox="0.00 0.00 338.00 26.00" xmlns="http://www.w3.org/2000/svg" xmlns:xlink="http://www.w3.org/1999/xlink">
<g id="graph0" class="graph" transform="scale(1 1) rotate(0) translate(4 22)">
<title>IsHeaderFile</title>
<!-- Node14 -->
<g id="node1" class="node">
<title>Node14</title>
<polygon fill="#bfbfbf" stroke="#000000" points="0,-.5 0,-17.5 68,-17.5 68,-.5 0,-.5"/>
<text text-anchor="middle" x="34" y="-7.1" font-family="InputSans" font-size="8.00" fill="#000000">IsHeaderFile</text>
</g>
<!-- Node15 -->
<g id="node2" class="node">
<title>Node15</title>
<g id="a_node2"><a xlink:href="_8ycm__extra__conf_8py.html#a42a14573593ce75cd6e385a85326111f" target="_top" xlink:title="GetCompilationInfoForFile">
<polygon fill="none" stroke="#000000" points="104,-.5 104,-17.5 229,-17.5 229,-.5 104,-.5"/>
<text text-anchor="middle" x="166.5" y="-7.1" font-family="InputSans" font-size="8.00" fill="#000000">GetCompilationInfoForFile</text>
</a>
</g>
</g>
<!-- Node14&#45;&gt;Node15 -->
<g id="edge1" class="edge">
<title>Node14&#45;&gt;Node15</title>
<path fill="none" stroke="#191970" d="M78.2522,-9C86.502,-9 95.2652,-9 103.9436,-9"/>
<polygon fill="#191970" stroke="#191970" points="78.1221,-5.5001 68.122,-9 78.122,-12.5001 78.1221,-5.5001"/>
</g>
<!-- Node16 -->
<g id="node3" class="node">
<title>Node16</title>
<g id="a_node3"><a xlink:href="_8ycm__extra__conf_8py.html#a51f8bcdc9a3b791e6a88d798e6c786b3" target="_top" xlink:title="FlagsForFile">
<polygon fill="none" stroke="#000000" points="265,-.5 265,-17.5 330,-17.5 330,-.5 265,-.5"/>
<text text-anchor="middle" x="297.5" y="-7.1" font-family="InputSans" font-size="8.00" fill="#000000">FlagsForFile</text>
</a>
</g>
</g>
<!-- Node15&#45;&gt;Node16 -->
<g id="edge2" class="edge">
<title>Node15&#45;&gt;Node16</title>
<path fill="none" stroke="#191970" d="M239.4335,-9C248.358,-9 257.0961,-9 264.9733,-9"/>
<polygon fill="#191970" stroke="#191970" points="239.3142,-5.5001 229.3141,-9 239.3141,-12.5001 239.3142,-5.5001"/>
</g>
</g>
</svg>
