<?xml version="1.0" encoding="UTF-8" standalone="no"?>
<!DOCTYPE svg PUBLIC "-//W3C//DTD SVG 1.1//EN"
 "http://www.w3.org/Graphics/SVG/1.1/DTD/svg11.dtd">
<!-- Generated by graphviz version 2.40.1 (20161225.0304)
 -->
<!-- Title: FlagsForFile Pages: 1 -->
<svg width="375pt" height="108pt"
 viewBox="0.00 0.00 375.00 108.00" xmlns="http://www.w3.org/2000/svg" xmlns:xlink="http://www.w3.org/1999/xlink">
<g id="graph0" class="graph" transform="scale(1 1) rotate(0) translate(4 104)">
<title>FlagsForFile</title>
<!-- Node3 -->
<g id="node1" class="node">
<title>Node3</title>
<polygon fill="#bfbfbf" stroke="#000000" points="0,-41.5 0,-58.5 76,-58.5 76,-41.5 0,-41.5"/>
<text text-anchor="middle" x="38" y="-48.1" font-family="InputSans" font-size="8.00" fill="#000000">FlagsForFile</text>
</g>
<!-- Node4 -->
<g id="node2" class="node">
<title>Node4</title>
<g id="a_node2"><a xlink:href="_8ycm__extra__conf_8py.html#a42a14573593ce75cd6e385a85326111f" target="_top" xlink:title="GetCompilationInfoForFile">
<polygon fill="none" stroke="#000000" points="112,-82.5 112,-99.5 254,-99.5 254,-82.5 112,-82.5"/>
<text text-anchor="middle" x="183" y="-89.1" font-family="InputSans" font-size="8.00" fill="#000000">GetCompilationInfoForFile</text>
</a>
</g>
</g>
<!-- Node3&#45;&gt;Node4 -->
<g id="edge1" class="edge">
<title>Node3&#45;&gt;Node4</title>
<path fill="none" stroke="#191970" d="M64.2703,-58.5373C78.3681,-63.0244 96.0732,-68.5094 112,-73 120.3571,-75.3563 129.3071,-77.7362 137.9393,-79.9594"/>
<polygon fill="#191970" stroke="#191970" points="137.3179,-83.4128 147.8721,-82.4866 139.0439,-76.6289 137.3179,-83.4128"/>
</g>
<!-- Node6 -->
<g id="node4" class="node">
<title>Node6</title>
<g id="a_node4"><a xlink:href="_8ycm__extra__conf_8py.html#aa20d30f8cc08fc0ab076b4cf458e0d3d" target="_top" xlink:title="MakeRelativePathsInFlags\lAbsolute">
<polygon fill="none" stroke="#000000" points="112.5,-37 112.5,-63 253.5,-63 253.5,-37 112.5,-37"/>
<text text-anchor="start" x="120.5" y="-52.6" font-family="InputSans" font-size="8.00" fill="#000000">MakeRelativePathsInFlags</text>
<text text-anchor="middle" x="183" y="-43.6" font-family="InputSans" font-size="8.00" fill="#000000">Absolute</text>
</a>
</g>
</g>
<!-- Node3&#45;&gt;Node6 -->
<g id="edge3" class="edge">
<title>Node3&#45;&gt;Node6</title>
<path fill="none" stroke="#191970" d="M76.097,-50C84.2053,-50 93.061,-50 102.0931,-50"/>
<polygon fill="#191970" stroke="#191970" points="102.3351,-53.5001 112.3351,-50 102.3351,-46.5001 102.3351,-53.5001"/>
</g>
<!-- Node7 -->
<g id="node5" class="node">
<title>Node7</title>
<g id="a_node5"><a xlink:href="_8ycm__extra__conf_8py.html#aab283cdb607efa6a1a7aaa3f089c63f1" target="_top" xlink:title="DirectoryOfThisScript">
<polygon fill="none" stroke="#000000" points="123.5,-.5 123.5,-17.5 242.5,-17.5 242.5,-.5 123.5,-.5"/>
<text text-anchor="middle" x="183" y="-7.1" font-family="InputSans" font-size="8.00" fill="#000000">DirectoryOfThisScript</text>
</a>
</g>
</g>
<!-- Node3&#45;&gt;Node7 -->
<g id="edge4" class="edge">
<title>Node3&#45;&gt;Node7</title>
<path fill="none" stroke="#191970" d="M66.0586,-41.4605C79.8684,-37.3081 96.7797,-32.2981 112,-28 121.1984,-25.4024 131.0926,-22.6983 140.4879,-20.1723"/>
<polygon fill="#191970" stroke="#191970" points="141.6734,-23.4783 150.4304,-17.5147 139.8657,-16.7158 141.6734,-23.4783"/>
</g>
<!-- Node5 -->
<g id="node3" class="node">
<title>Node5</title>
<g id="a_node3"><a xlink:href="_8ycm__extra__conf_8py.html#a6bb59f541be0dcbde53eba606d48ddf8" target="_top" xlink:title="IsHeaderFile">
<polygon fill="none" stroke="#000000" points="290,-82.5 290,-99.5 367,-99.5 367,-82.5 290,-82.5"/>
<text text-anchor="middle" x="328.5" y="-89.1" font-family="InputSans" font-size="8.00" fill="#000000">IsHeaderFile</text>
</a>
</g>
</g>
<!-- Node4&#45;&gt;Node5 -->
<g id="edge2" class="edge">
<title>Node4&#45;&gt;Node5</title>
<path fill="none" stroke="#191970" d="M254.0451,-91C262.6677,-91 271.3224,-91 279.5241,-91"/>
<polygon fill="#191970" stroke="#191970" points="279.6342,-94.5001 289.6341,-91 279.6341,-87.5001 279.6342,-94.5001"/>
</g>
</g>
</svg>
