<?xml version="1.0" encoding="UTF-8" standalone="no"?>
<!DOCTYPE svg PUBLIC "-//W3C//DTD SVG 1.1//EN"
 "http://www.w3.org/Graphics/SVG/1.1/DTD/svg11.dtd">
<!-- Generated by graphviz version 2.40.1 (20161225.0304)
 -->
<!-- Title: /home/jacques/repos/math4171/src/arcplot/Axes.cpp Pages: 1 -->
<svg width="164pt" height="206pt"
 viewBox="0.00 0.00 163.50 206.00" xmlns="http://www.w3.org/2000/svg" xmlns:xlink="http://www.w3.org/1999/xlink">
<g id="graph0" class="graph" transform="scale(1 1) rotate(0) translate(4 202)">
<title>/home/jacques/repos/math4171/src/arcplot/Axes.cpp</title>
<!-- Node0 -->
<g id="node1" class="node">
<title>Node0</title>
<polygon fill="#bfbfbf" stroke="#000000" points="3,-162.5 3,-197.5 132,-197.5 132,-162.5 3,-162.5"/>
<text text-anchor="start" x="11" y="-187.1" font-family="InputSans" font-size="8.00" fill="#000000">/home/jacques/repos</text>
<text text-anchor="start" x="11" y="-178.1" font-family="InputSans" font-size="8.00" fill="#000000">/math4171/src/arcplot</text>
<text text-anchor="middle" x="67.5" y="-169.1" font-family="InputSans" font-size="8.00" fill="#000000">/Axes.cpp</text>
</g>
<!-- Node1 -->
<g id="node2" class="node">
<title>Node1</title>
<g id="a_node2"><a xlink:href="_axes_8hpp.html" target="_top" xlink:title="Axes.hpp">
<polygon fill="none" stroke="#000000" points="38,-108.5 38,-125.5 97,-125.5 97,-108.5 38,-108.5"/>
<text text-anchor="middle" x="67.5" y="-115.1" font-family="InputSans" font-size="8.00" fill="#000000">Axes.hpp</text>
</a>
</g>
</g>
<!-- Node0&#45;&gt;Node1 -->
<g id="edge1" class="edge">
<title>Node0&#45;&gt;Node1</title>
<path fill="none" stroke="#191970" d="M67.5,-162.451C67.5,-154.1476 67.5,-144.2234 67.5,-135.7698"/>
<polygon fill="#191970" stroke="#191970" points="71.0001,-135.764 67.5,-125.764 64.0001,-135.7641 71.0001,-135.764"/>
</g>
<!-- Node2 -->
<g id="node3" class="node">
<title>Node2</title>
<polygon fill="none" stroke="#bfbfbf" points="0,-.5 0,-17.5 59,-17.5 59,-.5 0,-.5"/>
<text text-anchor="middle" x="29.5" y="-7.1" font-family="InputSans" font-size="8.00" fill="#000000">iostream</text>
</g>
<!-- Node1&#45;&gt;Node2 -->
<g id="edge2" class="edge">
<title>Node1&#45;&gt;Node2</title>
<path fill="none" stroke="#191970" d="M63.5818,-108.4811C59.5322,-99.5106 53.1619,-84.923 48.5,-72 43.163,-57.2055 38.0713,-40.1032 34.5046,-27.4541"/>
<polygon fill="#191970" stroke="#191970" points="37.8335,-26.36 31.7949,-17.6544 31.0866,-28.2256 37.8335,-26.36"/>
</g>
<!-- Node3 -->
<g id="node4" class="node">
<title>Node3</title>
<g id="a_node4"><a xlink:href="_python_object_8hpp.html" target="_top" xlink:title="PythonObject.hpp">
<polygon fill="none" stroke="#000000" points="57.5,-54.5 57.5,-71.5 155.5,-71.5 155.5,-54.5 57.5,-54.5"/>
<text text-anchor="middle" x="106.5" y="-61.1" font-family="InputSans" font-size="8.00" fill="#000000">PythonObject.hpp</text>
</a>
</g>
</g>
<!-- Node1&#45;&gt;Node3 -->
<g id="edge3" class="edge">
<title>Node1&#45;&gt;Node3</title>
<path fill="none" stroke="#191970" d="M73.9401,-108.083C79.4489,-100.4554 87.5312,-89.2645 94.265,-79.9408"/>
<polygon fill="#191970" stroke="#191970" points="97.1622,-81.9071 100.1798,-71.7511 91.4874,-77.8087 97.1622,-81.9071"/>
</g>
<!-- Node3&#45;&gt;Node2 -->
<g id="edge4" class="edge">
<title>Node3&#45;&gt;Node2</title>
<path fill="none" stroke="#191970" d="M94.1286,-54.324C82.3415,-46.0577 64.3677,-33.4527 50.3645,-23.6322"/>
<polygon fill="#191970" stroke="#191970" points="52.0376,-20.5307 41.8407,-17.6545 48.0184,-26.2619 52.0376,-20.5307"/>
</g>
<!-- Node4 -->
<g id="node5" class="node">
<title>Node4</title>
<polygon fill="none" stroke="#bfbfbf" points="78,-.5 78,-17.5 135,-17.5 135,-.5 78,-.5"/>
<text text-anchor="middle" x="106.5" y="-7.1" font-family="InputSans" font-size="8.00" fill="#000000">Python.h</text>
</g>
<!-- Node3&#45;&gt;Node4 -->
<g id="edge5" class="edge">
<title>Node3&#45;&gt;Node4</title>
<path fill="none" stroke="#191970" d="M106.5,-54.083C106.5,-47.0059 106.5,-36.8611 106.5,-27.9865"/>
<polygon fill="#191970" stroke="#191970" points="110.0001,-27.751 106.5,-17.7511 103.0001,-27.7511 110.0001,-27.751"/>
</g>
</g>
</svg>
