<?xml version="1.0" encoding="UTF-8" standalone="no"?>
<!DOCTYPE svg PUBLIC "-//W3C//DTD SVG 1.1//EN"
 "http://www.w3.org/Graphics/SVG/1.1/DTD/svg11.dtd">
<!-- Generated by graphviz version 2.40.1 (20161225.0304)
 -->
<!-- Title: /home/jacques/repos/math4171/src/arcplot/Axes.hpp Pages: 1 -->
<svg width="164pt" height="152pt"
 viewBox="0.00 0.00 163.50 152.00" xmlns="http://www.w3.org/2000/svg" xmlns:xlink="http://www.w3.org/1999/xlink">
<g id="graph0" class="graph" transform="scale(1 1) rotate(0) translate(4 148)">
<title>/home/jacques/repos/math4171/src/arcplot/Axes.hpp</title>
<!-- Node0 -->
<g id="node1" class="node">
<title>Node0</title>
<polygon fill="#bfbfbf" stroke="#000000" points="3,-108.5 3,-143.5 132,-143.5 132,-108.5 3,-108.5"/>
<text text-anchor="start" x="11" y="-133.1" font-family="InputSans" font-size="8.00" fill="#000000">/home/jacques/repos</text>
<text text-anchor="start" x="11" y="-124.1" font-family="InputSans" font-size="8.00" fill="#000000">/math4171/src/arcplot</text>
<text text-anchor="middle" x="67.5" y="-115.1" font-family="InputSans" font-size="8.00" fill="#000000">/Axes.hpp</text>
</g>
<!-- Node1 -->
<g id="node2" class="node">
<title>Node1</title>
<polygon fill="none" stroke="#bfbfbf" points="0,-.5 0,-17.5 59,-17.5 59,-.5 0,-.5"/>
<text text-anchor="middle" x="29.5" y="-7.1" font-family="InputSans" font-size="8.00" fill="#000000">iostream</text>
</g>
<!-- Node0&#45;&gt;Node1 -->
<g id="edge1" class="edge">
<title>Node0&#45;&gt;Node1</title>
<path fill="none" stroke="#191970" d="M60.9615,-108.0696C57.1987,-97.5928 52.4487,-84.0928 48.5,-72 43.618,-57.0491 38.492,-39.9587 34.7963,-27.3539"/>
<polygon fill="#191970" stroke="#191970" points="38.1124,-26.2228 31.9588,-17.5982 31.3909,-28.1778 38.1124,-26.2228"/>
</g>
<!-- Node2 -->
<g id="node3" class="node">
<title>Node2</title>
<g id="a_node3"><a xlink:href="_python_object_8hpp.html" target="_top" xlink:title="PythonObject.hpp">
<polygon fill="none" stroke="#000000" points="57.5,-54.5 57.5,-71.5 155.5,-71.5 155.5,-54.5 57.5,-54.5"/>
<text text-anchor="middle" x="106.5" y="-61.1" font-family="InputSans" font-size="8.00" fill="#000000">PythonObject.hpp</text>
</a>
</g>
</g>
<!-- Node0&#45;&gt;Node2 -->
<g id="edge2" class="edge">
<title>Node0&#45;&gt;Node2</title>
<path fill="none" stroke="#191970" d="M78.3637,-108.451C83.7927,-99.6811 90.3409,-89.1032 95.7536,-80.3595"/>
<polygon fill="#191970" stroke="#191970" points="98.787,-82.1089 101.0747,-71.764 92.8351,-78.4244 98.787,-82.1089"/>
</g>
<!-- Node2&#45;&gt;Node1 -->
<g id="edge3" class="edge">
<title>Node2&#45;&gt;Node1</title>
<path fill="none" stroke="#191970" d="M94.1286,-54.324C82.3415,-46.0577 64.3677,-33.4527 50.3645,-23.6322"/>
<polygon fill="#191970" stroke="#191970" points="52.0376,-20.5307 41.8407,-17.6545 48.0184,-26.2619 52.0376,-20.5307"/>
</g>
<!-- Node3 -->
<g id="node4" class="node">
<title>Node3</title>
<polygon fill="none" stroke="#bfbfbf" points="78,-.5 78,-17.5 135,-17.5 135,-.5 78,-.5"/>
<text text-anchor="middle" x="106.5" y="-7.1" font-family="InputSans" font-size="8.00" fill="#000000">Python.h</text>
</g>
<!-- Node2&#45;&gt;Node3 -->
<g id="edge4" class="edge">
<title>Node2&#45;&gt;Node3</title>
<path fill="none" stroke="#191970" d="M106.5,-54.083C106.5,-47.0059 106.5,-36.8611 106.5,-27.9865"/>
<polygon fill="#191970" stroke="#191970" points="110.0001,-27.751 106.5,-17.7511 103.0001,-27.7511 110.0001,-27.751"/>
</g>
</g>
</svg>
