<?xml version="1.0" encoding="UTF-8" standalone="no"?>
<!DOCTYPE svg PUBLIC "-//W3C//DTD SVG 1.1//EN"
 "http://www.w3.org/Graphics/SVG/1.1/DTD/svg11.dtd">
<!-- Generated by graphviz version 2.40.1 (20161225.0304)
 -->
<!-- Title: /home/jacques/repos/math4171/src/arcplot/Axes.hpp Pages: 1 -->
<svg width="371pt" height="188pt"
 viewBox="0.00 0.00 370.50 188.00" xmlns="http://www.w3.org/2000/svg" xmlns:xlink="http://www.w3.org/1999/xlink">
<g id="graph0" class="graph" transform="scale(1 1) rotate(0) translate(4 184)">
<title>/home/jacques/repos/math4171/src/arcplot/Axes.hpp</title>
<!-- Node4 -->
<g id="node1" class="node">
<title>Node4</title>
<polygon fill="#bfbfbf" stroke="#000000" points="73,-144.5 73,-179.5 202,-179.5 202,-144.5 73,-144.5"/>
<text text-anchor="start" x="81" y="-169.1" font-family="InputSans" font-size="8.00" fill="#000000">/home/jacques/repos</text>
<text text-anchor="start" x="81" y="-160.1" font-family="InputSans" font-size="8.00" fill="#000000">/math4171/src/arcplot</text>
<text text-anchor="middle" x="137.5" y="-151.1" font-family="InputSans" font-size="8.00" fill="#000000">/Axes.hpp</text>
</g>
<!-- Node5 -->
<g id="node2" class="node">
<title>Node5</title>
<g id="a_node2"><a xlink:href="_axes_8cpp.html" target="_top" xlink:title="/home/jacques/repos\l/math4171/src/arcplot\l/Axes.cpp">
<polygon fill="none" stroke="#000000" points="0,-72.5 0,-107.5 129,-107.5 129,-72.5 0,-72.5"/>
<text text-anchor="start" x="8" y="-97.1" font-family="InputSans" font-size="8.00" fill="#000000">/home/jacques/repos</text>
<text text-anchor="start" x="8" y="-88.1" font-family="InputSans" font-size="8.00" fill="#000000">/math4171/src/arcplot</text>
<text text-anchor="middle" x="64.5" y="-79.1" font-family="InputSans" font-size="8.00" fill="#000000">/Axes.cpp</text>
</a>
</g>
</g>
<!-- Node4&#45;&gt;Node5 -->
<g id="edge1" class="edge">
<title>Node4&#45;&gt;Node5</title>
<path fill="none" stroke="#191970" d="M112.2164,-137.0628C102.3724,-127.3536 91.3228,-116.4553 82.3374,-107.593"/>
<polygon fill="#191970" stroke="#191970" points="109.8776,-139.672 119.4551,-144.2022 114.7931,-134.6882 109.8776,-139.672"/>
</g>
<!-- Node6 -->
<g id="node3" class="node">
<title>Node6</title>
<g id="a_node3"><a xlink:href="_figure_8hpp.html" target="_top" xlink:title="/home/jacques/repos\l/math4171/src/arcplot\l/Figure.hpp">
<polygon fill="none" stroke="#000000" points="147,-72.5 147,-107.5 276,-107.5 276,-72.5 147,-72.5"/>
<text text-anchor="start" x="155" y="-97.1" font-family="InputSans" font-size="8.00" fill="#000000">/home/jacques/repos</text>
<text text-anchor="start" x="155" y="-88.1" font-family="InputSans" font-size="8.00" fill="#000000">/math4171/src/arcplot</text>
<text text-anchor="middle" x="211.5" y="-79.1" font-family="InputSans" font-size="8.00" fill="#000000">/Figure.hpp</text>
</a>
</g>
</g>
<!-- Node4&#45;&gt;Node6 -->
<g id="edge2" class="edge">
<title>Node4&#45;&gt;Node6</title>
<path fill="none" stroke="#191970" d="M163.1299,-137.0628C173.1088,-127.3536 184.3098,-116.4553 193.4183,-107.593"/>
<polygon fill="#191970" stroke="#191970" points="160.5187,-134.7201 155.7921,-144.2022 165.4002,-139.7372 160.5187,-134.7201"/>
</g>
<!-- Node7 -->
<g id="node4" class="node">
<title>Node7</title>
<g id="a_node4"><a xlink:href="_figure_8cpp.html" target="_top" xlink:title="/home/jacques/repos\l/math4171/src/arcplot\l/Figure.cpp">
<polygon fill="none" stroke="#000000" points="69,-.5 69,-35.5 198,-35.5 198,-.5 69,-.5"/>
<text text-anchor="start" x="77" y="-25.1" font-family="InputSans" font-size="8.00" fill="#000000">/home/jacques/repos</text>
<text text-anchor="start" x="77" y="-16.1" font-family="InputSans" font-size="8.00" fill="#000000">/math4171/src/arcplot</text>
<text text-anchor="middle" x="133.5" y="-7.1" font-family="InputSans" font-size="8.00" fill="#000000">/Figure.cpp</text>
</a>
</g>
</g>
<!-- Node6&#45;&gt;Node7 -->
<g id="edge3" class="edge">
<title>Node6&#45;&gt;Node7</title>
<path fill="none" stroke="#191970" d="M184.7937,-65.348C174.1981,-55.5675 162.2541,-44.5422 152.5591,-35.593"/>
<polygon fill="#191970" stroke="#191970" points="182.497,-67.9912 192.2191,-72.2022 187.245,-62.8476 182.497,-67.9912"/>
</g>
<!-- Node8 -->
<g id="node5" class="node">
<title>Node8</title>
<g id="a_node5"><a xlink:href="playground_2_main_8cpp.html" target="_top" xlink:title="/home/jacques/repos\l/math4171/src/playground\l/Main.cpp">
<polygon fill="none" stroke="#000000" points="216.5,-.5 216.5,-35.5 362.5,-35.5 362.5,-.5 216.5,-.5"/>
<text text-anchor="start" x="224.5" y="-25.1" font-family="InputSans" font-size="8.00" fill="#000000">/home/jacques/repos</text>
<text text-anchor="start" x="224.5" y="-16.1" font-family="InputSans" font-size="8.00" fill="#000000">/math4171/src/playground</text>
<text text-anchor="middle" x="289.5" y="-7.1" font-family="InputSans" font-size="8.00" fill="#000000">/Main.cpp</text>
</a>
</g>
</g>
<!-- Node6&#45;&gt;Node8 -->
<g id="edge4" class="edge">
<title>Node6&#45;&gt;Node8</title>
<path fill="none" stroke="#191970" d="M238.2063,-65.348C248.8019,-55.5675 260.7459,-44.5422 270.4409,-35.593"/>
<polygon fill="#191970" stroke="#191970" points="235.755,-62.8476 230.7809,-72.2022 240.503,-67.9912 235.755,-62.8476"/>
</g>
</g>
</svg>
