<?xml version="1.0" encoding="UTF-8" standalone="no"?>
<!DOCTYPE svg PUBLIC "-//W3C//DTD SVG 1.1//EN"
 "http://www.w3.org/Graphics/SVG/1.1/DTD/svg11.dtd">
<!-- Generated by graphviz version 2.40.1 (20161225.0304)
 -->
<!-- Title: /home/jacques/repos/math4171/src/arcplot/ContourPlot.hpp Pages: 1 -->
<svg width="475pt" height="116pt"
 viewBox="0.00 0.00 474.50 116.00" xmlns="http://www.w3.org/2000/svg" xmlns:xlink="http://www.w3.org/1999/xlink">
<g id="graph0" class="graph" transform="scale(1 1) rotate(0) translate(4 112)">
<title>/home/jacques/repos/math4171/src/arcplot/ContourPlot.hpp</title>
<!-- Node16 -->
<g id="node1" class="node">
<title>Node16</title>
<polygon fill="#bfbfbf" stroke="#000000" points="160,-72.5 160,-107.5 289,-107.5 289,-72.5 160,-72.5"/>
<text text-anchor="start" x="168" y="-97.1" font-family="InputSans" font-size="8.00" fill="#000000">/home/jacques/repos</text>
<text text-anchor="start" x="168" y="-88.1" font-family="InputSans" font-size="8.00" fill="#000000">/math4171/src/arcplot</text>
<text text-anchor="middle" x="224.5" y="-79.1" font-family="InputSans" font-size="8.00" fill="#000000">/ContourPlot.hpp</text>
</g>
<!-- Node17 -->
<g id="node2" class="node">
<title>Node17</title>
<g id="a_node2"><a xlink:href="_contour_plot_8cpp.html" target="_top" xlink:title="/home/jacques/repos\l/math4171/src/arcplot\l/ContourPlot.cpp">
<polygon fill="none" stroke="#000000" points="0,-.5 0,-35.5 129,-35.5 129,-.5 0,-.5"/>
<text text-anchor="start" x="8" y="-25.1" font-family="InputSans" font-size="8.00" fill="#000000">/home/jacques/repos</text>
<text text-anchor="start" x="8" y="-16.1" font-family="InputSans" font-size="8.00" fill="#000000">/math4171/src/arcplot</text>
<text text-anchor="middle" x="64.5" y="-7.1" font-family="InputSans" font-size="8.00" fill="#000000">/ContourPlot.cpp</text>
</a>
</g>
</g>
<!-- Node16&#45;&gt;Node17 -->
<g id="edge1" class="edge">
<title>Node16&#45;&gt;Node17</title>
<path fill="none" stroke="#191970" d="M176.0272,-68.1872C152.8054,-57.7374 125.3646,-45.3891 103.5133,-35.556"/>
<polygon fill="#191970" stroke="#191970" points="174.8041,-71.4748 185.3596,-72.3868 177.6767,-65.0914 174.8041,-71.4748"/>
</g>
<!-- Node18 -->
<g id="node3" class="node">
<title>Node18</title>
<g id="a_node3"><a xlink:href="assignment1-src_2_main_8cpp.html" target="_top" xlink:title="/home/jacques/repos\l/math4171/src/assignment1\l&#45;src/Main.cpp">
<polygon fill="none" stroke="#000000" points="147,-.5 147,-35.5 302,-35.5 302,-.5 147,-.5"/>
<text text-anchor="start" x="155" y="-25.1" font-family="InputSans" font-size="8.00" fill="#000000">/home/jacques/repos</text>
<text text-anchor="start" x="155" y="-16.1" font-family="InputSans" font-size="8.00" fill="#000000">/math4171/src/assignment1</text>
<text text-anchor="middle" x="224.5" y="-7.1" font-family="InputSans" font-size="8.00" fill="#000000">&#45;src/Main.cpp</text>
</a>
</g>
</g>
<!-- Node16&#45;&gt;Node18 -->
<g id="edge2" class="edge">
<title>Node16&#45;&gt;Node18</title>
<path fill="none" stroke="#191970" d="M224.5,-62.1759C224.5,-53.2363 224.5,-43.5865 224.5,-35.593"/>
<polygon fill="#191970" stroke="#191970" points="221.0001,-62.2022 224.5,-72.2022 228.0001,-62.2023 221.0001,-62.2022"/>
</g>
<!-- Node19 -->
<g id="node4" class="node">
<title>Node19</title>
<g id="a_node4"><a xlink:href="playground_2_main_8cpp.html" target="_top" xlink:title="/home/jacques/repos\l/math4171/src/playground\l/Main.cpp">
<polygon fill="none" stroke="#000000" points="320.5,-.5 320.5,-35.5 466.5,-35.5 466.5,-.5 320.5,-.5"/>
<text text-anchor="start" x="328.5" y="-25.1" font-family="InputSans" font-size="8.00" fill="#000000">/home/jacques/repos</text>
<text text-anchor="start" x="328.5" y="-16.1" font-family="InputSans" font-size="8.00" fill="#000000">/math4171/src/playground</text>
<text text-anchor="middle" x="393.5" y="-7.1" font-family="InputSans" font-size="8.00" fill="#000000">/Main.cpp</text>
</a>
</g>
</g>
<!-- Node16&#45;&gt;Node19 -->
<g id="edge3" class="edge">
<title>Node16&#45;&gt;Node19</title>
<path fill="none" stroke="#191970" d="M275.0464,-68.4654C299.7116,-57.9572 329.0066,-45.4765 352.2922,-35.556"/>
<polygon fill="#191970" stroke="#191970" points="273.6701,-65.2473 265.8421,-72.3868 276.4138,-71.6872 273.6701,-65.2473"/>
</g>
</g>
</svg>
