<?xml version="1.0" encoding="UTF-8" standalone="no"?>
<!DOCTYPE svg PUBLIC "-//W3C//DTD SVG 1.1//EN"
 "http://www.w3.org/Graphics/SVG/1.1/DTD/svg11.dtd">
<!-- Generated by graphviz version 2.40.1 (20161225.0304)
 -->
<!-- Title: /home/jacques/repos/math4171/src/arcplot/ContourPlot.cpp Pages: 1 -->
<svg width="1032pt" height="260pt"
 viewBox="0.00 0.00 1032.00 260.00" xmlns="http://www.w3.org/2000/svg" xmlns:xlink="http://www.w3.org/1999/xlink">
<g id="graph0" class="graph" transform="scale(1 1) rotate(0) translate(4 256)">
<title>/home/jacques/repos/math4171/src/arcplot/ContourPlot.cpp</title>
<!-- Node0 -->
<g id="node1" class="node">
<title>Node0</title>
<polygon fill="#bfbfbf" stroke="#000000" points="625,-216.5 625,-251.5 754,-251.5 754,-216.5 625,-216.5"/>
<text text-anchor="start" x="633" y="-241.1" font-family="InputSans" font-size="8.00" fill="#000000">/home/jacques/repos</text>
<text text-anchor="start" x="633" y="-232.1" font-family="InputSans" font-size="8.00" fill="#000000">/math4171/src/arcplot</text>
<text text-anchor="middle" x="689.5" y="-223.1" font-family="InputSans" font-size="8.00" fill="#000000">/ContourPlot.cpp</text>
</g>
<!-- Node1 -->
<g id="node2" class="node">
<title>Node1</title>
<g id="a_node2"><a xlink:href="_python_float_8hpp.html" target="_top" xlink:title="PythonFloat.hpp">
<polygon fill="none" stroke="#000000" points="474.5,-162.5 474.5,-179.5 566.5,-179.5 566.5,-162.5 474.5,-162.5"/>
<text text-anchor="middle" x="520.5" y="-169.1" font-family="InputSans" font-size="8.00" fill="#000000">PythonFloat.hpp</text>
</a>
</g>
</g>
<!-- Node0&#45;&gt;Node1 -->
<g id="edge1" class="edge">
<title>Node0&#45;&gt;Node1</title>
<path fill="none" stroke="#191970" d="M642.4241,-216.451C613.9708,-205.8441 578.4231,-192.5926 553.0665,-183.1402"/>
<polygon fill="#191970" stroke="#191970" points="554.1405,-179.8053 543.5478,-179.5918 551.6954,-186.3644 554.1405,-179.8053"/>
</g>
<!-- Node6 -->
<g id="node7" class="node">
<title>Node6</title>
<g id="a_node7"><a xlink:href="_python_function_8hpp.html" target="_top" xlink:title="PythonFunction.hpp">
<polygon fill="none" stroke="#000000" points="917,-162.5 917,-179.5 1024,-179.5 1024,-162.5 917,-162.5"/>
<text text-anchor="middle" x="970.5" y="-169.1" font-family="InputSans" font-size="8.00" fill="#000000">PythonFunction.hpp</text>
</a>
</g>
</g>
<!-- Node0&#45;&gt;Node6 -->
<g id="edge7" class="edge">
<title>Node0&#45;&gt;Node6</title>
<path fill="none" stroke="#191970" d="M754.3199,-219.4674C805.6607,-207.9568 876.2186,-192.1378 922.5649,-181.747"/>
<polygon fill="#191970" stroke="#191970" points="923.3666,-185.1542 932.3587,-179.5513 921.8352,-178.3238 923.3666,-185.1542"/>
</g>
<!-- Node9 -->
<g id="node10" class="node">
<title>Node9</title>
<g id="a_node10"><a xlink:href="_python_list_8hpp.html" target="_top" xlink:title="PythonList.hpp">
<polygon fill="none" stroke="#000000" points="702.5,-162.5 702.5,-179.5 788.5,-179.5 788.5,-162.5 702.5,-162.5"/>
<text text-anchor="middle" x="745.5" y="-169.1" font-family="InputSans" font-size="8.00" fill="#000000">PythonList.hpp</text>
</a>
</g>
</g>
<!-- Node0&#45;&gt;Node9 -->
<g id="edge13" class="edge">
<title>Node0&#45;&gt;Node9</title>
<path fill="none" stroke="#191970" d="M705.0991,-216.451C713.2263,-207.3079 723.1003,-196.1997 731.0524,-187.2536"/>
<polygon fill="#191970" stroke="#191970" points="733.682,-189.5634 737.7098,-179.764 728.4501,-184.9129 733.682,-189.5634"/>
</g>
<!-- Node11 -->
<g id="node12" class="node">
<title>Node11</title>
<g id="a_node12"><a xlink:href="_python_module_8hpp.html" target="_top" xlink:title="PythonModule.hpp">
<polygon fill="none" stroke="#000000" points="585,-162.5 585,-179.5 684,-179.5 684,-162.5 585,-162.5"/>
<text text-anchor="middle" x="634.5" y="-169.1" font-family="InputSans" font-size="8.00" fill="#000000">PythonModule.hpp</text>
</a>
</g>
</g>
<!-- Node0&#45;&gt;Node11 -->
<g id="edge19" class="edge">
<title>Node0&#45;&gt;Node11</title>
<path fill="none" stroke="#191970" d="M674.1794,-216.451C666.2788,-207.4012 656.6974,-196.4262 648.9293,-187.5281"/>
<polygon fill="#191970" stroke="#191970" points="651.3644,-184.9954 642.1511,-179.764 646.0911,-189.599 651.3644,-184.9954"/>
</g>
<!-- Node12 -->
<g id="node13" class="node">
<title>Node12</title>
<g id="a_node13"><a xlink:href="_python_tuple_8hpp.html" target="_top" xlink:title="PythonTuple.hpp">
<polygon fill="none" stroke="#000000" points="806.5,-162.5 806.5,-179.5 898.5,-179.5 898.5,-162.5 806.5,-162.5"/>
<text text-anchor="middle" x="852.5" y="-169.1" font-family="InputSans" font-size="8.00" fill="#000000">PythonTuple.hpp</text>
</a>
</g>
</g>
<!-- Node0&#45;&gt;Node12 -->
<g id="edge25" class="edge">
<title>Node0&#45;&gt;Node12</title>
<path fill="none" stroke="#191970" d="M734.9046,-216.451C762.2263,-205.8911 796.3301,-192.7098 820.7645,-183.2659"/>
<polygon fill="#191970" stroke="#191970" points="822.2047,-186.4616 830.2704,-179.5918 819.6811,-179.9323 822.2047,-186.4616"/>
</g>
<!-- Node13 -->
<g id="node14" class="node">
<title>Node13</title>
<g id="a_node14"><a xlink:href="_contour_plot_8hpp.html" target="_top" xlink:title="ContourPlot.hpp">
<polygon fill="none" stroke="#000000" points="364.5,-162.5 364.5,-179.5 456.5,-179.5 456.5,-162.5 364.5,-162.5"/>
<text text-anchor="middle" x="410.5" y="-169.1" font-family="InputSans" font-size="8.00" fill="#000000">ContourPlot.hpp</text>
</a>
</g>
</g>
<!-- Node0&#45;&gt;Node13 -->
<g id="edge31" class="edge">
<title>Node0&#45;&gt;Node13</title>
<path fill="none" stroke="#191970" d="M624.7905,-219.3882C573.9072,-207.8984 504.1755,-192.1525 458.2624,-181.785"/>
<polygon fill="#191970" stroke="#191970" points="458.7976,-178.3179 448.2723,-179.5292 457.2557,-185.1459 458.7976,-178.3179"/>
</g>
<!-- Node2 -->
<g id="node3" class="node">
<title>Node2</title>
<polygon fill="none" stroke="#bfbfbf" points="321,-54.5 321,-71.5 374,-71.5 374,-54.5 321,-54.5"/>
<text text-anchor="middle" x="347.5" y="-61.1" font-family="InputSans" font-size="8.00" fill="#000000">cassert</text>
</g>
<!-- Node1&#45;&gt;Node2 -->
<g id="edge2" class="edge">
<title>Node1&#45;&gt;Node2</title>
<path fill="none" stroke="#191970" d="M474.413,-163.148C447.252,-156.7172 413.4374,-145.4024 388.5,-126 373.2503,-114.1351 361.9255,-94.9206 355.0868,-80.827"/>
<polygon fill="#191970" stroke="#191970" points="358.2369,-79.299 350.908,-71.648 351.8661,-82.1995 358.2369,-79.299"/>
</g>
<!-- Node3 -->
<g id="node4" class="node">
<title>Node3</title>
<polygon fill="none" stroke="#bfbfbf" points="743,-54.5 743,-71.5 800,-71.5 800,-54.5 743,-54.5"/>
<text text-anchor="middle" x="771.5" y="-61.1" font-family="InputSans" font-size="8.00" fill="#000000">Python.h</text>
</g>
<!-- Node1&#45;&gt;Node3 -->
<g id="edge3" class="edge">
<title>Node1&#45;&gt;Node3</title>
<path fill="none" stroke="#191970" d="M529.2783,-162.3166C543.47,-148.7561 572.8668,-122.5958 602.5,-108 644.6441,-87.2419 697.5801,-75.1377 732.8675,-68.8095"/>
<polygon fill="#191970" stroke="#191970" points="733.5142,-72.2497 742.7741,-67.1016 732.3248,-65.3515 733.5142,-72.2497"/>
</g>
<!-- Node4 -->
<g id="node5" class="node">
<title>Node4</title>
<g id="a_node5"><a xlink:href="_python_object_8hpp.html" target="_top" xlink:title="PythonObject.hpp">
<polygon fill="none" stroke="#000000" points="684.5,-108.5 684.5,-125.5 782.5,-125.5 782.5,-108.5 684.5,-108.5"/>
<text text-anchor="middle" x="733.5" y="-115.1" font-family="InputSans" font-size="8.00" fill="#000000">PythonObject.hpp</text>
</a>
</g>
</g>
<!-- Node1&#45;&gt;Node4 -->
<g id="edge4" class="edge">
<title>Node1&#45;&gt;Node4</title>
<path fill="none" stroke="#191970" d="M554.2505,-162.4435C591.0183,-153.1221 649.9458,-138.1828 690.122,-127.9972"/>
<polygon fill="#191970" stroke="#191970" points="691.0742,-131.3666 699.9074,-125.5164 689.3539,-124.5813 691.0742,-131.3666"/>
</g>
<!-- Node4&#45;&gt;Node3 -->
<g id="edge6" class="edge">
<title>Node4&#45;&gt;Node3</title>
<path fill="none" stroke="#191970" d="M739.7749,-108.083C745.1425,-100.4554 753.0176,-89.2645 759.5787,-79.9408"/>
<polygon fill="#191970" stroke="#191970" points="762.4492,-81.9434 765.3418,-71.7511 756.7245,-77.9149 762.4492,-81.9434"/>
</g>
<!-- Node5 -->
<g id="node6" class="node">
<title>Node5</title>
<polygon fill="none" stroke="#bfbfbf" points="487,-54.5 487,-71.5 546,-71.5 546,-54.5 487,-54.5"/>
<text text-anchor="middle" x="516.5" y="-61.1" font-family="InputSans" font-size="8.00" fill="#000000">iostream</text>
</g>
<!-- Node4&#45;&gt;Node5 -->
<g id="edge5" class="edge">
<title>Node4&#45;&gt;Node5</title>
<path fill="none" stroke="#191970" d="M699.1157,-108.4435C660.2252,-98.7657 596.9995,-83.0321 556.0837,-72.8503"/>
<polygon fill="#191970" stroke="#191970" points="556.7397,-69.4069 546.1905,-70.3884 555.0493,-76.1997 556.7397,-69.4069"/>
</g>
<!-- Node6&#45;&gt;Node3 -->
<g id="edge8" class="edge">
<title>Node6&#45;&gt;Node3</title>
<path fill="none" stroke="#191970" d="M969.9873,-162.271C968.7046,-148.6478 964.2145,-122.4035 948.5,-108 928.4537,-89.6261 855.8085,-75.6721 810.0495,-68.4638"/>
<polygon fill="#191970" stroke="#191970" points="810.5784,-65.004 800.1629,-66.945 809.5155,-71.9229 810.5784,-65.004"/>
</g>
<!-- Node6&#45;&gt;Node4 -->
<g id="edge12" class="edge">
<title>Node6&#45;&gt;Node4</title>
<path fill="none" stroke="#191970" d="M932.9466,-162.4435C891.6893,-153.0431 825.3557,-137.9291 780.6336,-127.7393"/>
<polygon fill="#191970" stroke="#191970" points="781.4053,-124.3255 770.8777,-125.5164 779.8502,-131.1506 781.4053,-124.3255"/>
</g>
<!-- Node6&#45;&gt;Node5 -->
<g id="edge9" class="edge">
<title>Node6&#45;&gt;Node5</title>
<path fill="none" stroke="#191970" d="M965.7775,-162.2565C957.6154,-148.1125 939.4201,-120.5352 915.5,-108 853.7191,-75.6239 644.7155,-66.3671 556.4087,-63.8685"/>
<polygon fill="#191970" stroke="#191970" points="556.3462,-60.3657 546.256,-63.5962 556.1585,-67.3631 556.3462,-60.3657"/>
</g>
<!-- Node7 -->
<g id="node8" class="node">
<title>Node7</title>
<polygon fill="none" stroke="#bfbfbf" points="839,-108.5 839,-125.5 890,-125.5 890,-108.5 839,-108.5"/>
<text text-anchor="middle" x="864.5" y="-115.1" font-family="InputSans" font-size="8.00" fill="#000000">memory</text>
</g>
<!-- Node6&#45;&gt;Node7 -->
<g id="edge10" class="edge">
<title>Node6&#45;&gt;Node7</title>
<path fill="none" stroke="#191970" d="M953.4693,-162.324C936.4702,-153.6641 910.1239,-140.2424 890.5074,-130.249"/>
<polygon fill="#191970" stroke="#191970" points="891.9876,-127.0752 881.4885,-125.6545 888.8101,-133.3125 891.9876,-127.0752"/>
</g>
<!-- Node8 -->
<g id="node9" class="node">
<title>Node8</title>
<polygon fill="none" stroke="#bfbfbf" points="379.5,-.5 379.5,-17.5 425.5,-17.5 425.5,-.5 379.5,-.5"/>
<text text-anchor="middle" x="402.5" y="-7.1" font-family="InputSans" font-size="8.00" fill="#000000">string</text>
</g>
<!-- Node6&#45;&gt;Node8 -->
<g id="edge11" class="edge">
<title>Node6&#45;&gt;Node8</title>
<path fill="none" stroke="#191970" d="M973.067,-162.2627C976.3645,-149.0943 980.355,-124.0037 968.5,-108 924.0766,-48.0305 882.3523,-70.1963 809.5,-54 673.1449,-23.686 506.3376,-13.3962 436.1518,-10.2503"/>
<polygon fill="#191970" stroke="#191970" points="435.8769,-6.7354 425.7365,-9.8048 435.5777,-13.729 435.8769,-6.7354"/>
</g>
<!-- Node9&#45;&gt;Node3 -->
<g id="edge14" class="edge">
<title>Node9&#45;&gt;Node3</title>
<path fill="none" stroke="#191970" d="M759.2865,-162.1887C770.326,-154.2415 785.002,-141.4469 791.5,-126 797.8115,-110.9963 790.9889,-93.2779 783.6491,-80.4593"/>
<polygon fill="#191970" stroke="#191970" points="786.4418,-78.3264 778.1445,-71.738 780.5222,-82.0626 786.4418,-78.3264"/>
</g>
<!-- Node9&#45;&gt;Node4 -->
<g id="edge18" class="edge">
<title>Node9&#45;&gt;Node4</title>
<path fill="none" stroke="#191970" d="M743.5184,-162.083C741.9283,-154.9272 739.6412,-144.6353 737.6536,-135.6911"/>
<polygon fill="#191970" stroke="#191970" points="741.0307,-134.7537 735.4447,-125.7511 734.1974,-136.2722 741.0307,-134.7537"/>
</g>
<!-- Node9&#45;&gt;Node5 -->
<g id="edge15" class="edge">
<title>Node9&#45;&gt;Node5</title>
<path fill="none" stroke="#191970" d="M712.3348,-162.4831C684.6222,-154.7556 644.4592,-142.1158 611.5,-126 583.5403,-112.3288 554.0811,-91.6791 535.5164,-77.7843"/>
<polygon fill="#191970" stroke="#191970" points="537.4122,-74.8291 527.3323,-71.5661 533.1773,-80.4028 537.4122,-74.8291"/>
</g>
<!-- Node9&#45;&gt;Node7 -->
<g id="edge16" class="edge">
<title>Node9&#45;&gt;Node7</title>
<path fill="none" stroke="#191970" d="M764.3559,-162.4435C783.766,-153.6356 814.2301,-139.8116 836.4645,-129.722"/>
<polygon fill="#191970" stroke="#191970" points="838.0723,-132.836 845.7323,-125.5164 835.1797,-126.4615 838.0723,-132.836"/>
</g>
<!-- Node10 -->
<g id="node11" class="node">
<title>Node10</title>
<polygon fill="none" stroke="#bfbfbf" points="620.5,-108.5 620.5,-125.5 666.5,-125.5 666.5,-108.5 620.5,-108.5"/>
<text text-anchor="middle" x="643.5" y="-115.1" font-family="InputSans" font-size="8.00" fill="#000000">vector</text>
</g>
<!-- Node9&#45;&gt;Node10 -->
<g id="edge17" class="edge">
<title>Node9&#45;&gt;Node10</title>
<path fill="none" stroke="#191970" d="M729.1119,-162.324C712.8287,-153.7034 687.6325,-140.3643 668.7837,-130.3855"/>
<polygon fill="#191970" stroke="#191970" points="670.3229,-127.2402 659.8474,-125.6545 667.0477,-133.4267 670.3229,-127.2402"/>
</g>
<!-- Node11&#45;&gt;Node3 -->
<g id="edge23" class="edge">
<title>Node11&#45;&gt;Node3</title>
<path fill="none" stroke="#191970" d="M626.6379,-162.4853C615.7271,-149.6077 598.7037,-124.8917 611.5,-108 626.108,-88.7167 690.2199,-75.3888 732.7207,-68.4875"/>
<polygon fill="#191970" stroke="#191970" points="733.4172,-71.9211 742.753,-66.9117 732.331,-65.0059 733.4172,-71.9211"/>
</g>
<!-- Node11&#45;&gt;Node4 -->
<g id="edge24" class="edge">
<title>Node11&#45;&gt;Node4</title>
<path fill="none" stroke="#191970" d="M650.4061,-162.324C666.1382,-153.7428 690.4423,-140.486 708.7089,-130.5224"/>
<polygon fill="#191970" stroke="#191970" points="710.5304,-133.5157 717.6334,-125.6545 707.1784,-127.3704 710.5304,-133.5157"/>
</g>
<!-- Node11&#45;&gt;Node5 -->
<g id="edge20" class="edge">
<title>Node11&#45;&gt;Node5</title>
<path fill="none" stroke="#191970" d="M593.4999,-162.4817C558.9133,-154.3659 513.3493,-141.161 502.5,-126 492.9508,-112.6557 498.9093,-93.961 505.7575,-80.4048"/>
<polygon fill="#191970" stroke="#191970" points="508.8603,-82.0273 510.6922,-71.5921 502.7526,-78.6073 508.8603,-82.0273"/>
</g>
<!-- Node11&#45;&gt;Node7 -->
<g id="edge21" class="edge">
<title>Node11&#45;&gt;Node7</title>
<path fill="none" stroke="#191970" d="M670.9442,-162.4435C714.2412,-152.2781 785.9956,-135.4315 828.9129,-125.3552"/>
<polygon fill="#191970" stroke="#191970" points="829.9733,-128.7015 838.9086,-123.0084 828.3733,-121.8868 829.9733,-128.7015"/>
</g>
<!-- Node11&#45;&gt;Node8 -->
<g id="edge22" class="edge">
<title>Node11&#45;&gt;Node8</title>
<path fill="none" stroke="#191970" d="M584.8951,-162.7706C556.2722,-156.2494 520.6816,-144.9712 493.5,-126 455.497,-99.4762 425.9276,-52.3676 411.7336,-26.7633"/>
<polygon fill="#191970" stroke="#191970" points="414.7318,-24.9487 406.9102,-17.8021 408.568,-28.2665 414.7318,-24.9487"/>
</g>
<!-- Node12&#45;&gt;Node3 -->
<g id="edge26" class="edge">
<title>Node12&#45;&gt;Node3</title>
<path fill="none" stroke="#191970" d="M879.9326,-162.4585C909.6697,-151.7498 950.6136,-131.8706 932.5,-108 917.7511,-88.5635 852.9261,-75.2467 810.1655,-68.3952"/>
<polygon fill="#191970" stroke="#191970" points="810.4968,-64.9049 800.0788,-66.8325 809.425,-71.8224 810.4968,-64.9049"/>
</g>
<!-- Node12&#45;&gt;Node4 -->
<g id="edge30" class="edge">
<title>Node12&#45;&gt;Node4</title>
<path fill="none" stroke="#191970" d="M833.6441,-162.4435C814.234,-153.6356 783.7699,-139.8116 761.5355,-129.722"/>
<polygon fill="#191970" stroke="#191970" points="762.8203,-126.4615 752.2677,-125.5164 759.9277,-132.836 762.8203,-126.4615"/>
</g>
<!-- Node12&#45;&gt;Node5 -->
<g id="edge27" class="edge">
<title>Node12&#45;&gt;Node5</title>
<path fill="none" stroke="#191970" d="M866.7835,-162.4921C885.956,-150.0438 915.8236,-126.3538 899.5,-108 876.9543,-82.6502 650.0182,-69.2327 556.4779,-64.7437"/>
<polygon fill="#191970" stroke="#191970" points="556.4299,-61.2377 546.2766,-64.2643 556.1013,-68.23 556.4299,-61.2377"/>
</g>
<!-- Node12&#45;&gt;Node7 -->
<g id="edge28" class="edge">
<title>Node12&#45;&gt;Node7</title>
<path fill="none" stroke="#191970" d="M854.4816,-162.083C856.0717,-154.9272 858.3588,-144.6353 860.3464,-135.6911"/>
<polygon fill="#191970" stroke="#191970" points="863.8026,-136.2722 862.5553,-125.7511 856.9693,-134.7537 863.8026,-136.2722"/>
</g>
<!-- Node12&#45;&gt;Node10 -->
<g id="edge29" class="edge">
<title>Node12&#45;&gt;Node10</title>
<path fill="none" stroke="#191970" d="M817.8385,-162.462C784.1299,-154.098 731.2327,-140.8136 676.4393,-126.2036"/>
<polygon fill="#191970" stroke="#191970" points="677.1178,-122.7621 666.553,-123.5585 675.3085,-129.5243 677.1178,-122.7621"/>
</g>
<!-- Node13&#45;&gt;Node4 -->
<g id="edge46" class="edge">
<title>Node13&#45;&gt;Node4</title>
<path fill="none" stroke="#191970" d="M456.778,-163.2631C514.0335,-153.691 611.6039,-137.3789 674.2697,-126.9023"/>
<polygon fill="#191970" stroke="#191970" points="675.112,-130.3101 684.398,-125.209 673.9577,-123.4059 675.112,-130.3101"/>
</g>
<!-- Node13&#45;&gt;Node5 -->
<g id="edge33" class="edge">
<title>Node13&#45;&gt;Node5</title>
<path fill="none" stroke="#191970" d="M417.1156,-162.4987C426.9425,-150.0585 446.2082,-126.3786 464.5,-108 475.0275,-97.4225 487.6721,-86.4458 497.8562,-77.9815"/>
<polygon fill="#191970" stroke="#191970" points="500.2164,-80.5725 505.7318,-71.5264 495.779,-75.1587 500.2164,-80.5725"/>
</g>
<!-- Node13&#45;&gt;Node10 -->
<g id="edge34" class="edge">
<title>Node13&#45;&gt;Node10</title>
<path fill="none" stroke="#191970" d="M447.4195,-162.4435C492.2297,-152.0584 567.1285,-134.6998 610.2273,-124.7113"/>
<polygon fill="#191970" stroke="#191970" points="611.2533,-128.0663 620.2049,-122.3989 609.6729,-121.2471 611.2533,-128.0663"/>
</g>
<!-- Node14 -->
<g id="node15" class="node">
<title>Node14</title>
<polygon fill="none" stroke="#bfbfbf" points="294.5,-108.5 294.5,-125.5 336.5,-125.5 336.5,-108.5 294.5,-108.5"/>
<text text-anchor="middle" x="315.5" y="-115.1" font-family="InputSans" font-size="8.00" fill="#000000">array</text>
</g>
<!-- Node13&#45;&gt;Node14 -->
<g id="edge32" class="edge">
<title>Node13&#45;&gt;Node14</title>
<path fill="none" stroke="#191970" d="M395.2366,-162.324C380.2786,-153.8215 357.2452,-140.7288 339.7733,-130.7975"/>
<polygon fill="#191970" stroke="#191970" points="341.1488,-127.5534 330.7255,-125.6545 337.6896,-133.639 341.1488,-127.5534"/>
</g>
<!-- Node15 -->
<g id="node16" class="node">
<title>Node15</title>
<g id="a_node16"><a xlink:href="_vec_8hpp.html" target="_top" xlink:title="Vec.hpp">
<polygon fill="none" stroke="#000000" points="222.5,-108.5 222.5,-125.5 276.5,-125.5 276.5,-108.5 222.5,-108.5"/>
<text text-anchor="middle" x="249.5" y="-115.1" font-family="InputSans" font-size="8.00" fill="#000000">Vec.hpp</text>
</a>
</g>
</g>
<!-- Node13&#45;&gt;Node15 -->
<g id="edge35" class="edge">
<title>Node13&#45;&gt;Node15</title>
<path fill="none" stroke="#191970" d="M384.9891,-162.4435C357.904,-153.3591 314.91,-138.9388 284.6312,-128.7831"/>
<polygon fill="#191970" stroke="#191970" points="285.4855,-125.3781 274.8916,-125.5164 283.2595,-132.0148 285.4855,-125.3781"/>
</g>
<!-- Node15&#45;&gt;Node2 -->
<g id="edge36" class="edge">
<title>Node15&#45;&gt;Node2</title>
<path fill="none" stroke="#191970" d="M265.2454,-108.324C280.8187,-99.7428 304.8773,-86.486 322.9593,-76.5224"/>
<polygon fill="#191970" stroke="#191970" points="324.7244,-79.546 331.7937,-71.6545 321.3461,-73.4152 324.7244,-79.546"/>
</g>
<!-- Node15&#45;&gt;Node5 -->
<g id="edge37" class="edge">
<title>Node15&#45;&gt;Node5</title>
<path fill="none" stroke="#191970" d="M276.5907,-110.0652C279.5915,-109.3454 282.6071,-108.6429 285.5,-108 352.4303,-93.1253 430.8715,-78.4157 476.9739,-70.0461"/>
<polygon fill="#191970" stroke="#191970" points="477.6426,-73.482 486.8603,-68.2586 476.3971,-66.5937 477.6426,-73.482"/>
</g>
<!-- Node16 -->
<g id="node17" class="node">
<title>Node16</title>
<g id="a_node17"><a xlink:href="_core_math_8hpp.html" target="_top" xlink:title="CoreMath.hpp">
<polygon fill="none" stroke="#000000" points="127,-54.5 127,-71.5 208,-71.5 208,-54.5 127,-54.5"/>
<text text-anchor="middle" x="167.5" y="-61.1" font-family="InputSans" font-size="8.00" fill="#000000">CoreMath.hpp</text>
</a>
</g>
</g>
<!-- Node15&#45;&gt;Node16 -->
<g id="edge38" class="edge">
<title>Node15&#45;&gt;Node16</title>
<path fill="none" stroke="#191970" d="M236.3253,-108.324C223.6532,-99.979 204.2666,-87.2122 189.2944,-77.3524"/>
<polygon fill="#191970" stroke="#191970" points="190.9187,-74.2313 180.642,-71.6545 187.0688,-80.0776 190.9187,-74.2313"/>
</g>
<!-- Node21 -->
<g id="node22" class="node">
<title>Node21</title>
<g id="a_node22"><a xlink:href="_vec_8inl.html" target="_top" xlink:title="Vec.inl">
<polygon fill="none" stroke="#000000" points="252,-54.5 252,-71.5 303,-71.5 303,-54.5 252,-54.5"/>
<text text-anchor="middle" x="277.5" y="-61.1" font-family="InputSans" font-size="8.00" fill="#000000">Vec.inl</text>
</a>
</g>
</g>
<!-- Node15&#45;&gt;Node21 -->
<g id="edge43" class="edge">
<title>Node15&#45;&gt;Node21</title>
<path fill="none" stroke="#191970" d="M254.1236,-108.083C257.9563,-100.6913 263.5242,-89.9533 268.2646,-80.8111"/>
<polygon fill="#191970" stroke="#191970" points="271.4663,-82.2398 272.9624,-71.7511 265.252,-79.0175 271.4663,-82.2398"/>
</g>
<!-- Node17 -->
<g id="node18" class="node">
<title>Node17</title>
<polygon fill="none" stroke="#bfbfbf" points="0,-.5 0,-17.5 63,-17.5 63,-.5 0,-.5"/>
<text text-anchor="middle" x="31.5" y="-7.1" font-family="InputSans" font-size="8.00" fill="#000000">algorithm</text>
</g>
<!-- Node16&#45;&gt;Node17 -->
<g id="edge39" class="edge">
<title>Node16&#45;&gt;Node17</title>
<path fill="none" stroke="#191970" d="M145.9504,-54.4435C123.469,-45.5171 88.0123,-31.4387 62.5201,-21.3168"/>
<polygon fill="#191970" stroke="#191970" points="63.5346,-17.9539 52.9488,-17.5164 60.9513,-24.4598 63.5346,-17.9539"/>
</g>
<!-- Node18 -->
<g id="node19" class="node">
<title>Node18</title>
<polygon fill="none" stroke="#bfbfbf" points="81,-.5 81,-17.5 126,-17.5 126,-.5 81,-.5"/>
<text text-anchor="middle" x="103.5" y="-7.1" font-family="InputSans" font-size="8.00" fill="#000000">cmath</text>
</g>
<!-- Node16&#45;&gt;Node18 -->
<g id="edge40" class="edge">
<title>Node16&#45;&gt;Node18</title>
<path fill="none" stroke="#191970" d="M157.2173,-54.324C147.6637,-46.2631 133.2203,-34.0765 121.7157,-24.3695"/>
<polygon fill="#191970" stroke="#191970" points="123.8698,-21.6076 113.9698,-17.8339 119.3557,-26.9577 123.8698,-21.6076"/>
</g>
<!-- Node19 -->
<g id="node20" class="node">
<title>Node19</title>
<polygon fill="none" stroke="#bfbfbf" points="144.5,-.5 144.5,-17.5 190.5,-17.5 190.5,-.5 144.5,-.5"/>
<text text-anchor="middle" x="167.5" y="-7.1" font-family="InputSans" font-size="8.00" fill="#000000">cfloat</text>
</g>
<!-- Node16&#45;&gt;Node19 -->
<g id="edge41" class="edge">
<title>Node16&#45;&gt;Node19</title>
<path fill="none" stroke="#191970" d="M167.5,-54.083C167.5,-47.0059 167.5,-36.8611 167.5,-27.9865"/>
<polygon fill="#191970" stroke="#191970" points="171.0001,-27.751 167.5,-17.7511 164.0001,-27.7511 171.0001,-27.751"/>
</g>
<!-- Node20 -->
<g id="node21" class="node">
<title>Node20</title>
<polygon fill="none" stroke="#bfbfbf" points="208.5,-.5 208.5,-17.5 258.5,-17.5 258.5,-.5 208.5,-.5"/>
<text text-anchor="middle" x="233.5" y="-7.1" font-family="InputSans" font-size="8.00" fill="#000000">cstdint</text>
</g>
<!-- Node16&#45;&gt;Node20 -->
<g id="edge42" class="edge">
<title>Node16&#45;&gt;Node20</title>
<path fill="none" stroke="#191970" d="M178.104,-54.324C187.9562,-46.2631 202.8509,-34.0765 214.7151,-24.3695"/>
<polygon fill="#191970" stroke="#191970" points="217.1798,-26.8752 222.703,-17.8339 212.7471,-21.4575 217.1798,-26.8752"/>
</g>
<!-- Node21&#45;&gt;Node8 -->
<g id="edge44" class="edge">
<title>Node21&#45;&gt;Node8</title>
<path fill="none" stroke="#191970" d="M297.3066,-54.4435C317.7868,-45.5961 349.9827,-31.6875 373.3647,-21.5865"/>
<polygon fill="#191970" stroke="#191970" points="374.9941,-24.6953 382.786,-17.5164 372.218,-18.2692 374.9941,-24.6953"/>
</g>
<!-- Node22 -->
<g id="node23" class="node">
<title>Node22</title>
<polygon fill="none" stroke="#bfbfbf" points="277,-.5 277,-17.5 332,-17.5 332,-.5 277,-.5"/>
<text text-anchor="middle" x="304.5" y="-7.1" font-family="InputSans" font-size="8.00" fill="#000000">sstream</text>
</g>
<!-- Node21&#45;&gt;Node22 -->
<g id="edge45" class="edge">
<title>Node21&#45;&gt;Node22</title>
<path fill="none" stroke="#191970" d="M281.9585,-54.083C285.6543,-46.6913 291.0234,-35.9533 295.5945,-26.8111"/>
<polygon fill="#191970" stroke="#191970" points="298.7828,-28.2606 300.1245,-17.7511 292.5218,-25.1301 298.7828,-28.2606"/>
</g>
</g>
</svg>
