<?xml version="1.0" encoding="UTF-8" standalone="no"?>
<!DOCTYPE svg PUBLIC "-//W3C//DTD SVG 1.1//EN"
 "http://www.w3.org/Graphics/SVG/1.1/DTD/svg11.dtd">
<!-- Generated by graphviz version 2.40.1 (20161225.0304)
 -->
<!-- Title: /home/jacques/repos/math4171/src/arcmath/CoreMath.hpp Pages: 1 -->
<svg width="515pt" height="260pt"
 viewBox="0.00 0.00 515.00 260.00" xmlns="http://www.w3.org/2000/svg" xmlns:xlink="http://www.w3.org/1999/xlink">
<g id="graph0" class="graph" transform="scale(1 1) rotate(0) translate(4 256)">
<title>/home/jacques/repos/math4171/src/arcmath/CoreMath.hpp</title>
<!-- Node5 -->
<g id="node1" class="node">
<title>Node5</title>
<polygon fill="#bfbfbf" stroke="#000000" points="86,-216.5 86,-251.5 202,-251.5 202,-216.5 86,-216.5"/>
<text text-anchor="start" x="94" y="-241.1" font-family="InputSans" font-size="8.00" fill="#000000">/home/jacques/repos</text>
<text text-anchor="start" x="94" y="-232.1" font-family="InputSans" font-size="8.00" fill="#000000">/math4171/src/arcmath</text>
<text text-anchor="middle" x="144" y="-223.1" font-family="InputSans" font-size="8.00" fill="#000000">/CoreMath.hpp</text>
</g>
<!-- Node6 -->
<g id="node2" class="node">
<title>Node6</title>
<g id="a_node2"><a xlink:href="_core_math_8cpp.html" target="_top" xlink:title="/home/jacques/repos\l/math4171/src/arcmath\l/CoreMath.cpp">
<polygon fill="none" stroke="#000000" points="0,-144.5 0,-179.5 116,-179.5 116,-144.5 0,-144.5"/>
<text text-anchor="start" x="8" y="-169.1" font-family="InputSans" font-size="8.00" fill="#000000">/home/jacques/repos</text>
<text text-anchor="start" x="8" y="-160.1" font-family="InputSans" font-size="8.00" fill="#000000">/math4171/src/arcmath</text>
<text text-anchor="middle" x="58" y="-151.1" font-family="InputSans" font-size="8.00" fill="#000000">/CoreMath.cpp</text>
</a>
</g>
</g>
<!-- Node5&#45;&gt;Node6 -->
<g id="edge1" class="edge">
<title>Node5&#45;&gt;Node6</title>
<path fill="none" stroke="#191970" d="M114.8944,-209.6325C103.1282,-199.7818 89.807,-188.6291 79.0139,-179.593"/>
<polygon fill="#191970" stroke="#191970" points="112.8272,-212.4665 122.7416,-216.2022 117.3208,-207.0992 112.8272,-212.4665"/>
</g>
<!-- Node7 -->
<g id="node3" class="node">
<title>Node7</title>
<g id="a_node3"><a xlink:href="_vec_8hpp.html" target="_top" xlink:title="/home/jacques/repos\l/math4171/src/arcmath\l/Vec.hpp">
<polygon fill="none" stroke="#000000" points="196,-144.5 196,-179.5 312,-179.5 312,-144.5 196,-144.5"/>
<text text-anchor="start" x="204" y="-169.1" font-family="InputSans" font-size="8.00" fill="#000000">/home/jacques/repos</text>
<text text-anchor="start" x="204" y="-160.1" font-family="InputSans" font-size="8.00" fill="#000000">/math4171/src/arcmath</text>
<text text-anchor="middle" x="254" y="-151.1" font-family="InputSans" font-size="8.00" fill="#000000">/Vec.hpp</text>
</a>
</g>
</g>
<!-- Node5&#45;&gt;Node7 -->
<g id="edge2" class="edge">
<title>Node5&#45;&gt;Node7</title>
<path fill="none" stroke="#191970" d="M179.6528,-210.6636C195.0309,-200.598 212.7216,-189.0186 226.9875,-179.6809"/>
<polygon fill="#191970" stroke="#191970" points="177.3592,-207.9817 170.909,-216.3868 181.1929,-213.8386 177.3592,-207.9817"/>
</g>
<!-- Node9 -->
<g id="node5" class="node">
<title>Node9</title>
<g id="a_node5"><a xlink:href="_min_nelder_mead_8hpp.html" target="_top" xlink:title="/home/jacques/repos\l/math4171/src/arcmath\l/MinNelderMead.hpp">
<polygon fill="none" stroke="#000000" points="62,-72.5 62,-107.5 178,-107.5 178,-72.5 62,-72.5"/>
<text text-anchor="start" x="70" y="-97.1" font-family="InputSans" font-size="8.00" fill="#000000">/home/jacques/repos</text>
<text text-anchor="start" x="70" y="-88.1" font-family="InputSans" font-size="8.00" fill="#000000">/math4171/src/arcmath</text>
<text text-anchor="middle" x="120" y="-79.1" font-family="InputSans" font-size="8.00" fill="#000000">/MinNelderMead.hpp</text>
</a>
</g>
</g>
<!-- Node5&#45;&gt;Node9 -->
<g id="edge11" class="edge">
<title>Node5&#45;&gt;Node9</title>
<path fill="none" stroke="#191970" d="M139.4041,-206.4243C134.5629,-177.3772 127.0825,-132.4953 122.9669,-107.8017"/>
<polygon fill="#191970" stroke="#191970" points="135.9607,-207.0543 141.0571,-216.3428 142.8654,-205.9034 135.9607,-207.0543"/>
</g>
<!-- Node8 -->
<g id="node4" class="node">
<title>Node8</title>
<g id="a_node4"><a xlink:href="_mat_8hpp.html" target="_top" xlink:title="/home/jacques/repos\l/math4171/src/arcmath\l/Mat.hpp">
<polygon fill="none" stroke="#000000" points="196,-72.5 196,-107.5 312,-107.5 312,-72.5 196,-72.5"/>
<text text-anchor="start" x="204" y="-97.1" font-family="InputSans" font-size="8.00" fill="#000000">/home/jacques/repos</text>
<text text-anchor="start" x="204" y="-88.1" font-family="InputSans" font-size="8.00" fill="#000000">/math4171/src/arcmath</text>
<text text-anchor="middle" x="254" y="-79.1" font-family="InputSans" font-size="8.00" fill="#000000">/Mat.hpp</text>
</a>
</g>
</g>
<!-- Node7&#45;&gt;Node8 -->
<g id="edge3" class="edge">
<title>Node7&#45;&gt;Node8</title>
<path fill="none" stroke="#191970" d="M254,-134.1759C254,-125.2363 254,-115.5865 254,-107.593"/>
<polygon fill="#191970" stroke="#191970" points="250.5001,-134.2022 254,-144.2022 257.5001,-134.2023 250.5001,-134.2022"/>
</g>
<!-- Node7&#45;&gt;Node9 -->
<g id="edge4" class="edge">
<title>Node7&#45;&gt;Node9</title>
<path fill="none" stroke="#191970" d="M212.3974,-139.6464C193.2494,-129.3579 170.853,-117.324 152.9061,-107.6809"/>
<polygon fill="#191970" stroke="#191970" points="210.7543,-142.7367 221.2199,-144.3868 214.0676,-136.5705 210.7543,-142.7367"/>
</g>
<!-- Node11 -->
<g id="node7" class="node">
<title>Node11</title>
<g id="a_node7"><a xlink:href="_main_8cpp.html" target="_top" xlink:title="/home/jacques/repos\l/math4171/src/assignment1\l&#45;src/Main.cpp">
<polygon fill="none" stroke="#000000" points="243.5,-.5 243.5,-35.5 378.5,-35.5 378.5,-.5 243.5,-.5"/>
<text text-anchor="start" x="251.5" y="-25.1" font-family="InputSans" font-size="8.00" fill="#000000">/home/jacques/repos</text>
<text text-anchor="start" x="251.5" y="-16.1" font-family="InputSans" font-size="8.00" fill="#000000">/math4171/src/assignment1</text>
<text text-anchor="middle" x="311" y="-7.1" font-family="InputSans" font-size="8.00" fill="#000000">&#45;src/Main.cpp</text>
</a>
</g>
</g>
<!-- Node7&#45;&gt;Node11 -->
<g id="edge10" class="edge">
<title>Node7&#45;&gt;Node11</title>
<path fill="none" stroke="#191970" d="M295.2304,-138.1822C305.5538,-130.0326 315.3023,-119.9102 321,-108 332.1266,-84.7417 324.8932,-54.3471 318.2572,-35.5048"/>
<polygon fill="#191970" stroke="#191970" points="292.8912,-135.5571 286.8943,-144.2915 297.0291,-141.2032 292.8912,-135.5571"/>
</g>
<!-- Node12 -->
<g id="node8" class="node">
<title>Node12</title>
<g id="a_node8"><a xlink:href="_surf_plot3d_8hpp.html" target="_top" xlink:title="/home/jacques/repos\l/math4171/src/arcplot\l/SurfPlot3d.hpp">
<polygon fill="none" stroke="#000000" points="368,-72.5 368,-107.5 478,-107.5 478,-72.5 368,-72.5"/>
<text text-anchor="start" x="376" y="-97.1" font-family="InputSans" font-size="8.00" fill="#000000">/home/jacques/repos</text>
<text text-anchor="start" x="376" y="-88.1" font-family="InputSans" font-size="8.00" fill="#000000">/math4171/src/arcplot</text>
<text text-anchor="middle" x="423" y="-79.1" font-family="InputSans" font-size="8.00" fill="#000000">/SurfPlot3d.hpp</text>
</a>
</g>
</g>
<!-- Node7&#45;&gt;Node12 -->
<g id="edge7" class="edge">
<title>Node7&#45;&gt;Node12</title>
<path fill="none" stroke="#191970" d="M304.5464,-140.4654C329.2116,-129.9572 358.5066,-117.4765 381.7922,-107.556"/>
<polygon fill="#191970" stroke="#191970" points="303.1701,-137.2473 295.3421,-144.3868 305.9138,-143.6872 303.1701,-137.2473"/>
</g>
<!-- Node10 -->
<g id="node6" class="node">
<title>Node10</title>
<g id="a_node6"><a xlink:href="_min_nelder_mead_8cpp.html" target="_top" xlink:title="/home/jacques/repos\l/math4171/src/arcmath\l/MinNelderMead.cpp">
<polygon fill="none" stroke="#000000" points="62,-.5 62,-35.5 178,-35.5 178,-.5 62,-.5"/>
<text text-anchor="start" x="70" y="-25.1" font-family="InputSans" font-size="8.00" fill="#000000">/home/jacques/repos</text>
<text text-anchor="start" x="70" y="-16.1" font-family="InputSans" font-size="8.00" fill="#000000">/math4171/src/arcmath</text>
<text text-anchor="middle" x="120" y="-7.1" font-family="InputSans" font-size="8.00" fill="#000000">/MinNelderMead.cpp</text>
</a>
</g>
</g>
<!-- Node9&#45;&gt;Node10 -->
<g id="edge5" class="edge">
<title>Node9&#45;&gt;Node10</title>
<path fill="none" stroke="#191970" d="M120,-62.1759C120,-53.2363 120,-43.5865 120,-35.593"/>
<polygon fill="#191970" stroke="#191970" points="116.5001,-62.2022 120,-72.2022 123.5001,-62.2023 116.5001,-62.2022"/>
</g>
<!-- Node9&#45;&gt;Node11 -->
<g id="edge6" class="edge">
<title>Node9&#45;&gt;Node11</title>
<path fill="none" stroke="#191970" d="M176.3908,-68.7427C204.4186,-58.1773 237.8791,-45.5639 264.4279,-35.556"/>
<polygon fill="#191970" stroke="#191970" points="174.8465,-65.5844 166.7239,-72.3868 177.3157,-72.1345 174.8465,-65.5844"/>
</g>
<!-- Node12&#45;&gt;Node11 -->
<g id="edge9" class="edge">
<title>Node12&#45;&gt;Node11</title>
<path fill="none" stroke="#191970" d="M387.1373,-66.9454C371.3783,-56.8146 353.1647,-45.1059 338.5036,-35.6809"/>
<polygon fill="#191970" stroke="#191970" points="385.2972,-69.9233 395.6017,-72.3868 389.0826,-64.0351 385.2972,-69.9233"/>
</g>
<!-- Node13 -->
<g id="node9" class="node">
<title>Node13</title>
<g id="a_node9"><a xlink:href="_surf_plot3d_8cpp.html" target="_top" xlink:title="/home/jacques/repos\l/math4171/src/arcplot\l/SurfPlot3d.cpp">
<polygon fill="none" stroke="#000000" points="397,-.5 397,-35.5 507,-35.5 507,-.5 397,-.5"/>
<text text-anchor="start" x="405" y="-25.1" font-family="InputSans" font-size="8.00" fill="#000000">/home/jacques/repos</text>
<text text-anchor="start" x="405" y="-16.1" font-family="InputSans" font-size="8.00" fill="#000000">/math4171/src/arcplot</text>
<text text-anchor="middle" x="452" y="-7.1" font-family="InputSans" font-size="8.00" fill="#000000">/SurfPlot3d.cpp</text>
</a>
</g>
</g>
<!-- Node12&#45;&gt;Node13 -->
<g id="edge8" class="edge">
<title>Node12&#45;&gt;Node13</title>
<path fill="none" stroke="#191970" d="M433.9725,-62.7579C437.6383,-53.6566 441.6243,-43.7602 444.9139,-35.593"/>
<polygon fill="#191970" stroke="#191970" points="430.6582,-61.6187 430.1685,-72.2022 437.1513,-64.234 430.6582,-61.6187"/>
</g>
</g>
</svg>
