<?xml version="1.0" encoding="UTF-8" standalone="no"?>
<!DOCTYPE svg PUBLIC "-//W3C//DTD SVG 1.1//EN"
 "http://www.w3.org/Graphics/SVG/1.1/DTD/svg11.dtd">
<!-- Generated by graphviz version 2.40.1 (20161225.0304)
 -->
<!-- Title: /home/jacques/repos/math4171/src/arcmath/CoreMath.hpp Pages: 1 -->
<svg width="247pt" height="98pt"
 viewBox="0.00 0.00 246.50 98.00" xmlns="http://www.w3.org/2000/svg" xmlns:xlink="http://www.w3.org/1999/xlink">
<g id="graph0" class="graph" transform="scale(1 1) rotate(0) translate(4 94)">
<title>/home/jacques/repos/math4171/src/arcmath/CoreMath.hpp</title>
<!-- Node0 -->
<g id="node1" class="node">
<title>Node0</title>
<polygon fill="#bfbfbf" stroke="#000000" points="68.5,-54.5 68.5,-89.5 184.5,-89.5 184.5,-54.5 68.5,-54.5"/>
<text text-anchor="start" x="76.5" y="-79.1" font-family="InputSans" font-size="8.00" fill="#000000">/home/jacques/repos</text>
<text text-anchor="start" x="76.5" y="-70.1" font-family="InputSans" font-size="8.00" fill="#000000">/math4171/src/arcmath</text>
<text text-anchor="middle" x="126.5" y="-61.1" font-family="InputSans" font-size="8.00" fill="#000000">/CoreMath.hpp</text>
</g>
<!-- Node1 -->
<g id="node2" class="node">
<title>Node1</title>
<polygon fill="none" stroke="#bfbfbf" points="0,-.5 0,-17.5 57,-17.5 57,-.5 0,-.5"/>
<text text-anchor="middle" x="28.5" y="-7.1" font-family="InputSans" font-size="8.00" fill="#000000">algorithm</text>
</g>
<!-- Node0&#45;&gt;Node1 -->
<g id="edge1" class="edge">
<title>Node0&#45;&gt;Node1</title>
<path fill="none" stroke="#191970" d="M99.2015,-54.451C83.8701,-44.5951 64.9866,-32.4557 50.5929,-23.2026"/>
<polygon fill="#191970" stroke="#191970" points="52.1695,-20.0553 41.865,-17.5918 48.3842,-25.9435 52.1695,-20.0553"/>
</g>
<!-- Node2 -->
<g id="node3" class="node">
<title>Node2</title>
<polygon fill="none" stroke="#bfbfbf" points="75,-.5 75,-17.5 118,-17.5 118,-.5 75,-.5"/>
<text text-anchor="middle" x="96.5" y="-7.1" font-family="InputSans" font-size="8.00" fill="#000000">cmath</text>
</g>
<!-- Node0&#45;&gt;Node2 -->
<g id="edge2" class="edge">
<title>Node0&#45;&gt;Node2</title>
<path fill="none" stroke="#191970" d="M118.1433,-54.451C114.056,-45.8677 109.144,-35.5525 105.0334,-26.9201"/>
<polygon fill="#191970" stroke="#191970" points="108.1328,-25.2878 100.6733,-17.764 101.8127,-28.2974 108.1328,-25.2878"/>
</g>
<!-- Node3 -->
<g id="node4" class="node">
<title>Node3</title>
<polygon fill="none" stroke="#bfbfbf" points="136.5,-.5 136.5,-17.5 176.5,-17.5 176.5,-.5 136.5,-.5"/>
<text text-anchor="middle" x="156.5" y="-7.1" font-family="InputSans" font-size="8.00" fill="#000000">cfloat</text>
</g>
<!-- Node0&#45;&gt;Node3 -->
<g id="edge3" class="edge">
<title>Node0&#45;&gt;Node3</title>
<path fill="none" stroke="#191970" d="M134.8567,-54.451C138.944,-45.8677 143.856,-35.5525 147.9666,-26.9201"/>
<polygon fill="#191970" stroke="#191970" points="151.1873,-28.2974 152.3267,-17.764 144.8672,-25.2878 151.1873,-28.2974"/>
</g>
<!-- Node4 -->
<g id="node5" class="node">
<title>Node4</title>
<polygon fill="none" stroke="#bfbfbf" points="194.5,-.5 194.5,-17.5 238.5,-17.5 238.5,-.5 194.5,-.5"/>
<text text-anchor="middle" x="216.5" y="-7.1" font-family="InputSans" font-size="8.00" fill="#000000">cstdint</text>
</g>
<!-- Node0&#45;&gt;Node4 -->
<g id="edge4" class="edge">
<title>Node0&#45;&gt;Node4</title>
<path fill="none" stroke="#191970" d="M151.57,-54.451C165.4313,-44.7481 182.4541,-32.8321 195.5919,-23.6357"/>
<polygon fill="#191970" stroke="#191970" points="197.7948,-26.366 203.98,-17.764 193.7805,-20.6314 197.7948,-26.366"/>
</g>
</g>
</svg>
