<?xml version="1.0" encoding="UTF-8" standalone="no"?>
<!DOCTYPE svg PUBLIC "-//W3C//DTD SVG 1.1//EN"
 "http://www.w3.org/Graphics/SVG/1.1/DTD/svg11.dtd">
<!-- Generated by graphviz version 2.40.1 (20161225.0304)
 -->
<!-- Title: /home/jacques/repos/math4171/src/arcmath/CoreMath.cpp Pages: 1 -->
<svg width="247pt" height="152pt"
 viewBox="0.00 0.00 246.50 152.00" xmlns="http://www.w3.org/2000/svg" xmlns:xlink="http://www.w3.org/1999/xlink">
<g id="graph0" class="graph" transform="scale(1 1) rotate(0) translate(4 148)">
<title>/home/jacques/repos/math4171/src/arcmath/CoreMath.cpp</title>
<!-- Node0 -->
<g id="node1" class="node">
<title>Node0</title>
<polygon fill="#bfbfbf" stroke="#000000" points="68.5,-108.5 68.5,-143.5 184.5,-143.5 184.5,-108.5 68.5,-108.5"/>
<text text-anchor="start" x="76.5" y="-133.1" font-family="InputSans" font-size="8.00" fill="#000000">/home/jacques/repos</text>
<text text-anchor="start" x="76.5" y="-124.1" font-family="InputSans" font-size="8.00" fill="#000000">/math4171/src/arcmath</text>
<text text-anchor="middle" x="126.5" y="-115.1" font-family="InputSans" font-size="8.00" fill="#000000">/CoreMath.cpp</text>
</g>
<!-- Node1 -->
<g id="node2" class="node">
<title>Node1</title>
<g id="a_node2"><a xlink:href="_core_math_8hpp.html" target="_top" xlink:title="CoreMath.hpp">
<polygon fill="none" stroke="#000000" points="88.5,-54.5 88.5,-71.5 164.5,-71.5 164.5,-54.5 88.5,-54.5"/>
<text text-anchor="middle" x="126.5" y="-61.1" font-family="InputSans" font-size="8.00" fill="#000000">CoreMath.hpp</text>
</a>
</g>
</g>
<!-- Node0&#45;&gt;Node1 -->
<g id="edge1" class="edge">
<title>Node0&#45;&gt;Node1</title>
<path fill="none" stroke="#191970" d="M126.5,-108.451C126.5,-100.1476 126.5,-90.2234 126.5,-81.7698"/>
<polygon fill="#191970" stroke="#191970" points="130.0001,-81.764 126.5,-71.764 123.0001,-81.7641 130.0001,-81.764"/>
</g>
<!-- Node2 -->
<g id="node3" class="node">
<title>Node2</title>
<polygon fill="none" stroke="#bfbfbf" points="0,-.5 0,-17.5 57,-17.5 57,-.5 0,-.5"/>
<text text-anchor="middle" x="28.5" y="-7.1" font-family="InputSans" font-size="8.00" fill="#000000">algorithm</text>
</g>
<!-- Node1&#45;&gt;Node2 -->
<g id="edge2" class="edge">
<title>Node1&#45;&gt;Node2</title>
<path fill="none" stroke="#191970" d="M110.7546,-54.324C95.1813,-45.7428 71.1227,-32.486 53.0407,-22.5224"/>
<polygon fill="#191970" stroke="#191970" points="54.6539,-19.4152 44.2063,-17.6545 51.2756,-25.546 54.6539,-19.4152"/>
</g>
<!-- Node3 -->
<g id="node4" class="node">
<title>Node3</title>
<polygon fill="none" stroke="#bfbfbf" points="75,-.5 75,-17.5 118,-17.5 118,-.5 75,-.5"/>
<text text-anchor="middle" x="96.5" y="-7.1" font-family="InputSans" font-size="8.00" fill="#000000">cmath</text>
</g>
<!-- Node1&#45;&gt;Node3 -->
<g id="edge3" class="edge">
<title>Node1&#45;&gt;Node3</title>
<path fill="none" stroke="#191970" d="M121.5461,-54.083C117.3959,-46.6127 111.3469,-35.7244 106.2333,-26.5199"/>
<polygon fill="#191970" stroke="#191970" points="109.2777,-24.7929 101.3617,-17.7511 103.1586,-28.1924 109.2777,-24.7929"/>
</g>
<!-- Node4 -->
<g id="node5" class="node">
<title>Node4</title>
<polygon fill="none" stroke="#bfbfbf" points="136.5,-.5 136.5,-17.5 176.5,-17.5 176.5,-.5 136.5,-.5"/>
<text text-anchor="middle" x="156.5" y="-7.1" font-family="InputSans" font-size="8.00" fill="#000000">cfloat</text>
</g>
<!-- Node1&#45;&gt;Node4 -->
<g id="edge4" class="edge">
<title>Node1&#45;&gt;Node4</title>
<path fill="none" stroke="#191970" d="M131.4539,-54.083C135.6041,-46.6127 141.6531,-35.7244 146.7667,-26.5199"/>
<polygon fill="#191970" stroke="#191970" points="149.8414,-28.1924 151.6383,-17.7511 143.7223,-24.7929 149.8414,-28.1924"/>
</g>
<!-- Node5 -->
<g id="node6" class="node">
<title>Node5</title>
<polygon fill="none" stroke="#bfbfbf" points="194.5,-.5 194.5,-17.5 238.5,-17.5 238.5,-.5 194.5,-.5"/>
<text text-anchor="middle" x="216.5" y="-7.1" font-family="InputSans" font-size="8.00" fill="#000000">cstdint</text>
</g>
<!-- Node1&#45;&gt;Node5 -->
<g id="edge5" class="edge">
<title>Node1&#45;&gt;Node5</title>
<path fill="none" stroke="#191970" d="M140.9601,-54.324C154.9996,-45.9002 176.5485,-32.9709 193.0431,-23.0741"/>
<polygon fill="#191970" stroke="#191970" points="195.3016,-25.8007 202.0758,-17.6545 191.7001,-19.7983 195.3016,-25.8007"/>
</g>
</g>
</svg>
