<?xml version="1.0" encoding="UTF-8" standalone="no"?>
<!DOCTYPE svg PUBLIC "-//W3C//DTD SVG 1.1//EN"
 "http://www.w3.org/Graphics/SVG/1.1/DTD/svg11.dtd">
<!-- Generated by graphviz version 2.40.1 (20161225.0304)
 -->
<!-- Title: /home/jacques/repos/math4171/src/arcmath/CoreMath.cpp Pages: 1 -->
<svg width="267pt" height="152pt"
 viewBox="0.00 0.00 266.50 152.00" xmlns="http://www.w3.org/2000/svg" xmlns:xlink="http://www.w3.org/1999/xlink">
<g id="graph0" class="graph" transform="scale(1 1) rotate(0) translate(4 148)">
<title>/home/jacques/repos/math4171/src/arcmath/CoreMath.cpp</title>
<!-- Node0 -->
<g id="node1" class="node">
<title>Node0</title>
<polygon fill="#bfbfbf" stroke="#000000" points="68.5,-108.5 68.5,-143.5 202.5,-143.5 202.5,-108.5 68.5,-108.5"/>
<text text-anchor="start" x="76.5" y="-133.1" font-family="InputSans" font-size="8.00" fill="#000000">/home/jacques/repos</text>
<text text-anchor="start" x="76.5" y="-124.1" font-family="InputSans" font-size="8.00" fill="#000000">/math4171/src/arcmath</text>
<text text-anchor="middle" x="135.5" y="-115.1" font-family="InputSans" font-size="8.00" fill="#000000">/CoreMath.cpp</text>
</g>
<!-- Node1 -->
<g id="node2" class="node">
<title>Node1</title>
<g id="a_node2"><a xlink:href="_core_math_8hpp.html" target="_top" xlink:title="CoreMath.hpp">
<polygon fill="none" stroke="#000000" points="95,-54.5 95,-71.5 176,-71.5 176,-54.5 95,-54.5"/>
<text text-anchor="middle" x="135.5" y="-61.1" font-family="InputSans" font-size="8.00" fill="#000000">CoreMath.hpp</text>
</a>
</g>
</g>
<!-- Node0&#45;&gt;Node1 -->
<g id="edge1" class="edge">
<title>Node0&#45;&gt;Node1</title>
<path fill="none" stroke="#191970" d="M135.5,-108.451C135.5,-100.1476 135.5,-90.2234 135.5,-81.7698"/>
<polygon fill="#191970" stroke="#191970" points="139.0001,-81.764 135.5,-71.764 132.0001,-81.7641 139.0001,-81.764"/>
</g>
<!-- Node2 -->
<g id="node3" class="node">
<title>Node2</title>
<polygon fill="none" stroke="#bfbfbf" points="0,-.5 0,-17.5 63,-17.5 63,-.5 0,-.5"/>
<text text-anchor="middle" x="31.5" y="-7.1" font-family="InputSans" font-size="8.00" fill="#000000">algorithm</text>
</g>
<!-- Node1&#45;&gt;Node2 -->
<g id="edge2" class="edge">
<title>Node1&#45;&gt;Node2</title>
<path fill="none" stroke="#191970" d="M118.7906,-54.324C102.1881,-45.7034 76.4979,-32.3643 57.2795,-22.3855"/>
<polygon fill="#191970" stroke="#191970" points="58.6558,-19.1565 48.1679,-17.6545 55.43,-25.3689 58.6558,-19.1565"/>
</g>
<!-- Node3 -->
<g id="node4" class="node">
<title>Node3</title>
<polygon fill="none" stroke="#bfbfbf" points="81,-.5 81,-17.5 126,-17.5 126,-.5 81,-.5"/>
<text text-anchor="middle" x="103.5" y="-7.1" font-family="InputSans" font-size="8.00" fill="#000000">cmath</text>
</g>
<!-- Node1&#45;&gt;Node3 -->
<g id="edge3" class="edge">
<title>Node1&#45;&gt;Node3</title>
<path fill="none" stroke="#191970" d="M130.2159,-54.083C125.789,-46.6127 119.3367,-35.7244 113.8821,-26.5199"/>
<polygon fill="#191970" stroke="#191970" points="116.7949,-24.5697 108.6858,-17.7511 110.7729,-28.1383 116.7949,-24.5697"/>
</g>
<!-- Node4 -->
<g id="node5" class="node">
<title>Node4</title>
<polygon fill="none" stroke="#bfbfbf" points="144.5,-.5 144.5,-17.5 190.5,-17.5 190.5,-.5 144.5,-.5"/>
<text text-anchor="middle" x="167.5" y="-7.1" font-family="InputSans" font-size="8.00" fill="#000000">cfloat</text>
</g>
<!-- Node1&#45;&gt;Node4 -->
<g id="edge4" class="edge">
<title>Node1&#45;&gt;Node4</title>
<path fill="none" stroke="#191970" d="M140.7841,-54.083C145.211,-46.6127 151.6633,-35.7244 157.1179,-26.5199"/>
<polygon fill="#191970" stroke="#191970" points="160.2271,-28.1383 162.3142,-17.7511 154.2051,-24.5697 160.2271,-28.1383"/>
</g>
<!-- Node5 -->
<g id="node6" class="node">
<title>Node5</title>
<polygon fill="none" stroke="#bfbfbf" points="208.5,-.5 208.5,-17.5 258.5,-17.5 258.5,-.5 208.5,-.5"/>
<text text-anchor="middle" x="233.5" y="-7.1" font-family="InputSans" font-size="8.00" fill="#000000">cstdint</text>
</g>
<!-- Node1&#45;&gt;Node5 -->
<g id="edge5" class="edge">
<title>Node1&#45;&gt;Node5</title>
<path fill="none" stroke="#191970" d="M151.2454,-54.324C166.8187,-45.7428 190.8773,-32.486 208.9593,-22.5224"/>
<polygon fill="#191970" stroke="#191970" points="210.7244,-25.546 217.7937,-17.6545 207.3461,-19.4152 210.7244,-25.546"/>
</g>
</g>
</svg>
