<?xml version="1.0" encoding="UTF-8" standalone="no"?>
<!DOCTYPE svg PUBLIC "-//W3C//DTD SVG 1.1//EN"
 "http://www.w3.org/Graphics/SVG/1.1/DTD/svg11.dtd">
<!-- Generated by graphviz version 2.40.1 (20161225.0304)
 -->
<!-- Title: /home/jacques/repos/math4171/src/arcmath/CoreMath.hpp Pages: 1 -->
<svg width="267pt" height="98pt"
 viewBox="0.00 0.00 266.50 98.00" xmlns="http://www.w3.org/2000/svg" xmlns:xlink="http://www.w3.org/1999/xlink">
<g id="graph0" class="graph" transform="scale(1 1) rotate(0) translate(4 94)">
<title>/home/jacques/repos/math4171/src/arcmath/CoreMath.hpp</title>
<!-- Node0 -->
<g id="node1" class="node">
<title>Node0</title>
<polygon fill="#bfbfbf" stroke="#000000" points="68.5,-54.5 68.5,-89.5 202.5,-89.5 202.5,-54.5 68.5,-54.5"/>
<text text-anchor="start" x="76.5" y="-79.1" font-family="InputSans" font-size="8.00" fill="#000000">/home/jacques/repos</text>
<text text-anchor="start" x="76.5" y="-70.1" font-family="InputSans" font-size="8.00" fill="#000000">/math4171/src/arcmath</text>
<text text-anchor="middle" x="135.5" y="-61.1" font-family="InputSans" font-size="8.00" fill="#000000">/CoreMath.hpp</text>
</g>
<!-- Node1 -->
<g id="node2" class="node">
<title>Node1</title>
<polygon fill="none" stroke="#bfbfbf" points="0,-.5 0,-17.5 63,-17.5 63,-.5 0,-.5"/>
<text text-anchor="middle" x="31.5" y="-7.1" font-family="InputSans" font-size="8.00" fill="#000000">algorithm</text>
</g>
<!-- Node0&#45;&gt;Node1 -->
<g id="edge1" class="edge">
<title>Node0&#45;&gt;Node1</title>
<path fill="none" stroke="#191970" d="M106.5302,-54.451C90.1052,-44.5012 69.8385,-32.2243 54.5104,-22.939"/>
<polygon fill="#191970" stroke="#191970" points="56.0498,-19.7795 45.6833,-17.5918 52.4229,-25.7666 56.0498,-19.7795"/>
</g>
<!-- Node2 -->
<g id="node3" class="node">
<title>Node2</title>
<polygon fill="none" stroke="#bfbfbf" points="81,-.5 81,-17.5 126,-17.5 126,-.5 81,-.5"/>
<text text-anchor="middle" x="103.5" y="-7.1" font-family="InputSans" font-size="8.00" fill="#000000">cmath</text>
</g>
<!-- Node0&#45;&gt;Node2 -->
<g id="edge2" class="edge">
<title>Node0&#45;&gt;Node2</title>
<path fill="none" stroke="#191970" d="M126.5862,-54.451C122.2264,-45.8677 116.987,-35.5525 112.6023,-26.9201"/>
<polygon fill="#191970" stroke="#191970" points="115.6008,-25.0948 107.9516,-17.764 109.3597,-28.2649 115.6008,-25.0948"/>
</g>
<!-- Node3 -->
<g id="node4" class="node">
<title>Node3</title>
<polygon fill="none" stroke="#bfbfbf" points="144.5,-.5 144.5,-17.5 190.5,-17.5 190.5,-.5 144.5,-.5"/>
<text text-anchor="middle" x="167.5" y="-7.1" font-family="InputSans" font-size="8.00" fill="#000000">cfloat</text>
</g>
<!-- Node0&#45;&gt;Node3 -->
<g id="edge3" class="edge">
<title>Node0&#45;&gt;Node3</title>
<path fill="none" stroke="#191970" d="M144.4138,-54.451C148.7736,-45.8677 154.013,-35.5525 158.3977,-26.9201"/>
<polygon fill="#191970" stroke="#191970" points="161.6403,-28.2649 163.0484,-17.764 155.3992,-25.0948 161.6403,-28.2649"/>
</g>
<!-- Node4 -->
<g id="node5" class="node">
<title>Node4</title>
<polygon fill="none" stroke="#bfbfbf" points="208.5,-.5 208.5,-17.5 258.5,-17.5 258.5,-.5 208.5,-.5"/>
<text text-anchor="middle" x="233.5" y="-7.1" font-family="InputSans" font-size="8.00" fill="#000000">cstdint</text>
</g>
<!-- Node0&#45;&gt;Node4 -->
<g id="edge4" class="edge">
<title>Node0&#45;&gt;Node4</title>
<path fill="none" stroke="#191970" d="M162.7985,-54.451C178.1299,-44.5951 197.0134,-32.4557 211.4071,-23.2026"/>
<polygon fill="#191970" stroke="#191970" points="213.6158,-25.9435 220.135,-17.5918 209.8305,-20.0553 213.6158,-25.9435"/>
</g>
</g>
</svg>
