<?xml version="1.0" encoding="UTF-8" standalone="no"?>
<!DOCTYPE svg PUBLIC "-//W3C//DTD SVG 1.1//EN"
 "http://www.w3.org/Graphics/SVG/1.1/DTD/svg11.dtd">
<!-- Generated by graphviz version 2.40.1 (20161225.0304)
 -->
<!-- Title: /home/jacques/repos/math4171/src/arcmath/CoreMath.hpp Pages: 1 -->
<svg width="1069pt" height="260pt"
 viewBox="0.00 0.00 1068.50 260.00" xmlns="http://www.w3.org/2000/svg" xmlns:xlink="http://www.w3.org/1999/xlink">
<g id="graph0" class="graph" transform="scale(1 1) rotate(0) translate(4 256)">
<title>/home/jacques/repos/math4171/src/arcmath/CoreMath.hpp</title>
<!-- Node5 -->
<g id="node1" class="node">
<title>Node5</title>
<polygon fill="#bfbfbf" stroke="#000000" points="229,-216.5 229,-251.5 363,-251.5 363,-216.5 229,-216.5"/>
<text text-anchor="start" x="237" y="-241.1" font-family="InputSans" font-size="8.00" fill="#000000">/home/jacques/repos</text>
<text text-anchor="start" x="237" y="-232.1" font-family="InputSans" font-size="8.00" fill="#000000">/math4171/src/arcmath</text>
<text text-anchor="middle" x="296" y="-223.1" font-family="InputSans" font-size="8.00" fill="#000000">/CoreMath.hpp</text>
</g>
<!-- Node6 -->
<g id="node2" class="node">
<title>Node6</title>
<g id="a_node2"><a xlink:href="_core_math_8cpp.html" target="_top" xlink:title="/home/jacques/repos\l/math4171/src/arcmath\l/CoreMath.cpp">
<polygon fill="none" stroke="#000000" points="134,-144.5 134,-179.5 268,-179.5 268,-144.5 134,-144.5"/>
<text text-anchor="start" x="142" y="-169.1" font-family="InputSans" font-size="8.00" fill="#000000">/home/jacques/repos</text>
<text text-anchor="start" x="142" y="-160.1" font-family="InputSans" font-size="8.00" fill="#000000">/math4171/src/arcmath</text>
<text text-anchor="middle" x="201" y="-151.1" font-family="InputSans" font-size="8.00" fill="#000000">/CoreMath.cpp</text>
</a>
</g>
</g>
<!-- Node5&#45;&gt;Node6 -->
<g id="edge1" class="edge">
<title>Node5&#45;&gt;Node6</title>
<path fill="none" stroke="#191970" d="M264.2229,-209.9163C251.1342,-199.9965 236.2502,-188.716 224.213,-179.593"/>
<polygon fill="#191970" stroke="#191970" points="262.4331,-212.9514 272.5168,-216.2022 266.6612,-207.3726 262.4331,-212.9514"/>
</g>
<!-- Node7 -->
<g id="node3" class="node">
<title>Node7</title>
<g id="a_node3"><a xlink:href="_vec_8hpp.html" target="_top" xlink:title="/home/jacques/repos\l/math4171/src/arcmath\l/Vec.hpp">
<polygon fill="none" stroke="#000000" points="444,-144.5 444,-179.5 578,-179.5 578,-144.5 444,-144.5"/>
<text text-anchor="start" x="452" y="-169.1" font-family="InputSans" font-size="8.00" fill="#000000">/home/jacques/repos</text>
<text text-anchor="start" x="452" y="-160.1" font-family="InputSans" font-size="8.00" fill="#000000">/math4171/src/arcmath</text>
<text text-anchor="middle" x="511" y="-151.1" font-family="InputSans" font-size="8.00" fill="#000000">/Vec.hpp</text>
</a>
</g>
</g>
<!-- Node5&#45;&gt;Node7 -->
<g id="edge2" class="edge">
<title>Node5&#45;&gt;Node7</title>
<path fill="none" stroke="#191970" d="M357.9655,-213.2488C389.7721,-202.5973 428.1026,-189.761 458.4454,-179.5997"/>
<polygon fill="#191970" stroke="#191970" points="356.691,-209.9845 348.32,-216.4789 358.9139,-216.6222 356.691,-209.9845"/>
</g>
<!-- Node9 -->
<g id="node5" class="node">
<title>Node9</title>
<g id="a_node5"><a xlink:href="_min_nelder_mead_8hpp.html" target="_top" xlink:title="/home/jacques/repos\l/math4171/src/arcmath\l/MinNelderMead.hpp">
<polygon fill="none" stroke="#000000" points="109,-72.5 109,-107.5 243,-107.5 243,-72.5 109,-72.5"/>
<text text-anchor="start" x="117" y="-97.1" font-family="InputSans" font-size="8.00" fill="#000000">/home/jacques/repos</text>
<text text-anchor="start" x="117" y="-88.1" font-family="InputSans" font-size="8.00" fill="#000000">/math4171/src/arcmath</text>
<text text-anchor="middle" x="176" y="-79.1" font-family="InputSans" font-size="8.00" fill="#000000">/MinNelderMead.hpp</text>
</a>
</g>
</g>
<!-- Node5&#45;&gt;Node9 -->
<g id="edge22" class="edge">
<title>Node5&#45;&gt;Node9</title>
<path fill="none" stroke="#191970" d="M296.0836,-206.0816C294.8089,-186.909 290.3659,-161.8051 277,-144 264.8242,-127.7803 246.317,-115.913 228.4567,-107.5047"/>
<polygon fill="#191970" stroke="#191970" points="292.5964,-206.4646 296.5072,-216.3112 299.5904,-206.175 292.5964,-206.4646"/>
</g>
<!-- Node8 -->
<g id="node4" class="node">
<title>Node8</title>
<g id="a_node4"><a xlink:href="_mat_8hpp.html" target="_top" xlink:title="/home/jacques/repos\l/math4171/src/arcmath\l/Mat.hpp">
<polygon fill="none" stroke="#000000" points="632,-72.5 632,-107.5 766,-107.5 766,-72.5 632,-72.5"/>
<text text-anchor="start" x="640" y="-97.1" font-family="InputSans" font-size="8.00" fill="#000000">/home/jacques/repos</text>
<text text-anchor="start" x="640" y="-88.1" font-family="InputSans" font-size="8.00" fill="#000000">/math4171/src/arcmath</text>
<text text-anchor="middle" x="699" y="-79.1" font-family="InputSans" font-size="8.00" fill="#000000">/Mat.hpp</text>
</a>
</g>
</g>
<!-- Node7&#45;&gt;Node8 -->
<g id="edge3" class="edge">
<title>Node7&#45;&gt;Node8</title>
<path fill="none" stroke="#191970" d="M566.5051,-140.7427C594.0926,-130.1773 627.0276,-117.5639 653.1594,-107.556"/>
<polygon fill="#191970" stroke="#191970" points="565.0768,-137.5418 556.99,-144.3868 567.5803,-144.0788 565.0768,-137.5418"/>
</g>
<!-- Node7&#45;&gt;Node9 -->
<g id="edge4" class="edge">
<title>Node7&#45;&gt;Node9</title>
<path fill="none" stroke="#191970" d="M434.004,-145.8228C383.6213,-135.1898 316.3692,-120.9072 257,-108 252.4955,-107.0207 247.8514,-106.005 243.1731,-104.9772"/>
<polygon fill="#191970" stroke="#191970" points="433.3412,-149.2599 443.8483,-147.8992 434.786,-142.4106 433.3412,-149.2599"/>
</g>
<!-- Node11 -->
<g id="node7" class="node">
<title>Node11</title>
<g id="a_node7"><a xlink:href="assignment1-src_2_main_8cpp.html" target="_top" xlink:title="/home/jacques/repos\l/math4171/src/assignment1\l&#45;src/Main.cpp">
<polygon fill="none" stroke="#000000" points="152.5,-.5 152.5,-35.5 307.5,-35.5 307.5,-.5 152.5,-.5"/>
<text text-anchor="start" x="160.5" y="-25.1" font-family="InputSans" font-size="8.00" fill="#000000">/home/jacques/repos</text>
<text text-anchor="start" x="160.5" y="-16.1" font-family="InputSans" font-size="8.00" fill="#000000">/math4171/src/assignment1</text>
<text text-anchor="middle" x="230" y="-7.1" font-family="InputSans" font-size="8.00" fill="#000000">&#45;src/Main.cpp</text>
</a>
</g>
</g>
<!-- Node7&#45;&gt;Node11 -->
<g id="edge20" class="edge">
<title>Node7&#45;&gt;Node11</title>
<path fill="none" stroke="#191970" d="M433.9918,-149.3158C379.8987,-139.2745 313.2186,-124.2701 290,-108 264.0096,-89.7875 246.1863,-56.3986 237.0737,-35.8081"/>
<polygon fill="#191970" stroke="#191970" points="433.4662,-152.7777 443.9324,-151.1322 434.7244,-145.8917 433.4662,-152.7777"/>
</g>
<!-- Node12 -->
<g id="node8" class="node">
<title>Node12</title>
<g id="a_node8"><a xlink:href="_contour_plot_8hpp.html" target="_top" xlink:title="/home/jacques/repos\l/math4171/src/arcplot\l/ContourPlot.hpp">
<polygon fill="none" stroke="#000000" points="446.5,-72.5 446.5,-107.5 575.5,-107.5 575.5,-72.5 446.5,-72.5"/>
<text text-anchor="start" x="454.5" y="-97.1" font-family="InputSans" font-size="8.00" fill="#000000">/home/jacques/repos</text>
<text text-anchor="start" x="454.5" y="-88.1" font-family="InputSans" font-size="8.00" fill="#000000">/math4171/src/arcplot</text>
<text text-anchor="middle" x="511" y="-79.1" font-family="InputSans" font-size="8.00" fill="#000000">/ContourPlot.hpp</text>
</a>
</g>
</g>
<!-- Node7&#45;&gt;Node12 -->
<g id="edge7" class="edge">
<title>Node7&#45;&gt;Node12</title>
<path fill="none" stroke="#191970" d="M511,-134.1759C511,-125.2363 511,-115.5865 511,-107.593"/>
<polygon fill="#191970" stroke="#191970" points="507.5001,-134.2022 511,-144.2022 514.5001,-134.2023 507.5001,-134.2022"/>
</g>
<!-- Node14 -->
<g id="node10" class="node">
<title>Node14</title>
<g id="a_node10"><a xlink:href="playground_2_main_8cpp.html" target="_top" xlink:title="/home/jacques/repos\l/math4171/src/playground\l/Main.cpp">
<polygon fill="none" stroke="#000000" points="620,-.5 620,-35.5 766,-35.5 766,-.5 620,-.5"/>
<text text-anchor="start" x="628" y="-25.1" font-family="InputSans" font-size="8.00" fill="#000000">/home/jacques/repos</text>
<text text-anchor="start" x="628" y="-16.1" font-family="InputSans" font-size="8.00" fill="#000000">/math4171/src/playground</text>
<text text-anchor="middle" x="693" y="-7.1" font-family="InputSans" font-size="8.00" fill="#000000">/Main.cpp</text>
</a>
</g>
</g>
<!-- Node7&#45;&gt;Node14 -->
<g id="edge21" class="edge">
<title>Node7&#45;&gt;Node14</title>
<path fill="none" stroke="#191970" d="M545.4454,-138.2566C558.1493,-129.1407 572.4883,-118.419 585,-108 602.8774,-93.1127 605.3227,-87.1244 623,-72 637.8114,-59.3276 655.1548,-45.9387 668.8727,-35.663"/>
<polygon fill="#191970" stroke="#191970" points="543.0802,-135.6435 536.9541,-144.2877 547.1337,-141.3505 543.0802,-135.6435"/>
</g>
<!-- Node15 -->
<g id="node11" class="node">
<title>Node15</title>
<g id="a_node11"><a xlink:href="_list_plot_8hpp.html" target="_top" xlink:title="/home/jacques/repos\l/math4171/src/arcplot\l/ListPlot.hpp">
<polygon fill="none" stroke="#000000" points="784.5,-72.5 784.5,-107.5 913.5,-107.5 913.5,-72.5 784.5,-72.5"/>
<text text-anchor="start" x="792.5" y="-97.1" font-family="InputSans" font-size="8.00" fill="#000000">/home/jacques/repos</text>
<text text-anchor="start" x="792.5" y="-88.1" font-family="InputSans" font-size="8.00" fill="#000000">/math4171/src/arcplot</text>
<text text-anchor="middle" x="849" y="-79.1" font-family="InputSans" font-size="8.00" fill="#000000">/ListPlot.hpp</text>
</a>
</g>
</g>
<!-- Node7&#45;&gt;Node15 -->
<g id="edge11" class="edge">
<title>Node7&#45;&gt;Node15</title>
<path fill="none" stroke="#191970" d="M588.102,-147.0074C640.835,-136.5628 712.2753,-122.0387 775,-108 778.0966,-107.3069 781.263,-106.5856 784.4589,-105.8474"/>
<polygon fill="#191970" stroke="#191970" points="587.2784,-143.6024 578.1467,-148.9748 588.6356,-150.4696 587.2784,-143.6024"/>
</g>
<!-- Node17 -->
<g id="node13" class="node">
<title>Node17</title>
<g id="a_node13"><a xlink:href="_surf_plot3d_8hpp.html" target="_top" xlink:title="/home/jacques/repos\l/math4171/src/arcplot\l/old/SurfPlot3d.hpp">
<polygon fill="none" stroke="#000000" points="299.5,-72.5 299.5,-107.5 428.5,-107.5 428.5,-72.5 299.5,-72.5"/>
<text text-anchor="start" x="307.5" y="-97.1" font-family="InputSans" font-size="8.00" fill="#000000">/home/jacques/repos</text>
<text text-anchor="start" x="307.5" y="-88.1" font-family="InputSans" font-size="8.00" fill="#000000">/math4171/src/arcplot</text>
<text text-anchor="middle" x="364" y="-79.1" font-family="InputSans" font-size="8.00" fill="#000000">/old/SurfPlot3d.hpp</text>
</a>
</g>
</g>
<!-- Node7&#45;&gt;Node17 -->
<g id="edge14" class="edge">
<title>Node7&#45;&gt;Node17</title>
<path fill="none" stroke="#191970" d="M465.8958,-139.9081C444.6828,-129.5181 419.7409,-117.3017 399.8435,-107.556"/>
<polygon fill="#191970" stroke="#191970" points="464.5196,-143.1313 475.0398,-144.3868 467.5987,-136.8449 464.5196,-143.1313"/>
</g>
<!-- Node19 -->
<g id="node15" class="node">
<title>Node19</title>
<g id="a_node15"><a xlink:href="_surface_plot_8hpp.html" target="_top" xlink:title="/home/jacques/repos\l/math4171/src/arcplot\l/SurfacePlot.hpp">
<polygon fill="none" stroke="#000000" points="931.5,-72.5 931.5,-107.5 1060.5,-107.5 1060.5,-72.5 931.5,-72.5"/>
<text text-anchor="start" x="939.5" y="-97.1" font-family="InputSans" font-size="8.00" fill="#000000">/home/jacques/repos</text>
<text text-anchor="start" x="939.5" y="-88.1" font-family="InputSans" font-size="8.00" fill="#000000">/math4171/src/arcplot</text>
<text text-anchor="middle" x="996" y="-79.1" font-family="InputSans" font-size="8.00" fill="#000000">/SurfacePlot.hpp</text>
</a>
</g>
</g>
<!-- Node7&#45;&gt;Node19 -->
<g id="edge17" class="edge">
<title>Node7&#45;&gt;Node19</title>
<path fill="none" stroke="#191970" d="M588.1996,-154.4788C671.2901,-145.7796 807.1343,-129.8077 923,-108 925.6939,-107.493 928.437,-106.948 931.2032,-106.3747"/>
<polygon fill="#191970" stroke="#191970" points="587.6684,-151.015 578.0834,-155.5292 588.3914,-157.9776 587.6684,-151.015"/>
</g>
<!-- Node10 -->
<g id="node6" class="node">
<title>Node10</title>
<g id="a_node6"><a xlink:href="_min_nelder_mead_8cpp.html" target="_top" xlink:title="/home/jacques/repos\l/math4171/src/arcmath\l/MinNelderMead.cpp">
<polygon fill="none" stroke="#000000" points="0,-.5 0,-35.5 134,-35.5 134,-.5 0,-.5"/>
<text text-anchor="start" x="8" y="-25.1" font-family="InputSans" font-size="8.00" fill="#000000">/home/jacques/repos</text>
<text text-anchor="start" x="8" y="-16.1" font-family="InputSans" font-size="8.00" fill="#000000">/math4171/src/arcmath</text>
<text text-anchor="middle" x="67" y="-7.1" font-family="InputSans" font-size="8.00" fill="#000000">/MinNelderMead.cpp</text>
</a>
</g>
</g>
<!-- Node9&#45;&gt;Node10 -->
<g id="edge5" class="edge">
<title>Node9&#45;&gt;Node10</title>
<path fill="none" stroke="#191970" d="M140.6713,-66.6636C125.433,-56.598 107.9031,-45.0186 93.7669,-35.6809"/>
<polygon fill="#191970" stroke="#191970" points="139.0625,-69.7956 149.3356,-72.3868 142.9207,-63.9548 139.0625,-69.7956"/>
</g>
<!-- Node9&#45;&gt;Node11 -->
<g id="edge6" class="edge">
<title>Node9&#45;&gt;Node11</title>
<path fill="none" stroke="#191970" d="M195.5636,-63.9152C202.6235,-54.502 210.4192,-44.1078 216.8052,-35.593"/>
<polygon fill="#191970" stroke="#191970" points="192.5483,-62.1022 189.3483,-72.2022 198.1484,-66.3022 192.5483,-62.1022"/>
</g>
<!-- Node12&#45;&gt;Node11 -->
<g id="edge9" class="edge">
<title>Node12&#45;&gt;Node11</title>
<path fill="none" stroke="#191970" d="M436.374,-70.8788C393.5439,-59.9045 340.1572,-46.2253 298.414,-35.5296"/>
<polygon fill="#191970" stroke="#191970" points="435.6243,-74.2996 446.1801,-73.3913 437.3618,-67.5187 435.6243,-74.2996"/>
</g>
<!-- Node13 -->
<g id="node9" class="node">
<title>Node13</title>
<g id="a_node9"><a xlink:href="_contour_plot_8cpp.html" target="_top" xlink:title="/home/jacques/repos\l/math4171/src/arcplot\l/ContourPlot.cpp">
<polygon fill="none" stroke="#000000" points="472.5,-.5 472.5,-35.5 601.5,-35.5 601.5,-.5 472.5,-.5"/>
<text text-anchor="start" x="480.5" y="-25.1" font-family="InputSans" font-size="8.00" fill="#000000">/home/jacques/repos</text>
<text text-anchor="start" x="480.5" y="-16.1" font-family="InputSans" font-size="8.00" fill="#000000">/math4171/src/arcplot</text>
<text text-anchor="middle" x="537" y="-7.1" font-family="InputSans" font-size="8.00" fill="#000000">/ContourPlot.cpp</text>
</a>
</g>
</g>
<!-- Node12&#45;&gt;Node13 -->
<g id="edge8" class="edge">
<title>Node12&#45;&gt;Node13</title>
<path fill="none" stroke="#191970" d="M520.8374,-62.7579C524.124,-53.6566 527.6977,-43.7602 530.647,-35.593"/>
<polygon fill="#191970" stroke="#191970" points="517.5315,-61.6079 517.427,-72.2022 524.1154,-63.9855 517.5315,-61.6079"/>
</g>
<!-- Node12&#45;&gt;Node14 -->
<g id="edge10" class="edge">
<title>Node12&#45;&gt;Node14</title>
<path fill="none" stroke="#191970" d="M565.0838,-68.6042C591.7191,-58.0672 623.4351,-45.5202 648.6224,-35.556"/>
<polygon fill="#191970" stroke="#191970" points="563.5335,-65.4535 555.5222,-72.3868 566.1086,-71.9627 563.5335,-65.4535"/>
</g>
<!-- Node15&#45;&gt;Node14 -->
<g id="edge13" class="edge">
<title>Node15&#45;&gt;Node14</title>
<path fill="none" stroke="#191970" d="M801.739,-68.1872C779.0978,-57.7374 752.343,-45.3891 731.038,-35.556"/>
<polygon fill="#191970" stroke="#191970" points="800.2918,-71.374 810.8381,-72.3868 803.2252,-65.0183 800.2918,-71.374"/>
</g>
<!-- Node16 -->
<g id="node12" class="node">
<title>Node16</title>
<g id="a_node12"><a xlink:href="_list_plot_8cpp.html" target="_top" xlink:title="/home/jacques/repos\l/math4171/src/arcplot\l/ListPlot.cpp">
<polygon fill="none" stroke="#000000" points="784.5,-.5 784.5,-35.5 913.5,-35.5 913.5,-.5 784.5,-.5"/>
<text text-anchor="start" x="792.5" y="-25.1" font-family="InputSans" font-size="8.00" fill="#000000">/home/jacques/repos</text>
<text text-anchor="start" x="792.5" y="-16.1" font-family="InputSans" font-size="8.00" fill="#000000">/math4171/src/arcplot</text>
<text text-anchor="middle" x="849" y="-7.1" font-family="InputSans" font-size="8.00" fill="#000000">/ListPlot.cpp</text>
</a>
</g>
</g>
<!-- Node15&#45;&gt;Node16 -->
<g id="edge12" class="edge">
<title>Node15&#45;&gt;Node16</title>
<path fill="none" stroke="#191970" d="M849,-62.1759C849,-53.2363 849,-43.5865 849,-35.593"/>
<polygon fill="#191970" stroke="#191970" points="845.5001,-62.2022 849,-72.2022 852.5001,-62.2023 845.5001,-62.2022"/>
</g>
<!-- Node17&#45;&gt;Node11 -->
<g id="edge16" class="edge">
<title>Node17&#45;&gt;Node11</title>
<path fill="none" stroke="#191970" d="M322.3974,-67.6464C303.2494,-57.3579 280.853,-45.324 262.9061,-35.6809"/>
<polygon fill="#191970" stroke="#191970" points="320.7543,-70.7367 331.2199,-72.3868 324.0676,-64.5705 320.7543,-70.7367"/>
</g>
<!-- Node18 -->
<g id="node14" class="node">
<title>Node18</title>
<g id="a_node14"><a xlink:href="_surf_plot3d_8cpp.html" target="_top" xlink:title="/home/jacques/repos\l/math4171/src/arcplot\l/old/SurfPlot3d.cpp">
<polygon fill="none" stroke="#000000" points="325.5,-.5 325.5,-35.5 454.5,-35.5 454.5,-.5 325.5,-.5"/>
<text text-anchor="start" x="333.5" y="-25.1" font-family="InputSans" font-size="8.00" fill="#000000">/home/jacques/repos</text>
<text text-anchor="start" x="333.5" y="-16.1" font-family="InputSans" font-size="8.00" fill="#000000">/math4171/src/arcplot</text>
<text text-anchor="middle" x="390" y="-7.1" font-family="InputSans" font-size="8.00" fill="#000000">/old/SurfPlot3d.cpp</text>
</a>
</g>
</g>
<!-- Node17&#45;&gt;Node18 -->
<g id="edge15" class="edge">
<title>Node17&#45;&gt;Node18</title>
<path fill="none" stroke="#191970" d="M373.8374,-62.7579C377.124,-53.6566 380.6977,-43.7602 383.647,-35.593"/>
<polygon fill="#191970" stroke="#191970" points="370.5315,-61.6079 370.427,-72.2022 377.1154,-63.9855 370.5315,-61.6079"/>
</g>
<!-- Node19&#45;&gt;Node14 -->
<g id="edge19" class="edge">
<title>Node19&#45;&gt;Node14</title>
<path fill="none" stroke="#191970" d="M921.2071,-71.5786C864.1219,-57.8688 808.8336,-44.8998 766.0764,-34.938"/>
<polygon fill="#191970" stroke="#191970" points="920.5892,-75.0297 931.1304,-73.965 922.226,-68.2238 920.5892,-75.0297"/>
</g>
<!-- Node20 -->
<g id="node16" class="node">
<title>Node20</title>
<g id="a_node16"><a xlink:href="_surface_plot_8cpp.html" target="_top" xlink:title="/home/jacques/repos\l/math4171/src/arcplot\l/SurfacePlot.cpp">
<polygon fill="none" stroke="#000000" points="931.5,-.5 931.5,-35.5 1060.5,-35.5 1060.5,-.5 931.5,-.5"/>
<text text-anchor="start" x="939.5" y="-25.1" font-family="InputSans" font-size="8.00" fill="#000000">/home/jacques/repos</text>
<text text-anchor="start" x="939.5" y="-16.1" font-family="InputSans" font-size="8.00" fill="#000000">/math4171/src/arcplot</text>
<text text-anchor="middle" x="996" y="-7.1" font-family="InputSans" font-size="8.00" fill="#000000">/SurfacePlot.cpp</text>
</a>
</g>
</g>
<!-- Node19&#45;&gt;Node20 -->
<g id="edge18" class="edge">
<title>Node19&#45;&gt;Node20</title>
<path fill="none" stroke="#191970" d="M996,-62.1759C996,-53.2363 996,-43.5865 996,-35.593"/>
<polygon fill="#191970" stroke="#191970" points="992.5001,-62.2022 996,-72.2022 999.5001,-62.2023 992.5001,-62.2022"/>
</g>
</g>
</svg>
