<?xml version="1.0" encoding="UTF-8" standalone="no"?>
<!DOCTYPE svg PUBLIC "-//W3C//DTD SVG 1.1//EN"
 "http://www.w3.org/Graphics/SVG/1.1/DTD/svg11.dtd">
<!-- Generated by graphviz version 2.40.1 (20161225.0304)
 -->
<!-- Title: /home/jacques/repos/math4171/src/arcplot/Figure.cpp Pages: 1 -->
<svg width="680pt" height="260pt"
 viewBox="0.00 0.00 679.50 260.00" xmlns="http://www.w3.org/2000/svg" xmlns:xlink="http://www.w3.org/1999/xlink">
<g id="graph0" class="graph" transform="scale(1 1) rotate(0) translate(4 256)">
<title>/home/jacques/repos/math4171/src/arcplot/Figure.cpp</title>
<!-- Node0 -->
<g id="node1" class="node">
<title>Node0</title>
<polygon fill="#bfbfbf" stroke="#000000" points="280.5,-216.5 280.5,-251.5 409.5,-251.5 409.5,-216.5 280.5,-216.5"/>
<text text-anchor="start" x="288.5" y="-241.1" font-family="InputSans" font-size="8.00" fill="#000000">/home/jacques/repos</text>
<text text-anchor="start" x="288.5" y="-232.1" font-family="InputSans" font-size="8.00" fill="#000000">/math4171/src/arcplot</text>
<text text-anchor="middle" x="345" y="-223.1" font-family="InputSans" font-size="8.00" fill="#000000">/Figure.cpp</text>
</g>
<!-- Node1 -->
<g id="node2" class="node">
<title>Node1</title>
<g id="a_node2"><a xlink:href="_python_function_8hpp.html" target="_top" xlink:title="PythonFunction.hpp">
<polygon fill="none" stroke="#000000" points="377.5,-108.5 377.5,-125.5 484.5,-125.5 484.5,-108.5 377.5,-108.5"/>
<text text-anchor="middle" x="431" y="-115.1" font-family="InputSans" font-size="8.00" fill="#000000">PythonFunction.hpp</text>
</a>
</g>
</g>
<!-- Node0&#45;&gt;Node1 -->
<g id="edge1" class="edge">
<title>Node0&#45;&gt;Node1</title>
<path fill="none" stroke="#191970" d="M359.6692,-216.2575C368.1422,-205.8433 378.8922,-192.3433 388,-180 399.1524,-164.8857 411.1473,-147.1793 419.6272,-134.3934"/>
<polygon fill="#191970" stroke="#191970" points="422.7761,-135.9757 425.3546,-125.6994 416.9305,-132.1247 422.7761,-135.9757"/>
</g>
<!-- Node7 -->
<g id="node8" class="node">
<title>Node7</title>
<g id="a_node8"><a xlink:href="_python_module_8hpp.html" target="_top" xlink:title="PythonModule.hpp">
<polygon fill="none" stroke="#000000" points="221.5,-108.5 221.5,-125.5 320.5,-125.5 320.5,-108.5 221.5,-108.5"/>
<text text-anchor="middle" x="271" y="-115.1" font-family="InputSans" font-size="8.00" fill="#000000">PythonModule.hpp</text>
</a>
</g>
</g>
<!-- Node0&#45;&gt;Node7 -->
<g id="edge9" class="edge">
<title>Node0&#45;&gt;Node7</title>
<path fill="none" stroke="#191970" d="M329.2495,-216.2343C320.6263,-206.0351 310.0833,-192.7543 302,-180 292.8348,-165.5386 284.3952,-147.9818 278.6437,-135.0792"/>
<polygon fill="#191970" stroke="#191970" points="281.8406,-133.654 274.645,-125.8775 275.4206,-136.4439 281.8406,-133.654"/>
</g>
<!-- Node8 -->
<g id="node9" class="node">
<title>Node8</title>
<g id="a_node9"><a xlink:href="_python_string_8hpp.html" target="_top" xlink:title="PythonString.hpp">
<polygon fill="none" stroke="#000000" points="541,-108.5 541,-125.5 639,-125.5 639,-108.5 541,-108.5"/>
<text text-anchor="middle" x="590" y="-115.1" font-family="InputSans" font-size="8.00" fill="#000000">PythonString.hpp</text>
</a>
</g>
</g>
<!-- Node0&#45;&gt;Node8 -->
<g id="edge15" class="edge">
<title>Node0&#45;&gt;Node8</title>
<path fill="none" stroke="#191970" d="M381.679,-216.4839C431.3205,-192.7776 518.7483,-151.0263 562.8848,-129.9489"/>
<polygon fill="#191970" stroke="#191970" points="564.6054,-133.0059 572.121,-125.5381 561.5889,-126.6892 564.6054,-133.0059"/>
</g>
<!-- Node10 -->
<g id="node11" class="node">
<title>Node10</title>
<g id="a_node11"><a xlink:href="_python_tuple_8hpp.html" target="_top" xlink:title="PythonTuple.hpp">
<polygon fill="none" stroke="#000000" points="34,-108.5 34,-125.5 126,-125.5 126,-108.5 34,-108.5"/>
<text text-anchor="middle" x="80" y="-115.1" font-family="InputSans" font-size="8.00" fill="#000000">PythonTuple.hpp</text>
</a>
</g>
</g>
<!-- Node0&#45;&gt;Node10 -->
<g id="edge20" class="edge">
<title>Node0&#45;&gt;Node10</title>
<path fill="none" stroke="#191970" d="M305.3268,-216.4839C251.4073,-192.6779 156.2728,-150.6752 108.7294,-129.6843"/>
<polygon fill="#191970" stroke="#191970" points="109.9002,-126.3753 99.3385,-125.5381 107.0729,-132.779 109.9002,-126.3753"/>
</g>
<!-- Node12 -->
<g id="node13" class="node">
<title>Node12</title>
<g id="a_node13"><a xlink:href="_figure_8hpp.html" target="_top" xlink:title="Figure.hpp">
<polygon fill="none" stroke="#000000" points="311,-162.5 311,-179.5 379,-179.5 379,-162.5 311,-162.5"/>
<text text-anchor="middle" x="345" y="-169.1" font-family="InputSans" font-size="8.00" fill="#000000">Figure.hpp</text>
</a>
</g>
</g>
<!-- Node0&#45;&gt;Node12 -->
<g id="edge26" class="edge">
<title>Node0&#45;&gt;Node12</title>
<path fill="none" stroke="#191970" d="M345,-216.451C345,-208.1476 345,-198.2234 345,-189.7698"/>
<polygon fill="#191970" stroke="#191970" points="348.5001,-189.764 345,-179.764 341.5001,-189.7641 348.5001,-189.764"/>
</g>
<!-- Node2 -->
<g id="node3" class="node">
<title>Node2</title>
<polygon fill="none" stroke="#bfbfbf" points="421.5,-.5 421.5,-17.5 478.5,-17.5 478.5,-.5 421.5,-.5"/>
<text text-anchor="middle" x="450" y="-7.1" font-family="InputSans" font-size="8.00" fill="#000000">Python.h</text>
</g>
<!-- Node1&#45;&gt;Node2 -->
<g id="edge2" class="edge">
<title>Node1&#45;&gt;Node2</title>
<path fill="none" stroke="#191970" d="M440.0198,-108.34C448.0723,-99.9315 459.2979,-86.3633 464,-72 468.8476,-57.1923 464.2975,-39.882 459.1292,-27.1575"/>
<polygon fill="#191970" stroke="#191970" points="462.1572,-25.3606 454.8351,-17.703 455.7838,-28.2553 462.1572,-25.3606"/>
</g>
<!-- Node3 -->
<g id="node4" class="node">
<title>Node3</title>
<polygon fill="none" stroke="#bfbfbf" points="228.5,-.5 228.5,-17.5 287.5,-17.5 287.5,-.5 228.5,-.5"/>
<text text-anchor="middle" x="258" y="-7.1" font-family="InputSans" font-size="8.00" fill="#000000">iostream</text>
</g>
<!-- Node1&#45;&gt;Node3 -->
<g id="edge3" class="edge">
<title>Node1&#45;&gt;Node3</title>
<path fill="none" stroke="#191970" d="M428.0278,-108.3377C422.9528,-94.8061 411.3501,-68.6848 393,-54 365.5129,-32.0033 326.7971,-20.5519 297.8701,-14.7216"/>
<polygon fill="#191970" stroke="#191970" points="298.1676,-11.2166 287.6947,-12.8188 296.8809,-18.0973 298.1676,-11.2166"/>
</g>
<!-- Node4 -->
<g id="node5" class="node">
<title>Node4</title>
<polygon fill="none" stroke="#bfbfbf" points="178.5,-54.5 178.5,-71.5 229.5,-71.5 229.5,-54.5 178.5,-54.5"/>
<text text-anchor="middle" x="204" y="-61.1" font-family="InputSans" font-size="8.00" fill="#000000">memory</text>
</g>
<!-- Node1&#45;&gt;Node4 -->
<g id="edge4" class="edge">
<title>Node1&#45;&gt;Node4</title>
<path fill="none" stroke="#191970" d="M395.0312,-108.4435C352.4144,-98.3056 281.863,-81.5225 239.4669,-71.4371"/>
<polygon fill="#191970" stroke="#191970" points="240.1242,-67.9958 229.5856,-69.0865 238.5041,-74.8058 240.1242,-67.9958"/>
</g>
<!-- Node5 -->
<g id="node6" class="node">
<title>Node5</title>
<polygon fill="none" stroke="#bfbfbf" points="516,-54.5 516,-71.5 562,-71.5 562,-54.5 516,-54.5"/>
<text text-anchor="middle" x="539" y="-61.1" font-family="InputSans" font-size="8.00" fill="#000000">string</text>
</g>
<!-- Node1&#45;&gt;Node5 -->
<g id="edge5" class="edge">
<title>Node1&#45;&gt;Node5</title>
<path fill="none" stroke="#191970" d="M448.3521,-108.324C465.6719,-99.6641 492.5153,-86.2424 512.5019,-76.249"/>
<polygon fill="#191970" stroke="#191970" points="514.312,-79.2572 521.691,-71.6545 511.1814,-72.9962 514.312,-79.2572"/>
</g>
<!-- Node6 -->
<g id="node7" class="node">
<title>Node6</title>
<g id="a_node7"><a xlink:href="_python_object_8hpp.html" target="_top" xlink:title="PythonObject.hpp">
<polygon fill="none" stroke="#000000" points="286,-54.5 286,-71.5 384,-71.5 384,-54.5 286,-54.5"/>
<text text-anchor="middle" x="335" y="-61.1" font-family="InputSans" font-size="8.00" fill="#000000">PythonObject.hpp</text>
</a>
</g>
</g>
<!-- Node1&#45;&gt;Node6 -->
<g id="edge6" class="edge">
<title>Node1&#45;&gt;Node6</title>
<path fill="none" stroke="#191970" d="M415.5759,-108.324C400.4605,-99.8215 377.1846,-86.7288 359.5288,-76.7975"/>
<polygon fill="#191970" stroke="#191970" points="360.8175,-73.5066 350.3858,-71.6545 357.3856,-79.6077 360.8175,-73.5066"/>
</g>
<!-- Node6&#45;&gt;Node2 -->
<g id="edge8" class="edge">
<title>Node6&#45;&gt;Node2</title>
<path fill="none" stroke="#191970" d="M353.2221,-54.4435C371.8957,-45.6751 401.156,-31.9355 422.6174,-21.8579"/>
<polygon fill="#191970" stroke="#191970" points="424.2991,-24.935 431.8632,-17.5164 421.3237,-18.5988 424.2991,-24.935"/>
</g>
<!-- Node6&#45;&gt;Node3 -->
<g id="edge7" class="edge">
<title>Node6&#45;&gt;Node3</title>
<path fill="none" stroke="#191970" d="M322.6286,-54.324C310.8415,-46.0577 292.8677,-33.4527 278.8645,-23.6322"/>
<polygon fill="#191970" stroke="#191970" points="280.5376,-20.5307 270.3407,-17.6545 276.5184,-26.2619 280.5376,-20.5307"/>
</g>
<!-- Node7&#45;&gt;Node2 -->
<g id="edge13" class="edge">
<title>Node7&#45;&gt;Node2</title>
<path fill="none" stroke="#191970" d="M307.5908,-108.4807C333.0256,-101.4132 366.9081,-89.6354 393,-72 411.445,-59.5332 427.9544,-39.8667 438.3987,-25.8242"/>
<polygon fill="#191970" stroke="#191970" points="441.3569,-27.7051 444.3457,-17.5406 435.6706,-23.6227 441.3569,-27.7051"/>
</g>
<!-- Node7&#45;&gt;Node3 -->
<g id="edge10" class="edge">
<title>Node7&#45;&gt;Node3</title>
<path fill="none" stroke="#191970" d="M269.9362,-108.1619C267.8308,-90.6713 263.0922,-51.3048 260.2597,-27.7731"/>
<polygon fill="#191970" stroke="#191970" points="263.7123,-27.1684 259.0422,-17.6584 256.7625,-28.005 263.7123,-27.1684"/>
</g>
<!-- Node7&#45;&gt;Node4 -->
<g id="edge11" class="edge">
<title>Node7&#45;&gt;Node4</title>
<path fill="none" stroke="#191970" d="M260.2353,-108.324C250.2339,-100.2631 235.1135,-88.0765 223.0695,-78.3695"/>
<polygon fill="#191970" stroke="#191970" points="224.9429,-75.3841 214.9606,-71.8339 220.5502,-80.8343 224.9429,-75.3841"/>
</g>
<!-- Node7&#45;&gt;Node5 -->
<g id="edge12" class="edge">
<title>Node7&#45;&gt;Node5</title>
<path fill="none" stroke="#191970" d="M313.4654,-108.4435C366.8176,-97.6935 457.2529,-79.4714 505.816,-69.6863"/>
<polygon fill="#191970" stroke="#191970" points="506.6869,-73.0813 515.7985,-67.6749 505.3042,-66.2192 506.6869,-73.0813"/>
</g>
<!-- Node7&#45;&gt;Node6 -->
<g id="edge14" class="edge">
<title>Node7&#45;&gt;Node6</title>
<path fill="none" stroke="#191970" d="M281.2827,-108.324C290.8363,-100.2631 305.2797,-88.0765 316.7843,-78.3695"/>
<polygon fill="#191970" stroke="#191970" points="319.1443,-80.9577 324.5302,-71.8339 314.6302,-75.6076 319.1443,-80.9577"/>
</g>
<!-- Node8&#45;&gt;Node2 -->
<g id="edge18" class="edge">
<title>Node8&#45;&gt;Node2</title>
<path fill="none" stroke="#191970" d="M589.7507,-108.4897C588.9081,-95.1664 585.387,-69.3254 571,-54 549.5354,-31.1355 515.3858,-19.8218 488.8309,-14.2628"/>
<polygon fill="#191970" stroke="#191970" points="489.1822,-10.767 478.7048,-12.3397 487.8761,-17.6441 489.1822,-10.767"/>
</g>
<!-- Node8&#45;&gt;Node5 -->
<g id="edge17" class="edge">
<title>Node8&#45;&gt;Node5</title>
<path fill="none" stroke="#191970" d="M581.5784,-108.083C574.1518,-100.2195 563.1483,-88.5688 554.1878,-79.0813"/>
<polygon fill="#191970" stroke="#191970" points="556.6757,-76.618 547.2649,-71.7511 551.5866,-81.4244 556.6757,-76.618"/>
</g>
<!-- Node8&#45;&gt;Node6 -->
<g id="edge19" class="edge">
<title>Node8&#45;&gt;Node6</title>
<path fill="none" stroke="#191970" d="M549.5945,-108.4435C505.0171,-99.0036 433.2318,-83.802 385.1081,-73.6111"/>
<polygon fill="#191970" stroke="#191970" points="385.7246,-70.1641 375.2165,-71.5164 384.2744,-77.0123 385.7246,-70.1641"/>
</g>
<!-- Node9 -->
<g id="node10" class="node">
<title>Node9</title>
<polygon fill="none" stroke="#bfbfbf" points="618.5,-54.5 618.5,-71.5 671.5,-71.5 671.5,-54.5 618.5,-54.5"/>
<text text-anchor="middle" x="645" y="-61.1" font-family="InputSans" font-size="8.00" fill="#000000">cassert</text>
</g>
<!-- Node8&#45;&gt;Node9 -->
<g id="edge16" class="edge">
<title>Node8&#45;&gt;Node9</title>
<path fill="none" stroke="#191970" d="M599.0821,-108.083C607.1713,-100.1409 619.1954,-88.3354 628.9102,-78.7973"/>
<polygon fill="#191970" stroke="#191970" points="631.4033,-81.2545 636.0869,-71.7511 626.4991,-76.2595 631.4033,-81.2545"/>
</g>
<!-- Node10&#45;&gt;Node2 -->
<g id="edge21" class="edge">
<title>Node10&#45;&gt;Node2</title>
<path fill="none" stroke="#191970" d="M90.7512,-108.4435C110.5241,-92.8702 152.1731,-60.8655 169,-54 212.2051,-36.372 344.6415,-20.258 411.1041,-13.0214"/>
<polygon fill="#191970" stroke="#191970" points="411.6125,-16.4869 421.1807,-11.9373 410.8637,-9.5271 411.6125,-16.4869"/>
</g>
<!-- Node10&#45;&gt;Node3 -->
<g id="edge22" class="edge">
<title>Node10&#45;&gt;Node3</title>
<path fill="none" stroke="#191970" d="M89.3081,-108.4582C103.6956,-95.5453 132.5494,-70.7836 160,-54 181.043,-41.134 206.3813,-29.5928 226.0212,-21.4201"/>
<polygon fill="#191970" stroke="#191970" points="227.5035,-24.5954 235.4394,-17.5761 224.8583,-18.1145 227.5035,-24.5954"/>
</g>
<!-- Node10&#45;&gt;Node4 -->
<g id="edge23" class="edge">
<title>Node10&#45;&gt;Node4</title>
<path fill="none" stroke="#191970" d="M99.6482,-108.4435C119.9645,-99.5961 151.9028,-85.6875 175.0977,-75.5865"/>
<polygon fill="#191970" stroke="#191970" points="176.6729,-78.7181 184.4438,-71.5164 173.8779,-72.3002 176.6729,-78.7181"/>
</g>
<!-- Node10&#45;&gt;Node6 -->
<g id="edge25" class="edge">
<title>Node10&#45;&gt;Node6</title>
<path fill="none" stroke="#191970" d="M120.4055,-108.4435C164.9829,-99.0036 236.7682,-83.802 284.8919,-73.6111"/>
<polygon fill="#191970" stroke="#191970" points="285.7256,-77.0123 294.7835,-71.5164 284.2754,-70.1641 285.7256,-77.0123"/>
</g>
<!-- Node11 -->
<g id="node12" class="node">
<title>Node11</title>
<polygon fill="none" stroke="#bfbfbf" points="0,-54.5 0,-71.5 46,-71.5 46,-54.5 0,-54.5"/>
<text text-anchor="middle" x="23" y="-61.1" font-family="InputSans" font-size="8.00" fill="#000000">vector</text>
</g>
<!-- Node10&#45;&gt;Node11 -->
<g id="edge24" class="edge">
<title>Node10&#45;&gt;Node11</title>
<path fill="none" stroke="#191970" d="M70.842,-108.324C62.4985,-100.4196 49.9676,-88.5482 39.8231,-78.9377"/>
<polygon fill="#191970" stroke="#191970" points="41.9913,-76.1705 32.3247,-71.8339 37.1771,-81.2522 41.9913,-76.1705"/>
</g>
<!-- Node12&#45;&gt;Node5 -->
<g id="edge27" class="edge">
<title>Node12&#45;&gt;Node5</title>
<path fill="none" stroke="#191970" d="M379.1448,-167.1049C411.2901,-162.0419 459.519,-150.7166 494,-126 510.1749,-114.4055 522.6927,-95.1486 530.373,-80.9712"/>
<polygon fill="#191970" stroke="#191970" points="533.6624,-82.2255 535.0936,-71.7278 527.4283,-79.0417 533.6624,-82.2255"/>
</g>
<!-- Node12&#45;&gt;Node6 -->
<g id="edge28" class="edge">
<title>Node12&#45;&gt;Node6</title>
<path fill="none" stroke="#191970" d="M344.1817,-162.1619C342.5622,-144.6713 338.9171,-105.3048 336.7382,-81.7731"/>
<polygon fill="#191970" stroke="#191970" points="340.2089,-81.2931 335.8017,-71.6584 333.2387,-81.9385 340.2089,-81.2931"/>
</g>
<!-- Node12&#45;&gt;Node7 -->
<g id="edge29" class="edge">
<title>Node12&#45;&gt;Node7</title>
<path fill="none" stroke="#191970" d="M333.1106,-162.324C321.8498,-154.1066 304.7134,-141.6017 291.2909,-131.8069"/>
<polygon fill="#191970" stroke="#191970" points="293.2468,-128.9014 283.1057,-125.8339 289.1205,-134.5559 293.2468,-128.9014"/>
</g>
<!-- Node13 -->
<g id="node14" class="node">
<title>Node13</title>
<g id="a_node14"><a xlink:href="_axes_8hpp.html" target="_top" xlink:title="Axes.hpp">
<polygon fill="none" stroke="#000000" points="144.5,-108.5 144.5,-125.5 203.5,-125.5 203.5,-108.5 144.5,-108.5"/>
<text text-anchor="middle" x="174" y="-115.1" font-family="InputSans" font-size="8.00" fill="#000000">Axes.hpp</text>
</a>
</g>
</g>
<!-- Node12&#45;&gt;Node13 -->
<g id="edge30" class="edge">
<title>Node12&#45;&gt;Node13</title>
<path fill="none" stroke="#191970" d="M317.9045,-162.4435C289.0121,-153.3196 243.0753,-138.8133 210.8946,-128.6509"/>
<polygon fill="#191970" stroke="#191970" points="211.5585,-125.1903 200.9687,-125.5164 209.4505,-131.8654 211.5585,-125.1903"/>
</g>
<!-- Node13&#45;&gt;Node3 -->
<g id="edge31" class="edge">
<title>Node13&#45;&gt;Node3</title>
<path fill="none" stroke="#191970" d="M170.2043,-108.0874C165.3295,-95.1349 158.6548,-70.8231 169,-54 179.9168,-36.2474 200.2433,-25.2405 218.7175,-18.5605"/>
<polygon fill="#191970" stroke="#191970" points="220.028,-21.8139 228.4334,-15.364 217.8404,-15.1645 220.028,-21.8139"/>
</g>
<!-- Node13&#45;&gt;Node6 -->
<g id="edge32" class="edge">
<title>Node13&#45;&gt;Node6</title>
<path fill="none" stroke="#191970" d="M199.5109,-108.4435C226.596,-99.3591 269.59,-84.9388 299.8688,-74.7831"/>
<polygon fill="#191970" stroke="#191970" points="301.2405,-78.0148 309.6084,-71.5164 299.0145,-71.3781 301.2405,-78.0148"/>
</g>
</g>
</svg>
