<?xml version="1.0" encoding="UTF-8" standalone="no"?>
<!DOCTYPE svg PUBLIC "-//W3C//DTD SVG 1.1//EN"
 "http://www.w3.org/Graphics/SVG/1.1/DTD/svg11.dtd">
<!-- Generated by graphviz version 2.40.1 (20161225.0304)
 -->
<!-- Title: /home/jacques/repos/math4171/src/arcplot/Figure.hpp Pages: 1 -->
<svg width="328pt" height="206pt"
 viewBox="0.00 0.00 327.59 206.00" xmlns="http://www.w3.org/2000/svg" xmlns:xlink="http://www.w3.org/1999/xlink">
<g id="graph0" class="graph" transform="scale(1 1) rotate(0) translate(4 202)">
<title>/home/jacques/repos/math4171/src/arcplot/Figure.hpp</title>
<!-- Node0 -->
<g id="node1" class="node">
<title>Node0</title>
<polygon fill="#bfbfbf" stroke="#000000" points="102.5,-162.5 102.5,-197.5 231.5,-197.5 231.5,-162.5 102.5,-162.5"/>
<text text-anchor="start" x="110.5" y="-187.1" font-family="InputSans" font-size="8.00" fill="#000000">/home/jacques/repos</text>
<text text-anchor="start" x="110.5" y="-178.1" font-family="InputSans" font-size="8.00" fill="#000000">/math4171/src/arcplot</text>
<text text-anchor="middle" x="167" y="-169.1" font-family="InputSans" font-size="8.00" fill="#000000">/Figure.hpp</text>
</g>
<!-- Node1 -->
<g id="node2" class="node">
<title>Node1</title>
<polygon fill="none" stroke="#bfbfbf" points="0,-54.5 0,-71.5 46,-71.5 46,-54.5 0,-54.5"/>
<text text-anchor="middle" x="23" y="-61.1" font-family="InputSans" font-size="8.00" fill="#000000">string</text>
</g>
<!-- Node0&#45;&gt;Node1 -->
<g id="edge1" class="edge">
<title>Node0&#45;&gt;Node1</title>
<path fill="none" stroke="#191970" d="M125.8206,-162.3353C107.2466,-153.1582 85.7675,-140.7619 69,-126 54.1133,-112.894 41.2046,-94.1649 32.8829,-80.5357"/>
<polygon fill="#191970" stroke="#191970" points="35.7551,-78.515 27.6714,-71.6663 29.7198,-82.0612 35.7551,-78.515"/>
</g>
<!-- Node2 -->
<g id="node3" class="node">
<title>Node2</title>
<g id="a_node3"><a xlink:href="_python_object_8hpp.html" target="_top" xlink:title="PythonObject.hpp">
<polygon fill="none" stroke="#000000" points="210,-54.5 210,-71.5 308,-71.5 308,-54.5 210,-54.5"/>
<text text-anchor="middle" x="259" y="-61.1" font-family="InputSans" font-size="8.00" fill="#000000">PythonObject.hpp</text>
</a>
</g>
</g>
<!-- Node0&#45;&gt;Node2 -->
<g id="edge2" class="edge">
<title>Node0&#45;&gt;Node2</title>
<path fill="none" stroke="#191970" d="M180.7733,-162.4839C198.396,-140.0724 228.7001,-101.5336 245.9616,-79.5815"/>
<polygon fill="#191970" stroke="#191970" points="248.8563,-81.5624 252.2862,-71.5381 243.3537,-77.2356 248.8563,-81.5624"/>
</g>
<!-- Node5 -->
<g id="node6" class="node">
<title>Node5</title>
<g id="a_node6"><a xlink:href="_python_module_8hpp.html" target="_top" xlink:title="PythonModule.hpp">
<polygon fill="none" stroke="#000000" points="78.5,-108.5 78.5,-125.5 177.5,-125.5 177.5,-108.5 78.5,-108.5"/>
<text text-anchor="middle" x="128" y="-115.1" font-family="InputSans" font-size="8.00" fill="#000000">PythonModule.hpp</text>
</a>
</g>
</g>
<!-- Node0&#45;&gt;Node5 -->
<g id="edge5" class="edge">
<title>Node0&#45;&gt;Node5</title>
<path fill="none" stroke="#191970" d="M156.1363,-162.451C150.7073,-153.6811 144.1591,-143.1032 138.7464,-134.3595"/>
<polygon fill="#191970" stroke="#191970" points="141.6649,-132.4244 133.4253,-125.764 135.713,-136.1089 141.6649,-132.4244"/>
</g>
<!-- Node7 -->
<g id="node8" class="node">
<title>Node7</title>
<g id="a_node8"><a xlink:href="_axes_8hpp.html" target="_top" xlink:title="Axes.hpp">
<polygon fill="none" stroke="#000000" points="234.5,-108.5 234.5,-125.5 293.5,-125.5 293.5,-108.5 234.5,-108.5"/>
<text text-anchor="middle" x="264" y="-115.1" font-family="InputSans" font-size="8.00" fill="#000000">Axes.hpp</text>
</a>
</g>
</g>
<!-- Node0&#45;&gt;Node7 -->
<g id="edge11" class="edge">
<title>Node0&#45;&gt;Node7</title>
<path fill="none" stroke="#191970" d="M194.0199,-162.451C209.1949,-152.5951 227.8857,-140.4557 242.1325,-131.2026"/>
<polygon fill="#191970" stroke="#191970" points="244.2913,-133.9739 250.7714,-125.5918 240.4785,-128.1034 244.2913,-133.9739"/>
</g>
<!-- Node3 -->
<g id="node4" class="node">
<title>Node3</title>
<polygon fill="none" stroke="#bfbfbf" points="229.5,-.5 229.5,-17.5 288.5,-17.5 288.5,-.5 229.5,-.5"/>
<text text-anchor="middle" x="259" y="-7.1" font-family="InputSans" font-size="8.00" fill="#000000">iostream</text>
</g>
<!-- Node2&#45;&gt;Node3 -->
<g id="edge3" class="edge">
<title>Node2&#45;&gt;Node3</title>
<path fill="none" stroke="#191970" d="M259,-54.083C259,-47.0059 259,-36.8611 259,-27.9865"/>
<polygon fill="#191970" stroke="#191970" points="262.5001,-27.751 259,-17.7511 255.5001,-27.7511 262.5001,-27.751"/>
</g>
<!-- Node4 -->
<g id="node5" class="node">
<title>Node4</title>
<polygon fill="none" stroke="#bfbfbf" points="100.5,-.5 100.5,-17.5 157.5,-17.5 157.5,-.5 100.5,-.5"/>
<text text-anchor="middle" x="129" y="-7.1" font-family="InputSans" font-size="8.00" fill="#000000">Python.h</text>
</g>
<!-- Node2&#45;&gt;Node4 -->
<g id="edge4" class="edge">
<title>Node2&#45;&gt;Node4</title>
<path fill="none" stroke="#191970" d="M238.4011,-54.4435C217.0066,-45.5566 183.3188,-31.5632 158.9756,-21.4514"/>
<polygon fill="#191970" stroke="#191970" points="160.0801,-18.1203 149.5025,-17.5164 157.3948,-24.5848 160.0801,-18.1203"/>
</g>
<!-- Node5&#45;&gt;Node1 -->
<g id="edge8" class="edge">
<title>Node5&#45;&gt;Node1</title>
<path fill="none" stroke="#191970" d="M111.1299,-108.324C94.2912,-99.6641 68.1935,-86.2424 48.762,-76.249"/>
<polygon fill="#191970" stroke="#191970" points="50.3218,-73.1155 39.8282,-71.6545 47.1204,-79.3405 50.3218,-73.1155"/>
</g>
<!-- Node5&#45;&gt;Node2 -->
<g id="edge10" class="edge">
<title>Node5&#45;&gt;Node2</title>
<path fill="none" stroke="#191970" d="M148.7573,-108.4435C170.3164,-99.5566 204.2633,-85.5632 228.7938,-75.4514"/>
<polygon fill="#191970" stroke="#191970" points="230.4283,-78.5634 238.3398,-71.5164 227.7606,-72.0917 230.4283,-78.5634"/>
</g>
<!-- Node5&#45;&gt;Node3 -->
<g id="edge6" class="edge">
<title>Node5&#45;&gt;Node3</title>
<path fill="none" stroke="#191970" d="M137.7791,-108.2747C151.6559,-95.9593 177.941,-72.8739 201,-54 213.5745,-43.7077 228.0105,-32.5052 239.3347,-23.8522"/>
<polygon fill="#191970" stroke="#191970" points="241.4652,-26.6292 247.3055,-17.7894 237.2274,-21.0577 241.4652,-26.6292"/>
</g>
<!-- Node5&#45;&gt;Node4 -->
<g id="edge9" class="edge">
<title>Node5&#45;&gt;Node4</title>
<path fill="none" stroke="#191970" d="M118.0345,-108.4498C105.6334,-96.7089 86.9009,-74.6905 94,-54 97.719,-43.161 105.2332,-32.9216 112.349,-24.9566"/>
<polygon fill="#191970" stroke="#191970" points="115.0542,-27.1922 119.4444,-17.5497 109.9993,-22.3498 115.0542,-27.1922"/>
</g>
<!-- Node6 -->
<g id="node7" class="node">
<title>Node6</title>
<polygon fill="none" stroke="#bfbfbf" points="102.5,-54.5 102.5,-71.5 153.5,-71.5 153.5,-54.5 102.5,-54.5"/>
<text text-anchor="middle" x="128" y="-61.1" font-family="InputSans" font-size="8.00" fill="#000000">memory</text>
</g>
<!-- Node5&#45;&gt;Node6 -->
<g id="edge7" class="edge">
<title>Node5&#45;&gt;Node6</title>
<path fill="none" stroke="#191970" d="M128,-108.083C128,-101.0059 128,-90.8611 128,-81.9865"/>
<polygon fill="#191970" stroke="#191970" points="131.5001,-81.751 128,-71.7511 124.5001,-81.7511 131.5001,-81.751"/>
</g>
<!-- Node7&#45;&gt;Node2 -->
<g id="edge13" class="edge">
<title>Node7&#45;&gt;Node2</title>
<path fill="none" stroke="#191970" d="M263.1744,-108.083C262.5191,-101.0059 261.5797,-90.8611 260.758,-81.9865"/>
<polygon fill="#191970" stroke="#191970" points="264.2174,-81.3858 259.8103,-71.7511 257.2473,-82.0312 264.2174,-81.3858"/>
</g>
<!-- Node7&#45;&gt;Node3 -->
<g id="edge12" class="edge">
<title>Node7&#45;&gt;Node3</title>
<path fill="none" stroke="#191970" d="M280.5313,-108.4298C299.8491,-97.1703 327.8772,-76.2063 317,-54 310.4775,-40.6839 297.9041,-30.177 286.1269,-22.6761"/>
<polygon fill="#191970" stroke="#191970" points="287.7822,-19.5891 277.3894,-17.5294 284.2294,-25.6205 287.7822,-19.5891"/>
</g>
</g>
</svg>
