<?xml version="1.0" encoding="UTF-8" standalone="no"?>
<!DOCTYPE svg PUBLIC "-//W3C//DTD SVG 1.1//EN"
 "http://www.w3.org/Graphics/SVG/1.1/DTD/svg11.dtd">
<!-- Generated by graphviz version 2.40.1 (20161225.0304)
 -->
<!-- Title: /home/jacques/repos/math4171/src/arcmath/old/IPythonContext.hpp Pages: 1 -->
<svg width="260pt" height="188pt"
 viewBox="0.00 0.00 260.00 188.00" xmlns="http://www.w3.org/2000/svg" xmlns:xlink="http://www.w3.org/1999/xlink">
<g id="graph0" class="graph" transform="scale(1 1) rotate(0) translate(4 184)">
<title>/home/jacques/repos/math4171/src/arcmath/old/IPythonContext.hpp</title>
<!-- Node1 -->
<g id="node1" class="node">
<title>Node1</title>
<polygon fill="#bfbfbf" stroke="#000000" points="66.5,-144.5 66.5,-179.5 185.5,-179.5 185.5,-144.5 66.5,-144.5"/>
<text text-anchor="start" x="74.5" y="-169.1" font-family="InputSans" font-size="8.00" fill="#000000">/home/jacques/repos</text>
<text text-anchor="start" x="74.5" y="-160.1" font-family="InputSans" font-size="8.00" fill="#000000">/math4171/src/arcmath</text>
<text text-anchor="middle" x="126" y="-151.1" font-family="InputSans" font-size="8.00" fill="#000000">/old/IPythonContext.hpp</text>
</g>
<!-- Node2 -->
<g id="node2" class="node">
<title>Node2</title>
<g id="a_node2"><a xlink:href="_i_python_context_8cpp.html" target="_top" xlink:title="/home/jacques/repos\l/math4171/src/arcmath\l/old/IPythonContext.cpp">
<polygon fill="none" stroke="#000000" points="0,-72.5 0,-107.5 118,-107.5 118,-72.5 0,-72.5"/>
<text text-anchor="start" x="8" y="-97.1" font-family="InputSans" font-size="8.00" fill="#000000">/home/jacques/repos</text>
<text text-anchor="start" x="8" y="-88.1" font-family="InputSans" font-size="8.00" fill="#000000">/math4171/src/arcmath</text>
<text text-anchor="middle" x="59" y="-79.1" font-family="InputSans" font-size="8.00" fill="#000000">/old/IPythonContext.cpp</text>
</a>
</g>
</g>
<!-- Node1&#45;&gt;Node2 -->
<g id="edge1" class="edge">
<title>Node1&#45;&gt;Node2</title>
<path fill="none" stroke="#191970" d="M102.5285,-136.7769C93.5609,-127.1401 83.5373,-116.3684 75.3713,-107.593"/>
<polygon fill="#191970" stroke="#191970" points="100.0636,-139.2658 109.4382,-144.2022 105.1881,-134.4972 100.0636,-139.2658"/>
</g>
<!-- Node3 -->
<g id="node3" class="node">
<title>Node3</title>
<g id="a_node3"><a xlink:href="arcmath_2old_2_python_context_8hpp.html" target="_top" xlink:title="/home/jacques/repos\l/math4171/src/arcmath\l/old/PythonContext.hpp">
<polygon fill="none" stroke="#000000" points="136,-72.5 136,-107.5 252,-107.5 252,-72.5 136,-72.5"/>
<text text-anchor="start" x="144" y="-97.1" font-family="InputSans" font-size="8.00" fill="#000000">/home/jacques/repos</text>
<text text-anchor="start" x="144" y="-88.1" font-family="InputSans" font-size="8.00" fill="#000000">/math4171/src/arcmath</text>
<text text-anchor="middle" x="194" y="-79.1" font-family="InputSans" font-size="8.00" fill="#000000">/old/PythonContext.hpp</text>
</a>
</g>
</g>
<!-- Node1&#45;&gt;Node3 -->
<g id="edge2" class="edge">
<title>Node1&#45;&gt;Node3</title>
<path fill="none" stroke="#191970" d="M149.8218,-136.7769C158.9232,-127.1401 169.0965,-116.3684 177.3844,-107.593"/>
<polygon fill="#191970" stroke="#191970" points="147.1307,-134.5289 142.809,-144.2022 152.2198,-139.3353 147.1307,-134.5289"/>
</g>
<!-- Node4 -->
<g id="node4" class="node">
<title>Node4</title>
<g id="a_node4"><a xlink:href="arcmath_2old_2_python_context_8cpp.html" target="_top" xlink:title="/home/jacques/repos\l/math4171/src/arcmath\l/old/PythonContext.cpp">
<polygon fill="none" stroke="#000000" points="136,-.5 136,-35.5 252,-35.5 252,-.5 136,-.5"/>
<text text-anchor="start" x="144" y="-25.1" font-family="InputSans" font-size="8.00" fill="#000000">/home/jacques/repos</text>
<text text-anchor="start" x="144" y="-16.1" font-family="InputSans" font-size="8.00" fill="#000000">/math4171/src/arcmath</text>
<text text-anchor="middle" x="194" y="-7.1" font-family="InputSans" font-size="8.00" fill="#000000">/old/PythonContext.cpp</text>
</a>
</g>
</g>
<!-- Node3&#45;&gt;Node4 -->
<g id="edge3" class="edge">
<title>Node3&#45;&gt;Node4</title>
<path fill="none" stroke="#191970" d="M194,-62.1759C194,-53.2363 194,-43.5865 194,-35.593"/>
<polygon fill="#191970" stroke="#191970" points="190.5001,-62.2022 194,-72.2022 197.5001,-62.2023 190.5001,-62.2022"/>
</g>
</g>
</svg>
