<?xml version="1.0" encoding="UTF-8" standalone="no"?>
<!DOCTYPE svg PUBLIC "-//W3C//DTD SVG 1.1//EN"
 "http://www.w3.org/Graphics/SVG/1.1/DTD/svg11.dtd">
<!-- Generated by graphviz version 2.40.1 (20161225.0304)
 -->
<!-- Title: /home/jacques/repos/math4171/src/arcmath/old/IPythonContext.hpp Pages: 1 -->
<svg width="294pt" height="188pt"
 viewBox="0.00 0.00 294.00 188.00" xmlns="http://www.w3.org/2000/svg" xmlns:xlink="http://www.w3.org/1999/xlink">
<g id="graph0" class="graph" transform="scale(1 1) rotate(0) translate(4 184)">
<title>/home/jacques/repos/math4171/src/arcmath/old/IPythonContext.hpp</title>
<!-- Node1 -->
<g id="node1" class="node">
<title>Node1</title>
<polygon fill="#bfbfbf" stroke="#000000" points="76,-144.5 76,-179.5 210,-179.5 210,-144.5 76,-144.5"/>
<text text-anchor="start" x="84" y="-169.1" font-family="InputSans" font-size="8.00" fill="#000000">/home/jacques/repos</text>
<text text-anchor="start" x="84" y="-160.1" font-family="InputSans" font-size="8.00" fill="#000000">/math4171/src/arcmath</text>
<text text-anchor="middle" x="143" y="-151.1" font-family="InputSans" font-size="8.00" fill="#000000">/old/IPythonContext.hpp</text>
</g>
<!-- Node2 -->
<g id="node2" class="node">
<title>Node2</title>
<g id="a_node2"><a xlink:href="_i_python_context_8cpp.html" target="_top" xlink:title="/home/jacques/repos\l/math4171/src/arcmath\l/old/IPythonContext.cpp">
<polygon fill="none" stroke="#000000" points="0,-72.5 0,-107.5 134,-107.5 134,-72.5 0,-72.5"/>
<text text-anchor="start" x="8" y="-97.1" font-family="InputSans" font-size="8.00" fill="#000000">/home/jacques/repos</text>
<text text-anchor="start" x="8" y="-88.1" font-family="InputSans" font-size="8.00" fill="#000000">/math4171/src/arcmath</text>
<text text-anchor="middle" x="67" y="-79.1" font-family="InputSans" font-size="8.00" fill="#000000">/old/IPythonContext.cpp</text>
</a>
</g>
</g>
<!-- Node1&#45;&gt;Node2 -->
<g id="edge1" class="edge">
<title>Node1&#45;&gt;Node2</title>
<path fill="none" stroke="#191970" d="M116.6774,-137.0628C106.4288,-127.3536 94.9251,-116.4553 85.5704,-107.593"/>
<polygon fill="#191970" stroke="#191970" points="114.5468,-139.8656 124.2135,-144.2022 119.361,-134.7839 114.5468,-139.8656"/>
</g>
<!-- Node3 -->
<g id="node3" class="node">
<title>Node3</title>
<g id="a_node3"><a xlink:href="arcmath_2old_2_python_context_8hpp.html" target="_top" xlink:title="/home/jacques/repos\l/math4171/src/arcmath\l/old/PythonContext.hpp">
<polygon fill="none" stroke="#000000" points="152,-72.5 152,-107.5 286,-107.5 286,-72.5 152,-72.5"/>
<text text-anchor="start" x="160" y="-97.1" font-family="InputSans" font-size="8.00" fill="#000000">/home/jacques/repos</text>
<text text-anchor="start" x="160" y="-88.1" font-family="InputSans" font-size="8.00" fill="#000000">/math4171/src/arcmath</text>
<text text-anchor="middle" x="219" y="-79.1" font-family="InputSans" font-size="8.00" fill="#000000">/old/PythonContext.hpp</text>
</a>
</g>
</g>
<!-- Node1&#45;&gt;Node3 -->
<g id="edge2" class="edge">
<title>Node1&#45;&gt;Node3</title>
<path fill="none" stroke="#191970" d="M169.3226,-137.0628C179.5712,-127.3536 191.0749,-116.4553 200.4296,-107.593"/>
<polygon fill="#191970" stroke="#191970" points="166.639,-134.7839 161.7865,-144.2022 171.4532,-139.8656 166.639,-134.7839"/>
</g>
<!-- Node4 -->
<g id="node4" class="node">
<title>Node4</title>
<g id="a_node4"><a xlink:href="arcmath_2old_2_python_context_8cpp.html" target="_top" xlink:title="/home/jacques/repos\l/math4171/src/arcmath\l/old/PythonContext.cpp">
<polygon fill="none" stroke="#000000" points="152,-.5 152,-35.5 286,-35.5 286,-.5 152,-.5"/>
<text text-anchor="start" x="160" y="-25.1" font-family="InputSans" font-size="8.00" fill="#000000">/home/jacques/repos</text>
<text text-anchor="start" x="160" y="-16.1" font-family="InputSans" font-size="8.00" fill="#000000">/math4171/src/arcmath</text>
<text text-anchor="middle" x="219" y="-7.1" font-family="InputSans" font-size="8.00" fill="#000000">/old/PythonContext.cpp</text>
</a>
</g>
</g>
<!-- Node3&#45;&gt;Node4 -->
<g id="edge3" class="edge">
<title>Node3&#45;&gt;Node4</title>
<path fill="none" stroke="#191970" d="M219,-62.1759C219,-53.2363 219,-43.5865 219,-35.593"/>
<polygon fill="#191970" stroke="#191970" points="215.5001,-62.2022 219,-72.2022 222.5001,-62.2023 215.5001,-62.2022"/>
</g>
</g>
</svg>
