<?xml version="1.0" encoding="UTF-8" standalone="no"?>
<!DOCTYPE svg PUBLIC "-//W3C//DTD SVG 1.1//EN"
 "http://www.w3.org/Graphics/SVG/1.1/DTD/svg11.dtd">
<!-- Generated by graphviz version 2.40.1 (20161225.0304)
 -->
<!-- Title: /home/jacques/repos/math4171/src/arcplot/ListPlot.hpp Pages: 1 -->
<svg width="493pt" height="206pt"
 viewBox="0.00 0.00 493.00 206.00" xmlns="http://www.w3.org/2000/svg" xmlns:xlink="http://www.w3.org/1999/xlink">
<g id="graph0" class="graph" transform="scale(1 1) rotate(0) translate(4 202)">
<title>/home/jacques/repos/math4171/src/arcplot/ListPlot.hpp</title>
<!-- Node0 -->
<g id="node1" class="node">
<title>Node0</title>
<polygon fill="#bfbfbf" stroke="#000000" points="243.5,-162.5 243.5,-197.5 372.5,-197.5 372.5,-162.5 243.5,-162.5"/>
<text text-anchor="start" x="251.5" y="-187.1" font-family="InputSans" font-size="8.00" fill="#000000">/home/jacques/repos</text>
<text text-anchor="start" x="251.5" y="-178.1" font-family="InputSans" font-size="8.00" fill="#000000">/math4171/src/arcplot</text>
<text text-anchor="middle" x="308" y="-169.1" font-family="InputSans" font-size="8.00" fill="#000000">/ListPlot.hpp</text>
</g>
<!-- Node1 -->
<g id="node2" class="node">
<title>Node1</title>
<polygon fill="none" stroke="#bfbfbf" points="153,-108.5 153,-125.5 195,-125.5 195,-108.5 153,-108.5"/>
<text text-anchor="middle" x="174" y="-115.1" font-family="InputSans" font-size="8.00" fill="#000000">array</text>
</g>
<!-- Node0&#45;&gt;Node1 -->
<g id="edge1" class="edge">
<title>Node0&#45;&gt;Node1</title>
<path fill="none" stroke="#191970" d="M270.6735,-162.451C248.7119,-152.1257 221.4198,-139.2944 201.4401,-129.9009"/>
<polygon fill="#191970" stroke="#191970" points="202.8135,-126.6792 192.2746,-125.5918 199.8352,-133.014 202.8135,-126.6792"/>
</g>
<!-- Node2 -->
<g id="node3" class="node">
<title>Node2</title>
<polygon fill="none" stroke="#bfbfbf" points="330.5,-54.5 330.5,-71.5 389.5,-71.5 389.5,-54.5 330.5,-54.5"/>
<text text-anchor="middle" x="360" y="-61.1" font-family="InputSans" font-size="8.00" fill="#000000">iostream</text>
</g>
<!-- Node0&#45;&gt;Node2 -->
<g id="edge2" class="edge">
<title>Node0&#45;&gt;Node2</title>
<path fill="none" stroke="#191970" d="M320.0322,-162.0614C326.5467,-151.8081 334.3864,-138.5309 340,-126 346.4589,-111.5822 351.7551,-94.4515 355.2711,-81.6956"/>
<polygon fill="#191970" stroke="#191970" points="358.7175,-82.3524 357.8871,-71.7901 351.9496,-80.5649 358.7175,-82.3524"/>
</g>
<!-- Node3 -->
<g id="node4" class="node">
<title>Node3</title>
<polygon fill="none" stroke="#bfbfbf" points="285,-108.5 285,-125.5 331,-125.5 331,-108.5 285,-108.5"/>
<text text-anchor="middle" x="308" y="-115.1" font-family="InputSans" font-size="8.00" fill="#000000">vector</text>
</g>
<!-- Node0&#45;&gt;Node3 -->
<g id="edge3" class="edge">
<title>Node0&#45;&gt;Node3</title>
<path fill="none" stroke="#191970" d="M308,-162.451C308,-154.1476 308,-144.2234 308,-135.7698"/>
<polygon fill="#191970" stroke="#191970" points="311.5001,-135.764 308,-125.764 304.5001,-135.7641 311.5001,-135.764"/>
</g>
<!-- Node4 -->
<g id="node5" class="node">
<title>Node4</title>
<g id="a_node5"><a xlink:href="_vec_8hpp.html" target="_top" xlink:title="Vec.hpp">
<polygon fill="none" stroke="#000000" points="213,-108.5 213,-125.5 267,-125.5 267,-108.5 213,-108.5"/>
<text text-anchor="middle" x="240" y="-115.1" font-family="InputSans" font-size="8.00" fill="#000000">Vec.hpp</text>
</a>
</g>
</g>
<!-- Node0&#45;&gt;Node4 -->
<g id="edge4" class="edge">
<title>Node0&#45;&gt;Node4</title>
<path fill="none" stroke="#191970" d="M289.0582,-162.451C278.9881,-153.1213 266.7094,-141.7455 256.9553,-132.7086"/>
<polygon fill="#191970" stroke="#191970" points="259.1739,-129.9928 249.4596,-125.764 254.4165,-135.1278 259.1739,-129.9928"/>
</g>
<!-- Node14 -->
<g id="node15" class="node">
<title>Node14</title>
<g id="a_node15"><a xlink:href="_python_object_8hpp.html" target="_top" xlink:title="PythonObject.hpp">
<polygon fill="none" stroke="#000000" points="387,-108.5 387,-125.5 485,-125.5 485,-108.5 387,-108.5"/>
<text text-anchor="middle" x="436" y="-115.1" font-family="InputSans" font-size="8.00" fill="#000000">PythonObject.hpp</text>
</a>
</g>
</g>
<!-- Node0&#45;&gt;Node14 -->
<g id="edge15" class="edge">
<title>Node0&#45;&gt;Node14</title>
<path fill="none" stroke="#191970" d="M343.6551,-162.451C364.5381,-152.1727 390.4666,-139.411 409.5279,-130.0292"/>
<polygon fill="#191970" stroke="#191970" points="411.1171,-133.1481 418.5436,-125.5918 408.0259,-126.8676 411.1171,-133.1481"/>
</g>
<!-- Node4&#45;&gt;Node2 -->
<g id="edge6" class="edge">
<title>Node4&#45;&gt;Node2</title>
<path fill="none" stroke="#191970" d="M259.0144,-108.4435C278.5876,-99.6356 309.3076,-85.8116 331.7289,-75.722"/>
<polygon fill="#191970" stroke="#191970" points="333.3917,-78.8119 341.0746,-71.5164 330.5191,-72.4284 333.3917,-78.8119"/>
</g>
<!-- Node5 -->
<g id="node6" class="node">
<title>Node5</title>
<polygon fill="none" stroke="#bfbfbf" points="65.5,-54.5 65.5,-71.5 118.5,-71.5 118.5,-54.5 65.5,-54.5"/>
<text text-anchor="middle" x="92" y="-61.1" font-family="InputSans" font-size="8.00" fill="#000000">cassert</text>
</g>
<!-- Node4&#45;&gt;Node5 -->
<g id="edge5" class="edge">
<title>Node4&#45;&gt;Node5</title>
<path fill="none" stroke="#191970" d="M216.549,-108.4435C191.8674,-99.4381 152.8147,-85.1891 125.0233,-75.049"/>
<polygon fill="#191970" stroke="#191970" points="125.9352,-71.6561 115.3413,-71.5164 123.5359,-78.2321 125.9352,-71.6561"/>
</g>
<!-- Node6 -->
<g id="node7" class="node">
<title>Node6</title>
<g id="a_node7"><a xlink:href="_core_math_8hpp.html" target="_top" xlink:title="CoreMath.hpp">
<polygon fill="none" stroke="#000000" points="136.5,-54.5 136.5,-71.5 217.5,-71.5 217.5,-54.5 136.5,-54.5"/>
<text text-anchor="middle" x="177" y="-61.1" font-family="InputSans" font-size="8.00" fill="#000000">CoreMath.hpp</text>
</a>
</g>
</g>
<!-- Node4&#45;&gt;Node6 -->
<g id="edge7" class="edge">
<title>Node4&#45;&gt;Node6</title>
<path fill="none" stroke="#191970" d="M229.878,-108.324C220.4736,-100.2631 206.2559,-88.0765 194.931,-78.3695"/>
<polygon fill="#191970" stroke="#191970" points="197.1766,-75.6844 187.3062,-71.8339 192.621,-80.9993 197.1766,-75.6844"/>
</g>
<!-- Node11 -->
<g id="node12" class="node">
<title>Node11</title>
<g id="a_node12"><a xlink:href="_vec_8inl.html" target="_top" xlink:title="Vec.inl">
<polygon fill="none" stroke="#000000" points="261.5,-54.5 261.5,-71.5 312.5,-71.5 312.5,-54.5 261.5,-54.5"/>
<text text-anchor="middle" x="287" y="-61.1" font-family="InputSans" font-size="8.00" fill="#000000">Vec.inl</text>
</a>
</g>
</g>
<!-- Node4&#45;&gt;Node11 -->
<g id="edge12" class="edge">
<title>Node4&#45;&gt;Node11</title>
<path fill="none" stroke="#191970" d="M247.7611,-108.083C254.5368,-100.2982 264.5432,-88.8015 272.7551,-79.3665"/>
<polygon fill="#191970" stroke="#191970" points="275.4581,-81.592 279.3833,-71.7511 270.178,-76.9963 275.4581,-81.592"/>
</g>
<!-- Node7 -->
<g id="node8" class="node">
<title>Node7</title>
<polygon fill="none" stroke="#bfbfbf" points="132.5,-.5 132.5,-17.5 195.5,-17.5 195.5,-.5 132.5,-.5"/>
<text text-anchor="middle" x="164" y="-7.1" font-family="InputSans" font-size="8.00" fill="#000000">algorithm</text>
</g>
<!-- Node6&#45;&gt;Node7 -->
<g id="edge8" class="edge">
<title>Node6&#45;&gt;Node7</title>
<path fill="none" stroke="#191970" d="M174.8533,-54.083C173.1306,-46.9272 170.6529,-36.6353 168.4997,-27.6911"/>
<polygon fill="#191970" stroke="#191970" points="171.8501,-26.6541 166.1067,-17.7511 165.0446,-28.2925 171.8501,-26.6541"/>
</g>
<!-- Node8 -->
<g id="node9" class="node">
<title>Node8</title>
<polygon fill="none" stroke="#bfbfbf" points="213.5,-.5 213.5,-17.5 258.5,-17.5 258.5,-.5 213.5,-.5"/>
<text text-anchor="middle" x="236" y="-7.1" font-family="InputSans" font-size="8.00" fill="#000000">cmath</text>
</g>
<!-- Node6&#45;&gt;Node8 -->
<g id="edge9" class="edge">
<title>Node6&#45;&gt;Node8</title>
<path fill="none" stroke="#191970" d="M186.4794,-54.324C195.2011,-46.3414 208.3435,-34.3128 218.8978,-24.6529"/>
<polygon fill="#191970" stroke="#191970" points="221.3345,-27.1674 226.3481,-17.8339 216.6083,-22.0036 221.3345,-27.1674"/>
</g>
<!-- Node9 -->
<g id="node10" class="node">
<title>Node9</title>
<polygon fill="none" stroke="#bfbfbf" points="0,-.5 0,-17.5 46,-17.5 46,-.5 0,-.5"/>
<text text-anchor="middle" x="23" y="-7.1" font-family="InputSans" font-size="8.00" fill="#000000">cfloat</text>
</g>
<!-- Node6&#45;&gt;Node9 -->
<g id="edge10" class="edge">
<title>Node6&#45;&gt;Node9</title>
<path fill="none" stroke="#191970" d="M152.5982,-54.4435C126.4999,-45.2922 84.9594,-30.726 55.9658,-20.5594"/>
<polygon fill="#191970" stroke="#191970" points="56.8744,-17.1691 46.2795,-17.1629 54.558,-23.7748 56.8744,-17.1691"/>
</g>
<!-- Node10 -->
<g id="node11" class="node">
<title>Node10</title>
<polygon fill="none" stroke="#bfbfbf" points="64,-.5 64,-17.5 114,-17.5 114,-.5 64,-.5"/>
<text text-anchor="middle" x="89" y="-7.1" font-family="InputSans" font-size="8.00" fill="#000000">cstdint</text>
</g>
<!-- Node6&#45;&gt;Node10 -->
<g id="edge11" class="edge">
<title>Node6&#45;&gt;Node10</title>
<path fill="none" stroke="#191970" d="M162.8613,-54.324C149.1337,-45.9002 128.0637,-32.9709 111.9357,-23.0741"/>
<polygon fill="#191970" stroke="#191970" points="113.4574,-19.9016 103.1036,-17.6545 109.7963,-25.8678 113.4574,-19.9016"/>
</g>
<!-- Node12 -->
<g id="node13" class="node">
<title>Node12</title>
<polygon fill="none" stroke="#bfbfbf" points="277,-.5 277,-17.5 323,-17.5 323,-.5 277,-.5"/>
<text text-anchor="middle" x="300" y="-7.1" font-family="InputSans" font-size="8.00" fill="#000000">string</text>
</g>
<!-- Node11&#45;&gt;Node12 -->
<g id="edge13" class="edge">
<title>Node11&#45;&gt;Node12</title>
<path fill="none" stroke="#191970" d="M289.1467,-54.083C290.8694,-46.9272 293.3471,-36.6353 295.5003,-27.6911"/>
<polygon fill="#191970" stroke="#191970" points="298.9554,-28.2925 297.8933,-17.7511 292.1499,-26.6541 298.9554,-28.2925"/>
</g>
<!-- Node13 -->
<g id="node14" class="node">
<title>Node13</title>
<polygon fill="none" stroke="#bfbfbf" points="341.5,-.5 341.5,-17.5 396.5,-17.5 396.5,-.5 341.5,-.5"/>
<text text-anchor="middle" x="369" y="-7.1" font-family="InputSans" font-size="8.00" fill="#000000">sstream</text>
</g>
<!-- Node11&#45;&gt;Node13 -->
<g id="edge14" class="edge">
<title>Node11&#45;&gt;Node13</title>
<path fill="none" stroke="#191970" d="M300.1747,-54.324C312.8468,-45.979 332.2334,-33.2122 347.2056,-23.3524"/>
<polygon fill="#191970" stroke="#191970" points="349.4312,-26.0776 355.858,-17.6545 345.5813,-20.2313 349.4312,-26.0776"/>
</g>
<!-- Node14&#45;&gt;Node2 -->
<g id="edge16" class="edge">
<title>Node14&#45;&gt;Node2</title>
<path fill="none" stroke="#191970" d="M423.7893,-108.324C412.2241,-100.1066 394.6246,-87.6017 380.8393,-77.8069"/>
<polygon fill="#191970" stroke="#191970" points="382.612,-74.7729 372.4329,-71.8339 378.5575,-80.4791 382.612,-74.7729"/>
</g>
<!-- Node15 -->
<g id="node16" class="node">
<title>Node15</title>
<polygon fill="none" stroke="#bfbfbf" points="407.5,-54.5 407.5,-71.5 464.5,-71.5 464.5,-54.5 407.5,-54.5"/>
<text text-anchor="middle" x="436" y="-61.1" font-family="InputSans" font-size="8.00" fill="#000000">Python.h</text>
</g>
<!-- Node14&#45;&gt;Node15 -->
<g id="edge17" class="edge">
<title>Node14&#45;&gt;Node15</title>
<path fill="none" stroke="#191970" d="M436,-108.083C436,-101.0059 436,-90.8611 436,-81.9865"/>
<polygon fill="#191970" stroke="#191970" points="439.5001,-81.751 436,-71.7511 432.5001,-81.7511 439.5001,-81.751"/>
</g>
</g>
</svg>
