<?xml version="1.0" encoding="UTF-8" standalone="no"?>
<!DOCTYPE svg PUBLIC "-//W3C//DTD SVG 1.1//EN"
 "http://www.w3.org/Graphics/SVG/1.1/DTD/svg11.dtd">
<!-- Generated by graphviz version 2.40.1 (20161225.0304)
 -->
<!-- Title: /home/jacques/repos/math4171/src/assignment1&#45;src/Main.cpp Pages: 1 -->
<svg width="1132pt" height="260pt"
 viewBox="0.00 0.00 1131.50 260.00" xmlns="http://www.w3.org/2000/svg" xmlns:xlink="http://www.w3.org/1999/xlink">
<g id="graph0" class="graph" transform="scale(1 1) rotate(0) translate(4 256)">
<title>/home/jacques/repos/math4171/src/assignment1&#45;src/Main.cpp</title>
<!-- Node0 -->
<g id="node1" class="node">
<title>Node0</title>
<polygon fill="#bfbfbf" stroke="#000000" points="432.5,-216.5 432.5,-251.5 567.5,-251.5 567.5,-216.5 432.5,-216.5"/>
<text text-anchor="start" x="440.5" y="-241.1" font-family="InputSans" font-size="8.00" fill="#000000">/home/jacques/repos</text>
<text text-anchor="start" x="440.5" y="-232.1" font-family="InputSans" font-size="8.00" fill="#000000">/math4171/src/assignment1</text>
<text text-anchor="middle" x="500" y="-223.1" font-family="InputSans" font-size="8.00" fill="#000000">&#45;src/Main.cpp</text>
</g>
<!-- Node1 -->
<g id="node2" class="node">
<title>Node1</title>
<polygon fill="none" stroke="#bfbfbf" points="0,-162.5 0,-179.5 44,-179.5 44,-162.5 0,-162.5"/>
<text text-anchor="middle" x="22" y="-169.1" font-family="InputSans" font-size="8.00" fill="#000000">cstdlib</text>
</g>
<!-- Node0&#45;&gt;Node1 -->
<g id="edge1" class="edge">
<title>Node0&#45;&gt;Node1</title>
<path fill="none" stroke="#191970" d="M432.2107,-228.3382C345.1227,-220.4659 189.5007,-204.3742 58,-180 56.7529,-179.7688 55.4847,-179.52 54.206,-179.2576"/>
<polygon fill="#191970" stroke="#191970" points="54.899,-175.8261 44.3748,-177.0477 53.3637,-182.6557 54.899,-175.8261"/>
</g>
<!-- Node2 -->
<g id="node3" class="node">
<title>Node2</title>
<polygon fill="none" stroke="#bfbfbf" points="714,-54.5 714,-71.5 768,-71.5 768,-54.5 714,-54.5"/>
<text text-anchor="middle" x="741" y="-61.1" font-family="InputSans" font-size="8.00" fill="#000000">iostream</text>
</g>
<!-- Node0&#45;&gt;Node2 -->
<g id="edge2" class="edge">
<title>Node0&#45;&gt;Node2</title>
<path fill="none" stroke="#191970" d="M567.6176,-226.7142C627.2794,-218.8015 707.9406,-203.9766 729,-180 752.9454,-152.7376 749.4295,-106.9475 745.0388,-81.4882"/>
<polygon fill="#191970" stroke="#191970" points="748.469,-80.7916 743.1183,-71.6472 741.5986,-82.1324 748.469,-80.7916"/>
</g>
<!-- Node3 -->
<g id="node4" class="node">
<title>Node3</title>
<polygon fill="none" stroke="#bfbfbf" points="439.5,-108.5 439.5,-125.5 492.5,-125.5 492.5,-108.5 439.5,-108.5"/>
<text text-anchor="middle" x="466" y="-115.1" font-family="InputSans" font-size="8.00" fill="#000000">memory</text>
</g>
<!-- Node0&#45;&gt;Node3 -->
<g id="edge3" class="edge">
<title>Node0&#45;&gt;Node3</title>
<path fill="none" stroke="#191970" d="M434.577,-216.4889C416.7327,-208.3898 399.4562,-196.7147 389,-180 375.3347,-158.1554 403.7433,-140.3765 429.8306,-129.3429"/>
<polygon fill="#191970" stroke="#191970" points="431.2602,-132.5409 439.2544,-125.588 428.6692,-126.0381 431.2602,-132.5409"/>
</g>
<!-- Node4 -->
<g id="node5" class="node">
<title>Node4</title>
<polygon fill="none" stroke="#bfbfbf" points="128.5,-.5 128.5,-17.5 169.5,-17.5 169.5,-.5 128.5,-.5"/>
<text text-anchor="middle" x="149" y="-7.1" font-family="InputSans" font-size="8.00" fill="#000000">string</text>
</g>
<!-- Node0&#45;&gt;Node4 -->
<g id="edge4" class="edge">
<title>Node0&#45;&gt;Node4</title>
<path fill="none" stroke="#191970" d="M432.1324,-229.8631C321.6913,-222.4324 113.1023,-205.2122 91,-180 50.5937,-133.9083 105.7451,-58.4701 134.0557,-25.4018"/>
<polygon fill="#191970" stroke="#191970" points="136.9388,-27.4234 140.9149,-17.6029 131.6825,-22.8004 136.9388,-27.4234"/>
</g>
<!-- Node5 -->
<g id="node6" class="node">
<title>Node5</title>
<polygon fill="none" stroke="#bfbfbf" points="669,-108.5 669,-125.5 713,-125.5 713,-108.5 669,-108.5"/>
<text text-anchor="middle" x="691" y="-115.1" font-family="InputSans" font-size="8.00" fill="#000000">vector</text>
</g>
<!-- Node0&#45;&gt;Node5 -->
<g id="edge5" class="edge">
<title>Node0&#45;&gt;Node5</title>
<path fill="none" stroke="#191970" d="M567.5366,-225.9149C622.97,-217.7258 695.1365,-202.9574 713,-180 723.6218,-166.3493 714.3721,-147.1935 704.816,-133.5964"/>
<polygon fill="#191970" stroke="#191970" points="707.5463,-131.4048 698.6978,-125.5776 701.9811,-135.6509 707.5463,-131.4048"/>
</g>
<!-- Node6 -->
<g id="node7" class="node">
<title>Node6</title>
<g id="a_node7"><a xlink:href="_vec_8hpp.html" target="_top" xlink:title="Vec.hpp">
<polygon fill="none" stroke="#000000" points="883,-108.5 883,-125.5 933,-125.5 933,-108.5 883,-108.5"/>
<text text-anchor="middle" x="908" y="-115.1" font-family="InputSans" font-size="8.00" fill="#000000">Vec.hpp</text>
</a>
</g>
</g>
<!-- Node0&#45;&gt;Node6 -->
<g id="edge6" class="edge">
<title>Node0&#45;&gt;Node6</title>
<path fill="none" stroke="#191970" d="M567.6489,-228.4359C672.0334,-219.2779 862.9115,-200.0372 887,-180 899.8687,-169.2956 904.8953,-150.4692 906.8358,-136.1765"/>
<polygon fill="#191970" stroke="#191970" points="910.3479,-136.2169 907.8212,-125.9278 903.3801,-135.5468 910.3479,-136.2169"/>
</g>
<!-- Node15 -->
<g id="node16" class="node">
<title>Node15</title>
<polygon fill="none" stroke="#bfbfbf" points="398,-162.5 398,-179.5 496,-179.5 496,-162.5 398,-162.5"/>
<text text-anchor="middle" x="447" y="-169.1" font-family="InputSans" font-size="8.00" fill="#000000">PythonContext.hpp</text>
</g>
<!-- Node0&#45;&gt;Node15 -->
<g id="edge17" class="edge">
<title>Node0&#45;&gt;Node15</title>
<path fill="none" stroke="#191970" d="M485.2365,-216.451C477.6232,-207.4012 468.3903,-196.4262 460.9046,-187.5281"/>
<polygon fill="#191970" stroke="#191970" points="463.4889,-185.1631 454.3729,-179.764 458.1323,-189.6695 463.4889,-185.1631"/>
</g>
<!-- Node16 -->
<g id="node17" class="node">
<title>Node16</title>
<g id="a_node17"><a xlink:href="_python_float_8hpp.html" target="_top" xlink:title="PythonFloat.hpp">
<polygon fill="none" stroke="#000000" points="256.5,-162.5 256.5,-179.5 341.5,-179.5 341.5,-162.5 256.5,-162.5"/>
<text text-anchor="middle" x="299" y="-169.1" font-family="InputSans" font-size="8.00" fill="#000000">PythonFloat.hpp</text>
</a>
</g>
</g>
<!-- Node0&#45;&gt;Node16 -->
<g id="edge18" class="edge">
<title>Node0&#45;&gt;Node16</title>
<path fill="none" stroke="#191970" d="M444.0103,-216.451C409.4661,-205.6237 366.1298,-192.0407 335.8685,-182.5558"/>
<polygon fill="#191970" stroke="#191970" points="336.7279,-179.1573 326.1388,-179.5062 334.6342,-185.8369 336.7279,-179.1573"/>
</g>
<!-- Node18 -->
<g id="node19" class="node">
<title>Node18</title>
<g id="a_node19"><a xlink:href="_python_object_8hpp.html" target="_top" xlink:title="PythonObject.hpp">
<polygon fill="none" stroke="#000000" points="253,-108.5 253,-125.5 345,-125.5 345,-108.5 253,-108.5"/>
<text text-anchor="middle" x="299" y="-115.1" font-family="InputSans" font-size="8.00" fill="#000000">PythonObject.hpp</text>
</a>
</g>
</g>
<!-- Node0&#45;&gt;Node18 -->
<g id="edge36" class="edge">
<title>Node0&#45;&gt;Node18</title>
<path fill="none" stroke="#191970" d="M432.2817,-228.9745C365.4127,-222.4374 269.9177,-208.3255 247,-180 233.2306,-162.9815 254.9717,-143.5813 274.4062,-130.859"/>
<polygon fill="#191970" stroke="#191970" points="276.3768,-133.7555 283.0374,-125.5161 272.6924,-127.8036 276.3768,-133.7555"/>
</g>
<!-- Node19 -->
<g id="node20" class="node">
<title>Node19</title>
<g id="a_node20"><a xlink:href="_python_function_8hpp.html" target="_top" xlink:title="PythonFunction.hpp">
<polygon fill="none" stroke="#000000" points="100.5,-162.5 100.5,-179.5 199.5,-179.5 199.5,-162.5 100.5,-162.5"/>
<text text-anchor="middle" x="150" y="-169.1" font-family="InputSans" font-size="8.00" fill="#000000">PythonFunction.hpp</text>
</a>
</g>
</g>
<!-- Node0&#45;&gt;Node19 -->
<g id="edge24" class="edge">
<title>Node0&#45;&gt;Node19</title>
<path fill="none" stroke="#191970" d="M432.1015,-221.7783C366.6639,-209.9995 268.7631,-192.3774 207.1899,-181.2942"/>
<polygon fill="#191970" stroke="#191970" points="207.7181,-177.8331 197.2562,-179.5061 206.478,-184.7224 207.7181,-177.8331"/>
</g>
<!-- Node20 -->
<g id="node21" class="node">
<title>Node20</title>
<g id="a_node21"><a xlink:href="_python_list_8hpp.html" target="_top" xlink:title="PythonList.hpp">
<polygon fill="none" stroke="#000000" points="514.5,-162.5 514.5,-179.5 593.5,-179.5 593.5,-162.5 514.5,-162.5"/>
<text text-anchor="middle" x="554" y="-169.1" font-family="InputSans" font-size="8.00" fill="#000000">PythonList.hpp</text>
</a>
</g>
</g>
<!-- Node0&#45;&gt;Node20 -->
<g id="edge30" class="edge">
<title>Node0&#45;&gt;Node20</title>
<path fill="none" stroke="#191970" d="M515.042,-216.451C522.799,-207.4012 532.2061,-196.4262 539.8331,-187.5281"/>
<polygon fill="#191970" stroke="#191970" points="542.6374,-189.6344 546.488,-179.764 537.3226,-185.0788 542.6374,-189.6344"/>
</g>
<!-- Node21 -->
<g id="node22" class="node">
<title>Node21</title>
<g id="a_node22"><a xlink:href="_python_tupple_8hpp.html" target="_top" xlink:title="PythonTupple.hpp">
<polygon fill="none" stroke="#000000" points="612,-162.5 612,-179.5 704,-179.5 704,-162.5 612,-162.5"/>
<text text-anchor="middle" x="658" y="-169.1" font-family="InputSans" font-size="8.00" fill="#000000">PythonTupple.hpp</text>
</a>
</g>
</g>
<!-- Node0&#45;&gt;Node21 -->
<g id="edge37" class="edge">
<title>Node0&#45;&gt;Node21</title>
<path fill="none" stroke="#191970" d="M544.0118,-216.451C570.3777,-205.938 603.2594,-192.827 626.9217,-183.392"/>
<polygon fill="#191970" stroke="#191970" points="628.4598,-186.5467 636.4523,-179.5918 625.8672,-180.0445 628.4598,-186.5467"/>
</g>
<!-- Node22 -->
<g id="node23" class="node">
<title>Node22</title>
<g id="a_node23"><a xlink:href="_surf_plot3d_8hpp.html" target="_top" xlink:title="SurfPlot3d.hpp">
<polygon fill="none" stroke="#000000" points="798.5,-162.5 798.5,-179.5 877.5,-179.5 877.5,-162.5 798.5,-162.5"/>
<text text-anchor="middle" x="838" y="-169.1" font-family="InputSans" font-size="8.00" fill="#000000">SurfPlot3d.hpp</text>
</a>
</g>
</g>
<!-- Node0&#45;&gt;Node22 -->
<g id="edge43" class="edge">
<title>Node0&#45;&gt;Node22</title>
<path fill="none" stroke="#191970" d="M567.587,-221.4024C632.6494,-209.2754 729.5339,-191.217 787.9519,-180.3285"/>
<polygon fill="#191970" stroke="#191970" points="788.8538,-183.7208 798.0431,-178.4476 787.5711,-176.8393 788.8538,-183.7208"/>
</g>
<!-- Node24 -->
<g id="node25" class="node">
<title>Node24</title>
<g id="a_node25"><a xlink:href="_min_nelder_mead_8hpp.html" target="_top" xlink:title="MinNelderMead.hpp">
<polygon fill="none" stroke="#000000" points="934,-162.5 934,-179.5 1034,-179.5 1034,-162.5 934,-162.5"/>
<text text-anchor="middle" x="984" y="-169.1" font-family="InputSans" font-size="8.00" fill="#000000">MinNelderMead.hpp</text>
</a>
</g>
</g>
<!-- Node0&#45;&gt;Node24 -->
<g id="edge47" class="edge">
<title>Node0&#45;&gt;Node24</title>
<path fill="none" stroke="#191970" d="M567.683,-225.5482C650.7186,-215.1216 795.7739,-196.72 920,-180 921.251,-179.8316 922.5157,-179.6607 923.7904,-179.4877"/>
<polygon fill="#191970" stroke="#191970" points="924.2664,-182.9552 933.6991,-178.1309 923.3167,-176.0199 924.2664,-182.9552"/>
</g>
<!-- Node6&#45;&gt;Node2 -->
<g id="edge8" class="edge">
<title>Node6&#45;&gt;Node2</title>
<path fill="none" stroke="#191970" d="M882.9984,-108.9157C855.0005,-99.8625 809.369,-85.1073 777.4106,-74.7735"/>
<polygon fill="#191970" stroke="#191970" points="778.1464,-71.3331 767.5546,-71.5865 775.9927,-77.9935 778.1464,-71.3331"/>
</g>
<!-- Node7 -->
<g id="node8" class="node">
<title>Node7</title>
<polygon fill="none" stroke="#bfbfbf" points="534.5,-54.5 534.5,-71.5 581.5,-71.5 581.5,-54.5 534.5,-54.5"/>
<text text-anchor="middle" x="558" y="-61.1" font-family="InputSans" font-size="8.00" fill="#000000">cassert</text>
</g>
<!-- Node6&#45;&gt;Node7 -->
<g id="edge7" class="edge">
<title>Node6&#45;&gt;Node7</title>
<path fill="none" stroke="#191970" d="M882.8265,-109.9844C879.863,-109.2631 876.8724,-108.5826 874,-108 772.0024,-87.3121 649.5852,-72.759 591.6067,-66.474"/>
<polygon fill="#191970" stroke="#191970" points="591.866,-62.9818 581.5501,-65.397 591.1206,-69.942 591.866,-62.9818"/>
</g>
<!-- Node8 -->
<g id="node9" class="node">
<title>Node8</title>
<g id="a_node9"><a xlink:href="_core_math_8hpp.html" target="_top" xlink:title="CoreMath.hpp">
<polygon fill="none" stroke="#000000" points="958,-54.5 958,-71.5 1034,-71.5 1034,-54.5 958,-54.5"/>
<text text-anchor="middle" x="996" y="-61.1" font-family="InputSans" font-size="8.00" fill="#000000">CoreMath.hpp</text>
</a>
</g>
</g>
<!-- Node6&#45;&gt;Node8 -->
<g id="edge9" class="edge">
<title>Node6&#45;&gt;Node8</title>
<path fill="none" stroke="#191970" d="M922.1387,-108.324C935.8663,-99.9002 956.9363,-86.9709 973.0643,-77.0741"/>
<polygon fill="#191970" stroke="#191970" points="975.2037,-79.8678 981.8964,-71.6545 971.5426,-73.9016 975.2037,-79.8678"/>
</g>
<!-- Node13 -->
<g id="node14" class="node">
<title>Node13</title>
<g id="a_node14"><a xlink:href="_vec_8inl.html" target="_top" xlink:title="Vec.inl">
<polygon fill="none" stroke="#000000" points="803,-54.5 803,-71.5 847,-71.5 847,-54.5 803,-54.5"/>
<text text-anchor="middle" x="825" y="-61.1" font-family="InputSans" font-size="8.00" fill="#000000">Vec.inl</text>
</a>
</g>
</g>
<!-- Node6&#45;&gt;Node13 -->
<g id="edge14" class="edge">
<title>Node6&#45;&gt;Node13</title>
<path fill="none" stroke="#191970" d="M894.6646,-108.324C881.838,-99.979 862.215,-87.2122 847.0602,-77.3524"/>
<polygon fill="#191970" stroke="#191970" points="848.5932,-74.1742 838.3023,-71.6545 844.7757,-80.0417 848.5932,-74.1742"/>
</g>
<!-- Node9 -->
<g id="node10" class="node">
<title>Node9</title>
<polygon fill="none" stroke="#bfbfbf" points="1066.5,-.5 1066.5,-17.5 1123.5,-17.5 1123.5,-.5 1066.5,-.5"/>
<text text-anchor="middle" x="1095" y="-7.1" font-family="InputSans" font-size="8.00" fill="#000000">algorithm</text>
</g>
<!-- Node8&#45;&gt;Node9 -->
<g id="edge10" class="edge">
<title>Node8&#45;&gt;Node9</title>
<path fill="none" stroke="#191970" d="M1011.9061,-54.324C1027.6382,-45.7428 1051.9423,-32.486 1070.2089,-22.5224"/>
<polygon fill="#191970" stroke="#191970" points="1072.0304,-25.5157 1079.1334,-17.6545 1068.6784,-19.3704 1072.0304,-25.5157"/>
</g>
<!-- Node10 -->
<g id="node11" class="node">
<title>Node10</title>
<polygon fill="none" stroke="#bfbfbf" points="884.5,-.5 884.5,-17.5 927.5,-17.5 927.5,-.5 884.5,-.5"/>
<text text-anchor="middle" x="906" y="-7.1" font-family="InputSans" font-size="8.00" fill="#000000">cmath</text>
</g>
<!-- Node8&#45;&gt;Node10 -->
<g id="edge11" class="edge">
<title>Node8&#45;&gt;Node10</title>
<path fill="none" stroke="#191970" d="M981.5399,-54.324C967.5004,-45.9002 945.9515,-32.9709 929.4569,-23.0741"/>
<polygon fill="#191970" stroke="#191970" points="930.7999,-19.7983 920.4242,-17.6545 927.1984,-25.8007 930.7999,-19.7983"/>
</g>
<!-- Node11 -->
<g id="node12" class="node">
<title>Node11</title>
<polygon fill="none" stroke="#bfbfbf" points="946,-.5 946,-17.5 986,-17.5 986,-.5 946,-.5"/>
<text text-anchor="middle" x="966" y="-7.1" font-family="InputSans" font-size="8.00" fill="#000000">cfloat</text>
</g>
<!-- Node8&#45;&gt;Node11 -->
<g id="edge12" class="edge">
<title>Node8&#45;&gt;Node11</title>
<path fill="none" stroke="#191970" d="M991.0461,-54.083C986.8959,-46.6127 980.8469,-35.7244 975.7333,-26.5199"/>
<polygon fill="#191970" stroke="#191970" points="978.7777,-24.7929 970.8617,-17.7511 972.6586,-28.1924 978.7777,-24.7929"/>
</g>
<!-- Node12 -->
<g id="node13" class="node">
<title>Node12</title>
<polygon fill="none" stroke="#bfbfbf" points="1004,-.5 1004,-17.5 1048,-17.5 1048,-.5 1004,-.5"/>
<text text-anchor="middle" x="1026" y="-7.1" font-family="InputSans" font-size="8.00" fill="#000000">cstdint</text>
</g>
<!-- Node8&#45;&gt;Node12 -->
<g id="edge13" class="edge">
<title>Node8&#45;&gt;Node12</title>
<path fill="none" stroke="#191970" d="M1000.9539,-54.083C1005.1041,-46.6127 1011.1531,-35.7244 1016.2667,-26.5199"/>
<polygon fill="#191970" stroke="#191970" points="1019.3414,-28.1924 1021.1383,-17.7511 1013.2223,-24.7929 1019.3414,-28.1924"/>
</g>
<!-- Node13&#45;&gt;Node4 -->
<g id="edge15" class="edge">
<title>Node13&#45;&gt;Node4</title>
<path fill="none" stroke="#191970" d="M802.618,-58.2568C794.5723,-56.6969 785.4087,-55.086 777,-54 548.8627,-24.5356 271.4236,-13.1041 179.9082,-9.9687"/>
<polygon fill="#191970" stroke="#191970" points="179.7967,-6.4631 169.6853,-9.6268 179.5627,-13.4592 179.7967,-6.4631"/>
</g>
<!-- Node14 -->
<g id="node15" class="node">
<title>Node14</title>
<polygon fill="none" stroke="#bfbfbf" points="799.5,-.5 799.5,-17.5 850.5,-17.5 850.5,-.5 799.5,-.5"/>
<text text-anchor="middle" x="825" y="-7.1" font-family="InputSans" font-size="8.00" fill="#000000">sstream</text>
</g>
<!-- Node13&#45;&gt;Node14 -->
<g id="edge16" class="edge">
<title>Node13&#45;&gt;Node14</title>
<path fill="none" stroke="#191970" d="M825,-54.083C825,-47.0059 825,-36.8611 825,-27.9865"/>
<polygon fill="#191970" stroke="#191970" points="828.5001,-27.751 825,-17.7511 821.5001,-27.7511 828.5001,-27.751"/>
</g>
<!-- Node16&#45;&gt;Node3 -->
<g id="edge20" class="edge">
<title>Node16&#45;&gt;Node3</title>
<path fill="none" stroke="#191970" d="M325.4616,-162.4435C353.6783,-153.3196 398.5405,-138.8133 429.9685,-128.6509"/>
<polygon fill="#191970" stroke="#191970" points="431.2241,-131.9234 439.6622,-125.5164 429.0704,-125.263 431.2241,-131.9234"/>
</g>
<!-- Node16&#45;&gt;Node7 -->
<g id="edge19" class="edge">
<title>Node16&#45;&gt;Node7</title>
<path fill="none" stroke="#191970" d="M315.4177,-162.4776C340.1358,-149.8045 388.5411,-125.5978 431,-108 462.2862,-95.0329 498.8053,-82.3398 524.6314,-73.7582"/>
<polygon fill="#191970" stroke="#191970" points="525.9118,-77.0215 534.3137,-70.5671 523.7206,-70.3732 525.9118,-77.0215"/>
</g>
<!-- Node17 -->
<g id="node18" class="node">
<title>Node17</title>
<polygon fill="none" stroke="#bfbfbf" points="346,-54.5 346,-71.5 400,-71.5 400,-54.5 346,-54.5"/>
<text text-anchor="middle" x="373" y="-61.1" font-family="InputSans" font-size="8.00" fill="#000000">Python.h</text>
</g>
<!-- Node16&#45;&gt;Node17 -->
<g id="edge21" class="edge">
<title>Node16&#45;&gt;Node17</title>
<path fill="none" stroke="#191970" d="M313.6983,-162.4743C326.1461,-154.5336 343.5824,-141.593 354,-126 362.9245,-112.6418 367.7775,-94.9492 370.3391,-81.7149"/>
<polygon fill="#191970" stroke="#191970" points="373.7931,-82.2802 371.991,-71.8398 366.889,-81.1253 373.7931,-82.2802"/>
</g>
<!-- Node16&#45;&gt;Node18 -->
<g id="edge22" class="edge">
<title>Node16&#45;&gt;Node18</title>
<path fill="none" stroke="#191970" d="M299,-162.083C299,-155.0059 299,-144.8611 299,-135.9865"/>
<polygon fill="#191970" stroke="#191970" points="302.5001,-135.751 299,-125.7511 295.5001,-135.7511 302.5001,-135.751"/>
</g>
<!-- Node18&#45;&gt;Node17 -->
<g id="edge23" class="edge">
<title>Node18&#45;&gt;Node17</title>
<path fill="none" stroke="#191970" d="M310.8894,-108.324C322.1502,-100.1066 339.2866,-87.6017 352.7091,-77.8069"/>
<polygon fill="#191970" stroke="#191970" points="354.8795,-80.5559 360.8943,-71.8339 350.7532,-74.9014 354.8795,-80.5559"/>
</g>
<!-- Node19&#45;&gt;Node2 -->
<g id="edge26" class="edge">
<title>Node19&#45;&gt;Node2</title>
<path fill="none" stroke="#191970" d="M161.3542,-162.3368C182.2361,-146.5856 226.2221,-114.2962 244,-108 286.9755,-92.7798 595.282,-72.1659 703.5395,-65.3177"/>
<polygon fill="#191970" stroke="#191970" points="703.9112,-68.8013 713.6716,-64.6801 703.4715,-61.8152 703.9112,-68.8013"/>
</g>
<!-- Node19&#45;&gt;Node3 -->
<g id="edge27" class="edge">
<title>Node19&#45;&gt;Node3</title>
<path fill="none" stroke="#191970" d="M199.7226,-162.5031C263.5362,-151.5983 372.7534,-132.9345 429.4438,-123.2469"/>
<polygon fill="#191970" stroke="#191970" points="430.1276,-126.6809 439.3951,-121.5464 428.9484,-119.7809 430.1276,-126.6809"/>
</g>
<!-- Node19&#45;&gt;Node4 -->
<g id="edge28" class="edge">
<title>Node19&#45;&gt;Node4</title>
<path fill="none" stroke="#191970" d="M149.9462,-162.2902C149.7902,-137.0185 149.3348,-63.2423 149.1177,-28.0737"/>
<polygon fill="#191970" stroke="#191970" points="152.6158,-27.7311 149.054,-17.7529 145.6159,-27.7743 152.6158,-27.7311"/>
</g>
<!-- Node19&#45;&gt;Node17 -->
<g id="edge25" class="edge">
<title>Node19&#45;&gt;Node17</title>
<path fill="none" stroke="#191970" d="M156.0469,-162.2493C165.9418,-148.5964 186.919,-122.3119 211,-108 249.9996,-84.8216 301.3563,-73.2006 335.6908,-67.647"/>
<polygon fill="#191970" stroke="#191970" points="336.4084,-71.0781 345.7673,-66.1121 335.3542,-64.1579 336.4084,-71.0781"/>
</g>
<!-- Node19&#45;&gt;Node18 -->
<g id="edge29" class="edge">
<title>Node19&#45;&gt;Node18</title>
<path fill="none" stroke="#191970" d="M173.6095,-162.4435C198.4578,-153.4381 237.7744,-139.1891 265.7536,-129.049"/>
<polygon fill="#191970" stroke="#191970" points="267.2919,-132.2144 275.501,-125.5164 264.9068,-125.6332 267.2919,-132.2144"/>
</g>
<!-- Node20&#45;&gt;Node2 -->
<g id="edge32" class="edge">
<title>Node20&#45;&gt;Node2</title>
<path fill="none" stroke="#191970" d="M565.9745,-162.3213C583.681,-149.6601 618.0906,-125.7075 649,-108 669.6629,-96.1626 693.886,-84.3945 712.2888,-75.8631"/>
<polygon fill="#191970" stroke="#191970" points="713.9626,-78.946 721.5925,-71.5952 711.0439,-72.5835 713.9626,-78.946"/>
</g>
<!-- Node20&#45;&gt;Node3 -->
<g id="edge33" class="edge">
<title>Node20&#45;&gt;Node3</title>
<path fill="none" stroke="#191970" d="M539.8613,-162.324C526.1337,-153.9002 505.0637,-140.9709 488.9357,-131.0741"/>
<polygon fill="#191970" stroke="#191970" points="490.4574,-127.9016 480.1036,-125.6545 486.7963,-133.8678 490.4574,-127.9016"/>
</g>
<!-- Node20&#45;&gt;Node5 -->
<g id="edge34" class="edge">
<title>Node20&#45;&gt;Node5</title>
<path fill="none" stroke="#191970" d="M575.7081,-162.4435C598.3548,-153.5171 634.0721,-139.4387 659.7518,-129.3168"/>
<polygon fill="#191970" stroke="#191970" points="661.3736,-132.4397 669.3935,-125.5164 658.8066,-125.9273 661.3736,-132.4397"/>
</g>
<!-- Node20&#45;&gt;Node17 -->
<g id="edge31" class="edge">
<title>Node20&#45;&gt;Node17</title>
<path fill="none" stroke="#191970" d="M549.0559,-162.3913C540.9095,-148.933 523.4155,-122.9104 502,-108 474.21,-88.6515 437.2975,-76.8884 410.0794,-70.2677"/>
<polygon fill="#191970" stroke="#191970" points="410.6928,-66.8173 400.1616,-67.9769 409.1174,-73.6377 410.6928,-66.8173"/>
</g>
<!-- Node20&#45;&gt;Node18 -->
<g id="edge35" class="edge">
<title>Node20&#45;&gt;Node18</title>
<path fill="none" stroke="#191970" d="M514.436,-162.6217C470.0312,-153.2184 397.8811,-137.9395 349.4551,-127.6846"/>
<polygon fill="#191970" stroke="#191970" points="350.0083,-124.2242 339.5002,-125.5765 348.5581,-131.0724 350.0083,-124.2242"/>
</g>
<!-- Node21&#45;&gt;Node2 -->
<g id="edge39" class="edge">
<title>Node21&#45;&gt;Node2</title>
<path fill="none" stroke="#191970" d="M655.7121,-162.0855C652.921,-149.1307 649.7428,-124.816 660,-108 669.8738,-91.8125 687.8263,-80.9917 704.3252,-74.0273"/>
<polygon fill="#191970" stroke="#191970" points="705.7365,-77.2341 713.7994,-70.361 703.2102,-70.7059 705.7365,-77.2341"/>
</g>
<!-- Node21&#45;&gt;Node3 -->
<g id="edge40" class="edge">
<title>Node21&#45;&gt;Node3</title>
<path fill="none" stroke="#191970" d="M627.577,-162.4435C593.5552,-152.8749 538.485,-137.3864 502.2563,-127.1971"/>
<polygon fill="#191970" stroke="#191970" points="503.1449,-123.8113 492.5707,-124.473 501.2496,-130.5498 503.1449,-123.8113"/>
</g>
<!-- Node21&#45;&gt;Node5 -->
<g id="edge41" class="edge">
<title>Node21&#45;&gt;Node5</title>
<path fill="none" stroke="#191970" d="M663.4493,-162.083C668.0145,-154.6127 674.6684,-143.7244 680.2934,-134.5199"/>
<polygon fill="#191970" stroke="#191970" points="683.4241,-136.109 685.6521,-125.7511 677.4511,-132.4588 683.4241,-136.109"/>
</g>
<!-- Node21&#45;&gt;Node17 -->
<g id="edge38" class="edge">
<title>Node21&#45;&gt;Node17</title>
<path fill="none" stroke="#191970" d="M641.9735,-162.4129C617.3337,-149.4407 568.4356,-124.6028 525,-108 486.5448,-93.3009 441.131,-80.4151 410.0214,-72.2423"/>
<polygon fill="#191970" stroke="#191970" points="410.6087,-68.7789 400.0502,-69.6556 408.8509,-75.5546 410.6087,-68.7789"/>
</g>
<!-- Node21&#45;&gt;Node18 -->
<g id="edge42" class="edge">
<title>Node21&#45;&gt;Node18</title>
<path fill="none" stroke="#191970" d="M611.7947,-163.3867C608.8192,-162.9127 605.8681,-162.4469 603,-162 516.663,-148.5468 416.3736,-133.8894 355.3195,-125.0747"/>
<polygon fill="#191970" stroke="#191970" points="355.5248,-121.5682 345.1276,-123.6049 354.5256,-128.4965 355.5248,-121.5682"/>
</g>
<!-- Node22&#45;&gt;Node2 -->
<g id="edge44" class="edge">
<title>Node22&#45;&gt;Node2</title>
<path fill="none" stroke="#191970" d="M830.0621,-162.1619C813.7817,-144.0353 776.3986,-102.4128 755.6134,-79.2706"/>
<polygon fill="#191970" stroke="#191970" points="758.0625,-76.7595 748.7765,-71.6584 752.8546,-81.4369 758.0625,-76.7595"/>
</g>
<!-- Node22&#45;&gt;Node6 -->
<g id="edge46" class="edge">
<title>Node22&#45;&gt;Node6</title>
<path fill="none" stroke="#191970" d="M849.2467,-162.324C859.7974,-154.1849 875.8007,-141.8395 888.4422,-132.0874"/>
<polygon fill="#191970" stroke="#191970" points="890.7686,-134.7132 896.5487,-125.8339 886.493,-129.1707 890.7686,-134.7132"/>
</g>
<!-- Node23 -->
<g id="node24" class="node">
<title>Node23</title>
<polygon fill="none" stroke="#bfbfbf" points="807,-108.5 807,-125.5 865,-125.5 865,-108.5 807,-108.5"/>
<text text-anchor="middle" x="836" y="-115.1" font-family="InputSans" font-size="8.00" fill="#000000">functional</text>
</g>
<!-- Node22&#45;&gt;Node23 -->
<g id="edge45" class="edge">
<title>Node22&#45;&gt;Node23</title>
<path fill="none" stroke="#191970" d="M837.6697,-162.083C837.4076,-155.0059 837.0319,-144.8611 836.7032,-135.9865"/>
<polygon fill="#191970" stroke="#191970" points="840.1919,-135.6147 836.3241,-125.7511 833.1967,-135.8738 840.1919,-135.6147"/>
</g>
<!-- Node24&#45;&gt;Node2 -->
<g id="edge51" class="edge">
<title>Node24&#45;&gt;Node2</title>
<path fill="none" stroke="#191970" d="M990.5521,-162.1907C999.5567,-148.9284 1013.2214,-123.7166 1000,-108 999.5526,-107.4682 849.6431,-81.6595 778.1267,-69.373"/>
<polygon fill="#191970" stroke="#191970" points="778.6192,-65.9064 768.171,-67.663 777.4342,-72.8054 778.6192,-65.9064"/>
</g>
<!-- Node24&#45;&gt;Node6 -->
<g id="edge53" class="edge">
<title>Node24&#45;&gt;Node6</title>
<path fill="none" stroke="#191970" d="M971.7893,-162.324C960.2241,-154.1066 942.6246,-141.6017 928.8393,-131.8069"/>
<polygon fill="#191970" stroke="#191970" points="930.612,-128.7729 920.4329,-125.8339 926.5575,-134.4791 930.612,-128.7729"/>
</g>
<!-- Node24&#45;&gt;Node8 -->
<g id="edge52" class="edge">
<title>Node24&#45;&gt;Node8</title>
<path fill="none" stroke="#191970" d="M998.6614,-162.402C1010.4061,-154.585 1026.0312,-141.8617 1033,-126 1040.4364,-109.0742 1027.4119,-91.0003 1014.8142,-78.572"/>
<polygon fill="#191970" stroke="#191970" points="1016.955,-75.787 1007.2123,-71.6239 1012.2324,-80.9539 1016.955,-75.787"/>
</g>
<!-- Node24&#45;&gt;Node9 -->
<g id="edge48" class="edge">
<title>Node24&#45;&gt;Node9</title>
<path fill="none" stroke="#191970" d="M1001.3239,-162.4577C1015.5501,-154.6747 1035.3483,-141.97 1048,-126 1071.8113,-95.9435 1085.0424,-52.2386 1091.0237,-27.6366"/>
<polygon fill="#191970" stroke="#191970" points="1094.4569,-28.3234 1093.2737,-17.7949 1087.633,-26.7633 1094.4569,-28.3234"/>
</g>
<!-- Node24&#45;&gt;Node23 -->
<g id="edge50" class="edge">
<title>Node24&#45;&gt;Node23</title>
<path fill="none" stroke="#191970" d="M960.549,-162.4435C935.8674,-153.4381 896.8147,-139.1891 869.0233,-129.049"/>
<polygon fill="#191970" stroke="#191970" points="869.9352,-125.6561 859.3413,-125.5164 867.5359,-132.2321 869.9352,-125.6561"/>
</g>
<!-- Node25 -->
<g id="node26" class="node">
<title>Node25</title>
<polygon fill="none" stroke="#bfbfbf" points="951,-108.5 951,-125.5 991,-125.5 991,-108.5 951,-108.5"/>
<text text-anchor="middle" x="971" y="-115.1" font-family="InputSans" font-size="8.00" fill="#000000">array</text>
</g>
<!-- Node24&#45;&gt;Node25 -->
<g id="edge49" class="edge">
<title>Node24&#45;&gt;Node25</title>
<path fill="none" stroke="#191970" d="M981.8533,-162.083C980.1306,-154.9272 977.6529,-144.6353 975.4997,-135.6911"/>
<polygon fill="#191970" stroke="#191970" points="978.8501,-134.6541 973.1067,-125.7511 972.0446,-136.2925 978.8501,-134.6541"/>
</g>
</g>
</svg>
