<?xml version="1.0" encoding="UTF-8" standalone="no"?>
<!DOCTYPE svg PUBLIC "-//W3C//DTD SVG 1.1//EN"
 "http://www.w3.org/Graphics/SVG/1.1/DTD/svg11.dtd">
<!-- Generated by graphviz version 2.40.1 (20161225.0304)
 -->
<!-- Title: main Pages: 1 -->
<svg width="294pt" height="26pt"
 viewBox="0.00 0.00 294.00 26.00" xmlns="http://www.w3.org/2000/svg" xmlns:xlink="http://www.w3.org/1999/xlink">
<g id="graph0" class="graph" transform="scale(1 1) rotate(0) translate(4 22)">
<title>main</title>
<!-- Node0 -->
<g id="node1" class="node">
<title>Node0</title>
<polygon fill="#bfbfbf" stroke="#000000" points="0,-.5 0,-17.5 38,-17.5 38,-.5 0,-.5"/>
<text text-anchor="middle" x="19" y="-7.1" font-family="InputSans" font-size="8.00" fill="#000000">main</text>
</g>
<!-- Node1 -->
<g id="node2" class="node">
<title>Node1</title>
<g id="a_node2"><a xlink:href="namespacearc.html#a397c404b3a278c6e1459c9a9b7b5e766" target="_top" xlink:title="Minimizes function using Nelder&#45;Mead polytope algorithm. ">
<polygon fill="none" stroke="#000000" points="74,-.5 74,-17.5 199,-17.5 199,-.5 74,-.5"/>
<text text-anchor="middle" x="136.5" y="-7.1" font-family="InputSans" font-size="8.00" fill="#000000">arc::minimizeNelderMead</text>
</a>
</g>
</g>
<!-- Node0&#45;&gt;Node1 -->
<g id="edge1" class="edge">
<title>Node0&#45;&gt;Node1</title>
<path fill="none" stroke="#191970" d="M38.1399,-9C45.4466,-9 54.2832,-9 63.6265,-9"/>
<polygon fill="#191970" stroke="#191970" points="63.9154,-12.5001 73.9154,-9 63.9153,-5.5001 63.9154,-12.5001"/>
</g>
<!-- Node2 -->
<g id="node3" class="node">
<title>Node2</title>
<g id="a_node3"><a xlink:href="namespacearc.html#a91c641235ac691030c5ce2f55b30926b" target="_top" xlink:title="arc::abs">
<polygon fill="none" stroke="#000000" points="235,-.5 235,-17.5 286,-17.5 286,-.5 235,-.5"/>
<text text-anchor="middle" x="260.5" y="-7.1" font-family="InputSans" font-size="8.00" fill="#000000">arc::abs</text>
</a>
</g>
</g>
<!-- Node1&#45;&gt;Node2 -->
<g id="edge2" class="edge">
<title>Node1&#45;&gt;Node2</title>
<path fill="none" stroke="#191970" d="M199.2265,-9C207.9977,-9 216.7495,-9 224.7796,-9"/>
<polygon fill="#191970" stroke="#191970" points="224.8612,-12.5001 234.8612,-9 224.8612,-5.5001 224.8612,-12.5001"/>
</g>
</g>
</svg>
