<?xml version="1.0" encoding="UTF-8" standalone="no"?>
<!DOCTYPE svg PUBLIC "-//W3C//DTD SVG 1.1//EN"
 "http://www.w3.org/Graphics/SVG/1.1/DTD/svg11.dtd">
<!-- Generated by graphviz version 2.40.1 (20161225.0304)
 -->
<!-- Title: /home/jacques/repos/math4171/src/arcmath/Mat.hpp Pages: 1 -->
<svg width="394pt" height="206pt"
 viewBox="0.00 0.00 394.00 206.00" xmlns="http://www.w3.org/2000/svg" xmlns:xlink="http://www.w3.org/1999/xlink">
<g id="graph0" class="graph" transform="scale(1 1) rotate(0) translate(4 202)">
<title>/home/jacques/repos/math4171/src/arcmath/Mat.hpp</title>
<!-- Node0 -->
<g id="node1" class="node">
<title>Node0</title>
<polygon fill="#bfbfbf" stroke="#000000" points="107.5,-162.5 107.5,-197.5 223.5,-197.5 223.5,-162.5 107.5,-162.5"/>
<text text-anchor="start" x="115.5" y="-187.1" font-family="InputSans" font-size="8.00" fill="#000000">/home/jacques/repos</text>
<text text-anchor="start" x="115.5" y="-178.1" font-family="InputSans" font-size="8.00" fill="#000000">/math4171/src/arcmath</text>
<text text-anchor="middle" x="165.5" y="-169.1" font-family="InputSans" font-size="8.00" fill="#000000">/Mat.hpp</text>
</g>
<!-- Node1 -->
<g id="node2" class="node">
<title>Node1</title>
<g id="a_node2"><a xlink:href="_vec_8hpp.html" target="_top" xlink:title="Vec.hpp">
<polygon fill="none" stroke="#000000" points="108.5,-108.5 108.5,-125.5 158.5,-125.5 158.5,-108.5 108.5,-108.5"/>
<text text-anchor="middle" x="133.5" y="-115.1" font-family="InputSans" font-size="8.00" fill="#000000">Vec.hpp</text>
</a>
</g>
</g>
<!-- Node0&#45;&gt;Node1 -->
<g id="edge1" class="edge">
<title>Node0&#45;&gt;Node1</title>
<path fill="none" stroke="#191970" d="M156.5862,-162.451C152.2264,-153.8677 146.987,-143.5525 142.6023,-134.9201"/>
<polygon fill="#191970" stroke="#191970" points="145.6008,-133.0948 137.9516,-125.764 139.3597,-136.2649 145.6008,-133.0948"/>
</g>
<!-- Node12 -->
<g id="node13" class="node">
<title>Node12</title>
<g id="a_node13"><a xlink:href="_mat_8inl.html" target="_top" xlink:title="Mat.inl">
<polygon fill="none" stroke="#000000" points="176.5,-108.5 176.5,-125.5 220.5,-125.5 220.5,-108.5 176.5,-108.5"/>
<text text-anchor="middle" x="198.5" y="-115.1" font-family="InputSans" font-size="8.00" fill="#000000">Mat.inl</text>
</a>
</g>
</g>
<!-- Node0&#45;&gt;Node12 -->
<g id="edge12" class="edge">
<title>Node0&#45;&gt;Node12</title>
<path fill="none" stroke="#191970" d="M174.6923,-162.451C179.2372,-153.7744 184.7091,-143.328 189.2604,-134.6392"/>
<polygon fill="#191970" stroke="#191970" points="192.3696,-136.2464 193.9093,-125.764 186.1688,-132.9983 192.3696,-136.2464"/>
</g>
<!-- Node2 -->
<g id="node3" class="node">
<title>Node2</title>
<polygon fill="none" stroke="#bfbfbf" points="0,-54.5 0,-71.5 47,-71.5 47,-54.5 0,-54.5"/>
<text text-anchor="middle" x="23.5" y="-61.1" font-family="InputSans" font-size="8.00" fill="#000000">cassert</text>
</g>
<!-- Node1&#45;&gt;Node2 -->
<g id="edge2" class="edge">
<title>Node1&#45;&gt;Node2</title>
<path fill="none" stroke="#191970" d="M115.8266,-108.324C98.1059,-99.6247 70.5968,-86.1202 50.2116,-76.113"/>
<polygon fill="#191970" stroke="#191970" points="51.6486,-72.9195 41.1295,-71.6545 48.5639,-79.2031 51.6486,-72.9195"/>
</g>
<!-- Node3 -->
<g id="node4" class="node">
<title>Node3</title>
<polygon fill="none" stroke="#bfbfbf" points="65.5,-54.5 65.5,-71.5 119.5,-71.5 119.5,-54.5 65.5,-54.5"/>
<text text-anchor="middle" x="92.5" y="-61.1" font-family="InputSans" font-size="8.00" fill="#000000">iostream</text>
</g>
<!-- Node1&#45;&gt;Node3 -->
<g id="edge3" class="edge">
<title>Node1&#45;&gt;Node3</title>
<path fill="none" stroke="#191970" d="M126.7297,-108.083C120.9384,-100.4554 112.4415,-89.2645 105.3625,-79.9408"/>
<polygon fill="#191970" stroke="#191970" points="107.979,-77.5991 99.1443,-71.7511 102.4039,-81.8321 107.979,-77.5991"/>
</g>
<!-- Node4 -->
<g id="node5" class="node">
<title>Node4</title>
<g id="a_node5"><a xlink:href="_core_math_8hpp.html" target="_top" xlink:title="CoreMath.hpp">
<polygon fill="none" stroke="#000000" points="137.5,-54.5 137.5,-71.5 213.5,-71.5 213.5,-54.5 137.5,-54.5"/>
<text text-anchor="middle" x="175.5" y="-61.1" font-family="InputSans" font-size="8.00" fill="#000000">CoreMath.hpp</text>
</a>
</g>
</g>
<!-- Node1&#45;&gt;Node4 -->
<g id="edge4" class="edge">
<title>Node1&#45;&gt;Node4</title>
<path fill="none" stroke="#191970" d="M140.4354,-108.083C146.4292,-100.3768 155.2518,-89.0333 162.5476,-79.6531"/>
<polygon fill="#191970" stroke="#191970" points="165.3169,-81.7934 168.6936,-71.7511 159.7914,-77.4958 165.3169,-81.7934"/>
</g>
<!-- Node9 -->
<g id="node10" class="node">
<title>Node9</title>
<g id="a_node10"><a xlink:href="_vec_8inl.html" target="_top" xlink:title="Vec.inl">
<polygon fill="none" stroke="#000000" points="274.5,-54.5 274.5,-71.5 318.5,-71.5 318.5,-54.5 274.5,-54.5"/>
<text text-anchor="middle" x="296.5" y="-61.1" font-family="InputSans" font-size="8.00" fill="#000000">Vec.inl</text>
</a>
</g>
</g>
<!-- Node1&#45;&gt;Node9 -->
<g id="edge9" class="edge">
<title>Node1&#45;&gt;Node9</title>
<path fill="none" stroke="#191970" d="M158.6115,-108.6808C187.0941,-99.2449 233.599,-83.8384 264.6198,-73.5615"/>
<polygon fill="#191970" stroke="#191970" points="266.106,-76.7563 274.4979,-70.289 263.9046,-70.1115 266.106,-76.7563"/>
</g>
<!-- Node5 -->
<g id="node6" class="node">
<title>Node5</title>
<polygon fill="none" stroke="#bfbfbf" points="19,-.5 19,-17.5 76,-17.5 76,-.5 19,-.5"/>
<text text-anchor="middle" x="47.5" y="-7.1" font-family="InputSans" font-size="8.00" fill="#000000">algorithm</text>
</g>
<!-- Node4&#45;&gt;Node5 -->
<g id="edge5" class="edge">
<title>Node4&#45;&gt;Node5</title>
<path fill="none" stroke="#191970" d="M155.218,-54.4435C134.1527,-45.5566 100.9832,-31.5632 77.0145,-21.4514"/>
<polygon fill="#191970" stroke="#191970" points="78.2612,-18.1787 67.6871,-17.5164 75.5403,-24.6283 78.2612,-18.1787"/>
</g>
<!-- Node6 -->
<g id="node7" class="node">
<title>Node6</title>
<polygon fill="none" stroke="#bfbfbf" points="94,-.5 94,-17.5 137,-17.5 137,-.5 94,-.5"/>
<text text-anchor="middle" x="115.5" y="-7.1" font-family="InputSans" font-size="8.00" fill="#000000">cmath</text>
</g>
<!-- Node4&#45;&gt;Node6 -->
<g id="edge6" class="edge">
<title>Node4&#45;&gt;Node6</title>
<path fill="none" stroke="#191970" d="M165.86,-54.324C156.9904,-46.3414 143.6253,-34.3128 132.8921,-24.6529"/>
<polygon fill="#191970" stroke="#191970" points="135.0898,-21.922 125.3154,-17.8339 130.407,-27.1251 135.0898,-21.922"/>
</g>
<!-- Node7 -->
<g id="node8" class="node">
<title>Node7</title>
<polygon fill="none" stroke="#bfbfbf" points="155.5,-.5 155.5,-17.5 195.5,-17.5 195.5,-.5 155.5,-.5"/>
<text text-anchor="middle" x="175.5" y="-7.1" font-family="InputSans" font-size="8.00" fill="#000000">cfloat</text>
</g>
<!-- Node4&#45;&gt;Node7 -->
<g id="edge7" class="edge">
<title>Node4&#45;&gt;Node7</title>
<path fill="none" stroke="#191970" d="M175.5,-54.083C175.5,-47.0059 175.5,-36.8611 175.5,-27.9865"/>
<polygon fill="#191970" stroke="#191970" points="179.0001,-27.751 175.5,-17.7511 172.0001,-27.7511 179.0001,-27.751"/>
</g>
<!-- Node8 -->
<g id="node9" class="node">
<title>Node8</title>
<polygon fill="none" stroke="#bfbfbf" points="213.5,-.5 213.5,-17.5 257.5,-17.5 257.5,-.5 213.5,-.5"/>
<text text-anchor="middle" x="235.5" y="-7.1" font-family="InputSans" font-size="8.00" fill="#000000">cstdint</text>
</g>
<!-- Node4&#45;&gt;Node8 -->
<g id="edge8" class="edge">
<title>Node4&#45;&gt;Node8</title>
<path fill="none" stroke="#191970" d="M185.14,-54.324C194.0096,-46.3414 207.3747,-34.3128 218.1079,-24.6529"/>
<polygon fill="#191970" stroke="#191970" points="220.593,-27.1251 225.6846,-17.8339 215.9102,-21.922 220.593,-27.1251"/>
</g>
<!-- Node10 -->
<g id="node11" class="node">
<title>Node10</title>
<polygon fill="none" stroke="#bfbfbf" points="276,-.5 276,-17.5 317,-17.5 317,-.5 276,-.5"/>
<text text-anchor="middle" x="296.5" y="-7.1" font-family="InputSans" font-size="8.00" fill="#000000">string</text>
</g>
<!-- Node9&#45;&gt;Node10 -->
<g id="edge10" class="edge">
<title>Node9&#45;&gt;Node10</title>
<path fill="none" stroke="#191970" d="M296.5,-54.083C296.5,-47.0059 296.5,-36.8611 296.5,-27.9865"/>
<polygon fill="#191970" stroke="#191970" points="300.0001,-27.751 296.5,-17.7511 293.0001,-27.7511 300.0001,-27.751"/>
</g>
<!-- Node11 -->
<g id="node12" class="node">
<title>Node11</title>
<polygon fill="none" stroke="#bfbfbf" points="335,-.5 335,-17.5 386,-17.5 386,-.5 335,-.5"/>
<text text-anchor="middle" x="360.5" y="-7.1" font-family="InputSans" font-size="8.00" fill="#000000">sstream</text>
</g>
<!-- Node9&#45;&gt;Node11 -->
<g id="edge11" class="edge">
<title>Node9&#45;&gt;Node11</title>
<path fill="none" stroke="#191970" d="M306.7827,-54.324C316.3363,-46.2631 330.7797,-34.0765 342.2843,-24.3695"/>
<polygon fill="#191970" stroke="#191970" points="344.6443,-26.9577 350.0302,-17.8339 340.1302,-21.6076 344.6443,-26.9577"/>
</g>
</g>
</svg>
