<?xml version="1.0" encoding="UTF-8" standalone="no"?>
<!DOCTYPE svg PUBLIC "-//W3C//DTD SVG 1.1//EN"
 "http://www.w3.org/Graphics/SVG/1.1/DTD/svg11.dtd">
<!-- Generated by graphviz version 2.40.1 (20161225.0304)
 -->
<!-- Title: /home/jacques/repos/math4171/src/arcmath/Mat.hpp Pages: 1 -->
<svg width="425pt" height="206pt"
 viewBox="0.00 0.00 425.00 206.00" xmlns="http://www.w3.org/2000/svg" xmlns:xlink="http://www.w3.org/1999/xlink">
<g id="graph0" class="graph" transform="scale(1 1) rotate(0) translate(4 202)">
<title>/home/jacques/repos/math4171/src/arcmath/Mat.hpp</title>
<!-- Node0 -->
<g id="node1" class="node">
<title>Node0</title>
<polygon fill="#bfbfbf" stroke="#000000" points="112.5,-162.5 112.5,-197.5 246.5,-197.5 246.5,-162.5 112.5,-162.5"/>
<text text-anchor="start" x="120.5" y="-187.1" font-family="InputSans" font-size="8.00" fill="#000000">/home/jacques/repos</text>
<text text-anchor="start" x="120.5" y="-178.1" font-family="InputSans" font-size="8.00" fill="#000000">/math4171/src/arcmath</text>
<text text-anchor="middle" x="179.5" y="-169.1" font-family="InputSans" font-size="8.00" fill="#000000">/Mat.hpp</text>
</g>
<!-- Node1 -->
<g id="node2" class="node">
<title>Node1</title>
<g id="a_node2"><a xlink:href="_vec_8hpp.html" target="_top" xlink:title="Vec.hpp">
<polygon fill="none" stroke="#000000" points="117.5,-108.5 117.5,-125.5 171.5,-125.5 171.5,-108.5 117.5,-108.5"/>
<text text-anchor="middle" x="144.5" y="-115.1" font-family="InputSans" font-size="8.00" fill="#000000">Vec.hpp</text>
</a>
</g>
</g>
<!-- Node0&#45;&gt;Node1 -->
<g id="edge1" class="edge">
<title>Node0&#45;&gt;Node1</title>
<path fill="none" stroke="#191970" d="M169.7505,-162.451C164.9302,-153.7744 159.1267,-143.328 154.2996,-134.6392"/>
<polygon fill="#191970" stroke="#191970" points="157.2849,-132.8058 149.3689,-125.764 151.1658,-136.2054 157.2849,-132.8058"/>
</g>
<!-- Node12 -->
<g id="node13" class="node">
<title>Node12</title>
<g id="a_node13"><a xlink:href="_mat_8inl.html" target="_top" xlink:title="Mat.inl">
<polygon fill="none" stroke="#000000" points="189.5,-108.5 189.5,-125.5 241.5,-125.5 241.5,-108.5 189.5,-108.5"/>
<text text-anchor="middle" x="215.5" y="-115.1" font-family="InputSans" font-size="8.00" fill="#000000">Mat.inl</text>
</a>
</g>
</g>
<!-- Node0&#45;&gt;Node12 -->
<g id="edge12" class="edge">
<title>Node0&#45;&gt;Node12</title>
<path fill="none" stroke="#191970" d="M189.528,-162.451C194.4861,-153.7744 200.4554,-143.328 205.4205,-134.6392"/>
<polygon fill="#191970" stroke="#191970" points="208.5694,-136.183 210.492,-125.764 202.4917,-132.71 208.5694,-136.183"/>
</g>
<!-- Node2 -->
<g id="node3" class="node">
<title>Node2</title>
<polygon fill="none" stroke="#bfbfbf" points="0,-54.5 0,-71.5 53,-71.5 53,-54.5 0,-54.5"/>
<text text-anchor="middle" x="26.5" y="-61.1" font-family="InputSans" font-size="8.00" fill="#000000">cassert</text>
</g>
<!-- Node1&#45;&gt;Node2 -->
<g id="edge2" class="edge">
<title>Node1&#45;&gt;Node2</title>
<path fill="none" stroke="#191970" d="M125.8025,-108.4435C106.5555,-99.6356 76.3475,-85.8116 54.2999,-75.722"/>
<polygon fill="#191970" stroke="#191970" points="55.6595,-72.4951 45.11,-71.5164 52.7466,-78.8603 55.6595,-72.4951"/>
</g>
<!-- Node3 -->
<g id="node4" class="node">
<title>Node3</title>
<polygon fill="none" stroke="#bfbfbf" points="71,-54.5 71,-71.5 130,-71.5 130,-54.5 71,-54.5"/>
<text text-anchor="middle" x="100.5" y="-61.1" font-family="InputSans" font-size="8.00" fill="#000000">iostream</text>
</g>
<!-- Node1&#45;&gt;Node3 -->
<g id="edge3" class="edge">
<title>Node1&#45;&gt;Node3</title>
<path fill="none" stroke="#191970" d="M137.2343,-108.083C130.9552,-100.3768 121.7124,-89.0333 114.0692,-79.6531"/>
<polygon fill="#191970" stroke="#191970" points="116.6606,-77.2926 107.6305,-71.7511 111.2339,-81.7143 116.6606,-77.2926"/>
</g>
<!-- Node4 -->
<g id="node5" class="node">
<title>Node4</title>
<g id="a_node5"><a xlink:href="_core_math_8hpp.html" target="_top" xlink:title="CoreMath.hpp">
<polygon fill="none" stroke="#000000" points="148,-54.5 148,-71.5 229,-71.5 229,-54.5 148,-54.5"/>
<text text-anchor="middle" x="188.5" y="-61.1" font-family="InputSans" font-size="8.00" fill="#000000">CoreMath.hpp</text>
</a>
</g>
</g>
<!-- Node1&#45;&gt;Node4 -->
<g id="edge4" class="edge">
<title>Node1&#45;&gt;Node4</title>
<path fill="none" stroke="#191970" d="M151.7657,-108.083C158.0448,-100.3768 167.2876,-89.0333 174.9308,-79.6531"/>
<polygon fill="#191970" stroke="#191970" points="177.7661,-81.7143 181.3695,-71.7511 172.3394,-77.2926 177.7661,-81.7143"/>
</g>
<!-- Node9 -->
<g id="node10" class="node">
<title>Node9</title>
<g id="a_node10"><a xlink:href="_vec_8inl.html" target="_top" xlink:title="Vec.inl">
<polygon fill="none" stroke="#000000" points="295,-54.5 295,-71.5 346,-71.5 346,-54.5 295,-54.5"/>
<text text-anchor="middle" x="320.5" y="-61.1" font-family="InputSans" font-size="8.00" fill="#000000">Vec.inl</text>
</a>
</g>
</g>
<!-- Node1&#45;&gt;Node9 -->
<g id="edge9" class="edge">
<title>Node1&#45;&gt;Node9</title>
<path fill="none" stroke="#191970" d="M171.6143,-108.6808C202.0242,-99.3505 251.4606,-84.1825 284.9462,-73.9086"/>
<polygon fill="#191970" stroke="#191970" points="286.2539,-77.1684 294.7874,-70.8891 284.2006,-70.4763 286.2539,-77.1684"/>
</g>
<!-- Node5 -->
<g id="node6" class="node">
<title>Node5</title>
<polygon fill="none" stroke="#bfbfbf" points="21,-.5 21,-17.5 84,-17.5 84,-.5 21,-.5"/>
<text text-anchor="middle" x="52.5" y="-7.1" font-family="InputSans" font-size="8.00" fill="#000000">algorithm</text>
</g>
<!-- Node4&#45;&gt;Node5 -->
<g id="edge5" class="edge">
<title>Node4&#45;&gt;Node5</title>
<path fill="none" stroke="#191970" d="M166.9504,-54.4435C144.469,-45.5171 109.0123,-31.4387 83.5201,-21.3168"/>
<polygon fill="#191970" stroke="#191970" points="84.5346,-17.9539 73.9488,-17.5164 81.9513,-24.4598 84.5346,-17.9539"/>
</g>
<!-- Node6 -->
<g id="node7" class="node">
<title>Node6</title>
<polygon fill="none" stroke="#bfbfbf" points="102,-.5 102,-17.5 147,-17.5 147,-.5 102,-.5"/>
<text text-anchor="middle" x="124.5" y="-7.1" font-family="InputSans" font-size="8.00" fill="#000000">cmath</text>
</g>
<!-- Node4&#45;&gt;Node6 -->
<g id="edge6" class="edge">
<title>Node4&#45;&gt;Node6</title>
<path fill="none" stroke="#191970" d="M178.2173,-54.324C168.6637,-46.2631 154.2203,-34.0765 142.7157,-24.3695"/>
<polygon fill="#191970" stroke="#191970" points="144.8698,-21.6076 134.9698,-17.8339 140.3557,-26.9577 144.8698,-21.6076"/>
</g>
<!-- Node7 -->
<g id="node8" class="node">
<title>Node7</title>
<polygon fill="none" stroke="#bfbfbf" points="165.5,-.5 165.5,-17.5 211.5,-17.5 211.5,-.5 165.5,-.5"/>
<text text-anchor="middle" x="188.5" y="-7.1" font-family="InputSans" font-size="8.00" fill="#000000">cfloat</text>
</g>
<!-- Node4&#45;&gt;Node7 -->
<g id="edge7" class="edge">
<title>Node4&#45;&gt;Node7</title>
<path fill="none" stroke="#191970" d="M188.5,-54.083C188.5,-47.0059 188.5,-36.8611 188.5,-27.9865"/>
<polygon fill="#191970" stroke="#191970" points="192.0001,-27.751 188.5,-17.7511 185.0001,-27.7511 192.0001,-27.751"/>
</g>
<!-- Node8 -->
<g id="node9" class="node">
<title>Node8</title>
<polygon fill="none" stroke="#bfbfbf" points="229.5,-.5 229.5,-17.5 279.5,-17.5 279.5,-.5 229.5,-.5"/>
<text text-anchor="middle" x="254.5" y="-7.1" font-family="InputSans" font-size="8.00" fill="#000000">cstdint</text>
</g>
<!-- Node4&#45;&gt;Node8 -->
<g id="edge8" class="edge">
<title>Node4&#45;&gt;Node8</title>
<path fill="none" stroke="#191970" d="M199.104,-54.324C208.9562,-46.2631 223.8509,-34.0765 235.7151,-24.3695"/>
<polygon fill="#191970" stroke="#191970" points="238.1798,-26.8752 243.703,-17.8339 233.7471,-21.4575 238.1798,-26.8752"/>
</g>
<!-- Node10 -->
<g id="node11" class="node">
<title>Node10</title>
<polygon fill="none" stroke="#bfbfbf" points="297.5,-.5 297.5,-17.5 343.5,-17.5 343.5,-.5 297.5,-.5"/>
<text text-anchor="middle" x="320.5" y="-7.1" font-family="InputSans" font-size="8.00" fill="#000000">string</text>
</g>
<!-- Node9&#45;&gt;Node10 -->
<g id="edge10" class="edge">
<title>Node9&#45;&gt;Node10</title>
<path fill="none" stroke="#191970" d="M320.5,-54.083C320.5,-47.0059 320.5,-36.8611 320.5,-27.9865"/>
<polygon fill="#191970" stroke="#191970" points="324.0001,-27.751 320.5,-17.7511 317.0001,-27.7511 324.0001,-27.751"/>
</g>
<!-- Node11 -->
<g id="node12" class="node">
<title>Node11</title>
<polygon fill="none" stroke="#bfbfbf" points="362,-.5 362,-17.5 417,-17.5 417,-.5 362,-.5"/>
<text text-anchor="middle" x="389.5" y="-7.1" font-family="InputSans" font-size="8.00" fill="#000000">sstream</text>
</g>
<!-- Node9&#45;&gt;Node11 -->
<g id="edge11" class="edge">
<title>Node9&#45;&gt;Node11</title>
<path fill="none" stroke="#191970" d="M331.586,-54.324C341.986,-46.1849 357.7606,-33.8395 370.2216,-24.0874"/>
<polygon fill="#191970" stroke="#191970" points="372.4943,-26.7533 378.2122,-17.8339 368.1801,-21.2407 372.4943,-26.7533"/>
</g>
</g>
</svg>
