<?xml version="1.0" encoding="UTF-8" standalone="no"?>
<!DOCTYPE svg PUBLIC "-//W3C//DTD SVG 1.1//EN"
 "http://www.w3.org/Graphics/SVG/1.1/DTD/svg11.dtd">
<!-- Generated by graphviz version 2.40.1 (20161225.0304)
 -->
<!-- Title: /home/jacques/repos/math4171/src/arcmath/MinNelderMead.hpp Pages: 1 -->
<svg width="386pt" height="206pt"
 viewBox="0.00 0.00 385.50 206.00" xmlns="http://www.w3.org/2000/svg" xmlns:xlink="http://www.w3.org/1999/xlink">
<g id="graph0" class="graph" transform="scale(1 1) rotate(0) translate(4 202)">
<title>/home/jacques/repos/math4171/src/arcmath/MinNelderMead.hpp</title>
<!-- Node0 -->
<g id="node1" class="node">
<title>Node0</title>
<polygon fill="#bfbfbf" stroke="#000000" points="133.5,-162.5 133.5,-197.5 249.5,-197.5 249.5,-162.5 133.5,-162.5"/>
<text text-anchor="start" x="141.5" y="-187.1" font-family="InputSans" font-size="8.00" fill="#000000">/home/jacques/repos</text>
<text text-anchor="start" x="141.5" y="-178.1" font-family="InputSans" font-size="8.00" fill="#000000">/math4171/src/arcmath</text>
<text text-anchor="middle" x="191.5" y="-169.1" font-family="InputSans" font-size="8.00" fill="#000000">/MinNelderMead.hpp</text>
</g>
<!-- Node1 -->
<g id="node2" class="node">
<title>Node1</title>
<polygon fill="none" stroke="#bfbfbf" points="0,-.5 0,-17.5 57,-17.5 57,-.5 0,-.5"/>
<text text-anchor="middle" x="28.5" y="-7.1" font-family="InputSans" font-size="8.00" fill="#000000">algorithm</text>
</g>
<!-- Node0&#45;&gt;Node1 -->
<g id="edge1" class="edge">
<title>Node0&#45;&gt;Node1</title>
<path fill="none" stroke="#191970" d="M172.0198,-162.2639C149.3481,-141.3489 111.11,-105.2177 80.5,-72 66.6008,-56.9168 51.8098,-38.7688 41.5707,-25.8329"/>
<polygon fill="#191970" stroke="#191970" points="44.2031,-23.5179 35.2762,-17.8116 38.6962,-27.8393 44.2031,-23.5179"/>
</g>
<!-- Node2 -->
<g id="node3" class="node">
<title>Node2</title>
<polygon fill="none" stroke="#bfbfbf" points="261.5,-108.5 261.5,-125.5 301.5,-125.5 301.5,-108.5 261.5,-108.5"/>
<text text-anchor="middle" x="281.5" y="-115.1" font-family="InputSans" font-size="8.00" fill="#000000">array</text>
</g>
<!-- Node0&#45;&gt;Node2 -->
<g id="edge2" class="edge">
<title>Node0&#45;&gt;Node2</title>
<path fill="none" stroke="#191970" d="M216.57,-162.451C230.4313,-152.7481 247.4541,-140.8321 260.5919,-131.6357"/>
<polygon fill="#191970" stroke="#191970" points="262.7948,-134.366 268.98,-125.764 258.7805,-128.6314 262.7948,-134.366"/>
</g>
<!-- Node3 -->
<g id="node4" class="node">
<title>Node3</title>
<polygon fill="none" stroke="#bfbfbf" points="319.5,-108.5 319.5,-125.5 377.5,-125.5 377.5,-108.5 319.5,-108.5"/>
<text text-anchor="middle" x="348.5" y="-115.1" font-family="InputSans" font-size="8.00" fill="#000000">functional</text>
</g>
<!-- Node0&#45;&gt;Node3 -->
<g id="edge3" class="edge">
<title>Node0&#45;&gt;Node3</title>
<path fill="none" stroke="#191970" d="M235.2333,-162.451C261.4323,-151.938 294.1058,-138.827 317.6184,-129.392"/>
<polygon fill="#191970" stroke="#191970" points="319.1115,-132.5642 327.0887,-125.5918 316.5045,-126.0677 319.1115,-132.5642"/>
</g>
<!-- Node4 -->
<g id="node5" class="node">
<title>Node4</title>
<polygon fill="none" stroke="#bfbfbf" points="183.5,-54.5 183.5,-71.5 237.5,-71.5 237.5,-54.5 183.5,-54.5"/>
<text text-anchor="middle" x="210.5" y="-61.1" font-family="InputSans" font-size="8.00" fill="#000000">iostream</text>
</g>
<!-- Node0&#45;&gt;Node4 -->
<g id="edge4" class="edge">
<title>Node0&#45;&gt;Node4</title>
<path fill="none" stroke="#191970" d="M186.3138,-162.2526C182.8203,-147.4998 179.6539,-126.0744 184.5,-108 187.1536,-98.1031 192.5693,-88.1315 197.7743,-80.099"/>
<polygon fill="#191970" stroke="#191970" points="200.7891,-81.8935 203.6097,-71.6811 195.0361,-77.9055 200.7891,-81.8935"/>
</g>
<!-- Node5 -->
<g id="node6" class="node">
<title>Node5</title>
<g id="a_node6"><a xlink:href="_core_math_8hpp.html" target="_top" xlink:title="CoreMath.hpp">
<polygon fill="none" stroke="#000000" points="89.5,-54.5 89.5,-71.5 165.5,-71.5 165.5,-54.5 89.5,-54.5"/>
<text text-anchor="middle" x="127.5" y="-61.1" font-family="InputSans" font-size="8.00" fill="#000000">CoreMath.hpp</text>
</a>
</g>
</g>
<!-- Node0&#45;&gt;Node5 -->
<g id="edge5" class="edge">
<title>Node0&#45;&gt;Node5</title>
<path fill="none" stroke="#191970" d="M181.9186,-162.4839C169.8227,-140.3713 149.1388,-102.5584 137.0553,-80.4684"/>
<polygon fill="#191970" stroke="#191970" points="140.0401,-78.6317 132.1704,-71.5381 133.8989,-81.991 140.0401,-78.6317"/>
</g>
<!-- Node9 -->
<g id="node10" class="node">
<title>Node9</title>
<g id="a_node10"><a xlink:href="_vec_8hpp.html" target="_top" xlink:title="Vec.hpp">
<polygon fill="none" stroke="#000000" points="193.5,-108.5 193.5,-125.5 243.5,-125.5 243.5,-108.5 193.5,-108.5"/>
<text text-anchor="middle" x="218.5" y="-115.1" font-family="InputSans" font-size="8.00" fill="#000000">Vec.hpp</text>
</a>
</g>
</g>
<!-- Node0&#45;&gt;Node9 -->
<g id="edge10" class="edge">
<title>Node0&#45;&gt;Node9</title>
<path fill="none" stroke="#191970" d="M199.021,-162.451C202.6596,-153.961 207.0243,-143.7765 210.6991,-135.2022"/>
<polygon fill="#191970" stroke="#191970" points="214.0217,-136.3342 214.744,-125.764 207.5877,-133.5767 214.0217,-136.3342"/>
</g>
<!-- Node5&#45;&gt;Node1 -->
<g id="edge6" class="edge">
<title>Node5&#45;&gt;Node1</title>
<path fill="none" stroke="#191970" d="M111.5939,-54.324C95.8618,-45.7428 71.5577,-32.486 53.2911,-22.5224"/>
<polygon fill="#191970" stroke="#191970" points="54.8216,-19.3704 44.3666,-17.6545 51.4696,-25.5157 54.8216,-19.3704"/>
</g>
<!-- Node6 -->
<g id="node7" class="node">
<title>Node6</title>
<polygon fill="none" stroke="#bfbfbf" points="75,-.5 75,-17.5 118,-17.5 118,-.5 75,-.5"/>
<text text-anchor="middle" x="96.5" y="-7.1" font-family="InputSans" font-size="8.00" fill="#000000">cmath</text>
</g>
<!-- Node5&#45;&gt;Node6 -->
<g id="edge7" class="edge">
<title>Node5&#45;&gt;Node6</title>
<path fill="none" stroke="#191970" d="M122.381,-54.083C118.0925,-46.6127 111.8418,-35.7244 106.5577,-26.5199"/>
<polygon fill="#191970" stroke="#191970" points="109.5379,-24.6811 101.5238,-17.7511 103.4671,-28.1662 109.5379,-24.6811"/>
</g>
<!-- Node7 -->
<g id="node8" class="node">
<title>Node7</title>
<polygon fill="none" stroke="#bfbfbf" points="136.5,-.5 136.5,-17.5 176.5,-17.5 176.5,-.5 136.5,-.5"/>
<text text-anchor="middle" x="156.5" y="-7.1" font-family="InputSans" font-size="8.00" fill="#000000">cfloat</text>
</g>
<!-- Node5&#45;&gt;Node7 -->
<g id="edge8" class="edge">
<title>Node5&#45;&gt;Node7</title>
<path fill="none" stroke="#191970" d="M132.2888,-54.083C136.2584,-46.6913 142.0251,-35.9533 146.9348,-26.8111"/>
<polygon fill="#191970" stroke="#191970" points="150.1525,-28.217 151.8003,-17.7511 143.9855,-24.9051 150.1525,-28.217"/>
</g>
<!-- Node8 -->
<g id="node9" class="node">
<title>Node8</title>
<polygon fill="none" stroke="#bfbfbf" points="194.5,-.5 194.5,-17.5 238.5,-17.5 238.5,-.5 194.5,-.5"/>
<text text-anchor="middle" x="216.5" y="-7.1" font-family="InputSans" font-size="8.00" fill="#000000">cstdint</text>
</g>
<!-- Node5&#45;&gt;Node8 -->
<g id="edge9" class="edge">
<title>Node5&#45;&gt;Node8</title>
<path fill="none" stroke="#191970" d="M141.7994,-54.324C155.6829,-45.9002 176.9924,-32.9709 193.3037,-23.0741"/>
<polygon fill="#191970" stroke="#191970" points="195.5022,-25.8341 202.2361,-17.6545 191.8711,-19.8495 195.5022,-25.8341"/>
</g>
<!-- Node9&#45;&gt;Node4 -->
<g id="edge12" class="edge">
<title>Node9&#45;&gt;Node4</title>
<path fill="none" stroke="#191970" d="M217.179,-108.083C216.1189,-100.9272 214.5941,-90.6353 213.2691,-81.6911"/>
<polygon fill="#191970" stroke="#191970" points="216.7242,-81.1302 211.7965,-71.7511 209.7998,-82.1561 216.7242,-81.1302"/>
</g>
<!-- Node9&#45;&gt;Node5 -->
<g id="edge13" class="edge">
<title>Node9&#45;&gt;Node5</title>
<path fill="none" stroke="#191970" d="M203.8793,-108.324C189.5511,-99.8215 167.4875,-86.7288 150.7513,-76.7975"/>
<polygon fill="#191970" stroke="#191970" points="152.4704,-73.7478 142.0844,-71.6545 148.8982,-79.7677 152.4704,-73.7478"/>
</g>
<!-- Node10 -->
<g id="node11" class="node">
<title>Node10</title>
<polygon fill="none" stroke="#bfbfbf" points="318,-54.5 318,-71.5 365,-71.5 365,-54.5 318,-54.5"/>
<text text-anchor="middle" x="341.5" y="-61.1" font-family="InputSans" font-size="8.00" fill="#000000">cassert</text>
</g>
<!-- Node9&#45;&gt;Node10 -->
<g id="edge11" class="edge">
<title>Node9&#45;&gt;Node10</title>
<path fill="none" stroke="#191970" d="M237.9897,-108.4435C258.1422,-99.5961 289.8229,-85.6875 312.8308,-75.5865"/>
<polygon fill="#191970" stroke="#191970" points="314.352,-78.7411 322.1015,-71.5164 311.538,-72.3316 314.352,-78.7411"/>
</g>
<!-- Node11 -->
<g id="node12" class="node">
<title>Node11</title>
<g id="a_node12"><a xlink:href="_vec_8inl.html" target="_top" xlink:title="Vec.inl">
<polygon fill="none" stroke="#000000" points="255.5,-54.5 255.5,-71.5 299.5,-71.5 299.5,-54.5 255.5,-54.5"/>
<text text-anchor="middle" x="277.5" y="-61.1" font-family="InputSans" font-size="8.00" fill="#000000">Vec.inl</text>
</a>
</g>
</g>
<!-- Node9&#45;&gt;Node11 -->
<g id="edge14" class="edge">
<title>Node9&#45;&gt;Node11</title>
<path fill="none" stroke="#191970" d="M227.9794,-108.324C236.7011,-100.3414 249.8435,-88.3128 260.3978,-78.6529"/>
<polygon fill="#191970" stroke="#191970" points="262.8345,-81.1674 267.8481,-71.8339 258.1083,-76.0036 262.8345,-81.1674"/>
</g>
<!-- Node12 -->
<g id="node13" class="node">
<title>Node12</title>
<polygon fill="none" stroke="#bfbfbf" points="257,-.5 257,-17.5 298,-17.5 298,-.5 257,-.5"/>
<text text-anchor="middle" x="277.5" y="-7.1" font-family="InputSans" font-size="8.00" fill="#000000">string</text>
</g>
<!-- Node11&#45;&gt;Node12 -->
<g id="edge15" class="edge">
<title>Node11&#45;&gt;Node12</title>
<path fill="none" stroke="#191970" d="M277.5,-54.083C277.5,-47.0059 277.5,-36.8611 277.5,-27.9865"/>
<polygon fill="#191970" stroke="#191970" points="281.0001,-27.751 277.5,-17.7511 274.0001,-27.7511 281.0001,-27.751"/>
</g>
<!-- Node13 -->
<g id="node14" class="node">
<title>Node13</title>
<polygon fill="none" stroke="#bfbfbf" points="316,-.5 316,-17.5 367,-17.5 367,-.5 316,-.5"/>
<text text-anchor="middle" x="341.5" y="-7.1" font-family="InputSans" font-size="8.00" fill="#000000">sstream</text>
</g>
<!-- Node11&#45;&gt;Node13 -->
<g id="edge16" class="edge">
<title>Node11&#45;&gt;Node13</title>
<path fill="none" stroke="#191970" d="M287.7827,-54.324C297.3363,-46.2631 311.7797,-34.0765 323.2843,-24.3695"/>
<polygon fill="#191970" stroke="#191970" points="325.6443,-26.9577 331.0302,-17.8339 321.1302,-21.6076 325.6443,-26.9577"/>
</g>
</g>
</svg>
