<?xml version="1.0" encoding="UTF-8" standalone="no"?>
<!DOCTYPE svg PUBLIC "-//W3C//DTD SVG 1.1//EN"
 "http://www.w3.org/Graphics/SVG/1.1/DTD/svg11.dtd">
<!-- Generated by graphviz version 2.40.1 (20161225.0304)
 -->
<!-- Title: /home/jacques/repos/math4171/src/arcmath/MinNelderMead.hpp Pages: 1 -->
<svg width="278pt" height="116pt"
 viewBox="0.00 0.00 277.50 116.00" xmlns="http://www.w3.org/2000/svg" xmlns:xlink="http://www.w3.org/1999/xlink">
<g id="graph0" class="graph" transform="scale(1 1) rotate(0) translate(4 112)">
<title>/home/jacques/repos/math4171/src/arcmath/MinNelderMead.hpp</title>
<!-- Node14 -->
<g id="node1" class="node">
<title>Node14</title>
<polygon fill="#bfbfbf" stroke="#000000" points="72,-72.5 72,-107.5 188,-107.5 188,-72.5 72,-72.5"/>
<text text-anchor="start" x="80" y="-97.1" font-family="InputSans" font-size="8.00" fill="#000000">/home/jacques/repos</text>
<text text-anchor="start" x="80" y="-88.1" font-family="InputSans" font-size="8.00" fill="#000000">/math4171/src/arcmath</text>
<text text-anchor="middle" x="130" y="-79.1" font-family="InputSans" font-size="8.00" fill="#000000">/MinNelderMead.hpp</text>
</g>
<!-- Node15 -->
<g id="node2" class="node">
<title>Node15</title>
<g id="a_node2"><a xlink:href="_min_nelder_mead_8cpp.html" target="_top" xlink:title="/home/jacques/repos\l/math4171/src/arcmath\l/MinNelderMead.cpp">
<polygon fill="none" stroke="#000000" points="0,-.5 0,-35.5 116,-35.5 116,-.5 0,-.5"/>
<text text-anchor="start" x="8" y="-25.1" font-family="InputSans" font-size="8.00" fill="#000000">/home/jacques/repos</text>
<text text-anchor="start" x="8" y="-16.1" font-family="InputSans" font-size="8.00" fill="#000000">/math4171/src/arcmath</text>
<text text-anchor="middle" x="58" y="-7.1" font-family="InputSans" font-size="8.00" fill="#000000">/MinNelderMead.cpp</text>
</a>
</g>
</g>
<!-- Node14&#45;&gt;Node15 -->
<g id="edge1" class="edge">
<title>Node14&#45;&gt;Node15</title>
<path fill="none" stroke="#191970" d="M105.0628,-65.0628C95.3536,-55.3536 84.4553,-44.4553 75.593,-35.593"/>
<polygon fill="#191970" stroke="#191970" points="102.6563,-67.606 112.2022,-72.2022 107.606,-62.6563 102.6563,-67.606"/>
</g>
<!-- Node16 -->
<g id="node3" class="node">
<title>Node16</title>
<g id="a_node3"><a xlink:href="_main_8cpp.html" target="_top" xlink:title="/home/jacques/repos\l/math4171/src/assignment1\l&#45;src/Main.cpp">
<polygon fill="none" stroke="#000000" points="134.5,-.5 134.5,-35.5 269.5,-35.5 269.5,-.5 134.5,-.5"/>
<text text-anchor="start" x="142.5" y="-25.1" font-family="InputSans" font-size="8.00" fill="#000000">/home/jacques/repos</text>
<text text-anchor="start" x="142.5" y="-16.1" font-family="InputSans" font-size="8.00" fill="#000000">/math4171/src/assignment1</text>
<text text-anchor="middle" x="202" y="-7.1" font-family="InputSans" font-size="8.00" fill="#000000">&#45;src/Main.cpp</text>
</a>
</g>
</g>
<!-- Node14&#45;&gt;Node16 -->
<g id="edge2" class="edge">
<title>Node14&#45;&gt;Node16</title>
<path fill="none" stroke="#191970" d="M154.9372,-65.0628C164.6464,-55.3536 175.5447,-44.4553 184.407,-35.593"/>
<polygon fill="#191970" stroke="#191970" points="152.394,-62.6563 147.7978,-72.2022 157.3437,-67.606 152.394,-62.6563"/>
</g>
</g>
</svg>
