<?xml version="1.0" encoding="UTF-8" standalone="no"?>
<!DOCTYPE svg PUBLIC "-//W3C//DTD SVG 1.1//EN"
 "http://www.w3.org/Graphics/SVG/1.1/DTD/svg11.dtd">
<!-- Generated by graphviz version 2.40.1 (20161225.0304)
 -->
<!-- Title: /home/jacques/repos/math4171/src/arcmath/MinNelderMead.hpp Pages: 1 -->
<svg width="316pt" height="116pt"
 viewBox="0.00 0.00 315.50 116.00" xmlns="http://www.w3.org/2000/svg" xmlns:xlink="http://www.w3.org/1999/xlink">
<g id="graph0" class="graph" transform="scale(1 1) rotate(0) translate(4 112)">
<title>/home/jacques/repos/math4171/src/arcmath/MinNelderMead.hpp</title>
<!-- Node15 -->
<g id="node1" class="node">
<title>Node15</title>
<polygon fill="#bfbfbf" stroke="#000000" points="81,-72.5 81,-107.5 215,-107.5 215,-72.5 81,-72.5"/>
<text text-anchor="start" x="89" y="-97.1" font-family="InputSans" font-size="8.00" fill="#000000">/home/jacques/repos</text>
<text text-anchor="start" x="89" y="-88.1" font-family="InputSans" font-size="8.00" fill="#000000">/math4171/src/arcmath</text>
<text text-anchor="middle" x="148" y="-79.1" font-family="InputSans" font-size="8.00" fill="#000000">/MinNelderMead.hpp</text>
</g>
<!-- Node16 -->
<g id="node2" class="node">
<title>Node16</title>
<g id="a_node2"><a xlink:href="_min_nelder_mead_8cpp.html" target="_top" xlink:title="/home/jacques/repos\l/math4171/src/arcmath\l/MinNelderMead.cpp">
<polygon fill="none" stroke="#000000" points="0,-.5 0,-35.5 134,-35.5 134,-.5 0,-.5"/>
<text text-anchor="start" x="8" y="-25.1" font-family="InputSans" font-size="8.00" fill="#000000">/home/jacques/repos</text>
<text text-anchor="start" x="8" y="-16.1" font-family="InputSans" font-size="8.00" fill="#000000">/math4171/src/arcmath</text>
<text text-anchor="middle" x="67" y="-7.1" font-family="InputSans" font-size="8.00" fill="#000000">/MinNelderMead.cpp</text>
</a>
</g>
</g>
<!-- Node15&#45;&gt;Node16 -->
<g id="edge1" class="edge">
<title>Node15&#45;&gt;Node16</title>
<path fill="none" stroke="#191970" d="M120.2665,-65.348C109.2634,-55.5675 96.86,-44.5422 86.7922,-35.593"/>
<polygon fill="#191970" stroke="#191970" points="118.1781,-68.1745 127.9775,-72.2022 122.8287,-62.9426 118.1781,-68.1745"/>
</g>
<!-- Node17 -->
<g id="node3" class="node">
<title>Node17</title>
<g id="a_node3"><a xlink:href="assignment1-src_2_main_8cpp.html" target="_top" xlink:title="/home/jacques/repos\l/math4171/src/assignment1\l&#45;src/Main.cpp">
<polygon fill="none" stroke="#000000" points="152.5,-.5 152.5,-35.5 307.5,-35.5 307.5,-.5 152.5,-.5"/>
<text text-anchor="start" x="160.5" y="-25.1" font-family="InputSans" font-size="8.00" fill="#000000">/home/jacques/repos</text>
<text text-anchor="start" x="160.5" y="-16.1" font-family="InputSans" font-size="8.00" fill="#000000">/math4171/src/assignment1</text>
<text text-anchor="middle" x="230" y="-7.1" font-family="InputSans" font-size="8.00" fill="#000000">&#45;src/Main.cpp</text>
</a>
</g>
</g>
<!-- Node15&#45;&gt;Node17 -->
<g id="edge2" class="edge">
<title>Node15&#45;&gt;Node17</title>
<path fill="none" stroke="#191970" d="M176.0759,-65.348C187.2148,-55.5675 199.7714,-44.5422 209.9635,-35.593"/>
<polygon fill="#191970" stroke="#191970" points="173.4748,-62.9741 168.2697,-72.2022 178.0934,-68.2342 173.4748,-62.9741"/>
</g>
</g>
</svg>
