<?xml version="1.0" encoding="UTF-8" standalone="no"?>
<!DOCTYPE svg PUBLIC "-//W3C//DTD SVG 1.1//EN"
 "http://www.w3.org/Graphics/SVG/1.1/DTD/svg11.dtd">
<!-- Generated by graphviz version 2.40.1 (20161225.0304)
 -->
<!-- Title: /home/jacques/repos/math4171/src/arcmath/MinNelderMead.hpp Pages: 1 -->
<svg width="475pt" height="206pt"
 viewBox="0.00 0.00 474.50 206.00" xmlns="http://www.w3.org/2000/svg" xmlns:xlink="http://www.w3.org/1999/xlink">
<g id="graph0" class="graph" transform="scale(1 1) rotate(0) translate(4 202)">
<title>/home/jacques/repos/math4171/src/arcmath/MinNelderMead.hpp</title>
<!-- Node0 -->
<g id="node1" class="node">
<title>Node0</title>
<polygon fill="#bfbfbf" stroke="#000000" points="164.5,-162.5 164.5,-197.5 298.5,-197.5 298.5,-162.5 164.5,-162.5"/>
<text text-anchor="start" x="172.5" y="-187.1" font-family="InputSans" font-size="8.00" fill="#000000">/home/jacques/repos</text>
<text text-anchor="start" x="172.5" y="-178.1" font-family="InputSans" font-size="8.00" fill="#000000">/math4171/src/arcmath</text>
<text text-anchor="middle" x="231.5" y="-169.1" font-family="InputSans" font-size="8.00" fill="#000000">/MinNelderMead.hpp</text>
</g>
<!-- Node1 -->
<g id="node2" class="node">
<title>Node1</title>
<polygon fill="none" stroke="#bfbfbf" points="0,-.5 0,-17.5 63,-17.5 63,-.5 0,-.5"/>
<text text-anchor="middle" x="31.5" y="-7.1" font-family="InputSans" font-size="8.00" fill="#000000">algorithm</text>
</g>
<!-- Node0&#45;&gt;Node1 -->
<g id="edge1" class="edge">
<title>Node0&#45;&gt;Node1</title>
<path fill="none" stroke="#191970" d="M205.2984,-162.4516C175.7103,-142.1369 126.7143,-106.9705 88.5,-72 72.4331,-57.297 55.9378,-38.5961 44.8533,-25.4006"/>
<polygon fill="#191970" stroke="#191970" points="47.4841,-23.0899 38.4095,-17.6216 42.0934,-27.5554 47.4841,-23.0899"/>
</g>
<!-- Node2 -->
<g id="node3" class="node">
<title>Node2</title>
<polygon fill="none" stroke="#bfbfbf" points="276.5,-108.5 276.5,-125.5 318.5,-125.5 318.5,-108.5 276.5,-108.5"/>
<text text-anchor="middle" x="297.5" y="-115.1" font-family="InputSans" font-size="8.00" fill="#000000">array</text>
</g>
<!-- Node0&#45;&gt;Node2 -->
<g id="edge2" class="edge">
<title>Node0&#45;&gt;Node2</title>
<path fill="none" stroke="#191970" d="M249.8847,-162.451C259.6586,-153.1213 271.5762,-141.7455 281.0434,-132.7086"/>
<polygon fill="#191970" stroke="#191970" points="283.5017,-135.2006 288.3186,-125.764 278.6684,-130.1371 283.5017,-135.2006"/>
</g>
<!-- Node3 -->
<g id="node4" class="node">
<title>Node3</title>
<polygon fill="none" stroke="#bfbfbf" points="337,-108.5 337,-125.5 402,-125.5 402,-108.5 337,-108.5"/>
<text text-anchor="middle" x="369.5" y="-115.1" font-family="InputSans" font-size="8.00" fill="#000000">functional</text>
</g>
<!-- Node0&#45;&gt;Node3 -->
<g id="edge3" class="edge">
<title>Node0&#45;&gt;Node3</title>
<path fill="none" stroke="#191970" d="M269.9407,-162.451C292.6607,-152.0788 320.9203,-139.1777 341.521,-129.773"/>
<polygon fill="#191970" stroke="#191970" points="343.0365,-132.9287 350.6799,-125.5918 340.1294,-126.5609 343.0365,-132.9287"/>
</g>
<!-- Node4 -->
<g id="node5" class="node">
<title>Node4</title>
<polygon fill="none" stroke="#bfbfbf" points="197,-54.5 197,-71.5 256,-71.5 256,-54.5 197,-54.5"/>
<text text-anchor="middle" x="226.5" y="-61.1" font-family="InputSans" font-size="8.00" fill="#000000">iostream</text>
</g>
<!-- Node0&#45;&gt;Node4 -->
<g id="edge4" class="edge">
<title>Node0&#45;&gt;Node4</title>
<path fill="none" stroke="#191970" d="M215.8858,-162.4004C208.1215,-152.4593 199.5487,-139.372 195.5,-126 190.4486,-109.3164 200.7134,-91.6138 210.7595,-79.2363"/>
<polygon fill="#191970" stroke="#191970" points="213.5057,-81.4138 217.4886,-71.5961 208.2526,-76.7871 213.5057,-81.4138"/>
</g>
<!-- Node5 -->
<g id="node6" class="node">
<title>Node5</title>
<polygon fill="none" stroke="#bfbfbf" points="420.5,-108.5 420.5,-125.5 466.5,-125.5 466.5,-108.5 420.5,-108.5"/>
<text text-anchor="middle" x="443.5" y="-115.1" font-family="InputSans" font-size="8.00" fill="#000000">vector</text>
</g>
<!-- Node0&#45;&gt;Node5 -->
<g id="edge5" class="edge">
<title>Node0&#45;&gt;Node5</title>
<path fill="none" stroke="#191970" d="M290.5538,-162.451C329.358,-150.9196 378.6808,-136.2623 410.6596,-126.7592"/>
<polygon fill="#191970" stroke="#191970" points="411.809,-130.069 420.3976,-123.8653 409.8149,-123.359 411.809,-130.069"/>
</g>
<!-- Node6 -->
<g id="node7" class="node">
<title>Node6</title>
<g id="a_node7"><a xlink:href="_core_math_8hpp.html" target="_top" xlink:title="CoreMath.hpp">
<polygon fill="none" stroke="#000000" points="98,-54.5 98,-71.5 179,-71.5 179,-54.5 98,-54.5"/>
<text text-anchor="middle" x="138.5" y="-61.1" font-family="InputSans" font-size="8.00" fill="#000000">CoreMath.hpp</text>
</a>
</g>
</g>
<!-- Node0&#45;&gt;Node6 -->
<g id="edge6" class="edge">
<title>Node0&#45;&gt;Node6</title>
<path fill="none" stroke="#191970" d="M217.577,-162.4839C199.7627,-140.0724 169.1292,-101.5336 151.6802,-79.5815"/>
<polygon fill="#191970" stroke="#191970" points="154.2491,-77.1885 145.2867,-71.5381 148.7693,-81.5443 154.2491,-77.1885"/>
</g>
<!-- Node10 -->
<g id="node11" class="node">
<title>Node10</title>
<g id="a_node11"><a xlink:href="_vec_8hpp.html" target="_top" xlink:title="Vec.hpp">
<polygon fill="none" stroke="#000000" points="204.5,-108.5 204.5,-125.5 258.5,-125.5 258.5,-108.5 204.5,-108.5"/>
<text text-anchor="middle" x="231.5" y="-115.1" font-family="InputSans" font-size="8.00" fill="#000000">Vec.hpp</text>
</a>
</g>
</g>
<!-- Node0&#45;&gt;Node10 -->
<g id="edge11" class="edge">
<title>Node0&#45;&gt;Node10</title>
<path fill="none" stroke="#191970" d="M231.5,-162.451C231.5,-154.1476 231.5,-144.2234 231.5,-135.7698"/>
<polygon fill="#191970" stroke="#191970" points="235.0001,-135.764 231.5,-125.764 228.0001,-135.7641 235.0001,-135.764"/>
</g>
<!-- Node6&#45;&gt;Node1 -->
<g id="edge7" class="edge">
<title>Node6&#45;&gt;Node1</title>
<path fill="none" stroke="#191970" d="M121.3086,-54.324C104.1491,-45.6641 77.5543,-32.2424 57.7527,-22.249"/>
<polygon fill="#191970" stroke="#191970" points="59.1532,-19.0354 48.6487,-17.6545 55.9993,-25.2847 59.1532,-19.0354"/>
</g>
<!-- Node7 -->
<g id="node8" class="node">
<title>Node7</title>
<polygon fill="none" stroke="#bfbfbf" points="81,-.5 81,-17.5 126,-17.5 126,-.5 81,-.5"/>
<text text-anchor="middle" x="103.5" y="-7.1" font-family="InputSans" font-size="8.00" fill="#000000">cmath</text>
</g>
<!-- Node6&#45;&gt;Node7 -->
<g id="edge8" class="edge">
<title>Node6&#45;&gt;Node7</title>
<path fill="none" stroke="#191970" d="M132.7205,-54.083C127.8276,-46.5341 120.6726,-35.4948 114.6674,-26.2298"/>
<polygon fill="#191970" stroke="#191970" points="117.548,-24.239 109.172,-17.7511 111.674,-28.0463 117.548,-24.239"/>
</g>
<!-- Node8 -->
<g id="node9" class="node">
<title>Node8</title>
<polygon fill="none" stroke="#bfbfbf" points="144.5,-.5 144.5,-17.5 190.5,-17.5 190.5,-.5 144.5,-.5"/>
<text text-anchor="middle" x="167.5" y="-7.1" font-family="InputSans" font-size="8.00" fill="#000000">cfloat</text>
</g>
<!-- Node6&#45;&gt;Node8 -->
<g id="edge9" class="edge">
<title>Node6&#45;&gt;Node8</title>
<path fill="none" stroke="#191970" d="M143.2888,-54.083C147.2584,-46.6913 153.0251,-35.9533 157.9348,-26.8111"/>
<polygon fill="#191970" stroke="#191970" points="161.1525,-28.217 162.8003,-17.7511 154.9855,-24.9051 161.1525,-28.217"/>
</g>
<!-- Node9 -->
<g id="node10" class="node">
<title>Node9</title>
<polygon fill="none" stroke="#bfbfbf" points="208.5,-.5 208.5,-17.5 258.5,-17.5 258.5,-.5 208.5,-.5"/>
<text text-anchor="middle" x="233.5" y="-7.1" font-family="InputSans" font-size="8.00" fill="#000000">cstdint</text>
</g>
<!-- Node6&#45;&gt;Node9 -->
<g id="edge10" class="edge">
<title>Node6&#45;&gt;Node9</title>
<path fill="none" stroke="#191970" d="M153.7634,-54.324C168.7214,-45.8215 191.7548,-32.7288 209.2267,-22.7975"/>
<polygon fill="#191970" stroke="#191970" points="211.3104,-25.639 218.2745,-17.6545 207.8512,-19.5534 211.3104,-25.639"/>
</g>
<!-- Node10&#45;&gt;Node4 -->
<g id="edge13" class="edge">
<title>Node10&#45;&gt;Node4</title>
<path fill="none" stroke="#191970" d="M230.6744,-108.083C230.0191,-101.0059 229.0797,-90.8611 228.258,-81.9865"/>
<polygon fill="#191970" stroke="#191970" points="231.7174,-81.3858 227.3103,-71.7511 224.7473,-82.0312 231.7174,-81.3858"/>
</g>
<!-- Node10&#45;&gt;Node6 -->
<g id="edge14" class="edge">
<title>Node10&#45;&gt;Node6</title>
<path fill="none" stroke="#191970" d="M216.5579,-108.324C201.9148,-99.8215 179.3663,-86.7288 162.2623,-76.7975"/>
<polygon fill="#191970" stroke="#191970" points="163.8104,-73.6491 153.405,-71.6545 160.2954,-79.7027 163.8104,-73.6491"/>
</g>
<!-- Node11 -->
<g id="node12" class="node">
<title>Node11</title>
<polygon fill="none" stroke="#bfbfbf" points="343,-54.5 343,-71.5 396,-71.5 396,-54.5 343,-54.5"/>
<text text-anchor="middle" x="369.5" y="-61.1" font-family="InputSans" font-size="8.00" fill="#000000">cassert</text>
</g>
<!-- Node10&#45;&gt;Node11 -->
<g id="edge12" class="edge">
<title>Node10&#45;&gt;Node11</title>
<path fill="none" stroke="#191970" d="M253.3665,-108.4435C276.2795,-99.4776 312.4753,-85.314 338.3665,-75.1827"/>
<polygon fill="#191970" stroke="#191970" points="339.6988,-78.4198 347.7358,-71.5164 337.1479,-71.9011 339.6988,-78.4198"/>
</g>
<!-- Node12 -->
<g id="node13" class="node">
<title>Node12</title>
<g id="a_node13"><a xlink:href="_vec_8inl.html" target="_top" xlink:title="Vec.inl">
<polygon fill="none" stroke="#000000" points="274,-54.5 274,-71.5 325,-71.5 325,-54.5 274,-54.5"/>
<text text-anchor="middle" x="299.5" y="-61.1" font-family="InputSans" font-size="8.00" fill="#000000">Vec.inl</text>
</a>
</g>
</g>
<!-- Node10&#45;&gt;Node12 -->
<g id="edge15" class="edge">
<title>Node10&#45;&gt;Node12</title>
<path fill="none" stroke="#191970" d="M242.4254,-108.324C252.6746,-100.1849 268.2206,-87.8395 280.501,-78.0874"/>
<polygon fill="#191970" stroke="#191970" points="282.7213,-80.7937 288.3758,-71.8339 278.3681,-75.3119 282.7213,-80.7937"/>
</g>
<!-- Node13 -->
<g id="node14" class="node">
<title>Node13</title>
<polygon fill="none" stroke="#bfbfbf" points="276.5,-.5 276.5,-17.5 322.5,-17.5 322.5,-.5 276.5,-.5"/>
<text text-anchor="middle" x="299.5" y="-7.1" font-family="InputSans" font-size="8.00" fill="#000000">string</text>
</g>
<!-- Node12&#45;&gt;Node13 -->
<g id="edge16" class="edge">
<title>Node12&#45;&gt;Node13</title>
<path fill="none" stroke="#191970" d="M299.5,-54.083C299.5,-47.0059 299.5,-36.8611 299.5,-27.9865"/>
<polygon fill="#191970" stroke="#191970" points="303.0001,-27.751 299.5,-17.7511 296.0001,-27.7511 303.0001,-27.751"/>
</g>
<!-- Node14 -->
<g id="node15" class="node">
<title>Node14</title>
<polygon fill="none" stroke="#bfbfbf" points="341,-.5 341,-17.5 396,-17.5 396,-.5 341,-.5"/>
<text text-anchor="middle" x="368.5" y="-7.1" font-family="InputSans" font-size="8.00" fill="#000000">sstream</text>
</g>
<!-- Node12&#45;&gt;Node14 -->
<g id="edge17" class="edge">
<title>Node12&#45;&gt;Node14</title>
<path fill="none" stroke="#191970" d="M310.586,-54.324C320.986,-46.1849 336.7606,-33.8395 349.2216,-24.0874"/>
<polygon fill="#191970" stroke="#191970" points="351.4943,-26.7533 357.2122,-17.8339 347.1801,-21.2407 351.4943,-26.7533"/>
</g>
</g>
</svg>
