<?xml version="1.0" encoding="UTF-8" standalone="no"?>
<!DOCTYPE svg PUBLIC "-//W3C//DTD SVG 1.1//EN"
 "http://www.w3.org/Graphics/SVG/1.1/DTD/svg11.dtd">
<!-- Generated by graphviz version 2.40.1 (20161225.0304)
 -->
<!-- Title: /home/jacques/repos/math4171/src/arcmath/MinNelderMead.cpp Pages: 1 -->
<svg width="475pt" height="260pt"
 viewBox="0.00 0.00 474.50 260.00" xmlns="http://www.w3.org/2000/svg" xmlns:xlink="http://www.w3.org/1999/xlink">
<g id="graph0" class="graph" transform="scale(1 1) rotate(0) translate(4 256)">
<title>/home/jacques/repos/math4171/src/arcmath/MinNelderMead.cpp</title>
<!-- Node0 -->
<g id="node1" class="node">
<title>Node0</title>
<polygon fill="#bfbfbf" stroke="#000000" points="164.5,-216.5 164.5,-251.5 298.5,-251.5 298.5,-216.5 164.5,-216.5"/>
<text text-anchor="start" x="172.5" y="-241.1" font-family="InputSans" font-size="8.00" fill="#000000">/home/jacques/repos</text>
<text text-anchor="start" x="172.5" y="-232.1" font-family="InputSans" font-size="8.00" fill="#000000">/math4171/src/arcmath</text>
<text text-anchor="middle" x="231.5" y="-223.1" font-family="InputSans" font-size="8.00" fill="#000000">/MinNelderMead.cpp</text>
</g>
<!-- Node1 -->
<g id="node2" class="node">
<title>Node1</title>
<g id="a_node2"><a xlink:href="_min_nelder_mead_8hpp.html" target="_top" xlink:title="MinNelderMead.hpp">
<polygon fill="none" stroke="#000000" points="178,-162.5 178,-179.5 285,-179.5 285,-162.5 178,-162.5"/>
<text text-anchor="middle" x="231.5" y="-169.1" font-family="InputSans" font-size="8.00" fill="#000000">MinNelderMead.hpp</text>
</a>
</g>
</g>
<!-- Node0&#45;&gt;Node1 -->
<g id="edge1" class="edge">
<title>Node0&#45;&gt;Node1</title>
<path fill="none" stroke="#191970" d="M231.5,-216.451C231.5,-208.1476 231.5,-198.2234 231.5,-189.7698"/>
<polygon fill="#191970" stroke="#191970" points="235.0001,-189.764 231.5,-179.764 228.0001,-189.7641 235.0001,-189.764"/>
</g>
<!-- Node2 -->
<g id="node3" class="node">
<title>Node2</title>
<polygon fill="none" stroke="#bfbfbf" points="0,-.5 0,-17.5 63,-17.5 63,-.5 0,-.5"/>
<text text-anchor="middle" x="31.5" y="-7.1" font-family="InputSans" font-size="8.00" fill="#000000">algorithm</text>
</g>
<!-- Node1&#45;&gt;Node2 -->
<g id="edge2" class="edge">
<title>Node1&#45;&gt;Node2</title>
<path fill="none" stroke="#191970" d="M216.9071,-162.4527C190.1113,-146.4303 131.8419,-110.0483 88.5,-72 72.1329,-57.6319 55.6837,-38.8796 44.692,-25.5806"/>
<polygon fill="#191970" stroke="#191970" points="47.3353,-23.2834 38.3128,-17.7295 41.9026,-27.6977 47.3353,-23.2834"/>
</g>
<!-- Node3 -->
<g id="node4" class="node">
<title>Node3</title>
<polygon fill="none" stroke="#bfbfbf" points="276.5,-108.5 276.5,-125.5 318.5,-125.5 318.5,-108.5 276.5,-108.5"/>
<text text-anchor="middle" x="297.5" y="-115.1" font-family="InputSans" font-size="8.00" fill="#000000">array</text>
</g>
<!-- Node1&#45;&gt;Node3 -->
<g id="edge3" class="edge">
<title>Node1&#45;&gt;Node3</title>
<path fill="none" stroke="#191970" d="M242.104,-162.324C251.9562,-154.2631 266.8509,-142.0765 278.7151,-132.3695"/>
<polygon fill="#191970" stroke="#191970" points="281.1798,-134.8752 286.703,-125.8339 276.7471,-129.4575 281.1798,-134.8752"/>
</g>
<!-- Node4 -->
<g id="node5" class="node">
<title>Node4</title>
<polygon fill="none" stroke="#bfbfbf" points="337,-108.5 337,-125.5 402,-125.5 402,-108.5 337,-108.5"/>
<text text-anchor="middle" x="369.5" y="-115.1" font-family="InputSans" font-size="8.00" fill="#000000">functional</text>
</g>
<!-- Node1&#45;&gt;Node4 -->
<g id="edge4" class="edge">
<title>Node1&#45;&gt;Node4</title>
<path fill="none" stroke="#191970" d="M253.3665,-162.4435C276.2795,-153.4776 312.4753,-139.314 338.3665,-129.1827"/>
<polygon fill="#191970" stroke="#191970" points="339.6988,-132.4198 347.7358,-125.5164 337.1479,-125.9011 339.6988,-132.4198"/>
</g>
<!-- Node5 -->
<g id="node6" class="node">
<title>Node5</title>
<polygon fill="none" stroke="#bfbfbf" points="197,-54.5 197,-71.5 256,-71.5 256,-54.5 197,-54.5"/>
<text text-anchor="middle" x="226.5" y="-61.1" font-family="InputSans" font-size="8.00" fill="#000000">iostream</text>
</g>
<!-- Node1&#45;&gt;Node5 -->
<g id="edge5" class="edge">
<title>Node1&#45;&gt;Node5</title>
<path fill="none" stroke="#191970" d="M221.3379,-162.1855C212.5916,-153.8702 200.6,-140.539 195.5,-126 189.73,-109.5511 200.079,-91.821 210.3395,-79.3735"/>
<polygon fill="#191970" stroke="#191970" points="213.165,-81.4649 217.2295,-71.6807 207.9506,-76.7947 213.165,-81.4649"/>
</g>
<!-- Node6 -->
<g id="node7" class="node">
<title>Node6</title>
<polygon fill="none" stroke="#bfbfbf" points="420.5,-108.5 420.5,-125.5 466.5,-125.5 466.5,-108.5 420.5,-108.5"/>
<text text-anchor="middle" x="443.5" y="-115.1" font-family="InputSans" font-size="8.00" fill="#000000">vector</text>
</g>
<!-- Node1&#45;&gt;Node6 -->
<g id="edge6" class="edge">
<title>Node1&#45;&gt;Node6</title>
<path fill="none" stroke="#191970" d="M267.0981,-162.4252C301.4067,-154.0891 355.024,-140.8742 410.4505,-126.2233"/>
<polygon fill="#191970" stroke="#191970" points="411.6824,-129.5176 420.45,-123.5695 409.8868,-122.7518 411.6824,-129.5176"/>
</g>
<!-- Node7 -->
<g id="node8" class="node">
<title>Node7</title>
<g id="a_node8"><a xlink:href="_core_math_8hpp.html" target="_top" xlink:title="CoreMath.hpp">
<polygon fill="none" stroke="#000000" points="98,-54.5 98,-71.5 179,-71.5 179,-54.5 98,-54.5"/>
<text text-anchor="middle" x="138.5" y="-61.1" font-family="InputSans" font-size="8.00" fill="#000000">CoreMath.hpp</text>
</a>
</g>
</g>
<!-- Node1&#45;&gt;Node7 -->
<g id="edge7" class="edge">
<title>Node1&#45;&gt;Node7</title>
<path fill="none" stroke="#191970" d="M223.5135,-162.4857C215.1571,-153.5189 201.7185,-138.9343 190.5,-126 177.0609,-110.5055 162.2101,-92.4109 151.8319,-79.5993"/>
<polygon fill="#191970" stroke="#191970" points="154.4376,-77.2549 145.4339,-71.6706 148.99,-81.6509 154.4376,-77.2549"/>
</g>
<!-- Node11 -->
<g id="node12" class="node">
<title>Node11</title>
<g id="a_node12"><a xlink:href="_vec_8hpp.html" target="_top" xlink:title="Vec.hpp">
<polygon fill="none" stroke="#000000" points="204.5,-108.5 204.5,-125.5 258.5,-125.5 258.5,-108.5 204.5,-108.5"/>
<text text-anchor="middle" x="231.5" y="-115.1" font-family="InputSans" font-size="8.00" fill="#000000">Vec.hpp</text>
</a>
</g>
</g>
<!-- Node1&#45;&gt;Node11 -->
<g id="edge12" class="edge">
<title>Node1&#45;&gt;Node11</title>
<path fill="none" stroke="#191970" d="M231.5,-162.083C231.5,-155.0059 231.5,-144.8611 231.5,-135.9865"/>
<polygon fill="#191970" stroke="#191970" points="235.0001,-135.751 231.5,-125.7511 228.0001,-135.7511 235.0001,-135.751"/>
</g>
<!-- Node7&#45;&gt;Node2 -->
<g id="edge8" class="edge">
<title>Node7&#45;&gt;Node2</title>
<path fill="none" stroke="#191970" d="M121.3086,-54.324C104.1491,-45.6641 77.5543,-32.2424 57.7527,-22.249"/>
<polygon fill="#191970" stroke="#191970" points="59.1532,-19.0354 48.6487,-17.6545 55.9993,-25.2847 59.1532,-19.0354"/>
</g>
<!-- Node8 -->
<g id="node9" class="node">
<title>Node8</title>
<polygon fill="none" stroke="#bfbfbf" points="81,-.5 81,-17.5 126,-17.5 126,-.5 81,-.5"/>
<text text-anchor="middle" x="103.5" y="-7.1" font-family="InputSans" font-size="8.00" fill="#000000">cmath</text>
</g>
<!-- Node7&#45;&gt;Node8 -->
<g id="edge9" class="edge">
<title>Node7&#45;&gt;Node8</title>
<path fill="none" stroke="#191970" d="M132.7205,-54.083C127.8276,-46.5341 120.6726,-35.4948 114.6674,-26.2298"/>
<polygon fill="#191970" stroke="#191970" points="117.548,-24.239 109.172,-17.7511 111.674,-28.0463 117.548,-24.239"/>
</g>
<!-- Node9 -->
<g id="node10" class="node">
<title>Node9</title>
<polygon fill="none" stroke="#bfbfbf" points="144.5,-.5 144.5,-17.5 190.5,-17.5 190.5,-.5 144.5,-.5"/>
<text text-anchor="middle" x="167.5" y="-7.1" font-family="InputSans" font-size="8.00" fill="#000000">cfloat</text>
</g>
<!-- Node7&#45;&gt;Node9 -->
<g id="edge10" class="edge">
<title>Node7&#45;&gt;Node9</title>
<path fill="none" stroke="#191970" d="M143.2888,-54.083C147.2584,-46.6913 153.0251,-35.9533 157.9348,-26.8111"/>
<polygon fill="#191970" stroke="#191970" points="161.1525,-28.217 162.8003,-17.7511 154.9855,-24.9051 161.1525,-28.217"/>
</g>
<!-- Node10 -->
<g id="node11" class="node">
<title>Node10</title>
<polygon fill="none" stroke="#bfbfbf" points="208.5,-.5 208.5,-17.5 258.5,-17.5 258.5,-.5 208.5,-.5"/>
<text text-anchor="middle" x="233.5" y="-7.1" font-family="InputSans" font-size="8.00" fill="#000000">cstdint</text>
</g>
<!-- Node7&#45;&gt;Node10 -->
<g id="edge11" class="edge">
<title>Node7&#45;&gt;Node10</title>
<path fill="none" stroke="#191970" d="M153.7634,-54.324C168.7214,-45.8215 191.7548,-32.7288 209.2267,-22.7975"/>
<polygon fill="#191970" stroke="#191970" points="211.3104,-25.639 218.2745,-17.6545 207.8512,-19.5534 211.3104,-25.639"/>
</g>
<!-- Node11&#45;&gt;Node5 -->
<g id="edge14" class="edge">
<title>Node11&#45;&gt;Node5</title>
<path fill="none" stroke="#191970" d="M230.6744,-108.083C230.0191,-101.0059 229.0797,-90.8611 228.258,-81.9865"/>
<polygon fill="#191970" stroke="#191970" points="231.7174,-81.3858 227.3103,-71.7511 224.7473,-82.0312 231.7174,-81.3858"/>
</g>
<!-- Node11&#45;&gt;Node7 -->
<g id="edge15" class="edge">
<title>Node11&#45;&gt;Node7</title>
<path fill="none" stroke="#191970" d="M216.5579,-108.324C201.9148,-99.8215 179.3663,-86.7288 162.2623,-76.7975"/>
<polygon fill="#191970" stroke="#191970" points="163.8104,-73.6491 153.405,-71.6545 160.2954,-79.7027 163.8104,-73.6491"/>
</g>
<!-- Node12 -->
<g id="node13" class="node">
<title>Node12</title>
<polygon fill="none" stroke="#bfbfbf" points="343,-54.5 343,-71.5 396,-71.5 396,-54.5 343,-54.5"/>
<text text-anchor="middle" x="369.5" y="-61.1" font-family="InputSans" font-size="8.00" fill="#000000">cassert</text>
</g>
<!-- Node11&#45;&gt;Node12 -->
<g id="edge13" class="edge">
<title>Node11&#45;&gt;Node12</title>
<path fill="none" stroke="#191970" d="M253.3665,-108.4435C276.2795,-99.4776 312.4753,-85.314 338.3665,-75.1827"/>
<polygon fill="#191970" stroke="#191970" points="339.6988,-78.4198 347.7358,-71.5164 337.1479,-71.9011 339.6988,-78.4198"/>
</g>
<!-- Node13 -->
<g id="node14" class="node">
<title>Node13</title>
<g id="a_node14"><a xlink:href="_vec_8inl.html" target="_top" xlink:title="Vec.inl">
<polygon fill="none" stroke="#000000" points="274,-54.5 274,-71.5 325,-71.5 325,-54.5 274,-54.5"/>
<text text-anchor="middle" x="299.5" y="-61.1" font-family="InputSans" font-size="8.00" fill="#000000">Vec.inl</text>
</a>
</g>
</g>
<!-- Node11&#45;&gt;Node13 -->
<g id="edge16" class="edge">
<title>Node11&#45;&gt;Node13</title>
<path fill="none" stroke="#191970" d="M242.4254,-108.324C252.6746,-100.1849 268.2206,-87.8395 280.501,-78.0874"/>
<polygon fill="#191970" stroke="#191970" points="282.7213,-80.7937 288.3758,-71.8339 278.3681,-75.3119 282.7213,-80.7937"/>
</g>
<!-- Node14 -->
<g id="node15" class="node">
<title>Node14</title>
<polygon fill="none" stroke="#bfbfbf" points="276.5,-.5 276.5,-17.5 322.5,-17.5 322.5,-.5 276.5,-.5"/>
<text text-anchor="middle" x="299.5" y="-7.1" font-family="InputSans" font-size="8.00" fill="#000000">string</text>
</g>
<!-- Node13&#45;&gt;Node14 -->
<g id="edge17" class="edge">
<title>Node13&#45;&gt;Node14</title>
<path fill="none" stroke="#191970" d="M299.5,-54.083C299.5,-47.0059 299.5,-36.8611 299.5,-27.9865"/>
<polygon fill="#191970" stroke="#191970" points="303.0001,-27.751 299.5,-17.7511 296.0001,-27.7511 303.0001,-27.751"/>
</g>
<!-- Node15 -->
<g id="node16" class="node">
<title>Node15</title>
<polygon fill="none" stroke="#bfbfbf" points="341,-.5 341,-17.5 396,-17.5 396,-.5 341,-.5"/>
<text text-anchor="middle" x="368.5" y="-7.1" font-family="InputSans" font-size="8.00" fill="#000000">sstream</text>
</g>
<!-- Node13&#45;&gt;Node15 -->
<g id="edge18" class="edge">
<title>Node13&#45;&gt;Node15</title>
<path fill="none" stroke="#191970" d="M310.586,-54.324C320.986,-46.1849 336.7606,-33.8395 349.2216,-24.0874"/>
<polygon fill="#191970" stroke="#191970" points="351.4943,-26.7533 357.2122,-17.8339 347.1801,-21.2407 351.4943,-26.7533"/>
</g>
</g>
</svg>
