<?xml version="1.0" encoding="UTF-8" standalone="no"?>
<!DOCTYPE svg PUBLIC "-//W3C//DTD SVG 1.1//EN"
 "http://www.w3.org/Graphics/SVG/1.1/DTD/svg11.dtd">
<!-- Generated by graphviz version 2.40.1 (20161225.0304)
 -->
<!-- Title: /home/jacques/repos/math4171/src/arcmath/MinNelderMead.cpp Pages: 1 -->
<svg width="386pt" height="260pt"
 viewBox="0.00 0.00 385.50 260.00" xmlns="http://www.w3.org/2000/svg" xmlns:xlink="http://www.w3.org/1999/xlink">
<g id="graph0" class="graph" transform="scale(1 1) rotate(0) translate(4 256)">
<title>/home/jacques/repos/math4171/src/arcmath/MinNelderMead.cpp</title>
<!-- Node0 -->
<g id="node1" class="node">
<title>Node0</title>
<polygon fill="#bfbfbf" stroke="#000000" points="133.5,-216.5 133.5,-251.5 249.5,-251.5 249.5,-216.5 133.5,-216.5"/>
<text text-anchor="start" x="141.5" y="-241.1" font-family="InputSans" font-size="8.00" fill="#000000">/home/jacques/repos</text>
<text text-anchor="start" x="141.5" y="-232.1" font-family="InputSans" font-size="8.00" fill="#000000">/math4171/src/arcmath</text>
<text text-anchor="middle" x="191.5" y="-223.1" font-family="InputSans" font-size="8.00" fill="#000000">/MinNelderMead.cpp</text>
</g>
<!-- Node1 -->
<g id="node2" class="node">
<title>Node1</title>
<g id="a_node2"><a xlink:href="_min_nelder_mead_8hpp.html" target="_top" xlink:title="MinNelderMead.hpp">
<polygon fill="none" stroke="#000000" points="141.5,-162.5 141.5,-179.5 241.5,-179.5 241.5,-162.5 141.5,-162.5"/>
<text text-anchor="middle" x="191.5" y="-169.1" font-family="InputSans" font-size="8.00" fill="#000000">MinNelderMead.hpp</text>
</a>
</g>
</g>
<!-- Node0&#45;&gt;Node1 -->
<g id="edge1" class="edge">
<title>Node0&#45;&gt;Node1</title>
<path fill="none" stroke="#191970" d="M191.5,-216.451C191.5,-208.1476 191.5,-198.2234 191.5,-189.7698"/>
<polygon fill="#191970" stroke="#191970" points="195.0001,-189.764 191.5,-179.764 188.0001,-189.7641 195.0001,-189.764"/>
</g>
<!-- Node2 -->
<g id="node3" class="node">
<title>Node2</title>
<polygon fill="none" stroke="#bfbfbf" points="0,-.5 0,-17.5 57,-17.5 57,-.5 0,-.5"/>
<text text-anchor="middle" x="28.5" y="-7.1" font-family="InputSans" font-size="8.00" fill="#000000">algorithm</text>
</g>
<!-- Node1&#45;&gt;Node2 -->
<g id="edge2" class="edge">
<title>Node1&#45;&gt;Node2</title>
<path fill="none" stroke="#191970" d="M180.9203,-162.488C160.599,-145.9424 115.0588,-107.9077 80.5,-72 66.277,-57.2218 51.528,-39.0342 41.3868,-26.0061"/>
<polygon fill="#191970" stroke="#191970" points="44.0359,-23.7094 35.1652,-17.9162 38.4871,-27.9768 44.0359,-23.7094"/>
</g>
<!-- Node3 -->
<g id="node4" class="node">
<title>Node3</title>
<polygon fill="none" stroke="#bfbfbf" points="261.5,-108.5 261.5,-125.5 301.5,-125.5 301.5,-108.5 261.5,-108.5"/>
<text text-anchor="middle" x="281.5" y="-115.1" font-family="InputSans" font-size="8.00" fill="#000000">array</text>
</g>
<!-- Node1&#45;&gt;Node3 -->
<g id="edge3" class="edge">
<title>Node1&#45;&gt;Node3</title>
<path fill="none" stroke="#191970" d="M205.9601,-162.324C219.9996,-153.9002 241.5485,-140.9709 258.0431,-131.0741"/>
<polygon fill="#191970" stroke="#191970" points="260.3016,-133.8007 267.0758,-125.6545 256.7001,-127.7983 260.3016,-133.8007"/>
</g>
<!-- Node4 -->
<g id="node5" class="node">
<title>Node4</title>
<polygon fill="none" stroke="#bfbfbf" points="319.5,-108.5 319.5,-125.5 377.5,-125.5 377.5,-108.5 319.5,-108.5"/>
<text text-anchor="middle" x="348.5" y="-115.1" font-family="InputSans" font-size="8.00" fill="#000000">functional</text>
</g>
<!-- Node1&#45;&gt;Node4 -->
<g id="edge4" class="edge">
<title>Node1&#45;&gt;Node4</title>
<path fill="none" stroke="#191970" d="M216.3771,-162.4435C242.7893,-153.3591 284.7151,-138.9388 314.2416,-128.7831"/>
<polygon fill="#191970" stroke="#191970" points="315.4214,-132.0787 323.7393,-125.5164 313.1446,-125.4593 315.4214,-132.0787"/>
</g>
<!-- Node5 -->
<g id="node6" class="node">
<title>Node5</title>
<polygon fill="none" stroke="#bfbfbf" points="183.5,-54.5 183.5,-71.5 237.5,-71.5 237.5,-54.5 183.5,-54.5"/>
<text text-anchor="middle" x="210.5" y="-61.1" font-family="InputSans" font-size="8.00" fill="#000000">iostream</text>
</g>
<!-- Node1&#45;&gt;Node5 -->
<g id="edge5" class="edge">
<title>Node1&#45;&gt;Node5</title>
<path fill="none" stroke="#191970" d="M188.5336,-162.2876C184.7929,-149.9875 179.4271,-126.9203 184.5,-108 187.1536,-98.1031 192.5693,-88.1315 197.7743,-80.099"/>
<polygon fill="#191970" stroke="#191970" points="200.7891,-81.8935 203.6097,-71.6811 195.0361,-77.9055 200.7891,-81.8935"/>
</g>
<!-- Node6 -->
<g id="node7" class="node">
<title>Node6</title>
<g id="a_node7"><a xlink:href="_core_math_8hpp.html" target="_top" xlink:title="CoreMath.hpp">
<polygon fill="none" stroke="#000000" points="89.5,-54.5 89.5,-71.5 165.5,-71.5 165.5,-54.5 89.5,-54.5"/>
<text text-anchor="middle" x="127.5" y="-61.1" font-family="InputSans" font-size="8.00" fill="#000000">CoreMath.hpp</text>
</a>
</g>
</g>
<!-- Node1&#45;&gt;Node6 -->
<g id="edge6" class="edge">
<title>Node1&#45;&gt;Node6</title>
<path fill="none" stroke="#191970" d="M186.2626,-162.1619C175.7093,-144.3533 151.7169,-103.8661 137.8736,-80.5054"/>
<polygon fill="#191970" stroke="#191970" points="140.74,-78.477 132.6309,-71.6584 134.7179,-82.0456 140.74,-78.477"/>
</g>
<!-- Node10 -->
<g id="node11" class="node">
<title>Node10</title>
<g id="a_node11"><a xlink:href="_vec_8hpp.html" target="_top" xlink:title="Vec.hpp">
<polygon fill="none" stroke="#000000" points="193.5,-108.5 193.5,-125.5 243.5,-125.5 243.5,-108.5 193.5,-108.5"/>
<text text-anchor="middle" x="218.5" y="-115.1" font-family="InputSans" font-size="8.00" fill="#000000">Vec.hpp</text>
</a>
</g>
</g>
<!-- Node1&#45;&gt;Node10 -->
<g id="edge11" class="edge">
<title>Node1&#45;&gt;Node10</title>
<path fill="none" stroke="#191970" d="M195.9585,-162.083C199.6543,-154.6913 205.0234,-143.9533 209.5945,-134.8111"/>
<polygon fill="#191970" stroke="#191970" points="212.7828,-136.2606 214.1245,-125.7511 206.5218,-133.1301 212.7828,-136.2606"/>
</g>
<!-- Node6&#45;&gt;Node2 -->
<g id="edge7" class="edge">
<title>Node6&#45;&gt;Node2</title>
<path fill="none" stroke="#191970" d="M111.5939,-54.324C95.8618,-45.7428 71.5577,-32.486 53.2911,-22.5224"/>
<polygon fill="#191970" stroke="#191970" points="54.8216,-19.3704 44.3666,-17.6545 51.4696,-25.5157 54.8216,-19.3704"/>
</g>
<!-- Node7 -->
<g id="node8" class="node">
<title>Node7</title>
<polygon fill="none" stroke="#bfbfbf" points="75,-.5 75,-17.5 118,-17.5 118,-.5 75,-.5"/>
<text text-anchor="middle" x="96.5" y="-7.1" font-family="InputSans" font-size="8.00" fill="#000000">cmath</text>
</g>
<!-- Node6&#45;&gt;Node7 -->
<g id="edge8" class="edge">
<title>Node6&#45;&gt;Node7</title>
<path fill="none" stroke="#191970" d="M122.381,-54.083C118.0925,-46.6127 111.8418,-35.7244 106.5577,-26.5199"/>
<polygon fill="#191970" stroke="#191970" points="109.5379,-24.6811 101.5238,-17.7511 103.4671,-28.1662 109.5379,-24.6811"/>
</g>
<!-- Node8 -->
<g id="node9" class="node">
<title>Node8</title>
<polygon fill="none" stroke="#bfbfbf" points="136.5,-.5 136.5,-17.5 176.5,-17.5 176.5,-.5 136.5,-.5"/>
<text text-anchor="middle" x="156.5" y="-7.1" font-family="InputSans" font-size="8.00" fill="#000000">cfloat</text>
</g>
<!-- Node6&#45;&gt;Node8 -->
<g id="edge9" class="edge">
<title>Node6&#45;&gt;Node8</title>
<path fill="none" stroke="#191970" d="M132.2888,-54.083C136.2584,-46.6913 142.0251,-35.9533 146.9348,-26.8111"/>
<polygon fill="#191970" stroke="#191970" points="150.1525,-28.217 151.8003,-17.7511 143.9855,-24.9051 150.1525,-28.217"/>
</g>
<!-- Node9 -->
<g id="node10" class="node">
<title>Node9</title>
<polygon fill="none" stroke="#bfbfbf" points="194.5,-.5 194.5,-17.5 238.5,-17.5 238.5,-.5 194.5,-.5"/>
<text text-anchor="middle" x="216.5" y="-7.1" font-family="InputSans" font-size="8.00" fill="#000000">cstdint</text>
</g>
<!-- Node6&#45;&gt;Node9 -->
<g id="edge10" class="edge">
<title>Node6&#45;&gt;Node9</title>
<path fill="none" stroke="#191970" d="M141.7994,-54.324C155.6829,-45.9002 176.9924,-32.9709 193.3037,-23.0741"/>
<polygon fill="#191970" stroke="#191970" points="195.5022,-25.8341 202.2361,-17.6545 191.8711,-19.8495 195.5022,-25.8341"/>
</g>
<!-- Node10&#45;&gt;Node5 -->
<g id="edge13" class="edge">
<title>Node10&#45;&gt;Node5</title>
<path fill="none" stroke="#191970" d="M217.179,-108.083C216.1189,-100.9272 214.5941,-90.6353 213.2691,-81.6911"/>
<polygon fill="#191970" stroke="#191970" points="216.7242,-81.1302 211.7965,-71.7511 209.7998,-82.1561 216.7242,-81.1302"/>
</g>
<!-- Node10&#45;&gt;Node6 -->
<g id="edge14" class="edge">
<title>Node10&#45;&gt;Node6</title>
<path fill="none" stroke="#191970" d="M203.8793,-108.324C189.5511,-99.8215 167.4875,-86.7288 150.7513,-76.7975"/>
<polygon fill="#191970" stroke="#191970" points="152.4704,-73.7478 142.0844,-71.6545 148.8982,-79.7677 152.4704,-73.7478"/>
</g>
<!-- Node11 -->
<g id="node12" class="node">
<title>Node11</title>
<polygon fill="none" stroke="#bfbfbf" points="318,-54.5 318,-71.5 365,-71.5 365,-54.5 318,-54.5"/>
<text text-anchor="middle" x="341.5" y="-61.1" font-family="InputSans" font-size="8.00" fill="#000000">cassert</text>
</g>
<!-- Node10&#45;&gt;Node11 -->
<g id="edge12" class="edge">
<title>Node10&#45;&gt;Node11</title>
<path fill="none" stroke="#191970" d="M237.9897,-108.4435C258.1422,-99.5961 289.8229,-85.6875 312.8308,-75.5865"/>
<polygon fill="#191970" stroke="#191970" points="314.352,-78.7411 322.1015,-71.5164 311.538,-72.3316 314.352,-78.7411"/>
</g>
<!-- Node12 -->
<g id="node13" class="node">
<title>Node12</title>
<g id="a_node13"><a xlink:href="_vec_8inl.html" target="_top" xlink:title="Vec.inl">
<polygon fill="none" stroke="#000000" points="255.5,-54.5 255.5,-71.5 299.5,-71.5 299.5,-54.5 255.5,-54.5"/>
<text text-anchor="middle" x="277.5" y="-61.1" font-family="InputSans" font-size="8.00" fill="#000000">Vec.inl</text>
</a>
</g>
</g>
<!-- Node10&#45;&gt;Node12 -->
<g id="edge15" class="edge">
<title>Node10&#45;&gt;Node12</title>
<path fill="none" stroke="#191970" d="M227.9794,-108.324C236.7011,-100.3414 249.8435,-88.3128 260.3978,-78.6529"/>
<polygon fill="#191970" stroke="#191970" points="262.8345,-81.1674 267.8481,-71.8339 258.1083,-76.0036 262.8345,-81.1674"/>
</g>
<!-- Node13 -->
<g id="node14" class="node">
<title>Node13</title>
<polygon fill="none" stroke="#bfbfbf" points="257,-.5 257,-17.5 298,-17.5 298,-.5 257,-.5"/>
<text text-anchor="middle" x="277.5" y="-7.1" font-family="InputSans" font-size="8.00" fill="#000000">string</text>
</g>
<!-- Node12&#45;&gt;Node13 -->
<g id="edge16" class="edge">
<title>Node12&#45;&gt;Node13</title>
<path fill="none" stroke="#191970" d="M277.5,-54.083C277.5,-47.0059 277.5,-36.8611 277.5,-27.9865"/>
<polygon fill="#191970" stroke="#191970" points="281.0001,-27.751 277.5,-17.7511 274.0001,-27.7511 281.0001,-27.751"/>
</g>
<!-- Node14 -->
<g id="node15" class="node">
<title>Node14</title>
<polygon fill="none" stroke="#bfbfbf" points="316,-.5 316,-17.5 367,-17.5 367,-.5 316,-.5"/>
<text text-anchor="middle" x="341.5" y="-7.1" font-family="InputSans" font-size="8.00" fill="#000000">sstream</text>
</g>
<!-- Node12&#45;&gt;Node14 -->
<g id="edge17" class="edge">
<title>Node12&#45;&gt;Node14</title>
<path fill="none" stroke="#191970" d="M287.7827,-54.324C297.3363,-46.2631 311.7797,-34.0765 323.2843,-24.3695"/>
<polygon fill="#191970" stroke="#191970" points="325.6443,-26.9577 331.0302,-17.8339 321.1302,-21.6076 325.6443,-26.9577"/>
</g>
</g>
</svg>
