<?xml version="1.0" encoding="UTF-8" standalone="no"?>
<!DOCTYPE svg PUBLIC "-//W3C//DTD SVG 1.1//EN"
 "http://www.w3.org/Graphics/SVG/1.1/DTD/svg11.dtd">
<!-- Generated by graphviz version 2.40.1 (20161225.0304)
 -->
<!-- Title: /home/jacques/repos/math4171/src/arcpython/PythonString.cpp Pages: 1 -->
<svg width="280pt" height="206pt"
 viewBox="0.00 0.00 279.50 206.00" xmlns="http://www.w3.org/2000/svg" xmlns:xlink="http://www.w3.org/1999/xlink">
<g id="graph0" class="graph" transform="scale(1 1) rotate(0) translate(4 202)">
<title>/home/jacques/repos/math4171/src/arcpython/PythonString.cpp</title>
<!-- Node0 -->
<g id="node1" class="node">
<title>Node0</title>
<polygon fill="#bfbfbf" stroke="#000000" points="49.5,-162.5 49.5,-197.5 189.5,-197.5 189.5,-162.5 49.5,-162.5"/>
<text text-anchor="start" x="57.5" y="-187.1" font-family="InputSans" font-size="8.00" fill="#000000">/home/jacques/repos</text>
<text text-anchor="start" x="57.5" y="-178.1" font-family="InputSans" font-size="8.00" fill="#000000">/math4171/src/arcpython</text>
<text text-anchor="middle" x="119.5" y="-169.1" font-family="InputSans" font-size="8.00" fill="#000000">/PythonString.cpp</text>
</g>
<!-- Node1 -->
<g id="node2" class="node">
<title>Node1</title>
<g id="a_node2"><a xlink:href="_python_string_8hpp.html" target="_top" xlink:title="PythonString.hpp">
<polygon fill="none" stroke="#000000" points="70.5,-108.5 70.5,-125.5 168.5,-125.5 168.5,-108.5 70.5,-108.5"/>
<text text-anchor="middle" x="119.5" y="-115.1" font-family="InputSans" font-size="8.00" fill="#000000">PythonString.hpp</text>
</a>
</g>
</g>
<!-- Node0&#45;&gt;Node1 -->
<g id="edge1" class="edge">
<title>Node0&#45;&gt;Node1</title>
<path fill="none" stroke="#191970" d="M119.5,-162.451C119.5,-154.1476 119.5,-144.2234 119.5,-135.7698"/>
<polygon fill="#191970" stroke="#191970" points="123.0001,-135.764 119.5,-125.764 116.0001,-135.7641 123.0001,-135.764"/>
</g>
<!-- Node2 -->
<g id="node3" class="node">
<title>Node2</title>
<polygon fill="none" stroke="#bfbfbf" points="0,-54.5 0,-71.5 53,-71.5 53,-54.5 0,-54.5"/>
<text text-anchor="middle" x="26.5" y="-61.1" font-family="InputSans" font-size="8.00" fill="#000000">cassert</text>
</g>
<!-- Node1&#45;&gt;Node2 -->
<g id="edge2" class="edge">
<title>Node1&#45;&gt;Node2</title>
<path fill="none" stroke="#191970" d="M104.5579,-108.324C89.9148,-99.8215 67.3663,-86.7288 50.2623,-76.7975"/>
<polygon fill="#191970" stroke="#191970" points="51.8104,-73.6491 41.405,-71.6545 48.2954,-79.7027 51.8104,-73.6491"/>
</g>
<!-- Node3 -->
<g id="node4" class="node">
<title>Node3</title>
<polygon fill="none" stroke="#bfbfbf" points="71.5,-54.5 71.5,-71.5 117.5,-71.5 117.5,-54.5 71.5,-54.5"/>
<text text-anchor="middle" x="94.5" y="-61.1" font-family="InputSans" font-size="8.00" fill="#000000">string</text>
</g>
<!-- Node1&#45;&gt;Node3 -->
<g id="edge3" class="edge">
<title>Node1&#45;&gt;Node3</title>
<path fill="none" stroke="#191970" d="M115.3718,-108.083C111.9861,-100.77 107.084,-90.1814 102.8812,-81.1034"/>
<polygon fill="#191970" stroke="#191970" points="105.9289,-79.3553 98.5514,-71.7511 99.5766,-82.2962 105.9289,-79.3553"/>
</g>
<!-- Node4 -->
<g id="node5" class="node">
<title>Node4</title>
<polygon fill="none" stroke="#bfbfbf" points="118,-.5 118,-17.5 175,-17.5 175,-.5 118,-.5"/>
<text text-anchor="middle" x="146.5" y="-7.1" font-family="InputSans" font-size="8.00" fill="#000000">Python.h</text>
</g>
<!-- Node1&#45;&gt;Node4 -->
<g id="edge4" class="edge">
<title>Node1&#45;&gt;Node4</title>
<path fill="none" stroke="#191970" d="M121.7095,-108.1619C126.1021,-90.5918 136.0134,-50.9465 141.8867,-27.4532"/>
<polygon fill="#191970" stroke="#191970" points="145.3055,-28.2087 144.3354,-17.6584 138.5145,-26.5109 145.3055,-28.2087"/>
</g>
<!-- Node5 -->
<g id="node6" class="node">
<title>Node5</title>
<g id="a_node6"><a xlink:href="_python_object_8hpp.html" target="_top" xlink:title="PythonObject.hpp">
<polygon fill="none" stroke="#000000" points="173.5,-54.5 173.5,-71.5 271.5,-71.5 271.5,-54.5 173.5,-54.5"/>
<text text-anchor="middle" x="222.5" y="-61.1" font-family="InputSans" font-size="8.00" fill="#000000">PythonObject.hpp</text>
</a>
</g>
</g>
<!-- Node1&#45;&gt;Node5 -->
<g id="edge5" class="edge">
<title>Node1&#45;&gt;Node5</title>
<path fill="none" stroke="#191970" d="M136.0487,-108.324C152.4916,-99.7034 177.9348,-86.3643 196.9684,-76.3855"/>
<polygon fill="#191970" stroke="#191970" points="198.7609,-79.3977 205.9923,-71.6545 195.5105,-73.198 198.7609,-79.3977"/>
</g>
<!-- Node5&#45;&gt;Node4 -->
<g id="edge7" class="edge">
<title>Node5&#45;&gt;Node4</title>
<path fill="none" stroke="#191970" d="M210.2893,-54.324C198.7241,-46.1066 181.1246,-33.6017 167.3393,-23.8069"/>
<polygon fill="#191970" stroke="#191970" points="169.112,-20.7729 158.9329,-17.8339 165.0575,-26.4791 169.112,-20.7729"/>
</g>
<!-- Node6 -->
<g id="node7" class="node">
<title>Node6</title>
<polygon fill="none" stroke="#bfbfbf" points="193,-.5 193,-17.5 252,-17.5 252,-.5 193,-.5"/>
<text text-anchor="middle" x="222.5" y="-7.1" font-family="InputSans" font-size="8.00" fill="#000000">iostream</text>
</g>
<!-- Node5&#45;&gt;Node6 -->
<g id="edge6" class="edge">
<title>Node5&#45;&gt;Node6</title>
<path fill="none" stroke="#191970" d="M222.5,-54.083C222.5,-47.0059 222.5,-36.8611 222.5,-27.9865"/>
<polygon fill="#191970" stroke="#191970" points="226.0001,-27.751 222.5,-17.7511 219.0001,-27.7511 226.0001,-27.751"/>
</g>
</g>
</svg>
