<?xml version="1.0" encoding="UTF-8" standalone="no"?>
<!DOCTYPE svg PUBLIC "-//W3C//DTD SVG 1.1//EN"
 "http://www.w3.org/Graphics/SVG/1.1/DTD/svg11.dtd">
<!-- Generated by graphviz version 2.40.1 (20161225.0304)
 -->
<!-- Title: /home/jacques/repos/math4171/src/arcpython/PythonObject.cpp Pages: 1 -->
<svg width="132pt" height="152pt"
 viewBox="0.00 0.00 132.00 152.00" xmlns="http://www.w3.org/2000/svg" xmlns:xlink="http://www.w3.org/1999/xlink">
<g id="graph0" class="graph" transform="scale(1 1) rotate(0) translate(4 148)">
<title>/home/jacques/repos/math4171/src/arcpython/PythonObject.cpp</title>
<!-- Node0 -->
<g id="node1" class="node">
<title>Node0</title>
<polygon fill="#bfbfbf" stroke="#000000" points="0,-108.5 0,-143.5 124,-143.5 124,-108.5 0,-108.5"/>
<text text-anchor="start" x="8" y="-133.1" font-family="InputSans" font-size="8.00" fill="#000000">/home/jacques/repos</text>
<text text-anchor="start" x="8" y="-124.1" font-family="InputSans" font-size="8.00" fill="#000000">/math4171/src/arcpython</text>
<text text-anchor="middle" x="62" y="-115.1" font-family="InputSans" font-size="8.00" fill="#000000">/PythonObject.cpp</text>
</g>
<!-- Node1 -->
<g id="node2" class="node">
<title>Node1</title>
<g id="a_node2"><a xlink:href="_python_object_8hpp.html" target="_top" xlink:title="PythonObject.hpp">
<polygon fill="none" stroke="#000000" points="16,-54.5 16,-71.5 108,-71.5 108,-54.5 16,-54.5"/>
<text text-anchor="middle" x="62" y="-61.1" font-family="InputSans" font-size="8.00" fill="#000000">PythonObject.hpp</text>
</a>
</g>
</g>
<!-- Node0&#45;&gt;Node1 -->
<g id="edge1" class="edge">
<title>Node0&#45;&gt;Node1</title>
<path fill="none" stroke="#191970" d="M62,-108.451C62,-100.1476 62,-90.2234 62,-81.7698"/>
<polygon fill="#191970" stroke="#191970" points="65.5001,-81.764 62,-71.764 58.5001,-81.7641 65.5001,-81.764"/>
</g>
<!-- Node2 -->
<g id="node3" class="node">
<title>Node2</title>
<polygon fill="none" stroke="#bfbfbf" points="35,-.5 35,-17.5 89,-17.5 89,-.5 35,-.5"/>
<text text-anchor="middle" x="62" y="-7.1" font-family="InputSans" font-size="8.00" fill="#000000">Python.h</text>
</g>
<!-- Node1&#45;&gt;Node2 -->
<g id="edge2" class="edge">
<title>Node1&#45;&gt;Node2</title>
<path fill="none" stroke="#191970" d="M62,-54.083C62,-47.0059 62,-36.8611 62,-27.9865"/>
<polygon fill="#191970" stroke="#191970" points="65.5001,-27.751 62,-17.7511 58.5001,-27.7511 65.5001,-27.751"/>
</g>
</g>
</svg>
