<?xml version="1.0" encoding="UTF-8" standalone="no"?>
<!DOCTYPE svg PUBLIC "-//W3C//DTD SVG 1.1//EN"
 "http://www.w3.org/Graphics/SVG/1.1/DTD/svg11.dtd">
<!-- Generated by graphviz version 2.40.1 (20161225.0304)
 -->
<!-- Title: /home/jacques/repos/math4171/src/arcpython/PythonFunction.hpp Pages: 1 -->
<svg width="317pt" height="152pt"
 viewBox="0.00 0.00 317.14 152.00" xmlns="http://www.w3.org/2000/svg" xmlns:xlink="http://www.w3.org/1999/xlink">
<g id="graph0" class="graph" transform="scale(1 1) rotate(0) translate(4 148)">
<title>/home/jacques/repos/math4171/src/arcpython/PythonFunction.hpp</title>
<!-- Node0 -->
<g id="node1" class="node">
<title>Node0</title>
<polygon fill="#bfbfbf" stroke="#000000" points="51.1359,-108.5 51.1359,-143.5 175.1359,-143.5 175.1359,-108.5 51.1359,-108.5"/>
<text text-anchor="start" x="59.1359" y="-133.1" font-family="InputSans" font-size="8.00" fill="#000000">/home/jacques/repos</text>
<text text-anchor="start" x="59.1359" y="-124.1" font-family="InputSans" font-size="8.00" fill="#000000">/math4171/src/arcpython</text>
<text text-anchor="middle" x="113.1359" y="-115.1" font-family="InputSans" font-size="8.00" fill="#000000">/PythonFunction.hpp</text>
</g>
<!-- Node1 -->
<g id="node2" class="node">
<title>Node1</title>
<polygon fill="none" stroke="#bfbfbf" points="97.1359,-.5 97.1359,-17.5 151.1359,-17.5 151.1359,-.5 97.1359,-.5"/>
<text text-anchor="middle" x="124.1359" y="-7.1" font-family="InputSans" font-size="8.00" fill="#000000">Python.h</text>
</g>
<!-- Node0&#45;&gt;Node1 -->
<g id="edge1" class="edge">
<title>Node0&#45;&gt;Node1</title>
<path fill="none" stroke="#191970" d="M50.8667,-109.3206C18.1395,-97.2669 -11.9655,-78.7503 5.1359,-54 14.8228,-39.9805 56.0642,-26.513 87.3028,-18.0252"/>
<polygon fill="#191970" stroke="#191970" points="88.2681,-21.3904 97.041,-15.4501 86.4785,-14.623 88.2681,-21.3904"/>
</g>
<!-- Node2 -->
<g id="node3" class="node">
<title>Node2</title>
<polygon fill="none" stroke="#bfbfbf" points="14.1359,-54.5 14.1359,-71.5 68.1359,-71.5 68.1359,-54.5 14.1359,-54.5"/>
<text text-anchor="middle" x="41.1359" y="-61.1" font-family="InputSans" font-size="8.00" fill="#000000">iostream</text>
</g>
<!-- Node0&#45;&gt;Node2 -->
<g id="edge2" class="edge">
<title>Node0&#45;&gt;Node2</title>
<path fill="none" stroke="#191970" d="M93.0799,-108.451C82.3108,-99.028 69.1562,-87.5177 58.7796,-78.4382"/>
<polygon fill="#191970" stroke="#191970" points="60.9825,-75.7151 51.1519,-71.764 56.373,-80.9831 60.9825,-75.7151"/>
</g>
<!-- Node3 -->
<g id="node4" class="node">
<title>Node3</title>
<polygon fill="none" stroke="#bfbfbf" points="86.6359,-54.5 86.6359,-71.5 139.6359,-71.5 139.6359,-54.5 86.6359,-54.5"/>
<text text-anchor="middle" x="113.1359" y="-61.1" font-family="InputSans" font-size="8.00" fill="#000000">memory</text>
</g>
<!-- Node0&#45;&gt;Node3 -->
<g id="edge3" class="edge">
<title>Node0&#45;&gt;Node3</title>
<path fill="none" stroke="#191970" d="M113.1359,-108.451C113.1359,-100.1476 113.1359,-90.2234 113.1359,-81.7698"/>
<polygon fill="#191970" stroke="#191970" points="116.636,-81.764 113.1359,-71.764 109.636,-81.7641 116.636,-81.764"/>
</g>
<!-- Node4 -->
<g id="node5" class="node">
<title>Node4</title>
<polygon fill="none" stroke="#bfbfbf" points="157.6359,-54.5 157.6359,-71.5 198.6359,-71.5 198.6359,-54.5 157.6359,-54.5"/>
<text text-anchor="middle" x="178.1359" y="-61.1" font-family="InputSans" font-size="8.00" fill="#000000">string</text>
</g>
<!-- Node0&#45;&gt;Node4 -->
<g id="edge4" class="edge">
<title>Node0&#45;&gt;Node4</title>
<path fill="none" stroke="#191970" d="M131.242,-108.451C140.7717,-99.2146 152.3704,-87.9728 161.6482,-78.9804"/>
<polygon fill="#191970" stroke="#191970" points="164.3489,-81.237 169.0937,-71.764 159.4771,-76.2105 164.3489,-81.237"/>
</g>
<!-- Node5 -->
<g id="node6" class="node">
<title>Node5</title>
<g id="a_node6"><a xlink:href="_python_object_8hpp.html" target="_top" xlink:title="PythonObject.hpp">
<polygon fill="none" stroke="#000000" points="217.1359,-54.5 217.1359,-71.5 309.1359,-71.5 309.1359,-54.5 217.1359,-54.5"/>
<text text-anchor="middle" x="263.1359" y="-61.1" font-family="InputSans" font-size="8.00" fill="#000000">PythonObject.hpp</text>
</a>
</g>
</g>
<!-- Node0&#45;&gt;Node5 -->
<g id="edge5" class="edge">
<title>Node0&#45;&gt;Node5</title>
<path fill="none" stroke="#191970" d="M154.9193,-108.451C179.8384,-97.9849 210.8884,-84.944 233.3298,-75.5186"/>
<polygon fill="#191970" stroke="#191970" points="234.8148,-78.6911 242.6793,-71.5918 232.1041,-72.2372 234.8148,-78.6911"/>
</g>
<!-- Node5&#45;&gt;Node1 -->
<g id="edge6" class="edge">
<title>Node5&#45;&gt;Node1</title>
<path fill="none" stroke="#191970" d="M241.111,-54.4435C218.032,-45.4776 181.5739,-31.314 155.4951,-21.1827"/>
<polygon fill="#191970" stroke="#191970" points="156.6466,-17.8753 146.0578,-17.5164 154.1117,-24.4002 156.6466,-17.8753"/>
</g>
</g>
</svg>
