<?xml version="1.0" encoding="UTF-8" standalone="no"?>
<!DOCTYPE svg PUBLIC "-//W3C//DTD SVG 1.1//EN"
 "http://www.w3.org/Graphics/SVG/1.1/DTD/svg11.dtd">
<!-- Generated by graphviz version 2.40.1 (20161225.0304)
 -->
<!-- Title: /home/jacques/repos/math4171/src/arcpython/PythonList.cpp Pages: 1 -->
<svg width="420pt" height="206pt"
 viewBox="0.00 0.00 420.05 206.00" xmlns="http://www.w3.org/2000/svg" xmlns:xlink="http://www.w3.org/1999/xlink">
<g id="graph0" class="graph" transform="scale(1 1) rotate(0) translate(4 202)">
<title>/home/jacques/repos/math4171/src/arcpython/PythonList.cpp</title>
<!-- Node0 -->
<g id="node1" class="node">
<title>Node0</title>
<polygon fill="#bfbfbf" stroke="#000000" points="89.0476,-162.5 89.0476,-197.5 229.0476,-197.5 229.0476,-162.5 89.0476,-162.5"/>
<text text-anchor="start" x="97.0476" y="-187.1" font-family="InputSans" font-size="8.00" fill="#000000">/home/jacques/repos</text>
<text text-anchor="start" x="97.0476" y="-178.1" font-family="InputSans" font-size="8.00" fill="#000000">/math4171/src/arcpython</text>
<text text-anchor="middle" x="159.0476" y="-169.1" font-family="InputSans" font-size="8.00" fill="#000000">/PythonList.cpp</text>
</g>
<!-- Node1 -->
<g id="node2" class="node">
<title>Node1</title>
<g id="a_node2"><a xlink:href="_python_common_8hpp.html" target="_top" xlink:title="PythonCommon.hpp">
<polygon fill="none" stroke="#000000" points="51.0476,-108.5 51.0476,-125.5 155.0476,-125.5 155.0476,-108.5 51.0476,-108.5"/>
<text text-anchor="middle" x="103.0476" y="-115.1" font-family="InputSans" font-size="8.00" fill="#000000">PythonCommon.hpp</text>
</a>
</g>
</g>
<!-- Node0&#45;&gt;Node1 -->
<g id="edge1" class="edge">
<title>Node0&#45;&gt;Node1</title>
<path fill="none" stroke="#191970" d="M143.4485,-162.451C135.3213,-153.3079 125.4473,-142.1997 117.4952,-133.2536"/>
<polygon fill="#191970" stroke="#191970" points="120.0975,-130.9129 110.8378,-125.764 114.8656,-135.5634 120.0975,-130.9129"/>
</g>
<!-- Node6 -->
<g id="node7" class="node">
<title>Node6</title>
<g id="a_node7"><a xlink:href="_python_list_8hpp.html" target="_top" xlink:title="PythonList.hpp">
<polygon fill="none" stroke="#000000" points="206.0476,-108.5 206.0476,-125.5 292.0476,-125.5 292.0476,-108.5 206.0476,-108.5"/>
<text text-anchor="middle" x="249.0476" y="-115.1" font-family="InputSans" font-size="8.00" fill="#000000">PythonList.hpp</text>
</a>
</g>
</g>
<!-- Node0&#45;&gt;Node6 -->
<g id="edge7" class="edge">
<title>Node0&#45;&gt;Node6</title>
<path fill="none" stroke="#191970" d="M184.1176,-162.451C197.9789,-152.7481 215.0017,-140.8321 228.1395,-131.6357"/>
<polygon fill="#191970" stroke="#191970" points="230.3424,-134.366 236.5276,-125.764 226.3281,-128.6314 230.3424,-134.366"/>
</g>
<!-- Node2 -->
<g id="node3" class="node">
<title>Node2</title>
<polygon fill="none" stroke="#bfbfbf" points="14.5476,-54.5 14.5476,-71.5 85.5476,-71.5 85.5476,-54.5 14.5476,-54.5"/>
<text text-anchor="middle" x="50.0476" y="-61.1" font-family="InputSans" font-size="8.00" fill="#000000">type_traits</text>
</g>
<!-- Node1&#45;&gt;Node2 -->
<g id="edge2" class="edge">
<title>Node1&#45;&gt;Node2</title>
<path fill="none" stroke="#191970" d="M94.2957,-108.083C86.5779,-100.2195 75.1429,-88.5688 65.831,-79.0813"/>
<polygon fill="#191970" stroke="#191970" points="68.1392,-76.4363 58.6366,-71.7511 63.1434,-81.3396 68.1392,-76.4363"/>
</g>
<!-- Node3 -->
<g id="node4" class="node">
<title>Node3</title>
<polygon fill="none" stroke="#bfbfbf" points="124.5476,-.5 124.5476,-17.5 181.5476,-17.5 181.5476,-.5 124.5476,-.5"/>
<text text-anchor="middle" x="153.0476" y="-7.1" font-family="InputSans" font-size="8.00" fill="#000000">Python.h</text>
</g>
<!-- Node1&#45;&gt;Node3 -->
<g id="edge3" class="edge">
<title>Node1&#45;&gt;Node3</title>
<path fill="none" stroke="#191970" d="M65.5465,-108.4943C30.2387,-98.6731 -14.5231,-80.4059 5.0476,-54 18.1489,-36.323 75.1124,-22.8391 114.4211,-15.4225"/>
<polygon fill="#191970" stroke="#191970" points="115.2851,-18.8227 124.4924,-13.5809 114.0259,-11.9368 115.2851,-18.8227"/>
</g>
<!-- Node4 -->
<g id="node5" class="node">
<title>Node4</title>
<g id="a_node5"><a xlink:href="_python_object_8hpp.html" target="_top" xlink:title="PythonObject.hpp">
<polygon fill="none" stroke="#000000" points="104.0476,-54.5 104.0476,-71.5 202.0476,-71.5 202.0476,-54.5 104.0476,-54.5"/>
<text text-anchor="middle" x="153.0476" y="-61.1" font-family="InputSans" font-size="8.00" fill="#000000">PythonObject.hpp</text>
</a>
</g>
</g>
<!-- Node1&#45;&gt;Node4 -->
<g id="edge4" class="edge">
<title>Node1&#45;&gt;Node4</title>
<path fill="none" stroke="#191970" d="M111.3041,-108.083C118.5123,-100.2982 129.1574,-88.8015 137.8934,-79.3665"/>
<polygon fill="#191970" stroke="#191970" points="140.7188,-81.4666 144.9448,-71.7511 135.5825,-76.7108 140.7188,-81.4666"/>
</g>
<!-- Node4&#45;&gt;Node3 -->
<g id="edge6" class="edge">
<title>Node4&#45;&gt;Node3</title>
<path fill="none" stroke="#191970" d="M153.0476,-54.083C153.0476,-47.0059 153.0476,-36.8611 153.0476,-27.9865"/>
<polygon fill="#191970" stroke="#191970" points="156.5477,-27.751 153.0476,-17.7511 149.5477,-27.7511 156.5477,-27.751"/>
</g>
<!-- Node5 -->
<g id="node6" class="node">
<title>Node5</title>
<polygon fill="none" stroke="#bfbfbf" points="218.5476,-.5 218.5476,-17.5 277.5476,-17.5 277.5476,-.5 218.5476,-.5"/>
<text text-anchor="middle" x="248.0476" y="-7.1" font-family="InputSans" font-size="8.00" fill="#000000">iostream</text>
</g>
<!-- Node4&#45;&gt;Node5 -->
<g id="edge5" class="edge">
<title>Node4&#45;&gt;Node5</title>
<path fill="none" stroke="#191970" d="M168.311,-54.324C183.269,-45.8215 206.3024,-32.7288 223.7743,-22.7975"/>
<polygon fill="#191970" stroke="#191970" points="225.858,-25.639 232.8221,-17.6545 222.3988,-19.5534 225.858,-25.639"/>
</g>
<!-- Node6&#45;&gt;Node3 -->
<g id="edge8" class="edge">
<title>Node6&#45;&gt;Node3</title>
<path fill="none" stroke="#191970" d="M245.0284,-108.182C238.9057,-95.3474 226.3259,-71.181 211.0476,-54 200.6544,-42.3125 186.8974,-31.4895 175.39,-23.3879"/>
<polygon fill="#191970" stroke="#191970" points="177.3564,-20.4925 167.1216,-17.7537 173.4146,-26.2772 177.3564,-20.4925"/>
</g>
<!-- Node6&#45;&gt;Node4 -->
<g id="edge12" class="edge">
<title>Node6&#45;&gt;Node4</title>
<path fill="none" stroke="#191970" d="M233.6235,-108.324C218.5081,-99.8215 195.2322,-86.7288 177.5764,-76.7975"/>
<polygon fill="#191970" stroke="#191970" points="178.8651,-73.5066 168.4334,-71.6545 175.4332,-79.6077 178.8651,-73.5066"/>
</g>
<!-- Node6&#45;&gt;Node5 -->
<g id="edge9" class="edge">
<title>Node6&#45;&gt;Node5</title>
<path fill="none" stroke="#191970" d="M248.9658,-108.1619C248.8038,-90.6713 248.4393,-51.3048 248.2214,-27.7731"/>
<polygon fill="#191970" stroke="#191970" points="251.7203,-27.6255 248.1278,-17.6584 244.7206,-27.6904 251.7203,-27.6255"/>
</g>
<!-- Node7 -->
<g id="node8" class="node">
<title>Node7</title>
<polygon fill="none" stroke="#bfbfbf" points="296.5476,-54.5 296.5476,-71.5 347.5476,-71.5 347.5476,-54.5 296.5476,-54.5"/>
<text text-anchor="middle" x="322.0476" y="-61.1" font-family="InputSans" font-size="8.00" fill="#000000">memory</text>
</g>
<!-- Node6&#45;&gt;Node7 -->
<g id="edge10" class="edge">
<title>Node6&#45;&gt;Node7</title>
<path fill="none" stroke="#191970" d="M260.7763,-108.324C271.885,-100.1066 288.7898,-87.6017 302.0309,-77.8069"/>
<polygon fill="#191970" stroke="#191970" points="304.1475,-80.5948 310.1055,-71.8339 299.9845,-74.9671 304.1475,-80.5948"/>
</g>
<!-- Node8 -->
<g id="node9" class="node">
<title>Node8</title>
<polygon fill="none" stroke="#bfbfbf" points="366.0476,-54.5 366.0476,-71.5 412.0476,-71.5 412.0476,-54.5 366.0476,-54.5"/>
<text text-anchor="middle" x="389.0476" y="-61.1" font-family="InputSans" font-size="8.00" fill="#000000">vector</text>
</g>
<!-- Node6&#45;&gt;Node8 -->
<g id="edge11" class="edge">
<title>Node6&#45;&gt;Node8</title>
<path fill="none" stroke="#191970" d="M271.231,-108.4435C294.4761,-99.4776 331.1964,-85.314 357.4628,-75.1827"/>
<polygon fill="#191970" stroke="#191970" points="358.8975,-78.3807 366.968,-71.5164 356.3784,-71.8497 358.8975,-78.3807"/>
</g>
</g>
</svg>
