<?xml version="1.0" encoding="UTF-8" standalone="no"?>
<!DOCTYPE svg PUBLIC "-//W3C//DTD SVG 1.1//EN"
 "http://www.w3.org/Graphics/SVG/1.1/DTD/svg11.dtd">
<!-- Generated by graphviz version 2.40.1 (20161225.0304)
 -->
<!-- Title: /home/jacques/repos/math4171/src/arcpython/PythonModule.cpp Pages: 1 -->
<svg width="341pt" height="206pt"
 viewBox="0.00 0.00 341.00 206.00" xmlns="http://www.w3.org/2000/svg" xmlns:xlink="http://www.w3.org/1999/xlink">
<g id="graph0" class="graph" transform="scale(1 1) rotate(0) translate(4 202)">
<title>/home/jacques/repos/math4171/src/arcpython/PythonModule.cpp</title>
<!-- Node0 -->
<g id="node1" class="node">
<title>Node0</title>
<polygon fill="#bfbfbf" stroke="#000000" points="102,-162.5 102,-197.5 226,-197.5 226,-162.5 102,-162.5"/>
<text text-anchor="start" x="110" y="-187.1" font-family="InputSans" font-size="8.00" fill="#000000">/home/jacques/repos</text>
<text text-anchor="start" x="110" y="-178.1" font-family="InputSans" font-size="8.00" fill="#000000">/math4171/src/arcpython</text>
<text text-anchor="middle" x="164" y="-169.1" font-family="InputSans" font-size="8.00" fill="#000000">/PythonModule.cpp</text>
</g>
<!-- Node1 -->
<g id="node2" class="node">
<title>Node1</title>
<g id="a_node2"><a xlink:href="_python_module_8hpp.html" target="_top" xlink:title="PythonModule.hpp">
<polygon fill="none" stroke="#000000" points="116.5,-108.5 116.5,-125.5 211.5,-125.5 211.5,-108.5 116.5,-108.5"/>
<text text-anchor="middle" x="164" y="-115.1" font-family="InputSans" font-size="8.00" fill="#000000">PythonModule.hpp</text>
</a>
</g>
</g>
<!-- Node0&#45;&gt;Node1 -->
<g id="edge1" class="edge">
<title>Node0&#45;&gt;Node1</title>
<path fill="none" stroke="#191970" d="M164,-162.451C164,-154.1476 164,-144.2234 164,-135.7698"/>
<polygon fill="#191970" stroke="#191970" points="167.5001,-135.764 164,-125.764 160.5001,-135.7641 167.5001,-135.764"/>
</g>
<!-- Node2 -->
<g id="node3" class="node">
<title>Node2</title>
<polygon fill="none" stroke="#bfbfbf" points="0,-54.5 0,-71.5 54,-71.5 54,-54.5 0,-54.5"/>
<text text-anchor="middle" x="27" y="-61.1" font-family="InputSans" font-size="8.00" fill="#000000">iostream</text>
</g>
<!-- Node1&#45;&gt;Node2 -->
<g id="edge2" class="edge">
<title>Node1&#45;&gt;Node2</title>
<path fill="none" stroke="#191970" d="M142.2919,-108.4435C119.6452,-99.5171 83.9279,-85.4387 58.2482,-75.3168"/>
<polygon fill="#191970" stroke="#191970" points="59.1934,-71.9273 48.6065,-71.5164 56.6264,-78.4397 59.1934,-71.9273"/>
</g>
<!-- Node3 -->
<g id="node4" class="node">
<title>Node3</title>
<polygon fill="none" stroke="#bfbfbf" points="72.5,-54.5 72.5,-71.5 125.5,-71.5 125.5,-54.5 72.5,-54.5"/>
<text text-anchor="middle" x="99" y="-61.1" font-family="InputSans" font-size="8.00" fill="#000000">memory</text>
</g>
<!-- Node1&#45;&gt;Node3 -->
<g id="edge3" class="edge">
<title>Node1&#45;&gt;Node3</title>
<path fill="none" stroke="#191970" d="M153.5566,-108.324C143.8538,-100.2631 129.1847,-88.0765 117.5003,-78.3695"/>
<polygon fill="#191970" stroke="#191970" points="119.5619,-75.532 109.6334,-71.8339 115.0887,-80.9163 119.5619,-75.532"/>
</g>
<!-- Node4 -->
<g id="node5" class="node">
<title>Node4</title>
<polygon fill="none" stroke="#bfbfbf" points="143.5,-54.5 143.5,-71.5 184.5,-71.5 184.5,-54.5 143.5,-54.5"/>
<text text-anchor="middle" x="164" y="-61.1" font-family="InputSans" font-size="8.00" fill="#000000">string</text>
</g>
<!-- Node1&#45;&gt;Node4 -->
<g id="edge4" class="edge">
<title>Node1&#45;&gt;Node4</title>
<path fill="none" stroke="#191970" d="M164,-108.083C164,-101.0059 164,-90.8611 164,-81.9865"/>
<polygon fill="#191970" stroke="#191970" points="167.5001,-81.751 164,-71.7511 160.5001,-81.7511 167.5001,-81.751"/>
</g>
<!-- Node5 -->
<g id="node6" class="node">
<title>Node5</title>
<polygon fill="none" stroke="#bfbfbf" points="223,-.5 223,-17.5 277,-17.5 277,-.5 223,-.5"/>
<text text-anchor="middle" x="250" y="-7.1" font-family="InputSans" font-size="8.00" fill="#000000">Python.h</text>
</g>
<!-- Node1&#45;&gt;Node5 -->
<g id="edge5" class="edge">
<title>Node1&#45;&gt;Node5</title>
<path fill="none" stroke="#191970" d="M171.0377,-108.1619C185.4086,-90.1148 218.3253,-48.7775 236.8005,-25.5762"/>
<polygon fill="#191970" stroke="#191970" points="239.6141,-27.6614 243.1054,-17.6584 234.1381,-23.3009 239.6141,-27.6614"/>
</g>
<!-- Node6 -->
<g id="node7" class="node">
<title>Node6</title>
<g id="a_node7"><a xlink:href="_python_object_8hpp.html" target="_top" xlink:title="PythonObject.hpp">
<polygon fill="none" stroke="#000000" points="241,-54.5 241,-71.5 333,-71.5 333,-54.5 241,-54.5"/>
<text text-anchor="middle" x="287" y="-61.1" font-family="InputSans" font-size="8.00" fill="#000000">PythonObject.hpp</text>
</a>
</g>
</g>
<!-- Node1&#45;&gt;Node6 -->
<g id="edge6" class="edge">
<title>Node1&#45;&gt;Node6</title>
<path fill="none" stroke="#191970" d="M183.4897,-108.4435C203.6422,-99.5961 235.3229,-85.6875 258.3308,-75.5865"/>
<polygon fill="#191970" stroke="#191970" points="259.852,-78.7411 267.6015,-71.5164 257.038,-72.3316 259.852,-78.7411"/>
</g>
<!-- Node6&#45;&gt;Node5 -->
<g id="edge7" class="edge">
<title>Node6&#45;&gt;Node5</title>
<path fill="none" stroke="#191970" d="M280.8902,-54.083C275.7178,-46.5341 268.1539,-35.4948 261.8056,-26.2298"/>
<polygon fill="#191970" stroke="#191970" points="264.5357,-24.0221 255.9961,-17.7511 258.7612,-27.9787 264.5357,-24.0221"/>
</g>
</g>
</svg>
