<?xml version="1.0" encoding="UTF-8" standalone="no"?>
<!DOCTYPE svg PUBLIC "-//W3C//DTD SVG 1.1//EN"
 "http://www.w3.org/Graphics/SVG/1.1/DTD/svg11.dtd">
<!-- Generated by graphviz version 2.40.1 (20161225.0304)
 -->
<!-- Title: /home/jacques/repos/math4171/src/arcpython/PythonObject.cpp Pages: 1 -->
<svg width="148pt" height="152pt"
 viewBox="0.00 0.00 148.00 152.00" xmlns="http://www.w3.org/2000/svg" xmlns:xlink="http://www.w3.org/1999/xlink">
<g id="graph0" class="graph" transform="scale(1 1) rotate(0) translate(4 148)">
<title>/home/jacques/repos/math4171/src/arcpython/PythonObject.cpp</title>
<!-- Node0 -->
<g id="node1" class="node">
<title>Node0</title>
<polygon fill="#bfbfbf" stroke="#000000" points="0,-108.5 0,-143.5 140,-143.5 140,-108.5 0,-108.5"/>
<text text-anchor="start" x="8" y="-133.1" font-family="InputSans" font-size="8.00" fill="#000000">/home/jacques/repos</text>
<text text-anchor="start" x="8" y="-124.1" font-family="InputSans" font-size="8.00" fill="#000000">/math4171/src/arcpython</text>
<text text-anchor="middle" x="70" y="-115.1" font-family="InputSans" font-size="8.00" fill="#000000">/PythonObject.cpp</text>
</g>
<!-- Node1 -->
<g id="node2" class="node">
<title>Node1</title>
<g id="a_node2"><a xlink:href="_python_object_8hpp.html" target="_top" xlink:title="PythonObject.hpp">
<polygon fill="none" stroke="#000000" points="21,-54.5 21,-71.5 119,-71.5 119,-54.5 21,-54.5"/>
<text text-anchor="middle" x="70" y="-61.1" font-family="InputSans" font-size="8.00" fill="#000000">PythonObject.hpp</text>
</a>
</g>
</g>
<!-- Node0&#45;&gt;Node1 -->
<g id="edge1" class="edge">
<title>Node0&#45;&gt;Node1</title>
<path fill="none" stroke="#191970" d="M70,-108.451C70,-100.1476 70,-90.2234 70,-81.7698"/>
<polygon fill="#191970" stroke="#191970" points="73.5001,-81.764 70,-71.764 66.5001,-81.7641 73.5001,-81.764"/>
</g>
<!-- Node2 -->
<g id="node3" class="node">
<title>Node2</title>
<polygon fill="none" stroke="#bfbfbf" points="2.5,-.5 2.5,-17.5 61.5,-17.5 61.5,-.5 2.5,-.5"/>
<text text-anchor="middle" x="32" y="-7.1" font-family="InputSans" font-size="8.00" fill="#000000">iostream</text>
</g>
<!-- Node1&#45;&gt;Node2 -->
<g id="edge2" class="edge">
<title>Node1&#45;&gt;Node2</title>
<path fill="none" stroke="#191970" d="M63.7251,-54.083C58.3575,-46.4554 50.4824,-35.2645 43.9213,-25.9408"/>
<polygon fill="#191970" stroke="#191970" points="46.7755,-23.9149 38.1582,-17.7511 41.0508,-27.9434 46.7755,-23.9149"/>
</g>
<!-- Node3 -->
<g id="node4" class="node">
<title>Node3</title>
<polygon fill="none" stroke="#bfbfbf" points="79.5,-.5 79.5,-17.5 136.5,-17.5 136.5,-.5 79.5,-.5"/>
<text text-anchor="middle" x="108" y="-7.1" font-family="InputSans" font-size="8.00" fill="#000000">Python.h</text>
</g>
<!-- Node1&#45;&gt;Node3 -->
<g id="edge3" class="edge">
<title>Node1&#45;&gt;Node3</title>
<path fill="none" stroke="#191970" d="M76.2749,-54.083C81.6425,-46.4554 89.5176,-35.2645 96.0787,-25.9408"/>
<polygon fill="#191970" stroke="#191970" points="98.9492,-27.9434 101.8418,-17.7511 93.2245,-23.9149 98.9492,-27.9434"/>
</g>
</g>
</svg>
