<?xml version="1.0" encoding="UTF-8" standalone="no"?>
<!DOCTYPE svg PUBLIC "-//W3C//DTD SVG 1.1//EN"
 "http://www.w3.org/Graphics/SVG/1.1/DTD/svg11.dtd">
<!-- Generated by graphviz version 2.40.1 (20161225.0304)
 -->
<!-- Title: /home/jacques/repos/math4171/src/arcpython/PythonFloat.hpp Pages: 1 -->
<svg width="216pt" height="152pt"
 viewBox="0.00 0.00 215.50 152.00" xmlns="http://www.w3.org/2000/svg" xmlns:xlink="http://www.w3.org/1999/xlink">
<g id="graph0" class="graph" transform="scale(1 1) rotate(0) translate(4 148)">
<title>/home/jacques/repos/math4171/src/arcpython/PythonFloat.hpp</title>
<!-- Node0 -->
<g id="node1" class="node">
<title>Node0</title>
<polygon fill="#bfbfbf" stroke="#000000" points="11.5,-108.5 11.5,-143.5 151.5,-143.5 151.5,-108.5 11.5,-108.5"/>
<text text-anchor="start" x="19.5" y="-133.1" font-family="InputSans" font-size="8.00" fill="#000000">/home/jacques/repos</text>
<text text-anchor="start" x="19.5" y="-124.1" font-family="InputSans" font-size="8.00" fill="#000000">/math4171/src/arcpython</text>
<text text-anchor="middle" x="81.5" y="-115.1" font-family="InputSans" font-size="8.00" fill="#000000">/PythonFloat.hpp</text>
</g>
<!-- Node1 -->
<g id="node2" class="node">
<title>Node1</title>
<polygon fill="none" stroke="#bfbfbf" points="0,-54.5 0,-71.5 53,-71.5 53,-54.5 0,-54.5"/>
<text text-anchor="middle" x="26.5" y="-61.1" font-family="InputSans" font-size="8.00" fill="#000000">cassert</text>
</g>
<!-- Node0&#45;&gt;Node1 -->
<g id="edge1" class="edge">
<title>Node0&#45;&gt;Node1</title>
<path fill="none" stroke="#191970" d="M66.1794,-108.451C58.2788,-99.4012 48.6974,-88.4262 40.9293,-79.5281"/>
<polygon fill="#191970" stroke="#191970" points="43.3644,-76.9954 34.1511,-71.764 38.0911,-81.599 43.3644,-76.9954"/>
</g>
<!-- Node2 -->
<g id="node3" class="node">
<title>Node2</title>
<polygon fill="none" stroke="#bfbfbf" points="54,-.5 54,-17.5 111,-17.5 111,-.5 54,-.5"/>
<text text-anchor="middle" x="82.5" y="-7.1" font-family="InputSans" font-size="8.00" fill="#000000">Python.h</text>
</g>
<!-- Node0&#45;&gt;Node2 -->
<g id="edge2" class="edge">
<title>Node0&#45;&gt;Node2</title>
<path fill="none" stroke="#191970" d="M81.6497,-108.4839C81.8353,-86.7697 82.1503,-49.9159 82.3404,-27.6775"/>
<polygon fill="#191970" stroke="#191970" points="85.8413,-27.5677 82.427,-17.5381 78.8416,-27.5078 85.8413,-27.5677"/>
</g>
<!-- Node3 -->
<g id="node4" class="node">
<title>Node3</title>
<g id="a_node4"><a xlink:href="_python_object_8hpp.html" target="_top" xlink:title="PythonObject.hpp">
<polygon fill="none" stroke="#000000" points="109.5,-54.5 109.5,-71.5 207.5,-71.5 207.5,-54.5 109.5,-54.5"/>
<text text-anchor="middle" x="158.5" y="-61.1" font-family="InputSans" font-size="8.00" fill="#000000">PythonObject.hpp</text>
</a>
</g>
</g>
<!-- Node0&#45;&gt;Node3 -->
<g id="edge3" class="edge">
<title>Node0&#45;&gt;Node3</title>
<path fill="none" stroke="#191970" d="M102.9488,-108.451C114.5798,-98.9347 128.8127,-87.2896 139.9598,-78.1692"/>
<polygon fill="#191970" stroke="#191970" points="142.2652,-80.8053 147.7884,-71.764 137.8325,-75.3876 142.2652,-80.8053"/>
</g>
<!-- Node3&#45;&gt;Node2 -->
<g id="edge5" class="edge">
<title>Node3&#45;&gt;Node2</title>
<path fill="none" stroke="#191970" d="M146.2893,-54.324C134.7241,-46.1066 117.1246,-33.6017 103.3393,-23.8069"/>
<polygon fill="#191970" stroke="#191970" points="105.112,-20.7729 94.9329,-17.8339 101.0575,-26.4791 105.112,-20.7729"/>
</g>
<!-- Node4 -->
<g id="node5" class="node">
<title>Node4</title>
<polygon fill="none" stroke="#bfbfbf" points="129,-.5 129,-17.5 188,-17.5 188,-.5 129,-.5"/>
<text text-anchor="middle" x="158.5" y="-7.1" font-family="InputSans" font-size="8.00" fill="#000000">iostream</text>
</g>
<!-- Node3&#45;&gt;Node4 -->
<g id="edge4" class="edge">
<title>Node3&#45;&gt;Node4</title>
<path fill="none" stroke="#191970" d="M158.5,-54.083C158.5,-47.0059 158.5,-36.8611 158.5,-27.9865"/>
<polygon fill="#191970" stroke="#191970" points="162.0001,-27.751 158.5,-17.7511 155.0001,-27.7511 162.0001,-27.751"/>
</g>
</g>
</svg>
