<?xml version="1.0" encoding="UTF-8" standalone="no"?>
<!DOCTYPE svg PUBLIC "-//W3C//DTD SVG 1.1//EN"
 "http://www.w3.org/Graphics/SVG/1.1/DTD/svg11.dtd">
<!-- Generated by graphviz version 2.40.1 (20161225.0304)
 -->
<!-- Title: /home/jacques/repos/math4171/src/arcpython/PythonObject.hpp Pages: 1 -->
<svg width="148pt" height="98pt"
 viewBox="0.00 0.00 148.00 98.00" xmlns="http://www.w3.org/2000/svg" xmlns:xlink="http://www.w3.org/1999/xlink">
<g id="graph0" class="graph" transform="scale(1 1) rotate(0) translate(4 94)">
<title>/home/jacques/repos/math4171/src/arcpython/PythonObject.hpp</title>
<!-- Node0 -->
<g id="node1" class="node">
<title>Node0</title>
<polygon fill="#bfbfbf" stroke="#000000" points="0,-54.5 0,-89.5 140,-89.5 140,-54.5 0,-54.5"/>
<text text-anchor="start" x="8" y="-79.1" font-family="InputSans" font-size="8.00" fill="#000000">/home/jacques/repos</text>
<text text-anchor="start" x="8" y="-70.1" font-family="InputSans" font-size="8.00" fill="#000000">/math4171/src/arcpython</text>
<text text-anchor="middle" x="70" y="-61.1" font-family="InputSans" font-size="8.00" fill="#000000">/PythonObject.hpp</text>
</g>
<!-- Node1 -->
<g id="node2" class="node">
<title>Node1</title>
<polygon fill="none" stroke="#bfbfbf" points="2.5,-.5 2.5,-17.5 61.5,-17.5 61.5,-.5 2.5,-.5"/>
<text text-anchor="middle" x="32" y="-7.1" font-family="InputSans" font-size="8.00" fill="#000000">iostream</text>
</g>
<!-- Node0&#45;&gt;Node1 -->
<g id="edge1" class="edge">
<title>Node0&#45;&gt;Node1</title>
<path fill="none" stroke="#191970" d="M59.4149,-54.451C54.1251,-45.6811 47.7448,-35.1032 42.4708,-26.3595"/>
<polygon fill="#191970" stroke="#191970" points="45.4482,-24.5192 37.2862,-17.764 39.4542,-28.1347 45.4482,-24.5192"/>
</g>
<!-- Node2 -->
<g id="node3" class="node">
<title>Node2</title>
<polygon fill="none" stroke="#bfbfbf" points="79.5,-.5 79.5,-17.5 136.5,-17.5 136.5,-.5 79.5,-.5"/>
<text text-anchor="middle" x="108" y="-7.1" font-family="InputSans" font-size="8.00" fill="#000000">Python.h</text>
</g>
<!-- Node0&#45;&gt;Node2 -->
<g id="edge2" class="edge">
<title>Node0&#45;&gt;Node2</title>
<path fill="none" stroke="#191970" d="M80.5851,-54.451C85.8749,-45.6811 92.2552,-35.1032 97.5292,-26.3595"/>
<polygon fill="#191970" stroke="#191970" points="100.5458,-28.1347 102.7138,-17.764 94.5518,-24.5192 100.5458,-28.1347"/>
</g>
</g>
</svg>
