<?xml version="1.0" encoding="UTF-8" standalone="no"?>
<!DOCTYPE svg PUBLIC "-//W3C//DTD SVG 1.1//EN"
 "http://www.w3.org/Graphics/SVG/1.1/DTD/svg11.dtd">
<!-- Generated by graphviz version 2.40.1 (20161225.0304)
 -->
<!-- Title: /home/jacques/repos/math4171/src/arcpython/PythonFloat.hpp Pages: 1 -->
<svg width="1233pt" height="116pt"
 viewBox="0.00 0.00 1232.50 116.00" xmlns="http://www.w3.org/2000/svg" xmlns:xlink="http://www.w3.org/1999/xlink">
<g id="graph0" class="graph" transform="scale(1 1) rotate(0) translate(4 112)">
<title>/home/jacques/repos/math4171/src/arcpython/PythonFloat.hpp</title>
<!-- Node5 -->
<g id="node1" class="node">
<title>Node5</title>
<polygon fill="#bfbfbf" stroke="#000000" points="511.5,-72.5 511.5,-107.5 651.5,-107.5 651.5,-72.5 511.5,-72.5"/>
<text text-anchor="start" x="519.5" y="-97.1" font-family="InputSans" font-size="8.00" fill="#000000">/home/jacques/repos</text>
<text text-anchor="start" x="519.5" y="-88.1" font-family="InputSans" font-size="8.00" fill="#000000">/math4171/src/arcpython</text>
<text text-anchor="middle" x="581.5" y="-79.1" font-family="InputSans" font-size="8.00" fill="#000000">/PythonFloat.hpp</text>
</g>
<!-- Node6 -->
<g id="node2" class="node">
<title>Node6</title>
<g id="a_node2"><a xlink:href="_contour_plot_8cpp.html" target="_top" xlink:title="/home/jacques/repos\l/math4171/src/arcplot\l/ContourPlot.cpp">
<polygon fill="none" stroke="#000000" points="0,-.5 0,-35.5 129,-35.5 129,-.5 0,-.5"/>
<text text-anchor="start" x="8" y="-25.1" font-family="InputSans" font-size="8.00" fill="#000000">/home/jacques/repos</text>
<text text-anchor="start" x="8" y="-16.1" font-family="InputSans" font-size="8.00" fill="#000000">/math4171/src/arcplot</text>
<text text-anchor="middle" x="64.5" y="-7.1" font-family="InputSans" font-size="8.00" fill="#000000">/ContourPlot.cpp</text>
</a>
</g>
</g>
<!-- Node5&#45;&gt;Node6 -->
<g id="edge1" class="edge">
<title>Node5&#45;&gt;Node6</title>
<path fill="none" stroke="#191970" d="M501.069,-83.163C411.7845,-74.8907 263.6264,-59.1323 137.5,-36 134.8038,-35.5055 132.0587,-34.971 129.2909,-34.4064"/>
<polygon fill="#191970" stroke="#191970" points="500.8469,-86.6573 511.125,-84.0861 501.4869,-79.6866 500.8469,-86.6573"/>
</g>
<!-- Node7 -->
<g id="node3" class="node">
<title>Node7</title>
<g id="a_node3"><a xlink:href="_list_plot_8cpp.html" target="_top" xlink:title="/home/jacques/repos\l/math4171/src/arcplot\l/ListPlot.cpp">
<polygon fill="none" stroke="#000000" points="147,-.5 147,-35.5 276,-35.5 276,-.5 147,-.5"/>
<text text-anchor="start" x="155" y="-25.1" font-family="InputSans" font-size="8.00" fill="#000000">/home/jacques/repos</text>
<text text-anchor="start" x="155" y="-16.1" font-family="InputSans" font-size="8.00" fill="#000000">/math4171/src/arcplot</text>
<text text-anchor="middle" x="211.5" y="-7.1" font-family="InputSans" font-size="8.00" fill="#000000">/ListPlot.cpp</text>
</a>
</g>
</g>
<!-- Node5&#45;&gt;Node7 -->
<g id="edge2" class="edge">
<title>Node5&#45;&gt;Node7</title>
<path fill="none" stroke="#191970" d="M501.1976,-76.7846C441.2872,-66.5895 357.531,-51.6273 284.5,-36 281.8195,-35.4264 279.0876,-34.8258 276.3306,-34.2065"/>
<polygon fill="#191970" stroke="#191970" points="500.9049,-80.2848 511.3492,-78.5054 502.0748,-73.3833 500.9049,-80.2848"/>
</g>
<!-- Node8 -->
<g id="node4" class="node">
<title>Node8</title>
<g id="a_node4"><a xlink:href="_surf_plot3d_8cpp.html" target="_top" xlink:title="/home/jacques/repos\l/math4171/src/arcplot\l/old/SurfPlot3d.cpp">
<polygon fill="none" stroke="#000000" points="294,-.5 294,-35.5 423,-35.5 423,-.5 294,-.5"/>
<text text-anchor="start" x="302" y="-25.1" font-family="InputSans" font-size="8.00" fill="#000000">/home/jacques/repos</text>
<text text-anchor="start" x="302" y="-16.1" font-family="InputSans" font-size="8.00" fill="#000000">/math4171/src/arcplot</text>
<text text-anchor="middle" x="358.5" y="-7.1" font-family="InputSans" font-size="8.00" fill="#000000">/old/SurfPlot3d.cpp</text>
</a>
</g>
</g>
<!-- Node5&#45;&gt;Node8 -->
<g id="edge3" class="edge">
<title>Node5&#45;&gt;Node8</title>
<path fill="none" stroke="#191970" d="M517.655,-69.3864C484.5816,-58.708 444.6176,-45.8048 413.0101,-35.5997"/>
<polygon fill="#191970" stroke="#191970" points="516.6415,-72.737 527.2332,-72.4789 518.7923,-66.0756 516.6415,-72.737"/>
</g>
<!-- Node9 -->
<g id="node5" class="node">
<title>Node9</title>
<g id="a_node5"><a xlink:href="_surface_plot_8cpp.html" target="_top" xlink:title="/home/jacques/repos\l/math4171/src/arcplot\l/SurfacePlot.cpp">
<polygon fill="none" stroke="#000000" points="441,-.5 441,-35.5 570,-35.5 570,-.5 441,-.5"/>
<text text-anchor="start" x="449" y="-25.1" font-family="InputSans" font-size="8.00" fill="#000000">/home/jacques/repos</text>
<text text-anchor="start" x="449" y="-16.1" font-family="InputSans" font-size="8.00" fill="#000000">/math4171/src/arcplot</text>
<text text-anchor="middle" x="505.5" y="-7.1" font-family="InputSans" font-size="8.00" fill="#000000">/SurfacePlot.cpp</text>
</a>
</g>
</g>
<!-- Node5&#45;&gt;Node9 -->
<g id="edge4" class="edge">
<title>Node5&#45;&gt;Node9</title>
<path fill="none" stroke="#191970" d="M555.1774,-65.0628C544.9288,-55.3536 533.4251,-44.4553 524.0704,-35.593"/>
<polygon fill="#191970" stroke="#191970" points="553.0468,-67.8656 562.7135,-72.2022 557.861,-62.7839 553.0468,-67.8656"/>
</g>
<!-- Node10 -->
<g id="node6" class="node">
<title>Node10</title>
<g id="a_node6"><a xlink:href="_python_float_8cpp.html" target="_top" xlink:title="/home/jacques/repos\l/math4171/src/arcpython\l/PythonFloat.cpp">
<polygon fill="none" stroke="#000000" points="588.5,-.5 588.5,-35.5 728.5,-35.5 728.5,-.5 588.5,-.5"/>
<text text-anchor="start" x="596.5" y="-25.1" font-family="InputSans" font-size="8.00" fill="#000000">/home/jacques/repos</text>
<text text-anchor="start" x="596.5" y="-16.1" font-family="InputSans" font-size="8.00" fill="#000000">/math4171/src/arcpython</text>
<text text-anchor="middle" x="658.5" y="-7.1" font-family="InputSans" font-size="8.00" fill="#000000">/PythonFloat.cpp</text>
</a>
</g>
</g>
<!-- Node5&#45;&gt;Node10 -->
<g id="edge5" class="edge">
<title>Node5&#45;&gt;Node10</title>
<path fill="none" stroke="#191970" d="M607.8639,-65.348C618.3236,-55.5675 630.1146,-44.5422 639.6852,-35.593"/>
<polygon fill="#191970" stroke="#191970" points="605.4475,-62.8158 600.5337,-72.2022 610.2285,-67.9288 605.4475,-62.8158"/>
</g>
<!-- Node11 -->
<g id="node7" class="node">
<title>Node11</title>
<g id="a_node7"><a xlink:href="_python_function_8cpp.html" target="_top" xlink:title="/home/jacques/repos\l/math4171/src/arcpython\l/PythonFunction.cpp">
<polygon fill="none" stroke="#000000" points="746.5,-.5 746.5,-35.5 886.5,-35.5 886.5,-.5 746.5,-.5"/>
<text text-anchor="start" x="754.5" y="-25.1" font-family="InputSans" font-size="8.00" fill="#000000">/home/jacques/repos</text>
<text text-anchor="start" x="754.5" y="-16.1" font-family="InputSans" font-size="8.00" fill="#000000">/math4171/src/arcpython</text>
<text text-anchor="middle" x="816.5" y="-7.1" font-family="InputSans" font-size="8.00" fill="#000000">/PythonFunction.cpp</text>
</a>
</g>
</g>
<!-- Node5&#45;&gt;Node11 -->
<g id="edge6" class="edge">
<title>Node5&#45;&gt;Node11</title>
<path fill="none" stroke="#191970" d="M648.3322,-69.5237C683.2721,-58.8188 725.6053,-45.8486 759.0566,-35.5997"/>
<polygon fill="#191970" stroke="#191970" points="647.223,-66.2029 638.687,-72.4789 649.2736,-72.8959 647.223,-66.2029"/>
</g>
<!-- Node12 -->
<g id="node8" class="node">
<title>Node12</title>
<g id="a_node8"><a xlink:href="assignment1-src_2_main_8cpp.html" target="_top" xlink:title="/home/jacques/repos\l/math4171/src/assignment1\l&#45;src/Main.cpp">
<polygon fill="none" stroke="#000000" points="905,-.5 905,-35.5 1060,-35.5 1060,-.5 905,-.5"/>
<text text-anchor="start" x="913" y="-25.1" font-family="InputSans" font-size="8.00" fill="#000000">/home/jacques/repos</text>
<text text-anchor="start" x="913" y="-16.1" font-family="InputSans" font-size="8.00" fill="#000000">/math4171/src/assignment1</text>
<text text-anchor="middle" x="982.5" y="-7.1" font-family="InputSans" font-size="8.00" fill="#000000">&#45;src/Main.cpp</text>
</a>
</g>
</g>
<!-- Node5&#45;&gt;Node12 -->
<g id="edge7" class="edge">
<title>Node5&#45;&gt;Node12</title>
<path fill="none" stroke="#191970" d="M661.7258,-76.9687C725.2514,-66.4654 816.183,-51.021 895.5,-36 898.5309,-35.426 901.6193,-34.8318 904.7376,-34.2241"/>
<polygon fill="#191970" stroke="#191970" points="661.0684,-73.5297 651.7716,-78.6111 662.208,-80.4364 661.0684,-73.5297"/>
</g>
<!-- Node13 -->
<g id="node9" class="node">
<title>Node13</title>
<g id="a_node9"><a xlink:href="playground_2_main_8cpp.html" target="_top" xlink:title="/home/jacques/repos\l/math4171/src/playground\l/Main.cpp">
<polygon fill="none" stroke="#000000" points="1078.5,-.5 1078.5,-35.5 1224.5,-35.5 1224.5,-.5 1078.5,-.5"/>
<text text-anchor="start" x="1086.5" y="-25.1" font-family="InputSans" font-size="8.00" fill="#000000">/home/jacques/repos</text>
<text text-anchor="start" x="1086.5" y="-16.1" font-family="InputSans" font-size="8.00" fill="#000000">/math4171/src/playground</text>
<text text-anchor="middle" x="1151.5" y="-7.1" font-family="InputSans" font-size="8.00" fill="#000000">/Main.cpp</text>
</a>
</g>
</g>
<!-- Node5&#45;&gt;Node13 -->
<g id="edge8" class="edge">
<title>Node5&#45;&gt;Node13</title>
<path fill="none" stroke="#191970" d="M661.748,-83.7436C758.7447,-75.5776 926.7335,-59.5007 1069.5,-36 1072.3763,-35.5265 1075.3037,-35.0172 1078.2566,-34.4804"/>
<polygon fill="#191970" stroke="#191970" points="661.3951,-80.2608 651.721,-84.5808 661.9776,-87.2365 661.3951,-80.2608"/>
</g>
</g>
</svg>
