<?xml version="1.0" encoding="UTF-8" standalone="no"?>
<!DOCTYPE svg PUBLIC "-//W3C//DTD SVG 1.1//EN"
 "http://www.w3.org/Graphics/SVG/1.1/DTD/svg11.dtd">
<!-- Generated by graphviz version 2.40.1 (20161225.0304)
 -->
<!-- Title: /home/jacques/repos/math4171/src/arcpython/PythonTupple.cpp Pages: 1 -->
<svg width="320pt" height="206pt"
 viewBox="0.00 0.00 319.97 206.00" xmlns="http://www.w3.org/2000/svg" xmlns:xlink="http://www.w3.org/1999/xlink">
<g id="graph0" class="graph" transform="scale(1 1) rotate(0) translate(4 202)">
<title>/home/jacques/repos/math4171/src/arcpython/PythonTupple.cpp</title>
<!-- Node0 -->
<g id="node1" class="node">
<title>Node0</title>
<polygon fill="#bfbfbf" stroke="#000000" points="50.9664,-162.5 50.9664,-197.5 174.9664,-197.5 174.9664,-162.5 50.9664,-162.5"/>
<text text-anchor="start" x="58.9664" y="-187.1" font-family="InputSans" font-size="8.00" fill="#000000">/home/jacques/repos</text>
<text text-anchor="start" x="58.9664" y="-178.1" font-family="InputSans" font-size="8.00" fill="#000000">/math4171/src/arcpython</text>
<text text-anchor="middle" x="112.9664" y="-169.1" font-family="InputSans" font-size="8.00" fill="#000000">/PythonTupple.cpp</text>
</g>
<!-- Node1 -->
<g id="node2" class="node">
<title>Node1</title>
<g id="a_node2"><a xlink:href="_python_tupple_8hpp.html" target="_top" xlink:title="PythonTupple.hpp">
<polygon fill="none" stroke="#000000" points="66.9664,-108.5 66.9664,-125.5 158.9664,-125.5 158.9664,-108.5 66.9664,-108.5"/>
<text text-anchor="middle" x="112.9664" y="-115.1" font-family="InputSans" font-size="8.00" fill="#000000">PythonTupple.hpp</text>
</a>
</g>
</g>
<!-- Node0&#45;&gt;Node1 -->
<g id="edge1" class="edge">
<title>Node0&#45;&gt;Node1</title>
<path fill="none" stroke="#191970" d="M112.9664,-162.451C112.9664,-154.1476 112.9664,-144.2234 112.9664,-135.7698"/>
<polygon fill="#191970" stroke="#191970" points="116.4665,-135.764 112.9664,-125.764 109.4665,-135.7641 116.4665,-135.764"/>
</g>
<!-- Node2 -->
<g id="node3" class="node">
<title>Node2</title>
<polygon fill="none" stroke="#bfbfbf" points="98.9664,-.5 98.9664,-17.5 152.9664,-17.5 152.9664,-.5 98.9664,-.5"/>
<text text-anchor="middle" x="125.9664" y="-7.1" font-family="InputSans" font-size="8.00" fill="#000000">Python.h</text>
</g>
<!-- Node1&#45;&gt;Node2 -->
<g id="edge2" class="edge">
<title>Node1&#45;&gt;Node2</title>
<path fill="none" stroke="#191970" d="M67.917,-108.4889C30.2573,-99.229 -14.4215,-81.8956 4.9664,-54 14.8637,-39.7596 57.011,-26.2919 88.8014,-17.8665"/>
<polygon fill="#191970" stroke="#191970" points="89.8952,-21.199 98.705,-15.3136 88.1479,-14.4206 89.8952,-21.199"/>
</g>
<!-- Node3 -->
<g id="node4" class="node">
<title>Node3</title>
<polygon fill="none" stroke="#bfbfbf" points="13.9664,-54.5 13.9664,-71.5 67.9664,-71.5 67.9664,-54.5 13.9664,-54.5"/>
<text text-anchor="middle" x="40.9664" y="-61.1" font-family="InputSans" font-size="8.00" fill="#000000">iostream</text>
</g>
<!-- Node1&#45;&gt;Node3 -->
<g id="edge3" class="edge">
<title>Node1&#45;&gt;Node3</title>
<path fill="none" stroke="#191970" d="M101.3984,-108.324C90.5462,-100.1849 74.0857,-87.8395 61.083,-78.0874"/>
<polygon fill="#191970" stroke="#191970" points="62.845,-75.0339 52.7449,-71.8339 58.6449,-80.6339 62.845,-75.0339"/>
</g>
<!-- Node4 -->
<g id="node5" class="node">
<title>Node4</title>
<polygon fill="none" stroke="#bfbfbf" points="86.4664,-54.5 86.4664,-71.5 139.4664,-71.5 139.4664,-54.5 86.4664,-54.5"/>
<text text-anchor="middle" x="112.9664" y="-61.1" font-family="InputSans" font-size="8.00" fill="#000000">memory</text>
</g>
<!-- Node1&#45;&gt;Node4 -->
<g id="edge4" class="edge">
<title>Node1&#45;&gt;Node4</title>
<path fill="none" stroke="#191970" d="M112.9664,-108.083C112.9664,-101.0059 112.9664,-90.8611 112.9664,-81.9865"/>
<polygon fill="#191970" stroke="#191970" points="116.4665,-81.751 112.9664,-71.7511 109.4665,-81.7511 116.4665,-81.751"/>
</g>
<!-- Node5 -->
<g id="node6" class="node">
<title>Node5</title>
<polygon fill="none" stroke="#bfbfbf" points="157.9664,-54.5 157.9664,-71.5 201.9664,-71.5 201.9664,-54.5 157.9664,-54.5"/>
<text text-anchor="middle" x="179.9664" y="-61.1" font-family="InputSans" font-size="8.00" fill="#000000">vector</text>
</g>
<!-- Node1&#45;&gt;Node5 -->
<g id="edge5" class="edge">
<title>Node1&#45;&gt;Node5</title>
<path fill="none" stroke="#191970" d="M123.7311,-108.324C133.7325,-100.2631 148.853,-88.0765 160.8969,-78.3695"/>
<polygon fill="#191970" stroke="#191970" points="163.4162,-80.8343 169.0058,-71.8339 159.0235,-75.3841 163.4162,-80.8343"/>
</g>
<!-- Node6 -->
<g id="node7" class="node">
<title>Node6</title>
<g id="a_node7"><a xlink:href="_python_object_8hpp.html" target="_top" xlink:title="PythonObject.hpp">
<polygon fill="none" stroke="#000000" points="219.9664,-54.5 219.9664,-71.5 311.9664,-71.5 311.9664,-54.5 219.9664,-54.5"/>
<text text-anchor="middle" x="265.9664" y="-61.1" font-family="InputSans" font-size="8.00" fill="#000000">PythonObject.hpp</text>
</a>
</g>
</g>
<!-- Node1&#45;&gt;Node6 -->
<g id="edge6" class="edge">
<title>Node1&#45;&gt;Node6</title>
<path fill="none" stroke="#191970" d="M137.2097,-108.4435C162.837,-99.3986 203.4516,-85.064 232.2048,-74.9158"/>
<polygon fill="#191970" stroke="#191970" points="233.5715,-78.1452 241.8365,-71.5164 231.2417,-71.5442 233.5715,-78.1452"/>
</g>
<!-- Node6&#45;&gt;Node2 -->
<g id="edge7" class="edge">
<title>Node6&#45;&gt;Node2</title>
<path fill="none" stroke="#191970" d="M243.783,-54.4435C220.538,-45.4776 183.8176,-31.314 157.5512,-21.1827"/>
<polygon fill="#191970" stroke="#191970" points="158.6356,-17.8497 148.046,-17.5164 156.1165,-24.3807 158.6356,-17.8497"/>
</g>
</g>
</svg>
