<?xml version="1.0" encoding="UTF-8" standalone="no"?>
<!DOCTYPE svg PUBLIC "-//W3C//DTD SVG 1.1//EN"
 "http://www.w3.org/Graphics/SVG/1.1/DTD/svg11.dtd">
<!-- Generated by graphviz version 2.40.1 (20161225.0304)
 -->
<!-- Title: /home/jacques/repos/math4171/src/arcpython/PythonFloat.cpp Pages: 1 -->
<svg width="216pt" height="206pt"
 viewBox="0.00 0.00 215.50 206.00" xmlns="http://www.w3.org/2000/svg" xmlns:xlink="http://www.w3.org/1999/xlink">
<g id="graph0" class="graph" transform="scale(1 1) rotate(0) translate(4 202)">
<title>/home/jacques/repos/math4171/src/arcpython/PythonFloat.cpp</title>
<!-- Node0 -->
<g id="node1" class="node">
<title>Node0</title>
<polygon fill="#bfbfbf" stroke="#000000" points="11.5,-162.5 11.5,-197.5 151.5,-197.5 151.5,-162.5 11.5,-162.5"/>
<text text-anchor="start" x="19.5" y="-187.1" font-family="InputSans" font-size="8.00" fill="#000000">/home/jacques/repos</text>
<text text-anchor="start" x="19.5" y="-178.1" font-family="InputSans" font-size="8.00" fill="#000000">/math4171/src/arcpython</text>
<text text-anchor="middle" x="81.5" y="-169.1" font-family="InputSans" font-size="8.00" fill="#000000">/PythonFloat.cpp</text>
</g>
<!-- Node1 -->
<g id="node2" class="node">
<title>Node1</title>
<g id="a_node2"><a xlink:href="_python_float_8hpp.html" target="_top" xlink:title="PythonFloat.hpp">
<polygon fill="none" stroke="#000000" points="35.5,-108.5 35.5,-125.5 127.5,-125.5 127.5,-108.5 35.5,-108.5"/>
<text text-anchor="middle" x="81.5" y="-115.1" font-family="InputSans" font-size="8.00" fill="#000000">PythonFloat.hpp</text>
</a>
</g>
</g>
<!-- Node0&#45;&gt;Node1 -->
<g id="edge1" class="edge">
<title>Node0&#45;&gt;Node1</title>
<path fill="none" stroke="#191970" d="M81.5,-162.451C81.5,-154.1476 81.5,-144.2234 81.5,-135.7698"/>
<polygon fill="#191970" stroke="#191970" points="85.0001,-135.764 81.5,-125.764 78.0001,-135.7641 85.0001,-135.764"/>
</g>
<!-- Node2 -->
<g id="node3" class="node">
<title>Node2</title>
<polygon fill="none" stroke="#bfbfbf" points="0,-54.5 0,-71.5 53,-71.5 53,-54.5 0,-54.5"/>
<text text-anchor="middle" x="26.5" y="-61.1" font-family="InputSans" font-size="8.00" fill="#000000">cassert</text>
</g>
<!-- Node1&#45;&gt;Node2 -->
<g id="edge2" class="edge">
<title>Node1&#45;&gt;Node2</title>
<path fill="none" stroke="#191970" d="M72.4179,-108.083C64.3287,-100.1409 52.3046,-88.3354 42.5898,-78.7973"/>
<polygon fill="#191970" stroke="#191970" points="45.0009,-76.2595 35.4131,-71.7511 40.0967,-81.2545 45.0009,-76.2595"/>
</g>
<!-- Node3 -->
<g id="node4" class="node">
<title>Node3</title>
<polygon fill="none" stroke="#bfbfbf" points="54,-.5 54,-17.5 111,-17.5 111,-.5 54,-.5"/>
<text text-anchor="middle" x="82.5" y="-7.1" font-family="InputSans" font-size="8.00" fill="#000000">Python.h</text>
</g>
<!-- Node1&#45;&gt;Node3 -->
<g id="edge3" class="edge">
<title>Node1&#45;&gt;Node3</title>
<path fill="none" stroke="#191970" d="M81.5818,-108.1619C81.7438,-90.6713 82.1083,-51.3048 82.3262,-27.7731"/>
<polygon fill="#191970" stroke="#191970" points="85.827,-27.6904 82.4198,-17.6584 78.8273,-27.6255 85.827,-27.6904"/>
</g>
<!-- Node4 -->
<g id="node5" class="node">
<title>Node4</title>
<g id="a_node5"><a xlink:href="_python_object_8hpp.html" target="_top" xlink:title="PythonObject.hpp">
<polygon fill="none" stroke="#000000" points="109.5,-54.5 109.5,-71.5 207.5,-71.5 207.5,-54.5 109.5,-54.5"/>
<text text-anchor="middle" x="158.5" y="-61.1" font-family="InputSans" font-size="8.00" fill="#000000">PythonObject.hpp</text>
</a>
</g>
</g>
<!-- Node1&#45;&gt;Node4 -->
<g id="edge4" class="edge">
<title>Node1&#45;&gt;Node4</title>
<path fill="none" stroke="#191970" d="M93.8714,-108.324C105.6585,-100.0577 123.6323,-87.4527 137.6355,-77.6322"/>
<polygon fill="#191970" stroke="#191970" points="139.9816,-80.2619 146.1593,-71.6545 135.9624,-74.5307 139.9816,-80.2619"/>
</g>
<!-- Node4&#45;&gt;Node3 -->
<g id="edge6" class="edge">
<title>Node4&#45;&gt;Node3</title>
<path fill="none" stroke="#191970" d="M146.2893,-54.324C134.7241,-46.1066 117.1246,-33.6017 103.3393,-23.8069"/>
<polygon fill="#191970" stroke="#191970" points="105.112,-20.7729 94.9329,-17.8339 101.0575,-26.4791 105.112,-20.7729"/>
</g>
<!-- Node5 -->
<g id="node6" class="node">
<title>Node5</title>
<polygon fill="none" stroke="#bfbfbf" points="129,-.5 129,-17.5 188,-17.5 188,-.5 129,-.5"/>
<text text-anchor="middle" x="158.5" y="-7.1" font-family="InputSans" font-size="8.00" fill="#000000">iostream</text>
</g>
<!-- Node4&#45;&gt;Node5 -->
<g id="edge5" class="edge">
<title>Node4&#45;&gt;Node5</title>
<path fill="none" stroke="#191970" d="M158.5,-54.083C158.5,-47.0059 158.5,-36.8611 158.5,-27.9865"/>
<polygon fill="#191970" stroke="#191970" points="162.0001,-27.751 158.5,-17.7511 155.0001,-27.7511 162.0001,-27.751"/>
</g>
</g>
</svg>
