<?xml version="1.0" encoding="UTF-8" standalone="no"?>
<!DOCTYPE svg PUBLIC "-//W3C//DTD SVG 1.1//EN"
 "http://www.w3.org/Graphics/SVG/1.1/DTD/svg11.dtd">
<!-- Generated by graphviz version 2.40.1 (20161225.0304)
 -->
<!-- Title: /home/jacques/repos/math4171/src/arcpython/PythonFloat.cpp Pages: 1 -->
<svg width="275pt" height="206pt"
 viewBox="0.00 0.00 274.50 206.00" xmlns="http://www.w3.org/2000/svg" xmlns:xlink="http://www.w3.org/1999/xlink">
<g id="graph0" class="graph" transform="scale(1 1) rotate(0) translate(4 202)">
<title>/home/jacques/repos/math4171/src/arcpython/PythonFloat.cpp</title>
<!-- Node0 -->
<g id="node1" class="node">
<title>Node0</title>
<polygon fill="#bfbfbf" stroke="#000000" points="56.5,-162.5 56.5,-197.5 180.5,-197.5 180.5,-162.5 56.5,-162.5"/>
<text text-anchor="start" x="64.5" y="-187.1" font-family="InputSans" font-size="8.00" fill="#000000">/home/jacques/repos</text>
<text text-anchor="start" x="64.5" y="-178.1" font-family="InputSans" font-size="8.00" fill="#000000">/math4171/src/arcpython</text>
<text text-anchor="middle" x="118.5" y="-169.1" font-family="InputSans" font-size="8.00" fill="#000000">/PythonFloat.cpp</text>
</g>
<!-- Node1 -->
<g id="node2" class="node">
<title>Node1</title>
<g id="a_node2"><a xlink:href="_python_float_8hpp.html" target="_top" xlink:title="PythonFloat.hpp">
<polygon fill="none" stroke="#000000" points="76,-108.5 76,-125.5 161,-125.5 161,-108.5 76,-108.5"/>
<text text-anchor="middle" x="118.5" y="-115.1" font-family="InputSans" font-size="8.00" fill="#000000">PythonFloat.hpp</text>
</a>
</g>
</g>
<!-- Node0&#45;&gt;Node1 -->
<g id="edge1" class="edge">
<title>Node0&#45;&gt;Node1</title>
<path fill="none" stroke="#191970" d="M118.5,-162.451C118.5,-154.1476 118.5,-144.2234 118.5,-135.7698"/>
<polygon fill="#191970" stroke="#191970" points="122.0001,-135.764 118.5,-125.764 115.0001,-135.7641 122.0001,-135.764"/>
</g>
<!-- Node2 -->
<g id="node3" class="node">
<title>Node2</title>
<polygon fill="none" stroke="#bfbfbf" points="0,-54.5 0,-71.5 47,-71.5 47,-54.5 0,-54.5"/>
<text text-anchor="middle" x="23.5" y="-61.1" font-family="InputSans" font-size="8.00" fill="#000000">cassert</text>
</g>
<!-- Node1&#45;&gt;Node2 -->
<g id="edge2" class="edge">
<title>Node1&#45;&gt;Node2</title>
<path fill="none" stroke="#191970" d="M103.2366,-108.324C88.2786,-99.8215 65.2452,-86.7288 47.7733,-76.7975"/>
<polygon fill="#191970" stroke="#191970" points="49.1488,-73.5534 38.7255,-71.6545 45.6896,-79.639 49.1488,-73.5534"/>
</g>
<!-- Node3 -->
<g id="node4" class="node">
<title>Node3</title>
<polygon fill="none" stroke="#bfbfbf" points="65,-54.5 65,-71.5 118,-71.5 118,-54.5 65,-54.5"/>
<text text-anchor="middle" x="91.5" y="-61.1" font-family="InputSans" font-size="8.00" fill="#000000">memory</text>
</g>
<!-- Node1&#45;&gt;Node3 -->
<g id="edge3" class="edge">
<title>Node1&#45;&gt;Node3</title>
<path fill="none" stroke="#191970" d="M114.0415,-108.083C110.3457,-100.6913 104.9766,-89.9533 100.4055,-80.8111"/>
<polygon fill="#191970" stroke="#191970" points="103.4782,-79.1301 95.8755,-71.7511 97.2172,-82.2606 103.4782,-79.1301"/>
</g>
<!-- Node4 -->
<g id="node5" class="node">
<title>Node4</title>
<polygon fill="none" stroke="#bfbfbf" points="156.5,-.5 156.5,-17.5 210.5,-17.5 210.5,-.5 156.5,-.5"/>
<text text-anchor="middle" x="183.5" y="-7.1" font-family="InputSans" font-size="8.00" fill="#000000">Python.h</text>
</g>
<!-- Node1&#45;&gt;Node4 -->
<g id="edge4" class="edge">
<title>Node1&#45;&gt;Node4</title>
<path fill="none" stroke="#191970" d="M123.8192,-108.1619C134.5374,-90.3533 158.9047,-49.8661 172.9643,-26.5054"/>
<polygon fill="#191970" stroke="#191970" points="176.1311,-28.0311 178.2889,-17.6584 170.1335,-24.4215 176.1311,-28.0311"/>
</g>
<!-- Node5 -->
<g id="node6" class="node">
<title>Node5</title>
<g id="a_node6"><a xlink:href="_python_object_8hpp.html" target="_top" xlink:title="PythonObject.hpp">
<polygon fill="none" stroke="#000000" points="174.5,-54.5 174.5,-71.5 266.5,-71.5 266.5,-54.5 174.5,-54.5"/>
<text text-anchor="middle" x="220.5" y="-61.1" font-family="InputSans" font-size="8.00" fill="#000000">PythonObject.hpp</text>
</a>
</g>
</g>
<!-- Node1&#45;&gt;Node5 -->
<g id="edge5" class="edge">
<title>Node1&#45;&gt;Node5</title>
<path fill="none" stroke="#191970" d="M134.8881,-108.324C151.1713,-99.7034 176.3675,-86.3643 195.2163,-76.3855"/>
<polygon fill="#191970" stroke="#191970" points="196.9523,-79.4267 204.1526,-71.6545 193.6771,-73.2402 196.9523,-79.4267"/>
</g>
<!-- Node5&#45;&gt;Node4 -->
<g id="edge6" class="edge">
<title>Node5&#45;&gt;Node4</title>
<path fill="none" stroke="#191970" d="M214.3902,-54.083C209.2178,-46.5341 201.6539,-35.4948 195.3056,-26.2298"/>
<polygon fill="#191970" stroke="#191970" points="198.0357,-24.0221 189.4961,-17.7511 192.2612,-27.9787 198.0357,-24.0221"/>
</g>
</g>
</svg>
