<?xml version="1.0" encoding="UTF-8" standalone="no"?>
<!DOCTYPE svg PUBLIC "-//W3C//DTD SVG 1.1//EN"
 "http://www.w3.org/Graphics/SVG/1.1/DTD/svg11.dtd">
<!-- Generated by graphviz version 2.40.1 (20161225.0304)
 -->
<!-- Title: /home/jacques/repos/math4171/src/arcpython/PythonCommon.cpp Pages: 1 -->
<svg width="234pt" height="206pt"
 viewBox="0.00 0.00 233.50 206.00" xmlns="http://www.w3.org/2000/svg" xmlns:xlink="http://www.w3.org/1999/xlink">
<g id="graph0" class="graph" transform="scale(1 1) rotate(0) translate(4 202)">
<title>/home/jacques/repos/math4171/src/arcpython/PythonCommon.cpp</title>
<!-- Node0 -->
<g id="node1" class="node">
<title>Node0</title>
<polygon fill="#bfbfbf" stroke="#000000" points="29.5,-162.5 29.5,-197.5 169.5,-197.5 169.5,-162.5 29.5,-162.5"/>
<text text-anchor="start" x="37.5" y="-187.1" font-family="InputSans" font-size="8.00" fill="#000000">/home/jacques/repos</text>
<text text-anchor="start" x="37.5" y="-178.1" font-family="InputSans" font-size="8.00" fill="#000000">/math4171/src/arcpython</text>
<text text-anchor="middle" x="99.5" y="-169.1" font-family="InputSans" font-size="8.00" fill="#000000">/PythonCommon.cpp</text>
</g>
<!-- Node1 -->
<g id="node2" class="node">
<title>Node1</title>
<g id="a_node2"><a xlink:href="_python_common_8hpp.html" target="_top" xlink:title="PythonCommon.hpp">
<polygon fill="none" stroke="#000000" points="47.5,-108.5 47.5,-125.5 151.5,-125.5 151.5,-108.5 47.5,-108.5"/>
<text text-anchor="middle" x="99.5" y="-115.1" font-family="InputSans" font-size="8.00" fill="#000000">PythonCommon.hpp</text>
</a>
</g>
</g>
<!-- Node0&#45;&gt;Node1 -->
<g id="edge1" class="edge">
<title>Node0&#45;&gt;Node1</title>
<path fill="none" stroke="#191970" d="M99.5,-162.451C99.5,-154.1476 99.5,-144.2234 99.5,-135.7698"/>
<polygon fill="#191970" stroke="#191970" points="103.0001,-135.764 99.5,-125.764 96.0001,-135.7641 103.0001,-135.764"/>
</g>
<!-- Node2 -->
<g id="node3" class="node">
<title>Node2</title>
<polygon fill="none" stroke="#bfbfbf" points="0,-54.5 0,-71.5 71,-71.5 71,-54.5 0,-54.5"/>
<text text-anchor="middle" x="35.5" y="-61.1" font-family="InputSans" font-size="8.00" fill="#000000">type_traits</text>
</g>
<!-- Node1&#45;&gt;Node2 -->
<g id="edge2" class="edge">
<title>Node1&#45;&gt;Node2</title>
<path fill="none" stroke="#191970" d="M89.2173,-108.324C79.6637,-100.2631 65.2203,-88.0765 53.7157,-78.3695"/>
<polygon fill="#191970" stroke="#191970" points="55.8698,-75.6076 45.9698,-71.8339 51.3557,-80.9577 55.8698,-75.6076"/>
</g>
<!-- Node3 -->
<g id="node4" class="node">
<title>Node3</title>
<polygon fill="none" stroke="#bfbfbf" points="72,-.5 72,-17.5 129,-17.5 129,-.5 72,-.5"/>
<text text-anchor="middle" x="100.5" y="-7.1" font-family="InputSans" font-size="8.00" fill="#000000">Python.h</text>
</g>
<!-- Node1&#45;&gt;Node3 -->
<g id="edge3" class="edge">
<title>Node1&#45;&gt;Node3</title>
<path fill="none" stroke="#191970" d="M99.5818,-108.1619C99.7438,-90.6713 100.1083,-51.3048 100.3262,-27.7731"/>
<polygon fill="#191970" stroke="#191970" points="103.827,-27.6904 100.4198,-17.6584 96.8273,-27.6255 103.827,-27.6904"/>
</g>
<!-- Node4 -->
<g id="node5" class="node">
<title>Node4</title>
<g id="a_node5"><a xlink:href="_python_object_8hpp.html" target="_top" xlink:title="PythonObject.hpp">
<polygon fill="none" stroke="#000000" points="127.5,-54.5 127.5,-71.5 225.5,-71.5 225.5,-54.5 127.5,-54.5"/>
<text text-anchor="middle" x="176.5" y="-61.1" font-family="InputSans" font-size="8.00" fill="#000000">PythonObject.hpp</text>
</a>
</g>
</g>
<!-- Node1&#45;&gt;Node4 -->
<g id="edge4" class="edge">
<title>Node1&#45;&gt;Node4</title>
<path fill="none" stroke="#191970" d="M111.8714,-108.324C123.6585,-100.0577 141.6323,-87.4527 155.6355,-77.6322"/>
<polygon fill="#191970" stroke="#191970" points="157.9816,-80.2619 164.1593,-71.6545 153.9624,-74.5307 157.9816,-80.2619"/>
</g>
<!-- Node4&#45;&gt;Node3 -->
<g id="edge6" class="edge">
<title>Node4&#45;&gt;Node3</title>
<path fill="none" stroke="#191970" d="M164.2893,-54.324C152.7241,-46.1066 135.1246,-33.6017 121.3393,-23.8069"/>
<polygon fill="#191970" stroke="#191970" points="123.112,-20.7729 112.9329,-17.8339 119.0575,-26.4791 123.112,-20.7729"/>
</g>
<!-- Node5 -->
<g id="node6" class="node">
<title>Node5</title>
<polygon fill="none" stroke="#bfbfbf" points="147,-.5 147,-17.5 206,-17.5 206,-.5 147,-.5"/>
<text text-anchor="middle" x="176.5" y="-7.1" font-family="InputSans" font-size="8.00" fill="#000000">iostream</text>
</g>
<!-- Node4&#45;&gt;Node5 -->
<g id="edge5" class="edge">
<title>Node4&#45;&gt;Node5</title>
<path fill="none" stroke="#191970" d="M176.5,-54.083C176.5,-47.0059 176.5,-36.8611 176.5,-27.9865"/>
<polygon fill="#191970" stroke="#191970" points="180.0001,-27.751 176.5,-17.7511 173.0001,-27.7511 180.0001,-27.751"/>
</g>
</g>
</svg>
