<?xml version="1.0" encoding="UTF-8" standalone="no"?>
<!DOCTYPE svg PUBLIC "-//W3C//DTD SVG 1.1//EN"
 "http://www.w3.org/Graphics/SVG/1.1/DTD/svg11.dtd">
<!-- Generated by graphviz version 2.40.1 (20161225.0304)
 -->
<!-- Title: /home/jacques/repos/math4171/src/arcpython/PythonFunction.cpp Pages: 1 -->
<svg width="792pt" height="206pt"
 viewBox="0.00 0.00 791.83 206.00" xmlns="http://www.w3.org/2000/svg" xmlns:xlink="http://www.w3.org/1999/xlink">
<g id="graph0" class="graph" transform="scale(1 1) rotate(0) translate(4 202)">
<title>/home/jacques/repos/math4171/src/arcpython/PythonFunction.cpp</title>
<!-- Node0 -->
<g id="node1" class="node">
<title>Node0</title>
<polygon fill="#bfbfbf" stroke="#000000" points="329.8378,-162.5 329.8378,-197.5 469.8378,-197.5 469.8378,-162.5 329.8378,-162.5"/>
<text text-anchor="start" x="337.8378" y="-187.1" font-family="InputSans" font-size="8.00" fill="#000000">/home/jacques/repos</text>
<text text-anchor="start" x="337.8378" y="-178.1" font-family="InputSans" font-size="8.00" fill="#000000">/math4171/src/arcpython</text>
<text text-anchor="middle" x="399.8378" y="-169.1" font-family="InputSans" font-size="8.00" fill="#000000">/PythonFunction.cpp</text>
</g>
<!-- Node1 -->
<g id="node2" class="node">
<title>Node1</title>
<g id="a_node2"><a xlink:href="_python_common_8hpp.html" target="_top" xlink:title="PythonCommon.hpp">
<polygon fill="none" stroke="#000000" points="158.8378,-108.5 158.8378,-125.5 262.8378,-125.5 262.8378,-108.5 158.8378,-108.5"/>
<text text-anchor="middle" x="210.8378" y="-115.1" font-family="InputSans" font-size="8.00" fill="#000000">PythonCommon.hpp</text>
</a>
</g>
</g>
<!-- Node0&#45;&gt;Node1 -->
<g id="edge1" class="edge">
<title>Node0&#45;&gt;Node1</title>
<path fill="none" stroke="#191970" d="M347.1908,-162.451C314.8502,-151.6708 274.314,-138.1587 245.877,-128.6797"/>
<polygon fill="#191970" stroke="#191970" points="246.95,-125.3481 236.3564,-125.5062 244.7364,-131.9889 246.95,-125.3481"/>
</g>
<!-- Node6 -->
<g id="node7" class="node">
<title>Node6</title>
<g id="a_node7"><a xlink:href="_python_float_8hpp.html" target="_top" xlink:title="PythonFloat.hpp">
<polygon fill="none" stroke="#000000" points="14.8378,-108.5 14.8378,-125.5 106.8378,-125.5 106.8378,-108.5 14.8378,-108.5"/>
<text text-anchor="middle" x="60.8378" y="-115.1" font-family="InputSans" font-size="8.00" fill="#000000">PythonFloat.hpp</text>
</a>
</g>
</g>
<!-- Node0&#45;&gt;Node6 -->
<g id="edge7" class="edge">
<title>Node0&#45;&gt;Node6</title>
<path fill="none" stroke="#191970" d="M329.5968,-166.9464C266.4786,-155.2164 175.0077,-138.2174 116.7334,-127.3877"/>
<polygon fill="#191970" stroke="#191970" points="117.0804,-123.8923 106.6092,-125.5062 115.8013,-130.7745 117.0804,-123.8923"/>
</g>
<!-- Node8 -->
<g id="node9" class="node">
<title>Node8</title>
<g id="a_node9"><a xlink:href="_python_list_8hpp.html" target="_top" xlink:title="PythonList.hpp">
<polygon fill="none" stroke="#000000" points="297.8378,-108.5 297.8378,-125.5 383.8378,-125.5 383.8378,-108.5 297.8378,-108.5"/>
<text text-anchor="middle" x="340.8378" y="-115.1" font-family="InputSans" font-size="8.00" fill="#000000">PythonList.hpp</text>
</a>
</g>
</g>
<!-- Node0&#45;&gt;Node8 -->
<g id="edge11" class="edge">
<title>Node0&#45;&gt;Node8</title>
<path fill="none" stroke="#191970" d="M383.403,-162.451C374.8405,-153.3079 364.4375,-142.1997 356.0594,-133.2536"/>
<polygon fill="#191970" stroke="#191970" points="358.4356,-130.6706 349.0454,-125.764 353.3263,-135.4555 358.4356,-130.6706"/>
</g>
<!-- Node11 -->
<g id="node12" class="node">
<title>Node11</title>
<g id="a_node12"><a xlink:href="_python_module_8hpp.html" target="_top" xlink:title="PythonModule.hpp">
<polygon fill="none" stroke="#000000" points="526.3378,-108.5 526.3378,-125.5 625.3378,-125.5 625.3378,-108.5 526.3378,-108.5"/>
<text text-anchor="middle" x="575.8378" y="-115.1" font-family="InputSans" font-size="8.00" fill="#000000">PythonModule.hpp</text>
</a>
</g>
</g>
<!-- Node0&#45;&gt;Node11 -->
<g id="edge17" class="edge">
<title>Node0&#45;&gt;Node11</title>
<path fill="none" stroke="#191970" d="M448.8636,-162.451C478.6266,-151.7972 515.8433,-138.4753 542.2724,-129.0149"/>
<polygon fill="#191970" stroke="#191970" points="543.5999,-132.2573 551.8353,-125.5918 541.2408,-125.6668 543.5999,-132.2573"/>
</g>
<!-- Node13 -->
<g id="node14" class="node">
<title>Node13</title>
<g id="a_node14"><a xlink:href="_python_tuple_8hpp.html" target="_top" xlink:title="PythonTuple.hpp">
<polygon fill="none" stroke="#000000" points="409.8378,-108.5 409.8378,-125.5 501.8378,-125.5 501.8378,-108.5 409.8378,-108.5"/>
<text text-anchor="middle" x="455.8378" y="-115.1" font-family="InputSans" font-size="8.00" fill="#000000">PythonTuple.hpp</text>
</a>
</g>
</g>
<!-- Node0&#45;&gt;Node13 -->
<g id="edge23" class="edge">
<title>Node0&#45;&gt;Node13</title>
<path fill="none" stroke="#191970" d="M415.4369,-162.451C423.5642,-153.3079 433.4381,-142.1997 441.3902,-133.2536"/>
<polygon fill="#191970" stroke="#191970" points="444.0199,-135.5634 448.0476,-125.764 438.788,-130.9129 444.0199,-135.5634"/>
</g>
<!-- Node14 -->
<g id="node15" class="node">
<title>Node14</title>
<g id="a_node15"><a xlink:href="_python_function_8hpp.html" target="_top" xlink:title="PythonFunction.hpp">
<polygon fill="none" stroke="#000000" points="654.3378,-108.5 654.3378,-125.5 761.3378,-125.5 761.3378,-108.5 654.3378,-108.5"/>
<text text-anchor="middle" x="707.8378" y="-115.1" font-family="InputSans" font-size="8.00" fill="#000000">PythonFunction.hpp</text>
</a>
</g>
</g>
<!-- Node0&#45;&gt;Node14 -->
<g id="edge29" class="edge">
<title>Node0&#45;&gt;Node14</title>
<path fill="none" stroke="#191970" d="M470.1132,-165.6255C526.8722,-154.0157 605.4316,-137.9467 656.4394,-127.5133"/>
<polygon fill="#191970" stroke="#191970" points="657.1632,-130.9378 666.2589,-125.5048 655.7604,-124.0798 657.1632,-130.9378"/>
</g>
<!-- Node2 -->
<g id="node3" class="node">
<title>Node2</title>
<polygon fill="none" stroke="#bfbfbf" points="85.3378,-54.5 85.3378,-71.5 156.3378,-71.5 156.3378,-54.5 85.3378,-54.5"/>
<text text-anchor="middle" x="120.8378" y="-61.1" font-family="InputSans" font-size="8.00" fill="#000000">type_traits</text>
</g>
<!-- Node1&#45;&gt;Node2 -->
<g id="edge2" class="edge">
<title>Node1&#45;&gt;Node2</title>
<path fill="none" stroke="#191970" d="M196.3778,-108.324C182.3382,-99.9002 160.7893,-86.9709 144.2947,-77.0741"/>
<polygon fill="#191970" stroke="#191970" points="145.6377,-73.7983 135.262,-71.6545 142.0362,-79.8007 145.6377,-73.7983"/>
</g>
<!-- Node3 -->
<g id="node4" class="node">
<title>Node3</title>
<polygon fill="none" stroke="#bfbfbf" points="309.3378,-.5 309.3378,-17.5 366.3378,-17.5 366.3378,-.5 309.3378,-.5"/>
<text text-anchor="middle" x="337.8378" y="-7.1" font-family="InputSans" font-size="8.00" fill="#000000">Python.h</text>
</g>
<!-- Node1&#45;&gt;Node3 -->
<g id="edge3" class="edge">
<title>Node1&#45;&gt;Node3</title>
<path fill="none" stroke="#191970" d="M212.6591,-108.1284C215.8181,-94.7847 223.4992,-69.468 238.8378,-54 255.4031,-37.2949 279.2981,-26.1905 299.4624,-19.1924"/>
<polygon fill="#191970" stroke="#191970" points="300.5895,-22.5064 309.013,-16.0803 298.4207,-15.8508 300.5895,-22.5064"/>
</g>
<!-- Node4 -->
<g id="node5" class="node">
<title>Node4</title>
<g id="a_node5"><a xlink:href="_python_object_8hpp.html" target="_top" xlink:title="PythonObject.hpp">
<polygon fill="none" stroke="#000000" points="288.8378,-54.5 288.8378,-71.5 386.8378,-71.5 386.8378,-54.5 288.8378,-54.5"/>
<text text-anchor="middle" x="337.8378" y="-61.1" font-family="InputSans" font-size="8.00" fill="#000000">PythonObject.hpp</text>
</a>
</g>
</g>
<!-- Node1&#45;&gt;Node4 -->
<g id="edge4" class="edge">
<title>Node1&#45;&gt;Node4</title>
<path fill="none" stroke="#191970" d="M230.9614,-108.4435C251.8621,-99.5566 284.7725,-85.5632 308.554,-75.4514"/>
<polygon fill="#191970" stroke="#191970" points="309.9753,-78.6504 317.8084,-71.5164 307.2362,-72.2085 309.9753,-78.6504"/>
</g>
<!-- Node4&#45;&gt;Node3 -->
<g id="edge6" class="edge">
<title>Node4&#45;&gt;Node3</title>
<path fill="none" stroke="#191970" d="M337.8378,-54.083C337.8378,-47.0059 337.8378,-36.8611 337.8378,-27.9865"/>
<polygon fill="#191970" stroke="#191970" points="341.3379,-27.751 337.8378,-17.7511 334.3379,-27.7511 341.3379,-27.751"/>
</g>
<!-- Node5 -->
<g id="node6" class="node">
<title>Node5</title>
<polygon fill="none" stroke="#bfbfbf" points="487.3378,-.5 487.3378,-17.5 546.3378,-17.5 546.3378,-.5 487.3378,-.5"/>
<text text-anchor="middle" x="516.8378" y="-7.1" font-family="InputSans" font-size="8.00" fill="#000000">iostream</text>
</g>
<!-- Node4&#45;&gt;Node5 -->
<g id="edge5" class="edge">
<title>Node4&#45;&gt;Node5</title>
<path fill="none" stroke="#191970" d="M366.2009,-54.4435C396.576,-45.2801 444.9476,-30.6876 478.6539,-20.5192"/>
<polygon fill="#191970" stroke="#191970" points="480.0445,-23.7555 488.6074,-17.5164 478.0227,-17.0538 480.0445,-23.7555"/>
</g>
<!-- Node6&#45;&gt;Node3 -->
<g id="edge9" class="edge">
<title>Node6&#45;&gt;Node3</title>
<path fill="none" stroke="#191970" d="M43.6357,-108.4807C21.4661,-96.4099 -12.3035,-73.6135 4.8378,-54 23.9817,-32.0951 215.4615,-17.0056 299.0951,-11.4095"/>
<polygon fill="#191970" stroke="#191970" points="299.4637,-14.8929 309.2123,-10.7437 299.0041,-7.908 299.4637,-14.8929"/>
</g>
<!-- Node6&#45;&gt;Node4 -->
<g id="edge10" class="edge">
<title>Node6&#45;&gt;Node4</title>
<path fill="none" stroke="#191970" d="M104.7293,-108.4435C153.3552,-98.9641 231.7842,-83.6747 284.0615,-73.4835"/>
<polygon fill="#191970" stroke="#191970" points="285.0062,-76.8653 294.1517,-71.5164 283.6667,-69.9946 285.0062,-76.8653"/>
</g>
<!-- Node7 -->
<g id="node8" class="node">
<title>Node7</title>
<polygon fill="none" stroke="#bfbfbf" points="14.3378,-54.5 14.3378,-71.5 67.3378,-71.5 67.3378,-54.5 14.3378,-54.5"/>
<text text-anchor="middle" x="40.8378" y="-61.1" font-family="InputSans" font-size="8.00" fill="#000000">cassert</text>
</g>
<!-- Node6&#45;&gt;Node7 -->
<g id="edge8" class="edge">
<title>Node6&#45;&gt;Node7</title>
<path fill="none" stroke="#191970" d="M57.5352,-108.083C54.8558,-100.8486 50.9892,-90.4087 47.6514,-81.3968"/>
<polygon fill="#191970" stroke="#191970" points="50.8343,-79.9129 44.079,-71.7511 44.2701,-82.3442 50.8343,-79.9129"/>
</g>
<!-- Node8&#45;&gt;Node3 -->
<g id="edge12" class="edge">
<title>Node8&#45;&gt;Node3</title>
<path fill="none" stroke="#191970" d="M300.6904,-108.4294C280.863,-101.9535 258.6997,-90.8297 246.8378,-72 230.942,-46.7669 267.7676,-28.9736 299.2313,-18.8738"/>
<polygon fill="#191970" stroke="#191970" points="300.6251,-22.1089 309.1847,-15.8652 298.5997,-15.4083 300.6251,-22.1089"/>
</g>
<!-- Node8&#45;&gt;Node4 -->
<g id="edge16" class="edge">
<title>Node8&#45;&gt;Node4</title>
<path fill="none" stroke="#191970" d="M340.3424,-108.083C339.9493,-101.0059 339.3857,-90.8611 338.8926,-81.9865"/>
<polygon fill="#191970" stroke="#191970" points="342.3734,-81.5415 338.324,-71.7511 335.3842,-81.9299 342.3734,-81.5415"/>
</g>
<!-- Node8&#45;&gt;Node5 -->
<g id="edge13" class="edge">
<title>Node8&#45;&gt;Node5</title>
<path fill="none" stroke="#191970" d="M321.6835,-108.4346C297.9895,-96.6765 262.7492,-74.6386 279.8378,-54 304.4556,-24.2681 416.5028,-14.0218 477.3061,-10.6151"/>
<polygon fill="#191970" stroke="#191970" points="477.5144,-14.1091 487.3173,-10.0901 477.1477,-7.1187 477.5144,-14.1091"/>
</g>
<!-- Node9 -->
<g id="node10" class="node">
<title>Node9</title>
<polygon fill="none" stroke="#bfbfbf" points="545.3378,-54.5 545.3378,-71.5 596.3378,-71.5 596.3378,-54.5 545.3378,-54.5"/>
<text text-anchor="middle" x="570.8378" y="-61.1" font-family="InputSans" font-size="8.00" fill="#000000">memory</text>
</g>
<!-- Node8&#45;&gt;Node9 -->
<g id="edge14" class="edge">
<title>Node8&#45;&gt;Node9</title>
<path fill="none" stroke="#191970" d="M377.282,-108.4435C420.579,-98.2781 492.3335,-81.4315 535.2508,-71.3552"/>
<polygon fill="#191970" stroke="#191970" points="536.3112,-74.7015 545.2464,-69.0084 534.7111,-67.8868 536.3112,-74.7015"/>
</g>
<!-- Node10 -->
<g id="node11" class="node">
<title>Node10</title>
<polygon fill="none" stroke="#bfbfbf" points="404.8378,-54.5 404.8378,-71.5 450.8378,-71.5 450.8378,-54.5 404.8378,-54.5"/>
<text text-anchor="middle" x="427.8378" y="-61.1" font-family="InputSans" font-size="8.00" fill="#000000">vector</text>
</g>
<!-- Node8&#45;&gt;Node10 -->
<g id="edge15" class="edge">
<title>Node8&#45;&gt;Node10</title>
<path fill="none" stroke="#191970" d="M354.8159,-108.324C368.3874,-99.9002 389.218,-86.9709 405.1628,-77.0741"/>
<polygon fill="#191970" stroke="#191970" points="407.2438,-79.9019 413.8945,-71.6545 403.5523,-73.9544 407.2438,-79.9019"/>
</g>
<!-- Node11&#45;&gt;Node3 -->
<g id="edge21" class="edge">
<title>Node11&#45;&gt;Node3</title>
<path fill="none" stroke="#191970" d="M585.4786,-108.4702C598.908,-95.573 620.0789,-70.8317 605.8378,-54 591.2001,-36.6995 447.5698,-20.0197 376.8191,-12.7742"/>
<polygon fill="#191970" stroke="#191970" points="376.8279,-9.2574 366.5266,-11.7342 376.124,-16.2219 376.8279,-9.2574"/>
</g>
<!-- Node11&#45;&gt;Node4 -->
<g id="edge22" class="edge">
<title>Node11&#45;&gt;Node4</title>
<path fill="none" stroke="#191970" d="M538.126,-108.4435C496.6946,-99.0431 430.0811,-83.9291 385.1703,-73.7393"/>
<polygon fill="#191970" stroke="#191970" points="385.8998,-70.3159 375.3732,-71.5164 384.3509,-77.1424 385.8998,-70.3159"/>
</g>
<!-- Node11&#45;&gt;Node5 -->
<g id="edge18" class="edge">
<title>Node11&#45;&gt;Node5</title>
<path fill="none" stroke="#191970" d="M596.2362,-108.35C619.989,-97.0061 654.1393,-75.9531 638.8378,-54 629.0824,-40.0038 588.3203,-26.8485 556.5647,-18.4199"/>
<polygon fill="#191970" stroke="#191970" points="557.179,-14.9639 546.6216,-15.8544 555.4301,-21.7419 557.179,-14.9639"/>
</g>
<!-- Node11&#45;&gt;Node9 -->
<g id="edge19" class="edge">
<title>Node11&#45;&gt;Node9</title>
<path fill="none" stroke="#191970" d="M575.0122,-108.083C574.3569,-101.0059 573.4176,-90.8611 572.5958,-81.9865"/>
<polygon fill="#191970" stroke="#191970" points="576.0553,-81.3858 571.6481,-71.7511 569.0851,-82.0312 576.0553,-81.3858"/>
</g>
<!-- Node12 -->
<g id="node13" class="node">
<title>Node12</title>
<polygon fill="none" stroke="#bfbfbf" points="690.8378,-54.5 690.8378,-71.5 736.8378,-71.5 736.8378,-54.5 690.8378,-54.5"/>
<text text-anchor="middle" x="713.8378" y="-61.1" font-family="InputSans" font-size="8.00" fill="#000000">string</text>
</g>
<!-- Node11&#45;&gt;Node12 -->
<g id="edge20" class="edge">
<title>Node11&#45;&gt;Node12</title>
<path fill="none" stroke="#191970" d="M597.7043,-108.4435C620.6173,-99.4776 656.8131,-85.314 682.7043,-75.1827"/>
<polygon fill="#191970" stroke="#191970" points="684.0366,-78.4198 692.0736,-71.5164 681.4858,-71.9011 684.0366,-78.4198"/>
</g>
<!-- Node13&#45;&gt;Node3 -->
<g id="edge24" class="edge">
<title>Node13&#45;&gt;Node3</title>
<path fill="none" stroke="#191970" d="M459.5063,-108.3529C464.4099,-95.3025 471.2434,-70.3637 459.8378,-54 449.9659,-39.8367 408.3424,-26.5345 376.4311,-18.12"/>
<polygon fill="#191970" stroke="#191970" points="377.0201,-14.6579 366.4641,-15.5649 375.2817,-21.4386 377.0201,-14.6579"/>
</g>
<!-- Node13&#45;&gt;Node4 -->
<g id="edge28" class="edge">
<title>Node13&#45;&gt;Node4</title>
<path fill="none" stroke="#191970" d="M437.1404,-108.4435C417.8934,-99.6356 387.6853,-85.8116 365.6377,-75.722"/>
<polygon fill="#191970" stroke="#191970" points="366.9973,-72.4951 356.4478,-71.5164 364.0844,-78.8603 366.9973,-72.4951"/>
</g>
<!-- Node13&#45;&gt;Node5 -->
<g id="edge25" class="edge">
<title>Node13&#45;&gt;Node5</title>
<path fill="none" stroke="#191970" d="M464.4252,-108.341C472.6002,-99.7222 484.8135,-85.8198 492.8378,-72 501.1025,-57.7663 507.5293,-40.16 511.6435,-27.1814"/>
<polygon fill="#191970" stroke="#191970" points="515.0137,-28.1279 514.5451,-17.5435 508.3108,-26.1099 515.0137,-28.1279"/>
</g>
<!-- Node13&#45;&gt;Node9 -->
<g id="edge26" class="edge">
<title>Node13&#45;&gt;Node9</title>
<path fill="none" stroke="#191970" d="M474.0599,-108.4435C492.7335,-99.6751 521.9938,-85.9355 543.4552,-75.8579"/>
<polygon fill="#191970" stroke="#191970" points="545.1369,-78.935 552.701,-71.5164 542.1616,-72.5988 545.1369,-78.935"/>
</g>
<!-- Node13&#45;&gt;Node10 -->
<g id="edge27" class="edge">
<title>Node13&#45;&gt;Node10</title>
<path fill="none" stroke="#191970" d="M451.2142,-108.083C447.3815,-100.6913 441.8136,-89.9533 437.0732,-80.8111"/>
<polygon fill="#191970" stroke="#191970" points="440.0858,-79.0175 432.3754,-71.7511 433.8715,-82.2398 440.0858,-79.0175"/>
</g>
<!-- Node14&#45;&gt;Node3 -->
<g id="edge30" class="edge">
<title>Node14&#45;&gt;Node3</title>
<path fill="none" stroke="#191970" d="M719.6835,-108.3805C735.8804,-95.5835 761.2636,-71.2206 745.8378,-54 733.5802,-40.3161 476.2793,-19.4748 376.7074,-11.8891"/>
<polygon fill="#191970" stroke="#191970" points="376.7065,-8.3791 366.4707,-11.1136 376.1778,-15.3591 376.7065,-8.3791"/>
</g>
<!-- Node14&#45;&gt;Node4 -->
<g id="edge34" class="edge">
<title>Node14&#45;&gt;Node4</title>
<path fill="none" stroke="#191970" d="M654.2603,-109.4501C594.1521,-100.9402 493.4598,-86.5655 396.8205,-72.1345"/>
<polygon fill="#191970" stroke="#191970" points="397.2877,-68.6655 386.8799,-70.6477 396.2521,-75.5885 397.2877,-68.6655"/>
</g>
<!-- Node14&#45;&gt;Node5 -->
<g id="edge31" class="edge">
<title>Node14&#45;&gt;Node5</title>
<path fill="none" stroke="#191970" d="M730.7131,-108.4979C757.8764,-97.1499 797.3178,-75.9247 778.8378,-54 764.6564,-37.1752 626.203,-20.4446 556.5033,-13.005"/>
<polygon fill="#191970" stroke="#191970" points="556.6506,-9.5012 546.3389,-11.9339 555.917,-16.4627 556.6506,-9.5012"/>
</g>
<!-- Node14&#45;&gt;Node9 -->
<g id="edge32" class="edge">
<title>Node14&#45;&gt;Node9</title>
<path fill="none" stroke="#191970" d="M686.1298,-108.4435C663.483,-99.5171 627.7657,-85.4387 602.0861,-75.3168"/>
<polygon fill="#191970" stroke="#191970" points="603.0312,-71.9273 592.4443,-71.5164 600.4642,-78.4397 603.0312,-71.9273"/>
</g>
<!-- Node14&#45;&gt;Node12 -->
<g id="edge33" class="edge">
<title>Node14&#45;&gt;Node12</title>
<path fill="none" stroke="#191970" d="M708.8286,-108.083C709.6237,-100.9272 710.7672,-90.6353 711.761,-81.6911"/>
<polygon fill="#191970" stroke="#191970" points="715.2397,-82.0765 712.8655,-71.7511 708.2825,-81.3034 715.2397,-82.0765"/>
</g>
</g>
</svg>
