<?xml version="1.0" encoding="UTF-8" standalone="no"?>
<!DOCTYPE svg PUBLIC "-//W3C//DTD SVG 1.1//EN"
 "http://www.w3.org/Graphics/SVG/1.1/DTD/svg11.dtd">
<!-- Generated by graphviz version 2.40.1 (20161225.0304)
 -->
<!-- Title: /home/jacques/repos/math4171/src/arcpython/PythonFloat.hpp Pages: 1 -->
<svg width="275pt" height="152pt"
 viewBox="0.00 0.00 274.50 152.00" xmlns="http://www.w3.org/2000/svg" xmlns:xlink="http://www.w3.org/1999/xlink">
<g id="graph0" class="graph" transform="scale(1 1) rotate(0) translate(4 148)">
<title>/home/jacques/repos/math4171/src/arcpython/PythonFloat.hpp</title>
<!-- Node0 -->
<g id="node1" class="node">
<title>Node0</title>
<polygon fill="#bfbfbf" stroke="#000000" points="56.5,-108.5 56.5,-143.5 180.5,-143.5 180.5,-108.5 56.5,-108.5"/>
<text text-anchor="start" x="64.5" y="-133.1" font-family="InputSans" font-size="8.00" fill="#000000">/home/jacques/repos</text>
<text text-anchor="start" x="64.5" y="-124.1" font-family="InputSans" font-size="8.00" fill="#000000">/math4171/src/arcpython</text>
<text text-anchor="middle" x="118.5" y="-115.1" font-family="InputSans" font-size="8.00" fill="#000000">/PythonFloat.hpp</text>
</g>
<!-- Node1 -->
<g id="node2" class="node">
<title>Node1</title>
<polygon fill="none" stroke="#bfbfbf" points="0,-54.5 0,-71.5 47,-71.5 47,-54.5 0,-54.5"/>
<text text-anchor="middle" x="23.5" y="-61.1" font-family="InputSans" font-size="8.00" fill="#000000">cassert</text>
</g>
<!-- Node0&#45;&gt;Node1 -->
<g id="edge1" class="edge">
<title>Node0&#45;&gt;Node1</title>
<path fill="none" stroke="#191970" d="M92.0372,-108.451C77.1751,-98.5951 58.8697,-86.4557 44.9166,-77.2026"/>
<polygon fill="#191970" stroke="#191970" points="46.7243,-74.2017 36.4559,-71.5918 42.8555,-80.0355 46.7243,-74.2017"/>
</g>
<!-- Node2 -->
<g id="node3" class="node">
<title>Node2</title>
<polygon fill="none" stroke="#bfbfbf" points="65,-54.5 65,-71.5 118,-71.5 118,-54.5 65,-54.5"/>
<text text-anchor="middle" x="91.5" y="-61.1" font-family="InputSans" font-size="8.00" fill="#000000">memory</text>
</g>
<!-- Node0&#45;&gt;Node2 -->
<g id="edge2" class="edge">
<title>Node0&#45;&gt;Node2</title>
<path fill="none" stroke="#191970" d="M110.979,-108.451C107.3404,-99.961 102.9757,-89.7765 99.3009,-81.2022"/>
<polygon fill="#191970" stroke="#191970" points="102.4123,-79.5767 95.256,-71.764 95.9783,-82.3342 102.4123,-79.5767"/>
</g>
<!-- Node3 -->
<g id="node4" class="node">
<title>Node3</title>
<polygon fill="none" stroke="#bfbfbf" points="156.5,-.5 156.5,-17.5 210.5,-17.5 210.5,-.5 156.5,-.5"/>
<text text-anchor="middle" x="183.5" y="-7.1" font-family="InputSans" font-size="8.00" fill="#000000">Python.h</text>
</g>
<!-- Node0&#45;&gt;Node3 -->
<g id="edge3" class="edge">
<title>Node0&#45;&gt;Node3</title>
<path fill="none" stroke="#191970" d="M128.2312,-108.4839C140.516,-86.3713 161.5231,-48.5584 173.7954,-26.4684"/>
<polygon fill="#191970" stroke="#191970" points="176.9597,-27.9795 178.7566,-17.5381 170.8406,-24.58 176.9597,-27.9795"/>
</g>
<!-- Node4 -->
<g id="node5" class="node">
<title>Node4</title>
<g id="a_node5"><a xlink:href="_python_object_8hpp.html" target="_top" xlink:title="PythonObject.hpp">
<polygon fill="none" stroke="#000000" points="174.5,-54.5 174.5,-71.5 266.5,-71.5 266.5,-54.5 174.5,-54.5"/>
<text text-anchor="middle" x="220.5" y="-61.1" font-family="InputSans" font-size="8.00" fill="#000000">PythonObject.hpp</text>
</a>
</g>
</g>
<!-- Node0&#45;&gt;Node4 -->
<g id="edge4" class="edge">
<title>Node0&#45;&gt;Node4</title>
<path fill="none" stroke="#191970" d="M146.9127,-108.451C163.0219,-98.5012 182.8988,-86.2243 197.9321,-76.939"/>
<polygon fill="#191970" stroke="#191970" points="199.9207,-79.8246 206.5895,-71.5918 196.2422,-73.869 199.9207,-79.8246"/>
</g>
<!-- Node4&#45;&gt;Node3 -->
<g id="edge5" class="edge">
<title>Node4&#45;&gt;Node3</title>
<path fill="none" stroke="#191970" d="M214.3902,-54.083C209.2178,-46.5341 201.6539,-35.4948 195.3056,-26.2298"/>
<polygon fill="#191970" stroke="#191970" points="198.0357,-24.0221 189.4961,-17.7511 192.2612,-27.9787 198.0357,-24.0221"/>
</g>
</g>
</svg>
