<?xml version="1.0" encoding="UTF-8" standalone="no"?>
<!DOCTYPE svg PUBLIC "-//W3C//DTD SVG 1.1//EN"
 "http://www.w3.org/Graphics/SVG/1.1/DTD/svg11.dtd">
<!-- Generated by graphviz version 2.40.1 (20161225.0304)
 -->
<!-- Title: /home/jacques/repos/math4171/src/arcpython/PythonFunction.hpp Pages: 1 -->
<svg width="556pt" height="116pt"
 viewBox="0.00 0.00 555.50 116.00" xmlns="http://www.w3.org/2000/svg" xmlns:xlink="http://www.w3.org/1999/xlink">
<g id="graph0" class="graph" transform="scale(1 1) rotate(0) translate(4 112)">
<title>/home/jacques/repos/math4171/src/arcpython/PythonFunction.hpp</title>
<!-- Node6 -->
<g id="node1" class="node">
<title>Node6</title>
<polygon fill="#bfbfbf" stroke="#000000" points="199,-72.5 199,-107.5 323,-107.5 323,-72.5 199,-72.5"/>
<text text-anchor="start" x="207" y="-97.1" font-family="InputSans" font-size="8.00" fill="#000000">/home/jacques/repos</text>
<text text-anchor="start" x="207" y="-88.1" font-family="InputSans" font-size="8.00" fill="#000000">/math4171/src/arcpython</text>
<text text-anchor="middle" x="261" y="-79.1" font-family="InputSans" font-size="8.00" fill="#000000">/PythonFunction.hpp</text>
</g>
<!-- Node7 -->
<g id="node2" class="node">
<title>Node7</title>
<g id="a_node2"><a xlink:href="_surf_plot3d_8cpp.html" target="_top" xlink:title="/home/jacques/repos\l/math4171/src/arcplot\l/SurfPlot3d.cpp">
<polygon fill="none" stroke="#000000" points="0,-.5 0,-35.5 110,-35.5 110,-.5 0,-.5"/>
<text text-anchor="start" x="8" y="-25.1" font-family="InputSans" font-size="8.00" fill="#000000">/home/jacques/repos</text>
<text text-anchor="start" x="8" y="-16.1" font-family="InputSans" font-size="8.00" fill="#000000">/math4171/src/arcplot</text>
<text text-anchor="middle" x="55" y="-7.1" font-family="InputSans" font-size="8.00" fill="#000000">/SurfPlot3d.cpp</text>
</a>
</g>
</g>
<!-- Node6&#45;&gt;Node7 -->
<g id="edge1" class="edge">
<title>Node6&#45;&gt;Node7</title>
<path fill="none" stroke="#191970" d="M201.234,-69.1109C170.8368,-58.4867 134.302,-45.7172 105.3547,-35.5997"/>
<polygon fill="#191970" stroke="#191970" points="200.2753,-72.4834 210.8701,-72.4789 202.585,-65.8754 200.2753,-72.4834"/>
</g>
<!-- Node8 -->
<g id="node3" class="node">
<title>Node8</title>
<g id="a_node3"><a xlink:href="arcpython_2_python_context_8cpp.html" target="_top" xlink:title="/home/jacques/repos\l/math4171/src/arcpython\l/PythonContext.cpp">
<polygon fill="none" stroke="#000000" points="128,-.5 128,-35.5 252,-35.5 252,-.5 128,-.5"/>
<text text-anchor="start" x="136" y="-25.1" font-family="InputSans" font-size="8.00" fill="#000000">/home/jacques/repos</text>
<text text-anchor="start" x="136" y="-16.1" font-family="InputSans" font-size="8.00" fill="#000000">/math4171/src/arcpython</text>
<text text-anchor="middle" x="190" y="-7.1" font-family="InputSans" font-size="8.00" fill="#000000">/PythonContext.cpp</text>
</a>
</g>
</g>
<!-- Node6&#45;&gt;Node8 -->
<g id="edge2" class="edge">
<title>Node6&#45;&gt;Node8</title>
<path fill="none" stroke="#191970" d="M236.4091,-65.0628C226.8348,-55.3536 216.0879,-44.4553 207.3487,-35.593"/>
<polygon fill="#191970" stroke="#191970" points="233.9358,-67.5394 243.4494,-72.2022 238.9201,-62.6244 233.9358,-67.5394"/>
</g>
<!-- Node9 -->
<g id="node4" class="node">
<title>Node9</title>
<g id="a_node4"><a xlink:href="_python_function_8cpp.html" target="_top" xlink:title="/home/jacques/repos\l/math4171/src/arcpython\l/PythonFunction.cpp">
<polygon fill="none" stroke="#000000" points="270,-.5 270,-35.5 394,-35.5 394,-.5 270,-.5"/>
<text text-anchor="start" x="278" y="-25.1" font-family="InputSans" font-size="8.00" fill="#000000">/home/jacques/repos</text>
<text text-anchor="start" x="278" y="-16.1" font-family="InputSans" font-size="8.00" fill="#000000">/math4171/src/arcpython</text>
<text text-anchor="middle" x="332" y="-7.1" font-family="InputSans" font-size="8.00" fill="#000000">/PythonFunction.cpp</text>
</a>
</g>
</g>
<!-- Node6&#45;&gt;Node9 -->
<g id="edge3" class="edge">
<title>Node6&#45;&gt;Node9</title>
<path fill="none" stroke="#191970" d="M285.5909,-65.0628C295.1652,-55.3536 305.9121,-44.4553 314.6513,-35.593"/>
<polygon fill="#191970" stroke="#191970" points="283.0799,-62.6244 278.5506,-72.2022 288.0642,-67.5394 283.0799,-62.6244"/>
</g>
<!-- Node10 -->
<g id="node5" class="node">
<title>Node10</title>
<g id="a_node5"><a xlink:href="_main_8cpp.html" target="_top" xlink:title="/home/jacques/repos\l/math4171/src/assignment1\l&#45;src/Main.cpp">
<polygon fill="none" stroke="#000000" points="412.5,-.5 412.5,-35.5 547.5,-35.5 547.5,-.5 412.5,-.5"/>
<text text-anchor="start" x="420.5" y="-25.1" font-family="InputSans" font-size="8.00" fill="#000000">/home/jacques/repos</text>
<text text-anchor="start" x="420.5" y="-16.1" font-family="InputSans" font-size="8.00" fill="#000000">/math4171/src/assignment1</text>
<text text-anchor="middle" x="480" y="-7.1" font-family="InputSans" font-size="8.00" fill="#000000">&#45;src/Main.cpp</text>
</a>
</g>
</g>
<!-- Node6&#45;&gt;Node10 -->
<g id="edge4" class="edge">
<title>Node6&#45;&gt;Node10</title>
<path fill="none" stroke="#191970" d="M324.1183,-69.2488C356.5167,-58.5973 395.5603,-45.761 426.4676,-35.5997"/>
<polygon fill="#191970" stroke="#191970" points="322.7,-66.0307 314.2934,-72.4789 324.8863,-72.6805 322.7,-66.0307"/>
</g>
</g>
</svg>
