<?xml version="1.0" encoding="UTF-8" standalone="no"?>
<!DOCTYPE svg PUBLIC "-//W3C//DTD SVG 1.1//EN"
 "http://www.w3.org/Graphics/SVG/1.1/DTD/svg11.dtd">
<!-- Generated by graphviz version 2.40.1 (20161225.0304)
 -->
<!-- Title: /home/jacques/repos/math4171/src/arcpython/PythonList.cpp Pages: 1 -->
<svg width="320pt" height="206pt"
 viewBox="0.00 0.00 319.98 206.00" xmlns="http://www.w3.org/2000/svg" xmlns:xlink="http://www.w3.org/1999/xlink">
<g id="graph0" class="graph" transform="scale(1 1) rotate(0) translate(4 202)">
<title>/home/jacques/repos/math4171/src/arcpython/PythonList.cpp</title>
<!-- Node0 -->
<g id="node1" class="node">
<title>Node0</title>
<polygon fill="#bfbfbf" stroke="#000000" points="50.9816,-162.5 50.9816,-197.5 174.9816,-197.5 174.9816,-162.5 50.9816,-162.5"/>
<text text-anchor="start" x="58.9816" y="-187.1" font-family="InputSans" font-size="8.00" fill="#000000">/home/jacques/repos</text>
<text text-anchor="start" x="58.9816" y="-178.1" font-family="InputSans" font-size="8.00" fill="#000000">/math4171/src/arcpython</text>
<text text-anchor="middle" x="112.9816" y="-169.1" font-family="InputSans" font-size="8.00" fill="#000000">/PythonList.cpp</text>
</g>
<!-- Node1 -->
<g id="node2" class="node">
<title>Node1</title>
<g id="a_node2"><a xlink:href="_python_list_8hpp.html" target="_top" xlink:title="PythonList.hpp">
<polygon fill="none" stroke="#000000" points="73.4816,-108.5 73.4816,-125.5 152.4816,-125.5 152.4816,-108.5 73.4816,-108.5"/>
<text text-anchor="middle" x="112.9816" y="-115.1" font-family="InputSans" font-size="8.00" fill="#000000">PythonList.hpp</text>
</a>
</g>
</g>
<!-- Node0&#45;&gt;Node1 -->
<g id="edge1" class="edge">
<title>Node0&#45;&gt;Node1</title>
<path fill="none" stroke="#191970" d="M112.9816,-162.451C112.9816,-154.1476 112.9816,-144.2234 112.9816,-135.7698"/>
<polygon fill="#191970" stroke="#191970" points="116.4817,-135.764 112.9816,-125.764 109.4817,-135.7641 116.4817,-135.764"/>
</g>
<!-- Node2 -->
<g id="node3" class="node">
<title>Node2</title>
<polygon fill="none" stroke="#bfbfbf" points="98.9816,-.5 98.9816,-17.5 152.9816,-17.5 152.9816,-.5 98.9816,-.5"/>
<text text-anchor="middle" x="125.9816" y="-7.1" font-family="InputSans" font-size="8.00" fill="#000000">Python.h</text>
</g>
<!-- Node1&#45;&gt;Node2 -->
<g id="edge2" class="edge">
<title>Node1&#45;&gt;Node2</title>
<path fill="none" stroke="#191970" d="M73.2903,-109.7648C34.702,-100.866 -15.3354,-83.2324 4.9816,-54 14.8789,-39.7596 57.0262,-26.2919 88.8166,-17.8665"/>
<polygon fill="#191970" stroke="#191970" points="89.9104,-21.199 98.7202,-15.3136 88.1631,-14.4206 89.9104,-21.199"/>
</g>
<!-- Node3 -->
<g id="node4" class="node">
<title>Node3</title>
<polygon fill="none" stroke="#bfbfbf" points="13.9816,-54.5 13.9816,-71.5 67.9816,-71.5 67.9816,-54.5 13.9816,-54.5"/>
<text text-anchor="middle" x="40.9816" y="-61.1" font-family="InputSans" font-size="8.00" fill="#000000">iostream</text>
</g>
<!-- Node1&#45;&gt;Node3 -->
<g id="edge3" class="edge">
<title>Node1&#45;&gt;Node3</title>
<path fill="none" stroke="#191970" d="M101.4136,-108.324C90.5614,-100.1849 74.1009,-87.8395 61.0982,-78.0874"/>
<polygon fill="#191970" stroke="#191970" points="62.8602,-75.0339 52.7601,-71.8339 58.6601,-80.6339 62.8602,-75.0339"/>
</g>
<!-- Node4 -->
<g id="node5" class="node">
<title>Node4</title>
<polygon fill="none" stroke="#bfbfbf" points="86.4816,-54.5 86.4816,-71.5 139.4816,-71.5 139.4816,-54.5 86.4816,-54.5"/>
<text text-anchor="middle" x="112.9816" y="-61.1" font-family="InputSans" font-size="8.00" fill="#000000">memory</text>
</g>
<!-- Node1&#45;&gt;Node4 -->
<g id="edge4" class="edge">
<title>Node1&#45;&gt;Node4</title>
<path fill="none" stroke="#191970" d="M112.9816,-108.083C112.9816,-101.0059 112.9816,-90.8611 112.9816,-81.9865"/>
<polygon fill="#191970" stroke="#191970" points="116.4817,-81.751 112.9816,-71.7511 109.4817,-81.7511 116.4817,-81.751"/>
</g>
<!-- Node5 -->
<g id="node6" class="node">
<title>Node5</title>
<polygon fill="none" stroke="#bfbfbf" points="157.9816,-54.5 157.9816,-71.5 201.9816,-71.5 201.9816,-54.5 157.9816,-54.5"/>
<text text-anchor="middle" x="179.9816" y="-61.1" font-family="InputSans" font-size="8.00" fill="#000000">vector</text>
</g>
<!-- Node1&#45;&gt;Node5 -->
<g id="edge5" class="edge">
<title>Node1&#45;&gt;Node5</title>
<path fill="none" stroke="#191970" d="M123.7463,-108.324C133.7477,-100.2631 148.8682,-88.0765 160.9121,-78.3695"/>
<polygon fill="#191970" stroke="#191970" points="163.4314,-80.8343 169.021,-71.8339 159.0387,-75.3841 163.4314,-80.8343"/>
</g>
<!-- Node6 -->
<g id="node7" class="node">
<title>Node6</title>
<g id="a_node7"><a xlink:href="_python_object_8hpp.html" target="_top" xlink:title="PythonObject.hpp">
<polygon fill="none" stroke="#000000" points="219.9816,-54.5 219.9816,-71.5 311.9816,-71.5 311.9816,-54.5 219.9816,-54.5"/>
<text text-anchor="middle" x="265.9816" y="-61.1" font-family="InputSans" font-size="8.00" fill="#000000">PythonObject.hpp</text>
</a>
</g>
</g>
<!-- Node1&#45;&gt;Node6 -->
<g id="edge6" class="edge">
<title>Node1&#45;&gt;Node6</title>
<path fill="none" stroke="#191970" d="M137.2249,-108.4435C162.8522,-99.3986 203.4668,-85.064 232.22,-74.9158"/>
<polygon fill="#191970" stroke="#191970" points="233.5867,-78.1452 241.8517,-71.5164 231.2569,-71.5442 233.5867,-78.1452"/>
</g>
<!-- Node6&#45;&gt;Node2 -->
<g id="edge7" class="edge">
<title>Node6&#45;&gt;Node2</title>
<path fill="none" stroke="#191970" d="M243.7982,-54.4435C220.5532,-45.4776 183.8328,-31.314 157.5664,-21.1827"/>
<polygon fill="#191970" stroke="#191970" points="158.6508,-17.8497 148.0612,-17.5164 156.1317,-24.3807 158.6508,-17.8497"/>
</g>
</g>
</svg>
