<?xml version="1.0" encoding="UTF-8" standalone="no"?>
<!DOCTYPE svg PUBLIC "-//W3C//DTD SVG 1.1//EN"
 "http://www.w3.org/Graphics/SVG/1.1/DTD/svg11.dtd">
<!-- Generated by graphviz version 2.40.1 (20161225.0304)
 -->
<!-- Title: /home/jacques/repos/math4171/src/arcpython/PythonObject.hpp Pages: 1 -->
<svg width="2520pt" height="260pt"
 viewBox="0.00 0.00 2520.20 260.00" xmlns="http://www.w3.org/2000/svg" xmlns:xlink="http://www.w3.org/1999/xlink">
<g id="graph0" class="graph" transform="scale(1 1) rotate(0) translate(4 256)">
<title>/home/jacques/repos/math4171/src/arcpython/PythonObject.hpp</title>
<!-- Node3 -->
<g id="node1" class="node">
<title>Node3</title>
<polygon fill="#bfbfbf" stroke="#000000" points="1049.1191,-216.5 1049.1191,-251.5 1189.1191,-251.5 1189.1191,-216.5 1049.1191,-216.5"/>
<text text-anchor="start" x="1057.1191" y="-241.1" font-family="InputSans" font-size="8.00" fill="#000000">/home/jacques/repos</text>
<text text-anchor="start" x="1057.1191" y="-232.1" font-family="InputSans" font-size="8.00" fill="#000000">/math4171/src/arcpython</text>
<text text-anchor="middle" x="1119.1191" y="-223.1" font-family="InputSans" font-size="8.00" fill="#000000">/PythonObject.hpp</text>
</g>
<!-- Node4 -->
<g id="node2" class="node">
<title>Node4</title>
<g id="a_node2"><a xlink:href="_axes_8hpp.html" target="_top" xlink:title="/home/jacques/repos\l/math4171/src/arcplot\l/Axes.hpp">
<polygon fill="none" stroke="#000000" points="1949.6191,-144.5 1949.6191,-179.5 2078.6191,-179.5 2078.6191,-144.5 1949.6191,-144.5"/>
<text text-anchor="start" x="1957.6191" y="-169.1" font-family="InputSans" font-size="8.00" fill="#000000">/home/jacques/repos</text>
<text text-anchor="start" x="1957.6191" y="-160.1" font-family="InputSans" font-size="8.00" fill="#000000">/math4171/src/arcplot</text>
<text text-anchor="middle" x="2014.1191" y="-151.1" font-family="InputSans" font-size="8.00" fill="#000000">/Axes.hpp</text>
</a>
</g>
</g>
<!-- Node3&#45;&gt;Node4 -->
<g id="edge1" class="edge">
<title>Node3&#45;&gt;Node4</title>
<path fill="none" stroke="#191970" d="M1199.546,-227.5299C1375.0113,-213.4143 1789.2618,-180.0891 1949.376,-167.2084"/>
<polygon fill="#191970" stroke="#191970" points="1199.0353,-224.0596 1189.3482,-228.3503 1199.5967,-231.037 1199.0353,-224.0596"/>
</g>
<!-- Node6 -->
<g id="node4" class="node">
<title>Node6</title>
<g id="a_node4"><a xlink:href="_figure_8hpp.html" target="_top" xlink:title="/home/jacques/repos\l/math4171/src/arcplot\l/Figure.hpp">
<polygon fill="none" stroke="#000000" points="2061.6191,-72.5 2061.6191,-107.5 2190.6191,-107.5 2190.6191,-72.5 2061.6191,-72.5"/>
<text text-anchor="start" x="2069.6191" y="-97.1" font-family="InputSans" font-size="8.00" fill="#000000">/home/jacques/repos</text>
<text text-anchor="start" x="2069.6191" y="-88.1" font-family="InputSans" font-size="8.00" fill="#000000">/math4171/src/arcplot</text>
<text text-anchor="middle" x="2126.1191" y="-79.1" font-family="InputSans" font-size="8.00" fill="#000000">/Figure.hpp</text>
</a>
</g>
</g>
<!-- Node3&#45;&gt;Node6 -->
<g id="edge10" class="edge">
<title>Node3&#45;&gt;Node6</title>
<path fill="none" stroke="#191970" d="M1199.6125,-226.2105C1294.9185,-216.6905 1458.3625,-199.4305 1598.1191,-180 1792.2159,-153.0145 1840.238,-142.6219 2033.1191,-108 2042.2646,-106.3584 2051.9033,-104.5646 2061.3719,-102.7658"/>
<polygon fill="#191970" stroke="#191970" points="1199.0744,-222.7466 1189.4703,-227.22 1199.7678,-229.7122 1199.0744,-222.7466"/>
</g>
<!-- Node9 -->
<g id="node7" class="node">
<title>Node9</title>
<g id="a_node7"><a xlink:href="_contour_plot_8hpp.html" target="_top" xlink:title="/home/jacques/repos\l/math4171/src/arcplot\l/ContourPlot.hpp">
<polygon fill="none" stroke="#000000" points="351.6191,-144.5 351.6191,-179.5 480.6191,-179.5 480.6191,-144.5 351.6191,-144.5"/>
<text text-anchor="start" x="359.6191" y="-169.1" font-family="InputSans" font-size="8.00" fill="#000000">/home/jacques/repos</text>
<text text-anchor="start" x="359.6191" y="-160.1" font-family="InputSans" font-size="8.00" fill="#000000">/math4171/src/arcplot</text>
<text text-anchor="middle" x="416.1191" y="-151.1" font-family="InputSans" font-size="8.00" fill="#000000">/ContourPlot.hpp</text>
</a>
</g>
</g>
<!-- Node3&#45;&gt;Node9 -->
<g id="edge6" class="edge">
<title>Node3&#45;&gt;Node9</title>
<path fill="none" stroke="#191970" d="M1038.669,-231.033C918.5769,-225.7164 685.6098,-211.9746 490.1191,-180 487.1179,-179.5091 484.0588,-178.9612 480.9762,-178.3703"/>
<polygon fill="#191970" stroke="#191970" points="1038.7356,-234.5391 1048.8782,-231.4766 1039.0396,-227.5457 1038.7356,-234.5391"/>
</g>
<!-- Node11 -->
<g id="node9" class="node">
<title>Node11</title>
<g id="a_node9"><a xlink:href="assignment1-src_2_main_8cpp.html" target="_top" xlink:title="/home/jacques/repos\l/math4171/src/assignment1\l&#45;src/Main.cpp">
<polygon fill="none" stroke="#000000" points="242.6191,-72.5 242.6191,-107.5 397.6191,-107.5 397.6191,-72.5 242.6191,-72.5"/>
<text text-anchor="start" x="250.6191" y="-97.1" font-family="InputSans" font-size="8.00" fill="#000000">/home/jacques/repos</text>
<text text-anchor="start" x="250.6191" y="-88.1" font-family="InputSans" font-size="8.00" fill="#000000">/math4171/src/assignment1</text>
<text text-anchor="middle" x="320.1191" y="-79.1" font-family="InputSans" font-size="8.00" fill="#000000">&#45;src/Main.cpp</text>
</a>
</g>
</g>
<!-- Node3&#45;&gt;Node11 -->
<g id="edge71" class="edge">
<title>Node3&#45;&gt;Node11</title>
<path fill="none" stroke="#191970" d="M1038.6623,-232.2639C819.0715,-227.1358 223.8647,-210.4746 195.1191,-180 184.1404,-168.3609 186.3306,-157.3702 195.1191,-144 206.2212,-127.1101 223.8507,-115.4786 242.409,-107.4772"/>
<polygon fill="#191970" stroke="#191970" points="1038.7529,-235.7669 1048.8313,-232.4994 1038.9151,-228.7687 1038.7529,-235.7669"/>
</g>
<!-- Node12 -->
<g id="node10" class="node">
<title>Node12</title>
<g id="a_node10"><a xlink:href="_list_plot_8hpp.html" target="_top" xlink:title="/home/jacques/repos\l/math4171/src/arcplot\l/ListPlot.hpp">
<polygon fill="none" stroke="#000000" points="204.6191,-144.5 204.6191,-179.5 333.6191,-179.5 333.6191,-144.5 204.6191,-144.5"/>
<text text-anchor="start" x="212.6191" y="-169.1" font-family="InputSans" font-size="8.00" fill="#000000">/home/jacques/repos</text>
<text text-anchor="start" x="212.6191" y="-160.1" font-family="InputSans" font-size="8.00" fill="#000000">/math4171/src/arcplot</text>
<text text-anchor="middle" x="269.1191" y="-151.1" font-family="InputSans" font-size="8.00" fill="#000000">/ListPlot.hpp</text>
</a>
</g>
</g>
<!-- Node3&#45;&gt;Node12 -->
<g id="edge11" class="edge">
<title>Node3&#45;&gt;Node12</title>
<path fill="none" stroke="#191970" d="M1038.6904,-232.9667C897.0695,-230.1354 594.3014,-219.5515 342.1191,-180 339.411,-179.5753 336.656,-179.0991 333.88,-178.5828"/>
<polygon fill="#191970" stroke="#191970" points="1038.9511,-236.4722 1049.0165,-233.165 1039.0856,-229.4735 1038.9511,-236.4722"/>
</g>
<!-- Node14 -->
<g id="node12" class="node">
<title>Node14</title>
<g id="a_node12"><a xlink:href="_surface_plot_8hpp.html" target="_top" xlink:title="/home/jacques/repos\l/math4171/src/arcplot\l/SurfacePlot.hpp">
<polygon fill="none" stroke="#000000" points="1131.6191,-144.5 1131.6191,-179.5 1260.6191,-179.5 1260.6191,-144.5 1131.6191,-144.5"/>
<text text-anchor="start" x="1139.6191" y="-169.1" font-family="InputSans" font-size="8.00" fill="#000000">/home/jacques/repos</text>
<text text-anchor="start" x="1139.6191" y="-160.1" font-family="InputSans" font-size="8.00" fill="#000000">/math4171/src/arcplot</text>
<text text-anchor="middle" x="1196.1191" y="-151.1" font-family="InputSans" font-size="8.00" fill="#000000">/SurfacePlot.hpp</text>
</a>
</g>
</g>
<!-- Node3&#45;&gt;Node14 -->
<g id="edge14" class="edge">
<title>Node3&#45;&gt;Node14</title>
<path fill="none" stroke="#191970" d="M1145.483,-209.348C1155.9427,-199.5675 1167.7337,-188.5422 1177.3043,-179.593"/>
<polygon fill="#191970" stroke="#191970" points="1143.0666,-206.8158 1138.1528,-216.2022 1147.8476,-211.9288 1143.0666,-206.8158"/>
</g>
<!-- Node16 -->
<g id="node14" class="node">
<title>Node16</title>
<g id="a_node14"><a xlink:href="_python_common_8hpp.html" target="_top" xlink:title="/home/jacques/repos\l/math4171/src/arcpython\l/PythonCommon.hpp">
<polygon fill="none" stroke="#000000" points="1449.1191,-144.5 1449.1191,-179.5 1589.1191,-179.5 1589.1191,-144.5 1449.1191,-144.5"/>
<text text-anchor="start" x="1457.1191" y="-169.1" font-family="InputSans" font-size="8.00" fill="#000000">/home/jacques/repos</text>
<text text-anchor="start" x="1457.1191" y="-160.1" font-family="InputSans" font-size="8.00" fill="#000000">/math4171/src/arcpython</text>
<text text-anchor="middle" x="1519.1191" y="-151.1" font-family="InputSans" font-size="8.00" fill="#000000">/PythonCommon.hpp</text>
</a>
</g>
</g>
<!-- Node3&#45;&gt;Node16 -->
<g id="edge17" class="edge">
<title>Node3&#45;&gt;Node16</title>
<path fill="none" stroke="#191970" d="M1199.3248,-220.4873C1261.7507,-209.8483 1350.5254,-194.4523 1428.1191,-180 1434.927,-178.732 1442.0154,-177.3821 1449.0978,-176.0136"/>
<polygon fill="#191970" stroke="#191970" points="1198.4214,-217.0906 1189.1505,-222.2189 1199.596,-223.9914 1198.4214,-217.0906"/>
</g>
<!-- Node21 -->
<g id="node19" class="node">
<title>Node21</title>
<g id="a_node19"><a xlink:href="_python_float_8hpp.html" target="_top" xlink:title="/home/jacques/repos\l/math4171/src/arcpython\l/PythonFloat.hpp">
<polygon fill="none" stroke="#000000" points="499.1191,-144.5 499.1191,-179.5 639.1191,-179.5 639.1191,-144.5 499.1191,-144.5"/>
<text text-anchor="start" x="507.1191" y="-169.1" font-family="InputSans" font-size="8.00" fill="#000000">/home/jacques/repos</text>
<text text-anchor="start" x="507.1191" y="-160.1" font-family="InputSans" font-size="8.00" fill="#000000">/math4171/src/arcpython</text>
<text text-anchor="middle" x="569.1191" y="-151.1" font-family="InputSans" font-size="8.00" fill="#000000">/PythonFloat.hpp</text>
</a>
</g>
</g>
<!-- Node3&#45;&gt;Node21 -->
<g id="edge23" class="edge">
<title>Node3&#45;&gt;Node21</title>
<path fill="none" stroke="#191970" d="M1038.9428,-227.5113C944.9068,-219.2771 784.5227,-203.2865 648.1191,-180 645.2072,-179.5029 642.2414,-178.9662 639.2502,-178.3998"/>
<polygon fill="#191970" stroke="#191970" points="1038.6881,-231.0023 1048.9534,-228.3805 1039.2937,-224.0285 1038.6881,-231.0023"/>
</g>
<!-- Node24 -->
<g id="node22" class="node">
<title>Node24</title>
<g id="a_node22"><a xlink:href="_python_list_8hpp.html" target="_top" xlink:title="/home/jacques/repos\l/math4171/src/arcpython\l/PythonList.hpp">
<polygon fill="none" stroke="#000000" points="815.1191,-144.5 815.1191,-179.5 955.1191,-179.5 955.1191,-144.5 815.1191,-144.5"/>
<text text-anchor="start" x="823.1191" y="-169.1" font-family="InputSans" font-size="8.00" fill="#000000">/home/jacques/repos</text>
<text text-anchor="start" x="823.1191" y="-160.1" font-family="InputSans" font-size="8.00" fill="#000000">/math4171/src/arcpython</text>
<text text-anchor="middle" x="885.1191" y="-151.1" font-family="InputSans" font-size="8.00" fill="#000000">/PythonList.hpp</text>
</a>
</g>
</g>
<!-- Node3&#45;&gt;Node24 -->
<g id="edge32" class="edge">
<title>Node3&#45;&gt;Node24</title>
<path fill="none" stroke="#191970" d="M1052.5713,-213.5237C1017.7801,-202.8188 975.627,-189.8486 942.3181,-179.5997"/>
<polygon fill="#191970" stroke="#191970" points="1051.5884,-216.8832 1062.1755,-216.4789 1053.647,-210.1927 1051.5884,-216.8832"/>
</g>
<!-- Node25 -->
<g id="node23" class="node">
<title>Node25</title>
<g id="a_node23"><a xlink:href="_python_module_8hpp.html" target="_top" xlink:title="/home/jacques/repos\l/math4171/src/arcpython\l/PythonModule.hpp">
<polygon fill="none" stroke="#000000" points="1279.1191,-144.5 1279.1191,-179.5 1419.1191,-179.5 1419.1191,-144.5 1279.1191,-144.5"/>
<text text-anchor="start" x="1287.1191" y="-169.1" font-family="InputSans" font-size="8.00" fill="#000000">/home/jacques/repos</text>
<text text-anchor="start" x="1287.1191" y="-160.1" font-family="InputSans" font-size="8.00" fill="#000000">/math4171/src/arcpython</text>
<text text-anchor="middle" x="1349.1191" y="-151.1" font-family="InputSans" font-size="8.00" fill="#000000">/PythonModule.hpp</text>
</a>
</g>
</g>
<!-- Node3&#45;&gt;Node25 -->
<g id="edge40" class="edge">
<title>Node3&#45;&gt;Node25</title>
<path fill="none" stroke="#191970" d="M1184.9682,-213.3864C1219.0798,-202.708 1260.2982,-189.8048 1292.8979,-179.5997"/>
<polygon fill="#191970" stroke="#191970" points="1183.587,-210.1512 1175.0893,-216.4789 1185.6783,-216.8315 1183.587,-210.1512"/>
</g>
<!-- Node27 -->
<g id="node25" class="node">
<title>Node27</title>
<g id="a_node25"><a xlink:href="_python_tuple_8hpp.html" target="_top" xlink:title="/home/jacques/repos\l/math4171/src/arcpython\l/PythonTuple.hpp">
<polygon fill="none" stroke="#000000" points="973.1191,-144.5 973.1191,-179.5 1113.1191,-179.5 1113.1191,-144.5 973.1191,-144.5"/>
<text text-anchor="start" x="981.1191" y="-169.1" font-family="InputSans" font-size="8.00" fill="#000000">/home/jacques/repos</text>
<text text-anchor="start" x="981.1191" y="-160.1" font-family="InputSans" font-size="8.00" fill="#000000">/math4171/src/arcpython</text>
<text text-anchor="middle" x="1043.1191" y="-151.1" font-family="InputSans" font-size="8.00" fill="#000000">/PythonTuple.hpp</text>
</a>
</g>
</g>
<!-- Node3&#45;&gt;Node27 -->
<g id="edge49" class="edge">
<title>Node3&#45;&gt;Node27</title>
<path fill="none" stroke="#191970" d="M1092.7965,-209.0628C1082.5479,-199.3536 1071.0441,-188.4553 1061.6895,-179.593"/>
<polygon fill="#191970" stroke="#191970" points="1090.6659,-211.8656 1100.3326,-216.2022 1095.4801,-206.7839 1090.6659,-211.8656"/>
</g>
<!-- Node28 -->
<g id="node26" class="node">
<title>Node28</title>
<g id="a_node26"><a xlink:href="_python_function_8hpp.html" target="_top" xlink:title="/home/jacques/repos\l/math4171/src/arcpython\l/PythonFunction.hpp">
<polygon fill="none" stroke="#000000" points="657.1191,-144.5 657.1191,-179.5 797.1191,-179.5 797.1191,-144.5 657.1191,-144.5"/>
<text text-anchor="start" x="665.1191" y="-169.1" font-family="InputSans" font-size="8.00" fill="#000000">/home/jacques/repos</text>
<text text-anchor="start" x="665.1191" y="-160.1" font-family="InputSans" font-size="8.00" fill="#000000">/math4171/src/arcpython</text>
<text text-anchor="middle" x="727.1191" y="-151.1" font-family="InputSans" font-size="8.00" fill="#000000">/PythonFunction.hpp</text>
</a>
</g>
</g>
<!-- Node3&#45;&gt;Node28 -->
<g id="edge58" class="edge">
<title>Node3&#45;&gt;Node28</title>
<path fill="none" stroke="#191970" d="M1039.0652,-221.3927C975.696,-211.123 885.0328,-195.7858 806.1191,-180 803.2224,-179.4206 800.2694,-178.8151 797.2888,-178.1917"/>
<polygon fill="#191970" stroke="#191970" points="1038.5651,-224.8572 1048.9953,-222.9967 1039.6814,-217.9468 1038.5651,-224.8572"/>
</g>
<!-- Node29 -->
<g id="node27" class="node">
<title>Node29</title>
<g id="a_node27"><a xlink:href="_python_object_8cpp.html" target="_top" xlink:title="/home/jacques/repos\l/math4171/src/arcpython\l/PythonObject.cpp">
<polygon fill="none" stroke="#000000" points="2097.1191,-144.5 2097.1191,-179.5 2237.1191,-179.5 2237.1191,-144.5 2097.1191,-144.5"/>
<text text-anchor="start" x="2105.1191" y="-169.1" font-family="InputSans" font-size="8.00" fill="#000000">/home/jacques/repos</text>
<text text-anchor="start" x="2105.1191" y="-160.1" font-family="InputSans" font-size="8.00" fill="#000000">/math4171/src/arcpython</text>
<text text-anchor="middle" x="2167.1191" y="-151.1" font-family="InputSans" font-size="8.00" fill="#000000">/PythonObject.cpp</text>
</a>
</g>
</g>
<!-- Node3&#45;&gt;Node29 -->
<g id="edge67" class="edge">
<title>Node3&#45;&gt;Node29</title>
<path fill="none" stroke="#191970" d="M1199.2657,-231.2413C1399.2467,-224.0822 1916.402,-203.8003 2087.1191,-180 2090.362,-179.5479 2093.668,-179.0317 2096.9995,-178.4667"/>
<polygon fill="#191970" stroke="#191970" points="1198.9946,-227.7486 1189.1256,-231.6028 1199.244,-234.7442 1198.9946,-227.7486"/>
</g>
<!-- Node30 -->
<g id="node28" class="node">
<title>Node30</title>
<g id="a_node28"><a xlink:href="_python_string_8hpp.html" target="_top" xlink:title="/home/jacques/repos\l/math4171/src/arcpython\l/PythonString.hpp">
<polygon fill="none" stroke="#000000" points="2356.1191,-144.5 2356.1191,-179.5 2496.1191,-179.5 2496.1191,-144.5 2356.1191,-144.5"/>
<text text-anchor="start" x="2364.1191" y="-169.1" font-family="InputSans" font-size="8.00" fill="#000000">/home/jacques/repos</text>
<text text-anchor="start" x="2364.1191" y="-160.1" font-family="InputSans" font-size="8.00" fill="#000000">/math4171/src/arcpython</text>
<text text-anchor="middle" x="2426.1191" y="-151.1" font-family="InputSans" font-size="8.00" fill="#000000">/PythonString.hpp</text>
</a>
</g>
</g>
<!-- Node3&#45;&gt;Node30 -->
<g id="edge68" class="edge">
<title>Node3&#45;&gt;Node30</title>
<path fill="none" stroke="#191970" d="M1199.6043,-231.5754C1384.5913,-225.6895 1854.2776,-208.96 2246.1191,-180 2282.4508,-177.3148 2322.8149,-173.3673 2356.0973,-169.8527"/>
<polygon fill="#191970" stroke="#191970" points="1199.3045,-228.083 1189.4202,-231.8976 1199.5259,-235.0795 1199.3045,-228.083"/>
</g>
<!-- Node5 -->
<g id="node3" class="node">
<title>Node5</title>
<g id="a_node3"><a xlink:href="_axes_8cpp.html" target="_top" xlink:title="/home/jacques/repos\l/math4171/src/arcplot\l/Axes.cpp">
<polygon fill="none" stroke="#000000" points="2208.6191,-72.5 2208.6191,-107.5 2337.6191,-107.5 2337.6191,-72.5 2208.6191,-72.5"/>
<text text-anchor="start" x="2216.6191" y="-97.1" font-family="InputSans" font-size="8.00" fill="#000000">/home/jacques/repos</text>
<text text-anchor="start" x="2216.6191" y="-88.1" font-family="InputSans" font-size="8.00" fill="#000000">/math4171/src/arcplot</text>
<text text-anchor="middle" x="2273.1191" y="-79.1" font-family="InputSans" font-size="8.00" fill="#000000">/Axes.cpp</text>
</a>
</g>
</g>
<!-- Node4&#45;&gt;Node5 -->
<g id="edge2" class="edge">
<title>Node4&#45;&gt;Node5</title>
<path fill="none" stroke="#191970" d="M2086.7911,-141.7977C2125.4866,-131.0407 2172.6264,-117.9362 2209.8091,-107.5997"/>
<polygon fill="#191970" stroke="#191970" points="2085.8436,-138.4283 2077.1464,-144.4789 2087.7185,-145.1726 2085.8436,-138.4283"/>
</g>
<!-- Node4&#45;&gt;Node6 -->
<g id="edge3" class="edge">
<title>Node4&#45;&gt;Node6</title>
<path fill="none" stroke="#191970" d="M2049.9817,-138.9454C2065.7408,-128.8146 2083.9544,-117.1059 2098.6155,-107.6809"/>
<polygon fill="#191970" stroke="#191970" points="2048.0365,-136.0351 2041.5174,-144.3868 2051.8218,-141.9233 2048.0365,-136.0351"/>
</g>
<!-- Node7 -->
<g id="node5" class="node">
<title>Node7</title>
<g id="a_node5"><a xlink:href="_figure_8cpp.html" target="_top" xlink:title="/home/jacques/repos\l/math4171/src/arcplot\l/Figure.cpp">
<polygon fill="none" stroke="#000000" points="1772.6191,-.5 1772.6191,-35.5 1901.6191,-35.5 1901.6191,-.5 1772.6191,-.5"/>
<text text-anchor="start" x="1780.6191" y="-25.1" font-family="InputSans" font-size="8.00" fill="#000000">/home/jacques/repos</text>
<text text-anchor="start" x="1780.6191" y="-16.1" font-family="InputSans" font-size="8.00" fill="#000000">/math4171/src/arcplot</text>
<text text-anchor="middle" x="1837.1191" y="-7.1" font-family="InputSans" font-size="8.00" fill="#000000">/Figure.cpp</text>
</a>
</g>
</g>
<!-- Node6&#45;&gt;Node7 -->
<g id="edge4" class="edge">
<title>Node6&#45;&gt;Node7</title>
<path fill="none" stroke="#191970" d="M2051.2766,-71.3541C2004.9451,-59.8113 1946.0548,-45.1397 1901.7599,-34.1043"/>
<polygon fill="#191970" stroke="#191970" points="2050.7123,-74.8205 2061.2618,-73.8418 2052.4046,-68.0281 2050.7123,-74.8205"/>
</g>
<!-- Node8 -->
<g id="node6" class="node">
<title>Node8</title>
<g id="a_node6"><a xlink:href="playground_2_main_8cpp.html" target="_top" xlink:title="/home/jacques/repos\l/math4171/src/playground\l/Main.cpp">
<polygon fill="none" stroke="#000000" points="784.1191,-.5 784.1191,-35.5 930.1191,-35.5 930.1191,-.5 784.1191,-.5"/>
<text text-anchor="start" x="792.1191" y="-25.1" font-family="InputSans" font-size="8.00" fill="#000000">/home/jacques/repos</text>
<text text-anchor="start" x="792.1191" y="-16.1" font-family="InputSans" font-size="8.00" fill="#000000">/math4171/src/playground</text>
<text text-anchor="middle" x="857.1191" y="-7.1" font-family="InputSans" font-size="8.00" fill="#000000">/Main.cpp</text>
</a>
</g>
</g>
<!-- Node6&#45;&gt;Node8 -->
<g id="edge5" class="edge">
<title>Node6&#45;&gt;Node8</title>
<path fill="none" stroke="#191970" d="M2051.028,-72.5578C2049.7166,-72.3616 2048.4128,-72.1753 2047.1191,-72 1829.6298,-42.529 1154.7648,-24.8068 930.45,-19.6101"/>
<polygon fill="#191970" stroke="#191970" points="2050.7531,-76.0598 2061.1903,-74.2391 2051.8958,-69.1537 2050.7531,-76.0598"/>
</g>
<!-- Node9&#45;&gt;Node8 -->
<g id="edge9" class="edge">
<title>Node9&#45;&gt;Node8</title>
<path fill="none" stroke="#191970" d="M341.2186,-144.0878C193.4007,-121.6942 -55.9387,-171.3876 37.1191,-72 62.4569,-44.9387 587.3232,-26.22 783.7652,-20.1385"/>
<polygon fill="#191970" stroke="#191970" points="340.804,-147.5667 351.2416,-145.7483 341.9482,-140.6609 340.804,-147.5667"/>
</g>
<!-- Node10 -->
<g id="node8" class="node">
<title>Node10</title>
<g id="a_node8"><a xlink:href="_contour_plot_8cpp.html" target="_top" xlink:title="/home/jacques/repos\l/math4171/src/arcplot\l/ContourPlot.cpp">
<polygon fill="none" stroke="#000000" points="639.6191,-72.5 639.6191,-107.5 768.6191,-107.5 768.6191,-72.5 639.6191,-72.5"/>
<text text-anchor="start" x="647.6191" y="-97.1" font-family="InputSans" font-size="8.00" fill="#000000">/home/jacques/repos</text>
<text text-anchor="start" x="647.6191" y="-88.1" font-family="InputSans" font-size="8.00" fill="#000000">/math4171/src/arcplot</text>
<text text-anchor="middle" x="704.1191" y="-79.1" font-family="InputSans" font-size="8.00" fill="#000000">/ContourPlot.cpp</text>
</a>
</g>
</g>
<!-- Node9&#45;&gt;Node10 -->
<g id="edge7" class="edge">
<title>Node9&#45;&gt;Node10</title>
<path fill="none" stroke="#191970" d="M490.667,-143.363C536.6704,-131.8622 595.1087,-117.2526 639.2044,-106.2287"/>
<polygon fill="#191970" stroke="#191970" points="489.6044,-140.0209 480.7519,-145.8418 491.3022,-146.8119 489.6044,-140.0209"/>
</g>
<!-- Node9&#45;&gt;Node11 -->
<g id="edge8" class="edge">
<title>Node9&#45;&gt;Node11</title>
<path fill="none" stroke="#191970" d="M384.3849,-138.1994C371.0678,-128.2115 355.8562,-116.8029 343.5765,-107.593"/>
<polygon fill="#191970" stroke="#191970" points="382.2887,-141.0022 392.3887,-144.2022 386.4887,-135.4022 382.2887,-141.0022"/>
</g>
<!-- Node12&#45;&gt;Node8 -->
<g id="edge13" class="edge">
<title>Node12&#45;&gt;Node8</title>
<path fill="none" stroke="#191970" d="M194.422,-158.9314C99.9744,-152.516 -43.8686,-132.7504 13.1191,-72 39.3155,-44.074 583.3401,-25.8011 783.7958,-19.9944"/>
<polygon fill="#191970" stroke="#191970" points="194.3337,-162.4328 204.5374,-159.5808 194.7823,-155.4472 194.3337,-162.4328"/>
</g>
<!-- Node13 -->
<g id="node11" class="node">
<title>Node13</title>
<g id="a_node11"><a xlink:href="_list_plot_8cpp.html" target="_top" xlink:title="/home/jacques/repos\l/math4171/src/arcplot\l/ListPlot.cpp">
<polygon fill="none" stroke="#000000" points="492.6191,-72.5 492.6191,-107.5 621.6191,-107.5 621.6191,-72.5 492.6191,-72.5"/>
<text text-anchor="start" x="500.6191" y="-97.1" font-family="InputSans" font-size="8.00" fill="#000000">/home/jacques/repos</text>
<text text-anchor="start" x="500.6191" y="-88.1" font-family="InputSans" font-size="8.00" fill="#000000">/math4171/src/arcplot</text>
<text text-anchor="middle" x="557.1191" y="-79.1" font-family="InputSans" font-size="8.00" fill="#000000">/ListPlot.cpp</text>
</a>
</g>
</g>
<!-- Node12&#45;&gt;Node13 -->
<g id="edge12" class="edge">
<title>Node12&#45;&gt;Node13</title>
<path fill="none" stroke="#191970" d="M343.667,-143.363C389.6704,-131.8622 448.1087,-117.2526 492.2044,-106.2287"/>
<polygon fill="#191970" stroke="#191970" points="342.6044,-140.0209 333.7519,-145.8418 344.3022,-146.8119 342.6044,-140.0209"/>
</g>
<!-- Node14&#45;&gt;Node8 -->
<g id="edge16" class="edge">
<title>Node14&#45;&gt;Node8</title>
<path fill="none" stroke="#191970" d="M1218.8101,-136.0791C1233.0286,-116.6075 1245.9267,-90.2609 1230.1191,-72 1210.7944,-49.6762 1033.2891,-31.9871 930.2696,-23.4951"/>
<polygon fill="#191970" stroke="#191970" points="1215.858,-134.1747 1212.4998,-144.2233 1221.3914,-138.4621 1215.858,-134.1747"/>
</g>
<!-- Node15 -->
<g id="node13" class="node">
<title>Node15</title>
<g id="a_node13"><a xlink:href="_surface_plot_8cpp.html" target="_top" xlink:title="/home/jacques/repos\l/math4171/src/arcplot\l/SurfacePlot.cpp">
<polygon fill="none" stroke="#000000" points="933.6191,-72.5 933.6191,-107.5 1062.6191,-107.5 1062.6191,-72.5 933.6191,-72.5"/>
<text text-anchor="start" x="941.6191" y="-97.1" font-family="InputSans" font-size="8.00" fill="#000000">/home/jacques/repos</text>
<text text-anchor="start" x="941.6191" y="-88.1" font-family="InputSans" font-size="8.00" fill="#000000">/math4171/src/arcplot</text>
<text text-anchor="middle" x="998.1191" y="-79.1" font-family="InputSans" font-size="8.00" fill="#000000">/SurfacePlot.cpp</text>
</a>
</g>
</g>
<!-- Node14&#45;&gt;Node15 -->
<g id="edge15" class="edge">
<title>Node14&#45;&gt;Node15</title>
<path fill="none" stroke="#191970" d="M1138.2943,-140.9728C1109.1535,-130.3761 1074.221,-117.6734 1046.5182,-107.5997"/>
<polygon fill="#191970" stroke="#191970" points="1137.342,-144.3507 1147.936,-144.4789 1139.7342,-137.7721 1137.342,-144.3507"/>
</g>
<!-- Node16&#45;&gt;Node8 -->
<g id="edge22" class="edge">
<title>Node16&#45;&gt;Node8</title>
<path fill="none" stroke="#191970" d="M1599.3807,-153.9254C1738.6537,-139.8219 2010.6856,-111.8284 2014.1191,-108 2024.8017,-96.0886 2025.1659,-83.5744 2014.1191,-72 1976.6335,-32.724 1178.7203,-21.2829 930.2876,-18.6664"/>
<polygon fill="#191970" stroke="#191970" points="1598.7773,-150.4685 1589.1805,-154.9575 1599.482,-157.4329 1598.7773,-150.4685"/>
</g>
<!-- Node17 -->
<g id="node15" class="node">
<title>Node17</title>
<g id="a_node15"><a xlink:href="_python_common_8cpp.html" target="_top" xlink:title="/home/jacques/repos\l/math4171/src/arcpython\l/PythonCommon.cpp">
<polygon fill="none" stroke="#000000" points="1865.1191,-72.5 1865.1191,-107.5 2005.1191,-107.5 2005.1191,-72.5 1865.1191,-72.5"/>
<text text-anchor="start" x="1873.1191" y="-97.1" font-family="InputSans" font-size="8.00" fill="#000000">/home/jacques/repos</text>
<text text-anchor="start" x="1873.1191" y="-88.1" font-family="InputSans" font-size="8.00" fill="#000000">/math4171/src/arcpython</text>
<text text-anchor="middle" x="1935.1191" y="-79.1" font-family="InputSans" font-size="8.00" fill="#000000">/PythonCommon.cpp</text>
</a>
</g>
</g>
<!-- Node16&#45;&gt;Node17 -->
<g id="edge18" class="edge">
<title>Node16&#45;&gt;Node17</title>
<path fill="none" stroke="#191970" d="M1599.3679,-150.0944C1666.7307,-139.826 1765.4203,-124.1411 1851.1191,-108 1855.6627,-107.1442 1860.3376,-106.2318 1865.0454,-105.2889"/>
<polygon fill="#191970" stroke="#191970" points="1598.6081,-146.6696 1589.2474,-151.6323 1599.6598,-153.5902 1598.6081,-146.6696"/>
</g>
<!-- Node18 -->
<g id="node16" class="node">
<title>Node18</title>
<g id="a_node16"><a xlink:href="_python_function_8cpp.html" target="_top" xlink:title="/home/jacques/repos\l/math4171/src/arcpython\l/PythonFunction.cpp">
<polygon fill="none" stroke="#000000" points="1081.1191,-72.5 1081.1191,-107.5 1221.1191,-107.5 1221.1191,-72.5 1081.1191,-72.5"/>
<text text-anchor="start" x="1089.1191" y="-97.1" font-family="InputSans" font-size="8.00" fill="#000000">/home/jacques/repos</text>
<text text-anchor="start" x="1089.1191" y="-88.1" font-family="InputSans" font-size="8.00" fill="#000000">/math4171/src/arcpython</text>
<text text-anchor="middle" x="1151.1191" y="-79.1" font-family="InputSans" font-size="8.00" fill="#000000">/PythonFunction.cpp</text>
</a>
</g>
</g>
<!-- Node16&#45;&gt;Node18 -->
<g id="edge19" class="edge">
<title>Node16&#45;&gt;Node18</title>
<path fill="none" stroke="#191970" d="M1439.1469,-146.1685C1435.4194,-145.4346 1431.7291,-144.7089 1428.1191,-144 1357.6858,-130.1688 1277.1514,-114.4835 1221.1431,-103.5957"/>
<polygon fill="#191970" stroke="#191970" points="1438.5834,-149.6247 1449.0714,-148.1243 1439.9369,-142.7568 1438.5834,-149.6247"/>
</g>
<!-- Node19 -->
<g id="node17" class="node">
<title>Node19</title>
<g id="a_node17"><a xlink:href="_python_list_8cpp.html" target="_top" xlink:title="/home/jacques/repos\l/math4171/src/arcpython\l/PythonList.cpp">
<polygon fill="none" stroke="#000000" points="1315.1191,-72.5 1315.1191,-107.5 1455.1191,-107.5 1455.1191,-72.5 1315.1191,-72.5"/>
<text text-anchor="start" x="1323.1191" y="-97.1" font-family="InputSans" font-size="8.00" fill="#000000">/home/jacques/repos</text>
<text text-anchor="start" x="1323.1191" y="-88.1" font-family="InputSans" font-size="8.00" fill="#000000">/math4171/src/arcpython</text>
<text text-anchor="middle" x="1385.1191" y="-79.1" font-family="InputSans" font-size="8.00" fill="#000000">/PythonList.cpp</text>
</a>
</g>
</g>
<!-- Node16&#45;&gt;Node19 -->
<g id="edge20" class="edge">
<title>Node16&#45;&gt;Node19</title>
<path fill="none" stroke="#191970" d="M1477.5165,-139.6464C1458.3685,-129.3579 1435.9721,-117.324 1418.0252,-107.6809"/>
<polygon fill="#191970" stroke="#191970" points="1475.8734,-142.7367 1486.339,-144.3868 1479.1867,-136.5705 1475.8734,-142.7367"/>
</g>
<!-- Node20 -->
<g id="node18" class="node">
<title>Node20</title>
<g id="a_node18"><a xlink:href="_python_tuple_8cpp.html" target="_top" xlink:title="/home/jacques/repos\l/math4171/src/arcpython\l/PythonTuple.cpp">
<polygon fill="none" stroke="#000000" points="1473.1191,-72.5 1473.1191,-107.5 1613.1191,-107.5 1613.1191,-72.5 1473.1191,-72.5"/>
<text text-anchor="start" x="1481.1191" y="-97.1" font-family="InputSans" font-size="8.00" fill="#000000">/home/jacques/repos</text>
<text text-anchor="start" x="1481.1191" y="-88.1" font-family="InputSans" font-size="8.00" fill="#000000">/math4171/src/arcpython</text>
<text text-anchor="middle" x="1543.1191" y="-79.1" font-family="InputSans" font-size="8.00" fill="#000000">/PythonTuple.cpp</text>
</a>
</g>
</g>
<!-- Node16&#45;&gt;Node20 -->
<g id="edge21" class="edge">
<title>Node16&#45;&gt;Node20</title>
<path fill="none" stroke="#191970" d="M1528.2967,-134.4672C1531.3037,-125.4462 1534.5613,-115.6734 1537.2547,-107.593"/>
<polygon fill="#191970" stroke="#191970" points="1524.8936,-133.6086 1525.0517,-144.2022 1531.5344,-135.8222 1524.8936,-133.6086"/>
</g>
<!-- Node21&#45;&gt;Node8 -->
<g id="edge31" class="edge">
<title>Node21&#45;&gt;Node8</title>
<path fill="none" stroke="#191970" d="M489.4213,-144.0552C489.3205,-144.0368 489.2197,-144.0184 489.1191,-144 372.8473,-122.7806 153.2286,-159.1027 233.1191,-72 269.7314,-32.0825 627.3598,-21.5899 784.1185,-18.8996"/>
<polygon fill="#191970" stroke="#191970" points="488.4667,-147.4362 498.9452,-145.8707 489.7775,-140.56 488.4667,-147.4362"/>
</g>
<!-- Node21&#45;&gt;Node10 -->
<g id="edge24" class="edge">
<title>Node21&#45;&gt;Node10</title>
<path fill="none" stroke="#191970" d="M611.0321,-139.6464C630.323,-129.3579 652.8865,-117.324 670.9674,-107.6809"/>
<polygon fill="#191970" stroke="#191970" points="609.3203,-136.5926 602.1438,-144.3868 612.6144,-142.7691 609.3203,-136.5926"/>
</g>
<!-- Node21&#45;&gt;Node11 -->
<g id="edge30" class="edge">
<title>Node21&#45;&gt;Node11</title>
<path fill="none" stroke="#191970" d="M498.7796,-141.6609C461.6676,-130.9297 416.5803,-117.8924 380.9847,-107.5997"/>
<polygon fill="#191970" stroke="#191970" points="497.9465,-145.0633 508.5252,-144.4789 499.891,-138.3388 497.9465,-145.0633"/>
</g>
<!-- Node21&#45;&gt;Node13 -->
<g id="edge25" class="edge">
<title>Node21&#45;&gt;Node13</title>
<path fill="none" stroke="#191970" d="M564.4817,-134.1759C562.9918,-125.2363 561.3835,-115.5865 560.0513,-107.593"/>
<polygon fill="#191970" stroke="#191970" points="561.0563,-134.9137 566.1528,-144.2022 567.9611,-133.7629 561.0563,-134.9137"/>
</g>
<!-- Node21&#45;&gt;Node15 -->
<g id="edge27" class="edge">
<title>Node21&#45;&gt;Node15</title>
<path fill="none" stroke="#191970" d="M649.3926,-143.8699C771.6766,-122.6572 805.7117,-130.0553 924.1191,-108 927.1087,-107.4431 930.1584,-106.841 933.2333,-106.2063"/>
<polygon fill="#191970" stroke="#191970" points="648.5001,-140.4732 639.2602,-145.6574 649.7162,-147.3668 648.5001,-140.4732"/>
</g>
<!-- Node21&#45;&gt;Node18 -->
<g id="edge29" class="edge">
<title>Node21&#45;&gt;Node18</title>
<path fill="none" stroke="#191970" d="M649.1207,-143.973C836.3044,-115.7023 887.8335,-136.2839 1071.1191,-108 1074.3551,-107.5006 1077.6554,-106.9457 1080.9823,-106.3492"/>
<polygon fill="#191970" stroke="#191970" points="648.585,-140.5141 639.2326,-145.4924 649.6482,-147.4329 648.585,-140.5141"/>
</g>
<!-- Node22 -->
<g id="node20" class="node">
<title>Node22</title>
<g id="a_node20"><a xlink:href="_surf_plot3d_8cpp.html" target="_top" xlink:title="/home/jacques/repos\l/math4171/src/arcplot\l/old/SurfPlot3d.cpp">
<polygon fill="none" stroke="#000000" points="786.6191,-72.5 786.6191,-107.5 915.6191,-107.5 915.6191,-72.5 786.6191,-72.5"/>
<text text-anchor="start" x="794.6191" y="-97.1" font-family="InputSans" font-size="8.00" fill="#000000">/home/jacques/repos</text>
<text text-anchor="start" x="794.6191" y="-88.1" font-family="InputSans" font-size="8.00" fill="#000000">/math4171/src/arcplot</text>
<text text-anchor="middle" x="851.1191" y="-79.1" font-family="InputSans" font-size="8.00" fill="#000000">/old/SurfPlot3d.cpp</text>
</a>
</g>
</g>
<!-- Node21&#45;&gt;Node22 -->
<g id="edge26" class="edge">
<title>Node21&#45;&gt;Node22</title>
<path fill="none" stroke="#191970" d="M647.497,-141.9886C691.2931,-130.8066 745.205,-117.0419 786.5511,-106.4855"/>
<polygon fill="#191970" stroke="#191970" points="646.5668,-138.6138 637.7434,-144.4789 648.2985,-145.3962 646.5668,-138.6138"/>
</g>
<!-- Node23 -->
<g id="node21" class="node">
<title>Node23</title>
<g id="a_node21"><a xlink:href="_python_float_8cpp.html" target="_top" xlink:title="/home/jacques/repos\l/math4171/src/arcpython\l/PythonFloat.cpp">
<polygon fill="none" stroke="#000000" points="46.1191,-72.5 46.1191,-107.5 186.1191,-107.5 186.1191,-72.5 46.1191,-72.5"/>
<text text-anchor="start" x="54.1191" y="-97.1" font-family="InputSans" font-size="8.00" fill="#000000">/home/jacques/repos</text>
<text text-anchor="start" x="54.1191" y="-88.1" font-family="InputSans" font-size="8.00" fill="#000000">/math4171/src/arcpython</text>
<text text-anchor="middle" x="116.1191" y="-79.1" font-family="InputSans" font-size="8.00" fill="#000000">/PythonFloat.cpp</text>
</a>
</g>
</g>
<!-- Node21&#45;&gt;Node23 -->
<g id="edge28" class="edge">
<title>Node21&#45;&gt;Node23</title>
<path fill="none" stroke="#191970" d="M489.4217,-144.0529C489.3208,-144.0352 489.2199,-144.0176 489.1191,-144 361.6057,-121.7671 327.7445,-129.5809 200.1191,-108 195.5603,-107.2291 190.8739,-106.381 186.1576,-105.4857"/>
<polygon fill="#191970" stroke="#191970" points="488.4882,-147.4398 498.9565,-145.8075 489.7551,-140.5554 488.4882,-147.4398"/>
</g>
<!-- Node24&#45;&gt;Node10 -->
<g id="edge33" class="edge">
<title>Node24&#45;&gt;Node10</title>
<path fill="none" stroke="#191970" d="M831.3324,-140.6042C804.8435,-130.0672 773.3018,-117.5202 748.2529,-107.556"/>
<polygon fill="#191970" stroke="#191970" points="830.256,-143.9427 840.8415,-144.3868 832.8434,-137.4384 830.256,-143.9427"/>
</g>
<!-- Node24&#45;&gt;Node11 -->
<g id="edge39" class="edge">
<title>Node24&#45;&gt;Node11</title>
<path fill="none" stroke="#191970" d="M805.0618,-144.2643C753.1471,-137.8513 521.2661,-112.211 397.771,-98.5718"/>
<polygon fill="#191970" stroke="#191970" points="804.6154,-147.7357 814.9901,-145.5873 805.5401,-140.797 804.6154,-147.7357"/>
</g>
<!-- Node24&#45;&gt;Node13 -->
<g id="edge34" class="edge">
<title>Node24&#45;&gt;Node13</title>
<path fill="none" stroke="#191970" d="M805.0468,-143.7961C726.4233,-126.9833 704.9633,-124.8748 630.1191,-108 627.445,-107.3971 624.7185,-106.772 621.966,-106.1324"/>
<polygon fill="#191970" stroke="#191970" points="804.4134,-147.2399 814.9259,-145.9214 805.8856,-140.3964 804.4134,-147.2399"/>
</g>
<!-- Node24&#45;&gt;Node15 -->
<g id="edge36" class="edge">
<title>Node24&#45;&gt;Node15</title>
<path fill="none" stroke="#191970" d="M921.3019,-138.9454C937.2017,-128.8146 955.578,-117.1059 970.3699,-107.6809"/>
<polygon fill="#191970" stroke="#191970" points="919.3148,-136.0614 912.762,-144.3868 923.0763,-141.9649 919.3148,-136.0614"/>
</g>
<!-- Node24&#45;&gt;Node18 -->
<g id="edge37" class="edge">
<title>Node24&#45;&gt;Node18</title>
<path fill="none" stroke="#191970" d="M959.5028,-141.8661C999.2914,-131.0962 1047.8295,-117.9581 1086.098,-107.5997"/>
<polygon fill="#191970" stroke="#191970" points="958.588,-138.4876 949.8499,-144.4789 960.417,-145.2445 958.588,-138.4876"/>
</g>
<!-- Node24&#45;&gt;Node19 -->
<g id="edge38" class="edge">
<title>Node24&#45;&gt;Node19</title>
<path fill="none" stroke="#191970" d="M965.4523,-143.8859C1045.3789,-130.4507 1217.4192,-109.6568 1314.7947,-98.1856"/>
<polygon fill="#191970" stroke="#191970" points="964.5157,-140.4959 955.2588,-145.6496 965.7091,-147.3934 964.5157,-140.4959"/>
</g>
<!-- Node24&#45;&gt;Node22 -->
<g id="edge35" class="edge">
<title>Node24&#45;&gt;Node22</title>
<path fill="none" stroke="#191970" d="M872.3918,-135.0481C868.0565,-125.8674 863.3247,-115.8471 859.4269,-107.593"/>
<polygon fill="#191970" stroke="#191970" points="869.2796,-136.6543 876.7146,-144.2022 875.6093,-133.6652 869.2796,-136.6543"/>
</g>
<!-- Node25&#45;&gt;Node6 -->
<g id="edge43" class="edge">
<title>Node25&#45;&gt;Node6</title>
<path fill="none" stroke="#191970" d="M1429.5807,-145.4922C1433.1356,-144.95 1436.6604,-144.4485 1440.1191,-144 1693.6089,-111.1279 1760.0796,-136.3131 2014.1191,-108 2029.4837,-106.2876 2045.9567,-103.9329 2061.4136,-101.4907"/>
<polygon fill="#191970" stroke="#191970" points="1428.8266,-142.0685 1419.5125,-147.1181 1429.9426,-148.979 1428.8266,-142.0685"/>
</g>
<!-- Node25&#45;&gt;Node7 -->
<g id="edge42" class="edge">
<title>Node25&#45;&gt;Node7</title>
<path fill="none" stroke="#191970" d="M1429.6009,-145.638C1433.1503,-145.0562 1436.6684,-144.5065 1440.1191,-144 1522.5102,-131.9058 1749.5999,-161.8505 1813.1191,-108 1834.0883,-90.2227 1837.7913,-56.3678 1837.9127,-35.6277"/>
<polygon fill="#191970" stroke="#191970" points="1428.8139,-142.2216 1419.5451,-147.3539 1429.9914,-149.1219 1428.8139,-142.2216"/>
</g>
<!-- Node25&#45;&gt;Node8 -->
<g id="edge48" class="edge">
<title>Node25&#45;&gt;Node8</title>
<path fill="none" stroke="#191970" d="M1429.6069,-145.6782C1433.1547,-145.0854 1436.6708,-144.5225 1440.1191,-144 1592.8379,-120.8586 1886.1028,-184.3655 1780.1191,-72 1751.0873,-41.2201 1143.5993,-24.5082 930.3381,-19.5729"/>
<polygon fill="#191970" stroke="#191970" points="1428.8109,-142.2639 1419.5548,-147.4189 1430.0054,-149.1612 1428.8109,-142.2639"/>
</g>
<!-- Node25&#45;&gt;Node10 -->
<g id="edge41" class="edge">
<title>Node25&#45;&gt;Node10</title>
<path fill="none" stroke="#191970" d="M1268.8071,-144.1139C1050.4286,-112.7566 990.3824,-141.8469 777.1191,-108 774.4118,-107.5703 771.6575,-107.09 768.882,-106.5703"/>
<polygon fill="#191970" stroke="#191970" points="1268.5882,-147.6191 1278.9895,-145.6031 1269.6012,-140.6928 1268.5882,-147.6191"/>
</g>
<!-- Node25&#45;&gt;Node13 -->
<g id="edge44" class="edge">
<title>Node25&#45;&gt;Node13</title>
<path fill="none" stroke="#191970" d="M1268.836,-144.1334C985.5951,-105.7023 908.1206,-149.736 630.1191,-108 627.4083,-107.593 624.651,-107.1317 621.8731,-106.6277"/>
<polygon fill="#191970" stroke="#191970" points="1268.6147,-147.6359 1278.9992,-145.5356 1269.5714,-140.7016 1268.6147,-147.6359"/>
</g>
<!-- Node25&#45;&gt;Node15 -->
<g id="edge45" class="edge">
<title>Node25&#45;&gt;Node15</title>
<path fill="none" stroke="#191970" d="M1269.4201,-144.0614C1269.3197,-144.0409 1269.2193,-144.0204 1269.1191,-144 1181.9061,-126.2274 1159.1752,-126.526 1072.1191,-108 1069.0153,-107.3395 1065.8432,-106.6447 1062.6427,-105.9277"/>
<polygon fill="#191970" stroke="#191970" points="1268.4106,-147.4263 1278.9136,-146.0346 1269.8351,-140.5728 1268.4106,-147.4263"/>
</g>
<!-- Node25&#45;&gt;Node18 -->
<g id="edge46" class="edge">
<title>Node25&#45;&gt;Node18</title>
<path fill="none" stroke="#191970" d="M1291.2943,-140.9728C1262.1535,-130.3761 1227.221,-117.6734 1199.5182,-107.5997"/>
<polygon fill="#191970" stroke="#191970" points="1290.342,-144.3507 1300.936,-144.4789 1292.7342,-137.7721 1290.342,-144.3507"/>
</g>
<!-- Node26 -->
<g id="node24" class="node">
<title>Node26</title>
<g id="a_node24"><a xlink:href="_python_module_8cpp.html" target="_top" xlink:title="/home/jacques/repos\l/math4171/src/arcpython\l/PythonModule.cpp">
<polygon fill="none" stroke="#000000" points="1631.1191,-72.5 1631.1191,-107.5 1771.1191,-107.5 1771.1191,-72.5 1631.1191,-72.5"/>
<text text-anchor="start" x="1639.1191" y="-97.1" font-family="InputSans" font-size="8.00" fill="#000000">/home/jacques/repos</text>
<text text-anchor="start" x="1639.1191" y="-88.1" font-family="InputSans" font-size="8.00" fill="#000000">/math4171/src/arcpython</text>
<text text-anchor="middle" x="1701.1191" y="-79.1" font-family="InputSans" font-size="8.00" fill="#000000">/PythonModule.cpp</text>
</a>
</g>
</g>
<!-- Node25&#45;&gt;Node26 -->
<g id="edge47" class="edge">
<title>Node25&#45;&gt;Node26</title>
<path fill="none" stroke="#191970" d="M1429.337,-146.1362C1509.6633,-130.2505 1621.5137,-108.1288 1622.1191,-108 1625.0084,-107.3852 1627.9553,-106.7502 1630.9309,-106.1023"/>
<polygon fill="#191970" stroke="#191970" points="1428.3455,-142.7644 1419.2146,-148.1381 1429.7036,-149.6314 1428.3455,-142.7644"/>
</g>
<!-- Node27&#45;&gt;Node7 -->
<g id="edge51" class="edge">
<title>Node27&#45;&gt;Node7</title>
<path fill="none" stroke="#191970" d="M1123.0067,-141.9822C1156.4986,-132.8072 1195.6008,-121.0617 1230.1191,-108 1265.0758,-94.7724 1270.1161,-82.0363 1306.1191,-72 1392.3663,-47.9575 1650.9898,-29.4418 1772.5939,-21.8092"/>
<polygon fill="#191970" stroke="#191970" points="1121.9987,-138.629 1113.2624,-144.6228 1123.8297,-145.3853 1121.9987,-138.629"/>
</g>
<!-- Node27&#45;&gt;Node10 -->
<g id="edge50" class="edge">
<title>Node27&#45;&gt;Node10</title>
<path fill="none" stroke="#191970" d="M963.0154,-143.8083C879.6106,-126.5378 856.7222,-125.4642 777.1191,-108 774.4416,-107.4126 771.7122,-106.8004 768.9573,-106.1715"/>
<polygon fill="#191970" stroke="#191970" points="962.4306,-147.2616 972.9349,-145.8791 963.8612,-140.4093 962.4306,-147.2616"/>
</g>
<!-- Node27&#45;&gt;Node11 -->
<g id="edge57" class="edge">
<title>Node27&#45;&gt;Node11</title>
<path fill="none" stroke="#191970" d="M963.0936,-143.9735C750.4124,-112.5651 693.3503,-127.469 483.1191,-108 455.3367,-105.4271 424.9384,-102.1863 397.9982,-99.166"/>
<polygon fill="#191970" stroke="#191970" points="962.604,-147.4391 973.0113,-145.4548 963.6381,-140.5159 962.604,-147.4391"/>
</g>
<!-- Node27&#45;&gt;Node13 -->
<g id="edge52" class="edge">
<title>Node27&#45;&gt;Node13</title>
<path fill="none" stroke="#191970" d="M963.0879,-143.9421C815.1041,-119.9806 773.9954,-133.3735 630.1191,-108 627.4196,-107.5239 624.6717,-107.0048 621.9016,-106.453"/>
<polygon fill="#191970" stroke="#191970" points="962.5559,-147.4016 972.9922,-145.5752 963.6949,-140.4948 962.5559,-147.4016"/>
</g>
<!-- Node27&#45;&gt;Node15 -->
<g id="edge54" class="edge">
<title>Node27&#45;&gt;Node15</title>
<path fill="none" stroke="#191970" d="M1026.6358,-135.6268C1020.8004,-126.29 1014.3821,-116.0209 1009.1147,-107.593"/>
<polygon fill="#191970" stroke="#191970" points="1023.7275,-137.5773 1031.9955,-144.2022 1029.6635,-133.8672 1023.7275,-137.5773"/>
</g>
<!-- Node27&#45;&gt;Node18 -->
<g id="edge55" class="edge">
<title>Node27&#45;&gt;Node18</title>
<path fill="none" stroke="#191970" d="M1078.1237,-138.6636C1093.2221,-128.598 1110.5912,-117.0186 1124.5978,-107.6809"/>
<polygon fill="#191970" stroke="#191970" points="1075.9179,-135.9276 1069.5389,-144.3868 1079.8008,-141.752 1075.9179,-135.9276"/>
</g>
<!-- Node27&#45;&gt;Node20 -->
<g id="edge56" class="edge">
<title>Node27&#45;&gt;Node20</title>
<path fill="none" stroke="#191970" d="M1123.3718,-143.9079C1274.6856,-119.564 1316.5807,-132.4838 1464.1191,-108 1467.0333,-107.5164 1470.0009,-106.991 1472.9937,-106.4339"/>
<polygon fill="#191970" stroke="#191970" points="1122.5475,-140.4961 1113.2445,-145.5661 1123.6786,-147.4042 1122.5475,-140.4961"/>
</g>
<!-- Node27&#45;&gt;Node22 -->
<g id="edge53" class="edge">
<title>Node27&#45;&gt;Node22</title>
<path fill="none" stroke="#191970" d="M986.433,-140.7427C958.2585,-130.1773 924.6228,-117.5639 897.935,-107.556"/>
<polygon fill="#191970" stroke="#191970" points="985.5584,-144.1527 996.1506,-144.3868 988.0163,-137.5984 985.5584,-144.1527"/>
</g>
<!-- Node28&#45;&gt;Node7 -->
<g id="edge60" class="edge">
<title>Node28&#45;&gt;Node7</title>
<path fill="none" stroke="#191970" d="M647.026,-143.8996C559.734,-126.7315 429.7387,-127.5517 483.1191,-72 505.723,-48.4766 1506.2262,-25.1656 1772.5602,-19.3688"/>
<polygon fill="#191970" stroke="#191970" points="646.4105,-147.3465 656.9154,-145.969 647.8443,-140.4949 646.4105,-147.3465"/>
</g>
<!-- Node28&#45;&gt;Node8 -->
<g id="edge66" class="edge">
<title>Node28&#45;&gt;Node8</title>
<path fill="none" stroke="#191970" d="M647.0207,-143.9612C545.7966,-126.2376 390.4035,-140.1618 450.1191,-72 471.7255,-47.3375 672.5295,-30.2309 783.7727,-22.5592"/>
<polygon fill="#191970" stroke="#191970" points="646.4659,-147.4183 656.9427,-145.8413 647.7691,-140.5407 646.4659,-147.4183"/>
</g>
<!-- Node28&#45;&gt;Node10 -->
<g id="edge59" class="edge">
<title>Node28&#45;&gt;Node10</title>
<path fill="none" stroke="#191970" d="M718.3239,-134.4672C715.4422,-125.4462 712.3203,-115.6734 709.7391,-107.593"/>
<polygon fill="#191970" stroke="#191970" points="715.0566,-135.7415 721.4337,-144.2022 721.7247,-133.6114 715.0566,-135.7415"/>
</g>
<!-- Node28&#45;&gt;Node11 -->
<g id="edge65" class="edge">
<title>Node28&#45;&gt;Node11</title>
<path fill="none" stroke="#191970" d="M646.9246,-143.8446C542.1609,-124.3033 513.4858,-125.6397 412.1191,-108 407.4692,-107.1908 402.6922,-106.334 397.8766,-105.4507"/>
<polygon fill="#191970" stroke="#191970" points="646.488,-147.3238 656.9633,-145.737 647.7848,-140.445 646.488,-147.3238"/>
</g>
<!-- Node28&#45;&gt;Node13 -->
<g id="edge61" class="edge">
<title>Node28&#45;&gt;Node13</title>
<path fill="none" stroke="#191970" d="M676.2736,-140.4654C651.4624,-129.9572 621.9941,-117.4765 598.5707,-107.556"/>
<polygon fill="#191970" stroke="#191970" points="674.9592,-143.7097 685.5324,-144.3868 677.6892,-137.264 674.9592,-143.7097"/>
</g>
<!-- Node28&#45;&gt;Node15 -->
<g id="edge63" class="edge">
<title>Node28&#45;&gt;Node15</title>
<path fill="none" stroke="#191970" d="M802.7528,-141.9054C843.8061,-130.9983 894.036,-117.6531 933.2832,-107.2258"/>
<polygon fill="#191970" stroke="#191970" points="801.8326,-138.5284 793.0666,-144.4789 803.6301,-145.2937 801.8326,-138.5284"/>
</g>
<!-- Node28&#45;&gt;Node18 -->
<g id="edge64" class="edge">
<title>Node28&#45;&gt;Node18</title>
<path fill="none" stroke="#191970" d="M807.3749,-143.8627C924.832,-123.0999 957.3397,-128.4892 1071.1191,-108 1074.3416,-107.4197 1077.6307,-106.7984 1080.9486,-106.1481"/>
<polygon fill="#191970" stroke="#191970" points="806.4884,-140.4658 797.2637,-145.6769 807.7247,-147.3558 806.4884,-140.4658"/>
</g>
<!-- Node28&#45;&gt;Node22 -->
<g id="edge62" class="edge">
<title>Node28&#45;&gt;Node22</title>
<path fill="none" stroke="#191970" d="M766.3402,-139.2264C783.898,-129.0316 804.2865,-117.1931 820.6687,-107.6809"/>
<polygon fill="#191970" stroke="#191970" points="764.3433,-136.3386 757.4529,-144.3868 767.8583,-142.3922 764.3433,-136.3386"/>
</g>
<!-- Node30&#45;&gt;Node7 -->
<g id="edge69" class="edge">
<title>Node30&#45;&gt;Node7</title>
<path fill="none" stroke="#191970" d="M2475.499,-138.9325C2487.3208,-130.9001 2498.4427,-120.6506 2505.1191,-108 2512.5869,-93.8497 2515.9674,-83.7607 2505.1191,-72 2484.8301,-50.0047 2065.6586,-28.4837 1901.8828,-20.8826"/>
<polygon fill="#191970" stroke="#191970" points="2473.4212,-136.1046 2466.8207,-144.3922 2477.1487,-142.0296 2473.4212,-136.1046"/>
</g>
<!-- Node31 -->
<g id="node29" class="node">
<title>Node31</title>
<g id="a_node29"><a xlink:href="_python_string_8cpp.html" target="_top" xlink:title="/home/jacques/repos\l/math4171/src/arcpython\l/PythonString.cpp">
<polygon fill="none" stroke="#000000" points="2356.1191,-72.5 2356.1191,-107.5 2496.1191,-107.5 2496.1191,-72.5 2356.1191,-72.5"/>
<text text-anchor="start" x="2364.1191" y="-97.1" font-family="InputSans" font-size="8.00" fill="#000000">/home/jacques/repos</text>
<text text-anchor="start" x="2364.1191" y="-88.1" font-family="InputSans" font-size="8.00" fill="#000000">/math4171/src/arcpython</text>
<text text-anchor="middle" x="2426.1191" y="-79.1" font-family="InputSans" font-size="8.00" fill="#000000">/PythonString.cpp</text>
</a>
</g>
</g>
<!-- Node30&#45;&gt;Node31 -->
<g id="edge70" class="edge">
<title>Node30&#45;&gt;Node31</title>
<path fill="none" stroke="#191970" d="M2426.1191,-134.1759C2426.1191,-125.2363 2426.1191,-115.5865 2426.1191,-107.593"/>
<polygon fill="#191970" stroke="#191970" points="2422.6192,-134.2022 2426.1191,-144.2022 2429.6192,-134.2023 2422.6192,-134.2022"/>
</g>
</g>
</svg>
