<?xml version="1.0" encoding="UTF-8" standalone="no"?>
<!DOCTYPE svg PUBLIC "-//W3C//DTD SVG 1.1//EN"
 "http://www.w3.org/Graphics/SVG/1.1/DTD/svg11.dtd">
<!-- Generated by graphviz version 2.40.1 (20161225.0304)
 -->
<!-- Title: /home/jacques/repos/math4171/src/arcpython/PythonFunction.hpp Pages: 1 -->
<svg width="272pt" height="152pt"
 viewBox="0.00 0.00 271.89 152.00" xmlns="http://www.w3.org/2000/svg" xmlns:xlink="http://www.w3.org/1999/xlink">
<g id="graph0" class="graph" transform="scale(1 1) rotate(0) translate(4 148)">
<title>/home/jacques/repos/math4171/src/arcpython/PythonFunction.hpp</title>
<!-- Node0 -->
<g id="node1" class="node">
<title>Node0</title>
<polygon fill="#bfbfbf" stroke="#000000" points="89.5,-108.5 89.5,-143.5 229.5,-143.5 229.5,-108.5 89.5,-108.5"/>
<text text-anchor="start" x="97.5" y="-133.1" font-family="InputSans" font-size="8.00" fill="#000000">/home/jacques/repos</text>
<text text-anchor="start" x="97.5" y="-124.1" font-family="InputSans" font-size="8.00" fill="#000000">/math4171/src/arcpython</text>
<text text-anchor="middle" x="159.5" y="-115.1" font-family="InputSans" font-size="8.00" fill="#000000">/PythonFunction.hpp</text>
</g>
<!-- Node1 -->
<g id="node2" class="node">
<title>Node1</title>
<polygon fill="none" stroke="#bfbfbf" points="0,-.5 0,-17.5 57,-17.5 57,-.5 0,-.5"/>
<text text-anchor="middle" x="28.5" y="-7.1" font-family="InputSans" font-size="8.00" fill="#000000">Python.h</text>
</g>
<!-- Node0&#45;&gt;Node1 -->
<g id="edge1" class="edge">
<title>Node0&#45;&gt;Node1</title>
<path fill="none" stroke="#191970" d="M89.2181,-109.2262C54.7568,-99.4338 18.5207,-86.2257 8.5,-72 -1.1648,-58.2795 6.7406,-39.6743 15.2952,-26.2436"/>
<polygon fill="#191970" stroke="#191970" points="18.2668,-28.101 21.1134,-17.8957 12.524,-24.0985 18.2668,-28.101"/>
</g>
<!-- Node2 -->
<g id="node3" class="node">
<title>Node2</title>
<polygon fill="none" stroke="#bfbfbf" points="75,-.5 75,-17.5 134,-17.5 134,-.5 75,-.5"/>
<text text-anchor="middle" x="104.5" y="-7.1" font-family="InputSans" font-size="8.00" fill="#000000">iostream</text>
</g>
<!-- Node0&#45;&gt;Node2 -->
<g id="edge2" class="edge">
<title>Node0&#45;&gt;Node2</title>
<path fill="none" stroke="#191970" d="M216.1351,-108.476C247.025,-95.8629 275.7724,-77.0418 258.5,-54 244.754,-35.6624 185.0497,-22.3062 144.1499,-15.1041"/>
<polygon fill="#191970" stroke="#191970" points="144.6424,-11.6376 134.1963,-13.4064 143.4654,-18.538 144.6424,-11.6376"/>
</g>
<!-- Node3 -->
<g id="node4" class="node">
<title>Node3</title>
<polygon fill="none" stroke="#bfbfbf" points="134,-54.5 134,-71.5 185,-71.5 185,-54.5 134,-54.5"/>
<text text-anchor="middle" x="159.5" y="-61.1" font-family="InputSans" font-size="8.00" fill="#000000">memory</text>
</g>
<!-- Node0&#45;&gt;Node3 -->
<g id="edge3" class="edge">
<title>Node0&#45;&gt;Node3</title>
<path fill="none" stroke="#191970" d="M159.5,-108.451C159.5,-100.1476 159.5,-90.2234 159.5,-81.7698"/>
<polygon fill="#191970" stroke="#191970" points="163.0001,-81.764 159.5,-71.764 156.0001,-81.7641 163.0001,-81.764"/>
</g>
<!-- Node4 -->
<g id="node5" class="node">
<title>Node4</title>
<polygon fill="none" stroke="#bfbfbf" points="203.5,-54.5 203.5,-71.5 249.5,-71.5 249.5,-54.5 203.5,-54.5"/>
<text text-anchor="middle" x="226.5" y="-61.1" font-family="InputSans" font-size="8.00" fill="#000000">string</text>
</g>
<!-- Node0&#45;&gt;Node4 -->
<g id="edge4" class="edge">
<title>Node0&#45;&gt;Node4</title>
<path fill="none" stroke="#191970" d="M178.1632,-108.451C188.0853,-99.1213 200.1834,-87.7455 209.794,-78.7086"/>
<polygon fill="#191970" stroke="#191970" points="212.2919,-81.1641 217.1795,-71.764 207.4967,-76.0645 212.2919,-81.1641"/>
</g>
<!-- Node5 -->
<g id="node6" class="node">
<title>Node5</title>
<g id="a_node6"><a xlink:href="_python_object_8hpp.html" target="_top" xlink:title="PythonObject.hpp">
<polygon fill="none" stroke="#000000" points="17.5,-54.5 17.5,-71.5 115.5,-71.5 115.5,-54.5 17.5,-54.5"/>
<text text-anchor="middle" x="66.5" y="-61.1" font-family="InputSans" font-size="8.00" fill="#000000">PythonObject.hpp</text>
</a>
</g>
</g>
<!-- Node0&#45;&gt;Node5 -->
<g id="edge5" class="edge">
<title>Node0&#45;&gt;Node5</title>
<path fill="none" stroke="#191970" d="M133.5943,-108.451C119.0451,-98.5951 101.1251,-86.4557 87.4657,-77.2026"/>
<polygon fill="#191970" stroke="#191970" points="89.4253,-74.3026 79.1831,-71.5918 85.4994,-80.098 89.4253,-74.3026"/>
</g>
<!-- Node5&#45;&gt;Node1 -->
<g id="edge7" class="edge">
<title>Node5&#45;&gt;Node1</title>
<path fill="none" stroke="#191970" d="M60.2251,-54.083C54.8575,-46.4554 46.9824,-35.2645 40.4213,-25.9408"/>
<polygon fill="#191970" stroke="#191970" points="43.2755,-23.9149 34.6582,-17.7511 37.5508,-27.9434 43.2755,-23.9149"/>
</g>
<!-- Node5&#45;&gt;Node2 -->
<g id="edge6" class="edge">
<title>Node5&#45;&gt;Node2</title>
<path fill="none" stroke="#191970" d="M72.7749,-54.083C78.1425,-46.4554 86.0176,-35.2645 92.5787,-25.9408"/>
<polygon fill="#191970" stroke="#191970" points="95.4492,-27.9434 98.3418,-17.7511 89.7245,-23.9149 95.4492,-27.9434"/>
</g>
</g>
</svg>
