<?xml version="1.0" encoding="UTF-8" standalone="no"?>
<!DOCTYPE svg PUBLIC "-//W3C//DTD SVG 1.1//EN"
 "http://www.w3.org/Graphics/SVG/1.1/DTD/svg11.dtd">
<!-- Generated by graphviz version 2.40.1 (20161225.0304)
 -->
<!-- Title: /home/jacques/repos/math4171/src/arcpython/PythonFunction.cpp Pages: 1 -->
<svg width="536pt" height="206pt"
 viewBox="0.00 0.00 536.34 206.00" xmlns="http://www.w3.org/2000/svg" xmlns:xlink="http://www.w3.org/1999/xlink">
<g id="graph0" class="graph" transform="scale(1 1) rotate(0) translate(4 202)">
<title>/home/jacques/repos/math4171/src/arcpython/PythonFunction.cpp</title>
<!-- Node0 -->
<g id="node1" class="node">
<title>Node0</title>
<polygon fill="#bfbfbf" stroke="#000000" points="227.5,-162.5 227.5,-197.5 351.5,-197.5 351.5,-162.5 227.5,-162.5"/>
<text text-anchor="start" x="235.5" y="-187.1" font-family="InputSans" font-size="8.00" fill="#000000">/home/jacques/repos</text>
<text text-anchor="start" x="235.5" y="-178.1" font-family="InputSans" font-size="8.00" fill="#000000">/math4171/src/arcpython</text>
<text text-anchor="middle" x="289.5" y="-169.1" font-family="InputSans" font-size="8.00" fill="#000000">/PythonFunction.cpp</text>
</g>
<!-- Node1 -->
<g id="node2" class="node">
<title>Node1</title>
<g id="a_node2"><a xlink:href="_python_float_8hpp.html" target="_top" xlink:title="PythonFloat.hpp">
<polygon fill="none" stroke="#000000" points="83,-108.5 83,-125.5 168,-125.5 168,-108.5 83,-108.5"/>
<text text-anchor="middle" x="125.5" y="-115.1" font-family="InputSans" font-size="8.00" fill="#000000">PythonFloat.hpp</text>
</a>
</g>
</g>
<!-- Node0&#45;&gt;Node1 -->
<g id="edge1" class="edge">
<title>Node0&#45;&gt;Node1</title>
<path fill="none" stroke="#191970" d="M243.8169,-162.451C216.3276,-151.8911 182.0145,-138.7098 157.4302,-129.2659"/>
<polygon fill="#191970" stroke="#191970" points="158.456,-125.9106 147.866,-125.5918 155.9458,-132.4451 158.456,-125.9106"/>
</g>
<!-- Node6 -->
<g id="node7" class="node">
<title>Node6</title>
<g id="a_node7"><a xlink:href="_python_module_8hpp.html" target="_top" xlink:title="PythonModule.hpp">
<polygon fill="none" stroke="#000000" points="186,-108.5 186,-125.5 281,-125.5 281,-108.5 186,-108.5"/>
<text text-anchor="middle" x="233.5" y="-115.1" font-family="InputSans" font-size="8.00" fill="#000000">PythonModule.hpp</text>
</a>
</g>
</g>
<!-- Node0&#45;&gt;Node6 -->
<g id="edge7" class="edge">
<title>Node0&#45;&gt;Node6</title>
<path fill="none" stroke="#191970" d="M273.9009,-162.451C265.7737,-153.3079 255.8997,-142.1997 247.9476,-133.2536"/>
<polygon fill="#191970" stroke="#191970" points="250.5499,-130.9129 241.2902,-125.764 245.318,-135.5634 250.5499,-130.9129"/>
</g>
<!-- Node9 -->
<g id="node10" class="node">
<title>Node9</title>
<g id="a_node10"><a xlink:href="_python_tupple_8hpp.html" target="_top" xlink:title="PythonTupple.hpp">
<polygon fill="none" stroke="#000000" points="299.5,-108.5 299.5,-125.5 391.5,-125.5 391.5,-108.5 299.5,-108.5"/>
<text text-anchor="middle" x="345.5" y="-115.1" font-family="InputSans" font-size="8.00" fill="#000000">PythonTupple.hpp</text>
</a>
</g>
</g>
<!-- Node0&#45;&gt;Node9 -->
<g id="edge13" class="edge">
<title>Node0&#45;&gt;Node9</title>
<path fill="none" stroke="#191970" d="M305.0991,-162.451C313.2263,-153.3079 323.1003,-142.1997 331.0524,-133.2536"/>
<polygon fill="#191970" stroke="#191970" points="333.682,-135.5634 337.7098,-125.764 328.4501,-130.9129 333.682,-135.5634"/>
</g>
<!-- Node11 -->
<g id="node12" class="node">
<title>Node11</title>
<g id="a_node12"><a xlink:href="_python_function_8hpp.html" target="_top" xlink:title="PythonFunction.hpp">
<polygon fill="none" stroke="#000000" points="410,-108.5 410,-125.5 509,-125.5 509,-108.5 410,-108.5"/>
<text text-anchor="middle" x="459.5" y="-115.1" font-family="InputSans" font-size="8.00" fill="#000000">PythonFunction.hpp</text>
</a>
</g>
</g>
<!-- Node0&#45;&gt;Node11 -->
<g id="edge19" class="edge">
<title>Node0&#45;&gt;Node11</title>
<path fill="none" stroke="#191970" d="M336.8545,-162.451C365.4761,-151.8441 401.2342,-138.5926 426.7408,-129.1402"/>
<polygon fill="#191970" stroke="#191970" points="428.1552,-132.3487 436.3158,-125.5918 425.7227,-125.7849 428.1552,-132.3487"/>
</g>
<!-- Node2 -->
<g id="node3" class="node">
<title>Node2</title>
<polygon fill="none" stroke="#bfbfbf" points="0,-54.5 0,-71.5 47,-71.5 47,-54.5 0,-54.5"/>
<text text-anchor="middle" x="23.5" y="-61.1" font-family="InputSans" font-size="8.00" fill="#000000">cassert</text>
</g>
<!-- Node1&#45;&gt;Node2 -->
<g id="edge2" class="edge">
<title>Node1&#45;&gt;Node2</title>
<path fill="none" stroke="#191970" d="M109.1119,-108.324C92.8287,-99.7034 67.6325,-86.3643 48.7837,-76.3855"/>
<polygon fill="#191970" stroke="#191970" points="50.3229,-73.2402 39.8474,-71.6545 47.0477,-79.4267 50.3229,-73.2402"/>
</g>
<!-- Node3 -->
<g id="node4" class="node">
<title>Node3</title>
<polygon fill="none" stroke="#bfbfbf" points="142,-54.5 142,-71.5 195,-71.5 195,-54.5 142,-54.5"/>
<text text-anchor="middle" x="168.5" y="-61.1" font-family="InputSans" font-size="8.00" fill="#000000">memory</text>
</g>
<!-- Node1&#45;&gt;Node3 -->
<g id="edge3" class="edge">
<title>Node1&#45;&gt;Node3</title>
<path fill="none" stroke="#191970" d="M132.6006,-108.083C138.737,-100.3768 147.7697,-89.0333 155.2392,-79.6531"/>
<polygon fill="#191970" stroke="#191970" points="158.0402,-81.7542 161.5315,-71.7511 152.5643,-77.3936 158.0402,-81.7542"/>
</g>
<!-- Node4 -->
<g id="node5" class="node">
<title>Node4</title>
<polygon fill="none" stroke="#bfbfbf" points="232.5,-.5 232.5,-17.5 286.5,-17.5 286.5,-.5 232.5,-.5"/>
<text text-anchor="middle" x="259.5" y="-7.1" font-family="InputSans" font-size="8.00" fill="#000000">Python.h</text>
</g>
<!-- Node1&#45;&gt;Node4 -->
<g id="edge4" class="edge">
<title>Node1&#45;&gt;Node4</title>
<path fill="none" stroke="#191970" d="M122.3796,-108.2996C118.2756,-95.1794 112.8591,-70.1508 124.5,-54 136.1028,-37.902 186.3026,-24.2877 222.0906,-16.3789"/>
<polygon fill="#191970" stroke="#191970" points="223.1731,-19.7264 232.2165,-14.2067 221.7048,-12.8821 223.1731,-19.7264"/>
</g>
<!-- Node5 -->
<g id="node6" class="node">
<title>Node5</title>
<g id="a_node6"><a xlink:href="_python_object_8hpp.html" target="_top" xlink:title="PythonObject.hpp">
<polygon fill="none" stroke="#000000" points="213.5,-54.5 213.5,-71.5 305.5,-71.5 305.5,-54.5 213.5,-54.5"/>
<text text-anchor="middle" x="259.5" y="-61.1" font-family="InputSans" font-size="8.00" fill="#000000">PythonObject.hpp</text>
</a>
</g>
</g>
<!-- Node1&#45;&gt;Node5 -->
<g id="edge5" class="edge">
<title>Node1&#45;&gt;Node5</title>
<path fill="none" stroke="#191970" d="M146.7327,-108.4435C168.8835,-99.5171 203.8187,-85.4387 228.936,-75.3168"/>
<polygon fill="#191970" stroke="#191970" points="230.3997,-78.5006 238.3666,-71.5164 227.7832,-72.0079 230.3997,-78.5006"/>
</g>
<!-- Node5&#45;&gt;Node4 -->
<g id="edge6" class="edge">
<title>Node5&#45;&gt;Node4</title>
<path fill="none" stroke="#191970" d="M259.5,-54.083C259.5,-47.0059 259.5,-36.8611 259.5,-27.9865"/>
<polygon fill="#191970" stroke="#191970" points="263.0001,-27.751 259.5,-17.7511 256.0001,-27.7511 263.0001,-27.751"/>
</g>
<!-- Node6&#45;&gt;Node3 -->
<g id="edge9" class="edge">
<title>Node6&#45;&gt;Node3</title>
<path fill="none" stroke="#191970" d="M223.0566,-108.324C213.3538,-100.2631 198.6847,-88.0765 187.0003,-78.3695"/>
<polygon fill="#191970" stroke="#191970" points="189.0619,-75.532 179.1334,-71.8339 184.5887,-80.9163 189.0619,-75.532"/>
</g>
<!-- Node6&#45;&gt;Node4 -->
<g id="edge11" class="edge">
<title>Node6&#45;&gt;Node4</title>
<path fill="none" stroke="#191970" d="M193.493,-108.4591C157.6421,-98.8631 113.4186,-81.0049 132.5,-54 143.1429,-38.9377 188.8601,-25.3575 222.4044,-17.1484"/>
<polygon fill="#191970" stroke="#191970" points="223.453,-20.4967 232.3716,-14.7775 221.8331,-13.6867 223.453,-20.4967"/>
</g>
<!-- Node6&#45;&gt;Node5 -->
<g id="edge12" class="edge">
<title>Node6&#45;&gt;Node5</title>
<path fill="none" stroke="#191970" d="M237.7934,-108.083C241.3523,-100.6913 246.5225,-89.9533 250.9243,-80.8111"/>
<polygon fill="#191970" stroke="#191970" points="254.1018,-82.2795 255.2865,-71.7511 247.7948,-79.2427 254.1018,-82.2795"/>
</g>
<!-- Node7 -->
<g id="node8" class="node">
<title>Node7</title>
<polygon fill="none" stroke="#bfbfbf" points="385.5,-54.5 385.5,-71.5 439.5,-71.5 439.5,-54.5 385.5,-54.5"/>
<text text-anchor="middle" x="412.5" y="-61.1" font-family="InputSans" font-size="8.00" fill="#000000">iostream</text>
</g>
<!-- Node6&#45;&gt;Node7 -->
<g id="edge8" class="edge">
<title>Node6&#45;&gt;Node7</title>
<path fill="none" stroke="#191970" d="M261.8631,-108.4435C292.5955,-99.1723 341.7504,-84.3435 375.4995,-74.1622"/>
<polygon fill="#191970" stroke="#191970" points="376.8784,-77.4021 385.4413,-71.1629 374.8566,-70.7004 376.8784,-77.4021"/>
</g>
<!-- Node8 -->
<g id="node9" class="node">
<title>Node8</title>
<polygon fill="none" stroke="#bfbfbf" points="458,-54.5 458,-71.5 499,-71.5 499,-54.5 458,-54.5"/>
<text text-anchor="middle" x="478.5" y="-61.1" font-family="InputSans" font-size="8.00" fill="#000000">string</text>
</g>
<!-- Node6&#45;&gt;Node8 -->
<g id="edge10" class="edge">
<title>Node6&#45;&gt;Node8</title>
<path fill="none" stroke="#191970" d="M279.8955,-108.4733C321.4824,-100.5649 384.3333,-87.9608 448.0851,-71.9256"/>
<polygon fill="#191970" stroke="#191970" points="449.0778,-75.2847 457.9075,-69.4292 447.3535,-68.5004 449.0778,-75.2847"/>
</g>
<!-- Node9&#45;&gt;Node3 -->
<g id="edge16" class="edge">
<title>Node9&#45;&gt;Node3</title>
<path fill="none" stroke="#191970" d="M317.4538,-108.4435C287.0648,-99.1723 238.4591,-84.3435 205.0871,-74.1622"/>
<polygon fill="#191970" stroke="#191970" points="205.8425,-70.7334 195.2563,-71.1629 203.7998,-77.4288 205.8425,-70.7334"/>
</g>
<!-- Node9&#45;&gt;Node4 -->
<g id="edge14" class="edge">
<title>Node9&#45;&gt;Node4</title>
<path fill="none" stroke="#191970" d="M385.924,-108.4318C431.4228,-98.3823 500.0151,-81.8475 507.5,-72 512.341,-65.631 512.6271,-60.1411 507.5,-54 481.122,-22.405 359.596,-12.945 297.0013,-10.1496"/>
<polygon fill="#191970" stroke="#191970" points="296.8947,-6.6424 286.7593,-9.7284 296.607,-13.6365 296.8947,-6.6424"/>
</g>
<!-- Node9&#45;&gt;Node5 -->
<g id="edge18" class="edge">
<title>Node9&#45;&gt;Node5</title>
<path fill="none" stroke="#191970" d="M331.6826,-108.324C318.267,-99.9002 297.6759,-86.9709 281.9144,-77.0741"/>
<polygon fill="#191970" stroke="#191970" points="283.6132,-74.0081 273.2831,-71.6545 279.8908,-79.9364 283.6132,-74.0081"/>
</g>
<!-- Node9&#45;&gt;Node7 -->
<g id="edge15" class="edge">
<title>Node9&#45;&gt;Node7</title>
<path fill="none" stroke="#191970" d="M356.2647,-108.324C366.2661,-100.2631 381.3865,-88.0765 393.4305,-78.3695"/>
<polygon fill="#191970" stroke="#191970" points="395.9498,-80.8343 401.5394,-71.8339 391.5571,-75.3841 395.9498,-80.8343"/>
</g>
<!-- Node10 -->
<g id="node11" class="node">
<title>Node10</title>
<polygon fill="none" stroke="#bfbfbf" points="323.5,-54.5 323.5,-71.5 367.5,-71.5 367.5,-54.5 323.5,-54.5"/>
<text text-anchor="middle" x="345.5" y="-61.1" font-family="InputSans" font-size="8.00" fill="#000000">vector</text>
</g>
<!-- Node9&#45;&gt;Node10 -->
<g id="edge17" class="edge">
<title>Node9&#45;&gt;Node10</title>
<path fill="none" stroke="#191970" d="M345.5,-108.083C345.5,-101.0059 345.5,-90.8611 345.5,-81.9865"/>
<polygon fill="#191970" stroke="#191970" points="349.0001,-81.751 345.5,-71.7511 342.0001,-81.7511 349.0001,-81.751"/>
</g>
<!-- Node11&#45;&gt;Node3 -->
<g id="edge22" class="edge">
<title>Node11&#45;&gt;Node3</title>
<path fill="none" stroke="#191970" d="M409.9393,-109.3132C360.5245,-101.4117 282.2575,-88.2571 205.0818,-71.997"/>
<polygon fill="#191970" stroke="#191970" points="205.697,-68.5497 195.1878,-69.8938 204.2415,-75.3967 205.697,-68.5497"/>
</g>
<!-- Node11&#45;&gt;Node4 -->
<g id="edge20" class="edge">
<title>Node11&#45;&gt;Node4</title>
<path fill="none" stroke="#191970" d="M479.9524,-108.3323C504.7288,-96.6348 541.0977,-74.8511 523.5,-54 509.0245,-36.8483 366.1977,-19.9698 296.8724,-12.7098"/>
<polygon fill="#191970" stroke="#191970" points="297.1113,-9.2159 286.8044,-11.669 296.3915,-16.1788 297.1113,-9.2159"/>
</g>
<!-- Node11&#45;&gt;Node5 -->
<g id="edge24" class="edge">
<title>Node11&#45;&gt;Node5</title>
<path fill="none" stroke="#191970" d="M427.8094,-108.4435C393.4319,-99.1616 338.4232,-84.3093 300.711,-74.127"/>
<polygon fill="#191970" stroke="#191970" points="301.609,-70.7442 291.0423,-71.5164 299.7843,-77.5022 301.609,-70.7442"/>
</g>
<!-- Node11&#45;&gt;Node7 -->
<g id="edge21" class="edge">
<title>Node11&#45;&gt;Node7</title>
<path fill="none" stroke="#191970" d="M451.7389,-108.083C444.9632,-100.2982 434.9568,-88.8015 426.7449,-79.3665"/>
<polygon fill="#191970" stroke="#191970" points="429.322,-76.9963 420.1167,-71.7511 424.0419,-81.592 429.322,-76.9963"/>
</g>
<!-- Node11&#45;&gt;Node8 -->
<g id="edge23" class="edge">
<title>Node11&#45;&gt;Node8</title>
<path fill="none" stroke="#191970" d="M462.6375,-108.083C465.1829,-100.8486 468.8562,-90.4087 472.0271,-81.3968"/>
<polygon fill="#191970" stroke="#191970" points="475.4034,-82.3459 475.4209,-71.7511 468.8002,-80.0225 475.4034,-82.3459"/>
</g>
</g>
</svg>
