<?xml version="1.0" encoding="UTF-8" standalone="no"?>
<!DOCTYPE svg PUBLIC "-//W3C//DTD SVG 1.1//EN"
 "http://www.w3.org/Graphics/SVG/1.1/DTD/svg11.dtd">
<!-- Generated by graphviz version 2.40.1 (20161225.0304)
 -->
<!-- Title: /home/jacques/repos/math4171/src/arcpython/PythonString.hpp Pages: 1 -->
<svg width="280pt" height="152pt"
 viewBox="0.00 0.00 279.50 152.00" xmlns="http://www.w3.org/2000/svg" xmlns:xlink="http://www.w3.org/1999/xlink">
<g id="graph0" class="graph" transform="scale(1 1) rotate(0) translate(4 148)">
<title>/home/jacques/repos/math4171/src/arcpython/PythonString.hpp</title>
<!-- Node0 -->
<g id="node1" class="node">
<title>Node0</title>
<polygon fill="#bfbfbf" stroke="#000000" points="49.5,-108.5 49.5,-143.5 189.5,-143.5 189.5,-108.5 49.5,-108.5"/>
<text text-anchor="start" x="57.5" y="-133.1" font-family="InputSans" font-size="8.00" fill="#000000">/home/jacques/repos</text>
<text text-anchor="start" x="57.5" y="-124.1" font-family="InputSans" font-size="8.00" fill="#000000">/math4171/src/arcpython</text>
<text text-anchor="middle" x="119.5" y="-115.1" font-family="InputSans" font-size="8.00" fill="#000000">/PythonString.hpp</text>
</g>
<!-- Node1 -->
<g id="node2" class="node">
<title>Node1</title>
<polygon fill="none" stroke="#bfbfbf" points="0,-54.5 0,-71.5 53,-71.5 53,-54.5 0,-54.5"/>
<text text-anchor="middle" x="26.5" y="-61.1" font-family="InputSans" font-size="8.00" fill="#000000">cassert</text>
</g>
<!-- Node0&#45;&gt;Node1 -->
<g id="edge1" class="edge">
<title>Node0&#45;&gt;Node1</title>
<path fill="none" stroke="#191970" d="M93.5943,-108.451C79.0451,-98.5951 61.1251,-86.4557 47.4657,-77.2026"/>
<polygon fill="#191970" stroke="#191970" points="49.4253,-74.3026 39.1831,-71.5918 45.4994,-80.098 49.4253,-74.3026"/>
</g>
<!-- Node2 -->
<g id="node3" class="node">
<title>Node2</title>
<polygon fill="none" stroke="#bfbfbf" points="71.5,-54.5 71.5,-71.5 117.5,-71.5 117.5,-54.5 71.5,-54.5"/>
<text text-anchor="middle" x="94.5" y="-61.1" font-family="InputSans" font-size="8.00" fill="#000000">string</text>
</g>
<!-- Node0&#45;&gt;Node2 -->
<g id="edge2" class="edge">
<title>Node0&#45;&gt;Node2</title>
<path fill="none" stroke="#191970" d="M112.5361,-108.451C109.167,-99.961 105.1256,-89.7765 101.7231,-81.2022"/>
<polygon fill="#191970" stroke="#191970" points="104.9195,-79.768 97.9778,-71.764 98.4131,-82.3499 104.9195,-79.768"/>
</g>
<!-- Node3 -->
<g id="node4" class="node">
<title>Node3</title>
<polygon fill="none" stroke="#bfbfbf" points="118,-.5 118,-17.5 175,-17.5 175,-.5 118,-.5"/>
<text text-anchor="middle" x="146.5" y="-7.1" font-family="InputSans" font-size="8.00" fill="#000000">Python.h</text>
</g>
<!-- Node0&#45;&gt;Node3 -->
<g id="edge3" class="edge">
<title>Node0&#45;&gt;Node3</title>
<path fill="none" stroke="#191970" d="M123.5422,-108.4839C128.5761,-86.6701 137.136,-49.5775 142.2602,-27.3724"/>
<polygon fill="#191970" stroke="#191970" points="145.6914,-28.0691 144.5297,-17.5381 138.8706,-26.495 145.6914,-28.0691"/>
</g>
<!-- Node4 -->
<g id="node5" class="node">
<title>Node4</title>
<g id="a_node5"><a xlink:href="_python_object_8hpp.html" target="_top" xlink:title="PythonObject.hpp">
<polygon fill="none" stroke="#000000" points="173.5,-54.5 173.5,-71.5 271.5,-71.5 271.5,-54.5 173.5,-54.5"/>
<text text-anchor="middle" x="222.5" y="-61.1" font-family="InputSans" font-size="8.00" fill="#000000">PythonObject.hpp</text>
</a>
</g>
</g>
<!-- Node0&#45;&gt;Node4 -->
<g id="edge4" class="edge">
<title>Node0&#45;&gt;Node4</title>
<path fill="none" stroke="#191970" d="M148.1912,-108.451C164.4583,-98.5012 184.5302,-86.2243 199.7108,-76.939"/>
<polygon fill="#191970" stroke="#191970" points="201.7486,-79.7955 208.4531,-71.5918 198.096,-73.8239 201.7486,-79.7955"/>
</g>
<!-- Node4&#45;&gt;Node3 -->
<g id="edge6" class="edge">
<title>Node4&#45;&gt;Node3</title>
<path fill="none" stroke="#191970" d="M210.2893,-54.324C198.7241,-46.1066 181.1246,-33.6017 167.3393,-23.8069"/>
<polygon fill="#191970" stroke="#191970" points="169.112,-20.7729 158.9329,-17.8339 165.0575,-26.4791 169.112,-20.7729"/>
</g>
<!-- Node5 -->
<g id="node6" class="node">
<title>Node5</title>
<polygon fill="none" stroke="#bfbfbf" points="193,-.5 193,-17.5 252,-17.5 252,-.5 193,-.5"/>
<text text-anchor="middle" x="222.5" y="-7.1" font-family="InputSans" font-size="8.00" fill="#000000">iostream</text>
</g>
<!-- Node4&#45;&gt;Node5 -->
<g id="edge5" class="edge">
<title>Node4&#45;&gt;Node5</title>
<path fill="none" stroke="#191970" d="M222.5,-54.083C222.5,-47.0059 222.5,-36.8611 222.5,-27.9865"/>
<polygon fill="#191970" stroke="#191970" points="226.0001,-27.751 222.5,-17.7511 219.0001,-27.7511 226.0001,-27.751"/>
</g>
</g>
</svg>
