<?xml version="1.0" encoding="UTF-8" standalone="no"?>
<!DOCTYPE svg PUBLIC "-//W3C//DTD SVG 1.1//EN"
 "http://www.w3.org/Graphics/SVG/1.1/DTD/svg11.dtd">
<!-- Generated by graphviz version 2.40.1 (20161225.0304)
 -->
<!-- Title: /home/jacques/repos/math4171/src/arcpython/PythonModule.hpp Pages: 1 -->
<svg width="270pt" height="152pt"
 viewBox="0.00 0.00 270.26 152.00" xmlns="http://www.w3.org/2000/svg" xmlns:xlink="http://www.w3.org/1999/xlink">
<g id="graph0" class="graph" transform="scale(1 1) rotate(0) translate(4 148)">
<title>/home/jacques/repos/math4171/src/arcpython/PythonModule.hpp</title>
<!-- Node0 -->
<g id="node1" class="node">
<title>Node0</title>
<polygon fill="#bfbfbf" stroke="#000000" points="35.7575,-108.5 35.7575,-143.5 175.7575,-143.5 175.7575,-108.5 35.7575,-108.5"/>
<text text-anchor="start" x="43.7575" y="-133.1" font-family="InputSans" font-size="8.00" fill="#000000">/home/jacques/repos</text>
<text text-anchor="start" x="43.7575" y="-124.1" font-family="InputSans" font-size="8.00" fill="#000000">/math4171/src/arcpython</text>
<text text-anchor="middle" x="105.7575" y="-115.1" font-family="InputSans" font-size="8.00" fill="#000000">/PythonModule.hpp</text>
</g>
<!-- Node1 -->
<g id="node2" class="node">
<title>Node1</title>
<polygon fill="none" stroke="#bfbfbf" points="61.2575,-.5 61.2575,-17.5 120.2575,-17.5 120.2575,-.5 61.2575,-.5"/>
<text text-anchor="middle" x="90.7575" y="-7.1" font-family="InputSans" font-size="8.00" fill="#000000">iostream</text>
</g>
<!-- Node0&#45;&gt;Node1 -->
<g id="edge1" class="edge">
<title>Node0&#45;&gt;Node1</title>
<path fill="none" stroke="#191970" d="M47.6579,-108.3973C30.5034,-100.1926 13.6792,-88.4791 3.7575,-72 -10.7612,-47.8859 22.0842,-30.3066 51.489,-19.939"/>
<polygon fill="#191970" stroke="#191970" points="52.8656,-23.17 61.2558,-16.7004 50.6624,-16.5257 52.8656,-23.17"/>
</g>
<!-- Node2 -->
<g id="node3" class="node">
<title>Node2</title>
<polygon fill="none" stroke="#bfbfbf" points="13.2575,-54.5 13.2575,-71.5 64.2575,-71.5 64.2575,-54.5 13.2575,-54.5"/>
<text text-anchor="middle" x="38.7575" y="-61.1" font-family="InputSans" font-size="8.00" fill="#000000">memory</text>
</g>
<!-- Node0&#45;&gt;Node2 -->
<g id="edge2" class="edge">
<title>Node0&#45;&gt;Node2</title>
<path fill="none" stroke="#191970" d="M87.0942,-108.451C77.1722,-99.1213 65.0741,-87.7455 55.4634,-78.7086"/>
<polygon fill="#191970" stroke="#191970" points="57.7608,-76.0645 48.0779,-71.764 52.9656,-81.1641 57.7608,-76.0645"/>
</g>
<!-- Node3 -->
<g id="node4" class="node">
<title>Node3</title>
<polygon fill="none" stroke="#bfbfbf" points="82.7575,-54.5 82.7575,-71.5 128.7575,-71.5 128.7575,-54.5 82.7575,-54.5"/>
<text text-anchor="middle" x="105.7575" y="-61.1" font-family="InputSans" font-size="8.00" fill="#000000">string</text>
</g>
<!-- Node0&#45;&gt;Node3 -->
<g id="edge3" class="edge">
<title>Node0&#45;&gt;Node3</title>
<path fill="none" stroke="#191970" d="M105.7575,-108.451C105.7575,-100.1476 105.7575,-90.2234 105.7575,-81.7698"/>
<polygon fill="#191970" stroke="#191970" points="109.2576,-81.764 105.7575,-71.764 102.2576,-81.7641 109.2576,-81.764"/>
</g>
<!-- Node4 -->
<g id="node5" class="node">
<title>Node4</title>
<polygon fill="none" stroke="#bfbfbf" points="205.2575,-.5 205.2575,-17.5 262.2575,-17.5 262.2575,-.5 205.2575,-.5"/>
<text text-anchor="middle" x="233.7575" y="-7.1" font-family="InputSans" font-size="8.00" fill="#000000">Python.h</text>
</g>
<!-- Node0&#45;&gt;Node4 -->
<g id="edge4" class="edge">
<title>Node0&#45;&gt;Node4</title>
<path fill="none" stroke="#191970" d="M175.8772,-108.6985C209.291,-98.8928 244.0755,-85.8388 253.7575,-72 263.3783,-58.2485 255.4791,-39.6478 246.938,-26.2266"/>
<polygon fill="#191970" stroke="#191970" points="249.7166,-24.0919 241.1298,-17.8857 243.9721,-28.0921 249.7166,-24.0919"/>
</g>
<!-- Node5 -->
<g id="node6" class="node">
<title>Node5</title>
<g id="a_node6"><a xlink:href="_python_object_8hpp.html" target="_top" xlink:title="PythonObject.hpp">
<polygon fill="none" stroke="#000000" points="146.7575,-54.5 146.7575,-71.5 244.7575,-71.5 244.7575,-54.5 146.7575,-54.5"/>
<text text-anchor="middle" x="195.7575" y="-61.1" font-family="InputSans" font-size="8.00" fill="#000000">PythonObject.hpp</text>
</a>
</g>
</g>
<!-- Node0&#45;&gt;Node5 -->
<g id="edge5" class="edge">
<title>Node0&#45;&gt;Node5</title>
<path fill="none" stroke="#191970" d="M130.8275,-108.451C144.6888,-98.7481 161.7116,-86.8321 174.8494,-77.6357"/>
<polygon fill="#191970" stroke="#191970" points="177.0522,-80.366 183.2374,-71.764 173.038,-74.6314 177.0522,-80.366"/>
</g>
<!-- Node5&#45;&gt;Node1 -->
<g id="edge6" class="edge">
<title>Node5&#45;&gt;Node1</title>
<path fill="none" stroke="#191970" d="M178.8874,-54.324C162.0487,-45.6641 135.9509,-32.2424 116.5195,-22.249"/>
<polygon fill="#191970" stroke="#191970" points="118.0793,-19.1155 107.5857,-17.6545 114.8778,-25.3405 118.0793,-19.1155"/>
</g>
<!-- Node5&#45;&gt;Node4 -->
<g id="edge7" class="edge">
<title>Node5&#45;&gt;Node4</title>
<path fill="none" stroke="#191970" d="M202.0324,-54.083C207.3999,-46.4554 215.2751,-35.2645 221.8362,-25.9408"/>
<polygon fill="#191970" stroke="#191970" points="224.7067,-27.9434 227.5993,-17.7511 218.982,-23.9149 224.7067,-27.9434"/>
</g>
</g>
</svg>
