<?xml version="1.0" encoding="UTF-8" standalone="no"?>
<!DOCTYPE svg PUBLIC "-//W3C//DTD SVG 1.1//EN"
 "http://www.w3.org/Graphics/SVG/1.1/DTD/svg11.dtd">
<!-- Generated by graphviz version 2.40.1 (20161225.0304)
 -->
<!-- Title: /home/jacques/repos/math4171/src/arcpython/PythonList.hpp Pages: 1 -->
<svg width="1068pt" height="116pt"
 viewBox="0.00 0.00 1068.00 116.00" xmlns="http://www.w3.org/2000/svg" xmlns:xlink="http://www.w3.org/1999/xlink">
<g id="graph0" class="graph" transform="scale(1 1) rotate(0) translate(4 112)">
<title>/home/jacques/repos/math4171/src/arcpython/PythonList.hpp</title>
<!-- Node6 -->
<g id="node1" class="node">
<title>Node6</title>
<polygon fill="#bfbfbf" stroke="#000000" points="435.5,-72.5 435.5,-107.5 575.5,-107.5 575.5,-72.5 435.5,-72.5"/>
<text text-anchor="start" x="443.5" y="-97.1" font-family="InputSans" font-size="8.00" fill="#000000">/home/jacques/repos</text>
<text text-anchor="start" x="443.5" y="-88.1" font-family="InputSans" font-size="8.00" fill="#000000">/math4171/src/arcpython</text>
<text text-anchor="middle" x="505.5" y="-79.1" font-family="InputSans" font-size="8.00" fill="#000000">/PythonList.hpp</text>
</g>
<!-- Node7 -->
<g id="node2" class="node">
<title>Node7</title>
<g id="a_node2"><a xlink:href="_contour_plot_8cpp.html" target="_top" xlink:title="/home/jacques/repos\l/math4171/src/arcplot\l/ContourPlot.cpp">
<polygon fill="none" stroke="#000000" points="0,-.5 0,-35.5 129,-35.5 129,-.5 0,-.5"/>
<text text-anchor="start" x="8" y="-25.1" font-family="InputSans" font-size="8.00" fill="#000000">/home/jacques/repos</text>
<text text-anchor="start" x="8" y="-16.1" font-family="InputSans" font-size="8.00" fill="#000000">/math4171/src/arcplot</text>
<text text-anchor="middle" x="64.5" y="-7.1" font-family="InputSans" font-size="8.00" fill="#000000">/ContourPlot.cpp</text>
</a>
</g>
</g>
<!-- Node6&#45;&gt;Node7 -->
<g id="edge1" class="edge">
<title>Node6&#45;&gt;Node7</title>
<path fill="none" stroke="#191970" d="M425.0084,-80.4505C350.1995,-71.0408 235.8428,-55.2935 137.5,-36 134.8101,-35.4723 132.0703,-34.91 129.3069,-34.3224"/>
<polygon fill="#191970" stroke="#191970" points="424.9391,-83.969 435.296,-81.7359 425.8071,-77.023 424.9391,-83.969"/>
</g>
<!-- Node8 -->
<g id="node3" class="node">
<title>Node8</title>
<g id="a_node3"><a xlink:href="_list_plot_8cpp.html" target="_top" xlink:title="/home/jacques/repos\l/math4171/src/arcplot\l/ListPlot.cpp">
<polygon fill="none" stroke="#000000" points="147,-.5 147,-35.5 276,-35.5 276,-.5 147,-.5"/>
<text text-anchor="start" x="155" y="-25.1" font-family="InputSans" font-size="8.00" fill="#000000">/home/jacques/repos</text>
<text text-anchor="start" x="155" y="-16.1" font-family="InputSans" font-size="8.00" fill="#000000">/math4171/src/arcplot</text>
<text text-anchor="middle" x="211.5" y="-7.1" font-family="InputSans" font-size="8.00" fill="#000000">/ListPlot.cpp</text>
</a>
</g>
</g>
<!-- Node6&#45;&gt;Node8 -->
<g id="edge2" class="edge">
<title>Node6&#45;&gt;Node8</title>
<path fill="none" stroke="#191970" d="M425.4329,-70.4791C383.4592,-60.2347 331.1973,-47.4623 284.5,-36 281.8379,-35.3466 279.1212,-34.6792 276.377,-34.0046"/>
<polygon fill="#191970" stroke="#191970" points="424.7765,-73.9215 435.3213,-72.8922 426.4361,-67.1211 424.7765,-73.9215"/>
</g>
<!-- Node9 -->
<g id="node4" class="node">
<title>Node9</title>
<g id="a_node4"><a xlink:href="_surf_plot3d_8cpp.html" target="_top" xlink:title="/home/jacques/repos\l/math4171/src/arcplot\l/old/SurfPlot3d.cpp">
<polygon fill="none" stroke="#000000" points="294,-.5 294,-35.5 423,-35.5 423,-.5 294,-.5"/>
<text text-anchor="start" x="302" y="-25.1" font-family="InputSans" font-size="8.00" fill="#000000">/home/jacques/repos</text>
<text text-anchor="start" x="302" y="-16.1" font-family="InputSans" font-size="8.00" fill="#000000">/math4171/src/arcplot</text>
<text text-anchor="middle" x="358.5" y="-7.1" font-family="InputSans" font-size="8.00" fill="#000000">/old/SurfPlot3d.cpp</text>
</a>
</g>
</g>
<!-- Node6&#45;&gt;Node9 -->
<g id="edge3" class="edge">
<title>Node6&#45;&gt;Node9</title>
<path fill="none" stroke="#191970" d="M460.3958,-67.9081C439.1828,-57.5181 414.2409,-45.3017 394.3435,-35.556"/>
<polygon fill="#191970" stroke="#191970" points="459.0196,-71.1313 469.5398,-72.3868 462.0987,-64.8449 459.0196,-71.1313"/>
</g>
<!-- Node10 -->
<g id="node5" class="node">
<title>Node10</title>
<g id="a_node5"><a xlink:href="_surface_plot_8cpp.html" target="_top" xlink:title="/home/jacques/repos\l/math4171/src/arcplot\l/SurfacePlot.cpp">
<polygon fill="none" stroke="#000000" points="441,-.5 441,-35.5 570,-35.5 570,-.5 441,-.5"/>
<text text-anchor="start" x="449" y="-25.1" font-family="InputSans" font-size="8.00" fill="#000000">/home/jacques/repos</text>
<text text-anchor="start" x="449" y="-16.1" font-family="InputSans" font-size="8.00" fill="#000000">/math4171/src/arcplot</text>
<text text-anchor="middle" x="505.5" y="-7.1" font-family="InputSans" font-size="8.00" fill="#000000">/SurfacePlot.cpp</text>
</a>
</g>
</g>
<!-- Node6&#45;&gt;Node10 -->
<g id="edge4" class="edge">
<title>Node6&#45;&gt;Node10</title>
<path fill="none" stroke="#191970" d="M505.5,-62.1759C505.5,-53.2363 505.5,-43.5865 505.5,-35.593"/>
<polygon fill="#191970" stroke="#191970" points="502.0001,-62.2022 505.5,-72.2022 509.0001,-62.2023 502.0001,-62.2022"/>
</g>
<!-- Node11 -->
<g id="node6" class="node">
<title>Node11</title>
<g id="a_node6"><a xlink:href="_python_function_8cpp.html" target="_top" xlink:title="/home/jacques/repos\l/math4171/src/arcpython\l/PythonFunction.cpp">
<polygon fill="none" stroke="#000000" points="588.5,-.5 588.5,-35.5 728.5,-35.5 728.5,-.5 588.5,-.5"/>
<text text-anchor="start" x="596.5" y="-25.1" font-family="InputSans" font-size="8.00" fill="#000000">/home/jacques/repos</text>
<text text-anchor="start" x="596.5" y="-16.1" font-family="InputSans" font-size="8.00" fill="#000000">/math4171/src/arcpython</text>
<text text-anchor="middle" x="658.5" y="-7.1" font-family="InputSans" font-size="8.00" fill="#000000">/PythonFunction.cpp</text>
</a>
</g>
</g>
<!-- Node6&#45;&gt;Node11 -->
<g id="edge5" class="edge">
<title>Node6&#45;&gt;Node11</title>
<path fill="none" stroke="#191970" d="M552.1484,-68.0478C574.2911,-57.6277 600.3911,-45.3454 621.1935,-35.556"/>
<polygon fill="#191970" stroke="#191970" points="550.4859,-64.9619 542.928,-72.3868 553.4665,-71.2957 550.4859,-64.9619"/>
</g>
<!-- Node12 -->
<g id="node7" class="node">
<title>Node12</title>
<g id="a_node7"><a xlink:href="_python_list_8cpp.html" target="_top" xlink:title="/home/jacques/repos\l/math4171/src/arcpython\l/PythonList.cpp">
<polygon fill="none" stroke="#000000" points="746.5,-.5 746.5,-35.5 886.5,-35.5 886.5,-.5 746.5,-.5"/>
<text text-anchor="start" x="754.5" y="-25.1" font-family="InputSans" font-size="8.00" fill="#000000">/home/jacques/repos</text>
<text text-anchor="start" x="754.5" y="-16.1" font-family="InputSans" font-size="8.00" fill="#000000">/math4171/src/arcpython</text>
<text text-anchor="middle" x="816.5" y="-7.1" font-family="InputSans" font-size="8.00" fill="#000000">/PythonList.cpp</text>
</a>
</g>
</g>
<!-- Node6&#45;&gt;Node12 -->
<g id="edge6" class="edge">
<title>Node6&#45;&gt;Node12</title>
<path fill="none" stroke="#191970" d="M585.4378,-71.4935C635.1672,-59.9806 698.5182,-45.3141 746.3045,-34.2511"/>
<polygon fill="#191970" stroke="#191970" points="584.6351,-68.0867 575.6822,-73.752 586.214,-74.9063 584.6351,-68.0867"/>
</g>
<!-- Node13 -->
<g id="node8" class="node">
<title>Node13</title>
<g id="a_node8"><a xlink:href="assignment1-src_2_main_8cpp.html" target="_top" xlink:title="/home/jacques/repos\l/math4171/src/assignment1\l&#45;src/Main.cpp">
<polygon fill="none" stroke="#000000" points="905,-.5 905,-35.5 1060,-35.5 1060,-.5 905,-.5"/>
<text text-anchor="start" x="913" y="-25.1" font-family="InputSans" font-size="8.00" fill="#000000">/home/jacques/repos</text>
<text text-anchor="start" x="913" y="-16.1" font-family="InputSans" font-size="8.00" fill="#000000">/math4171/src/assignment1</text>
<text text-anchor="middle" x="982.5" y="-7.1" font-family="InputSans" font-size="8.00" fill="#000000">&#45;src/Main.cpp</text>
</a>
</g>
</g>
<!-- Node6&#45;&gt;Node13 -->
<g id="edge7" class="edge">
<title>Node6&#45;&gt;Node13</title>
<path fill="none" stroke="#191970" d="M586.1867,-80.4165C665.2231,-70.6551 788.9711,-54.3744 895.5,-36 898.5399,-35.4757 901.6359,-34.9234 904.7605,-34.3508"/>
<polygon fill="#191970" stroke="#191970" points="585.3151,-76.9972 575.817,-81.6915 586.1694,-83.9449 585.3151,-76.9972"/>
</g>
</g>
</svg>
