<?xml version="1.0" encoding="UTF-8" standalone="no"?>
<!DOCTYPE svg PUBLIC "-//W3C//DTD SVG 1.1//EN"
 "http://www.w3.org/Graphics/SVG/1.1/DTD/svg11.dtd">
<!-- Generated by graphviz version 2.40.1 (20161225.0304)
 -->
<!-- Title: /home/jacques/repos/math4171/src/arcpython/PythonTuple.cpp Pages: 1 -->
<svg width="420pt" height="206pt"
 viewBox="0.00 0.00 419.99 206.00" xmlns="http://www.w3.org/2000/svg" xmlns:xlink="http://www.w3.org/1999/xlink">
<g id="graph0" class="graph" transform="scale(1 1) rotate(0) translate(4 202)">
<title>/home/jacques/repos/math4171/src/arcpython/PythonTuple.cpp</title>
<!-- Node0 -->
<g id="node1" class="node">
<title>Node0</title>
<polygon fill="#bfbfbf" stroke="#000000" points="88.9942,-162.5 88.9942,-197.5 228.9942,-197.5 228.9942,-162.5 88.9942,-162.5"/>
<text text-anchor="start" x="96.9942" y="-187.1" font-family="InputSans" font-size="8.00" fill="#000000">/home/jacques/repos</text>
<text text-anchor="start" x="96.9942" y="-178.1" font-family="InputSans" font-size="8.00" fill="#000000">/math4171/src/arcpython</text>
<text text-anchor="middle" x="158.9942" y="-169.1" font-family="InputSans" font-size="8.00" fill="#000000">/PythonTuple.cpp</text>
</g>
<!-- Node1 -->
<g id="node2" class="node">
<title>Node1</title>
<g id="a_node2"><a xlink:href="_python_common_8hpp.html" target="_top" xlink:title="PythonCommon.hpp">
<polygon fill="none" stroke="#000000" points="48.9942,-108.5 48.9942,-125.5 152.9942,-125.5 152.9942,-108.5 48.9942,-108.5"/>
<text text-anchor="middle" x="100.9942" y="-115.1" font-family="InputSans" font-size="8.00" fill="#000000">PythonCommon.hpp</text>
</a>
</g>
</g>
<!-- Node0&#45;&gt;Node1 -->
<g id="edge1" class="edge">
<title>Node0&#45;&gt;Node1</title>
<path fill="none" stroke="#191970" d="M142.8379,-162.451C134.4205,-153.3079 124.1939,-142.1997 115.9578,-133.2536"/>
<polygon fill="#191970" stroke="#191970" points="118.4107,-130.7504 109.0626,-125.764 113.2608,-135.4916 118.4107,-130.7504"/>
</g>
<!-- Node6 -->
<g id="node7" class="node">
<title>Node6</title>
<g id="a_node7"><a xlink:href="_python_tuple_8hpp.html" target="_top" xlink:title="PythonTuple.hpp">
<polygon fill="none" stroke="#000000" points="202.9942,-108.5 202.9942,-125.5 294.9942,-125.5 294.9942,-108.5 202.9942,-108.5"/>
<text text-anchor="middle" x="248.9942" y="-115.1" font-family="InputSans" font-size="8.00" fill="#000000">PythonTuple.hpp</text>
</a>
</g>
</g>
<!-- Node0&#45;&gt;Node6 -->
<g id="edge7" class="edge">
<title>Node0&#45;&gt;Node6</title>
<path fill="none" stroke="#191970" d="M184.0642,-162.451C197.9255,-152.7481 214.9483,-140.8321 228.0861,-131.6357"/>
<polygon fill="#191970" stroke="#191970" points="230.2889,-134.366 236.4741,-125.764 226.2747,-128.6314 230.2889,-134.366"/>
</g>
<!-- Node2 -->
<g id="node3" class="node">
<title>Node2</title>
<polygon fill="none" stroke="#bfbfbf" points="14.4942,-54.5 14.4942,-71.5 85.4942,-71.5 85.4942,-54.5 14.4942,-54.5"/>
<text text-anchor="middle" x="49.9942" y="-61.1" font-family="InputSans" font-size="8.00" fill="#000000">type_traits</text>
</g>
<!-- Node1&#45;&gt;Node2 -->
<g id="edge2" class="edge">
<title>Node1&#45;&gt;Node2</title>
<path fill="none" stroke="#191970" d="M92.5726,-108.083C85.146,-100.2195 74.1425,-88.5688 65.182,-79.0813"/>
<polygon fill="#191970" stroke="#191970" points="67.6699,-76.618 58.2591,-71.7511 62.5808,-81.4244 67.6699,-76.618"/>
</g>
<!-- Node3 -->
<g id="node4" class="node">
<title>Node3</title>
<polygon fill="none" stroke="#bfbfbf" points="124.4942,-.5 124.4942,-17.5 181.4942,-17.5 181.4942,-.5 124.4942,-.5"/>
<text text-anchor="middle" x="152.9942" y="-7.1" font-family="InputSans" font-size="8.00" fill="#000000">Python.h</text>
</g>
<!-- Node1&#45;&gt;Node3 -->
<g id="edge3" class="edge">
<title>Node1&#45;&gt;Node3</title>
<path fill="none" stroke="#191970" d="M64.5306,-108.4337C29.8559,-98.5084 -14.3541,-80.1058 4.9942,-54 18.0954,-36.323 75.059,-22.8391 114.3677,-15.4225"/>
<polygon fill="#191970" stroke="#191970" points="115.2316,-18.8227 124.439,-13.5809 113.9725,-11.9368 115.2316,-18.8227"/>
</g>
<!-- Node4 -->
<g id="node5" class="node">
<title>Node4</title>
<g id="a_node5"><a xlink:href="_python_object_8hpp.html" target="_top" xlink:title="PythonObject.hpp">
<polygon fill="none" stroke="#000000" points="103.9942,-54.5 103.9942,-71.5 201.9942,-71.5 201.9942,-54.5 103.9942,-54.5"/>
<text text-anchor="middle" x="152.9942" y="-61.1" font-family="InputSans" font-size="8.00" fill="#000000">PythonObject.hpp</text>
</a>
</g>
</g>
<!-- Node1&#45;&gt;Node4 -->
<g id="edge4" class="edge">
<title>Node1&#45;&gt;Node4</title>
<path fill="none" stroke="#191970" d="M109.5809,-108.083C117.1532,-100.2195 128.3723,-88.5688 137.5085,-79.0813"/>
<polygon fill="#191970" stroke="#191970" points="140.1519,-81.3821 144.5672,-71.7511 135.1096,-76.5266 140.1519,-81.3821"/>
</g>
<!-- Node4&#45;&gt;Node3 -->
<g id="edge6" class="edge">
<title>Node4&#45;&gt;Node3</title>
<path fill="none" stroke="#191970" d="M152.9942,-54.083C152.9942,-47.0059 152.9942,-36.8611 152.9942,-27.9865"/>
<polygon fill="#191970" stroke="#191970" points="156.4943,-27.751 152.9942,-17.7511 149.4943,-27.7511 156.4943,-27.751"/>
</g>
<!-- Node5 -->
<g id="node6" class="node">
<title>Node5</title>
<polygon fill="none" stroke="#bfbfbf" points="218.4942,-.5 218.4942,-17.5 277.4942,-17.5 277.4942,-.5 218.4942,-.5"/>
<text text-anchor="middle" x="247.9942" y="-7.1" font-family="InputSans" font-size="8.00" fill="#000000">iostream</text>
</g>
<!-- Node4&#45;&gt;Node5 -->
<g id="edge5" class="edge">
<title>Node4&#45;&gt;Node5</title>
<path fill="none" stroke="#191970" d="M168.2576,-54.324C183.2156,-45.8215 206.249,-32.7288 223.7208,-22.7975"/>
<polygon fill="#191970" stroke="#191970" points="225.8046,-25.639 232.7687,-17.6545 222.3454,-19.5534 225.8046,-25.639"/>
</g>
<!-- Node6&#45;&gt;Node3 -->
<g id="edge8" class="edge">
<title>Node6&#45;&gt;Node3</title>
<path fill="none" stroke="#191970" d="M244.975,-108.182C238.8523,-95.3474 226.2725,-71.181 210.9942,-54 200.601,-42.3125 186.844,-31.4895 175.3366,-23.3879"/>
<polygon fill="#191970" stroke="#191970" points="177.3029,-20.4925 167.0682,-17.7537 173.3612,-26.2772 177.3029,-20.4925"/>
</g>
<!-- Node6&#45;&gt;Node4 -->
<g id="edge12" class="edge">
<title>Node6&#45;&gt;Node4</title>
<path fill="none" stroke="#191970" d="M233.5701,-108.324C218.4546,-99.8215 195.1788,-86.7288 177.523,-76.7975"/>
<polygon fill="#191970" stroke="#191970" points="178.8117,-73.5066 168.38,-71.6545 175.3798,-79.6077 178.8117,-73.5066"/>
</g>
<!-- Node6&#45;&gt;Node5 -->
<g id="edge9" class="edge">
<title>Node6&#45;&gt;Node5</title>
<path fill="none" stroke="#191970" d="M248.9123,-108.1619C248.7504,-90.6713 248.3859,-51.3048 248.168,-27.7731"/>
<polygon fill="#191970" stroke="#191970" points="251.6669,-27.6255 248.0743,-17.6584 244.6672,-27.6904 251.6669,-27.6255"/>
</g>
<!-- Node7 -->
<g id="node8" class="node">
<title>Node7</title>
<polygon fill="none" stroke="#bfbfbf" points="296.4942,-54.5 296.4942,-71.5 347.4942,-71.5 347.4942,-54.5 296.4942,-54.5"/>
<text text-anchor="middle" x="321.9942" y="-61.1" font-family="InputSans" font-size="8.00" fill="#000000">memory</text>
</g>
<!-- Node6&#45;&gt;Node7 -->
<g id="edge10" class="edge">
<title>Node6&#45;&gt;Node7</title>
<path fill="none" stroke="#191970" d="M260.7229,-108.324C271.8316,-100.1066 288.7363,-87.6017 301.9775,-77.8069"/>
<polygon fill="#191970" stroke="#191970" points="304.094,-80.5948 310.0521,-71.8339 299.9311,-74.9671 304.094,-80.5948"/>
</g>
<!-- Node8 -->
<g id="node9" class="node">
<title>Node8</title>
<polygon fill="none" stroke="#bfbfbf" points="365.9942,-54.5 365.9942,-71.5 411.9942,-71.5 411.9942,-54.5 365.9942,-54.5"/>
<text text-anchor="middle" x="388.9942" y="-61.1" font-family="InputSans" font-size="8.00" fill="#000000">vector</text>
</g>
<!-- Node6&#45;&gt;Node8 -->
<g id="edge11" class="edge">
<title>Node6&#45;&gt;Node8</title>
<path fill="none" stroke="#191970" d="M271.1776,-108.4435C294.4226,-99.4776 331.143,-85.314 357.4094,-75.1827"/>
<polygon fill="#191970" stroke="#191970" points="358.8441,-78.3807 366.9145,-71.5164 356.3249,-71.8497 358.8441,-78.3807"/>
</g>
</g>
</svg>
