<?xml version="1.0" encoding="UTF-8" standalone="no"?>
<!DOCTYPE svg PUBLIC "-//W3C//DTD SVG 1.1//EN"
 "http://www.w3.org/Graphics/SVG/1.1/DTD/svg11.dtd">
<!-- Generated by graphviz version 2.40.1 (20161225.0304)
 -->
<!-- Title: /home/jacques/repos/math4171/src/arcpython/PythonObject.hpp Pages: 1 -->
<svg width="1124pt" height="188pt"
 viewBox="0.00 0.00 1124.00 188.00" xmlns="http://www.w3.org/2000/svg" xmlns:xlink="http://www.w3.org/1999/xlink">
<g id="graph0" class="graph" transform="scale(1 1) rotate(0) translate(4 184)">
<title>/home/jacques/repos/math4171/src/arcpython/PythonObject.hpp</title>
<!-- Node2 -->
<g id="node1" class="node">
<title>Node2</title>
<polygon fill="#bfbfbf" stroke="#000000" points="566,-144.5 566,-179.5 690,-179.5 690,-144.5 566,-144.5"/>
<text text-anchor="start" x="574" y="-169.1" font-family="InputSans" font-size="8.00" fill="#000000">/home/jacques/repos</text>
<text text-anchor="start" x="574" y="-160.1" font-family="InputSans" font-size="8.00" fill="#000000">/math4171/src/arcpython</text>
<text text-anchor="middle" x="628" y="-151.1" font-family="InputSans" font-size="8.00" fill="#000000">/PythonObject.hpp</text>
</g>
<!-- Node3 -->
<g id="node2" class="node">
<title>Node3</title>
<g id="a_node2"><a xlink:href="_python_float_8hpp.html" target="_top" xlink:title="/home/jacques/repos\l/math4171/src/arcpython\l/PythonFloat.hpp">
<polygon fill="none" stroke="#000000" points="708,-72.5 708,-107.5 832,-107.5 832,-72.5 708,-72.5"/>
<text text-anchor="start" x="716" y="-97.1" font-family="InputSans" font-size="8.00" fill="#000000">/home/jacques/repos</text>
<text text-anchor="start" x="716" y="-88.1" font-family="InputSans" font-size="8.00" fill="#000000">/math4171/src/arcpython</text>
<text text-anchor="middle" x="770" y="-79.1" font-family="InputSans" font-size="8.00" fill="#000000">/PythonFloat.hpp</text>
</a>
</g>
</g>
<!-- Node2&#45;&gt;Node3 -->
<g id="edge1" class="edge">
<title>Node2&#45;&gt;Node3</title>
<path fill="none" stroke="#191970" d="M671.8111,-139.7859C692.1626,-129.4668 716.0249,-117.3677 735.1294,-107.6809"/>
<polygon fill="#191970" stroke="#191970" points="670.0733,-136.7428 662.7371,-144.3868 673.239,-142.9861 670.0733,-136.7428"/>
</g>
<!-- Node8 -->
<g id="node7" class="node">
<title>Node8</title>
<g id="a_node7"><a xlink:href="_main_8cpp.html" target="_top" xlink:title="/home/jacques/repos\l/math4171/src/assignment1\l&#45;src/Main.cpp">
<polygon fill="none" stroke="#000000" points="284.5,-.5 284.5,-35.5 419.5,-35.5 419.5,-.5 284.5,-.5"/>
<text text-anchor="start" x="292.5" y="-25.1" font-family="InputSans" font-size="8.00" fill="#000000">/home/jacques/repos</text>
<text text-anchor="start" x="292.5" y="-16.1" font-family="InputSans" font-size="8.00" fill="#000000">/math4171/src/assignment1</text>
<text text-anchor="middle" x="352" y="-7.1" font-family="InputSans" font-size="8.00" fill="#000000">&#45;src/Main.cpp</text>
</a>
</g>
</g>
<!-- Node2&#45;&gt;Node8 -->
<g id="edge28" class="edge">
<title>Node2&#45;&gt;Node8</title>
<path fill="none" stroke="#191970" d="M555.7703,-156.013C457.3481,-147.1123 291.1746,-129.1482 273,-108 262.5716,-95.8654 265.5322,-86.1503 273,-72 281.2968,-56.2789 296.4592,-44.2659 311.2984,-35.6078"/>
<polygon fill="#191970" stroke="#191970" points="555.6835,-159.5191 565.9555,-156.9237 556.3069,-152.5469 555.6835,-159.5191"/>
</g>
<!-- Node9 -->
<g id="node8" class="node">
<title>Node9</title>
<g id="a_node8"><a xlink:href="_python_function_8hpp.html" target="_top" xlink:title="/home/jacques/repos\l/math4171/src/arcpython\l/PythonFunction.hpp">
<polygon fill="none" stroke="#000000" points="566,-72.5 566,-107.5 690,-107.5 690,-72.5 566,-72.5"/>
<text text-anchor="start" x="574" y="-97.1" font-family="InputSans" font-size="8.00" fill="#000000">/home/jacques/repos</text>
<text text-anchor="start" x="574" y="-88.1" font-family="InputSans" font-size="8.00" fill="#000000">/math4171/src/arcpython</text>
<text text-anchor="middle" x="628" y="-79.1" font-family="InputSans" font-size="8.00" fill="#000000">/PythonFunction.hpp</text>
</a>
</g>
</g>
<!-- Node2&#45;&gt;Node9 -->
<g id="edge7" class="edge">
<title>Node2&#45;&gt;Node9</title>
<path fill="none" stroke="#191970" d="M628,-134.1759C628,-125.2363 628,-115.5865 628,-107.593"/>
<polygon fill="#191970" stroke="#191970" points="624.5001,-134.2022 628,-144.2022 631.5001,-134.2023 624.5001,-134.2022"/>
</g>
<!-- Node10 -->
<g id="node9" class="node">
<title>Node10</title>
<g id="a_node9"><a xlink:href="_python_list_8hpp.html" target="_top" xlink:title="/home/jacques/repos\l/math4171/src/arcpython\l/PythonList.hpp">
<polygon fill="none" stroke="#000000" points="282,-72.5 282,-107.5 406,-107.5 406,-72.5 282,-72.5"/>
<text text-anchor="start" x="290" y="-97.1" font-family="InputSans" font-size="8.00" fill="#000000">/home/jacques/repos</text>
<text text-anchor="start" x="290" y="-88.1" font-family="InputSans" font-size="8.00" fill="#000000">/math4171/src/arcpython</text>
<text text-anchor="middle" x="344" y="-79.1" font-family="InputSans" font-size="8.00" fill="#000000">/PythonList.hpp</text>
</a>
</g>
</g>
<!-- Node2&#45;&gt;Node10 -->
<g id="edge12" class="edge">
<title>Node2&#45;&gt;Node10</title>
<path fill="none" stroke="#191970" d="M555.7304,-143.6781C509.542,-131.9684 450.2609,-116.9394 406.1796,-105.7638"/>
<polygon fill="#191970" stroke="#191970" points="555.1215,-147.1344 565.675,-146.1993 556.8418,-140.3491 555.1215,-147.1344"/>
</g>
<!-- Node12 -->
<g id="node11" class="node">
<title>Node12</title>
<g id="a_node11"><a xlink:href="_python_module_8hpp.html" target="_top" xlink:title="/home/jacques/repos\l/math4171/src/arcpython\l/PythonModule.hpp">
<polygon fill="none" stroke="#000000" points="850,-72.5 850,-107.5 974,-107.5 974,-72.5 850,-72.5"/>
<text text-anchor="start" x="858" y="-97.1" font-family="InputSans" font-size="8.00" fill="#000000">/home/jacques/repos</text>
<text text-anchor="start" x="858" y="-88.1" font-family="InputSans" font-size="8.00" fill="#000000">/math4171/src/arcpython</text>
<text text-anchor="middle" x="912" y="-79.1" font-family="InputSans" font-size="8.00" fill="#000000">/PythonModule.hpp</text>
</a>
</g>
</g>
<!-- Node2&#45;&gt;Node12 -->
<g id="edge17" class="edge">
<title>Node2&#45;&gt;Node12</title>
<path fill="none" stroke="#191970" d="M700.2696,-143.6781C746.458,-131.9684 805.7391,-116.9394 849.8204,-105.7638"/>
<polygon fill="#191970" stroke="#191970" points="699.1582,-140.3491 690.325,-146.1993 700.8785,-147.1344 699.1582,-140.3491"/>
</g>
<!-- Node14 -->
<g id="node13" class="node">
<title>Node14</title>
<g id="a_node13"><a xlink:href="_python_tupple_8hpp.html" target="_top" xlink:title="/home/jacques/repos\l/math4171/src/arcpython\l/PythonTupple.hpp">
<polygon fill="none" stroke="#000000" points="424,-72.5 424,-107.5 548,-107.5 548,-72.5 424,-72.5"/>
<text text-anchor="start" x="432" y="-97.1" font-family="InputSans" font-size="8.00" fill="#000000">/home/jacques/repos</text>
<text text-anchor="start" x="432" y="-88.1" font-family="InputSans" font-size="8.00" fill="#000000">/math4171/src/arcpython</text>
<text text-anchor="middle" x="486" y="-79.1" font-family="InputSans" font-size="8.00" fill="#000000">/PythonTupple.hpp</text>
</a>
</g>
</g>
<!-- Node2&#45;&gt;Node14 -->
<g id="edge21" class="edge">
<title>Node2&#45;&gt;Node14</title>
<path fill="none" stroke="#191970" d="M584.1889,-139.7859C563.8374,-129.4668 539.9751,-117.3677 520.8706,-107.6809"/>
<polygon fill="#191970" stroke="#191970" points="582.761,-142.9861 593.2629,-144.3868 585.9267,-136.7428 582.761,-142.9861"/>
</g>
<!-- Node16 -->
<g id="node15" class="node">
<title>Node16</title>
<g id="a_node15"><a xlink:href="_python_object_8cpp.html" target="_top" xlink:title="/home/jacques/repos\l/math4171/src/arcpython\l/PythonObject.cpp">
<polygon fill="none" stroke="#000000" points="992,-72.5 992,-107.5 1116,-107.5 1116,-72.5 992,-72.5"/>
<text text-anchor="start" x="1000" y="-97.1" font-family="InputSans" font-size="8.00" fill="#000000">/home/jacques/repos</text>
<text text-anchor="start" x="1000" y="-88.1" font-family="InputSans" font-size="8.00" fill="#000000">/math4171/src/arcpython</text>
<text text-anchor="middle" x="1054" y="-79.1" font-family="InputSans" font-size="8.00" fill="#000000">/PythonObject.cpp</text>
</a>
</g>
</g>
<!-- Node2&#45;&gt;Node16 -->
<g id="edge27" class="edge">
<title>Node2&#45;&gt;Node16</title>
<path fill="none" stroke="#191970" d="M700.5235,-153.0711C772.5266,-143.7129 885.887,-127.6476 983,-108 985.8667,-107.42 988.7914,-106.799 991.7405,-106.1489"/>
<polygon fill="#191970" stroke="#191970" points="699.6767,-149.6512 690.2071,-154.4027 700.5729,-156.5936 699.6767,-149.6512"/>
</g>
<!-- Node4 -->
<g id="node3" class="node">
<title>Node4</title>
<g id="a_node3"><a xlink:href="_surf_plot3d_8cpp.html" target="_top" xlink:title="/home/jacques/repos\l/math4171/src/arcplot\l/SurfPlot3d.cpp">
<polygon fill="none" stroke="#000000" points="438,-.5 438,-35.5 548,-35.5 548,-.5 438,-.5"/>
<text text-anchor="start" x="446" y="-25.1" font-family="InputSans" font-size="8.00" fill="#000000">/home/jacques/repos</text>
<text text-anchor="start" x="446" y="-16.1" font-family="InputSans" font-size="8.00" fill="#000000">/math4171/src/arcplot</text>
<text text-anchor="middle" x="493" y="-7.1" font-family="InputSans" font-size="8.00" fill="#000000">/SurfPlot3d.cpp</text>
</a>
</g>
</g>
<!-- Node3&#45;&gt;Node4 -->
<g id="edge2" class="edge">
<title>Node3&#45;&gt;Node4</title>
<path fill="none" stroke="#191970" d="M698.1917,-71.8008C636.705,-56.2166 557.8978,-36.24 557,-36 554.1008,-35.2249 551.1304,-34.4217 548.1331,-33.6039"/>
<polygon fill="#191970" stroke="#191970" points="697.3432,-75.1963 707.8967,-74.2605 699.0631,-68.4109 697.3432,-75.1963"/>
</g>
<!-- Node5 -->
<g id="node4" class="node">
<title>Node5</title>
<g id="a_node4"><a xlink:href="arcpython_2_python_context_8cpp.html" target="_top" xlink:title="/home/jacques/repos\l/math4171/src/arcpython\l/PythonContext.cpp">
<polygon fill="none" stroke="#000000" points="566,-.5 566,-35.5 690,-35.5 690,-.5 566,-.5"/>
<text text-anchor="start" x="574" y="-25.1" font-family="InputSans" font-size="8.00" fill="#000000">/home/jacques/repos</text>
<text text-anchor="start" x="574" y="-16.1" font-family="InputSans" font-size="8.00" fill="#000000">/math4171/src/arcpython</text>
<text text-anchor="middle" x="628" y="-7.1" font-family="InputSans" font-size="8.00" fill="#000000">/PythonContext.cpp</text>
</a>
</g>
</g>
<!-- Node3&#45;&gt;Node5 -->
<g id="edge3" class="edge">
<title>Node3&#45;&gt;Node5</title>
<path fill="none" stroke="#191970" d="M726.1889,-67.7859C705.8374,-57.4668 681.9751,-45.3677 662.8706,-35.6809"/>
<polygon fill="#191970" stroke="#191970" points="724.761,-70.9861 735.2629,-72.3868 727.9267,-64.7428 724.761,-70.9861"/>
</g>
<!-- Node6 -->
<g id="node5" class="node">
<title>Node6</title>
<g id="a_node5"><a xlink:href="_python_float_8cpp.html" target="_top" xlink:title="/home/jacques/repos\l/math4171/src/arcpython\l/PythonFloat.cpp">
<polygon fill="none" stroke="#000000" points="850,-.5 850,-35.5 974,-35.5 974,-.5 850,-.5"/>
<text text-anchor="start" x="858" y="-25.1" font-family="InputSans" font-size="8.00" fill="#000000">/home/jacques/repos</text>
<text text-anchor="start" x="858" y="-16.1" font-family="InputSans" font-size="8.00" fill="#000000">/math4171/src/arcpython</text>
<text text-anchor="middle" x="912" y="-7.1" font-family="InputSans" font-size="8.00" fill="#000000">/PythonFloat.cpp</text>
</a>
</g>
</g>
<!-- Node3&#45;&gt;Node6 -->
<g id="edge4" class="edge">
<title>Node3&#45;&gt;Node6</title>
<path fill="none" stroke="#191970" d="M813.8111,-67.7859C834.1626,-57.4668 858.0249,-45.3677 877.1294,-35.6809"/>
<polygon fill="#191970" stroke="#191970" points="812.0733,-64.7428 804.7371,-72.3868 815.239,-70.9861 812.0733,-64.7428"/>
</g>
<!-- Node7 -->
<g id="node6" class="node">
<title>Node7</title>
<g id="a_node6"><a xlink:href="_python_function_8cpp.html" target="_top" xlink:title="/home/jacques/repos\l/math4171/src/arcpython\l/PythonFunction.cpp">
<polygon fill="none" stroke="#000000" points="708,-.5 708,-35.5 832,-35.5 832,-.5 708,-.5"/>
<text text-anchor="start" x="716" y="-25.1" font-family="InputSans" font-size="8.00" fill="#000000">/home/jacques/repos</text>
<text text-anchor="start" x="716" y="-16.1" font-family="InputSans" font-size="8.00" fill="#000000">/math4171/src/arcpython</text>
<text text-anchor="middle" x="770" y="-7.1" font-family="InputSans" font-size="8.00" fill="#000000">/PythonFunction.cpp</text>
</a>
</g>
</g>
<!-- Node3&#45;&gt;Node7 -->
<g id="edge5" class="edge">
<title>Node3&#45;&gt;Node7</title>
<path fill="none" stroke="#191970" d="M770,-62.1759C770,-53.2363 770,-43.5865 770,-35.593"/>
<polygon fill="#191970" stroke="#191970" points="766.5001,-62.2022 770,-72.2022 773.5001,-62.2023 766.5001,-62.2022"/>
</g>
<!-- Node3&#45;&gt;Node8 -->
<g id="edge6" class="edge">
<title>Node3&#45;&gt;Node8</title>
<path fill="none" stroke="#191970" d="M697.8539,-71.9003C578.3759,-49.5249 544.9423,-57.2294 429,-36 425.8941,-35.4313 422.7247,-34.8195 419.5284,-34.1769"/>
<polygon fill="#191970" stroke="#191970" points="697.2752,-75.3529 707.7534,-73.7855 698.5848,-68.4765 697.2752,-75.3529"/>
</g>
<!-- Node9&#45;&gt;Node4 -->
<g id="edge8" class="edge">
<title>Node9&#45;&gt;Node4</title>
<path fill="none" stroke="#191970" d="M586.087,-67.6464C566.796,-57.3579 544.2325,-45.324 526.1517,-35.6809"/>
<polygon fill="#191970" stroke="#191970" points="584.5047,-70.7691 594.9753,-72.3868 587.7988,-64.5926 584.5047,-70.7691"/>
</g>
<!-- Node9&#45;&gt;Node5 -->
<g id="edge9" class="edge">
<title>Node9&#45;&gt;Node5</title>
<path fill="none" stroke="#191970" d="M628,-62.1759C628,-53.2363 628,-43.5865 628,-35.593"/>
<polygon fill="#191970" stroke="#191970" points="624.5001,-62.2022 628,-72.2022 631.5001,-62.2023 624.5001,-62.2022"/>
</g>
<!-- Node9&#45;&gt;Node7 -->
<g id="edge10" class="edge">
<title>Node9&#45;&gt;Node7</title>
<path fill="none" stroke="#191970" d="M671.8111,-67.7859C692.1626,-57.4668 716.0249,-45.3677 735.1294,-35.6809"/>
<polygon fill="#191970" stroke="#191970" points="670.0733,-64.7428 662.7371,-72.3868 673.239,-70.9861 670.0733,-64.7428"/>
</g>
<!-- Node9&#45;&gt;Node8 -->
<g id="edge11" class="edge">
<title>Node9&#45;&gt;Node8</title>
<path fill="none" stroke="#191970" d="M555.7869,-71.1618C513.5963,-60.1555 460.6957,-46.3554 419.3669,-35.574"/>
<polygon fill="#191970" stroke="#191970" points="555.1564,-74.6144 565.7161,-73.752 556.9234,-67.8411 555.1564,-74.6144"/>
</g>
<!-- Node10&#45;&gt;Node4 -->
<g id="edge13" class="edge">
<title>Node10&#45;&gt;Node4</title>
<path fill="none" stroke="#191970" d="M389.7179,-67.9081C411.2194,-57.5181 436.5007,-45.3017 456.6689,-35.556"/>
<polygon fill="#191970" stroke="#191970" points="387.9306,-64.8845 380.4495,-72.3868 390.9762,-71.1873 387.9306,-64.8845"/>
</g>
<!-- Node10&#45;&gt;Node5 -->
<g id="edge14" class="edge">
<title>Node10&#45;&gt;Node5</title>
<path fill="none" stroke="#191970" d="M416.2696,-71.6781C462.458,-59.9684 521.7391,-44.9394 565.8204,-33.7638"/>
<polygon fill="#191970" stroke="#191970" points="415.1582,-68.3491 406.325,-74.1993 416.8785,-75.1344 415.1582,-68.3491"/>
</g>
<!-- Node10&#45;&gt;Node8 -->
<g id="edge16" class="edge">
<title>Node10&#45;&gt;Node8</title>
<path fill="none" stroke="#191970" d="M347.0916,-62.1759C348.0849,-53.2363 349.1571,-43.5865 350.0452,-35.593"/>
<polygon fill="#191970" stroke="#191970" points="343.6033,-61.8769 345.9775,-72.2022 350.5605,-62.6499 343.6033,-61.8769"/>
</g>
<!-- Node11 -->
<g id="node10" class="node">
<title>Node11</title>
<g id="a_node10"><a xlink:href="_python_list_8cpp.html" target="_top" xlink:title="/home/jacques/repos\l/math4171/src/arcpython\l/PythonList.cpp">
<polygon fill="none" stroke="#000000" points="0,-.5 0,-35.5 124,-35.5 124,-.5 0,-.5"/>
<text text-anchor="start" x="8" y="-25.1" font-family="InputSans" font-size="8.00" fill="#000000">/home/jacques/repos</text>
<text text-anchor="start" x="8" y="-16.1" font-family="InputSans" font-size="8.00" fill="#000000">/math4171/src/arcpython</text>
<text text-anchor="middle" x="62" y="-7.1" font-family="InputSans" font-size="8.00" fill="#000000">/PythonList.cpp</text>
</a>
</g>
</g>
<!-- Node10&#45;&gt;Node11 -->
<g id="edge15" class="edge">
<title>Node10&#45;&gt;Node11</title>
<path fill="none" stroke="#191970" d="M271.9228,-71.5973C226.2226,-59.9292 167.7114,-44.9901 124.0763,-33.8493"/>
<polygon fill="#191970" stroke="#191970" points="271.2098,-75.0275 281.7648,-74.1102 272.9415,-68.245 271.2098,-75.0275"/>
</g>
<!-- Node12&#45;&gt;Node5 -->
<g id="edge18" class="edge">
<title>Node12&#45;&gt;Node5</title>
<path fill="none" stroke="#191970" d="M839.7304,-71.6781C793.542,-59.9684 734.2609,-44.9394 690.1796,-33.7638"/>
<polygon fill="#191970" stroke="#191970" points="839.1215,-75.1344 849.675,-74.1993 840.8418,-68.3491 839.1215,-75.1344"/>
</g>
<!-- Node12&#45;&gt;Node7 -->
<g id="edge19" class="edge">
<title>Node12&#45;&gt;Node7</title>
<path fill="none" stroke="#191970" d="M868.1889,-67.7859C847.8374,-57.4668 823.9751,-45.3677 804.8706,-35.6809"/>
<polygon fill="#191970" stroke="#191970" points="866.761,-70.9861 877.2629,-72.3868 869.9267,-64.7428 866.761,-70.9861"/>
</g>
<!-- Node13 -->
<g id="node12" class="node">
<title>Node13</title>
<g id="a_node12"><a xlink:href="_python_module_8cpp.html" target="_top" xlink:title="/home/jacques/repos\l/math4171/src/arcpython\l/PythonModule.cpp">
<polygon fill="none" stroke="#000000" points="992,-.5 992,-35.5 1116,-35.5 1116,-.5 992,-.5"/>
<text text-anchor="start" x="1000" y="-25.1" font-family="InputSans" font-size="8.00" fill="#000000">/home/jacques/repos</text>
<text text-anchor="start" x="1000" y="-16.1" font-family="InputSans" font-size="8.00" fill="#000000">/math4171/src/arcpython</text>
<text text-anchor="middle" x="1054" y="-7.1" font-family="InputSans" font-size="8.00" fill="#000000">/PythonModule.cpp</text>
</a>
</g>
</g>
<!-- Node12&#45;&gt;Node13 -->
<g id="edge20" class="edge">
<title>Node12&#45;&gt;Node13</title>
<path fill="none" stroke="#191970" d="M955.8111,-67.7859C976.1626,-57.4668 1000.0249,-45.3677 1019.1294,-35.6809"/>
<polygon fill="#191970" stroke="#191970" points="954.0733,-64.7428 946.7371,-72.3868 957.239,-70.9861 954.0733,-64.7428"/>
</g>
<!-- Node14&#45;&gt;Node4 -->
<g id="edge22" class="edge">
<title>Node14&#45;&gt;Node4</title>
<path fill="none" stroke="#191970" d="M488.7051,-62.1759C489.5743,-53.2363 490.5124,-43.5865 491.2896,-35.593"/>
<polygon fill="#191970" stroke="#191970" points="485.2145,-61.9105 487.7303,-72.2022 492.1817,-62.5879 485.2145,-61.9105"/>
</g>
<!-- Node14&#45;&gt;Node5 -->
<g id="edge23" class="edge">
<title>Node14&#45;&gt;Node5</title>
<path fill="none" stroke="#191970" d="M529.8111,-67.7859C550.1626,-57.4668 574.0249,-45.3677 593.1294,-35.6809"/>
<polygon fill="#191970" stroke="#191970" points="528.0733,-64.7428 520.7371,-72.3868 531.239,-70.9861 528.0733,-64.7428"/>
</g>
<!-- Node14&#45;&gt;Node7 -->
<g id="edge24" class="edge">
<title>Node14&#45;&gt;Node7</title>
<path fill="none" stroke="#191970" d="M558.2696,-71.6781C604.458,-59.9684 663.7391,-44.9394 707.8204,-33.7638"/>
<polygon fill="#191970" stroke="#191970" points="557.1582,-68.3491 548.325,-74.1993 558.8785,-75.1344 557.1582,-68.3491"/>
</g>
<!-- Node14&#45;&gt;Node8 -->
<g id="edge26" class="edge">
<title>Node14&#45;&gt;Node8</title>
<path fill="none" stroke="#191970" d="M444.3974,-67.6464C425.2494,-57.3579 402.853,-45.324 384.9061,-35.6809"/>
<polygon fill="#191970" stroke="#191970" points="442.7543,-70.7367 453.2199,-72.3868 446.0676,-64.5705 442.7543,-70.7367"/>
</g>
<!-- Node15 -->
<g id="node14" class="node">
<title>Node15</title>
<g id="a_node14"><a xlink:href="_python_tupple_8cpp.html" target="_top" xlink:title="/home/jacques/repos\l/math4171/src/arcpython\l/PythonTupple.cpp">
<polygon fill="none" stroke="#000000" points="142,-.5 142,-35.5 266,-35.5 266,-.5 142,-.5"/>
<text text-anchor="start" x="150" y="-25.1" font-family="InputSans" font-size="8.00" fill="#000000">/home/jacques/repos</text>
<text text-anchor="start" x="150" y="-16.1" font-family="InputSans" font-size="8.00" fill="#000000">/math4171/src/arcpython</text>
<text text-anchor="middle" x="204" y="-7.1" font-family="InputSans" font-size="8.00" fill="#000000">/PythonTupple.cpp</text>
</a>
</g>
</g>
<!-- Node14&#45;&gt;Node15 -->
<g id="edge25" class="edge">
<title>Node14&#45;&gt;Node15</title>
<path fill="none" stroke="#191970" d="M413.9228,-71.5973C368.2226,-59.9292 309.7114,-44.9901 266.0763,-33.8493"/>
<polygon fill="#191970" stroke="#191970" points="413.2098,-75.0275 423.7648,-74.1102 414.9415,-68.245 413.2098,-75.0275"/>
</g>
</g>
</svg>
