<?xml version="1.0" encoding="UTF-8" standalone="no"?>
<!DOCTYPE svg PUBLIC "-//W3C//DTD SVG 1.1//EN"
 "http://www.w3.org/Graphics/SVG/1.1/DTD/svg11.dtd">
<!-- Generated by graphviz version 2.40.1 (20161225.0304)
 -->
<!-- Title: /home/jacques/repos/math4171/src/arcpython/PythonFunction.hpp Pages: 1 -->
<svg width="1222pt" height="116pt"
 viewBox="0.00 0.00 1221.50 116.00" xmlns="http://www.w3.org/2000/svg" xmlns:xlink="http://www.w3.org/1999/xlink">
<g id="graph0" class="graph" transform="scale(1 1) rotate(0) translate(4 112)">
<title>/home/jacques/repos/math4171/src/arcpython/PythonFunction.hpp</title>
<!-- Node6 -->
<g id="node1" class="node">
<title>Node6</title>
<polygon fill="#bfbfbf" stroke="#000000" points="508.5,-72.5 508.5,-107.5 648.5,-107.5 648.5,-72.5 508.5,-72.5"/>
<text text-anchor="start" x="516.5" y="-97.1" font-family="InputSans" font-size="8.00" fill="#000000">/home/jacques/repos</text>
<text text-anchor="start" x="516.5" y="-88.1" font-family="InputSans" font-size="8.00" fill="#000000">/math4171/src/arcpython</text>
<text text-anchor="middle" x="578.5" y="-79.1" font-family="InputSans" font-size="8.00" fill="#000000">/PythonFunction.hpp</text>
</g>
<!-- Node7 -->
<g id="node2" class="node">
<title>Node7</title>
<g id="a_node2"><a xlink:href="_contour_plot_8cpp.html" target="_top" xlink:title="/home/jacques/repos\l/math4171/src/arcplot\l/ContourPlot.cpp">
<polygon fill="none" stroke="#000000" points="0,-.5 0,-35.5 129,-35.5 129,-.5 0,-.5"/>
<text text-anchor="start" x="8" y="-25.1" font-family="InputSans" font-size="8.00" fill="#000000">/home/jacques/repos</text>
<text text-anchor="start" x="8" y="-16.1" font-family="InputSans" font-size="8.00" fill="#000000">/math4171/src/arcplot</text>
<text text-anchor="middle" x="64.5" y="-7.1" font-family="InputSans" font-size="8.00" fill="#000000">/ContourPlot.cpp</text>
</a>
</g>
</g>
<!-- Node6&#45;&gt;Node7 -->
<g id="edge1" class="edge">
<title>Node6&#45;&gt;Node7</title>
<path fill="none" stroke="#191970" d="M498.2255,-83.0878C409.5045,-74.7716 262.5946,-58.9958 137.5,-36 134.804,-35.5044 132.0591,-34.969 129.2914,-34.4036"/>
<polygon fill="#191970" stroke="#191970" points="497.9385,-86.5761 508.2194,-84.016 498.586,-79.6061 497.9385,-86.5761"/>
</g>
<!-- Node8 -->
<g id="node3" class="node">
<title>Node8</title>
<g id="a_node3"><a xlink:href="_figure_8cpp.html" target="_top" xlink:title="/home/jacques/repos\l/math4171/src/arcplot\l/Figure.cpp">
<polygon fill="none" stroke="#000000" points="147,-.5 147,-35.5 276,-35.5 276,-.5 147,-.5"/>
<text text-anchor="start" x="155" y="-25.1" font-family="InputSans" font-size="8.00" fill="#000000">/home/jacques/repos</text>
<text text-anchor="start" x="155" y="-16.1" font-family="InputSans" font-size="8.00" fill="#000000">/math4171/src/arcplot</text>
<text text-anchor="middle" x="211.5" y="-7.1" font-family="InputSans" font-size="8.00" fill="#000000">/Figure.cpp</text>
</a>
</g>
</g>
<!-- Node6&#45;&gt;Node8 -->
<g id="edge2" class="edge">
<title>Node6&#45;&gt;Node8</title>
<path fill="none" stroke="#191970" d="M498.4237,-76.631C439.1624,-66.4123 356.5633,-51.4879 284.5,-36 281.82,-35.424 279.0885,-34.8214 276.3319,-34.2004"/>
<polygon fill="#191970" stroke="#191970" points="498.0196,-80.1127 508.4678,-78.3564 499.2048,-73.2138 498.0196,-80.1127"/>
</g>
<!-- Node9 -->
<g id="node4" class="node">
<title>Node9</title>
<g id="a_node4"><a xlink:href="_list_plot_8cpp.html" target="_top" xlink:title="/home/jacques/repos\l/math4171/src/arcplot\l/ListPlot.cpp">
<polygon fill="none" stroke="#000000" points="294,-.5 294,-35.5 423,-35.5 423,-.5 294,-.5"/>
<text text-anchor="start" x="302" y="-25.1" font-family="InputSans" font-size="8.00" fill="#000000">/home/jacques/repos</text>
<text text-anchor="start" x="302" y="-16.1" font-family="InputSans" font-size="8.00" fill="#000000">/math4171/src/arcplot</text>
<text text-anchor="middle" x="358.5" y="-7.1" font-family="InputSans" font-size="8.00" fill="#000000">/ListPlot.cpp</text>
</a>
</g>
</g>
<!-- Node6&#45;&gt;Node9 -->
<g id="edge3" class="edge">
<title>Node6&#45;&gt;Node9</title>
<path fill="none" stroke="#191970" d="M515.0935,-69.2488C482.5472,-58.5973 443.3253,-45.761 412.2768,-35.5997"/>
<polygon fill="#191970" stroke="#191970" points="514.3706,-72.6948 524.9633,-72.4789 516.5479,-66.042 514.3706,-72.6948"/>
</g>
<!-- Node10 -->
<g id="node5" class="node">
<title>Node10</title>
<g id="a_node5"><a xlink:href="_surf_plot3d_8cpp.html" target="_top" xlink:title="/home/jacques/repos\l/math4171/src/arcplot\l/old/SurfPlot3d.cpp">
<polygon fill="none" stroke="#000000" points="441,-.5 441,-35.5 570,-35.5 570,-.5 441,-.5"/>
<text text-anchor="start" x="449" y="-25.1" font-family="InputSans" font-size="8.00" fill="#000000">/home/jacques/repos</text>
<text text-anchor="start" x="449" y="-16.1" font-family="InputSans" font-size="8.00" fill="#000000">/math4171/src/arcplot</text>
<text text-anchor="middle" x="505.5" y="-7.1" font-family="InputSans" font-size="8.00" fill="#000000">/old/SurfPlot3d.cpp</text>
</a>
</g>
</g>
<!-- Node6&#45;&gt;Node10 -->
<g id="edge4" class="edge">
<title>Node6&#45;&gt;Node10</title>
<path fill="none" stroke="#191970" d="M553.2164,-65.0628C543.3724,-55.3536 532.3228,-44.4553 523.3374,-35.593"/>
<polygon fill="#191970" stroke="#191970" points="550.8776,-67.672 560.4551,-72.2022 555.7931,-62.6882 550.8776,-67.672"/>
</g>
<!-- Node11 -->
<g id="node6" class="node">
<title>Node11</title>
<g id="a_node6"><a xlink:href="_surface_plot_8cpp.html" target="_top" xlink:title="/home/jacques/repos\l/math4171/src/arcplot\l/SurfacePlot.cpp">
<polygon fill="none" stroke="#000000" points="588,-.5 588,-35.5 717,-35.5 717,-.5 588,-.5"/>
<text text-anchor="start" x="596" y="-25.1" font-family="InputSans" font-size="8.00" fill="#000000">/home/jacques/repos</text>
<text text-anchor="start" x="596" y="-16.1" font-family="InputSans" font-size="8.00" fill="#000000">/math4171/src/arcplot</text>
<text text-anchor="middle" x="652.5" y="-7.1" font-family="InputSans" font-size="8.00" fill="#000000">/SurfacePlot.cpp</text>
</a>
</g>
</g>
<!-- Node6&#45;&gt;Node11 -->
<g id="edge5" class="edge">
<title>Node6&#45;&gt;Node11</title>
<path fill="none" stroke="#191970" d="M604.1299,-65.0628C614.1088,-55.3536 625.3098,-44.4553 634.4183,-35.593"/>
<polygon fill="#191970" stroke="#191970" points="601.5187,-62.7201 596.7921,-72.2022 606.4002,-67.7372 601.5187,-62.7201"/>
</g>
<!-- Node12 -->
<g id="node7" class="node">
<title>Node12</title>
<g id="a_node7"><a xlink:href="_python_function_8cpp.html" target="_top" xlink:title="/home/jacques/repos\l/math4171/src/arcpython\l/PythonFunction.cpp">
<polygon fill="none" stroke="#000000" points="735.5,-.5 735.5,-35.5 875.5,-35.5 875.5,-.5 735.5,-.5"/>
<text text-anchor="start" x="743.5" y="-25.1" font-family="InputSans" font-size="8.00" fill="#000000">/home/jacques/repos</text>
<text text-anchor="start" x="743.5" y="-16.1" font-family="InputSans" font-size="8.00" fill="#000000">/math4171/src/arcpython</text>
<text text-anchor="middle" x="805.5" y="-7.1" font-family="InputSans" font-size="8.00" fill="#000000">/PythonFunction.cpp</text>
</a>
</g>
</g>
<!-- Node6&#45;&gt;Node12 -->
<g id="edge6" class="edge">
<title>Node6&#45;&gt;Node12</title>
<path fill="none" stroke="#191970" d="M643.4902,-69.3864C677.1568,-58.708 717.8376,-45.8048 750.0121,-35.5997"/>
<polygon fill="#191970" stroke="#191970" points="642.214,-66.1192 633.7402,-72.4789 644.3304,-72.7917 642.214,-66.1192"/>
</g>
<!-- Node13 -->
<g id="node8" class="node">
<title>Node13</title>
<g id="a_node8"><a xlink:href="assignment1-src_2_main_8cpp.html" target="_top" xlink:title="/home/jacques/repos\l/math4171/src/assignment1\l&#45;src/Main.cpp">
<polygon fill="none" stroke="#000000" points="894,-.5 894,-35.5 1049,-35.5 1049,-.5 894,-.5"/>
<text text-anchor="start" x="902" y="-25.1" font-family="InputSans" font-size="8.00" fill="#000000">/home/jacques/repos</text>
<text text-anchor="start" x="902" y="-16.1" font-family="InputSans" font-size="8.00" fill="#000000">/math4171/src/assignment1</text>
<text text-anchor="middle" x="971.5" y="-7.1" font-family="InputSans" font-size="8.00" fill="#000000">&#45;src/Main.cpp</text>
</a>
</g>
</g>
<!-- Node6&#45;&gt;Node13 -->
<g id="edge7" class="edge">
<title>Node6&#45;&gt;Node13</title>
<path fill="none" stroke="#191970" d="M658.8682,-76.4804C720.6545,-65.9262 808.0891,-50.6434 884.5,-36 887.5297,-35.4194 890.617,-34.8196 893.7344,-34.2073"/>
<polygon fill="#191970" stroke="#191970" points="658.0634,-73.067 648.794,-78.1981 659.2401,-79.9674 658.0634,-73.067"/>
</g>
<!-- Node14 -->
<g id="node9" class="node">
<title>Node14</title>
<g id="a_node9"><a xlink:href="playground_2_main_8cpp.html" target="_top" xlink:title="/home/jacques/repos\l/math4171/src/playground\l/Main.cpp">
<polygon fill="none" stroke="#000000" points="1067.5,-.5 1067.5,-35.5 1213.5,-35.5 1213.5,-.5 1067.5,-.5"/>
<text text-anchor="start" x="1075.5" y="-25.1" font-family="InputSans" font-size="8.00" fill="#000000">/home/jacques/repos</text>
<text text-anchor="start" x="1075.5" y="-16.1" font-family="InputSans" font-size="8.00" fill="#000000">/math4171/src/playground</text>
<text text-anchor="middle" x="1140.5" y="-7.1" font-family="InputSans" font-size="8.00" fill="#000000">/Main.cpp</text>
</a>
</g>
</g>
<!-- Node6&#45;&gt;Node14 -->
<g id="edge8" class="edge">
<title>Node6&#45;&gt;Node14</title>
<path fill="none" stroke="#191970" d="M658.9453,-83.5263C754.5763,-75.2367 918.8072,-59.1254 1058.5,-36 1061.3759,-35.5239 1064.3029,-35.0124 1067.2555,-34.4738"/>
<polygon fill="#191970" stroke="#191970" points="658.4328,-80.0574 648.7694,-84.4013 659.0325,-87.0317 658.4328,-80.0574"/>
</g>
</g>
</svg>
