<?xml version="1.0" encoding="UTF-8" standalone="no"?>
<!DOCTYPE svg PUBLIC "-//W3C//DTD SVG 1.1//EN"
 "http://www.w3.org/Graphics/SVG/1.1/DTD/svg11.dtd">
<!-- Generated by graphviz version 2.40.1 (20161225.0304)
 -->
<!-- Title: /home/jacques/repos/math4171/src/arcpython/PythonCommon.hpp Pages: 1 -->
<svg width="786pt" height="116pt"
 viewBox="0.00 0.00 786.00 116.00" xmlns="http://www.w3.org/2000/svg" xmlns:xlink="http://www.w3.org/1999/xlink">
<g id="graph0" class="graph" transform="scale(1 1) rotate(0) translate(4 112)">
<title>/home/jacques/repos/math4171/src/arcpython/PythonCommon.hpp</title>
<!-- Node5 -->
<g id="node1" class="node">
<title>Node5</title>
<polygon fill="#bfbfbf" stroke="#000000" points="316,-72.5 316,-107.5 456,-107.5 456,-72.5 316,-72.5"/>
<text text-anchor="start" x="324" y="-97.1" font-family="InputSans" font-size="8.00" fill="#000000">/home/jacques/repos</text>
<text text-anchor="start" x="324" y="-88.1" font-family="InputSans" font-size="8.00" fill="#000000">/math4171/src/arcpython</text>
<text text-anchor="middle" x="386" y="-79.1" font-family="InputSans" font-size="8.00" fill="#000000">/PythonCommon.hpp</text>
</g>
<!-- Node6 -->
<g id="node2" class="node">
<title>Node6</title>
<g id="a_node2"><a xlink:href="_python_common_8cpp.html" target="_top" xlink:title="/home/jacques/repos\l/math4171/src/arcpython\l/PythonCommon.cpp">
<polygon fill="none" stroke="#000000" points="0,-.5 0,-35.5 140,-35.5 140,-.5 0,-.5"/>
<text text-anchor="start" x="8" y="-25.1" font-family="InputSans" font-size="8.00" fill="#000000">/home/jacques/repos</text>
<text text-anchor="start" x="8" y="-16.1" font-family="InputSans" font-size="8.00" fill="#000000">/math4171/src/arcpython</text>
<text text-anchor="middle" x="70" y="-7.1" font-family="InputSans" font-size="8.00" fill="#000000">/PythonCommon.cpp</text>
</a>
</g>
</g>
<!-- Node5&#45;&gt;Node6 -->
<g id="edge1" class="edge">
<title>Node5&#45;&gt;Node6</title>
<path fill="none" stroke="#191970" d="M305.8563,-71.7394C254.7806,-60.1019 189.2329,-45.167 140.2073,-33.9966"/>
<polygon fill="#191970" stroke="#191970" points="305.3417,-75.2118 315.8694,-74.0209 306.8968,-68.3867 305.3417,-75.2118"/>
</g>
<!-- Node7 -->
<g id="node3" class="node">
<title>Node7</title>
<g id="a_node3"><a xlink:href="_python_function_8cpp.html" target="_top" xlink:title="/home/jacques/repos\l/math4171/src/arcpython\l/PythonFunction.cpp">
<polygon fill="none" stroke="#000000" points="158,-.5 158,-35.5 298,-35.5 298,-.5 158,-.5"/>
<text text-anchor="start" x="166" y="-25.1" font-family="InputSans" font-size="8.00" fill="#000000">/home/jacques/repos</text>
<text text-anchor="start" x="166" y="-16.1" font-family="InputSans" font-size="8.00" fill="#000000">/math4171/src/arcpython</text>
<text text-anchor="middle" x="228" y="-7.1" font-family="InputSans" font-size="8.00" fill="#000000">/PythonFunction.cpp</text>
</a>
</g>
</g>
<!-- Node5&#45;&gt;Node7 -->
<g id="edge2" class="edge">
<title>Node5&#45;&gt;Node7</title>
<path fill="none" stroke="#191970" d="M338.1331,-68.1872C315.2016,-57.7374 288.1038,-45.3891 266.5256,-35.556"/>
<polygon fill="#191970" stroke="#191970" points="336.7978,-71.425 347.3489,-72.3868 339.7005,-65.0552 336.7978,-71.425"/>
</g>
<!-- Node8 -->
<g id="node4" class="node">
<title>Node8</title>
<g id="a_node4"><a xlink:href="_python_list_8cpp.html" target="_top" xlink:title="/home/jacques/repos\l/math4171/src/arcpython\l/PythonList.cpp">
<polygon fill="none" stroke="#000000" points="316,-.5 316,-35.5 456,-35.5 456,-.5 316,-.5"/>
<text text-anchor="start" x="324" y="-25.1" font-family="InputSans" font-size="8.00" fill="#000000">/home/jacques/repos</text>
<text text-anchor="start" x="324" y="-16.1" font-family="InputSans" font-size="8.00" fill="#000000">/math4171/src/arcpython</text>
<text text-anchor="middle" x="386" y="-7.1" font-family="InputSans" font-size="8.00" fill="#000000">/PythonList.cpp</text>
</a>
</g>
</g>
<!-- Node5&#45;&gt;Node8 -->
<g id="edge3" class="edge">
<title>Node5&#45;&gt;Node8</title>
<path fill="none" stroke="#191970" d="M386,-62.1759C386,-53.2363 386,-43.5865 386,-35.593"/>
<polygon fill="#191970" stroke="#191970" points="382.5001,-62.2022 386,-72.2022 389.5001,-62.2023 382.5001,-62.2022"/>
</g>
<!-- Node9 -->
<g id="node5" class="node">
<title>Node9</title>
<g id="a_node5"><a xlink:href="_python_tuple_8cpp.html" target="_top" xlink:title="/home/jacques/repos\l/math4171/src/arcpython\l/PythonTuple.cpp">
<polygon fill="none" stroke="#000000" points="474,-.5 474,-35.5 614,-35.5 614,-.5 474,-.5"/>
<text text-anchor="start" x="482" y="-25.1" font-family="InputSans" font-size="8.00" fill="#000000">/home/jacques/repos</text>
<text text-anchor="start" x="482" y="-16.1" font-family="InputSans" font-size="8.00" fill="#000000">/math4171/src/arcpython</text>
<text text-anchor="middle" x="544" y="-7.1" font-family="InputSans" font-size="8.00" fill="#000000">/PythonTuple.cpp</text>
</a>
</g>
</g>
<!-- Node5&#45;&gt;Node9 -->
<g id="edge4" class="edge">
<title>Node5&#45;&gt;Node9</title>
<path fill="none" stroke="#191970" d="M433.8669,-68.1872C456.7984,-57.7374 483.8962,-45.3891 505.4744,-35.556"/>
<polygon fill="#191970" stroke="#191970" points="432.2995,-65.0552 424.6511,-72.3868 435.2022,-71.425 432.2995,-65.0552"/>
</g>
<!-- Node10 -->
<g id="node6" class="node">
<title>Node10</title>
<g id="a_node6"><a xlink:href="playground_2_main_8cpp.html" target="_top" xlink:title="/home/jacques/repos\l/math4171/src/playground\l/Main.cpp">
<polygon fill="none" stroke="#000000" points="632,-.5 632,-35.5 778,-35.5 778,-.5 632,-.5"/>
<text text-anchor="start" x="640" y="-25.1" font-family="InputSans" font-size="8.00" fill="#000000">/home/jacques/repos</text>
<text text-anchor="start" x="640" y="-16.1" font-family="InputSans" font-size="8.00" fill="#000000">/math4171/src/playground</text>
<text text-anchor="middle" x="705" y="-7.1" font-family="InputSans" font-size="8.00" fill="#000000">/Main.cpp</text>
</a>
</g>
</g>
<!-- Node5&#45;&gt;Node10 -->
<g id="edge5" class="edge">
<title>Node5&#45;&gt;Node10</title>
<path fill="none" stroke="#191970" d="M465.9838,-71.9472C516.8861,-60.4583 582.3075,-45.6924 631.8337,-34.514"/>
<polygon fill="#191970" stroke="#191970" points="464.9899,-68.5834 456.0059,-74.1993 466.5311,-75.4117 464.9899,-68.5834"/>
</g>
</g>
</svg>
