<?xml version="1.0" encoding="UTF-8" standalone="no"?>
<!DOCTYPE svg PUBLIC "-//W3C//DTD SVG 1.1//EN"
 "http://www.w3.org/Graphics/SVG/1.1/DTD/svg11.dtd">
<!-- Generated by graphviz version 2.40.1 (20161225.0304)
 -->
<!-- Title: /home/jacques/repos/math4171/src/arcpython/PythonModule.hpp Pages: 1 -->
<svg width="416pt" height="116pt"
 viewBox="0.00 0.00 416.00 116.00" xmlns="http://www.w3.org/2000/svg" xmlns:xlink="http://www.w3.org/1999/xlink">
<g id="graph0" class="graph" transform="scale(1 1) rotate(0) translate(4 112)">
<title>/home/jacques/repos/math4171/src/arcpython/PythonModule.hpp</title>
<!-- Node6 -->
<g id="node1" class="node">
<title>Node6</title>
<polygon fill="#bfbfbf" stroke="#000000" points="142,-72.5 142,-107.5 266,-107.5 266,-72.5 142,-72.5"/>
<text text-anchor="start" x="150" y="-97.1" font-family="InputSans" font-size="8.00" fill="#000000">/home/jacques/repos</text>
<text text-anchor="start" x="150" y="-88.1" font-family="InputSans" font-size="8.00" fill="#000000">/math4171/src/arcpython</text>
<text text-anchor="middle" x="204" y="-79.1" font-family="InputSans" font-size="8.00" fill="#000000">/PythonModule.hpp</text>
</g>
<!-- Node7 -->
<g id="node2" class="node">
<title>Node7</title>
<g id="a_node2"><a xlink:href="arcpython_2_python_context_8cpp.html" target="_top" xlink:title="/home/jacques/repos\l/math4171/src/arcpython\l/PythonContext.cpp">
<polygon fill="none" stroke="#000000" points="0,-.5 0,-35.5 124,-35.5 124,-.5 0,-.5"/>
<text text-anchor="start" x="8" y="-25.1" font-family="InputSans" font-size="8.00" fill="#000000">/home/jacques/repos</text>
<text text-anchor="start" x="8" y="-16.1" font-family="InputSans" font-size="8.00" fill="#000000">/math4171/src/arcpython</text>
<text text-anchor="middle" x="62" y="-7.1" font-family="InputSans" font-size="8.00" fill="#000000">/PythonContext.cpp</text>
</a>
</g>
</g>
<!-- Node6&#45;&gt;Node7 -->
<g id="edge1" class="edge">
<title>Node6&#45;&gt;Node7</title>
<path fill="none" stroke="#191970" d="M160.1889,-67.7859C139.8374,-57.4668 115.9751,-45.3677 96.8706,-35.6809"/>
<polygon fill="#191970" stroke="#191970" points="158.761,-70.9861 169.2629,-72.3868 161.9267,-64.7428 158.761,-70.9861"/>
</g>
<!-- Node8 -->
<g id="node3" class="node">
<title>Node8</title>
<g id="a_node3"><a xlink:href="_python_function_8cpp.html" target="_top" xlink:title="/home/jacques/repos\l/math4171/src/arcpython\l/PythonFunction.cpp">
<polygon fill="none" stroke="#000000" points="142,-.5 142,-35.5 266,-35.5 266,-.5 142,-.5"/>
<text text-anchor="start" x="150" y="-25.1" font-family="InputSans" font-size="8.00" fill="#000000">/home/jacques/repos</text>
<text text-anchor="start" x="150" y="-16.1" font-family="InputSans" font-size="8.00" fill="#000000">/math4171/src/arcpython</text>
<text text-anchor="middle" x="204" y="-7.1" font-family="InputSans" font-size="8.00" fill="#000000">/PythonFunction.cpp</text>
</a>
</g>
</g>
<!-- Node6&#45;&gt;Node8 -->
<g id="edge2" class="edge">
<title>Node6&#45;&gt;Node8</title>
<path fill="none" stroke="#191970" d="M204,-62.1759C204,-53.2363 204,-43.5865 204,-35.593"/>
<polygon fill="#191970" stroke="#191970" points="200.5001,-62.2022 204,-72.2022 207.5001,-62.2023 200.5001,-62.2022"/>
</g>
<!-- Node9 -->
<g id="node4" class="node">
<title>Node9</title>
<g id="a_node4"><a xlink:href="_python_module_8cpp.html" target="_top" xlink:title="/home/jacques/repos\l/math4171/src/arcpython\l/PythonModule.cpp">
<polygon fill="none" stroke="#000000" points="284,-.5 284,-35.5 408,-35.5 408,-.5 284,-.5"/>
<text text-anchor="start" x="292" y="-25.1" font-family="InputSans" font-size="8.00" fill="#000000">/home/jacques/repos</text>
<text text-anchor="start" x="292" y="-16.1" font-family="InputSans" font-size="8.00" fill="#000000">/math4171/src/arcpython</text>
<text text-anchor="middle" x="346" y="-7.1" font-family="InputSans" font-size="8.00" fill="#000000">/PythonModule.cpp</text>
</a>
</g>
</g>
<!-- Node6&#45;&gt;Node9 -->
<g id="edge3" class="edge">
<title>Node6&#45;&gt;Node9</title>
<path fill="none" stroke="#191970" d="M247.8111,-67.7859C268.1626,-57.4668 292.0249,-45.3677 311.1294,-35.6809"/>
<polygon fill="#191970" stroke="#191970" points="246.0733,-64.7428 238.7371,-72.3868 249.239,-70.9861 246.0733,-64.7428"/>
</g>
</g>
</svg>
