<?xml version="1.0" encoding="UTF-8" standalone="no"?>
<!DOCTYPE svg PUBLIC "-//W3C//DTD SVG 1.1//EN"
 "http://www.w3.org/Graphics/SVG/1.1/DTD/svg11.dtd">
<!-- Generated by graphviz version 2.40.1 (20161225.0304)
 -->
<!-- Title: /home/jacques/repos/math4171/src/arcpython/PythonModule.hpp Pages: 1 -->
<svg width="341pt" height="152pt"
 viewBox="0.00 0.00 341.00 152.00" xmlns="http://www.w3.org/2000/svg" xmlns:xlink="http://www.w3.org/1999/xlink">
<g id="graph0" class="graph" transform="scale(1 1) rotate(0) translate(4 148)">
<title>/home/jacques/repos/math4171/src/arcpython/PythonModule.hpp</title>
<!-- Node0 -->
<g id="node1" class="node">
<title>Node0</title>
<polygon fill="#bfbfbf" stroke="#000000" points="102,-108.5 102,-143.5 226,-143.5 226,-108.5 102,-108.5"/>
<text text-anchor="start" x="110" y="-133.1" font-family="InputSans" font-size="8.00" fill="#000000">/home/jacques/repos</text>
<text text-anchor="start" x="110" y="-124.1" font-family="InputSans" font-size="8.00" fill="#000000">/math4171/src/arcpython</text>
<text text-anchor="middle" x="164" y="-115.1" font-family="InputSans" font-size="8.00" fill="#000000">/PythonModule.hpp</text>
</g>
<!-- Node1 -->
<g id="node2" class="node">
<title>Node1</title>
<polygon fill="none" stroke="#bfbfbf" points="0,-54.5 0,-71.5 54,-71.5 54,-54.5 0,-54.5"/>
<text text-anchor="middle" x="27" y="-61.1" font-family="InputSans" font-size="8.00" fill="#000000">iostream</text>
</g>
<!-- Node0&#45;&gt;Node1 -->
<g id="edge1" class="edge">
<title>Node0&#45;&gt;Node1</title>
<path fill="none" stroke="#191970" d="M125.8379,-108.451C103.2825,-98.0788 75.2277,-85.1777 54.7763,-75.773"/>
<polygon fill="#191970" stroke="#191970" points="56.2315,-72.5899 45.6838,-71.5918 53.3069,-78.9497 56.2315,-72.5899"/>
</g>
<!-- Node2 -->
<g id="node3" class="node">
<title>Node2</title>
<polygon fill="none" stroke="#bfbfbf" points="72.5,-54.5 72.5,-71.5 125.5,-71.5 125.5,-54.5 72.5,-54.5"/>
<text text-anchor="middle" x="99" y="-61.1" font-family="InputSans" font-size="8.00" fill="#000000">memory</text>
</g>
<!-- Node0&#45;&gt;Node2 -->
<g id="edge2" class="edge">
<title>Node0&#45;&gt;Node2</title>
<path fill="none" stroke="#191970" d="M145.8939,-108.451C136.3643,-99.2146 124.7656,-87.9728 115.4877,-78.9804"/>
<polygon fill="#191970" stroke="#191970" points="117.6589,-76.2105 108.0422,-71.764 112.787,-81.237 117.6589,-76.2105"/>
</g>
<!-- Node3 -->
<g id="node4" class="node">
<title>Node3</title>
<polygon fill="none" stroke="#bfbfbf" points="143.5,-54.5 143.5,-71.5 184.5,-71.5 184.5,-54.5 143.5,-54.5"/>
<text text-anchor="middle" x="164" y="-61.1" font-family="InputSans" font-size="8.00" fill="#000000">string</text>
</g>
<!-- Node0&#45;&gt;Node3 -->
<g id="edge3" class="edge">
<title>Node0&#45;&gt;Node3</title>
<path fill="none" stroke="#191970" d="M164,-108.451C164,-100.1476 164,-90.2234 164,-81.7698"/>
<polygon fill="#191970" stroke="#191970" points="167.5001,-81.764 164,-71.764 160.5001,-81.7641 167.5001,-81.764"/>
</g>
<!-- Node4 -->
<g id="node5" class="node">
<title>Node4</title>
<polygon fill="none" stroke="#bfbfbf" points="223,-.5 223,-17.5 277,-17.5 277,-.5 223,-.5"/>
<text text-anchor="middle" x="250" y="-7.1" font-family="InputSans" font-size="8.00" fill="#000000">Python.h</text>
</g>
<!-- Node0&#45;&gt;Node4 -->
<g id="edge4" class="edge">
<title>Node0&#45;&gt;Node4</title>
<path fill="none" stroke="#191970" d="M176.8751,-108.4839C193.2752,-86.172 221.4246,-47.8758 237.596,-25.8752"/>
<polygon fill="#191970" stroke="#191970" points="240.6216,-27.6686 243.7241,-17.5381 234.9813,-23.5227 240.6216,-27.6686"/>
</g>
<!-- Node5 -->
<g id="node6" class="node">
<title>Node5</title>
<g id="a_node6"><a xlink:href="_python_object_8hpp.html" target="_top" xlink:title="PythonObject.hpp">
<polygon fill="none" stroke="#000000" points="241,-54.5 241,-71.5 333,-71.5 333,-54.5 241,-54.5"/>
<text text-anchor="middle" x="287" y="-61.1" font-family="InputSans" font-size="8.00" fill="#000000">PythonObject.hpp</text>
</a>
</g>
</g>
<!-- Node0&#45;&gt;Node5 -->
<g id="edge5" class="edge">
<title>Node0&#45;&gt;Node5</title>
<path fill="none" stroke="#191970" d="M198.2624,-108.451C218.2379,-98.2196 243.0178,-85.5275 261.3107,-76.158"/>
<polygon fill="#191970" stroke="#191970" points="262.9207,-79.2658 270.2255,-71.5918 259.7295,-73.0355 262.9207,-79.2658"/>
</g>
<!-- Node5&#45;&gt;Node4 -->
<g id="edge6" class="edge">
<title>Node5&#45;&gt;Node4</title>
<path fill="none" stroke="#191970" d="M280.8902,-54.083C275.7178,-46.5341 268.1539,-35.4948 261.8056,-26.2298"/>
<polygon fill="#191970" stroke="#191970" points="264.5357,-24.0221 255.9961,-17.7511 258.7612,-27.9787 264.5357,-24.0221"/>
</g>
</g>
</svg>
