<?xml version="1.0" encoding="UTF-8" standalone="no"?>
<!DOCTYPE svg PUBLIC "-//W3C//DTD SVG 1.1//EN"
 "http://www.w3.org/Graphics/SVG/1.1/DTD/svg11.dtd">
<!-- Generated by graphviz version 2.40.1 (20161225.0304)
 -->
<!-- Title: /home/jacques/repos/math4171/src/arcpython/PythonModule.cpp Pages: 1 -->
<svg width="271pt" height="206pt"
 viewBox="0.00 0.00 270.61 206.00" xmlns="http://www.w3.org/2000/svg" xmlns:xlink="http://www.w3.org/1999/xlink">
<g id="graph0" class="graph" transform="scale(1 1) rotate(0) translate(4 202)">
<title>/home/jacques/repos/math4171/src/arcpython/PythonModule.cpp</title>
<!-- Node0 -->
<g id="node1" class="node">
<title>Node0</title>
<polygon fill="#bfbfbf" stroke="#000000" points="36.1104,-162.5 36.1104,-197.5 176.1104,-197.5 176.1104,-162.5 36.1104,-162.5"/>
<text text-anchor="start" x="44.1104" y="-187.1" font-family="InputSans" font-size="8.00" fill="#000000">/home/jacques/repos</text>
<text text-anchor="start" x="44.1104" y="-178.1" font-family="InputSans" font-size="8.00" fill="#000000">/math4171/src/arcpython</text>
<text text-anchor="middle" x="106.1104" y="-169.1" font-family="InputSans" font-size="8.00" fill="#000000">/PythonModule.cpp</text>
</g>
<!-- Node1 -->
<g id="node2" class="node">
<title>Node1</title>
<g id="a_node2"><a xlink:href="_python_module_8hpp.html" target="_top" xlink:title="PythonModule.hpp">
<polygon fill="none" stroke="#000000" points="56.6104,-108.5 56.6104,-125.5 155.6104,-125.5 155.6104,-108.5 56.6104,-108.5"/>
<text text-anchor="middle" x="106.1104" y="-115.1" font-family="InputSans" font-size="8.00" fill="#000000">PythonModule.hpp</text>
</a>
</g>
</g>
<!-- Node0&#45;&gt;Node1 -->
<g id="edge1" class="edge">
<title>Node0&#45;&gt;Node1</title>
<path fill="none" stroke="#191970" d="M106.1104,-162.451C106.1104,-154.1476 106.1104,-144.2234 106.1104,-135.7698"/>
<polygon fill="#191970" stroke="#191970" points="109.6105,-135.764 106.1104,-125.764 102.6105,-135.7641 109.6105,-135.764"/>
</g>
<!-- Node2 -->
<g id="node3" class="node">
<title>Node2</title>
<polygon fill="none" stroke="#bfbfbf" points="61.6104,-.5 61.6104,-17.5 120.6104,-17.5 120.6104,-.5 61.6104,-.5"/>
<text text-anchor="middle" x="91.1104" y="-7.1" font-family="InputSans" font-size="8.00" fill="#000000">iostream</text>
</g>
<!-- Node1&#45;&gt;Node2 -->
<g id="edge2" class="edge">
<title>Node1&#45;&gt;Node2</title>
<path fill="none" stroke="#191970" d="M59.7538,-108.4673C39.0357,-102.0951 16.529,-91.0523 4.1104,-72 -11.3055,-48.3493 21.935,-30.6394 51.6765,-20.1147"/>
<polygon fill="#191970" stroke="#191970" points="53.1731,-23.3053 61.5533,-16.8227 50.9596,-16.6644 53.1731,-23.3053"/>
</g>
<!-- Node3 -->
<g id="node4" class="node">
<title>Node3</title>
<polygon fill="none" stroke="#bfbfbf" points="13.6104,-54.5 13.6104,-71.5 64.6104,-71.5 64.6104,-54.5 13.6104,-54.5"/>
<text text-anchor="middle" x="39.1104" y="-61.1" font-family="InputSans" font-size="8.00" fill="#000000">memory</text>
</g>
<!-- Node1&#45;&gt;Node3 -->
<g id="edge3" class="edge">
<title>Node1&#45;&gt;Node3</title>
<path fill="none" stroke="#191970" d="M95.3457,-108.324C85.3443,-100.2631 70.2239,-88.0765 58.1799,-78.3695"/>
<polygon fill="#191970" stroke="#191970" points="60.0533,-75.3841 50.071,-71.8339 55.6606,-80.8343 60.0533,-75.3841"/>
</g>
<!-- Node4 -->
<g id="node5" class="node">
<title>Node4</title>
<polygon fill="none" stroke="#bfbfbf" points="83.1104,-54.5 83.1104,-71.5 129.1104,-71.5 129.1104,-54.5 83.1104,-54.5"/>
<text text-anchor="middle" x="106.1104" y="-61.1" font-family="InputSans" font-size="8.00" fill="#000000">string</text>
</g>
<!-- Node1&#45;&gt;Node4 -->
<g id="edge4" class="edge">
<title>Node1&#45;&gt;Node4</title>
<path fill="none" stroke="#191970" d="M106.1104,-108.083C106.1104,-101.0059 106.1104,-90.8611 106.1104,-81.9865"/>
<polygon fill="#191970" stroke="#191970" points="109.6105,-81.751 106.1104,-71.7511 102.6105,-81.7511 109.6105,-81.751"/>
</g>
<!-- Node5 -->
<g id="node6" class="node">
<title>Node5</title>
<polygon fill="none" stroke="#bfbfbf" points="205.6104,-.5 205.6104,-17.5 262.6104,-17.5 262.6104,-.5 205.6104,-.5"/>
<text text-anchor="middle" x="234.1104" y="-7.1" font-family="InputSans" font-size="8.00" fill="#000000">Python.h</text>
</g>
<!-- Node1&#45;&gt;Node5 -->
<g id="edge5" class="edge">
<title>Node1&#45;&gt;Node5</title>
<path fill="none" stroke="#191970" d="M155.435,-108.4895C193.6913,-100.7658 242.1571,-88.1281 254.1104,-72 264.2146,-58.3669 255.9724,-39.4629 247.2075,-25.9262"/>
<polygon fill="#191970" stroke="#191970" points="249.9086,-23.684 241.275,-17.5429 244.1945,-27.7276 249.9086,-23.684"/>
</g>
<!-- Node6 -->
<g id="node7" class="node">
<title>Node6</title>
<g id="a_node7"><a xlink:href="_python_object_8hpp.html" target="_top" xlink:title="PythonObject.hpp">
<polygon fill="none" stroke="#000000" points="147.1104,-54.5 147.1104,-71.5 245.1104,-71.5 245.1104,-54.5 147.1104,-54.5"/>
<text text-anchor="middle" x="196.1104" y="-61.1" font-family="InputSans" font-size="8.00" fill="#000000">PythonObject.hpp</text>
</a>
</g>
</g>
<!-- Node1&#45;&gt;Node6 -->
<g id="edge6" class="edge">
<title>Node1&#45;&gt;Node6</title>
<path fill="none" stroke="#191970" d="M120.5705,-108.324C134.61,-99.9002 156.1589,-86.9709 172.6535,-77.0741"/>
<polygon fill="#191970" stroke="#191970" points="174.912,-79.8007 181.6862,-71.6545 171.3105,-73.7983 174.912,-79.8007"/>
</g>
<!-- Node6&#45;&gt;Node2 -->
<g id="edge7" class="edge">
<title>Node6&#45;&gt;Node2</title>
<path fill="none" stroke="#191970" d="M179.2403,-54.324C162.4016,-45.6641 136.3039,-32.2424 116.8724,-22.249"/>
<polygon fill="#191970" stroke="#191970" points="118.4322,-19.1155 107.9386,-17.6545 115.2308,-25.3405 118.4322,-19.1155"/>
</g>
<!-- Node6&#45;&gt;Node5 -->
<g id="edge8" class="edge">
<title>Node6&#45;&gt;Node5</title>
<path fill="none" stroke="#191970" d="M202.3853,-54.083C207.7529,-46.4554 215.628,-35.2645 222.1891,-25.9408"/>
<polygon fill="#191970" stroke="#191970" points="225.0596,-27.9434 227.9522,-17.7511 219.3349,-23.9149 225.0596,-27.9434"/>
</g>
</g>
</svg>
