<?xml version="1.0" encoding="UTF-8" standalone="no"?>
<!DOCTYPE svg PUBLIC "-//W3C//DTD SVG 1.1//EN"
 "http://www.w3.org/Graphics/SVG/1.1/DTD/svg11.dtd">
<!-- Generated by graphviz version 2.40.1 (20161225.0304)
 -->
<!-- Title: /home/jacques/repos/math4171/src/arcpython/PythonTupple.hpp Pages: 1 -->
<svg width="320pt" height="152pt"
 viewBox="0.00 0.00 320.17 152.00" xmlns="http://www.w3.org/2000/svg" xmlns:xlink="http://www.w3.org/1999/xlink">
<g id="graph0" class="graph" transform="scale(1 1) rotate(0) translate(4 148)">
<title>/home/jacques/repos/math4171/src/arcpython/PythonTupple.hpp</title>
<!-- Node0 -->
<g id="node1" class="node">
<title>Node0</title>
<polygon fill="#bfbfbf" stroke="#000000" points="51.1699,-108.5 51.1699,-143.5 175.1699,-143.5 175.1699,-108.5 51.1699,-108.5"/>
<text text-anchor="start" x="59.1699" y="-133.1" font-family="InputSans" font-size="8.00" fill="#000000">/home/jacques/repos</text>
<text text-anchor="start" x="59.1699" y="-124.1" font-family="InputSans" font-size="8.00" fill="#000000">/math4171/src/arcpython</text>
<text text-anchor="middle" x="113.1699" y="-115.1" font-family="InputSans" font-size="8.00" fill="#000000">/PythonTupple.hpp</text>
</g>
<!-- Node1 -->
<g id="node2" class="node">
<title>Node1</title>
<polygon fill="none" stroke="#bfbfbf" points="99.1699,-.5 99.1699,-17.5 153.1699,-17.5 153.1699,-.5 99.1699,-.5"/>
<text text-anchor="middle" x="126.1699" y="-7.1" font-family="InputSans" font-size="8.00" fill="#000000">Python.h</text>
</g>
<!-- Node0&#45;&gt;Node1 -->
<g id="edge1" class="edge">
<title>Node0&#45;&gt;Node1</title>
<path fill="none" stroke="#191970" d="M50.8541,-109.2884C18.1086,-97.222 -11.9993,-78.7033 5.1699,-54 15.0671,-39.7596 57.2144,-26.2919 89.0048,-17.8665"/>
<polygon fill="#191970" stroke="#191970" points="90.0987,-21.199 98.9085,-15.3136 88.3513,-14.4206 90.0987,-21.199"/>
</g>
<!-- Node2 -->
<g id="node3" class="node">
<title>Node2</title>
<polygon fill="none" stroke="#bfbfbf" points="14.1699,-54.5 14.1699,-71.5 68.1699,-71.5 68.1699,-54.5 14.1699,-54.5"/>
<text text-anchor="middle" x="41.1699" y="-61.1" font-family="InputSans" font-size="8.00" fill="#000000">iostream</text>
</g>
<!-- Node0&#45;&gt;Node2 -->
<g id="edge2" class="edge">
<title>Node0&#45;&gt;Node2</title>
<path fill="none" stroke="#191970" d="M93.1138,-108.451C82.3447,-99.028 69.1901,-87.5177 58.8135,-78.4382"/>
<polygon fill="#191970" stroke="#191970" points="61.0164,-75.7151 51.1859,-71.764 56.4069,-80.9831 61.0164,-75.7151"/>
</g>
<!-- Node3 -->
<g id="node4" class="node">
<title>Node3</title>
<polygon fill="none" stroke="#bfbfbf" points="86.6699,-54.5 86.6699,-71.5 139.6699,-71.5 139.6699,-54.5 86.6699,-54.5"/>
<text text-anchor="middle" x="113.1699" y="-61.1" font-family="InputSans" font-size="8.00" fill="#000000">memory</text>
</g>
<!-- Node0&#45;&gt;Node3 -->
<g id="edge3" class="edge">
<title>Node0&#45;&gt;Node3</title>
<path fill="none" stroke="#191970" d="M113.1699,-108.451C113.1699,-100.1476 113.1699,-90.2234 113.1699,-81.7698"/>
<polygon fill="#191970" stroke="#191970" points="116.67,-81.764 113.1699,-71.764 109.67,-81.7641 116.67,-81.764"/>
</g>
<!-- Node4 -->
<g id="node5" class="node">
<title>Node4</title>
<polygon fill="none" stroke="#bfbfbf" points="158.1699,-54.5 158.1699,-71.5 202.1699,-71.5 202.1699,-54.5 158.1699,-54.5"/>
<text text-anchor="middle" x="180.1699" y="-61.1" font-family="InputSans" font-size="8.00" fill="#000000">vector</text>
</g>
<!-- Node0&#45;&gt;Node4 -->
<g id="edge4" class="edge">
<title>Node0&#45;&gt;Node4</title>
<path fill="none" stroke="#191970" d="M131.8331,-108.451C141.7552,-99.1213 153.8533,-87.7455 163.4639,-78.7086"/>
<polygon fill="#191970" stroke="#191970" points="165.9618,-81.1641 170.8494,-71.764 161.1666,-76.0645 165.9618,-81.1641"/>
</g>
<!-- Node5 -->
<g id="node6" class="node">
<title>Node5</title>
<g id="a_node6"><a xlink:href="_python_object_8hpp.html" target="_top" xlink:title="PythonObject.hpp">
<polygon fill="none" stroke="#000000" points="220.1699,-54.5 220.1699,-71.5 312.1699,-71.5 312.1699,-54.5 220.1699,-54.5"/>
<text text-anchor="middle" x="266.1699" y="-61.1" font-family="InputSans" font-size="8.00" fill="#000000">PythonObject.hpp</text>
</a>
</g>
</g>
<!-- Node0&#45;&gt;Node5 -->
<g id="edge5" class="edge">
<title>Node0&#45;&gt;Node5</title>
<path fill="none" stroke="#191970" d="M155.7889,-108.451C181.2064,-97.9849 212.8774,-84.944 235.7676,-75.5186"/>
<polygon fill="#191970" stroke="#191970" points="237.3899,-78.6357 245.3041,-71.5918 234.7246,-72.163 237.3899,-78.6357"/>
</g>
<!-- Node5&#45;&gt;Node1 -->
<g id="edge6" class="edge">
<title>Node5&#45;&gt;Node1</title>
<path fill="none" stroke="#191970" d="M243.9864,-54.4435C220.7414,-45.4776 184.021,-31.314 157.7546,-21.1827"/>
<polygon fill="#191970" stroke="#191970" points="158.8391,-17.8497 148.2495,-17.5164 156.3199,-24.3807 158.8391,-17.8497"/>
</g>
</g>
</svg>
