<?xml version="1.0" encoding="UTF-8" standalone="no"?>
<!DOCTYPE svg PUBLIC "-//W3C//DTD SVG 1.1//EN"
 "http://www.w3.org/Graphics/SVG/1.1/DTD/svg11.dtd">
<!-- Generated by graphviz version 2.40.1 (20161225.0304)
 -->
<!-- Title: /home/jacques/repos/math4171/src/arcpython/PythonCommon.hpp Pages: 1 -->
<svg width="234pt" height="152pt"
 viewBox="0.00 0.00 233.50 152.00" xmlns="http://www.w3.org/2000/svg" xmlns:xlink="http://www.w3.org/1999/xlink">
<g id="graph0" class="graph" transform="scale(1 1) rotate(0) translate(4 148)">
<title>/home/jacques/repos/math4171/src/arcpython/PythonCommon.hpp</title>
<!-- Node0 -->
<g id="node1" class="node">
<title>Node0</title>
<polygon fill="#bfbfbf" stroke="#000000" points="29.5,-108.5 29.5,-143.5 169.5,-143.5 169.5,-108.5 29.5,-108.5"/>
<text text-anchor="start" x="37.5" y="-133.1" font-family="InputSans" font-size="8.00" fill="#000000">/home/jacques/repos</text>
<text text-anchor="start" x="37.5" y="-124.1" font-family="InputSans" font-size="8.00" fill="#000000">/math4171/src/arcpython</text>
<text text-anchor="middle" x="99.5" y="-115.1" font-family="InputSans" font-size="8.00" fill="#000000">/PythonCommon.hpp</text>
</g>
<!-- Node1 -->
<g id="node2" class="node">
<title>Node1</title>
<polygon fill="none" stroke="#bfbfbf" points="0,-54.5 0,-71.5 71,-71.5 71,-54.5 0,-54.5"/>
<text text-anchor="middle" x="35.5" y="-61.1" font-family="InputSans" font-size="8.00" fill="#000000">type_traits</text>
</g>
<!-- Node0&#45;&gt;Node1 -->
<g id="edge1" class="edge">
<title>Node0&#45;&gt;Node1</title>
<path fill="none" stroke="#191970" d="M81.6724,-108.451C72.2894,-99.2146 60.8692,-87.9728 51.7341,-78.9804"/>
<polygon fill="#191970" stroke="#191970" points="53.985,-76.2849 44.4031,-71.764 49.0744,-81.2735 53.985,-76.2849"/>
</g>
<!-- Node2 -->
<g id="node3" class="node">
<title>Node2</title>
<polygon fill="none" stroke="#bfbfbf" points="72,-.5 72,-17.5 129,-17.5 129,-.5 72,-.5"/>
<text text-anchor="middle" x="100.5" y="-7.1" font-family="InputSans" font-size="8.00" fill="#000000">Python.h</text>
</g>
<!-- Node0&#45;&gt;Node2 -->
<g id="edge2" class="edge">
<title>Node0&#45;&gt;Node2</title>
<path fill="none" stroke="#191970" d="M99.6497,-108.4839C99.8353,-86.7697 100.1503,-49.9159 100.3404,-27.6775"/>
<polygon fill="#191970" stroke="#191970" points="103.8413,-27.5677 100.427,-17.5381 96.8416,-27.5078 103.8413,-27.5677"/>
</g>
<!-- Node3 -->
<g id="node4" class="node">
<title>Node3</title>
<g id="a_node4"><a xlink:href="_python_object_8hpp.html" target="_top" xlink:title="PythonObject.hpp">
<polygon fill="none" stroke="#000000" points="127.5,-54.5 127.5,-71.5 225.5,-71.5 225.5,-54.5 127.5,-54.5"/>
<text text-anchor="middle" x="176.5" y="-61.1" font-family="InputSans" font-size="8.00" fill="#000000">PythonObject.hpp</text>
</a>
</g>
</g>
<!-- Node0&#45;&gt;Node3 -->
<g id="edge3" class="edge">
<title>Node0&#45;&gt;Node3</title>
<path fill="none" stroke="#191970" d="M120.9488,-108.451C132.5798,-98.9347 146.8127,-87.2896 157.9598,-78.1692"/>
<polygon fill="#191970" stroke="#191970" points="160.2652,-80.8053 165.7884,-71.764 155.8325,-75.3876 160.2652,-80.8053"/>
</g>
<!-- Node3&#45;&gt;Node2 -->
<g id="edge5" class="edge">
<title>Node3&#45;&gt;Node2</title>
<path fill="none" stroke="#191970" d="M164.2893,-54.324C152.7241,-46.1066 135.1246,-33.6017 121.3393,-23.8069"/>
<polygon fill="#191970" stroke="#191970" points="123.112,-20.7729 112.9329,-17.8339 119.0575,-26.4791 123.112,-20.7729"/>
</g>
<!-- Node4 -->
<g id="node5" class="node">
<title>Node4</title>
<polygon fill="none" stroke="#bfbfbf" points="147,-.5 147,-17.5 206,-17.5 206,-.5 147,-.5"/>
<text text-anchor="middle" x="176.5" y="-7.1" font-family="InputSans" font-size="8.00" fill="#000000">iostream</text>
</g>
<!-- Node3&#45;&gt;Node4 -->
<g id="edge4" class="edge">
<title>Node3&#45;&gt;Node4</title>
<path fill="none" stroke="#191970" d="M176.5,-54.083C176.5,-47.0059 176.5,-36.8611 176.5,-27.9865"/>
<polygon fill="#191970" stroke="#191970" points="180.0001,-27.751 176.5,-17.7511 173.0001,-27.7511 180.0001,-27.751"/>
</g>
</g>
</svg>
