<?xml version="1.0" encoding="UTF-8" standalone="no"?>
<!DOCTYPE svg PUBLIC "-//W3C//DTD SVG 1.1//EN"
 "http://www.w3.org/Graphics/SVG/1.1/DTD/svg11.dtd">
<!-- Generated by graphviz version 2.40.1 (20161225.0304)
 -->
<!-- Title: /home/jacques/repos/math4171/src/arcpython/PythonModule.hpp Pages: 1 -->
<svg width="973pt" height="188pt"
 viewBox="0.00 0.00 972.50 188.00" xmlns="http://www.w3.org/2000/svg" xmlns:xlink="http://www.w3.org/1999/xlink">
<g id="graph0" class="graph" transform="scale(1 1) rotate(0) translate(4 184)">
<title>/home/jacques/repos/math4171/src/arcpython/PythonModule.hpp</title>
<!-- Node6 -->
<g id="node1" class="node">
<title>Node6</title>
<polygon fill="#bfbfbf" stroke="#000000" points="319.5,-144.5 319.5,-179.5 459.5,-179.5 459.5,-144.5 319.5,-144.5"/>
<text text-anchor="start" x="327.5" y="-169.1" font-family="InputSans" font-size="8.00" fill="#000000">/home/jacques/repos</text>
<text text-anchor="start" x="327.5" y="-160.1" font-family="InputSans" font-size="8.00" fill="#000000">/math4171/src/arcpython</text>
<text text-anchor="middle" x="389.5" y="-151.1" font-family="InputSans" font-size="8.00" fill="#000000">/PythonModule.hpp</text>
</g>
<!-- Node7 -->
<g id="node2" class="node">
<title>Node7</title>
<g id="a_node2"><a xlink:href="_contour_plot_8cpp.html" target="_top" xlink:title="/home/jacques/repos\l/math4171/src/arcplot\l/ContourPlot.cpp">
<polygon fill="none" stroke="#000000" points="0,-72.5 0,-107.5 129,-107.5 129,-72.5 0,-72.5"/>
<text text-anchor="start" x="8" y="-97.1" font-family="InputSans" font-size="8.00" fill="#000000">/home/jacques/repos</text>
<text text-anchor="start" x="8" y="-88.1" font-family="InputSans" font-size="8.00" fill="#000000">/math4171/src/arcplot</text>
<text text-anchor="middle" x="64.5" y="-79.1" font-family="InputSans" font-size="8.00" fill="#000000">/ContourPlot.cpp</text>
</a>
</g>
</g>
<!-- Node6&#45;&gt;Node7 -->
<g id="edge1" class="edge">
<title>Node6&#45;&gt;Node7</title>
<path fill="none" stroke="#191970" d="M309.4404,-144.5941C261.3203,-134.0904 198.8737,-120.3858 143.5,-108 138.8326,-106.956 134.0115,-105.8718 129.1599,-104.7766"/>
<polygon fill="#191970" stroke="#191970" points="308.9673,-148.0732 319.4835,-146.7853 310.4594,-141.234 308.9673,-148.0732"/>
</g>
<!-- Node8 -->
<g id="node3" class="node">
<title>Node8</title>
<g id="a_node3"><a xlink:href="_figure_8cpp.html" target="_top" xlink:title="/home/jacques/repos\l/math4171/src/arcplot\l/Figure.cpp">
<polygon fill="none" stroke="#000000" points="108,-.5 108,-35.5 237,-35.5 237,-.5 108,-.5"/>
<text text-anchor="start" x="116" y="-25.1" font-family="InputSans" font-size="8.00" fill="#000000">/home/jacques/repos</text>
<text text-anchor="start" x="116" y="-16.1" font-family="InputSans" font-size="8.00" fill="#000000">/math4171/src/arcplot</text>
<text text-anchor="middle" x="172.5" y="-7.1" font-family="InputSans" font-size="8.00" fill="#000000">/Figure.cpp</text>
</a>
</g>
</g>
<!-- Node6&#45;&gt;Node8 -->
<g id="edge2" class="edge">
<title>Node6&#45;&gt;Node8</title>
<path fill="none" stroke="#191970" d="M309.358,-151.7091C256.3013,-143.1011 193.4738,-128.8421 176.5,-108 160.006,-87.7471 163.3293,-55.6182 167.6336,-35.7264"/>
<polygon fill="#191970" stroke="#191970" points="309.0569,-155.2047 319.4797,-153.3033 310.146,-148.29 309.0569,-155.2047"/>
</g>
<!-- Node9 -->
<g id="node4" class="node">
<title>Node9</title>
<g id="a_node4"><a xlink:href="_figure_8hpp.html" target="_top" xlink:title="/home/jacques/repos\l/math4171/src/arcplot\l/Figure.hpp">
<polygon fill="none" stroke="#000000" points="186,-72.5 186,-107.5 315,-107.5 315,-72.5 186,-72.5"/>
<text text-anchor="start" x="194" y="-97.1" font-family="InputSans" font-size="8.00" fill="#000000">/home/jacques/repos</text>
<text text-anchor="start" x="194" y="-88.1" font-family="InputSans" font-size="8.00" fill="#000000">/math4171/src/arcplot</text>
<text text-anchor="middle" x="250.5" y="-79.1" font-family="InputSans" font-size="8.00" fill="#000000">/Figure.hpp</text>
</a>
</g>
</g>
<!-- Node6&#45;&gt;Node9 -->
<g id="edge3" class="edge">
<title>Node6&#45;&gt;Node9</title>
<path fill="none" stroke="#191970" d="M346.6145,-139.7859C326.6929,-129.4668 303.3348,-117.3677 284.6339,-107.6809"/>
<polygon fill="#191970" stroke="#191970" points="345.0075,-142.8951 355.4968,-144.3868 348.2271,-136.6795 345.0075,-142.8951"/>
</g>
<!-- Node10 -->
<g id="node5" class="node">
<title>Node10</title>
<g id="a_node5"><a xlink:href="playground_2_main_8cpp.html" target="_top" xlink:title="/home/jacques/repos\l/math4171/src/playground\l/Main.cpp">
<polygon fill="none" stroke="#000000" points="262.5,-.5 262.5,-35.5 408.5,-35.5 408.5,-.5 262.5,-.5"/>
<text text-anchor="start" x="270.5" y="-25.1" font-family="InputSans" font-size="8.00" fill="#000000">/home/jacques/repos</text>
<text text-anchor="start" x="270.5" y="-16.1" font-family="InputSans" font-size="8.00" fill="#000000">/math4171/src/playground</text>
<text text-anchor="middle" x="335.5" y="-7.1" font-family="InputSans" font-size="8.00" fill="#000000">/Main.cpp</text>
</a>
</g>
</g>
<!-- Node6&#45;&gt;Node10 -->
<g id="edge10" class="edge">
<title>Node6&#45;&gt;Node10</title>
<path fill="none" stroke="#191970" d="M375.6134,-135.1523C371.4467,-126.5922 367.0459,-117.0037 363.5,-108 353.7862,-83.3346 345.1538,-53.8457 340.124,-35.5154"/>
<polygon fill="#191970" stroke="#191970" points="372.5731,-136.8991 380.1602,-144.2941 378.8407,-133.7817 372.5731,-136.8991"/>
</g>
<!-- Node11 -->
<g id="node6" class="node">
<title>Node11</title>
<g id="a_node6"><a xlink:href="_list_plot_8cpp.html" target="_top" xlink:title="/home/jacques/repos\l/math4171/src/arcplot\l/ListPlot.cpp">
<polygon fill="none" stroke="#000000" points="372,-72.5 372,-107.5 501,-107.5 501,-72.5 372,-72.5"/>
<text text-anchor="start" x="380" y="-97.1" font-family="InputSans" font-size="8.00" fill="#000000">/home/jacques/repos</text>
<text text-anchor="start" x="380" y="-88.1" font-family="InputSans" font-size="8.00" fill="#000000">/math4171/src/arcplot</text>
<text text-anchor="middle" x="436.5" y="-79.1" font-family="InputSans" font-size="8.00" fill="#000000">/ListPlot.cpp</text>
</a>
</g>
</g>
<!-- Node6&#45;&gt;Node11 -->
<g id="edge6" class="edge">
<title>Node6&#45;&gt;Node11</title>
<path fill="none" stroke="#191970" d="M406.7159,-135.6268C412.8107,-126.29 419.5141,-116.0209 425.0157,-107.593"/>
<polygon fill="#191970" stroke="#191970" points="403.6534,-133.9152 401.118,-144.2022 409.5151,-137.7416 403.6534,-133.9152"/>
</g>
<!-- Node12 -->
<g id="node7" class="node">
<title>Node12</title>
<g id="a_node7"><a xlink:href="_surface_plot_8cpp.html" target="_top" xlink:title="/home/jacques/repos\l/math4171/src/arcplot\l/SurfacePlot.cpp">
<polygon fill="none" stroke="#000000" points="519,-72.5 519,-107.5 648,-107.5 648,-72.5 519,-72.5"/>
<text text-anchor="start" x="527" y="-97.1" font-family="InputSans" font-size="8.00" fill="#000000">/home/jacques/repos</text>
<text text-anchor="start" x="527" y="-88.1" font-family="InputSans" font-size="8.00" fill="#000000">/math4171/src/arcplot</text>
<text text-anchor="middle" x="583.5" y="-79.1" font-family="InputSans" font-size="8.00" fill="#000000">/SurfacePlot.cpp</text>
</a>
</g>
</g>
<!-- Node6&#45;&gt;Node12 -->
<g id="edge7" class="edge">
<title>Node6&#45;&gt;Node12</title>
<path fill="none" stroke="#191970" d="M446.4039,-140.881C474.9475,-130.2875 509.1129,-117.6076 536.1964,-107.556"/>
<polygon fill="#191970" stroke="#191970" points="445.1151,-137.626 436.9577,-144.3868 447.5507,-144.1886 445.1151,-137.626"/>
</g>
<!-- Node13 -->
<g id="node8" class="node">
<title>Node13</title>
<g id="a_node8"><a xlink:href="_python_function_8cpp.html" target="_top" xlink:title="/home/jacques/repos\l/math4171/src/arcpython\l/PythonFunction.cpp">
<polygon fill="none" stroke="#000000" points="666.5,-72.5 666.5,-107.5 806.5,-107.5 806.5,-72.5 666.5,-72.5"/>
<text text-anchor="start" x="674.5" y="-97.1" font-family="InputSans" font-size="8.00" fill="#000000">/home/jacques/repos</text>
<text text-anchor="start" x="674.5" y="-88.1" font-family="InputSans" font-size="8.00" fill="#000000">/math4171/src/arcpython</text>
<text text-anchor="middle" x="736.5" y="-79.1" font-family="InputSans" font-size="8.00" fill="#000000">/PythonFunction.cpp</text>
</a>
</g>
</g>
<!-- Node6&#45;&gt;Node13 -->
<g id="edge8" class="edge">
<title>Node6&#45;&gt;Node13</title>
<path fill="none" stroke="#191970" d="M469.6448,-146.3994C522.9582,-135.887 594.5034,-121.5213 657.5,-108 660.3882,-107.3801 663.3342,-106.7407 666.3091,-106.0893"/>
<polygon fill="#191970" stroke="#191970" points="468.7067,-143.0168 459.5712,-148.3827 470.059,-149.885 468.7067,-143.0168"/>
</g>
<!-- Node14 -->
<g id="node9" class="node">
<title>Node14</title>
<g id="a_node9"><a xlink:href="_python_module_8cpp.html" target="_top" xlink:title="/home/jacques/repos\l/math4171/src/arcpython\l/PythonModule.cpp">
<polygon fill="none" stroke="#000000" points="824.5,-72.5 824.5,-107.5 964.5,-107.5 964.5,-72.5 824.5,-72.5"/>
<text text-anchor="start" x="832.5" y="-97.1" font-family="InputSans" font-size="8.00" fill="#000000">/home/jacques/repos</text>
<text text-anchor="start" x="832.5" y="-88.1" font-family="InputSans" font-size="8.00" fill="#000000">/math4171/src/arcpython</text>
<text text-anchor="middle" x="894.5" y="-79.1" font-family="InputSans" font-size="8.00" fill="#000000">/PythonModule.cpp</text>
</a>
</g>
</g>
<!-- Node6&#45;&gt;Node14 -->
<g id="edge9" class="edge">
<title>Node6&#45;&gt;Node14</title>
<path fill="none" stroke="#191970" d="M469.7501,-154.1969C555.6502,-145.2925 695.7529,-129.1792 815.5,-108 818.4089,-107.4855 821.3721,-106.9343 824.3612,-106.3559"/>
<polygon fill="#191970" stroke="#191970" points="469.1373,-150.7414 459.5482,-155.2469 469.8541,-157.7046 469.1373,-150.7414"/>
</g>
<!-- Node9&#45;&gt;Node8 -->
<g id="edge4" class="edge">
<title>Node9&#45;&gt;Node8</title>
<path fill="none" stroke="#191970" d="M223.7937,-65.348C213.1981,-55.5675 201.2541,-44.5422 191.5591,-35.593"/>
<polygon fill="#191970" stroke="#191970" points="221.497,-67.9912 231.2191,-72.2022 226.245,-62.8476 221.497,-67.9912"/>
</g>
<!-- Node9&#45;&gt;Node10 -->
<g id="edge5" class="edge">
<title>Node9&#45;&gt;Node10</title>
<path fill="none" stroke="#191970" d="M279.2672,-65.6325C290.8965,-55.7818 304.0629,-44.6291 314.7305,-35.593"/>
<polygon fill="#191970" stroke="#191970" points="276.8795,-63.0681 271.5112,-72.2022 281.4039,-68.4094 276.8795,-63.0681"/>
</g>
</g>
</svg>
