<?xml version="1.0" encoding="UTF-8" standalone="no"?>
<!DOCTYPE svg PUBLIC "-//W3C//DTD SVG 1.1//EN"
 "http://www.w3.org/Graphics/SVG/1.1/DTD/svg11.dtd">
<!-- Generated by graphviz version 2.40.1 (20161225.0304)
 -->
<!-- Title: /home/jacques/repos/math4171/src/arcplot/SurfPlot3d.hpp Pages: 1 -->
<svg width="395pt" height="206pt"
 viewBox="0.00 0.00 394.50 206.00" xmlns="http://www.w3.org/2000/svg" xmlns:xlink="http://www.w3.org/1999/xlink">
<g id="graph0" class="graph" transform="scale(1 1) rotate(0) translate(4 202)">
<title>/home/jacques/repos/math4171/src/arcplot/SurfPlot3d.hpp</title>
<!-- Node0 -->
<g id="node1" class="node">
<title>Node0</title>
<polygon fill="#bfbfbf" stroke="#000000" points="29,-162.5 29,-197.5 139,-197.5 139,-162.5 29,-162.5"/>
<text text-anchor="start" x="37" y="-187.1" font-family="InputSans" font-size="8.00" fill="#000000">/home/jacques/repos</text>
<text text-anchor="start" x="37" y="-178.1" font-family="InputSans" font-size="8.00" fill="#000000">/math4171/src/arcplot</text>
<text text-anchor="middle" x="84" y="-169.1" font-family="InputSans" font-size="8.00" fill="#000000">/SurfPlot3d.hpp</text>
</g>
<!-- Node1 -->
<g id="node2" class="node">
<title>Node1</title>
<polygon fill="none" stroke="#bfbfbf" points="0,-54.5 0,-71.5 54,-71.5 54,-54.5 0,-54.5"/>
<text text-anchor="middle" x="27" y="-61.1" font-family="InputSans" font-size="8.00" fill="#000000">iostream</text>
</g>
<!-- Node0&#45;&gt;Node1 -->
<g id="edge1" class="edge">
<title>Node0&#45;&gt;Node1</title>
<path fill="none" stroke="#191970" d="M69.4459,-162.4142C61.6267,-152.2712 52.3225,-138.9869 46,-126 39.1157,-111.859 34.1409,-94.7074 31.0129,-81.873"/>
<polygon fill="#191970" stroke="#191970" points="34.3723,-80.8621 28.7378,-71.8898 27.5473,-82.4175 34.3723,-80.8621"/>
</g>
<!-- Node2 -->
<g id="node3" class="node">
<title>Node2</title>
<polygon fill="none" stroke="#bfbfbf" points="55,-108.5 55,-125.5 113,-125.5 113,-108.5 55,-108.5"/>
<text text-anchor="middle" x="84" y="-115.1" font-family="InputSans" font-size="8.00" fill="#000000">functional</text>
</g>
<!-- Node0&#45;&gt;Node2 -->
<g id="edge2" class="edge">
<title>Node0&#45;&gt;Node2</title>
<path fill="none" stroke="#191970" d="M84,-162.451C84,-154.1476 84,-144.2234 84,-135.7698"/>
<polygon fill="#191970" stroke="#191970" points="87.5001,-135.764 84,-125.764 80.5001,-135.7641 87.5001,-135.764"/>
</g>
<!-- Node3 -->
<g id="node4" class="node">
<title>Node3</title>
<g id="a_node4"><a xlink:href="_vec_8hpp.html" target="_top" xlink:title="Vec.hpp">
<polygon fill="none" stroke="#000000" points="131,-108.5 131,-125.5 181,-125.5 181,-108.5 131,-108.5"/>
<text text-anchor="middle" x="156" y="-115.1" font-family="InputSans" font-size="8.00" fill="#000000">Vec.hpp</text>
</a>
</g>
</g>
<!-- Node0&#45;&gt;Node3 -->
<g id="edge3" class="edge">
<title>Node0&#45;&gt;Node3</title>
<path fill="none" stroke="#191970" d="M104.056,-162.451C114.8251,-153.028 127.9797,-141.5177 138.3564,-132.4382"/>
<polygon fill="#191970" stroke="#191970" points="140.763,-134.9831 145.984,-125.764 136.1534,-129.7151 140.763,-134.9831"/>
</g>
<!-- Node3&#45;&gt;Node1 -->
<g id="edge5" class="edge">
<title>Node3&#45;&gt;Node1</title>
<path fill="none" stroke="#191970" d="M135.5596,-108.4435C114.3296,-99.5566 80.901,-85.5632 56.745,-75.4514"/>
<polygon fill="#191970" stroke="#191970" points="57.9207,-72.1493 47.3448,-71.5164 55.2177,-78.6064 57.9207,-72.1493"/>
</g>
<!-- Node4 -->
<g id="node5" class="node">
<title>Node4</title>
<polygon fill="none" stroke="#bfbfbf" points="72.5,-54.5 72.5,-71.5 119.5,-71.5 119.5,-54.5 72.5,-54.5"/>
<text text-anchor="middle" x="96" y="-61.1" font-family="InputSans" font-size="8.00" fill="#000000">cassert</text>
</g>
<!-- Node3&#45;&gt;Node4 -->
<g id="edge4" class="edge">
<title>Node3&#45;&gt;Node4</title>
<path fill="none" stroke="#191970" d="M146.36,-108.324C137.4904,-100.3414 124.1253,-88.3128 113.3921,-78.6529"/>
<polygon fill="#191970" stroke="#191970" points="115.5898,-75.922 105.8154,-71.8339 110.907,-81.1251 115.5898,-75.922"/>
</g>
<!-- Node5 -->
<g id="node6" class="node">
<title>Node5</title>
<g id="a_node6"><a xlink:href="_core_math_8hpp.html" target="_top" xlink:title="CoreMath.hpp">
<polygon fill="none" stroke="#000000" points="138,-54.5 138,-71.5 214,-71.5 214,-54.5 138,-54.5"/>
<text text-anchor="middle" x="176" y="-61.1" font-family="InputSans" font-size="8.00" fill="#000000">CoreMath.hpp</text>
</a>
</g>
</g>
<!-- Node3&#45;&gt;Node5 -->
<g id="edge6" class="edge">
<title>Node3&#45;&gt;Node5</title>
<path fill="none" stroke="#191970" d="M159.3026,-108.083C161.982,-100.8486 165.8486,-90.4087 169.1864,-81.3968"/>
<polygon fill="#191970" stroke="#191970" points="172.5678,-82.3442 172.7589,-71.7511 166.0035,-79.9129 172.5678,-82.3442"/>
</g>
<!-- Node10 -->
<g id="node11" class="node">
<title>Node10</title>
<g id="a_node11"><a xlink:href="_vec_8inl.html" target="_top" xlink:title="Vec.inl">
<polygon fill="none" stroke="#000000" points="275,-54.5 275,-71.5 319,-71.5 319,-54.5 275,-54.5"/>
<text text-anchor="middle" x="297" y="-61.1" font-family="InputSans" font-size="8.00" fill="#000000">Vec.inl</text>
</a>
</g>
</g>
<!-- Node3&#45;&gt;Node10 -->
<g id="edge11" class="edge">
<title>Node3&#45;&gt;Node10</title>
<path fill="none" stroke="#191970" d="M178.3419,-108.4435C201.7529,-99.4776 238.7356,-85.314 265.1896,-75.1827"/>
<polygon fill="#191970" stroke="#191970" points="266.6759,-78.3615 274.7627,-71.5164 264.1723,-71.8245 266.6759,-78.3615"/>
</g>
<!-- Node6 -->
<g id="node7" class="node">
<title>Node6</title>
<polygon fill="none" stroke="#bfbfbf" points="19.5,-.5 19.5,-17.5 76.5,-17.5 76.5,-.5 19.5,-.5"/>
<text text-anchor="middle" x="48" y="-7.1" font-family="InputSans" font-size="8.00" fill="#000000">algorithm</text>
</g>
<!-- Node5&#45;&gt;Node6 -->
<g id="edge7" class="edge">
<title>Node5&#45;&gt;Node6</title>
<path fill="none" stroke="#191970" d="M155.718,-54.4435C134.6527,-45.5566 101.4832,-31.5632 77.5145,-21.4514"/>
<polygon fill="#191970" stroke="#191970" points="78.7612,-18.1787 68.1871,-17.5164 76.0403,-24.6283 78.7612,-18.1787"/>
</g>
<!-- Node7 -->
<g id="node8" class="node">
<title>Node7</title>
<polygon fill="none" stroke="#bfbfbf" points="94.5,-.5 94.5,-17.5 137.5,-17.5 137.5,-.5 94.5,-.5"/>
<text text-anchor="middle" x="116" y="-7.1" font-family="InputSans" font-size="8.00" fill="#000000">cmath</text>
</g>
<!-- Node5&#45;&gt;Node7 -->
<g id="edge8" class="edge">
<title>Node5&#45;&gt;Node7</title>
<path fill="none" stroke="#191970" d="M166.36,-54.324C157.4904,-46.3414 144.1253,-34.3128 133.3921,-24.6529"/>
<polygon fill="#191970" stroke="#191970" points="135.5898,-21.922 125.8154,-17.8339 130.907,-27.1251 135.5898,-21.922"/>
</g>
<!-- Node8 -->
<g id="node9" class="node">
<title>Node8</title>
<polygon fill="none" stroke="#bfbfbf" points="156,-.5 156,-17.5 196,-17.5 196,-.5 156,-.5"/>
<text text-anchor="middle" x="176" y="-7.1" font-family="InputSans" font-size="8.00" fill="#000000">cfloat</text>
</g>
<!-- Node5&#45;&gt;Node8 -->
<g id="edge9" class="edge">
<title>Node5&#45;&gt;Node8</title>
<path fill="none" stroke="#191970" d="M176,-54.083C176,-47.0059 176,-36.8611 176,-27.9865"/>
<polygon fill="#191970" stroke="#191970" points="179.5001,-27.751 176,-17.7511 172.5001,-27.7511 179.5001,-27.751"/>
</g>
<!-- Node9 -->
<g id="node10" class="node">
<title>Node9</title>
<polygon fill="none" stroke="#bfbfbf" points="214,-.5 214,-17.5 258,-17.5 258,-.5 214,-.5"/>
<text text-anchor="middle" x="236" y="-7.1" font-family="InputSans" font-size="8.00" fill="#000000">cstdint</text>
</g>
<!-- Node5&#45;&gt;Node9 -->
<g id="edge10" class="edge">
<title>Node5&#45;&gt;Node9</title>
<path fill="none" stroke="#191970" d="M185.64,-54.324C194.5096,-46.3414 207.8747,-34.3128 218.6079,-24.6529"/>
<polygon fill="#191970" stroke="#191970" points="221.093,-27.1251 226.1846,-17.8339 216.4102,-21.922 221.093,-27.1251"/>
</g>
<!-- Node11 -->
<g id="node12" class="node">
<title>Node11</title>
<polygon fill="none" stroke="#bfbfbf" points="276.5,-.5 276.5,-17.5 317.5,-17.5 317.5,-.5 276.5,-.5"/>
<text text-anchor="middle" x="297" y="-7.1" font-family="InputSans" font-size="8.00" fill="#000000">string</text>
</g>
<!-- Node10&#45;&gt;Node11 -->
<g id="edge12" class="edge">
<title>Node10&#45;&gt;Node11</title>
<path fill="none" stroke="#191970" d="M297,-54.083C297,-47.0059 297,-36.8611 297,-27.9865"/>
<polygon fill="#191970" stroke="#191970" points="300.5001,-27.751 297,-17.7511 293.5001,-27.7511 300.5001,-27.751"/>
</g>
<!-- Node12 -->
<g id="node13" class="node">
<title>Node12</title>
<polygon fill="none" stroke="#bfbfbf" points="335.5,-.5 335.5,-17.5 386.5,-17.5 386.5,-.5 335.5,-.5"/>
<text text-anchor="middle" x="361" y="-7.1" font-family="InputSans" font-size="8.00" fill="#000000">sstream</text>
</g>
<!-- Node10&#45;&gt;Node12 -->
<g id="edge13" class="edge">
<title>Node10&#45;&gt;Node12</title>
<path fill="none" stroke="#191970" d="M307.2827,-54.324C316.8363,-46.2631 331.2797,-34.0765 342.7843,-24.3695"/>
<polygon fill="#191970" stroke="#191970" points="345.1443,-26.9577 350.5302,-17.8339 340.6302,-21.6076 345.1443,-26.9577"/>
</g>
</g>
</svg>
