<?xml version="1.0" encoding="UTF-8" standalone="no"?>
<!DOCTYPE svg PUBLIC "-//W3C//DTD SVG 1.1//EN"
 "http://www.w3.org/Graphics/SVG/1.1/DTD/svg11.dtd">
<!-- Generated by graphviz version 2.40.1 (20161225.0304)
 -->
<!-- Title: /home/jacques/repos/math4171/src/arcplot/SurfPlot3d.hpp Pages: 1 -->
<svg width="272pt" height="116pt"
 viewBox="0.00 0.00 271.50 116.00" xmlns="http://www.w3.org/2000/svg" xmlns:xlink="http://www.w3.org/1999/xlink">
<g id="graph0" class="graph" transform="scale(1 1) rotate(0) translate(4 112)">
<title>/home/jacques/repos/math4171/src/arcplot/SurfPlot3d.hpp</title>
<!-- Node13 -->
<g id="node1" class="node">
<title>Node13</title>
<polygon fill="#bfbfbf" stroke="#000000" points="70,-72.5 70,-107.5 180,-107.5 180,-72.5 70,-72.5"/>
<text text-anchor="start" x="78" y="-97.1" font-family="InputSans" font-size="8.00" fill="#000000">/home/jacques/repos</text>
<text text-anchor="start" x="78" y="-88.1" font-family="InputSans" font-size="8.00" fill="#000000">/math4171/src/arcplot</text>
<text text-anchor="middle" x="125" y="-79.1" font-family="InputSans" font-size="8.00" fill="#000000">/SurfPlot3d.hpp</text>
</g>
<!-- Node14 -->
<g id="node2" class="node">
<title>Node14</title>
<g id="a_node2"><a xlink:href="_surf_plot3d_8cpp.html" target="_top" xlink:title="/home/jacques/repos\l/math4171/src/arcplot\l/SurfPlot3d.cpp">
<polygon fill="none" stroke="#000000" points="0,-.5 0,-35.5 110,-35.5 110,-.5 0,-.5"/>
<text text-anchor="start" x="8" y="-25.1" font-family="InputSans" font-size="8.00" fill="#000000">/home/jacques/repos</text>
<text text-anchor="start" x="8" y="-16.1" font-family="InputSans" font-size="8.00" fill="#000000">/math4171/src/arcplot</text>
<text text-anchor="middle" x="55" y="-7.1" font-family="InputSans" font-size="8.00" fill="#000000">/SurfPlot3d.cpp</text>
</a>
</g>
</g>
<!-- Node13&#45;&gt;Node14 -->
<g id="edge1" class="edge">
<title>Node13&#45;&gt;Node14</title>
<path fill="none" stroke="#191970" d="M100.4775,-64.7769C91.1084,-55.1401 80.636,-44.3684 72.1043,-35.593"/>
<polygon fill="#191970" stroke="#191970" points="98.2163,-67.4721 107.6966,-72.2022 103.2353,-62.5925 98.2163,-67.4721"/>
</g>
<!-- Node15 -->
<g id="node3" class="node">
<title>Node15</title>
<g id="a_node3"><a xlink:href="_main_8cpp.html" target="_top" xlink:title="/home/jacques/repos\l/math4171/src/assignment1\l&#45;src/Main.cpp">
<polygon fill="none" stroke="#000000" points="128.5,-.5 128.5,-35.5 263.5,-35.5 263.5,-.5 128.5,-.5"/>
<text text-anchor="start" x="136.5" y="-25.1" font-family="InputSans" font-size="8.00" fill="#000000">/home/jacques/repos</text>
<text text-anchor="start" x="136.5" y="-16.1" font-family="InputSans" font-size="8.00" fill="#000000">/math4171/src/assignment1</text>
<text text-anchor="middle" x="196" y="-7.1" font-family="InputSans" font-size="8.00" fill="#000000">&#45;src/Main.cpp</text>
</a>
</g>
</g>
<!-- Node13&#45;&gt;Node15 -->
<g id="edge2" class="edge">
<title>Node13&#45;&gt;Node15</title>
<path fill="none" stroke="#191970" d="M149.5909,-65.0628C159.1652,-55.3536 169.9121,-44.4553 178.6513,-35.593"/>
<polygon fill="#191970" stroke="#191970" points="147.0799,-62.6244 142.5506,-72.2022 152.0642,-67.5394 147.0799,-62.6244"/>
</g>
</g>
</svg>
