<?xml version="1.0" encoding="UTF-8" standalone="no"?>
<!DOCTYPE svg PUBLIC "-//W3C//DTD SVG 1.1//EN"
 "http://www.w3.org/Graphics/SVG/1.1/DTD/svg11.dtd">
<!-- Generated by graphviz version 2.40.1 (20161225.0304)
 -->
<!-- Title: /home/jacques/repos/math4171/src/arcplot/SurfPlot3d.cpp Pages: 1 -->
<svg width="837pt" height="260pt"
 viewBox="0.00 0.00 836.69 260.00" xmlns="http://www.w3.org/2000/svg" xmlns:xlink="http://www.w3.org/1999/xlink">
<g id="graph0" class="graph" transform="scale(1 1) rotate(0) translate(4 256)">
<title>/home/jacques/repos/math4171/src/arcplot/SurfPlot3d.cpp</title>
<!-- Node0 -->
<g id="node1" class="node">
<title>Node0</title>
<polygon fill="#bfbfbf" stroke="#000000" points="186.1851,-216.5 186.1851,-251.5 296.1851,-251.5 296.1851,-216.5 186.1851,-216.5"/>
<text text-anchor="start" x="194.1851" y="-241.1" font-family="InputSans" font-size="8.00" fill="#000000">/home/jacques/repos</text>
<text text-anchor="start" x="194.1851" y="-232.1" font-family="InputSans" font-size="8.00" fill="#000000">/math4171/src/arcplot</text>
<text text-anchor="middle" x="241.1851" y="-223.1" font-family="InputSans" font-size="8.00" fill="#000000">/SurfPlot3d.cpp</text>
</g>
<!-- Node1 -->
<g id="node2" class="node">
<title>Node1</title>
<polygon fill="none" stroke="#bfbfbf" points="58.1851,-162.5 58.1851,-179.5 156.1851,-179.5 156.1851,-162.5 58.1851,-162.5"/>
<text text-anchor="middle" x="107.1851" y="-169.1" font-family="InputSans" font-size="8.00" fill="#000000">PythonContext.hpp</text>
</g>
<!-- Node0&#45;&gt;Node1 -->
<g id="edge1" class="edge">
<title>Node0&#45;&gt;Node1</title>
<path fill="none" stroke="#191970" d="M203.8586,-216.451C181.897,-206.1257 154.6049,-193.2944 134.6251,-183.9009"/>
<polygon fill="#191970" stroke="#191970" points="135.9986,-180.6792 125.4597,-179.5918 133.0203,-187.014 135.9986,-180.6792"/>
</g>
<!-- Node2 -->
<g id="node3" class="node">
<title>Node2</title>
<g id="a_node3"><a xlink:href="_python_float_8hpp.html" target="_top" xlink:title="PythonFloat.hpp">
<polygon fill="none" stroke="#000000" points="217.6851,-108.5 217.6851,-125.5 302.6851,-125.5 302.6851,-108.5 217.6851,-108.5"/>
<text text-anchor="middle" x="260.1851" y="-115.1" font-family="InputSans" font-size="8.00" fill="#000000">PythonFloat.hpp</text>
</a>
</g>
</g>
<!-- Node0&#45;&gt;Node2 -->
<g id="edge2" class="edge">
<title>Node0&#45;&gt;Node2</title>
<path fill="none" stroke="#191970" d="M244.0296,-216.4839C247.5558,-194.7697 253.5406,-157.9159 257.152,-135.6775"/>
<polygon fill="#191970" stroke="#191970" points="260.6503,-135.9699 258.7986,-125.5381 253.7408,-134.8478 260.6503,-135.9699"/>
</g>
<!-- Node7 -->
<g id="node8" class="node">
<title>Node7</title>
<g id="a_node8"><a xlink:href="_python_function_8hpp.html" target="_top" xlink:title="PythonFunction.hpp">
<polygon fill="none" stroke="#000000" points="320.6851,-108.5 320.6851,-125.5 419.6851,-125.5 419.6851,-108.5 320.6851,-108.5"/>
<text text-anchor="middle" x="370.1851" y="-115.1" font-family="InputSans" font-size="8.00" fill="#000000">PythonFunction.hpp</text>
</a>
</g>
</g>
<!-- Node0&#45;&gt;Node7 -->
<g id="edge8" class="edge">
<title>Node0&#45;&gt;Node7</title>
<path fill="none" stroke="#191970" d="M260.4977,-216.4839C285.6471,-193.674 329.2158,-154.1582 353.1762,-132.4266"/>
<polygon fill="#191970" stroke="#191970" points="355.7154,-134.8488 360.7712,-125.5381 351.0127,-129.6638 355.7154,-134.8488"/>
</g>
<!-- Node10 -->
<g id="node11" class="node">
<title>Node10</title>
<g id="a_node11"><a xlink:href="_python_list_8hpp.html" target="_top" xlink:title="PythonList.hpp">
<polygon fill="none" stroke="#000000" points="120.6851,-108.5 120.6851,-125.5 199.6851,-125.5 199.6851,-108.5 120.6851,-108.5"/>
<text text-anchor="middle" x="160.1851" y="-115.1" font-family="InputSans" font-size="8.00" fill="#000000">PythonList.hpp</text>
</a>
</g>
</g>
<!-- Node0&#45;&gt;Node10 -->
<g id="edge14" class="edge">
<title>Node0&#45;&gt;Node10</title>
<path fill="none" stroke="#191970" d="M231.6985,-216.3333C223.4537,-201.4407 210.8713,-179.7769 198.1851,-162 191.0573,-152.012 182.2623,-141.5001 174.9291,-133.15"/>
<polygon fill="#191970" stroke="#191970" points="177.4727,-130.7438 168.1992,-125.62 172.2535,-135.4085 177.4727,-130.7438"/>
</g>
<!-- Node12 -->
<g id="node13" class="node">
<title>Node12</title>
<g id="a_node13"><a xlink:href="_python_tupple_8hpp.html" target="_top" xlink:title="PythonTupple.hpp">
<polygon fill="none" stroke="#000000" points="10.1851,-108.5 10.1851,-125.5 102.1851,-125.5 102.1851,-108.5 10.1851,-108.5"/>
<text text-anchor="middle" x="56.1851" y="-115.1" font-family="InputSans" font-size="8.00" fill="#000000">PythonTupple.hpp</text>
</a>
</g>
</g>
<!-- Node0&#45;&gt;Node12 -->
<g id="edge20" class="edge">
<title>Node0&#45;&gt;Node12</title>
<path fill="none" stroke="#191970" d="M226.0703,-216.3754C211.7013,-200.4829 188.8274,-177.3197 165.1851,-162 143.2831,-147.808 116.166,-136.5917 94.4583,-128.9068"/>
<polygon fill="#191970" stroke="#191970" points="95.498,-125.5632 84.9033,-125.6263 93.2249,-132.1839 95.498,-125.5632"/>
</g>
<!-- Node13 -->
<g id="node14" class="node">
<title>Node13</title>
<g id="a_node14"><a xlink:href="_surf_plot3d_8hpp.html" target="_top" xlink:title="SurfPlot3d.hpp">
<polygon fill="none" stroke="#000000" points="437.6851,-162.5 437.6851,-179.5 516.6851,-179.5 516.6851,-162.5 437.6851,-162.5"/>
<text text-anchor="middle" x="477.1851" y="-169.1" font-family="InputSans" font-size="8.00" fill="#000000">SurfPlot3d.hpp</text>
</a>
</g>
</g>
<!-- Node0&#45;&gt;Node13 -->
<g id="edge26" class="edge">
<title>Node0&#45;&gt;Node13</title>
<path fill="none" stroke="#191970" d="M296.2188,-219.3088C338.7291,-207.9607 396.6586,-192.4965 435.4118,-182.1514"/>
<polygon fill="#191970" stroke="#191970" points="436.5579,-185.468 445.3168,-179.5072 434.7524,-178.7049 436.5579,-185.468"/>
</g>
<!-- Node3 -->
<g id="node4" class="node">
<title>Node3</title>
<polygon fill="none" stroke="#bfbfbf" points="481.6851,-54.5 481.6851,-71.5 528.6851,-71.5 528.6851,-54.5 481.6851,-54.5"/>
<text text-anchor="middle" x="505.1851" y="-61.1" font-family="InputSans" font-size="8.00" fill="#000000">cassert</text>
</g>
<!-- Node2&#45;&gt;Node3 -->
<g id="edge3" class="edge">
<title>Node2&#45;&gt;Node3</title>
<path fill="none" stroke="#191970" d="M299.0061,-108.4435C346.5736,-97.9593 426.3861,-80.3679 471.4869,-70.4274"/>
<polygon fill="#191970" stroke="#191970" points="472.3505,-73.8211 481.3627,-68.2506 470.8437,-66.9852 472.3505,-73.8211"/>
</g>
<!-- Node4 -->
<g id="node5" class="node">
<title>Node4</title>
<polygon fill="none" stroke="#bfbfbf" points="223.6851,-54.5 223.6851,-71.5 276.6851,-71.5 276.6851,-54.5 223.6851,-54.5"/>
<text text-anchor="middle" x="250.1851" y="-61.1" font-family="InputSans" font-size="8.00" fill="#000000">memory</text>
</g>
<!-- Node2&#45;&gt;Node4 -->
<g id="edge4" class="edge">
<title>Node2&#45;&gt;Node4</title>
<path fill="none" stroke="#191970" d="M258.5338,-108.083C257.2087,-100.9272 255.3027,-90.6353 253.6464,-81.6911"/>
<polygon fill="#191970" stroke="#191970" points="257.0681,-80.9466 251.8057,-71.7511 250.1851,-82.2212 257.0681,-80.9466"/>
</g>
<!-- Node5 -->
<g id="node6" class="node">
<title>Node5</title>
<polygon fill="none" stroke="#bfbfbf" points="132.1851,-.5 132.1851,-17.5 186.1851,-17.5 186.1851,-.5 132.1851,-.5"/>
<text text-anchor="middle" x="159.1851" y="-7.1" font-family="InputSans" font-size="8.00" fill="#000000">Python.h</text>
</g>
<!-- Node2&#45;&gt;Node5 -->
<g id="edge5" class="edge">
<title>Node2&#45;&gt;Node5</title>
<path fill="none" stroke="#191970" d="M268.713,-108.2171C280.07,-95.4262 297.3863,-71.3136 285.1851,-54 274.6657,-39.0729 229.5363,-25.5064 196.2799,-17.2603"/>
<polygon fill="#191970" stroke="#191970" points="196.9334,-13.8176 186.3916,-14.8763 195.2928,-20.6227 196.9334,-13.8176"/>
</g>
<!-- Node6 -->
<g id="node7" class="node">
<title>Node6</title>
<g id="a_node7"><a xlink:href="_python_object_8hpp.html" target="_top" xlink:title="PythonObject.hpp">
<polygon fill="none" stroke="#000000" points="113.1851,-54.5 113.1851,-71.5 205.1851,-71.5 205.1851,-54.5 113.1851,-54.5"/>
<text text-anchor="middle" x="159.1851" y="-61.1" font-family="InputSans" font-size="8.00" fill="#000000">PythonObject.hpp</text>
</a>
</g>
</g>
<!-- Node2&#45;&gt;Node6 -->
<g id="edge6" class="edge">
<title>Node2&#45;&gt;Node6</title>
<path fill="none" stroke="#191970" d="M243.9577,-108.324C227.8341,-99.7034 202.8849,-86.3643 184.221,-76.3855"/>
<polygon fill="#191970" stroke="#191970" points="185.8412,-73.283 175.3722,-71.6545 182.5407,-79.456 185.8412,-73.283"/>
</g>
<!-- Node6&#45;&gt;Node5 -->
<g id="edge7" class="edge">
<title>Node6&#45;&gt;Node5</title>
<path fill="none" stroke="#191970" d="M159.1851,-54.083C159.1851,-47.0059 159.1851,-36.8611 159.1851,-27.9865"/>
<polygon fill="#191970" stroke="#191970" points="162.6852,-27.751 159.1851,-17.7511 155.6852,-27.7511 162.6852,-27.751"/>
</g>
<!-- Node7&#45;&gt;Node4 -->
<g id="edge11" class="edge">
<title>Node7&#45;&gt;Node4</title>
<path fill="none" stroke="#191970" d="M351.1707,-108.4435C331.5975,-99.6356 300.8775,-85.8116 278.4561,-75.722"/>
<polygon fill="#191970" stroke="#191970" points="279.666,-72.4284 269.1105,-71.5164 276.7934,-78.8119 279.666,-72.4284"/>
</g>
<!-- Node7&#45;&gt;Node5 -->
<g id="edge9" class="edge">
<title>Node7&#45;&gt;Node5</title>
<path fill="none" stroke="#191970" d="M363.151,-108.3815C351.7186,-94.9098 327.7933,-68.8691 302.1851,-54 268.8637,-34.6523 226.2582,-22.6328 196.2503,-15.9361"/>
<polygon fill="#191970" stroke="#191970" points="196.7082,-12.455 186.1974,-13.7861 195.2442,-19.3002 196.7082,-12.455"/>
</g>
<!-- Node7&#45;&gt;Node6 -->
<g id="edge13" class="edge">
<title>Node7&#45;&gt;Node6</title>
<path fill="none" stroke="#191970" d="M336.7515,-108.4435C300.3289,-99.1221 241.9548,-84.1828 202.1558,-73.9972"/>
<polygon fill="#191970" stroke="#191970" points="203.0178,-70.6051 192.4622,-71.5164 201.2822,-77.3866 203.0178,-70.6051"/>
</g>
<!-- Node8 -->
<g id="node9" class="node">
<title>Node8</title>
<polygon fill="none" stroke="#bfbfbf" points="371.1851,-54.5 371.1851,-71.5 425.1851,-71.5 425.1851,-54.5 371.1851,-54.5"/>
<text text-anchor="middle" x="398.1851" y="-61.1" font-family="InputSans" font-size="8.00" fill="#000000">iostream</text>
</g>
<!-- Node7&#45;&gt;Node8 -->
<g id="edge10" class="edge">
<title>Node7&#45;&gt;Node8</title>
<path fill="none" stroke="#191970" d="M374.8087,-108.083C378.6414,-100.6913 384.2093,-89.9533 388.9497,-80.8111"/>
<polygon fill="#191970" stroke="#191970" points="392.1514,-82.2398 393.6475,-71.7511 385.9371,-79.0175 392.1514,-82.2398"/>
</g>
<!-- Node9 -->
<g id="node10" class="node">
<title>Node9</title>
<polygon fill="none" stroke="#bfbfbf" points="446.6851,-.5 446.6851,-17.5 487.6851,-17.5 487.6851,-.5 446.6851,-.5"/>
<text text-anchor="middle" x="467.1851" y="-7.1" font-family="InputSans" font-size="8.00" fill="#000000">string</text>
</g>
<!-- Node7&#45;&gt;Node9 -->
<g id="edge12" class="edge">
<title>Node7&#45;&gt;Node9</title>
<path fill="none" stroke="#191970" d="M386.5484,-108.4374C400.5585,-100.4729 420.5678,-87.5183 434.1851,-72 445.8803,-58.6721 454.839,-40.4718 460.4509,-27.0599"/>
<polygon fill="#191970" stroke="#191970" points="463.8026,-28.1015 464.2224,-17.5149 457.2924,-25.529 463.8026,-28.1015"/>
</g>
<!-- Node10&#45;&gt;Node4 -->
<g id="edge17" class="edge">
<title>Node10&#45;&gt;Node4</title>
<path fill="none" stroke="#191970" d="M174.6451,-108.324C188.6847,-99.9002 210.2336,-86.9709 226.7282,-77.0741"/>
<polygon fill="#191970" stroke="#191970" points="228.9867,-79.8007 235.7609,-71.6545 225.3852,-73.7983 228.9867,-79.8007"/>
</g>
<!-- Node10&#45;&gt;Node5 -->
<g id="edge15" class="edge">
<title>Node10&#45;&gt;Node5</title>
<path fill="none" stroke="#191970" d="M142.6834,-108.4649C129.3978,-100.9169 112.1093,-88.5333 104.1851,-72 94.9094,-52.647 114.6812,-34.6395 133.0492,-22.8756"/>
<polygon fill="#191970" stroke="#191970" points="135.0386,-25.7639 141.82,-17.6237 131.4424,-19.7583 135.0386,-25.7639"/>
</g>
<!-- Node10&#45;&gt;Node6 -->
<g id="edge19" class="edge">
<title>Node10&#45;&gt;Node6</title>
<path fill="none" stroke="#191970" d="M160.02,-108.083C159.8889,-101.0059 159.701,-90.8611 159.5367,-81.9865"/>
<polygon fill="#191970" stroke="#191970" points="163.0318,-81.6845 159.3471,-71.7511 156.033,-81.8142 163.0318,-81.6845"/>
</g>
<!-- Node10&#45;&gt;Node8 -->
<g id="edge16" class="edge">
<title>Node10&#45;&gt;Node8</title>
<path fill="none" stroke="#191970" d="M197.8969,-108.4435C242.6462,-98.2903 316.772,-81.4719 361.2002,-71.3915"/>
<polygon fill="#191970" stroke="#191970" points="362.0362,-74.7909 371.0139,-69.1649 360.4873,-67.9644 362.0362,-74.7909"/>
</g>
<!-- Node11 -->
<g id="node12" class="node">
<title>Node11</title>
<polygon fill="none" stroke="#bfbfbf" points="13.1851,-54.5 13.1851,-71.5 57.1851,-71.5 57.1851,-54.5 13.1851,-54.5"/>
<text text-anchor="middle" x="35.1851" y="-61.1" font-family="InputSans" font-size="8.00" fill="#000000">vector</text>
</g>
<!-- Node10&#45;&gt;Node11 -->
<g id="edge18" class="edge">
<title>Node10&#45;&gt;Node11</title>
<path fill="none" stroke="#191970" d="M140.3785,-108.4435C119.8983,-99.5961 87.7024,-85.6875 64.3204,-75.5865"/>
<polygon fill="#191970" stroke="#191970" points="65.4671,-72.2692 54.899,-71.5164 62.691,-78.6953 65.4671,-72.2692"/>
</g>
<!-- Node12&#45;&gt;Node4 -->
<g id="edge23" class="edge">
<title>Node12&#45;&gt;Node4</title>
<path fill="none" stroke="#191970" d="M86.925,-108.4435C121.3988,-98.8477 177.2614,-83.2984 213.8627,-73.1104"/>
<polygon fill="#191970" stroke="#191970" points="214.9464,-76.4419 223.6415,-70.3884 213.0692,-69.6982 214.9464,-76.4419"/>
</g>
<!-- Node12&#45;&gt;Node5 -->
<g id="edge21" class="edge">
<title>Node12&#45;&gt;Node5</title>
<path fill="none" stroke="#191970" d="M40.0791,-108.4388C19.74,-96.5051 -10.8887,-74.0724 4.1851,-54 18.3396,-35.1516 80.8351,-21.6416 122.0191,-14.594"/>
<polygon fill="#191970" stroke="#191970" points="122.6947,-18.0298 131.9881,-12.9421 121.5504,-11.124 122.6947,-18.0298"/>
</g>
<!-- Node12&#45;&gt;Node6 -->
<g id="edge25" class="edge">
<title>Node12&#45;&gt;Node6</title>
<path fill="none" stroke="#191970" d="M72.7338,-108.324C89.1767,-99.7034 114.6199,-86.3643 133.6535,-76.3855"/>
<polygon fill="#191970" stroke="#191970" points="135.446,-79.3977 142.6774,-71.6545 132.1956,-73.198 135.446,-79.3977"/>
</g>
<!-- Node12&#45;&gt;Node8 -->
<g id="edge22" class="edge">
<title>Node12&#45;&gt;Node8</title>
<path fill="none" stroke="#191970" d="M102.395,-109.4154C105.3693,-108.9344 108.319,-108.4592 111.1851,-108 200.778,-93.646 306.1863,-77.2428 360.9346,-68.7595"/>
<polygon fill="#191970" stroke="#191970" points="361.5244,-72.2099 370.8709,-67.2206 360.453,-65.2924 361.5244,-72.2099"/>
</g>
<!-- Node12&#45;&gt;Node11 -->
<g id="edge24" class="edge">
<title>Node12&#45;&gt;Node11</title>
<path fill="none" stroke="#191970" d="M52.7174,-108.083C49.8734,-100.77 45.7556,-90.1814 42.2253,-81.1034"/>
<polygon fill="#191970" stroke="#191970" points="45.4748,-79.8025 38.5883,-71.7511 38.9508,-82.3397 45.4748,-79.8025"/>
</g>
<!-- Node13&#45;&gt;Node8 -->
<g id="edge27" class="edge">
<title>Node13&#45;&gt;Node8</title>
<path fill="none" stroke="#191970" d="M470.7202,-162.1619C457.5772,-144.1943 427.5477,-103.1413 410.5353,-79.8838"/>
<polygon fill="#191970" stroke="#191970" points="413.2474,-77.6632 404.5185,-71.6584 407.5976,-81.7959 413.2474,-77.6632"/>
</g>
<!-- Node14 -->
<g id="node15" class="node">
<title>Node14</title>
<polygon fill="none" stroke="#bfbfbf" points="547.1851,-108.5 547.1851,-125.5 605.1851,-125.5 605.1851,-108.5 547.1851,-108.5"/>
<text text-anchor="middle" x="576.1851" y="-115.1" font-family="InputSans" font-size="8.00" fill="#000000">functional</text>
</g>
<!-- Node13&#45;&gt;Node14 -->
<g id="edge28" class="edge">
<title>Node13&#45;&gt;Node14</title>
<path fill="none" stroke="#191970" d="M493.0912,-162.324C508.8233,-153.7428 533.1274,-140.486 551.394,-130.5224"/>
<polygon fill="#191970" stroke="#191970" points="553.2155,-133.5157 560.3185,-125.6545 549.8635,-127.3704 553.2155,-133.5157"/>
</g>
<!-- Node15 -->
<g id="node16" class="node">
<title>Node15</title>
<g id="a_node16"><a xlink:href="_vec_8hpp.html" target="_top" xlink:title="Vec.hpp">
<polygon fill="none" stroke="#000000" points="479.1851,-108.5 479.1851,-125.5 529.1851,-125.5 529.1851,-108.5 479.1851,-108.5"/>
<text text-anchor="middle" x="504.1851" y="-115.1" font-family="InputSans" font-size="8.00" fill="#000000">Vec.hpp</text>
</a>
</g>
</g>
<!-- Node13&#45;&gt;Node15 -->
<g id="edge29" class="edge">
<title>Node13&#45;&gt;Node15</title>
<path fill="none" stroke="#191970" d="M481.6436,-162.083C485.3394,-154.6913 490.7085,-143.9533 495.2795,-134.8111"/>
<polygon fill="#191970" stroke="#191970" points="498.4679,-136.2606 499.8096,-125.7511 492.2069,-133.1301 498.4679,-136.2606"/>
</g>
<!-- Node15&#45;&gt;Node3 -->
<g id="edge30" class="edge">
<title>Node15&#45;&gt;Node3</title>
<path fill="none" stroke="#191970" d="M504.3502,-108.083C504.4813,-101.0059 504.6691,-90.8611 504.8335,-81.9865"/>
<polygon fill="#191970" stroke="#191970" points="508.3372,-81.8142 505.023,-71.7511 501.3384,-81.6845 508.3372,-81.8142"/>
</g>
<!-- Node15&#45;&gt;Node8 -->
<g id="edge31" class="edge">
<title>Node15&#45;&gt;Node8</title>
<path fill="none" stroke="#191970" d="M487.1544,-108.324C470.1553,-99.6641 443.809,-86.2424 424.1924,-76.249"/>
<polygon fill="#191970" stroke="#191970" points="425.6727,-73.0752 415.1736,-71.6545 422.4952,-79.3125 425.6727,-73.0752"/>
</g>
<!-- Node16 -->
<g id="node17" class="node">
<title>Node16</title>
<g id="a_node17"><a xlink:href="_core_math_8hpp.html" target="_top" xlink:title="CoreMath.hpp">
<polygon fill="none" stroke="#000000" points="632.1851,-54.5 632.1851,-71.5 708.1851,-71.5 708.1851,-54.5 632.1851,-54.5"/>
<text text-anchor="middle" x="670.1851" y="-61.1" font-family="InputSans" font-size="8.00" fill="#000000">CoreMath.hpp</text>
</a>
</g>
</g>
<!-- Node15&#45;&gt;Node16 -->
<g id="edge32" class="edge">
<title>Node15&#45;&gt;Node16</title>
<path fill="none" stroke="#191970" d="M529.3969,-108.7986C557.305,-99.72 602.5176,-85.0123 634.1559,-74.7203"/>
<polygon fill="#191970" stroke="#191970" points="635.4852,-77.9685 643.912,-71.5467 633.3197,-71.3119 635.4852,-77.9685"/>
</g>
<!-- Node21 -->
<g id="node22" class="node">
<title>Node21</title>
<g id="a_node22"><a xlink:href="_vec_8inl.html" target="_top" xlink:title="Vec.inl">
<polygon fill="none" stroke="#000000" points="547.1851,-54.5 547.1851,-71.5 591.1851,-71.5 591.1851,-54.5 547.1851,-54.5"/>
<text text-anchor="middle" x="569.1851" y="-61.1" font-family="InputSans" font-size="8.00" fill="#000000">Vec.inl</text>
</a>
</g>
</g>
<!-- Node15&#45;&gt;Node21 -->
<g id="edge37" class="edge">
<title>Node15&#45;&gt;Node21</title>
<path fill="none" stroke="#191970" d="M514.6285,-108.324C524.3313,-100.2631 539.0004,-88.0765 550.6848,-78.3695"/>
<polygon fill="#191970" stroke="#191970" points="553.0964,-80.9163 558.5517,-71.8339 548.6232,-75.532 553.0964,-80.9163"/>
</g>
<!-- Node17 -->
<g id="node18" class="node">
<title>Node17</title>
<polygon fill="none" stroke="#bfbfbf" points="710.6851,-.5 710.6851,-17.5 767.6851,-17.5 767.6851,-.5 710.6851,-.5"/>
<text text-anchor="middle" x="739.1851" y="-7.1" font-family="InputSans" font-size="8.00" fill="#000000">algorithm</text>
</g>
<!-- Node16&#45;&gt;Node17 -->
<g id="edge33" class="edge">
<title>Node16&#45;&gt;Node17</title>
<path fill="none" stroke="#191970" d="M681.2711,-54.324C691.6711,-46.1849 707.4457,-33.8395 719.9067,-24.0874"/>
<polygon fill="#191970" stroke="#191970" points="722.1794,-26.7533 727.8973,-17.8339 717.8652,-21.2407 722.1794,-26.7533"/>
</g>
<!-- Node18 -->
<g id="node19" class="node">
<title>Node18</title>
<polygon fill="none" stroke="#bfbfbf" points="785.6851,-.5 785.6851,-17.5 828.6851,-17.5 828.6851,-.5 785.6851,-.5"/>
<text text-anchor="middle" x="807.1851" y="-7.1" font-family="InputSans" font-size="8.00" fill="#000000">cmath</text>
</g>
<!-- Node16&#45;&gt;Node18 -->
<g id="edge34" class="edge">
<title>Node16&#45;&gt;Node18</title>
<path fill="none" stroke="#191970" d="M691.8931,-54.4435C714.5399,-45.5171 750.2572,-31.4387 775.9369,-21.3168"/>
<polygon fill="#191970" stroke="#191970" points="777.5587,-24.4397 785.5786,-17.5164 774.9917,-17.9273 777.5587,-24.4397"/>
</g>
<!-- Node19 -->
<g id="node20" class="node">
<title>Node19</title>
<polygon fill="none" stroke="#bfbfbf" points="590.1851,-.5 590.1851,-17.5 630.1851,-17.5 630.1851,-.5 590.1851,-.5"/>
<text text-anchor="middle" x="610.1851" y="-7.1" font-family="InputSans" font-size="8.00" fill="#000000">cfloat</text>
</g>
<!-- Node16&#45;&gt;Node19 -->
<g id="edge35" class="edge">
<title>Node16&#45;&gt;Node19</title>
<path fill="none" stroke="#191970" d="M660.5451,-54.324C651.6755,-46.3414 638.3104,-34.3128 627.5772,-24.6529"/>
<polygon fill="#191970" stroke="#191970" points="629.7749,-21.922 620.0005,-17.8339 625.0921,-27.1251 629.7749,-21.922"/>
</g>
<!-- Node20 -->
<g id="node21" class="node">
<title>Node20</title>
<polygon fill="none" stroke="#bfbfbf" points="648.1851,-.5 648.1851,-17.5 692.1851,-17.5 692.1851,-.5 648.1851,-.5"/>
<text text-anchor="middle" x="670.1851" y="-7.1" font-family="InputSans" font-size="8.00" fill="#000000">cstdint</text>
</g>
<!-- Node16&#45;&gt;Node20 -->
<g id="edge36" class="edge">
<title>Node16&#45;&gt;Node20</title>
<path fill="none" stroke="#191970" d="M670.1851,-54.083C670.1851,-47.0059 670.1851,-36.8611 670.1851,-27.9865"/>
<polygon fill="#191970" stroke="#191970" points="673.6852,-27.751 670.1851,-17.7511 666.6852,-27.7511 673.6852,-27.751"/>
</g>
<!-- Node21&#45;&gt;Node9 -->
<g id="edge38" class="edge">
<title>Node21&#45;&gt;Node9</title>
<path fill="none" stroke="#191970" d="M552.797,-54.324C536.5138,-45.7034 511.3176,-32.3643 492.4688,-22.3855"/>
<polygon fill="#191970" stroke="#191970" points="494.008,-19.2402 483.5325,-17.6545 490.7328,-25.4267 494.008,-19.2402"/>
</g>
<!-- Node22 -->
<g id="node23" class="node">
<title>Node22</title>
<polygon fill="none" stroke="#bfbfbf" points="520.6851,-.5 520.6851,-17.5 571.6851,-17.5 571.6851,-.5 520.6851,-.5"/>
<text text-anchor="middle" x="546.1851" y="-7.1" font-family="InputSans" font-size="8.00" fill="#000000">sstream</text>
</g>
<!-- Node21&#45;&gt;Node22 -->
<g id="edge39" class="edge">
<title>Node21&#45;&gt;Node22</title>
<path fill="none" stroke="#191970" d="M565.3871,-54.083C562.2723,-46.77 557.7623,-36.1814 553.8958,-27.1034"/>
<polygon fill="#191970" stroke="#191970" points="557.0512,-25.5798 549.9124,-17.7511 550.611,-28.3229 557.0512,-25.5798"/>
</g>
</g>
</svg>
