<?xml version="1.0" encoding="UTF-8" standalone="no"?>
<!DOCTYPE svg PUBLIC "-//W3C//DTD SVG 1.1//EN"
 "http://www.w3.org/Graphics/SVG/1.1/DTD/svg11.dtd">
<!-- Generated by graphviz version 2.40.1 (20161225.0304)
 -->
<!-- Title: /home/jacques/repos/math4171/src/arcplot/old/SurfPlot3d.hpp Pages: 1 -->
<svg width="425pt" height="206pt"
 viewBox="0.00 0.00 425.00 206.00" xmlns="http://www.w3.org/2000/svg" xmlns:xlink="http://www.w3.org/1999/xlink">
<g id="graph0" class="graph" transform="scale(1 1) rotate(0) translate(4 202)">
<title>/home/jacques/repos/math4171/src/arcplot/old/SurfPlot3d.hpp</title>
<!-- Node0 -->
<g id="node1" class="node">
<title>Node0</title>
<polygon fill="#bfbfbf" stroke="#000000" points="26,-162.5 26,-197.5 155,-197.5 155,-162.5 26,-162.5"/>
<text text-anchor="start" x="34" y="-187.1" font-family="InputSans" font-size="8.00" fill="#000000">/home/jacques/repos</text>
<text text-anchor="start" x="34" y="-178.1" font-family="InputSans" font-size="8.00" fill="#000000">/math4171/src/arcplot</text>
<text text-anchor="middle" x="90.5" y="-169.1" font-family="InputSans" font-size="8.00" fill="#000000">/old/SurfPlot3d.hpp</text>
</g>
<!-- Node1 -->
<g id="node2" class="node">
<title>Node1</title>
<polygon fill="none" stroke="#bfbfbf" points="0,-54.5 0,-71.5 59,-71.5 59,-54.5 0,-54.5"/>
<text text-anchor="middle" x="29.5" y="-61.1" font-family="InputSans" font-size="8.00" fill="#000000">iostream</text>
</g>
<!-- Node0&#45;&gt;Node1 -->
<g id="edge1" class="edge">
<title>Node0&#45;&gt;Node1</title>
<path fill="none" stroke="#191970" d="M73.9088,-162.1703C65.3265,-152.1618 55.2612,-139.0835 48.5,-126 41.1983,-111.8707 36.2192,-94.4772 33.1959,-81.5485"/>
<polygon fill="#191970" stroke="#191970" points="36.5646,-80.5668 31.0333,-71.5305 29.7222,-82.0439 36.5646,-80.5668"/>
</g>
<!-- Node2 -->
<g id="node3" class="node">
<title>Node2</title>
<polygon fill="none" stroke="#bfbfbf" points="58,-108.5 58,-125.5 123,-125.5 123,-108.5 58,-108.5"/>
<text text-anchor="middle" x="90.5" y="-115.1" font-family="InputSans" font-size="8.00" fill="#000000">functional</text>
</g>
<!-- Node0&#45;&gt;Node2 -->
<g id="edge2" class="edge">
<title>Node0&#45;&gt;Node2</title>
<path fill="none" stroke="#191970" d="M90.5,-162.451C90.5,-154.1476 90.5,-144.2234 90.5,-135.7698"/>
<polygon fill="#191970" stroke="#191970" points="94.0001,-135.764 90.5,-125.764 87.0001,-135.7641 94.0001,-135.764"/>
</g>
<!-- Node3 -->
<g id="node4" class="node">
<title>Node3</title>
<g id="a_node4"><a xlink:href="_vec_8hpp.html" target="_top" xlink:title="Vec.hpp">
<polygon fill="none" stroke="#000000" points="141.5,-108.5 141.5,-125.5 195.5,-125.5 195.5,-108.5 141.5,-108.5"/>
<text text-anchor="middle" x="168.5" y="-115.1" font-family="InputSans" font-size="8.00" fill="#000000">Vec.hpp</text>
</a>
</g>
</g>
<!-- Node0&#45;&gt;Node3 -->
<g id="edge3" class="edge">
<title>Node0&#45;&gt;Node3</title>
<path fill="none" stroke="#191970" d="M112.2273,-162.451C124.0094,-152.9347 138.4272,-141.2896 149.7191,-132.1692"/>
<polygon fill="#191970" stroke="#191970" points="152.0691,-134.7702 157.6493,-125.764 147.6707,-129.3246 152.0691,-134.7702"/>
</g>
<!-- Node3&#45;&gt;Node1 -->
<g id="edge5" class="edge">
<title>Node3&#45;&gt;Node1</title>
<path fill="none" stroke="#191970" d="M146.475,-108.4435C123.396,-99.4776 86.938,-85.314 60.8591,-75.1827"/>
<polygon fill="#191970" stroke="#191970" points="62.0107,-71.8753 51.4219,-71.5164 59.4758,-78.4002 62.0107,-71.8753"/>
</g>
<!-- Node4 -->
<g id="node5" class="node">
<title>Node4</title>
<polygon fill="none" stroke="#bfbfbf" points="77,-54.5 77,-71.5 130,-71.5 130,-54.5 77,-54.5"/>
<text text-anchor="middle" x="103.5" y="-61.1" font-family="InputSans" font-size="8.00" fill="#000000">cassert</text>
</g>
<!-- Node3&#45;&gt;Node4 -->
<g id="edge4" class="edge">
<title>Node3&#45;&gt;Node4</title>
<path fill="none" stroke="#191970" d="M158.0566,-108.324C148.3538,-100.2631 133.6847,-88.0765 122.0003,-78.3695"/>
<polygon fill="#191970" stroke="#191970" points="124.0619,-75.532 114.1334,-71.8339 119.5887,-80.9163 124.0619,-75.532"/>
</g>
<!-- Node5 -->
<g id="node6" class="node">
<title>Node5</title>
<g id="a_node6"><a xlink:href="_core_math_8hpp.html" target="_top" xlink:title="CoreMath.hpp">
<polygon fill="none" stroke="#000000" points="148,-54.5 148,-71.5 229,-71.5 229,-54.5 148,-54.5"/>
<text text-anchor="middle" x="188.5" y="-61.1" font-family="InputSans" font-size="8.00" fill="#000000">CoreMath.hpp</text>
</a>
</g>
</g>
<!-- Node3&#45;&gt;Node5 -->
<g id="edge6" class="edge">
<title>Node3&#45;&gt;Node5</title>
<path fill="none" stroke="#191970" d="M171.8026,-108.083C174.482,-100.8486 178.3486,-90.4087 181.6864,-81.3968"/>
<polygon fill="#191970" stroke="#191970" points="185.0678,-82.3442 185.2589,-71.7511 178.5035,-79.9129 185.0678,-82.3442"/>
</g>
<!-- Node10 -->
<g id="node11" class="node">
<title>Node10</title>
<g id="a_node11"><a xlink:href="_vec_8inl.html" target="_top" xlink:title="Vec.inl">
<polygon fill="none" stroke="#000000" points="295,-54.5 295,-71.5 346,-71.5 346,-54.5 295,-54.5"/>
<text text-anchor="middle" x="320.5" y="-61.1" font-family="InputSans" font-size="8.00" fill="#000000">Vec.inl</text>
</a>
</g>
</g>
<!-- Node3&#45;&gt;Node10 -->
<g id="edge11" class="edge">
<title>Node3&#45;&gt;Node10</title>
<path fill="none" stroke="#191970" d="M192.5849,-108.4435C218.0447,-99.3986 258.3938,-85.064 286.9591,-74.9158"/>
<polygon fill="#191970" stroke="#191970" points="288.2765,-78.1622 296.5278,-71.5164 285.9331,-71.5661 288.2765,-78.1622"/>
</g>
<!-- Node6 -->
<g id="node7" class="node">
<title>Node6</title>
<polygon fill="none" stroke="#bfbfbf" points="21,-.5 21,-17.5 84,-17.5 84,-.5 21,-.5"/>
<text text-anchor="middle" x="52.5" y="-7.1" font-family="InputSans" font-size="8.00" fill="#000000">algorithm</text>
</g>
<!-- Node5&#45;&gt;Node6 -->
<g id="edge7" class="edge">
<title>Node5&#45;&gt;Node6</title>
<path fill="none" stroke="#191970" d="M166.9504,-54.4435C144.469,-45.5171 109.0123,-31.4387 83.5201,-21.3168"/>
<polygon fill="#191970" stroke="#191970" points="84.5346,-17.9539 73.9488,-17.5164 81.9513,-24.4598 84.5346,-17.9539"/>
</g>
<!-- Node7 -->
<g id="node8" class="node">
<title>Node7</title>
<polygon fill="none" stroke="#bfbfbf" points="102,-.5 102,-17.5 147,-17.5 147,-.5 102,-.5"/>
<text text-anchor="middle" x="124.5" y="-7.1" font-family="InputSans" font-size="8.00" fill="#000000">cmath</text>
</g>
<!-- Node5&#45;&gt;Node7 -->
<g id="edge8" class="edge">
<title>Node5&#45;&gt;Node7</title>
<path fill="none" stroke="#191970" d="M178.2173,-54.324C168.6637,-46.2631 154.2203,-34.0765 142.7157,-24.3695"/>
<polygon fill="#191970" stroke="#191970" points="144.8698,-21.6076 134.9698,-17.8339 140.3557,-26.9577 144.8698,-21.6076"/>
</g>
<!-- Node8 -->
<g id="node9" class="node">
<title>Node8</title>
<polygon fill="none" stroke="#bfbfbf" points="165.5,-.5 165.5,-17.5 211.5,-17.5 211.5,-.5 165.5,-.5"/>
<text text-anchor="middle" x="188.5" y="-7.1" font-family="InputSans" font-size="8.00" fill="#000000">cfloat</text>
</g>
<!-- Node5&#45;&gt;Node8 -->
<g id="edge9" class="edge">
<title>Node5&#45;&gt;Node8</title>
<path fill="none" stroke="#191970" d="M188.5,-54.083C188.5,-47.0059 188.5,-36.8611 188.5,-27.9865"/>
<polygon fill="#191970" stroke="#191970" points="192.0001,-27.751 188.5,-17.7511 185.0001,-27.7511 192.0001,-27.751"/>
</g>
<!-- Node9 -->
<g id="node10" class="node">
<title>Node9</title>
<polygon fill="none" stroke="#bfbfbf" points="229.5,-.5 229.5,-17.5 279.5,-17.5 279.5,-.5 229.5,-.5"/>
<text text-anchor="middle" x="254.5" y="-7.1" font-family="InputSans" font-size="8.00" fill="#000000">cstdint</text>
</g>
<!-- Node5&#45;&gt;Node9 -->
<g id="edge10" class="edge">
<title>Node5&#45;&gt;Node9</title>
<path fill="none" stroke="#191970" d="M199.104,-54.324C208.9562,-46.2631 223.8509,-34.0765 235.7151,-24.3695"/>
<polygon fill="#191970" stroke="#191970" points="238.1798,-26.8752 243.703,-17.8339 233.7471,-21.4575 238.1798,-26.8752"/>
</g>
<!-- Node11 -->
<g id="node12" class="node">
<title>Node11</title>
<polygon fill="none" stroke="#bfbfbf" points="297.5,-.5 297.5,-17.5 343.5,-17.5 343.5,-.5 297.5,-.5"/>
<text text-anchor="middle" x="320.5" y="-7.1" font-family="InputSans" font-size="8.00" fill="#000000">string</text>
</g>
<!-- Node10&#45;&gt;Node11 -->
<g id="edge12" class="edge">
<title>Node10&#45;&gt;Node11</title>
<path fill="none" stroke="#191970" d="M320.5,-54.083C320.5,-47.0059 320.5,-36.8611 320.5,-27.9865"/>
<polygon fill="#191970" stroke="#191970" points="324.0001,-27.751 320.5,-17.7511 317.0001,-27.7511 324.0001,-27.751"/>
</g>
<!-- Node12 -->
<g id="node13" class="node">
<title>Node12</title>
<polygon fill="none" stroke="#bfbfbf" points="362,-.5 362,-17.5 417,-17.5 417,-.5 362,-.5"/>
<text text-anchor="middle" x="389.5" y="-7.1" font-family="InputSans" font-size="8.00" fill="#000000">sstream</text>
</g>
<!-- Node10&#45;&gt;Node12 -->
<g id="edge13" class="edge">
<title>Node10&#45;&gt;Node12</title>
<path fill="none" stroke="#191970" d="M331.586,-54.324C341.986,-46.1849 357.7606,-33.8395 370.2216,-24.0874"/>
<polygon fill="#191970" stroke="#191970" points="372.4943,-26.7533 378.2122,-17.8339 368.1801,-21.2407 372.4943,-26.7533"/>
</g>
</g>
</svg>
