<?xml version="1.0" encoding="UTF-8" standalone="no"?>
<!DOCTYPE svg PUBLIC "-//W3C//DTD SVG 1.1//EN"
 "http://www.w3.org/Graphics/SVG/1.1/DTD/svg11.dtd">
<!-- Generated by graphviz version 2.40.1 (20161225.0304)
 -->
<!-- Title: /home/jacques/repos/math4171/src/arcplot/old/SurfPlot3d.cpp Pages: 1 -->
<svg width="914pt" height="260pt"
 viewBox="0.00 0.00 913.63 260.00" xmlns="http://www.w3.org/2000/svg" xmlns:xlink="http://www.w3.org/1999/xlink">
<g id="graph0" class="graph" transform="scale(1 1) rotate(0) translate(4 256)">
<title>/home/jacques/repos/math4171/src/arcplot/old/SurfPlot3d.cpp</title>
<!-- Node0 -->
<g id="node1" class="node">
<title>Node0</title>
<polygon fill="#bfbfbf" stroke="#000000" points="441,-216.5 441,-251.5 570,-251.5 570,-216.5 441,-216.5"/>
<text text-anchor="start" x="449" y="-241.1" font-family="InputSans" font-size="8.00" fill="#000000">/home/jacques/repos</text>
<text text-anchor="start" x="449" y="-232.1" font-family="InputSans" font-size="8.00" fill="#000000">/math4171/src/arcplot</text>
<text text-anchor="middle" x="505.5" y="-223.1" font-family="InputSans" font-size="8.00" fill="#000000">/old/SurfPlot3d.cpp</text>
</g>
<!-- Node1 -->
<g id="node2" class="node">
<title>Node1</title>
<polygon fill="none" stroke="#bfbfbf" points="173,-162.5 173,-179.5 276,-179.5 276,-162.5 173,-162.5"/>
<text text-anchor="middle" x="224.5" y="-169.1" font-family="InputSans" font-size="8.00" fill="#000000">PythonContext.hpp</text>
</g>
<!-- Node0&#45;&gt;Node1 -->
<g id="edge1" class="edge">
<title>Node0&#45;&gt;Node1</title>
<path fill="none" stroke="#191970" d="M440.6801,-219.4674C389.3393,-207.9568 318.7814,-192.1378 272.4351,-181.747"/>
<polygon fill="#191970" stroke="#191970" points="273.1648,-178.3238 262.6413,-179.5513 271.6334,-185.1542 273.1648,-178.3238"/>
</g>
<!-- Node2 -->
<g id="node3" class="node">
<title>Node2</title>
<g id="a_node3"><a xlink:href="_python_float_8hpp.html" target="_top" xlink:title="PythonFloat.hpp">
<polygon fill="none" stroke="#000000" points="400.5,-162.5 400.5,-179.5 492.5,-179.5 492.5,-162.5 400.5,-162.5"/>
<text text-anchor="middle" x="446.5" y="-169.1" font-family="InputSans" font-size="8.00" fill="#000000">PythonFloat.hpp</text>
</a>
</g>
</g>
<!-- Node0&#45;&gt;Node2 -->
<g id="edge2" class="edge">
<title>Node0&#45;&gt;Node2</title>
<path fill="none" stroke="#191970" d="M489.0652,-216.451C480.5026,-207.3079 470.0997,-196.1997 461.7216,-187.2536"/>
<polygon fill="#191970" stroke="#191970" points="464.0978,-184.6706 454.7076,-179.764 458.9885,-189.4555 464.0978,-184.6706"/>
</g>
<!-- Node7 -->
<g id="node8" class="node">
<title>Node7</title>
<g id="a_node8"><a xlink:href="_python_function_8hpp.html" target="_top" xlink:title="PythonFunction.hpp">
<polygon fill="none" stroke="#000000" points="511,-162.5 511,-179.5 618,-179.5 618,-162.5 511,-162.5"/>
<text text-anchor="middle" x="564.5" y="-169.1" font-family="InputSans" font-size="8.00" fill="#000000">PythonFunction.hpp</text>
</a>
</g>
</g>
<!-- Node0&#45;&gt;Node7 -->
<g id="edge8" class="edge">
<title>Node0&#45;&gt;Node7</title>
<path fill="none" stroke="#191970" d="M521.9348,-216.451C530.4974,-207.3079 540.9003,-196.1997 549.2784,-187.2536"/>
<polygon fill="#191970" stroke="#191970" points="552.0115,-189.4555 556.2924,-179.764 546.9022,-184.6706 552.0115,-189.4555"/>
</g>
<!-- Node10 -->
<g id="node11" class="node">
<title>Node10</title>
<g id="a_node11"><a xlink:href="_python_list_8hpp.html" target="_top" xlink:title="PythonList.hpp">
<polygon fill="none" stroke="#000000" points="780.5,-162.5 780.5,-179.5 866.5,-179.5 866.5,-162.5 780.5,-162.5"/>
<text text-anchor="middle" x="823.5" y="-169.1" font-family="InputSans" font-size="8.00" fill="#000000">PythonList.hpp</text>
</a>
</g>
</g>
<!-- Node0&#45;&gt;Node10 -->
<g id="edge14" class="edge">
<title>Node0&#45;&gt;Node10</title>
<path fill="none" stroke="#191970" d="M570.2353,-221.1751C629.2159,-209.4903 715.2807,-192.4397 770.3347,-181.5328"/>
<polygon fill="#191970" stroke="#191970" points="771.1109,-184.9471 780.2401,-179.5704 769.7505,-178.0805 771.1109,-184.9471"/>
</g>
<!-- Node12 -->
<g id="node13" class="node">
<title>Node12</title>
<g id="a_node13"><a xlink:href="_python_tuple_8hpp.html" target="_top" xlink:title="PythonTuple.hpp">
<polygon fill="none" stroke="#000000" points="659.5,-162.5 659.5,-179.5 751.5,-179.5 751.5,-162.5 659.5,-162.5"/>
<text text-anchor="middle" x="705.5" y="-169.1" font-family="InputSans" font-size="8.00" fill="#000000">PythonTuple.hpp</text>
</a>
</g>
</g>
<!-- Node0&#45;&gt;Node12 -->
<g id="edge20" class="edge">
<title>Node0&#45;&gt;Node12</title>
<path fill="none" stroke="#191970" d="M561.2112,-216.451C595.5835,-205.6237 638.7042,-192.0407 668.815,-182.5558"/>
<polygon fill="#191970" stroke="#191970" points="670.0098,-185.849 678.4963,-179.5062 667.9067,-179.1724 670.0098,-185.849"/>
</g>
<!-- Node13 -->
<g id="node14" class="node">
<title>Node13</title>
<g id="a_node14"><a xlink:href="_surf_plot3d_8hpp.html" target="_top" xlink:title="SurfPlot3d.hpp">
<polygon fill="none" stroke="#000000" points="294.5,-162.5 294.5,-179.5 382.5,-179.5 382.5,-162.5 294.5,-162.5"/>
<text text-anchor="middle" x="338.5" y="-169.1" font-family="InputSans" font-size="8.00" fill="#000000">SurfPlot3d.hpp</text>
</a>
</g>
</g>
<!-- Node0&#45;&gt;Node13 -->
<g id="edge26" class="edge">
<title>Node0&#45;&gt;Node13</title>
<path fill="none" stroke="#191970" d="M458.9812,-216.451C430.8646,-205.8441 395.7376,-192.5926 370.6811,-183.1402"/>
<polygon fill="#191970" stroke="#191970" points="371.8669,-179.8468 361.2751,-179.5918 369.3961,-186.3962 371.8669,-179.8468"/>
</g>
<!-- Node3 -->
<g id="node4" class="node">
<title>Node3</title>
<polygon fill="none" stroke="#bfbfbf" points="321,-54.5 321,-71.5 374,-71.5 374,-54.5 321,-54.5"/>
<text text-anchor="middle" x="347.5" y="-61.1" font-family="InputSans" font-size="8.00" fill="#000000">cassert</text>
</g>
<!-- Node2&#45;&gt;Node3 -->
<g id="edge3" class="edge">
<title>Node2&#45;&gt;Node3</title>
<path fill="none" stroke="#191970" d="M435.1212,-162.3378C424.1438,-153.7166 407.3469,-139.8124 394.5,-126 381.0389,-111.5272 367.7644,-93.2638 358.7746,-80.1324"/>
<polygon fill="#191970" stroke="#191970" points="361.527,-77.9532 353.0444,-71.6052 355.717,-81.8574 361.527,-77.9532"/>
</g>
<!-- Node4 -->
<g id="node5" class="node">
<title>Node4</title>
<polygon fill="none" stroke="#bfbfbf" points="609,-54.5 609,-71.5 666,-71.5 666,-54.5 609,-54.5"/>
<text text-anchor="middle" x="637.5" y="-61.1" font-family="InputSans" font-size="8.00" fill="#000000">Python.h</text>
</g>
<!-- Node2&#45;&gt;Node4 -->
<g id="edge4" class="edge">
<title>Node2&#45;&gt;Node4</title>
<path fill="none" stroke="#191970" d="M461.8075,-162.3445C494.9983,-143.5769 573.7967,-99.0207 613.6058,-76.5109"/>
<polygon fill="#191970" stroke="#191970" points="615.4027,-79.5156 622.3848,-71.5468 611.9572,-73.4223 615.4027,-79.5156"/>
</g>
<!-- Node5 -->
<g id="node6" class="node">
<title>Node5</title>
<g id="a_node6"><a xlink:href="_python_object_8hpp.html" target="_top" xlink:title="PythonObject.hpp">
<polygon fill="none" stroke="#000000" points="588.5,-108.5 588.5,-125.5 686.5,-125.5 686.5,-108.5 588.5,-108.5"/>
<text text-anchor="middle" x="637.5" y="-115.1" font-family="InputSans" font-size="8.00" fill="#000000">PythonObject.hpp</text>
</a>
</g>
</g>
<!-- Node2&#45;&gt;Node5 -->
<g id="edge5" class="edge">
<title>Node2&#45;&gt;Node5</title>
<path fill="none" stroke="#191970" d="M476.7645,-162.4435C509.4553,-153.2011 561.6816,-138.4356 597.6829,-128.2572"/>
<polygon fill="#191970" stroke="#191970" points="598.7065,-131.6051 607.3771,-125.5164 596.802,-124.8691 598.7065,-131.6051"/>
</g>
<!-- Node5&#45;&gt;Node4 -->
<g id="edge7" class="edge">
<title>Node5&#45;&gt;Node4</title>
<path fill="none" stroke="#191970" d="M637.5,-108.083C637.5,-101.0059 637.5,-90.8611 637.5,-81.9865"/>
<polygon fill="#191970" stroke="#191970" points="641.0001,-81.751 637.5,-71.7511 634.0001,-81.7511 641.0001,-81.751"/>
</g>
<!-- Node6 -->
<g id="node7" class="node">
<title>Node6</title>
<polygon fill="none" stroke="#bfbfbf" points="493,-54.5 493,-71.5 552,-71.5 552,-54.5 493,-54.5"/>
<text text-anchor="middle" x="522.5" y="-61.1" font-family="InputSans" font-size="8.00" fill="#000000">iostream</text>
</g>
<!-- Node5&#45;&gt;Node6 -->
<g id="edge6" class="edge">
<title>Node5&#45;&gt;Node6</title>
<path fill="none" stroke="#191970" d="M619.2779,-108.4435C600.6043,-99.6751 571.344,-85.9355 549.8826,-75.8579"/>
<polygon fill="#191970" stroke="#191970" points="551.1763,-72.5988 540.6368,-71.5164 548.2009,-78.935 551.1763,-72.5988"/>
</g>
<!-- Node7&#45;&gt;Node4 -->
<g id="edge9" class="edge">
<title>Node7&#45;&gt;Node4</title>
<path fill="none" stroke="#191970" d="M564.783,-162.1375C565.5762,-149.2475 568.5391,-125.0126 579.5,-108 587.6958,-95.2792 600.7658,-84.6781 612.4256,-76.967"/>
<polygon fill="#191970" stroke="#191970" points="614.3274,-79.9059 620.9629,-71.6463 610.625,-73.9651 614.3274,-79.9059"/>
</g>
<!-- Node7&#45;&gt;Node5 -->
<g id="edge13" class="edge">
<title>Node7&#45;&gt;Node5</title>
<path fill="none" stroke="#191970" d="M576.2287,-162.324C587.3374,-154.1066 604.2422,-141.6017 617.4833,-131.8069"/>
<polygon fill="#191970" stroke="#191970" points="619.5999,-134.5948 625.5579,-125.8339 615.4369,-128.9671 619.5999,-134.5948"/>
</g>
<!-- Node7&#45;&gt;Node6 -->
<g id="edge10" class="edge">
<title>Node7&#45;&gt;Node6</title>
<path fill="none" stroke="#191970" d="M546.9983,-162.4649C533.7127,-154.9169 516.4242,-142.5333 508.5,-126 501.622,-111.6495 506.6853,-93.8303 512.5568,-80.8087"/>
<polygon fill="#191970" stroke="#191970" points="515.8473,-82.0568 517.2262,-71.552 509.5975,-78.9041 515.8473,-82.0568"/>
</g>
<!-- Node8 -->
<g id="node9" class="node">
<title>Node8</title>
<polygon fill="none" stroke="#bfbfbf" points="705,-108.5 705,-125.5 756,-125.5 756,-108.5 705,-108.5"/>
<text text-anchor="middle" x="730.5" y="-115.1" font-family="InputSans" font-size="8.00" fill="#000000">memory</text>
</g>
<!-- Node7&#45;&gt;Node8 -->
<g id="edge11" class="edge">
<title>Node7&#45;&gt;Node8</title>
<path fill="none" stroke="#191970" d="M590.8032,-162.4435C619.0158,-153.2659 663.9696,-138.6424 695.2341,-128.472"/>
<polygon fill="#191970" stroke="#191970" points="696.4385,-131.7608 704.8653,-125.339 694.2731,-125.1042 696.4385,-131.7608"/>
</g>
<!-- Node9 -->
<g id="node10" class="node">
<title>Node9</title>
<polygon fill="none" stroke="#bfbfbf" points="368.5,-.5 368.5,-17.5 414.5,-17.5 414.5,-.5 368.5,-.5"/>
<text text-anchor="middle" x="391.5" y="-7.1" font-family="InputSans" font-size="8.00" fill="#000000">string</text>
</g>
<!-- Node7&#45;&gt;Node9 -->
<g id="edge12" class="edge">
<title>Node7&#45;&gt;Node9</title>
<path fill="none" stroke="#191970" d="M550.6571,-162.4638C537.2664,-153.9361 516.6795,-140.0992 500.5,-126 463.0113,-93.3315 424.6219,-49.1007 404.9447,-25.4802"/>
<polygon fill="#191970" stroke="#191970" points="407.4254,-22.9875 398.3603,-17.5036 402.0271,-27.4437 407.4254,-22.9875"/>
</g>
<!-- Node10&#45;&gt;Node4 -->
<g id="edge15" class="edge">
<title>Node10&#45;&gt;Node4</title>
<path fill="none" stroke="#191970" d="M849.117,-162.4376C878.3107,-151.3423 919.6539,-130.7095 900.5,-108 886.1897,-91.0332 745.8912,-74.2484 676.2744,-66.8833"/>
<polygon fill="#191970" stroke="#191970" points="676.448,-63.3825 666.1385,-65.8248 675.7209,-70.3446 676.448,-63.3825"/>
</g>
<!-- Node10&#45;&gt;Node5 -->
<g id="edge19" class="edge">
<title>Node10&#45;&gt;Node5</title>
<path fill="none" stroke="#191970" d="M794.0277,-162.4435C762.3288,-153.2406 711.768,-138.5617 676.7251,-128.3879"/>
<polygon fill="#191970" stroke="#191970" points="677.4137,-124.9434 666.8344,-125.5164 675.462,-131.6658 677.4137,-124.9434"/>
</g>
<!-- Node10&#45;&gt;Node6 -->
<g id="edge16" class="edge">
<title>Node10&#45;&gt;Node6</title>
<path fill="none" stroke="#191970" d="M837.0205,-162.4105C855.1545,-149.8605 883.3442,-126.045 867.5,-108 864.9902,-105.1416 652.6455,-78.8982 562.3817,-67.8581"/>
<polygon fill="#191970" stroke="#191970" points="562.6054,-64.3595 552.2547,-66.6206 561.7563,-71.3078 562.6054,-64.3595"/>
</g>
<!-- Node10&#45;&gt;Node8 -->
<g id="edge17" class="edge">
<title>Node10&#45;&gt;Node8</title>
<path fill="none" stroke="#191970" d="M808.5579,-162.324C793.9148,-153.8215 771.3663,-140.7288 754.2623,-130.7975"/>
<polygon fill="#191970" stroke="#191970" points="755.8104,-127.6491 745.405,-125.6545 752.2954,-133.7027 755.8104,-127.6491"/>
</g>
<!-- Node11 -->
<g id="node12" class="node">
<title>Node11</title>
<polygon fill="none" stroke="#bfbfbf" points="812.5,-108.5 812.5,-125.5 858.5,-125.5 858.5,-108.5 812.5,-108.5"/>
<text text-anchor="middle" x="835.5" y="-115.1" font-family="InputSans" font-size="8.00" fill="#000000">vector</text>
</g>
<!-- Node10&#45;&gt;Node11 -->
<g id="edge18" class="edge">
<title>Node10&#45;&gt;Node11</title>
<path fill="none" stroke="#191970" d="M825.4816,-162.083C827.0717,-154.9272 829.3588,-144.6353 831.3464,-135.6911"/>
<polygon fill="#191970" stroke="#191970" points="834.8026,-136.2722 833.5553,-125.7511 827.9693,-134.7537 834.8026,-136.2722"/>
</g>
<!-- Node12&#45;&gt;Node4 -->
<g id="edge21" class="edge">
<title>Node12&#45;&gt;Node4</title>
<path fill="none" stroke="#191970" d="M724.7006,-162.3503C747.5142,-150.8427 780.6925,-129.4451 765.5,-108 754.8874,-93.0197 709.7434,-79.5986 676.054,-71.3917"/>
<polygon fill="#191970" stroke="#191970" points="676.5546,-67.9136 666.0174,-69.0162 674.9424,-74.7254 676.5546,-67.9136"/>
</g>
<!-- Node12&#45;&gt;Node5 -->
<g id="edge25" class="edge">
<title>Node12&#45;&gt;Node5</title>
<path fill="none" stroke="#191970" d="M694.5746,-162.324C684.3254,-154.1849 668.7794,-141.8395 656.499,-132.0874"/>
<polygon fill="#191970" stroke="#191970" points="658.6319,-129.3119 648.6242,-125.8339 654.2787,-134.7937 658.6319,-129.3119"/>
</g>
<!-- Node12&#45;&gt;Node6 -->
<g id="edge22" class="edge">
<title>Node12&#45;&gt;Node6</title>
<path fill="none" stroke="#191970" d="M666.8544,-162.4849C640.6823,-155.4974 606.1502,-143.8126 579.5,-126 560.9908,-113.6287 544.4928,-93.9451 534.0688,-79.8725"/>
<polygon fill="#191970" stroke="#191970" points="536.7969,-77.6702 528.1357,-71.5682 531.1013,-81.7396 536.7969,-77.6702"/>
</g>
<!-- Node12&#45;&gt;Node8 -->
<g id="edge23" class="edge">
<title>Node12&#45;&gt;Node8</title>
<path fill="none" stroke="#191970" d="M709.6282,-162.083C713.0139,-154.77 717.916,-144.1814 722.1188,-135.1034"/>
<polygon fill="#191970" stroke="#191970" points="725.4234,-136.2962 726.4486,-125.7511 719.0711,-133.3553 725.4234,-136.2962"/>
</g>
<!-- Node12&#45;&gt;Node11 -->
<g id="edge24" class="edge">
<title>Node12&#45;&gt;Node11</title>
<path fill="none" stroke="#191970" d="M726.0989,-162.4435C747.4934,-153.5566 781.1812,-139.5632 805.5244,-129.4514"/>
<polygon fill="#191970" stroke="#191970" points="807.1052,-132.5848 814.9975,-125.5164 804.4199,-126.1203 807.1052,-132.5848"/>
</g>
<!-- Node13&#45;&gt;Node6 -->
<g id="edge27" class="edge">
<title>Node13&#45;&gt;Node6</title>
<path fill="none" stroke="#191970" d="M350.3539,-162.3422C367.8808,-149.7071 401.9366,-125.7867 432.5,-108 452.6283,-96.2861 476.1994,-84.569 494.169,-76.0287"/>
<polygon fill="#191970" stroke="#191970" points="495.9592,-79.0546 503.5185,-71.6311 492.9798,-72.7203 495.9592,-79.0546"/>
</g>
<!-- Node14 -->
<g id="node15" class="node">
<title>Node14</title>
<polygon fill="none" stroke="#bfbfbf" points="167,-108.5 167,-125.5 232,-125.5 232,-108.5 167,-108.5"/>
<text text-anchor="middle" x="199.5" y="-115.1" font-family="InputSans" font-size="8.00" fill="#000000">functional</text>
</g>
<!-- Node13&#45;&gt;Node14 -->
<g id="edge28" class="edge">
<title>Node13&#45;&gt;Node14</title>
<path fill="none" stroke="#191970" d="M316.475,-162.4435C293.396,-153.4776 256.938,-139.314 230.8591,-129.1827"/>
<polygon fill="#191970" stroke="#191970" points="232.0107,-125.8753 221.4219,-125.5164 229.4758,-132.4002 232.0107,-125.8753"/>
</g>
<!-- Node15 -->
<g id="node16" class="node">
<title>Node15</title>
<g id="a_node16"><a xlink:href="_vec_8hpp.html" target="_top" xlink:title="Vec.hpp">
<polygon fill="none" stroke="#000000" points="250.5,-108.5 250.5,-125.5 304.5,-125.5 304.5,-108.5 250.5,-108.5"/>
<text text-anchor="middle" x="277.5" y="-115.1" font-family="InputSans" font-size="8.00" fill="#000000">Vec.hpp</text>
</a>
</g>
</g>
<!-- Node13&#45;&gt;Node15 -->
<g id="edge29" class="edge">
<title>Node13&#45;&gt;Node15</title>
<path fill="none" stroke="#191970" d="M328.6993,-162.324C319.6819,-154.3414 306.094,-142.3128 295.182,-132.6529"/>
<polygon fill="#191970" stroke="#191970" points="297.2866,-129.8416 287.479,-125.8339 292.6467,-135.083 297.2866,-129.8416"/>
</g>
<!-- Node15&#45;&gt;Node3 -->
<g id="edge30" class="edge">
<title>Node15&#45;&gt;Node3</title>
<path fill="none" stroke="#191970" d="M288.7467,-108.324C299.2974,-100.1849 315.3007,-87.8395 327.9422,-78.0874"/>
<polygon fill="#191970" stroke="#191970" points="330.2686,-80.7132 336.0487,-71.8339 325.993,-75.1707 330.2686,-80.7132"/>
</g>
<!-- Node15&#45;&gt;Node6 -->
<g id="edge31" class="edge">
<title>Node15&#45;&gt;Node6</title>
<path fill="none" stroke="#191970" d="M304.6554,-111.0147C348.0147,-101.458 433.0808,-82.7087 483.1211,-71.6794"/>
<polygon fill="#191970" stroke="#191970" points="483.9274,-75.0858 492.9397,-69.5153 482.4207,-68.2499 483.9274,-75.0858"/>
</g>
<!-- Node16 -->
<g id="node17" class="node">
<title>Node16</title>
<g id="a_node17"><a xlink:href="_core_math_8hpp.html" target="_top" xlink:title="CoreMath.hpp">
<polygon fill="none" stroke="#000000" points="127,-54.5 127,-71.5 208,-71.5 208,-54.5 127,-54.5"/>
<text text-anchor="middle" x="167.5" y="-61.1" font-family="InputSans" font-size="8.00" fill="#000000">CoreMath.hpp</text>
</a>
</g>
</g>
<!-- Node15&#45;&gt;Node16 -->
<g id="edge32" class="edge">
<title>Node15&#45;&gt;Node16</title>
<path fill="none" stroke="#191970" d="M259.8266,-108.324C242.1059,-99.6247 214.5968,-86.1202 194.2116,-76.113"/>
<polygon fill="#191970" stroke="#191970" points="195.6486,-72.9195 185.1295,-71.6545 192.5639,-79.2031 195.6486,-72.9195"/>
</g>
<!-- Node21 -->
<g id="node22" class="node">
<title>Node21</title>
<g id="a_node22"><a xlink:href="_vec_8inl.html" target="_top" xlink:title="Vec.inl">
<polygon fill="none" stroke="#000000" points="252,-54.5 252,-71.5 303,-71.5 303,-54.5 252,-54.5"/>
<text text-anchor="middle" x="277.5" y="-61.1" font-family="InputSans" font-size="8.00" fill="#000000">Vec.inl</text>
</a>
</g>
</g>
<!-- Node15&#45;&gt;Node21 -->
<g id="edge37" class="edge">
<title>Node15&#45;&gt;Node21</title>
<path fill="none" stroke="#191970" d="M277.5,-108.083C277.5,-101.0059 277.5,-90.8611 277.5,-81.9865"/>
<polygon fill="#191970" stroke="#191970" points="281.0001,-81.751 277.5,-71.7511 274.0001,-81.7511 281.0001,-81.751"/>
</g>
<!-- Node17 -->
<g id="node18" class="node">
<title>Node17</title>
<polygon fill="none" stroke="#bfbfbf" points="0,-.5 0,-17.5 63,-17.5 63,-.5 0,-.5"/>
<text text-anchor="middle" x="31.5" y="-7.1" font-family="InputSans" font-size="8.00" fill="#000000">algorithm</text>
</g>
<!-- Node16&#45;&gt;Node17 -->
<g id="edge33" class="edge">
<title>Node16&#45;&gt;Node17</title>
<path fill="none" stroke="#191970" d="M145.9504,-54.4435C123.469,-45.5171 88.0123,-31.4387 62.5201,-21.3168"/>
<polygon fill="#191970" stroke="#191970" points="63.5346,-17.9539 52.9488,-17.5164 60.9513,-24.4598 63.5346,-17.9539"/>
</g>
<!-- Node18 -->
<g id="node19" class="node">
<title>Node18</title>
<polygon fill="none" stroke="#bfbfbf" points="81,-.5 81,-17.5 126,-17.5 126,-.5 81,-.5"/>
<text text-anchor="middle" x="103.5" y="-7.1" font-family="InputSans" font-size="8.00" fill="#000000">cmath</text>
</g>
<!-- Node16&#45;&gt;Node18 -->
<g id="edge34" class="edge">
<title>Node16&#45;&gt;Node18</title>
<path fill="none" stroke="#191970" d="M157.2173,-54.324C147.6637,-46.2631 133.2203,-34.0765 121.7157,-24.3695"/>
<polygon fill="#191970" stroke="#191970" points="123.8698,-21.6076 113.9698,-17.8339 119.3557,-26.9577 123.8698,-21.6076"/>
</g>
<!-- Node19 -->
<g id="node20" class="node">
<title>Node19</title>
<polygon fill="none" stroke="#bfbfbf" points="144.5,-.5 144.5,-17.5 190.5,-17.5 190.5,-.5 144.5,-.5"/>
<text text-anchor="middle" x="167.5" y="-7.1" font-family="InputSans" font-size="8.00" fill="#000000">cfloat</text>
</g>
<!-- Node16&#45;&gt;Node19 -->
<g id="edge35" class="edge">
<title>Node16&#45;&gt;Node19</title>
<path fill="none" stroke="#191970" d="M167.5,-54.083C167.5,-47.0059 167.5,-36.8611 167.5,-27.9865"/>
<polygon fill="#191970" stroke="#191970" points="171.0001,-27.751 167.5,-17.7511 164.0001,-27.7511 171.0001,-27.751"/>
</g>
<!-- Node20 -->
<g id="node21" class="node">
<title>Node20</title>
<polygon fill="none" stroke="#bfbfbf" points="208.5,-.5 208.5,-17.5 258.5,-17.5 258.5,-.5 208.5,-.5"/>
<text text-anchor="middle" x="233.5" y="-7.1" font-family="InputSans" font-size="8.00" fill="#000000">cstdint</text>
</g>
<!-- Node16&#45;&gt;Node20 -->
<g id="edge36" class="edge">
<title>Node16&#45;&gt;Node20</title>
<path fill="none" stroke="#191970" d="M178.104,-54.324C187.9562,-46.2631 202.8509,-34.0765 214.7151,-24.3695"/>
<polygon fill="#191970" stroke="#191970" points="217.1798,-26.8752 222.703,-17.8339 212.7471,-21.4575 217.1798,-26.8752"/>
</g>
<!-- Node21&#45;&gt;Node9 -->
<g id="edge38" class="edge">
<title>Node21&#45;&gt;Node9</title>
<path fill="none" stroke="#191970" d="M295.5636,-54.4435C314.0748,-45.6751 343.0807,-31.9355 364.3555,-21.8579"/>
<polygon fill="#191970" stroke="#191970" points="365.9818,-24.9604 373.5209,-17.5164 362.9852,-18.6343 365.9818,-24.9604"/>
</g>
<!-- Node22 -->
<g id="node23" class="node">
<title>Node22</title>
<polygon fill="none" stroke="#bfbfbf" points="277,-.5 277,-17.5 332,-17.5 332,-.5 277,-.5"/>
<text text-anchor="middle" x="304.5" y="-7.1" font-family="InputSans" font-size="8.00" fill="#000000">sstream</text>
</g>
<!-- Node21&#45;&gt;Node22 -->
<g id="edge39" class="edge">
<title>Node21&#45;&gt;Node22</title>
<path fill="none" stroke="#191970" d="M281.9585,-54.083C285.6543,-46.6913 291.0234,-35.9533 295.5945,-26.8111"/>
<polygon fill="#191970" stroke="#191970" points="298.7828,-28.2606 300.1245,-17.7511 292.5218,-25.1301 298.7828,-28.2606"/>
</g>
</g>
</svg>
