<?xml version="1.0" encoding="UTF-8" standalone="no"?>
<!DOCTYPE svg PUBLIC "-//W3C//DTD SVG 1.1//EN"
 "http://www.w3.org/Graphics/SVG/1.1/DTD/svg11.dtd">
<!-- Generated by graphviz version 2.40.1 (20161225.0304)
 -->
<!-- Title: /home/jacques/repos/math4171/src/arcmath/Vec.hpp Pages: 1 -->
<svg width="425pt" height="152pt"
 viewBox="0.00 0.00 425.00 152.00" xmlns="http://www.w3.org/2000/svg" xmlns:xlink="http://www.w3.org/1999/xlink">
<g id="graph0" class="graph" transform="scale(1 1) rotate(0) translate(4 148)">
<title>/home/jacques/repos/math4171/src/arcmath/Vec.hpp</title>
<!-- Node0 -->
<g id="node1" class="node">
<title>Node0</title>
<polygon fill="#bfbfbf" stroke="#000000" points="77.5,-108.5 77.5,-143.5 211.5,-143.5 211.5,-108.5 77.5,-108.5"/>
<text text-anchor="start" x="85.5" y="-133.1" font-family="InputSans" font-size="8.00" fill="#000000">/home/jacques/repos</text>
<text text-anchor="start" x="85.5" y="-124.1" font-family="InputSans" font-size="8.00" fill="#000000">/math4171/src/arcmath</text>
<text text-anchor="middle" x="144.5" y="-115.1" font-family="InputSans" font-size="8.00" fill="#000000">/Vec.hpp</text>
</g>
<!-- Node1 -->
<g id="node2" class="node">
<title>Node1</title>
<polygon fill="none" stroke="#bfbfbf" points="0,-54.5 0,-71.5 53,-71.5 53,-54.5 0,-54.5"/>
<text text-anchor="middle" x="26.5" y="-61.1" font-family="InputSans" font-size="8.00" fill="#000000">cassert</text>
</g>
<!-- Node0&#45;&gt;Node1 -->
<g id="edge1" class="edge">
<title>Node0&#45;&gt;Node1</title>
<path fill="none" stroke="#191970" d="M111.6304,-108.451C92.6427,-98.3135 69.1301,-85.7601 51.6296,-76.4167"/>
<polygon fill="#191970" stroke="#191970" points="53.0625,-73.2141 42.5926,-71.5918 49.7656,-79.3891 53.0625,-73.2141"/>
</g>
<!-- Node2 -->
<g id="node3" class="node">
<title>Node2</title>
<polygon fill="none" stroke="#bfbfbf" points="71,-54.5 71,-71.5 130,-71.5 130,-54.5 71,-54.5"/>
<text text-anchor="middle" x="100.5" y="-61.1" font-family="InputSans" font-size="8.00" fill="#000000">iostream</text>
</g>
<!-- Node0&#45;&gt;Node2 -->
<g id="edge2" class="edge">
<title>Node0&#45;&gt;Node2</title>
<path fill="none" stroke="#191970" d="M132.2435,-108.451C126.0534,-99.5878 118.5735,-88.8779 112.4297,-80.0811"/>
<polygon fill="#191970" stroke="#191970" points="115.2163,-77.9584 106.6209,-71.764 109.4774,-81.9665 115.2163,-77.9584"/>
</g>
<!-- Node3 -->
<g id="node4" class="node">
<title>Node3</title>
<g id="a_node4"><a xlink:href="_core_math_8hpp.html" target="_top" xlink:title="CoreMath.hpp">
<polygon fill="none" stroke="#000000" points="148,-54.5 148,-71.5 229,-71.5 229,-54.5 148,-54.5"/>
<text text-anchor="middle" x="188.5" y="-61.1" font-family="InputSans" font-size="8.00" fill="#000000">CoreMath.hpp</text>
</a>
</g>
</g>
<!-- Node0&#45;&gt;Node3 -->
<g id="edge3" class="edge">
<title>Node0&#45;&gt;Node3</title>
<path fill="none" stroke="#191970" d="M156.7565,-108.451C162.9466,-99.5878 170.4265,-88.8779 176.5703,-80.0811"/>
<polygon fill="#191970" stroke="#191970" points="179.5226,-81.9665 182.3791,-71.764 173.7837,-77.9584 179.5226,-81.9665"/>
</g>
<!-- Node8 -->
<g id="node9" class="node">
<title>Node8</title>
<g id="a_node9"><a xlink:href="_vec_8inl.html" target="_top" xlink:title="Vec.inl">
<polygon fill="none" stroke="#000000" points="295,-54.5 295,-71.5 346,-71.5 346,-54.5 295,-54.5"/>
<text text-anchor="middle" x="320.5" y="-61.1" font-family="InputSans" font-size="8.00" fill="#000000">Vec.inl</text>
</a>
</g>
</g>
<!-- Node0&#45;&gt;Node8 -->
<g id="edge8" class="edge">
<title>Node0&#45;&gt;Node8</title>
<path fill="none" stroke="#191970" d="M193.5258,-108.451C223.2887,-97.7972 260.5055,-84.4753 286.9345,-75.0149"/>
<polygon fill="#191970" stroke="#191970" points="288.2621,-78.2573 296.4975,-71.5918 285.9029,-71.6668 288.2621,-78.2573"/>
</g>
<!-- Node4 -->
<g id="node5" class="node">
<title>Node4</title>
<polygon fill="none" stroke="#bfbfbf" points="21,-.5 21,-17.5 84,-17.5 84,-.5 21,-.5"/>
<text text-anchor="middle" x="52.5" y="-7.1" font-family="InputSans" font-size="8.00" fill="#000000">algorithm</text>
</g>
<!-- Node3&#45;&gt;Node4 -->
<g id="edge4" class="edge">
<title>Node3&#45;&gt;Node4</title>
<path fill="none" stroke="#191970" d="M166.9504,-54.4435C144.469,-45.5171 109.0123,-31.4387 83.5201,-21.3168"/>
<polygon fill="#191970" stroke="#191970" points="84.5346,-17.9539 73.9488,-17.5164 81.9513,-24.4598 84.5346,-17.9539"/>
</g>
<!-- Node5 -->
<g id="node6" class="node">
<title>Node5</title>
<polygon fill="none" stroke="#bfbfbf" points="102,-.5 102,-17.5 147,-17.5 147,-.5 102,-.5"/>
<text text-anchor="middle" x="124.5" y="-7.1" font-family="InputSans" font-size="8.00" fill="#000000">cmath</text>
</g>
<!-- Node3&#45;&gt;Node5 -->
<g id="edge5" class="edge">
<title>Node3&#45;&gt;Node5</title>
<path fill="none" stroke="#191970" d="M178.2173,-54.324C168.6637,-46.2631 154.2203,-34.0765 142.7157,-24.3695"/>
<polygon fill="#191970" stroke="#191970" points="144.8698,-21.6076 134.9698,-17.8339 140.3557,-26.9577 144.8698,-21.6076"/>
</g>
<!-- Node6 -->
<g id="node7" class="node">
<title>Node6</title>
<polygon fill="none" stroke="#bfbfbf" points="165.5,-.5 165.5,-17.5 211.5,-17.5 211.5,-.5 165.5,-.5"/>
<text text-anchor="middle" x="188.5" y="-7.1" font-family="InputSans" font-size="8.00" fill="#000000">cfloat</text>
</g>
<!-- Node3&#45;&gt;Node6 -->
<g id="edge6" class="edge">
<title>Node3&#45;&gt;Node6</title>
<path fill="none" stroke="#191970" d="M188.5,-54.083C188.5,-47.0059 188.5,-36.8611 188.5,-27.9865"/>
<polygon fill="#191970" stroke="#191970" points="192.0001,-27.751 188.5,-17.7511 185.0001,-27.7511 192.0001,-27.751"/>
</g>
<!-- Node7 -->
<g id="node8" class="node">
<title>Node7</title>
<polygon fill="none" stroke="#bfbfbf" points="229.5,-.5 229.5,-17.5 279.5,-17.5 279.5,-.5 229.5,-.5"/>
<text text-anchor="middle" x="254.5" y="-7.1" font-family="InputSans" font-size="8.00" fill="#000000">cstdint</text>
</g>
<!-- Node3&#45;&gt;Node7 -->
<g id="edge7" class="edge">
<title>Node3&#45;&gt;Node7</title>
<path fill="none" stroke="#191970" d="M199.104,-54.324C208.9562,-46.2631 223.8509,-34.0765 235.7151,-24.3695"/>
<polygon fill="#191970" stroke="#191970" points="238.1798,-26.8752 243.703,-17.8339 233.7471,-21.4575 238.1798,-26.8752"/>
</g>
<!-- Node9 -->
<g id="node10" class="node">
<title>Node9</title>
<polygon fill="none" stroke="#bfbfbf" points="297.5,-.5 297.5,-17.5 343.5,-17.5 343.5,-.5 297.5,-.5"/>
<text text-anchor="middle" x="320.5" y="-7.1" font-family="InputSans" font-size="8.00" fill="#000000">string</text>
</g>
<!-- Node8&#45;&gt;Node9 -->
<g id="edge9" class="edge">
<title>Node8&#45;&gt;Node9</title>
<path fill="none" stroke="#191970" d="M320.5,-54.083C320.5,-47.0059 320.5,-36.8611 320.5,-27.9865"/>
<polygon fill="#191970" stroke="#191970" points="324.0001,-27.751 320.5,-17.7511 317.0001,-27.7511 324.0001,-27.751"/>
</g>
<!-- Node10 -->
<g id="node11" class="node">
<title>Node10</title>
<polygon fill="none" stroke="#bfbfbf" points="362,-.5 362,-17.5 417,-17.5 417,-.5 362,-.5"/>
<text text-anchor="middle" x="389.5" y="-7.1" font-family="InputSans" font-size="8.00" fill="#000000">sstream</text>
</g>
<!-- Node8&#45;&gt;Node10 -->
<g id="edge10" class="edge">
<title>Node8&#45;&gt;Node10</title>
<path fill="none" stroke="#191970" d="M331.586,-54.324C341.986,-46.1849 357.7606,-33.8395 370.2216,-24.0874"/>
<polygon fill="#191970" stroke="#191970" points="372.4943,-26.7533 378.2122,-17.8339 368.1801,-21.2407 372.4943,-26.7533"/>
</g>
</g>
</svg>
