<?xml version="1.0" encoding="UTF-8" standalone="no"?>
<!DOCTYPE svg PUBLIC "-//W3C//DTD SVG 1.1//EN"
 "http://www.w3.org/Graphics/SVG/1.1/DTD/svg11.dtd">
<!-- Generated by graphviz version 2.40.1 (20161225.0304)
 -->
<!-- Title: /home/jacques/repos/math4171/src/arcmath/Vec.hpp Pages: 1 -->
<svg width="482pt" height="188pt"
 viewBox="0.00 0.00 482.00 188.00" xmlns="http://www.w3.org/2000/svg" xmlns:xlink="http://www.w3.org/1999/xlink">
<g id="graph0" class="graph" transform="scale(1 1) rotate(0) translate(4 184)">
<title>/home/jacques/repos/math4171/src/arcmath/Vec.hpp</title>
<!-- Node11 -->
<g id="node1" class="node">
<title>Node11</title>
<polygon fill="#bfbfbf" stroke="#000000" points="177,-144.5 177,-179.5 293,-179.5 293,-144.5 177,-144.5"/>
<text text-anchor="start" x="185" y="-169.1" font-family="InputSans" font-size="8.00" fill="#000000">/home/jacques/repos</text>
<text text-anchor="start" x="185" y="-160.1" font-family="InputSans" font-size="8.00" fill="#000000">/math4171/src/arcmath</text>
<text text-anchor="middle" x="235" y="-151.1" font-family="InputSans" font-size="8.00" fill="#000000">/Vec.hpp</text>
</g>
<!-- Node12 -->
<g id="node2" class="node">
<title>Node12</title>
<g id="a_node2"><a xlink:href="_mat_8hpp.html" target="_top" xlink:title="/home/jacques/repos\l/math4171/src/arcmath\l/Mat.hpp">
<polygon fill="none" stroke="#000000" points="0,-72.5 0,-107.5 116,-107.5 116,-72.5 0,-72.5"/>
<text text-anchor="start" x="8" y="-97.1" font-family="InputSans" font-size="8.00" fill="#000000">/home/jacques/repos</text>
<text text-anchor="start" x="8" y="-88.1" font-family="InputSans" font-size="8.00" fill="#000000">/math4171/src/arcmath</text>
<text text-anchor="middle" x="58" y="-79.1" font-family="InputSans" font-size="8.00" fill="#000000">/Mat.hpp</text>
</a>
</g>
</g>
<!-- Node11&#45;&gt;Node12 -->
<g id="edge1" class="edge">
<title>Node11&#45;&gt;Node12</title>
<path fill="none" stroke="#191970" d="M182.402,-140.6042C156.4985,-130.0672 125.6538,-117.5202 101.1585,-107.556"/>
<polygon fill="#191970" stroke="#191970" points="181.1192,-143.8608 191.7009,-144.3868 183.7568,-137.3767 181.1192,-143.8608"/>
</g>
<!-- Node13 -->
<g id="node3" class="node">
<title>Node13</title>
<g id="a_node3"><a xlink:href="_min_nelder_mead_8hpp.html" target="_top" xlink:title="/home/jacques/repos\l/math4171/src/arcmath\l/MinNelderMead.hpp">
<polygon fill="none" stroke="#000000" points="134,-72.5 134,-107.5 250,-107.5 250,-72.5 134,-72.5"/>
<text text-anchor="start" x="142" y="-97.1" font-family="InputSans" font-size="8.00" fill="#000000">/home/jacques/repos</text>
<text text-anchor="start" x="142" y="-88.1" font-family="InputSans" font-size="8.00" fill="#000000">/math4171/src/arcmath</text>
<text text-anchor="middle" x="192" y="-79.1" font-family="InputSans" font-size="8.00" fill="#000000">/MinNelderMead.hpp</text>
</a>
</g>
</g>
<!-- Node11&#45;&gt;Node13 -->
<g id="edge2" class="edge">
<title>Node11&#45;&gt;Node13</title>
<path fill="none" stroke="#191970" d="M219.0767,-135.3377C213.5469,-126.0785 207.4884,-115.934 202.5069,-107.593"/>
<polygon fill="#191970" stroke="#191970" points="216.2384,-137.4114 224.3708,-144.2022 222.2482,-133.8222 216.2384,-137.4114"/>
</g>
<!-- Node15 -->
<g id="node5" class="node">
<title>Node15</title>
<g id="a_node5"><a xlink:href="_main_8cpp.html" target="_top" xlink:title="/home/jacques/repos\l/math4171/src/assignment1\l&#45;src/Main.cpp">
<polygon fill="none" stroke="#000000" points="210.5,-.5 210.5,-35.5 345.5,-35.5 345.5,-.5 210.5,-.5"/>
<text text-anchor="start" x="218.5" y="-25.1" font-family="InputSans" font-size="8.00" fill="#000000">/home/jacques/repos</text>
<text text-anchor="start" x="218.5" y="-16.1" font-family="InputSans" font-size="8.00" fill="#000000">/math4171/src/assignment1</text>
<text text-anchor="middle" x="278" y="-7.1" font-family="InputSans" font-size="8.00" fill="#000000">&#45;src/Main.cpp</text>
</a>
</g>
</g>
<!-- Node11&#45;&gt;Node15 -->
<g id="edge8" class="edge">
<title>Node11&#45;&gt;Node15</title>
<path fill="none" stroke="#191970" d="M248.2246,-135.2417C252.0899,-126.6857 256.0609,-117.0771 259,-108 266.9693,-83.3876 272.4611,-53.8846 275.4196,-35.5368"/>
<polygon fill="#191970" stroke="#191970" points="245.0221,-133.8278 243.9661,-144.3699 251.3657,-136.7873 245.0221,-133.8278"/>
</g>
<!-- Node16 -->
<g id="node6" class="node">
<title>Node16</title>
<g id="a_node6"><a xlink:href="_surf_plot3d_8hpp.html" target="_top" xlink:title="/home/jacques/repos\l/math4171/src/arcplot\l/SurfPlot3d.hpp">
<polygon fill="none" stroke="#000000" points="306,-72.5 306,-107.5 416,-107.5 416,-72.5 306,-72.5"/>
<text text-anchor="start" x="314" y="-97.1" font-family="InputSans" font-size="8.00" fill="#000000">/home/jacques/repos</text>
<text text-anchor="start" x="314" y="-88.1" font-family="InputSans" font-size="8.00" fill="#000000">/math4171/src/arcplot</text>
<text text-anchor="middle" x="361" y="-79.1" font-family="InputSans" font-size="8.00" fill="#000000">/SurfPlot3d.hpp</text>
</a>
</g>
</g>
<!-- Node11&#45;&gt;Node16 -->
<g id="edge5" class="edge">
<title>Node11&#45;&gt;Node16</title>
<path fill="none" stroke="#191970" d="M274.8537,-139.2264C292.6947,-129.0316 313.412,-117.1931 330.0584,-107.6809"/>
<polygon fill="#191970" stroke="#191970" points="272.769,-136.3865 265.8231,-144.3868 276.242,-142.4642 272.769,-136.3865"/>
</g>
<!-- Node14 -->
<g id="node4" class="node">
<title>Node14</title>
<g id="a_node4"><a xlink:href="_min_nelder_mead_8cpp.html" target="_top" xlink:title="/home/jacques/repos\l/math4171/src/arcmath\l/MinNelderMead.cpp">
<polygon fill="none" stroke="#000000" points="76,-.5 76,-35.5 192,-35.5 192,-.5 76,-.5"/>
<text text-anchor="start" x="84" y="-25.1" font-family="InputSans" font-size="8.00" fill="#000000">/home/jacques/repos</text>
<text text-anchor="start" x="84" y="-16.1" font-family="InputSans" font-size="8.00" fill="#000000">/math4171/src/arcmath</text>
<text text-anchor="middle" x="134" y="-7.1" font-family="InputSans" font-size="8.00" fill="#000000">/MinNelderMead.cpp</text>
</a>
</g>
</g>
<!-- Node13&#45;&gt;Node14 -->
<g id="edge3" class="edge">
<title>Node13&#45;&gt;Node14</title>
<path fill="none" stroke="#191970" d="M171.2192,-64.2031C163.5754,-54.7143 155.1013,-44.1947 148.1722,-35.593"/>
<polygon fill="#191970" stroke="#191970" points="168.6639,-66.6103 177.6629,-72.2022 174.1152,-62.219 168.6639,-66.6103"/>
</g>
<!-- Node13&#45;&gt;Node15 -->
<g id="edge4" class="edge">
<title>Node13&#45;&gt;Node15</title>
<path fill="none" stroke="#191970" d="M221.1056,-65.6325C232.8718,-55.7818 246.193,-44.6291 256.9861,-35.593"/>
<polygon fill="#191970" stroke="#191970" points="218.6792,-63.0992 213.2584,-72.2022 223.1728,-68.4665 218.6792,-63.0992"/>
</g>
<!-- Node16&#45;&gt;Node15 -->
<g id="edge7" class="edge">
<title>Node16&#45;&gt;Node15</title>
<path fill="none" stroke="#191970" d="M332.9097,-65.6325C321.554,-55.7818 308.6974,-44.6291 298.2809,-35.593"/>
<polygon fill="#191970" stroke="#191970" points="330.6357,-68.2933 340.4831,-72.2022 335.2227,-63.0056 330.6357,-68.2933"/>
</g>
<!-- Node17 -->
<g id="node7" class="node">
<title>Node17</title>
<g id="a_node7"><a xlink:href="_surf_plot3d_8cpp.html" target="_top" xlink:title="/home/jacques/repos\l/math4171/src/arcplot\l/SurfPlot3d.cpp">
<polygon fill="none" stroke="#000000" points="364,-.5 364,-35.5 474,-35.5 474,-.5 364,-.5"/>
<text text-anchor="start" x="372" y="-25.1" font-family="InputSans" font-size="8.00" fill="#000000">/home/jacques/repos</text>
<text text-anchor="start" x="372" y="-16.1" font-family="InputSans" font-size="8.00" fill="#000000">/math4171/src/arcplot</text>
<text text-anchor="middle" x="419" y="-7.1" font-family="InputSans" font-size="8.00" fill="#000000">/SurfPlot3d.cpp</text>
</a>
</g>
</g>
<!-- Node16&#45;&gt;Node17 -->
<g id="edge6" class="edge">
<title>Node16&#45;&gt;Node17</title>
<path fill="none" stroke="#191970" d="M381.7808,-64.2031C389.4246,-54.7143 397.8987,-44.1947 404.8278,-35.593"/>
<polygon fill="#191970" stroke="#191970" points="378.8848,-62.219 375.3371,-72.2022 384.3361,-66.6103 378.8848,-62.219"/>
</g>
</g>
</svg>
