<?xml version="1.0" encoding="UTF-8" standalone="no"?>
<!DOCTYPE svg PUBLIC "-//W3C//DTD SVG 1.1//EN"
 "http://www.w3.org/Graphics/SVG/1.1/DTD/svg11.dtd">
<!-- Generated by graphviz version 2.40.1 (20161225.0304)
 -->
<!-- Title: /home/jacques/repos/math4171/src/arcmath/Vec.hpp Pages: 1 -->
<svg width="1086pt" height="188pt"
 viewBox="0.00 0.00 1085.50 188.00" xmlns="http://www.w3.org/2000/svg" xmlns:xlink="http://www.w3.org/1999/xlink">
<g id="graph0" class="graph" transform="scale(1 1) rotate(0) translate(4 184)">
<title>/home/jacques/repos/math4171/src/arcmath/Vec.hpp</title>
<!-- Node11 -->
<g id="node1" class="node">
<title>Node11</title>
<polygon fill="#bfbfbf" stroke="#000000" points="413,-144.5 413,-179.5 547,-179.5 547,-144.5 413,-144.5"/>
<text text-anchor="start" x="421" y="-169.1" font-family="InputSans" font-size="8.00" fill="#000000">/home/jacques/repos</text>
<text text-anchor="start" x="421" y="-160.1" font-family="InputSans" font-size="8.00" fill="#000000">/math4171/src/arcmath</text>
<text text-anchor="middle" x="480" y="-151.1" font-family="InputSans" font-size="8.00" fill="#000000">/Vec.hpp</text>
</g>
<!-- Node12 -->
<g id="node2" class="node">
<title>Node12</title>
<g id="a_node2"><a xlink:href="_mat_8hpp.html" target="_top" xlink:title="/home/jacques/repos\l/math4171/src/arcmath\l/Mat.hpp">
<polygon fill="none" stroke="#000000" points="0,-72.5 0,-107.5 134,-107.5 134,-72.5 0,-72.5"/>
<text text-anchor="start" x="8" y="-97.1" font-family="InputSans" font-size="8.00" fill="#000000">/home/jacques/repos</text>
<text text-anchor="start" x="8" y="-88.1" font-family="InputSans" font-size="8.00" fill="#000000">/math4171/src/arcmath</text>
<text text-anchor="middle" x="67" y="-79.1" font-family="InputSans" font-size="8.00" fill="#000000">/Mat.hpp</text>
</a>
</g>
</g>
<!-- Node11&#45;&gt;Node12 -->
<g id="edge1" class="edge">
<title>Node11&#45;&gt;Node12</title>
<path fill="none" stroke="#191970" d="M402.6507,-151.26C334.1586,-141.3565 231.5926,-125.5644 143,-108 140.0739,-107.4199 137.0894,-106.8065 134.0782,-106.1699"/>
<polygon fill="#191970" stroke="#191970" points="402.5263,-154.778 412.9229,-152.738 403.5234,-147.8494 402.5263,-154.778"/>
</g>
<!-- Node13 -->
<g id="node3" class="node">
<title>Node13</title>
<g id="a_node3"><a xlink:href="_min_nelder_mead_8hpp.html" target="_top" xlink:title="/home/jacques/repos\l/math4171/src/arcmath\l/MinNelderMead.hpp">
<polygon fill="none" stroke="#000000" points="152,-72.5 152,-107.5 286,-107.5 286,-72.5 152,-72.5"/>
<text text-anchor="start" x="160" y="-97.1" font-family="InputSans" font-size="8.00" fill="#000000">/home/jacques/repos</text>
<text text-anchor="start" x="160" y="-88.1" font-family="InputSans" font-size="8.00" fill="#000000">/math4171/src/arcmath</text>
<text text-anchor="middle" x="219" y="-79.1" font-family="InputSans" font-size="8.00" fill="#000000">/MinNelderMead.hpp</text>
</a>
</g>
</g>
<!-- Node11&#45;&gt;Node13 -->
<g id="edge2" class="edge">
<title>Node11&#45;&gt;Node13</title>
<path fill="none" stroke="#191970" d="M406.7668,-141.7977C367.7725,-131.0407 320.2687,-117.9362 282.7989,-107.5997"/>
<polygon fill="#191970" stroke="#191970" points="405.9153,-145.1935 416.486,-144.4789 407.7768,-138.4455 405.9153,-145.1935"/>
</g>
<!-- Node15 -->
<g id="node5" class="node">
<title>Node15</title>
<g id="a_node5"><a xlink:href="assignment1-src_2_main_8cpp.html" target="_top" xlink:title="/home/jacques/repos\l/math4171/src/assignment1\l&#45;src/Main.cpp">
<polygon fill="none" stroke="#000000" points="169.5,-.5 169.5,-35.5 324.5,-35.5 324.5,-.5 169.5,-.5"/>
<text text-anchor="start" x="177.5" y="-25.1" font-family="InputSans" font-size="8.00" fill="#000000">/home/jacques/repos</text>
<text text-anchor="start" x="177.5" y="-16.1" font-family="InputSans" font-size="8.00" fill="#000000">/math4171/src/assignment1</text>
<text text-anchor="middle" x="247" y="-7.1" font-family="InputSans" font-size="8.00" fill="#000000">&#45;src/Main.cpp</text>
</a>
</g>
</g>
<!-- Node11&#45;&gt;Node15 -->
<g id="edge18" class="edge">
<title>Node11&#45;&gt;Node15</title>
<path fill="none" stroke="#191970" d="M404.1868,-141.1884C380.6315,-132.8649 355.2827,-121.8922 334,-108 317.9856,-97.5467 282.8699,-58.9276 262.4865,-35.8115"/>
<polygon fill="#191970" stroke="#191970" points="403.211,-144.5537 413.8056,-144.4787 405.4766,-137.9305 403.211,-144.5537"/>
</g>
<!-- Node16 -->
<g id="node6" class="node">
<title>Node16</title>
<g id="a_node6"><a xlink:href="_contour_plot_8hpp.html" target="_top" xlink:title="/home/jacques/repos\l/math4171/src/arcplot\l/ContourPlot.hpp">
<polygon fill="none" stroke="#000000" points="489.5,-72.5 489.5,-107.5 618.5,-107.5 618.5,-72.5 489.5,-72.5"/>
<text text-anchor="start" x="497.5" y="-97.1" font-family="InputSans" font-size="8.00" fill="#000000">/home/jacques/repos</text>
<text text-anchor="start" x="497.5" y="-88.1" font-family="InputSans" font-size="8.00" fill="#000000">/math4171/src/arcplot</text>
<text text-anchor="middle" x="554" y="-79.1" font-family="InputSans" font-size="8.00" fill="#000000">/ContourPlot.hpp</text>
</a>
</g>
</g>
<!-- Node11&#45;&gt;Node16 -->
<g id="edge5" class="edge">
<title>Node11&#45;&gt;Node16</title>
<path fill="none" stroke="#191970" d="M505.6299,-137.0628C515.6088,-127.3536 526.8098,-116.4553 535.9183,-107.593"/>
<polygon fill="#191970" stroke="#191970" points="503.0187,-134.7201 498.2921,-144.2022 507.9002,-139.7372 503.0187,-134.7201"/>
</g>
<!-- Node18 -->
<g id="node8" class="node">
<title>Node18</title>
<g id="a_node8"><a xlink:href="playground_2_main_8cpp.html" target="_top" xlink:title="/home/jacques/repos\l/math4171/src/playground\l/Main.cpp">
<polygon fill="none" stroke="#000000" points="637,-.5 637,-35.5 783,-35.5 783,-.5 637,-.5"/>
<text text-anchor="start" x="645" y="-25.1" font-family="InputSans" font-size="8.00" fill="#000000">/home/jacques/repos</text>
<text text-anchor="start" x="645" y="-16.1" font-family="InputSans" font-size="8.00" fill="#000000">/math4171/src/playground</text>
<text text-anchor="middle" x="710" y="-7.1" font-family="InputSans" font-size="8.00" fill="#000000">/Main.cpp</text>
</a>
</g>
</g>
<!-- Node11&#45;&gt;Node18 -->
<g id="edge19" class="edge">
<title>Node11&#45;&gt;Node18</title>
<path fill="none" stroke="#191970" d="M557.1077,-141.7132C580.9995,-133.4179 606.6389,-122.3292 628,-108 643.4476,-97.6376 676.4126,-58.9844 695.5071,-35.8382"/>
<polygon fill="#191970" stroke="#191970" points="555.7173,-138.4878 547.3477,-144.984 557.9416,-145.125 555.7173,-138.4878"/>
</g>
<!-- Node19 -->
<g id="node9" class="node">
<title>Node19</title>
<g id="a_node9"><a xlink:href="_list_plot_8hpp.html" target="_top" xlink:title="/home/jacques/repos\l/math4171/src/arcplot\l/ListPlot.hpp">
<polygon fill="none" stroke="#000000" points="675.5,-72.5 675.5,-107.5 804.5,-107.5 804.5,-72.5 675.5,-72.5"/>
<text text-anchor="start" x="683.5" y="-97.1" font-family="InputSans" font-size="8.00" fill="#000000">/home/jacques/repos</text>
<text text-anchor="start" x="683.5" y="-88.1" font-family="InputSans" font-size="8.00" fill="#000000">/math4171/src/arcplot</text>
<text text-anchor="middle" x="740" y="-79.1" font-family="InputSans" font-size="8.00" fill="#000000">/ListPlot.hpp</text>
</a>
</g>
</g>
<!-- Node11&#45;&gt;Node19 -->
<g id="edge9" class="edge">
<title>Node11&#45;&gt;Node19</title>
<path fill="none" stroke="#191970" d="M552.9526,-141.7977C591.7975,-131.0407 639.1193,-117.9362 676.4456,-107.5997"/>
<polygon fill="#191970" stroke="#191970" points="551.9739,-138.437 543.2707,-144.4789 553.8421,-145.1831 551.9739,-138.437"/>
</g>
<!-- Node21 -->
<g id="node11" class="node">
<title>Node21</title>
<g id="a_node11"><a xlink:href="_surf_plot3d_8hpp.html" target="_top" xlink:title="/home/jacques/repos\l/math4171/src/arcplot\l/old/SurfPlot3d.hpp">
<polygon fill="none" stroke="#000000" points="342.5,-72.5 342.5,-107.5 471.5,-107.5 471.5,-72.5 342.5,-72.5"/>
<text text-anchor="start" x="350.5" y="-97.1" font-family="InputSans" font-size="8.00" fill="#000000">/home/jacques/repos</text>
<text text-anchor="start" x="350.5" y="-88.1" font-family="InputSans" font-size="8.00" fill="#000000">/math4171/src/arcplot</text>
<text text-anchor="middle" x="407" y="-79.1" font-family="InputSans" font-size="8.00" fill="#000000">/old/SurfPlot3d.hpp</text>
</a>
</g>
</g>
<!-- Node11&#45;&gt;Node21 -->
<g id="edge12" class="edge">
<title>Node11&#45;&gt;Node21</title>
<path fill="none" stroke="#191970" d="M454.7164,-137.0628C444.8724,-127.3536 433.8228,-116.4553 424.8374,-107.593"/>
<polygon fill="#191970" stroke="#191970" points="452.3776,-139.672 461.9551,-144.2022 457.2931,-134.6882 452.3776,-139.672"/>
</g>
<!-- Node23 -->
<g id="node13" class="node">
<title>Node23</title>
<g id="a_node13"><a xlink:href="_surface_plot_8hpp.html" target="_top" xlink:title="/home/jacques/repos\l/math4171/src/arcplot\l/SurfacePlot.hpp">
<polygon fill="none" stroke="#000000" points="822.5,-72.5 822.5,-107.5 951.5,-107.5 951.5,-72.5 822.5,-72.5"/>
<text text-anchor="start" x="830.5" y="-97.1" font-family="InputSans" font-size="8.00" fill="#000000">/home/jacques/repos</text>
<text text-anchor="start" x="830.5" y="-88.1" font-family="InputSans" font-size="8.00" fill="#000000">/math4171/src/arcplot</text>
<text text-anchor="middle" x="887" y="-79.1" font-family="InputSans" font-size="8.00" fill="#000000">/SurfacePlot.hpp</text>
</a>
</g>
</g>
<!-- Node11&#45;&gt;Node23 -->
<g id="edge15" class="edge">
<title>Node11&#45;&gt;Node23</title>
<path fill="none" stroke="#191970" d="M557.3335,-151.3216C625.237,-141.5113 726.5434,-125.8213 814,-108 816.686,-107.4527 819.4225,-106.874 822.1832,-106.2728"/>
<polygon fill="#191970" stroke="#191970" points="556.547,-147.8986 547.1465,-152.7854 557.5427,-154.8274 556.547,-147.8986"/>
</g>
<!-- Node14 -->
<g id="node4" class="node">
<title>Node14</title>
<g id="a_node4"><a xlink:href="_min_nelder_mead_8cpp.html" target="_top" xlink:title="/home/jacques/repos\l/math4171/src/arcmath\l/MinNelderMead.cpp">
<polygon fill="none" stroke="#000000" points="17,-.5 17,-35.5 151,-35.5 151,-.5 17,-.5"/>
<text text-anchor="start" x="25" y="-25.1" font-family="InputSans" font-size="8.00" fill="#000000">/home/jacques/repos</text>
<text text-anchor="start" x="25" y="-16.1" font-family="InputSans" font-size="8.00" fill="#000000">/math4171/src/arcmath</text>
<text text-anchor="middle" x="84" y="-7.1" font-family="InputSans" font-size="8.00" fill="#000000">/MinNelderMead.cpp</text>
</a>
</g>
</g>
<!-- Node13&#45;&gt;Node14 -->
<g id="edge3" class="edge">
<title>Node13&#45;&gt;Node14</title>
<path fill="none" stroke="#191970" d="M177.087,-67.6464C157.796,-57.3579 135.2325,-45.324 117.1517,-35.6809"/>
<polygon fill="#191970" stroke="#191970" points="175.5047,-70.7691 185.9753,-72.3868 178.7988,-64.5926 175.5047,-70.7691"/>
</g>
<!-- Node13&#45;&gt;Node15 -->
<g id="edge4" class="edge">
<title>Node13&#45;&gt;Node15</title>
<path fill="none" stroke="#191970" d="M229.5942,-62.7579C233.1335,-53.6566 236.9821,-43.7602 240.1583,-35.593"/>
<polygon fill="#191970" stroke="#191970" points="226.2839,-61.6136 225.9214,-72.2022 232.8079,-64.1508 226.2839,-61.6136"/>
</g>
<!-- Node16&#45;&gt;Node15 -->
<g id="edge7" class="edge">
<title>Node16&#45;&gt;Node15</title>
<path fill="none" stroke="#191970" d="M479.248,-71.5953C422.3865,-58.0625 367.4097,-45.3831 324.2695,-35.5261"/>
<polygon fill="#191970" stroke="#191970" points="478.5944,-75.0375 489.1335,-73.9521 480.2178,-68.2283 478.5944,-75.0375"/>
</g>
<!-- Node17 -->
<g id="node7" class="node">
<title>Node17</title>
<g id="a_node7"><a xlink:href="_contour_plot_8cpp.html" target="_top" xlink:title="/home/jacques/repos\l/math4171/src/arcplot\l/ContourPlot.cpp">
<polygon fill="none" stroke="#000000" points="489.5,-.5 489.5,-35.5 618.5,-35.5 618.5,-.5 489.5,-.5"/>
<text text-anchor="start" x="497.5" y="-25.1" font-family="InputSans" font-size="8.00" fill="#000000">/home/jacques/repos</text>
<text text-anchor="start" x="497.5" y="-16.1" font-family="InputSans" font-size="8.00" fill="#000000">/math4171/src/arcplot</text>
<text text-anchor="middle" x="554" y="-7.1" font-family="InputSans" font-size="8.00" fill="#000000">/ContourPlot.cpp</text>
</a>
</g>
</g>
<!-- Node16&#45;&gt;Node17 -->
<g id="edge6" class="edge">
<title>Node16&#45;&gt;Node17</title>
<path fill="none" stroke="#191970" d="M554,-62.1759C554,-53.2363 554,-43.5865 554,-35.593"/>
<polygon fill="#191970" stroke="#191970" points="550.5001,-62.2022 554,-72.2022 557.5001,-62.2023 550.5001,-62.2022"/>
</g>
<!-- Node16&#45;&gt;Node18 -->
<g id="edge8" class="edge">
<title>Node16&#45;&gt;Node18</title>
<path fill="none" stroke="#191970" d="M601.261,-68.1872C623.9022,-57.7374 650.657,-45.3891 671.962,-35.556"/>
<polygon fill="#191970" stroke="#191970" points="599.7748,-65.0183 592.1619,-72.3868 602.7082,-71.374 599.7748,-65.0183"/>
</g>
<!-- Node19&#45;&gt;Node18 -->
<g id="edge11" class="edge">
<title>Node19&#45;&gt;Node18</title>
<path fill="none" stroke="#191970" d="M728.6491,-62.7579C724.8569,-53.6566 720.7334,-43.7602 717.3304,-35.593"/>
<polygon fill="#191970" stroke="#191970" points="725.5073,-64.3176 732.5843,-72.2022 731.9688,-61.6253 725.5073,-64.3176"/>
</g>
<!-- Node20 -->
<g id="node10" class="node">
<title>Node20</title>
<g id="a_node10"><a xlink:href="_list_plot_8cpp.html" target="_top" xlink:title="/home/jacques/repos\l/math4171/src/arcplot\l/ListPlot.cpp">
<polygon fill="none" stroke="#000000" points="801.5,-.5 801.5,-35.5 930.5,-35.5 930.5,-.5 801.5,-.5"/>
<text text-anchor="start" x="809.5" y="-25.1" font-family="InputSans" font-size="8.00" fill="#000000">/home/jacques/repos</text>
<text text-anchor="start" x="809.5" y="-16.1" font-family="InputSans" font-size="8.00" fill="#000000">/math4171/src/arcplot</text>
<text text-anchor="middle" x="866" y="-7.1" font-family="InputSans" font-size="8.00" fill="#000000">/ListPlot.cpp</text>
</a>
</g>
</g>
<!-- Node19&#45;&gt;Node20 -->
<g id="edge10" class="edge">
<title>Node19&#45;&gt;Node20</title>
<path fill="none" stroke="#191970" d="M779.8537,-67.2264C797.6947,-57.0316 818.412,-45.1931 835.0584,-35.6809"/>
<polygon fill="#191970" stroke="#191970" points="777.769,-64.3865 770.8231,-72.3868 781.242,-70.4642 777.769,-64.3865"/>
</g>
<!-- Node21&#45;&gt;Node15 -->
<g id="edge14" class="edge">
<title>Node21&#45;&gt;Node15</title>
<path fill="none" stroke="#191970" d="M358.5272,-68.1872C335.3054,-57.7374 307.8646,-45.3891 286.0133,-35.556"/>
<polygon fill="#191970" stroke="#191970" points="357.3041,-71.4748 367.8596,-72.3868 360.1767,-65.0914 357.3041,-71.4748"/>
</g>
<!-- Node22 -->
<g id="node12" class="node">
<title>Node22</title>
<g id="a_node12"><a xlink:href="_surf_plot3d_8cpp.html" target="_top" xlink:title="/home/jacques/repos\l/math4171/src/arcplot\l/old/SurfPlot3d.cpp">
<polygon fill="none" stroke="#000000" points="342.5,-.5 342.5,-35.5 471.5,-35.5 471.5,-.5 342.5,-.5"/>
<text text-anchor="start" x="350.5" y="-25.1" font-family="InputSans" font-size="8.00" fill="#000000">/home/jacques/repos</text>
<text text-anchor="start" x="350.5" y="-16.1" font-family="InputSans" font-size="8.00" fill="#000000">/math4171/src/arcplot</text>
<text text-anchor="middle" x="407" y="-7.1" font-family="InputSans" font-size="8.00" fill="#000000">/old/SurfPlot3d.cpp</text>
</a>
</g>
</g>
<!-- Node21&#45;&gt;Node22 -->
<g id="edge13" class="edge">
<title>Node21&#45;&gt;Node22</title>
<path fill="none" stroke="#191970" d="M407,-62.1759C407,-53.2363 407,-43.5865 407,-35.593"/>
<polygon fill="#191970" stroke="#191970" points="403.5001,-62.2022 407,-72.2022 410.5001,-62.2023 403.5001,-62.2022"/>
</g>
<!-- Node23&#45;&gt;Node18 -->
<g id="edge17" class="edge">
<title>Node23&#45;&gt;Node18</title>
<path fill="none" stroke="#191970" d="M834.402,-68.6042C808.4985,-58.0672 777.6538,-45.5202 753.1585,-35.556"/>
<polygon fill="#191970" stroke="#191970" points="833.1192,-71.8608 843.7009,-72.3868 835.7568,-65.3767 833.1192,-71.8608"/>
</g>
<!-- Node24 -->
<g id="node14" class="node">
<title>Node24</title>
<g id="a_node14"><a xlink:href="_surface_plot_8cpp.html" target="_top" xlink:title="/home/jacques/repos\l/math4171/src/arcplot\l/SurfacePlot.cpp">
<polygon fill="none" stroke="#000000" points="948.5,-.5 948.5,-35.5 1077.5,-35.5 1077.5,-.5 948.5,-.5"/>
<text text-anchor="start" x="956.5" y="-25.1" font-family="InputSans" font-size="8.00" fill="#000000">/home/jacques/repos</text>
<text text-anchor="start" x="956.5" y="-16.1" font-family="InputSans" font-size="8.00" fill="#000000">/math4171/src/arcplot</text>
<text text-anchor="middle" x="1013" y="-7.1" font-family="InputSans" font-size="8.00" fill="#000000">/SurfacePlot.cpp</text>
</a>
</g>
</g>
<!-- Node23&#45;&gt;Node24 -->
<g id="edge16" class="edge">
<title>Node23&#45;&gt;Node24</title>
<path fill="none" stroke="#191970" d="M926.8537,-67.2264C944.6947,-57.0316 965.412,-45.1931 982.0584,-35.6809"/>
<polygon fill="#191970" stroke="#191970" points="924.769,-64.3865 917.8231,-72.3868 928.242,-70.4642 924.769,-64.3865"/>
</g>
</g>
</svg>
