<?xml version="1.0" encoding="UTF-8" standalone="no"?>
<!DOCTYPE svg PUBLIC "-//W3C//DTD SVG 1.1//EN"
 "http://www.w3.org/Graphics/SVG/1.1/DTD/svg11.dtd">
<!-- Generated by graphviz version 2.40.1 (20161225.0304)
 -->
<!-- Title: /home/jacques/repos/math4171/src/arcmath/Vec.inl Pages: 1 -->
<svg width="142pt" height="98pt"
 viewBox="0.00 0.00 142.00 98.00" xmlns="http://www.w3.org/2000/svg" xmlns:xlink="http://www.w3.org/1999/xlink">
<g id="graph0" class="graph" transform="scale(1 1) rotate(0) translate(4 94)">
<title>/home/jacques/repos/math4171/src/arcmath/Vec.inl</title>
<!-- Node0 -->
<g id="node1" class="node">
<title>Node0</title>
<polygon fill="#bfbfbf" stroke="#000000" points="0,-54.5 0,-89.5 134,-89.5 134,-54.5 0,-54.5"/>
<text text-anchor="start" x="8" y="-79.1" font-family="InputSans" font-size="8.00" fill="#000000">/home/jacques/repos</text>
<text text-anchor="start" x="8" y="-70.1" font-family="InputSans" font-size="8.00" fill="#000000">/math4171/src/arcmath</text>
<text text-anchor="middle" x="67" y="-61.1" font-family="InputSans" font-size="8.00" fill="#000000">/Vec.inl</text>
</g>
<!-- Node1 -->
<g id="node2" class="node">
<title>Node1</title>
<polygon fill="none" stroke="#bfbfbf" points="10,-.5 10,-17.5 56,-17.5 56,-.5 10,-.5"/>
<text text-anchor="middle" x="33" y="-7.1" font-family="InputSans" font-size="8.00" fill="#000000">string</text>
</g>
<!-- Node0&#45;&gt;Node1 -->
<g id="edge1" class="edge">
<title>Node0&#45;&gt;Node1</title>
<path fill="none" stroke="#191970" d="M57.5291,-54.451C52.8465,-45.7744 47.2088,-35.328 42.5196,-26.6392"/>
<polygon fill="#191970" stroke="#191970" points="45.5592,-24.902 37.7298,-17.764 39.3991,-28.2265 45.5592,-24.902"/>
</g>
<!-- Node2 -->
<g id="node3" class="node">
<title>Node2</title>
<polygon fill="none" stroke="#bfbfbf" points="74.5,-.5 74.5,-17.5 129.5,-17.5 129.5,-.5 74.5,-.5"/>
<text text-anchor="middle" x="102" y="-7.1" font-family="InputSans" font-size="8.00" fill="#000000">sstream</text>
</g>
<!-- Node0&#45;&gt;Node2 -->
<g id="edge2" class="edge">
<title>Node0&#45;&gt;Node2</title>
<path fill="none" stroke="#191970" d="M76.7495,-54.451C81.5698,-45.7744 87.3733,-35.328 92.2004,-26.6392"/>
<polygon fill="#191970" stroke="#191970" points="95.3342,-28.2054 97.1311,-17.764 89.2151,-24.8058 95.3342,-28.2054"/>
</g>
</g>
</svg>
