<?xml version="1.0" encoding="UTF-8" standalone="no"?>
<!DOCTYPE svg PUBLIC "-//W3C//DTD SVG 1.1//EN"
 "http://www.w3.org/Graphics/SVG/1.1/DTD/svg11.dtd">
<!-- Generated by graphviz version 2.40.1 (20161225.0304)
 -->
<!-- Title: /home/jacques/repos/math4171/src/arcmath/Vec.hpp Pages: 1 -->
<svg width="394pt" height="152pt"
 viewBox="0.00 0.00 394.00 152.00" xmlns="http://www.w3.org/2000/svg" xmlns:xlink="http://www.w3.org/1999/xlink">
<g id="graph0" class="graph" transform="scale(1 1) rotate(0) translate(4 148)">
<title>/home/jacques/repos/math4171/src/arcmath/Vec.hpp</title>
<!-- Node0 -->
<g id="node1" class="node">
<title>Node0</title>
<polygon fill="#bfbfbf" stroke="#000000" points="75.5,-108.5 75.5,-143.5 191.5,-143.5 191.5,-108.5 75.5,-108.5"/>
<text text-anchor="start" x="83.5" y="-133.1" font-family="InputSans" font-size="8.00" fill="#000000">/home/jacques/repos</text>
<text text-anchor="start" x="83.5" y="-124.1" font-family="InputSans" font-size="8.00" fill="#000000">/math4171/src/arcmath</text>
<text text-anchor="middle" x="133.5" y="-115.1" font-family="InputSans" font-size="8.00" fill="#000000">/Vec.hpp</text>
</g>
<!-- Node1 -->
<g id="node2" class="node">
<title>Node1</title>
<polygon fill="none" stroke="#bfbfbf" points="0,-54.5 0,-71.5 47,-71.5 47,-54.5 0,-54.5"/>
<text text-anchor="middle" x="23.5" y="-61.1" font-family="InputSans" font-size="8.00" fill="#000000">cassert</text>
</g>
<!-- Node0&#45;&gt;Node1 -->
<g id="edge1" class="edge">
<title>Node0&#45;&gt;Node1</title>
<path fill="none" stroke="#191970" d="M102.8589,-108.451C85.3223,-98.4073 63.6455,-85.9924 47.3805,-76.677"/>
<polygon fill="#191970" stroke="#191970" points="48.9186,-73.5246 38.5016,-71.5918 45.4397,-79.5989 48.9186,-73.5246"/>
</g>
<!-- Node2 -->
<g id="node3" class="node">
<title>Node2</title>
<polygon fill="none" stroke="#bfbfbf" points="65.5,-54.5 65.5,-71.5 119.5,-71.5 119.5,-54.5 65.5,-54.5"/>
<text text-anchor="middle" x="92.5" y="-61.1" font-family="InputSans" font-size="8.00" fill="#000000">iostream</text>
</g>
<!-- Node0&#45;&gt;Node2 -->
<g id="edge2" class="edge">
<title>Node0&#45;&gt;Node2</title>
<path fill="none" stroke="#191970" d="M122.0792,-108.451C116.3718,-99.6811 109.4878,-89.1032 103.7975,-80.3595"/>
<polygon fill="#191970" stroke="#191970" points="106.5917,-78.2363 98.2036,-71.764 100.7247,-82.0545 106.5917,-78.2363"/>
</g>
<!-- Node3 -->
<g id="node4" class="node">
<title>Node3</title>
<g id="a_node4"><a xlink:href="_core_math_8hpp.html" target="_top" xlink:title="CoreMath.hpp">
<polygon fill="none" stroke="#000000" points="137.5,-54.5 137.5,-71.5 213.5,-71.5 213.5,-54.5 137.5,-54.5"/>
<text text-anchor="middle" x="175.5" y="-61.1" font-family="InputSans" font-size="8.00" fill="#000000">CoreMath.hpp</text>
</a>
</g>
</g>
<!-- Node0&#45;&gt;Node3 -->
<g id="edge3" class="edge">
<title>Node0&#45;&gt;Node3</title>
<path fill="none" stroke="#191970" d="M145.1993,-108.451C151.046,-99.6811 158.0979,-89.1032 163.927,-80.3595"/>
<polygon fill="#191970" stroke="#191970" points="167.0225,-82.026 169.6573,-71.764 161.1981,-78.1431 167.0225,-82.026"/>
</g>
<!-- Node8 -->
<g id="node9" class="node">
<title>Node8</title>
<g id="a_node9"><a xlink:href="_vec_8inl.html" target="_top" xlink:title="Vec.inl">
<polygon fill="none" stroke="#000000" points="274.5,-54.5 274.5,-71.5 318.5,-71.5 318.5,-54.5 274.5,-54.5"/>
<text text-anchor="middle" x="296.5" y="-61.1" font-family="InputSans" font-size="8.00" fill="#000000">Vec.inl</text>
</a>
</g>
</g>
<!-- Node0&#45;&gt;Node8 -->
<g id="edge8" class="edge">
<title>Node0&#45;&gt;Node8</title>
<path fill="none" stroke="#191970" d="M178.9046,-108.451C206.2263,-97.8911 240.3301,-84.7098 264.7645,-75.2659"/>
<polygon fill="#191970" stroke="#191970" points="266.2047,-78.4616 274.2704,-71.5918 263.6811,-71.9323 266.2047,-78.4616"/>
</g>
<!-- Node4 -->
<g id="node5" class="node">
<title>Node4</title>
<polygon fill="none" stroke="#bfbfbf" points="19,-.5 19,-17.5 76,-17.5 76,-.5 19,-.5"/>
<text text-anchor="middle" x="47.5" y="-7.1" font-family="InputSans" font-size="8.00" fill="#000000">algorithm</text>
</g>
<!-- Node3&#45;&gt;Node4 -->
<g id="edge4" class="edge">
<title>Node3&#45;&gt;Node4</title>
<path fill="none" stroke="#191970" d="M155.218,-54.4435C134.1527,-45.5566 100.9832,-31.5632 77.0145,-21.4514"/>
<polygon fill="#191970" stroke="#191970" points="78.2612,-18.1787 67.6871,-17.5164 75.5403,-24.6283 78.2612,-18.1787"/>
</g>
<!-- Node5 -->
<g id="node6" class="node">
<title>Node5</title>
<polygon fill="none" stroke="#bfbfbf" points="94,-.5 94,-17.5 137,-17.5 137,-.5 94,-.5"/>
<text text-anchor="middle" x="115.5" y="-7.1" font-family="InputSans" font-size="8.00" fill="#000000">cmath</text>
</g>
<!-- Node3&#45;&gt;Node5 -->
<g id="edge5" class="edge">
<title>Node3&#45;&gt;Node5</title>
<path fill="none" stroke="#191970" d="M165.86,-54.324C156.9904,-46.3414 143.6253,-34.3128 132.8921,-24.6529"/>
<polygon fill="#191970" stroke="#191970" points="135.0898,-21.922 125.3154,-17.8339 130.407,-27.1251 135.0898,-21.922"/>
</g>
<!-- Node6 -->
<g id="node7" class="node">
<title>Node6</title>
<polygon fill="none" stroke="#bfbfbf" points="155.5,-.5 155.5,-17.5 195.5,-17.5 195.5,-.5 155.5,-.5"/>
<text text-anchor="middle" x="175.5" y="-7.1" font-family="InputSans" font-size="8.00" fill="#000000">cfloat</text>
</g>
<!-- Node3&#45;&gt;Node6 -->
<g id="edge6" class="edge">
<title>Node3&#45;&gt;Node6</title>
<path fill="none" stroke="#191970" d="M175.5,-54.083C175.5,-47.0059 175.5,-36.8611 175.5,-27.9865"/>
<polygon fill="#191970" stroke="#191970" points="179.0001,-27.751 175.5,-17.7511 172.0001,-27.7511 179.0001,-27.751"/>
</g>
<!-- Node7 -->
<g id="node8" class="node">
<title>Node7</title>
<polygon fill="none" stroke="#bfbfbf" points="213.5,-.5 213.5,-17.5 257.5,-17.5 257.5,-.5 213.5,-.5"/>
<text text-anchor="middle" x="235.5" y="-7.1" font-family="InputSans" font-size="8.00" fill="#000000">cstdint</text>
</g>
<!-- Node3&#45;&gt;Node7 -->
<g id="edge7" class="edge">
<title>Node3&#45;&gt;Node7</title>
<path fill="none" stroke="#191970" d="M185.14,-54.324C194.0096,-46.3414 207.3747,-34.3128 218.1079,-24.6529"/>
<polygon fill="#191970" stroke="#191970" points="220.593,-27.1251 225.6846,-17.8339 215.9102,-21.922 220.593,-27.1251"/>
</g>
<!-- Node9 -->
<g id="node10" class="node">
<title>Node9</title>
<polygon fill="none" stroke="#bfbfbf" points="276,-.5 276,-17.5 317,-17.5 317,-.5 276,-.5"/>
<text text-anchor="middle" x="296.5" y="-7.1" font-family="InputSans" font-size="8.00" fill="#000000">string</text>
</g>
<!-- Node8&#45;&gt;Node9 -->
<g id="edge9" class="edge">
<title>Node8&#45;&gt;Node9</title>
<path fill="none" stroke="#191970" d="M296.5,-54.083C296.5,-47.0059 296.5,-36.8611 296.5,-27.9865"/>
<polygon fill="#191970" stroke="#191970" points="300.0001,-27.751 296.5,-17.7511 293.0001,-27.7511 300.0001,-27.751"/>
</g>
<!-- Node10 -->
<g id="node11" class="node">
<title>Node10</title>
<polygon fill="none" stroke="#bfbfbf" points="335,-.5 335,-17.5 386,-17.5 386,-.5 335,-.5"/>
<text text-anchor="middle" x="360.5" y="-7.1" font-family="InputSans" font-size="8.00" fill="#000000">sstream</text>
</g>
<!-- Node8&#45;&gt;Node10 -->
<g id="edge10" class="edge">
<title>Node8&#45;&gt;Node10</title>
<path fill="none" stroke="#191970" d="M306.7827,-54.324C316.3363,-46.2631 330.7797,-34.0765 342.2843,-24.3695"/>
<polygon fill="#191970" stroke="#191970" points="344.6443,-26.9577 350.0302,-17.8339 340.1302,-21.6076 344.6443,-26.9577"/>
</g>
</g>
</svg>
