<?xml version="1.0" encoding="UTF-8" standalone="no"?>
<!DOCTYPE svg PUBLIC "-//W3C//DTD SVG 1.1//EN"
 "http://www.w3.org/Graphics/SVG/1.1/DTD/svg11.dtd">
<!-- Generated by graphviz version 2.40.1 (20161225.0304)
 -->
<!-- Title: /home/jacques/repos/math4171/src/arcmath/Vec.inl Pages: 1 -->
<svg width="124pt" height="98pt"
 viewBox="0.00 0.00 124.00 98.00" xmlns="http://www.w3.org/2000/svg" xmlns:xlink="http://www.w3.org/1999/xlink">
<g id="graph0" class="graph" transform="scale(1 1) rotate(0) translate(4 94)">
<title>/home/jacques/repos/math4171/src/arcmath/Vec.inl</title>
<!-- Node0 -->
<g id="node1" class="node">
<title>Node0</title>
<polygon fill="#bfbfbf" stroke="#000000" points="0,-54.5 0,-89.5 116,-89.5 116,-54.5 0,-54.5"/>
<text text-anchor="start" x="8" y="-79.1" font-family="InputSans" font-size="8.00" fill="#000000">/home/jacques/repos</text>
<text text-anchor="start" x="8" y="-70.1" font-family="InputSans" font-size="8.00" fill="#000000">/math4171/src/arcmath</text>
<text text-anchor="middle" x="58" y="-61.1" font-family="InputSans" font-size="8.00" fill="#000000">/Vec.inl</text>
</g>
<!-- Node1 -->
<g id="node2" class="node">
<title>Node1</title>
<polygon fill="none" stroke="#bfbfbf" points="5.5,-.5 5.5,-17.5 46.5,-17.5 46.5,-.5 5.5,-.5"/>
<text text-anchor="middle" x="26" y="-7.1" font-family="InputSans" font-size="8.00" fill="#000000">string</text>
</g>
<!-- Node0&#45;&gt;Node1 -->
<g id="edge1" class="edge">
<title>Node0&#45;&gt;Node1</title>
<path fill="none" stroke="#191970" d="M49.0862,-54.451C44.7264,-45.8677 39.487,-35.5525 35.1023,-26.9201"/>
<polygon fill="#191970" stroke="#191970" points="38.1008,-25.0948 30.4516,-17.764 31.8597,-28.2649 38.1008,-25.0948"/>
</g>
<!-- Node2 -->
<g id="node3" class="node">
<title>Node2</title>
<polygon fill="none" stroke="#bfbfbf" points="64.5,-.5 64.5,-17.5 115.5,-17.5 115.5,-.5 64.5,-.5"/>
<text text-anchor="middle" x="90" y="-7.1" font-family="InputSans" font-size="8.00" fill="#000000">sstream</text>
</g>
<!-- Node0&#45;&gt;Node2 -->
<g id="edge2" class="edge">
<title>Node0&#45;&gt;Node2</title>
<path fill="none" stroke="#191970" d="M66.9138,-54.451C71.2736,-45.8677 76.513,-35.5525 80.8977,-26.9201"/>
<polygon fill="#191970" stroke="#191970" points="84.1403,-28.2649 85.5484,-17.764 77.8992,-25.0948 84.1403,-28.2649"/>
</g>
</g>
</svg>
