<?xml version="1.0" encoding="UTF-8" standalone="no"?>
<!DOCTYPE svg PUBLIC "-//W3C//DTD SVG 1.1//EN"
 "http://www.w3.org/Graphics/SVG/1.1/DTD/svg11.dtd">
<!-- Generated by graphviz version 2.40.1 (20161225.0304)
 -->
<!-- Title: /home/jacques/repos/math4171/src/arcmath/old/PythonContext.hpp Pages: 1 -->
<svg width="192pt" height="98pt"
 viewBox="0.00 0.00 191.50 98.00" xmlns="http://www.w3.org/2000/svg" xmlns:xlink="http://www.w3.org/1999/xlink">
<g id="graph0" class="graph" transform="scale(1 1) rotate(0) translate(4 94)">
<title>/home/jacques/repos/math4171/src/arcmath/old/PythonContext.hpp</title>
<!-- Node0 -->
<g id="node1" class="node">
<title>Node0</title>
<polygon fill="#bfbfbf" stroke="#000000" points="11.5,-54.5 11.5,-89.5 145.5,-89.5 145.5,-54.5 11.5,-54.5"/>
<text text-anchor="start" x="19.5" y="-79.1" font-family="InputSans" font-size="8.00" fill="#000000">/home/jacques/repos</text>
<text text-anchor="start" x="19.5" y="-70.1" font-family="InputSans" font-size="8.00" fill="#000000">/math4171/src/arcmath</text>
<text text-anchor="middle" x="78.5" y="-61.1" font-family="InputSans" font-size="8.00" fill="#000000">/old/PythonContext.hpp</text>
</g>
<!-- Node1 -->
<g id="node2" class="node">
<title>Node1</title>
<polygon fill="none" stroke="#bfbfbf" points="0,-.5 0,-17.5 57,-17.5 57,-.5 0,-.5"/>
<text text-anchor="middle" x="28.5" y="-7.1" font-family="InputSans" font-size="8.00" fill="#000000">Python.h</text>
</g>
<!-- Node0&#45;&gt;Node1 -->
<g id="edge1" class="edge">
<title>Node0&#45;&gt;Node1</title>
<path fill="none" stroke="#191970" d="M64.5722,-54.451C57.4639,-45.4945 48.8589,-34.6522 41.8365,-25.804"/>
<polygon fill="#191970" stroke="#191970" points="44.4137,-23.4211 35.4556,-17.764 38.9307,-27.7727 44.4137,-23.4211"/>
</g>
<!-- Node2 -->
<g id="node3" class="node">
<title>Node2</title>
<g id="a_node3"><a xlink:href="_i_python_context_8hpp.html" target="_top" xlink:title="IPythonContext.hpp">
<polygon fill="none" stroke="#000000" points="75.5,-.5 75.5,-17.5 183.5,-17.5 183.5,-.5 75.5,-.5"/>
<text text-anchor="middle" x="129.5" y="-7.1" font-family="InputSans" font-size="8.00" fill="#000000">IPythonContext.hpp</text>
</a>
</g>
</g>
<!-- Node0&#45;&gt;Node2 -->
<g id="edge2" class="edge">
<title>Node0&#45;&gt;Node2</title>
<path fill="none" stroke="#191970" d="M92.7063,-54.451C99.9569,-45.4945 108.7339,-34.6522 115.8968,-25.804"/>
<polygon fill="#191970" stroke="#191970" points="118.8337,-27.7387 122.4053,-17.764 113.3929,-23.3343 118.8337,-27.7387"/>
</g>
</g>
</svg>
