<?xml version="1.0" encoding="UTF-8" standalone="no"?>
<!DOCTYPE svg PUBLIC "-//W3C//DTD SVG 1.1//EN"
 "http://www.w3.org/Graphics/SVG/1.1/DTD/svg11.dtd">
<!-- Generated by graphviz version 2.40.1 (20161225.0304)
 -->
<!-- Title: /home/jacques/repos/math4171/src/arcmath/old/PythonContext.cpp Pages: 1 -->
<svg width="658pt" height="152pt"
 viewBox="0.00 0.00 657.50 152.00" xmlns="http://www.w3.org/2000/svg" xmlns:xlink="http://www.w3.org/1999/xlink">
<g id="graph0" class="graph" transform="scale(1 1) rotate(0) translate(4 148)">
<title>/home/jacques/repos/math4171/src/arcmath/old/PythonContext.cpp</title>
<!-- Node0 -->
<g id="node1" class="node">
<title>Node0</title>
<polygon fill="#bfbfbf" stroke="#000000" points="201.5,-108.5 201.5,-143.5 335.5,-143.5 335.5,-108.5 201.5,-108.5"/>
<text text-anchor="start" x="209.5" y="-133.1" font-family="InputSans" font-size="8.00" fill="#000000">/home/jacques/repos</text>
<text text-anchor="start" x="209.5" y="-124.1" font-family="InputSans" font-size="8.00" fill="#000000">/math4171/src/arcmath</text>
<text text-anchor="middle" x="268.5" y="-115.1" font-family="InputSans" font-size="8.00" fill="#000000">/old/PythonContext.cpp</text>
</g>
<!-- Node1 -->
<g id="node2" class="node">
<title>Node1</title>
<polygon fill="none" stroke="#bfbfbf" points="0,-54.5 0,-71.5 53,-71.5 53,-54.5 0,-54.5"/>
<text text-anchor="middle" x="26.5" y="-61.1" font-family="InputSans" font-size="8.00" fill="#000000">cassert</text>
</g>
<!-- Node0&#45;&gt;Node1 -->
<g id="edge1" class="edge">
<title>Node0&#45;&gt;Node1</title>
<path fill="none" stroke="#191970" d="M201.4109,-108.5347C156.6602,-96.8847 99.543,-82.0153 62.9859,-72.4984"/>
<polygon fill="#191970" stroke="#191970" points="63.8067,-69.0955 53.2474,-69.9632 62.0431,-75.8697 63.8067,-69.0955"/>
</g>
<!-- Node2 -->
<g id="node3" class="node">
<title>Node2</title>
<polygon fill="none" stroke="#bfbfbf" points="71,-54.5 71,-71.5 130,-71.5 130,-54.5 71,-54.5"/>
<text text-anchor="middle" x="100.5" y="-61.1" font-family="InputSans" font-size="8.00" fill="#000000">iostream</text>
</g>
<!-- Node0&#45;&gt;Node2 -->
<g id="edge2" class="edge">
<title>Node0&#45;&gt;Node2</title>
<path fill="none" stroke="#191970" d="M221.7026,-108.451C193.4177,-97.8441 158.0803,-84.5926 132.8738,-75.1402"/>
<polygon fill="#191970" stroke="#191970" points="134.0037,-71.8259 123.4115,-71.5918 131.5458,-78.3803 134.0037,-71.8259"/>
</g>
<!-- Node3 -->
<g id="node4" class="node">
<title>Node3</title>
<polygon fill="none" stroke="#bfbfbf" points="148.5,-54.5 148.5,-71.5 194.5,-71.5 194.5,-54.5 148.5,-54.5"/>
<text text-anchor="middle" x="171.5" y="-61.1" font-family="InputSans" font-size="8.00" fill="#000000">string</text>
</g>
<!-- Node0&#45;&gt;Node3 -->
<g id="edge3" class="edge">
<title>Node0&#45;&gt;Node3</title>
<path fill="none" stroke="#191970" d="M241.4801,-108.451C226.3051,-98.5951 207.6143,-86.4557 193.3675,-77.2026"/>
<polygon fill="#191970" stroke="#191970" points="195.0215,-74.1034 184.7286,-71.5918 191.2087,-79.9739 195.0215,-74.1034"/>
</g>
<!-- Node4 -->
<g id="node5" class="node">
<title>Node4</title>
<polygon fill="none" stroke="#bfbfbf" points="212.5,-54.5 212.5,-71.5 258.5,-71.5 258.5,-54.5 212.5,-54.5"/>
<text text-anchor="middle" x="235.5" y="-61.1" font-family="InputSans" font-size="8.00" fill="#000000">vector</text>
</g>
<!-- Node0&#45;&gt;Node4 -->
<g id="edge4" class="edge">
<title>Node0&#45;&gt;Node4</title>
<path fill="none" stroke="#191970" d="M259.3077,-108.451C254.7628,-99.7744 249.2909,-89.328 244.7396,-80.6392"/>
<polygon fill="#191970" stroke="#191970" points="247.8312,-78.9983 240.0907,-71.764 241.6304,-82.2464 247.8312,-78.9983"/>
</g>
<!-- Node5 -->
<g id="node6" class="node">
<title>Node5</title>
<polygon fill="none" stroke="#bfbfbf" points="277,-54.5 277,-71.5 328,-71.5 328,-54.5 277,-54.5"/>
<text text-anchor="middle" x="302.5" y="-61.1" font-family="InputSans" font-size="8.00" fill="#000000">stdio.h</text>
</g>
<!-- Node0&#45;&gt;Node5 -->
<g id="edge5" class="edge">
<title>Node0&#45;&gt;Node5</title>
<path fill="none" stroke="#191970" d="M277.9709,-108.451C282.6535,-99.7744 288.2912,-89.328 292.9804,-80.6392"/>
<polygon fill="#191970" stroke="#191970" points="296.1009,-82.2265 297.7702,-71.764 289.9408,-78.902 296.1009,-82.2265"/>
</g>
<!-- Node6 -->
<g id="node7" class="node">
<title>Node6</title>
<polygon fill="none" stroke="#bfbfbf" points="346,-54.5 346,-71.5 401,-71.5 401,-54.5 346,-54.5"/>
<text text-anchor="middle" x="373.5" y="-61.1" font-family="InputSans" font-size="8.00" fill="#000000">stdlib.h</text>
</g>
<!-- Node0&#45;&gt;Node6 -->
<g id="edge6" class="edge">
<title>Node0&#45;&gt;Node6</title>
<path fill="none" stroke="#191970" d="M297.7484,-108.451C314.3313,-98.5012 334.7929,-86.2243 350.2683,-76.939"/>
<polygon fill="#191970" stroke="#191970" points="352.4061,-79.738 359.1803,-71.5918 348.8046,-73.7356 352.4061,-79.738"/>
</g>
<!-- Node7 -->
<g id="node8" class="node">
<title>Node7</title>
<polygon fill="none" stroke="#bfbfbf" points="419.5,-54.5 419.5,-71.5 475.5,-71.5 475.5,-54.5 419.5,-54.5"/>
<text text-anchor="middle" x="447.5" y="-61.1" font-family="InputSans" font-size="8.00" fill="#000000">unistd.h</text>
</g>
<!-- Node0&#45;&gt;Node7 -->
<g id="edge7" class="edge">
<title>Node0&#45;&gt;Node7</title>
<path fill="none" stroke="#191970" d="M318.3615,-108.451C348.6317,-97.7972 386.4829,-84.4753 413.3624,-75.0149"/>
<polygon fill="#191970" stroke="#191970" points="414.8176,-78.2133 423.0884,-71.5918 412.4936,-71.6103 414.8176,-78.2133"/>
</g>
<!-- Node8 -->
<g id="node9" class="node">
<title>Node8</title>
<g id="a_node9"><a xlink:href="arcmath_2old_2_python_context_8hpp.html" target="_top" xlink:title="PythonContext.hpp">
<polygon fill="none" stroke="#000000" points="494,-54.5 494,-71.5 597,-71.5 597,-54.5 494,-54.5"/>
<text text-anchor="middle" x="545.5" y="-61.1" font-family="InputSans" font-size="8.00" fill="#000000">PythonContext.hpp</text>
</a>
</g>
</g>
<!-- Node0&#45;&gt;Node8 -->
<g id="edge8" class="edge">
<title>Node0&#45;&gt;Node8</title>
<path fill="none" stroke="#191970" d="M335.554,-110.7495C385.7619,-99.3303 453.2198,-83.9879 497.9655,-73.8111"/>
<polygon fill="#191970" stroke="#191970" points="499.0148,-77.1619 507.9895,-71.5313 497.4623,-70.3362 499.0148,-77.1619"/>
</g>
<!-- Node9 -->
<g id="node10" class="node">
<title>Node9</title>
<polygon fill="none" stroke="#bfbfbf" points="466,-.5 466,-17.5 523,-17.5 523,-.5 466,-.5"/>
<text text-anchor="middle" x="494.5" y="-7.1" font-family="InputSans" font-size="8.00" fill="#000000">Python.h</text>
</g>
<!-- Node8&#45;&gt;Node9 -->
<g id="edge9" class="edge">
<title>Node8&#45;&gt;Node9</title>
<path fill="none" stroke="#191970" d="M537.0784,-54.083C529.6518,-46.2195 518.6483,-34.5688 509.6878,-25.0813"/>
<polygon fill="#191970" stroke="#191970" points="512.1757,-22.618 502.7649,-17.7511 507.0866,-27.4244 512.1757,-22.618"/>
</g>
<!-- Node10 -->
<g id="node11" class="node">
<title>Node10</title>
<g id="a_node11"><a xlink:href="_i_python_context_8hpp.html" target="_top" xlink:title="IPythonContext.hpp">
<polygon fill="none" stroke="#000000" points="541.5,-.5 541.5,-17.5 649.5,-17.5 649.5,-.5 541.5,-.5"/>
<text text-anchor="middle" x="595.5" y="-7.1" font-family="InputSans" font-size="8.00" fill="#000000">IPythonContext.hpp</text>
</a>
</g>
</g>
<!-- Node8&#45;&gt;Node10 -->
<g id="edge10" class="edge">
<title>Node8&#45;&gt;Node10</title>
<path fill="none" stroke="#191970" d="M553.7565,-54.083C560.9647,-46.2982 571.6098,-34.8015 580.3458,-25.3665"/>
<polygon fill="#191970" stroke="#191970" points="583.1712,-27.4666 587.3972,-17.7511 578.0349,-22.7108 583.1712,-27.4666"/>
</g>
</g>
</svg>
