<?xml version="1.0" encoding="UTF-8" standalone="no"?>
<!DOCTYPE svg PUBLIC "-//W3C//DTD SVG 1.1//EN"
 "http://www.w3.org/Graphics/SVG/1.1/DTD/svg11.dtd">
<!-- Generated by graphviz version 2.40.1 (20161225.0304)
 -->
<!-- Title: /home/jacques/repos/math4171/src/arcmath/old/PythonContext.cpp Pages: 1 -->
<svg width="611pt" height="152pt"
 viewBox="0.00 0.00 610.50 152.00" xmlns="http://www.w3.org/2000/svg" xmlns:xlink="http://www.w3.org/1999/xlink">
<g id="graph0" class="graph" transform="scale(1 1) rotate(0) translate(4 148)">
<title>/home/jacques/repos/math4171/src/arcmath/old/PythonContext.cpp</title>
<!-- Node0 -->
<g id="node1" class="node">
<title>Node0</title>
<polygon fill="#bfbfbf" stroke="#000000" points="192.5,-108.5 192.5,-143.5 308.5,-143.5 308.5,-108.5 192.5,-108.5"/>
<text text-anchor="start" x="200.5" y="-133.1" font-family="InputSans" font-size="8.00" fill="#000000">/home/jacques/repos</text>
<text text-anchor="start" x="200.5" y="-124.1" font-family="InputSans" font-size="8.00" fill="#000000">/math4171/src/arcmath</text>
<text text-anchor="middle" x="250.5" y="-115.1" font-family="InputSans" font-size="8.00" fill="#000000">/old/PythonContext.cpp</text>
</g>
<!-- Node1 -->
<g id="node2" class="node">
<title>Node1</title>
<polygon fill="none" stroke="#bfbfbf" points="0,-54.5 0,-71.5 47,-71.5 47,-54.5 0,-54.5"/>
<text text-anchor="middle" x="23.5" y="-61.1" font-family="InputSans" font-size="8.00" fill="#000000">cassert</text>
</g>
<!-- Node0&#45;&gt;Node1 -->
<g id="edge1" class="edge">
<title>Node0&#45;&gt;Node1</title>
<path fill="none" stroke="#191970" d="M192.3366,-109.8577C149.4149,-97.9455 92.5146,-82.1538 56.9579,-72.2857"/>
<polygon fill="#191970" stroke="#191970" points="57.6579,-68.8477 47.0861,-69.5459 55.7859,-75.5928 57.6579,-68.8477"/>
</g>
<!-- Node2 -->
<g id="node3" class="node">
<title>Node2</title>
<polygon fill="none" stroke="#bfbfbf" points="65.5,-54.5 65.5,-71.5 119.5,-71.5 119.5,-54.5 65.5,-54.5"/>
<text text-anchor="middle" x="92.5" y="-61.1" font-family="InputSans" font-size="8.00" fill="#000000">iostream</text>
</g>
<!-- Node0&#45;&gt;Node2 -->
<g id="edge2" class="edge">
<title>Node0&#45;&gt;Node2</title>
<path fill="none" stroke="#191970" d="M206.4882,-108.451C180.1223,-97.938 147.2406,-84.827 123.5783,-75.392"/>
<polygon fill="#191970" stroke="#191970" points="124.6328,-72.0445 114.0477,-71.5918 122.0402,-78.5467 124.6328,-72.0445"/>
</g>
<!-- Node3 -->
<g id="node4" class="node">
<title>Node3</title>
<polygon fill="none" stroke="#bfbfbf" points="138,-54.5 138,-71.5 179,-71.5 179,-54.5 138,-54.5"/>
<text text-anchor="middle" x="158.5" y="-61.1" font-family="InputSans" font-size="8.00" fill="#000000">string</text>
</g>
<!-- Node0&#45;&gt;Node3 -->
<g id="edge3" class="edge">
<title>Node0&#45;&gt;Node3</title>
<path fill="none" stroke="#191970" d="M224.8729,-108.451C210.6172,-98.6889 193.0901,-86.6867 179.6275,-77.4678"/>
<polygon fill="#191970" stroke="#191970" points="181.2752,-74.3541 171.0468,-71.5918 177.3201,-80.1297 181.2752,-74.3541"/>
</g>
<!-- Node4 -->
<g id="node5" class="node">
<title>Node4</title>
<polygon fill="none" stroke="#bfbfbf" points="197.5,-54.5 197.5,-71.5 241.5,-71.5 241.5,-54.5 197.5,-54.5"/>
<text text-anchor="middle" x="219.5" y="-61.1" font-family="InputSans" font-size="8.00" fill="#000000">vector</text>
</g>
<!-- Node0&#45;&gt;Node4 -->
<g id="edge4" class="edge">
<title>Node0&#45;&gt;Node4</title>
<path fill="none" stroke="#191970" d="M241.8648,-108.451C237.6412,-99.8677 232.5655,-89.5525 228.3178,-80.9201"/>
<polygon fill="#191970" stroke="#191970" points="231.368,-79.1913 223.8125,-71.764 225.0872,-82.2819 231.368,-79.1913"/>
</g>
<!-- Node5 -->
<g id="node6" class="node">
<title>Node5</title>
<polygon fill="none" stroke="#bfbfbf" points="260,-54.5 260,-71.5 305,-71.5 305,-54.5 260,-54.5"/>
<text text-anchor="middle" x="282.5" y="-61.1" font-family="InputSans" font-size="8.00" fill="#000000">stdio.h</text>
</g>
<!-- Node0&#45;&gt;Node5 -->
<g id="edge5" class="edge">
<title>Node0&#45;&gt;Node5</title>
<path fill="none" stroke="#191970" d="M259.4138,-108.451C263.7736,-99.8677 269.013,-89.5525 273.3977,-80.9201"/>
<polygon fill="#191970" stroke="#191970" points="276.6403,-82.2649 278.0484,-71.764 270.3992,-79.0948 276.6403,-82.2649"/>
</g>
<!-- Node6 -->
<g id="node7" class="node">
<title>Node6</title>
<polygon fill="none" stroke="#bfbfbf" points="323,-54.5 323,-71.5 370,-71.5 370,-54.5 323,-54.5"/>
<text text-anchor="middle" x="346.5" y="-61.1" font-family="InputSans" font-size="8.00" fill="#000000">stdlib.h</text>
</g>
<!-- Node0&#45;&gt;Node6 -->
<g id="edge6" class="edge">
<title>Node0&#45;&gt;Node6</title>
<path fill="none" stroke="#191970" d="M277.2414,-108.451C292.2599,-98.5951 310.758,-86.4557 324.8579,-77.2026"/>
<polygon fill="#191970" stroke="#191970" points="326.9676,-80.0046 333.4077,-71.5918 323.1269,-74.1522 326.9676,-80.0046"/>
</g>
<!-- Node7 -->
<g id="node8" class="node">
<title>Node7</title>
<polygon fill="none" stroke="#bfbfbf" points="388.5,-54.5 388.5,-71.5 438.5,-71.5 438.5,-54.5 388.5,-54.5"/>
<text text-anchor="middle" x="413.5" y="-61.1" font-family="InputSans" font-size="8.00" fill="#000000">unistd.h</text>
</g>
<!-- Node0&#45;&gt;Node7 -->
<g id="edge7" class="edge">
<title>Node0&#45;&gt;Node7</title>
<path fill="none" stroke="#191970" d="M295.9046,-108.451C323.2263,-97.8911 357.3301,-84.7098 381.7645,-75.2659"/>
<polygon fill="#191970" stroke="#191970" points="383.2047,-78.4616 391.2704,-71.5918 380.6811,-71.9323 383.2047,-78.4616"/>
</g>
<!-- Node8 -->
<g id="node9" class="node">
<title>Node8</title>
<g id="a_node9"><a xlink:href="arcmath_2old_2_python_context_8hpp.html" target="_top" xlink:title="PythonContext.hpp">
<polygon fill="none" stroke="#000000" points="456.5,-54.5 456.5,-71.5 554.5,-71.5 554.5,-54.5 456.5,-54.5"/>
<text text-anchor="middle" x="505.5" y="-61.1" font-family="InputSans" font-size="8.00" fill="#000000">PythonContext.hpp</text>
</a>
</g>
</g>
<!-- Node0&#45;&gt;Node8 -->
<g id="edge8" class="edge">
<title>Node0&#45;&gt;Node8</title>
<path fill="none" stroke="#191970" d="M308.6825,-111.6255C355.0871,-100.1608 419.0924,-84.3478 461.3518,-73.9072"/>
<polygon fill="#191970" stroke="#191970" points="462.2073,-77.3012 471.0759,-71.5048 460.5283,-70.5055 462.2073,-77.3012"/>
</g>
<!-- Node9 -->
<g id="node10" class="node">
<title>Node9</title>
<polygon fill="none" stroke="#bfbfbf" points="430.5,-.5 430.5,-17.5 484.5,-17.5 484.5,-.5 430.5,-.5"/>
<text text-anchor="middle" x="457.5" y="-7.1" font-family="InputSans" font-size="8.00" fill="#000000">Python.h</text>
</g>
<!-- Node8&#45;&gt;Node9 -->
<g id="edge9" class="edge">
<title>Node8&#45;&gt;Node9</title>
<path fill="none" stroke="#191970" d="M497.5738,-54.083C490.6539,-46.2982 480.4346,-34.8015 472.048,-25.3665"/>
<polygon fill="#191970" stroke="#191970" points="474.5383,-22.8999 465.2787,-17.7511 469.3065,-27.5505 474.5383,-22.8999"/>
</g>
<!-- Node10 -->
<g id="node11" class="node">
<title>Node10</title>
<g id="a_node11"><a xlink:href="_i_python_context_8hpp.html" target="_top" xlink:title="IPythonContext.hpp">
<polygon fill="none" stroke="#000000" points="502.5,-.5 502.5,-17.5 602.5,-17.5 602.5,-.5 502.5,-.5"/>
<text text-anchor="middle" x="552.5" y="-7.1" font-family="InputSans" font-size="8.00" fill="#000000">IPythonContext.hpp</text>
</a>
</g>
</g>
<!-- Node8&#45;&gt;Node10 -->
<g id="edge10" class="edge">
<title>Node8&#45;&gt;Node10</title>
<path fill="none" stroke="#191970" d="M513.2611,-54.083C520.0368,-46.2982 530.0432,-34.8015 538.2551,-25.3665"/>
<polygon fill="#191970" stroke="#191970" points="540.9581,-27.592 544.8833,-17.7511 535.678,-22.9963 540.9581,-27.592"/>
</g>
</g>
</svg>
