<?xml version="1.0" encoding="UTF-8" standalone="no"?>
<!DOCTYPE svg PUBLIC "-//W3C//DTD SVG 1.1//EN"
 "http://www.w3.org/Graphics/SVG/1.1/DTD/svg11.dtd">
<!-- Generated by graphviz version 2.40.1 (20161225.0304)
 -->
<!-- Title: /home/jacques/repos/math4171/src/arcmath/old/PythonContext.hpp Pages: 1 -->
<svg width="180pt" height="98pt"
 viewBox="0.00 0.00 180.00 98.00" xmlns="http://www.w3.org/2000/svg" xmlns:xlink="http://www.w3.org/1999/xlink">
<g id="graph0" class="graph" transform="scale(1 1) rotate(0) translate(4 94)">
<title>/home/jacques/repos/math4171/src/arcmath/old/PythonContext.hpp</title>
<!-- Node0 -->
<g id="node1" class="node">
<title>Node0</title>
<polygon fill="#bfbfbf" stroke="#000000" points="16,-54.5 16,-89.5 132,-89.5 132,-54.5 16,-54.5"/>
<text text-anchor="start" x="24" y="-79.1" font-family="InputSans" font-size="8.00" fill="#000000">/home/jacques/repos</text>
<text text-anchor="start" x="24" y="-70.1" font-family="InputSans" font-size="8.00" fill="#000000">/math4171/src/arcmath</text>
<text text-anchor="middle" x="74" y="-61.1" font-family="InputSans" font-size="8.00" fill="#000000">/old/PythonContext.hpp</text>
</g>
<!-- Node1 -->
<g id="node2" class="node">
<title>Node1</title>
<polygon fill="none" stroke="#bfbfbf" points="0,-.5 0,-17.5 54,-17.5 54,-.5 0,-.5"/>
<text text-anchor="middle" x="27" y="-7.1" font-family="InputSans" font-size="8.00" fill="#000000">Python.h</text>
</g>
<!-- Node0&#45;&gt;Node1 -->
<g id="edge1" class="edge">
<title>Node0&#45;&gt;Node1</title>
<path fill="none" stroke="#191970" d="M60.9079,-54.451C54.226,-45.4945 46.1374,-34.6522 39.5363,-25.804"/>
<polygon fill="#191970" stroke="#191970" points="42.3232,-23.6864 33.5382,-17.764 36.7126,-27.8722 42.3232,-23.6864"/>
</g>
<!-- Node2 -->
<g id="node3" class="node">
<title>Node2</title>
<g id="a_node3"><a xlink:href="_i_python_context_8hpp.html" target="_top" xlink:title="IPythonContext.hpp">
<polygon fill="none" stroke="#000000" points="72,-.5 72,-17.5 172,-17.5 172,-.5 72,-.5"/>
<text text-anchor="middle" x="122" y="-7.1" font-family="InputSans" font-size="8.00" fill="#000000">IPythonContext.hpp</text>
</a>
</g>
</g>
<!-- Node0&#45;&gt;Node2 -->
<g id="edge2" class="edge">
<title>Node0&#45;&gt;Node2</title>
<path fill="none" stroke="#191970" d="M87.3707,-54.451C94.1947,-45.4945 102.4554,-34.6522 109.197,-25.804"/>
<polygon fill="#191970" stroke="#191970" points="112.0462,-27.8395 115.3227,-17.764 106.4782,-23.5972 112.0462,-27.8395"/>
</g>
</g>
</svg>
