<?xml version="1.0" encoding="UTF-8" standalone="no"?>
<!DOCTYPE svg PUBLIC "-//W3C//DTD SVG 1.1//EN"
 "http://www.w3.org/Graphics/SVG/1.1/DTD/svg11.dtd">
<!-- Generated by graphviz version 2.40.1 (20161225.0304)
 -->
<!-- Title: /home/jacques/repos/math4171/src/arcpython/PythonContext.hpp Pages: 1 -->
<svg width="634pt" height="116pt"
 viewBox="0.00 0.00 633.50 116.00" xmlns="http://www.w3.org/2000/svg" xmlns:xlink="http://www.w3.org/1999/xlink">
<g id="graph0" class="graph" transform="scale(1 1) rotate(0) translate(4 112)">
<title>/home/jacques/repos/math4171/src/arcpython/PythonContext.hpp</title>
<!-- Node5 -->
<g id="node1" class="node">
<title>Node5</title>
<polygon fill="#bfbfbf" stroke="#000000" points="230.5,-72.5 230.5,-107.5 370.5,-107.5 370.5,-72.5 230.5,-72.5"/>
<text text-anchor="start" x="238.5" y="-97.1" font-family="InputSans" font-size="8.00" fill="#000000">/home/jacques/repos</text>
<text text-anchor="start" x="238.5" y="-88.1" font-family="InputSans" font-size="8.00" fill="#000000">/math4171/src/arcpython</text>
<text text-anchor="middle" x="300.5" y="-79.1" font-family="InputSans" font-size="8.00" fill="#000000">/PythonContext.hpp</text>
</g>
<!-- Node6 -->
<g id="node2" class="node">
<title>Node6</title>
<g id="a_node2"><a xlink:href="_surf_plot3d_8cpp.html" target="_top" xlink:title="/home/jacques/repos\l/math4171/src/arcplot\l/old/SurfPlot3d.cpp">
<polygon fill="none" stroke="#000000" points="0,-.5 0,-35.5 129,-35.5 129,-.5 0,-.5"/>
<text text-anchor="start" x="8" y="-25.1" font-family="InputSans" font-size="8.00" fill="#000000">/home/jacques/repos</text>
<text text-anchor="start" x="8" y="-16.1" font-family="InputSans" font-size="8.00" fill="#000000">/math4171/src/arcplot</text>
<text text-anchor="middle" x="64.5" y="-7.1" font-family="InputSans" font-size="8.00" fill="#000000">/old/SurfPlot3d.cpp</text>
</a>
</g>
</g>
<!-- Node5&#45;&gt;Node6 -->
<g id="edge1" class="edge">
<title>Node5&#45;&gt;Node6</title>
<path fill="none" stroke="#191970" d="M233.3834,-69.5237C198.2949,-58.8188 155.7815,-45.8486 122.1879,-35.5997"/>
<polygon fill="#191970" stroke="#191970" points="232.4836,-72.9084 243.0697,-72.4789 234.5263,-66.2131 232.4836,-72.9084"/>
</g>
<!-- Node7 -->
<g id="node3" class="node">
<title>Node7</title>
<g id="a_node3"><a xlink:href="arcpython_2_python_context_8cpp.html" target="_top" xlink:title="/home/jacques/repos\l/math4171/src/arcpython\l/PythonContext.cpp">
<polygon fill="none" stroke="#000000" points="147.5,-.5 147.5,-35.5 287.5,-35.5 287.5,-.5 147.5,-.5"/>
<text text-anchor="start" x="155.5" y="-25.1" font-family="InputSans" font-size="8.00" fill="#000000">/home/jacques/repos</text>
<text text-anchor="start" x="155.5" y="-16.1" font-family="InputSans" font-size="8.00" fill="#000000">/math4171/src/arcpython</text>
<text text-anchor="middle" x="217.5" y="-7.1" font-family="InputSans" font-size="8.00" fill="#000000">/PythonContext.cpp</text>
</a>
</g>
</g>
<!-- Node5&#45;&gt;Node7 -->
<g id="edge2" class="edge">
<title>Node5&#45;&gt;Node7</title>
<path fill="none" stroke="#191970" d="M272.4097,-65.6325C261.054,-55.7818 248.1974,-44.6291 237.7809,-35.593"/>
<polygon fill="#191970" stroke="#191970" points="270.1357,-68.2933 279.9831,-72.2022 274.7227,-63.0056 270.1357,-68.2933"/>
</g>
<!-- Node8 -->
<g id="node4" class="node">
<title>Node8</title>
<g id="a_node4"><a xlink:href="assignment1-src_2_main_8cpp.html" target="_top" xlink:title="/home/jacques/repos\l/math4171/src/assignment1\l&#45;src/Main.cpp">
<polygon fill="none" stroke="#000000" points="306,-.5 306,-35.5 461,-35.5 461,-.5 306,-.5"/>
<text text-anchor="start" x="314" y="-25.1" font-family="InputSans" font-size="8.00" fill="#000000">/home/jacques/repos</text>
<text text-anchor="start" x="314" y="-16.1" font-family="InputSans" font-size="8.00" fill="#000000">/math4171/src/assignment1</text>
<text text-anchor="middle" x="383.5" y="-7.1" font-family="InputSans" font-size="8.00" fill="#000000">&#45;src/Main.cpp</text>
</a>
</g>
</g>
<!-- Node5&#45;&gt;Node8 -->
<g id="edge3" class="edge">
<title>Node5&#45;&gt;Node8</title>
<path fill="none" stroke="#191970" d="M328.5903,-65.6325C339.946,-55.7818 352.8026,-44.6291 363.2191,-35.593"/>
<polygon fill="#191970" stroke="#191970" points="326.2773,-63.0056 321.0169,-72.2022 330.8643,-68.2933 326.2773,-63.0056"/>
</g>
<!-- Node9 -->
<g id="node5" class="node">
<title>Node9</title>
<g id="a_node5"><a xlink:href="playground_2_main_8cpp.html" target="_top" xlink:title="/home/jacques/repos\l/math4171/src/playground\l/Main.cpp">
<polygon fill="none" stroke="#000000" points="479.5,-.5 479.5,-35.5 625.5,-35.5 625.5,-.5 479.5,-.5"/>
<text text-anchor="start" x="487.5" y="-25.1" font-family="InputSans" font-size="8.00" fill="#000000">/home/jacques/repos</text>
<text text-anchor="start" x="487.5" y="-16.1" font-family="InputSans" font-size="8.00" fill="#000000">/math4171/src/playground</text>
<text text-anchor="middle" x="552.5" y="-7.1" font-family="InputSans" font-size="8.00" fill="#000000">/Main.cpp</text>
</a>
</g>
</g>
<!-- Node5&#45;&gt;Node9 -->
<g id="edge4" class="edge">
<title>Node5&#45;&gt;Node9</title>
<path fill="none" stroke="#191970" d="M371.687,-69.6609C409.2461,-58.9297 454.8766,-45.8924 490.9011,-35.5997"/>
<polygon fill="#191970" stroke="#191970" points="370.4776,-66.3663 361.8239,-72.4789 372.4007,-73.0969 370.4776,-66.3663"/>
</g>
</g>
</svg>
