<?xml version="1.0" encoding="UTF-8" standalone="no"?>
<!DOCTYPE svg PUBLIC "-//W3C//DTD SVG 1.1//EN"
 "http://www.w3.org/Graphics/SVG/1.1/DTD/svg11.dtd">
<!-- Generated by graphviz version 2.40.1 (20161225.0304)
 -->
<!-- Title: /home/jacques/repos/math4171/src/arcpython/PythonContext.hpp Pages: 1 -->
<svg width="414pt" height="116pt"
 viewBox="0.00 0.00 413.50 116.00" xmlns="http://www.w3.org/2000/svg" xmlns:xlink="http://www.w3.org/1999/xlink">
<g id="graph0" class="graph" transform="scale(1 1) rotate(0) translate(4 112)">
<title>/home/jacques/repos/math4171/src/arcpython/PythonContext.hpp</title>
<!-- Node5 -->
<g id="node1" class="node">
<title>Node5</title>
<polygon fill="#bfbfbf" stroke="#000000" points="128,-72.5 128,-107.5 252,-107.5 252,-72.5 128,-72.5"/>
<text text-anchor="start" x="136" y="-97.1" font-family="InputSans" font-size="8.00" fill="#000000">/home/jacques/repos</text>
<text text-anchor="start" x="136" y="-88.1" font-family="InputSans" font-size="8.00" fill="#000000">/math4171/src/arcpython</text>
<text text-anchor="middle" x="190" y="-79.1" font-family="InputSans" font-size="8.00" fill="#000000">/PythonContext.hpp</text>
</g>
<!-- Node6 -->
<g id="node2" class="node">
<title>Node6</title>
<g id="a_node2"><a xlink:href="_surf_plot3d_8cpp.html" target="_top" xlink:title="/home/jacques/repos\l/math4171/src/arcplot\l/SurfPlot3d.cpp">
<polygon fill="none" stroke="#000000" points="0,-.5 0,-35.5 110,-35.5 110,-.5 0,-.5"/>
<text text-anchor="start" x="8" y="-25.1" font-family="InputSans" font-size="8.00" fill="#000000">/home/jacques/repos</text>
<text text-anchor="start" x="8" y="-16.1" font-family="InputSans" font-size="8.00" fill="#000000">/math4171/src/arcplot</text>
<text text-anchor="middle" x="55" y="-7.1" font-family="InputSans" font-size="8.00" fill="#000000">/SurfPlot3d.cpp</text>
</a>
</g>
</g>
<!-- Node5&#45;&gt;Node6 -->
<g id="edge1" class="edge">
<title>Node5&#45;&gt;Node6</title>
<path fill="none" stroke="#191970" d="M148.087,-67.6464C128.796,-57.3579 106.2325,-45.324 88.1517,-35.6809"/>
<polygon fill="#191970" stroke="#191970" points="146.5047,-70.7691 156.9753,-72.3868 149.7988,-64.5926 146.5047,-70.7691"/>
</g>
<!-- Node7 -->
<g id="node3" class="node">
<title>Node7</title>
<g id="a_node3"><a xlink:href="arcpython_2_python_context_8cpp.html" target="_top" xlink:title="/home/jacques/repos\l/math4171/src/arcpython\l/PythonContext.cpp">
<polygon fill="none" stroke="#000000" points="128,-.5 128,-35.5 252,-35.5 252,-.5 128,-.5"/>
<text text-anchor="start" x="136" y="-25.1" font-family="InputSans" font-size="8.00" fill="#000000">/home/jacques/repos</text>
<text text-anchor="start" x="136" y="-16.1" font-family="InputSans" font-size="8.00" fill="#000000">/math4171/src/arcpython</text>
<text text-anchor="middle" x="190" y="-7.1" font-family="InputSans" font-size="8.00" fill="#000000">/PythonContext.cpp</text>
</a>
</g>
</g>
<!-- Node5&#45;&gt;Node7 -->
<g id="edge2" class="edge">
<title>Node5&#45;&gt;Node7</title>
<path fill="none" stroke="#191970" d="M190,-62.1759C190,-53.2363 190,-43.5865 190,-35.593"/>
<polygon fill="#191970" stroke="#191970" points="186.5001,-62.2022 190,-72.2022 193.5001,-62.2023 186.5001,-62.2022"/>
</g>
<!-- Node8 -->
<g id="node4" class="node">
<title>Node8</title>
<g id="a_node4"><a xlink:href="_main_8cpp.html" target="_top" xlink:title="/home/jacques/repos\l/math4171/src/assignment1\l&#45;src/Main.cpp">
<polygon fill="none" stroke="#000000" points="270.5,-.5 270.5,-35.5 405.5,-35.5 405.5,-.5 270.5,-.5"/>
<text text-anchor="start" x="278.5" y="-25.1" font-family="InputSans" font-size="8.00" fill="#000000">/home/jacques/repos</text>
<text text-anchor="start" x="278.5" y="-16.1" font-family="InputSans" font-size="8.00" fill="#000000">/math4171/src/assignment1</text>
<text text-anchor="middle" x="338" y="-7.1" font-family="InputSans" font-size="8.00" fill="#000000">&#45;src/Main.cpp</text>
</a>
</g>
</g>
<!-- Node5&#45;&gt;Node8 -->
<g id="edge3" class="edge">
<title>Node5&#45;&gt;Node8</title>
<path fill="none" stroke="#191970" d="M235.4111,-67.9081C256.7683,-57.5181 281.8799,-45.3017 301.9127,-35.556"/>
<polygon fill="#191970" stroke="#191970" points="233.6661,-64.8648 226.2049,-72.3868 236.7284,-71.1594 233.6661,-64.8648"/>
</g>
</g>
</svg>
