<?xml version="1.0" encoding="UTF-8" standalone="no"?>
<!DOCTYPE svg PUBLIC "-//W3C//DTD SVG 1.1//EN"
 "http://www.w3.org/Graphics/SVG/1.1/DTD/svg11.dtd">
<!-- Generated by graphviz version 2.40.1 (20161225.0304)
 -->
<!-- Title: /home/jacques/repos/math4171/src/arcpython/PythonContext.hpp Pages: 1 -->
<svg width="263pt" height="98pt"
 viewBox="0.00 0.00 263.00 98.00" xmlns="http://www.w3.org/2000/svg" xmlns:xlink="http://www.w3.org/1999/xlink">
<g id="graph0" class="graph" transform="scale(1 1) rotate(0) translate(4 94)">
<title>/home/jacques/repos/math4171/src/arcpython/PythonContext.hpp</title>
<!-- Node0 -->
<g id="node1" class="node">
<title>Node0</title>
<polygon fill="#bfbfbf" stroke="#000000" points="54.5,-54.5 54.5,-89.5 194.5,-89.5 194.5,-54.5 54.5,-54.5"/>
<text text-anchor="start" x="62.5" y="-79.1" font-family="InputSans" font-size="8.00" fill="#000000">/home/jacques/repos</text>
<text text-anchor="start" x="62.5" y="-70.1" font-family="InputSans" font-size="8.00" fill="#000000">/math4171/src/arcpython</text>
<text text-anchor="middle" x="124.5" y="-61.1" font-family="InputSans" font-size="8.00" fill="#000000">/PythonContext.hpp</text>
</g>
<!-- Node1 -->
<g id="node2" class="node">
<title>Node1</title>
<polygon fill="none" stroke="#bfbfbf" points="0,-.5 0,-17.5 51,-17.5 51,-.5 0,-.5"/>
<text text-anchor="middle" x="25.5" y="-7.1" font-family="InputSans" font-size="8.00" fill="#000000">memory</text>
</g>
<!-- Node0&#45;&gt;Node1 -->
<g id="edge1" class="edge">
<title>Node0&#45;&gt;Node1</title>
<path fill="none" stroke="#191970" d="M96.923,-54.451C81.4351,-44.5951 62.3589,-32.4557 47.8184,-23.2026"/>
<polygon fill="#191970" stroke="#191970" points="49.3171,-20.0078 39.0014,-17.5918 45.5589,-25.9134 49.3171,-20.0078"/>
</g>
<!-- Node2 -->
<g id="node3" class="node">
<title>Node2</title>
<polygon fill="none" stroke="#bfbfbf" points="69.5,-.5 69.5,-17.5 115.5,-17.5 115.5,-.5 69.5,-.5"/>
<text text-anchor="middle" x="92.5" y="-7.1" font-family="InputSans" font-size="8.00" fill="#000000">string</text>
</g>
<!-- Node0&#45;&gt;Node2 -->
<g id="edge2" class="edge">
<title>Node0&#45;&gt;Node2</title>
<path fill="none" stroke="#191970" d="M115.5862,-54.451C111.2264,-45.8677 105.987,-35.5525 101.6023,-26.9201"/>
<polygon fill="#191970" stroke="#191970" points="104.6008,-25.0948 96.9516,-17.764 98.3597,-28.2649 104.6008,-25.0948"/>
</g>
<!-- Node3 -->
<g id="node4" class="node">
<title>Node3</title>
<polygon fill="none" stroke="#bfbfbf" points="133.5,-.5 133.5,-17.5 179.5,-17.5 179.5,-.5 133.5,-.5"/>
<text text-anchor="middle" x="156.5" y="-7.1" font-family="InputSans" font-size="8.00" fill="#000000">vector</text>
</g>
<!-- Node0&#45;&gt;Node3 -->
<g id="edge3" class="edge">
<title>Node0&#45;&gt;Node3</title>
<path fill="none" stroke="#191970" d="M133.4138,-54.451C137.7736,-45.8677 143.013,-35.5525 147.3977,-26.9201"/>
<polygon fill="#191970" stroke="#191970" points="150.6403,-28.2649 152.0484,-17.764 144.3992,-25.0948 150.6403,-28.2649"/>
</g>
<!-- Node4 -->
<g id="node5" class="node">
<title>Node4</title>
<polygon fill="none" stroke="#bfbfbf" points="198,-.5 198,-17.5 255,-17.5 255,-.5 198,-.5"/>
<text text-anchor="middle" x="226.5" y="-7.1" font-family="InputSans" font-size="8.00" fill="#000000">Python.h</text>
</g>
<!-- Node0&#45;&gt;Node4 -->
<g id="edge4" class="edge">
<title>Node0&#45;&gt;Node4</title>
<path fill="none" stroke="#191970" d="M152.9127,-54.451C169.0219,-44.5012 188.8988,-32.2243 203.9321,-22.939"/>
<polygon fill="#191970" stroke="#191970" points="205.9207,-25.8246 212.5895,-17.5918 202.2422,-19.869 205.9207,-25.8246"/>
</g>
</g>
</svg>
