<?xml version="1.0" encoding="UTF-8" standalone="no"?>
<!DOCTYPE svg PUBLIC "-//W3C//DTD SVG 1.1//EN"
 "http://www.w3.org/Graphics/SVG/1.1/DTD/svg11.dtd">
<!-- Generated by graphviz version 2.40.1 (20161225.0304)
 -->
<!-- Title: /home/jacques/repos/math4171/src/arcpython/PythonContext.cpp Pages: 1 -->
<svg width="267pt" height="152pt"
 viewBox="0.00 0.00 267.00 152.00" xmlns="http://www.w3.org/2000/svg" xmlns:xlink="http://www.w3.org/1999/xlink">
<g id="graph0" class="graph" transform="scale(1 1) rotate(0) translate(4 148)">
<title>/home/jacques/repos/math4171/src/arcpython/PythonContext.cpp</title>
<!-- Node0 -->
<g id="node1" class="node">
<title>Node0</title>
<polygon fill="#bfbfbf" stroke="#000000" points="8.5,-108.5 8.5,-143.5 148.5,-143.5 148.5,-108.5 8.5,-108.5"/>
<text text-anchor="start" x="16.5" y="-133.1" font-family="InputSans" font-size="8.00" fill="#000000">/home/jacques/repos</text>
<text text-anchor="start" x="16.5" y="-124.1" font-family="InputSans" font-size="8.00" fill="#000000">/math4171/src/arcpython</text>
<text text-anchor="middle" x="78.5" y="-115.1" font-family="InputSans" font-size="8.00" fill="#000000">/PythonContext.cpp</text>
</g>
<!-- Node1 -->
<g id="node2" class="node">
<title>Node1</title>
<polygon fill="none" stroke="#bfbfbf" points="0,-54.5 0,-71.5 59,-71.5 59,-54.5 0,-54.5"/>
<text text-anchor="middle" x="29.5" y="-61.1" font-family="InputSans" font-size="8.00" fill="#000000">iostream</text>
</g>
<!-- Node0&#45;&gt;Node1 -->
<g id="edge1" class="edge">
<title>Node0&#45;&gt;Node1</title>
<path fill="none" stroke="#191970" d="M64.8508,-108.451C57.8846,-99.4945 49.4517,-88.6522 42.5697,-79.804"/>
<polygon fill="#191970" stroke="#191970" points="45.2186,-77.5088 36.3165,-71.764 39.6932,-81.8064 45.2186,-77.5088"/>
</g>
<!-- Node2 -->
<g id="node3" class="node">
<title>Node2</title>
<g id="a_node3"><a xlink:href="arcpython_2_python_context_8hpp.html" target="_top" xlink:title="PythonContext.hpp">
<polygon fill="none" stroke="#000000" points="77,-54.5 77,-71.5 180,-71.5 180,-54.5 77,-54.5"/>
<text text-anchor="middle" x="128.5" y="-61.1" font-family="InputSans" font-size="8.00" fill="#000000">PythonContext.hpp</text>
</a>
</g>
</g>
<!-- Node0&#45;&gt;Node2 -->
<g id="edge2" class="edge">
<title>Node0&#45;&gt;Node2</title>
<path fill="none" stroke="#191970" d="M92.4278,-108.451C99.5361,-99.4945 108.1411,-88.6522 115.1635,-79.804"/>
<polygon fill="#191970" stroke="#191970" points="118.0693,-81.7727 121.5444,-71.764 112.5863,-77.4211 118.0693,-81.7727"/>
</g>
<!-- Node3 -->
<g id="node4" class="node">
<title>Node3</title>
<polygon fill="none" stroke="#bfbfbf" points="4,-.5 4,-17.5 55,-17.5 55,-.5 4,-.5"/>
<text text-anchor="middle" x="29.5" y="-7.1" font-family="InputSans" font-size="8.00" fill="#000000">memory</text>
</g>
<!-- Node2&#45;&gt;Node3 -->
<g id="edge3" class="edge">
<title>Node2&#45;&gt;Node3</title>
<path fill="none" stroke="#191970" d="M112.5939,-54.324C96.8618,-45.7428 72.5577,-32.486 54.2911,-22.5224"/>
<polygon fill="#191970" stroke="#191970" points="55.8216,-19.3704 45.3666,-17.6545 52.4696,-25.5157 55.8216,-19.3704"/>
</g>
<!-- Node4 -->
<g id="node5" class="node">
<title>Node4</title>
<polygon fill="none" stroke="#bfbfbf" points="73.5,-.5 73.5,-17.5 119.5,-17.5 119.5,-.5 73.5,-.5"/>
<text text-anchor="middle" x="96.5" y="-7.1" font-family="InputSans" font-size="8.00" fill="#000000">string</text>
</g>
<!-- Node2&#45;&gt;Node4 -->
<g id="edge4" class="edge">
<title>Node2&#45;&gt;Node4</title>
<path fill="none" stroke="#191970" d="M123.2159,-54.083C118.789,-46.6127 112.3367,-35.7244 106.8821,-26.5199"/>
<polygon fill="#191970" stroke="#191970" points="109.7949,-24.5697 101.6858,-17.7511 103.7729,-28.1383 109.7949,-24.5697"/>
</g>
<!-- Node5 -->
<g id="node6" class="node">
<title>Node5</title>
<polygon fill="none" stroke="#bfbfbf" points="137.5,-.5 137.5,-17.5 183.5,-17.5 183.5,-.5 137.5,-.5"/>
<text text-anchor="middle" x="160.5" y="-7.1" font-family="InputSans" font-size="8.00" fill="#000000">vector</text>
</g>
<!-- Node2&#45;&gt;Node5 -->
<g id="edge5" class="edge">
<title>Node2&#45;&gt;Node5</title>
<path fill="none" stroke="#191970" d="M133.7841,-54.083C138.211,-46.6127 144.6633,-35.7244 150.1179,-26.5199"/>
<polygon fill="#191970" stroke="#191970" points="153.2271,-28.1383 155.3142,-17.7511 147.2051,-24.5697 153.2271,-28.1383"/>
</g>
<!-- Node6 -->
<g id="node7" class="node">
<title>Node6</title>
<polygon fill="none" stroke="#bfbfbf" points="202,-.5 202,-17.5 259,-17.5 259,-.5 202,-.5"/>
<text text-anchor="middle" x="230.5" y="-7.1" font-family="InputSans" font-size="8.00" fill="#000000">Python.h</text>
</g>
<!-- Node2&#45;&gt;Node6 -->
<g id="edge6" class="edge">
<title>Node2&#45;&gt;Node6</title>
<path fill="none" stroke="#191970" d="M144.8881,-54.324C161.1713,-45.7034 186.3675,-32.3643 205.2163,-22.3855"/>
<polygon fill="#191970" stroke="#191970" points="206.9523,-25.4267 214.1526,-17.6545 203.6771,-19.2402 206.9523,-25.4267"/>
</g>
</g>
</svg>
