<?xml version="1.0" encoding="UTF-8" standalone="no"?>
<!DOCTYPE svg PUBLIC "-//W3C//DTD SVG 1.1//EN"
 "http://www.w3.org/Graphics/SVG/1.1/DTD/svg11.dtd">
<!-- Generated by graphviz version 2.40.1 (20161225.0304)
 -->
<!-- Title: /home/jacques/repos/math4171/src/arcpython/PythonContext.cpp Pages: 1 -->
<svg width="705pt" height="206pt"
 viewBox="0.00 0.00 704.63 206.00" xmlns="http://www.w3.org/2000/svg" xmlns:xlink="http://www.w3.org/1999/xlink">
<g id="graph0" class="graph" transform="scale(1 1) rotate(0) translate(4 202)">
<title>/home/jacques/repos/math4171/src/arcpython/PythonContext.cpp</title>
<!-- Node0 -->
<g id="node1" class="node">
<title>Node0</title>
<polygon fill="#bfbfbf" stroke="#000000" points="295,-162.5 295,-197.5 419,-197.5 419,-162.5 295,-162.5"/>
<text text-anchor="start" x="303" y="-187.1" font-family="InputSans" font-size="8.00" fill="#000000">/home/jacques/repos</text>
<text text-anchor="start" x="303" y="-178.1" font-family="InputSans" font-size="8.00" fill="#000000">/math4171/src/arcpython</text>
<text text-anchor="middle" x="357" y="-169.1" font-family="InputSans" font-size="8.00" fill="#000000">/PythonContext.cpp</text>
</g>
<!-- Node1 -->
<g id="node2" class="node">
<title>Node1</title>
<polygon fill="none" stroke="#bfbfbf" points="243,-54.5 243,-71.5 297,-71.5 297,-54.5 243,-54.5"/>
<text text-anchor="middle" x="270" y="-61.1" font-family="InputSans" font-size="8.00" fill="#000000">iostream</text>
</g>
<!-- Node0&#45;&gt;Node1 -->
<g id="edge1" class="edge">
<title>Node0&#45;&gt;Node1</title>
<path fill="none" stroke="#191970" d="M355.8456,-162.219C354.0619,-146.6525 349.5265,-124.0741 338,-108 328.2809,-94.4464 313.1058,-83.8372 299.5547,-76.3328"/>
<polygon fill="#191970" stroke="#191970" points="301.0068,-73.143 290.5197,-71.6355 297.7777,-79.3538 301.0068,-73.143"/>
</g>
<!-- Node2 -->
<g id="node3" class="node">
<title>Node2</title>
<g id="a_node3"><a xlink:href="_python_float_8hpp.html" target="_top" xlink:title="PythonFloat.hpp">
<polygon fill="none" stroke="#000000" points="592.5,-108.5 592.5,-125.5 677.5,-125.5 677.5,-108.5 592.5,-108.5"/>
<text text-anchor="middle" x="635" y="-115.1" font-family="InputSans" font-size="8.00" fill="#000000">PythonFloat.hpp</text>
</a>
</g>
</g>
<!-- Node0&#45;&gt;Node2 -->
<g id="edge2" class="edge">
<title>Node0&#45;&gt;Node2</title>
<path fill="none" stroke="#191970" d="M419.0426,-165.94C470.03,-154.3853 541.1907,-138.2589 587.6711,-127.7256"/>
<polygon fill="#191970" stroke="#191970" points="588.5071,-131.125 597.4862,-125.5013 586.96,-124.2981 588.5071,-131.125"/>
</g>
<!-- Node7 -->
<g id="node8" class="node">
<title>Node7</title>
<g id="a_node8"><a xlink:href="_python_function_8hpp.html" target="_top" xlink:title="PythonFunction.hpp">
<polygon fill="none" stroke="#000000" points="116.5,-108.5 116.5,-125.5 215.5,-125.5 215.5,-108.5 116.5,-108.5"/>
<text text-anchor="middle" x="166" y="-115.1" font-family="InputSans" font-size="8.00" fill="#000000">PythonFunction.hpp</text>
</a>
</g>
</g>
<!-- Node0&#45;&gt;Node7 -->
<g id="edge8" class="edge">
<title>Node0&#45;&gt;Node7</title>
<path fill="none" stroke="#191970" d="M303.7959,-162.451C271.113,-151.6708 230.1479,-138.1587 201.41,-128.6797"/>
<polygon fill="#191970" stroke="#191970" points="202.3817,-125.3148 191.7886,-125.5062 200.1889,-131.9625 202.3817,-125.3148"/>
</g>
<!-- Node9 -->
<g id="node10" class="node">
<title>Node9</title>
<g id="a_node10"><a xlink:href="_python_list_8hpp.html" target="_top" xlink:title="PythonList.hpp">
<polygon fill="none" stroke="#000000" points="495.5,-108.5 495.5,-125.5 574.5,-125.5 574.5,-108.5 495.5,-108.5"/>
<text text-anchor="middle" x="535" y="-115.1" font-family="InputSans" font-size="8.00" fill="#000000">PythonList.hpp</text>
</a>
</g>
</g>
<!-- Node0&#45;&gt;Node9 -->
<g id="edge14" class="edge">
<title>Node0&#45;&gt;Node9</title>
<path fill="none" stroke="#191970" d="M406.5829,-162.451C436.6841,-151.7972 474.3237,-138.4753 501.0531,-129.0149"/>
<polygon fill="#191970" stroke="#191970" points="502.4656,-132.2278 510.7248,-125.5918 500.13,-125.6289 502.4656,-132.2278"/>
</g>
<!-- Node11 -->
<g id="node12" class="node">
<title>Node11</title>
<g id="a_node12"><a xlink:href="_python_module_8hpp.html" target="_top" xlink:title="PythonModule.hpp">
<polygon fill="none" stroke="#000000" points="233.5,-108.5 233.5,-125.5 328.5,-125.5 328.5,-108.5 233.5,-108.5"/>
<text text-anchor="middle" x="281" y="-115.1" font-family="InputSans" font-size="8.00" fill="#000000">PythonModule.hpp</text>
</a>
</g>
</g>
<!-- Node0&#45;&gt;Node11 -->
<g id="edge20" class="edge">
<title>Node0&#45;&gt;Node11</title>
<path fill="none" stroke="#191970" d="M335.8298,-162.451C324.3498,-152.9347 310.3017,-141.2896 299.2994,-132.1692"/>
<polygon fill="#191970" stroke="#191970" points="301.505,-129.4514 291.5725,-125.764 297.0376,-134.8405 301.505,-129.4514"/>
</g>
<!-- Node12 -->
<g id="node13" class="node">
<title>Node12</title>
<g id="a_node13"><a xlink:href="_python_tupple_8hpp.html" target="_top" xlink:title="PythonTupple.hpp">
<polygon fill="none" stroke="#000000" points="385,-108.5 385,-125.5 477,-125.5 477,-108.5 385,-108.5"/>
<text text-anchor="middle" x="431" y="-115.1" font-family="InputSans" font-size="8.00" fill="#000000">PythonTupple.hpp</text>
</a>
</g>
</g>
<!-- Node0&#45;&gt;Node12 -->
<g id="edge26" class="edge">
<title>Node0&#45;&gt;Node12</title>
<path fill="none" stroke="#191970" d="M377.6131,-162.451C388.6814,-153.028 402.2014,-141.5177 412.8663,-132.4382"/>
<polygon fill="#191970" stroke="#191970" points="415.3603,-134.9115 420.7058,-125.764 410.8225,-129.5815 415.3603,-134.9115"/>
</g>
<!-- Node13 -->
<g id="node14" class="node">
<title>Node13</title>
<g id="a_node14"><a xlink:href="arcpython_2_python_context_8hpp.html" target="_top" xlink:title="PythonContext.hpp">
<polygon fill="none" stroke="#000000" points="0,-108.5 0,-125.5 98,-125.5 98,-108.5 0,-108.5"/>
<text text-anchor="middle" x="49" y="-115.1" font-family="InputSans" font-size="8.00" fill="#000000">PythonContext.hpp</text>
</a>
</g>
</g>
<!-- Node0&#45;&gt;Node13 -->
<g id="edge32" class="edge">
<title>Node0&#45;&gt;Node13</title>
<path fill="none" stroke="#191970" d="M294.6716,-167.251C237.6999,-155.5977 154.4105,-138.5612 100.9534,-127.6268"/>
<polygon fill="#191970" stroke="#191970" points="101.5029,-124.1668 91.0043,-125.5918 100.1001,-131.0248 101.5029,-124.1668"/>
</g>
<!-- Node3 -->
<g id="node4" class="node">
<title>Node3</title>
<polygon fill="none" stroke="#bfbfbf" points="635.5,-54.5 635.5,-71.5 682.5,-71.5 682.5,-54.5 635.5,-54.5"/>
<text text-anchor="middle" x="659" y="-61.1" font-family="InputSans" font-size="8.00" fill="#000000">cassert</text>
</g>
<!-- Node2&#45;&gt;Node3 -->
<g id="edge3" class="edge">
<title>Node2&#45;&gt;Node3</title>
<path fill="none" stroke="#191970" d="M638.9631,-108.083C642.2133,-100.77 646.9194,-90.1814 650.954,-81.1034"/>
<polygon fill="#191970" stroke="#191970" points="654.2475,-82.3107 655.1106,-71.7511 647.8508,-79.4677 654.2475,-82.3107"/>
</g>
<!-- Node4 -->
<g id="node5" class="node">
<title>Node4</title>
<polygon fill="none" stroke="#bfbfbf" points="377.5,-54.5 377.5,-71.5 430.5,-71.5 430.5,-54.5 377.5,-54.5"/>
<text text-anchor="middle" x="404" y="-61.1" font-family="InputSans" font-size="8.00" fill="#000000">memory</text>
</g>
<!-- Node2&#45;&gt;Node4 -->
<g id="edge4" class="edge">
<title>Node2&#45;&gt;Node4</title>
<path fill="none" stroke="#191970" d="M598.3974,-108.4435C555.1735,-98.3393 483.711,-81.6337 440.5222,-71.5377"/>
<polygon fill="#191970" stroke="#191970" points="441.2435,-68.112 430.7093,-69.2437 439.65,-74.9282 441.2435,-68.112"/>
</g>
<!-- Node5 -->
<g id="node6" class="node">
<title>Node5</title>
<polygon fill="none" stroke="#bfbfbf" points="432,-.5 432,-17.5 486,-17.5 486,-.5 432,-.5"/>
<text text-anchor="middle" x="459" y="-7.1" font-family="InputSans" font-size="8.00" fill="#000000">Python.h</text>
</g>
<!-- Node2&#45;&gt;Node5 -->
<g id="edge5" class="edge">
<title>Node2&#45;&gt;Node5</title>
<path fill="none" stroke="#191970" d="M652.6819,-108.4567C675.0082,-96.5437 708.6183,-74.1349 692,-54 667.6317,-24.475 555.8535,-14.1022 496.4169,-10.6343"/>
<polygon fill="#191970" stroke="#191970" points="496.4834,-7.1328 486.3072,-10.0817 496.1013,-14.1224 496.4834,-7.1328"/>
</g>
<!-- Node6 -->
<g id="node7" class="node">
<title>Node6</title>
<g id="a_node7"><a xlink:href="_python_object_8hpp.html" target="_top" xlink:title="PythonObject.hpp">
<polygon fill="none" stroke="#000000" points="487,-54.5 487,-71.5 579,-71.5 579,-54.5 487,-54.5"/>
<text text-anchor="middle" x="533" y="-61.1" font-family="InputSans" font-size="8.00" fill="#000000">PythonObject.hpp</text>
</a>
</g>
</g>
<!-- Node2&#45;&gt;Node6 -->
<g id="edge6" class="edge">
<title>Node2&#45;&gt;Node6</title>
<path fill="none" stroke="#191970" d="M618.6119,-108.324C602.3287,-99.7034 577.1325,-86.3643 558.2837,-76.3855"/>
<polygon fill="#191970" stroke="#191970" points="559.8229,-73.2402 549.3474,-71.6545 556.5477,-79.4267 559.8229,-73.2402"/>
</g>
<!-- Node6&#45;&gt;Node5 -->
<g id="edge7" class="edge">
<title>Node6&#45;&gt;Node5</title>
<path fill="none" stroke="#191970" d="M521.1106,-54.324C509.8498,-46.1066 492.7134,-33.6017 479.2909,-23.8069"/>
<polygon fill="#191970" stroke="#191970" points="481.2468,-20.9014 471.1057,-17.8339 477.1205,-26.5559 481.2468,-20.9014"/>
</g>
<!-- Node7&#45;&gt;Node1 -->
<g id="edge10" class="edge">
<title>Node7&#45;&gt;Node1</title>
<path fill="none" stroke="#191970" d="M182.7094,-108.324C199.3119,-99.7034 225.0021,-86.3643 244.2205,-76.3855"/>
<polygon fill="#191970" stroke="#191970" points="246.07,-79.3689 253.3321,-71.6545 242.8442,-73.1565 246.07,-79.3689"/>
</g>
<!-- Node7&#45;&gt;Node4 -->
<g id="edge11" class="edge">
<title>Node7&#45;&gt;Node4</title>
<path fill="none" stroke="#191970" d="M205.9301,-108.4227C244.6571,-100.0329 305.3258,-86.704 367.3238,-72.1129"/>
<polygon fill="#191970" stroke="#191970" points="368.3546,-75.4658 377.2823,-69.7608 366.7456,-68.6532 368.3546,-75.4658"/>
</g>
<!-- Node7&#45;&gt;Node5 -->
<g id="edge9" class="edge">
<title>Node7&#45;&gt;Node5</title>
<path fill="none" stroke="#191970" d="M156.3006,-108.42C142.7948,-95.4571 121.5253,-70.6312 136,-54 154.5425,-32.6951 340.4186,-17.2628 421.504,-11.4921"/>
<polygon fill="#191970" stroke="#191970" points="422.0362,-14.9635 431.7673,-10.7736 421.5473,-7.9806 422.0362,-14.9635"/>
</g>
<!-- Node7&#45;&gt;Node6 -->
<g id="edge13" class="edge">
<title>Node7&#45;&gt;Node6</title>
<path fill="none" stroke="#191970" d="M215.5711,-109.4152C218.7616,-108.9341 221.9256,-108.4591 225,-108 312.9676,-94.8645 415.1335,-80.0186 476.8799,-71.0911"/>
<polygon fill="#191970" stroke="#191970" points="477.4104,-74.5509 486.8069,-69.6565 476.4091,-67.6228 477.4104,-74.5509"/>
</g>
<!-- Node8 -->
<g id="node9" class="node">
<title>Node8</title>
<polygon fill="none" stroke="#bfbfbf" points="145.5,-54.5 145.5,-71.5 186.5,-71.5 186.5,-54.5 145.5,-54.5"/>
<text text-anchor="middle" x="166" y="-61.1" font-family="InputSans" font-size="8.00" fill="#000000">string</text>
</g>
<!-- Node7&#45;&gt;Node8 -->
<g id="edge12" class="edge">
<title>Node7&#45;&gt;Node8</title>
<path fill="none" stroke="#191970" d="M166,-108.083C166,-101.0059 166,-90.8611 166,-81.9865"/>
<polygon fill="#191970" stroke="#191970" points="169.5001,-81.751 166,-71.7511 162.5001,-81.7511 169.5001,-81.751"/>
</g>
<!-- Node9&#45;&gt;Node1 -->
<g id="edge16" class="edge">
<title>Node9&#45;&gt;Node1</title>
<path fill="none" stroke="#191970" d="M495.3818,-109.4676C443.5975,-99.5817 354.7324,-82.4685 306.922,-72.0983"/>
<polygon fill="#191970" stroke="#191970" points="307.6109,-68.6662 297.0917,-69.93 306.1031,-75.5019 307.6109,-68.6662"/>
</g>
<!-- Node9&#45;&gt;Node4 -->
<g id="edge17" class="edge">
<title>Node9&#45;&gt;Node4</title>
<path fill="none" stroke="#191970" d="M514.2427,-108.4435C492.6836,-99.5566 458.7367,-85.5632 434.2062,-75.4514"/>
<polygon fill="#191970" stroke="#191970" points="435.2394,-72.0917 424.6602,-71.5164 432.5717,-78.5634 435.2394,-72.0917"/>
</g>
<!-- Node9&#45;&gt;Node5 -->
<g id="edge15" class="edge">
<title>Node9&#45;&gt;Node5</title>
<path fill="none" stroke="#191970" d="M551.5601,-108.3967C572.0535,-96.5956 602.5669,-74.5092 588,-54 577.1397,-38.7094 530.4708,-25.138 496.3781,-16.9966"/>
<polygon fill="#191970" stroke="#191970" points="496.7872,-13.4987 486.2549,-14.6484 495.2054,-20.3176 496.7872,-13.4987"/>
</g>
<!-- Node9&#45;&gt;Node6 -->
<g id="edge19" class="edge">
<title>Node9&#45;&gt;Node6</title>
<path fill="none" stroke="#191970" d="M534.6697,-108.083C534.4076,-101.0059 534.0319,-90.8611 533.7032,-81.9865"/>
<polygon fill="#191970" stroke="#191970" points="537.1919,-81.6147 533.3241,-71.7511 530.1967,-81.8738 537.1919,-81.6147"/>
</g>
<!-- Node10 -->
<g id="node11" class="node">
<title>Node10</title>
<polygon fill="none" stroke="#bfbfbf" points="315,-54.5 315,-71.5 359,-71.5 359,-54.5 315,-54.5"/>
<text text-anchor="middle" x="337" y="-61.1" font-family="InputSans" font-size="8.00" fill="#000000">vector</text>
</g>
<!-- Node9&#45;&gt;Node10 -->
<g id="edge18" class="edge">
<title>Node9&#45;&gt;Node10</title>
<path fill="none" stroke="#191970" d="M503.1523,-108.4623C469.7168,-99.4766 415.6272,-84.8766 369,-72 368.8992,-71.9722 368.7982,-71.9443 368.697,-71.9163"/>
<polygon fill="#191970" stroke="#191970" points="369.5986,-68.5343 359.0263,-69.2244 367.7214,-75.2779 369.5986,-68.5343"/>
</g>
<!-- Node11&#45;&gt;Node1 -->
<g id="edge21" class="edge">
<title>Node11&#45;&gt;Node1</title>
<path fill="none" stroke="#191970" d="M279.1836,-108.083C277.7259,-100.9272 275.6294,-90.6353 273.8075,-81.6911"/>
<polygon fill="#191970" stroke="#191970" points="277.2083,-80.8512 271.7826,-71.7511 270.3492,-82.2485 277.2083,-80.8512"/>
</g>
<!-- Node11&#45;&gt;Node4 -->
<g id="edge22" class="edge">
<title>Node11&#45;&gt;Node4</title>
<path fill="none" stroke="#191970" d="M300.4897,-108.4435C320.6422,-99.5961 352.3229,-85.6875 375.3308,-75.5865"/>
<polygon fill="#191970" stroke="#191970" points="376.852,-78.7411 384.6015,-71.5164 374.038,-72.3316 376.852,-78.7411"/>
</g>
<!-- Node11&#45;&gt;Node5 -->
<g id="edge24" class="edge">
<title>Node11&#45;&gt;Node5</title>
<path fill="none" stroke="#191970" d="M266.5987,-108.4568C247.6629,-96.1645 218.5141,-72.8897 234,-54 257.3003,-25.5782 363.9003,-14.7497 421.6166,-10.9184"/>
<polygon fill="#191970" stroke="#191970" points="422.0315,-14.3994 431.7935,-10.2818 421.5944,-7.413 422.0315,-14.3994"/>
</g>
<!-- Node11&#45;&gt;Node6 -->
<g id="edge25" class="edge">
<title>Node11&#45;&gt;Node6</title>
<path fill="none" stroke="#191970" d="M320.9301,-108.4435C364.8909,-99.0234 435.6271,-83.8656 483.1826,-73.6752"/>
<polygon fill="#191970" stroke="#191970" points="484.212,-77.0341 493.2567,-71.5164 482.7453,-70.1895 484.212,-77.0341"/>
</g>
<!-- Node11&#45;&gt;Node8 -->
<g id="edge23" class="edge">
<title>Node11&#45;&gt;Node8</title>
<path fill="none" stroke="#191970" d="M262.7779,-108.4435C244.1043,-99.6751 214.844,-85.9355 193.3826,-75.8579"/>
<polygon fill="#191970" stroke="#191970" points="194.6763,-72.5988 184.1368,-71.5164 191.7009,-78.935 194.6763,-72.5988"/>
</g>
<!-- Node12&#45;&gt;Node1 -->
<g id="edge28" class="edge">
<title>Node12&#45;&gt;Node1</title>
<path fill="none" stroke="#191970" d="M405.4891,-108.4435C378.404,-99.3591 335.41,-84.9388 305.1312,-74.7831"/>
<polygon fill="#191970" stroke="#191970" points="305.9855,-71.3781 295.3916,-71.5164 303.7595,-78.0148 305.9855,-71.3781"/>
</g>
<!-- Node12&#45;&gt;Node4 -->
<g id="edge29" class="edge">
<title>Node12&#45;&gt;Node4</title>
<path fill="none" stroke="#191970" d="M426.5415,-108.083C422.8457,-100.6913 417.4766,-89.9533 412.9055,-80.8111"/>
<polygon fill="#191970" stroke="#191970" points="415.9782,-79.1301 408.3755,-71.7511 409.7172,-82.2606 415.9782,-79.1301"/>
</g>
<!-- Node12&#45;&gt;Node5 -->
<g id="edge27" class="edge">
<title>Node12&#45;&gt;Node5</title>
<path fill="none" stroke="#191970" d="M433.2914,-108.1619C437.8466,-90.5918 448.125,-50.9465 454.2158,-27.4532"/>
<polygon fill="#191970" stroke="#191970" points="457.6335,-28.2167 456.7552,-17.6584 450.8576,-26.4599 457.6335,-28.2167"/>
</g>
<!-- Node12&#45;&gt;Node6 -->
<g id="edge31" class="edge">
<title>Node12&#45;&gt;Node6</title>
<path fill="none" stroke="#191970" d="M447.3881,-108.324C463.6713,-99.7034 488.8675,-86.3643 507.7163,-76.3855"/>
<polygon fill="#191970" stroke="#191970" points="509.4523,-79.4267 516.6526,-71.6545 506.1771,-73.2402 509.4523,-79.4267"/>
</g>
<!-- Node12&#45;&gt;Node10 -->
<g id="edge30" class="edge">
<title>Node12&#45;&gt;Node10</title>
<path fill="none" stroke="#191970" d="M415.8973,-108.324C401.0967,-99.8215 378.3058,-86.7288 361.0178,-76.7975"/>
<polygon fill="#191970" stroke="#191970" points="362.4798,-73.6009 352.0652,-71.6545 358.9929,-79.6707 362.4798,-73.6009"/>
</g>
<!-- Node13&#45;&gt;Node4 -->
<g id="edge33" class="edge">
<title>Node13&#45;&gt;Node4</title>
<path fill="none" stroke="#191970" d="M98.0389,-109.331C101.0704,-108.8754 104.0761,-108.4285 107,-108 219.6928,-91.4859 251.3177,-94.0721 367.3458,-71.9334"/>
<polygon fill="#191970" stroke="#191970" points="368.179,-75.3373 377.3351,-70.0067 366.8532,-68.464 368.179,-75.3373"/>
</g>
<!-- Node13&#45;&gt;Node5 -->
<g id="edge36" class="edge">
<title>Node13&#45;&gt;Node5</title>
<path fill="none" stroke="#191970" d="M56.7607,-108.3229C69.8901,-94.2743 97.9998,-66.8312 128,-54 180.2197,-31.6654 346.2954,-17.165 421.4345,-11.5853"/>
<polygon fill="#191970" stroke="#191970" points="422.1174,-15.0449 431.8364,-10.8269 421.6083,-8.0634 422.1174,-15.0449"/>
</g>
<!-- Node13&#45;&gt;Node8 -->
<g id="edge34" class="edge">
<title>Node13&#45;&gt;Node8</title>
<path fill="none" stroke="#191970" d="M67.539,-108.4435C86.6229,-99.6356 116.5749,-85.8116 138.4357,-75.722"/>
<polygon fill="#191970" stroke="#191970" points="139.9349,-78.8849 147.5477,-71.5164 137.0014,-72.5292 139.9349,-78.8849"/>
</g>
<!-- Node13&#45;&gt;Node10 -->
<g id="edge35" class="edge">
<title>Node13&#45;&gt;Node10</title>
<path fill="none" stroke="#191970" d="M98.0391,-109.0699C157.0996,-99.4124 253.8286,-83.2301 304.8569,-72.0238"/>
<polygon fill="#191970" stroke="#191970" points="305.7491,-75.4104 314.7255,-69.7823 304.1986,-68.5843 305.7491,-75.4104"/>
</g>
</g>
</svg>
