<?xml version="1.0" encoding="UTF-8" standalone="no"?>
<!DOCTYPE svg PUBLIC "-//W3C//DTD SVG 1.1//EN"
 "http://www.w3.org/Graphics/SVG/1.1/DTD/svg11.dtd">
<!-- Generated by graphviz version 2.40.1 (20161225.0304)
 -->
<!-- Title: /home/jacques/repos/math4171/src/arcpython/PythonContext.hpp Pages: 1 -->
<svg width="255pt" height="98pt"
 viewBox="0.00 0.00 254.50 98.00" xmlns="http://www.w3.org/2000/svg" xmlns:xlink="http://www.w3.org/1999/xlink">
<g id="graph0" class="graph" transform="scale(1 1) rotate(0) translate(4 94)">
<title>/home/jacques/repos/math4171/src/arcpython/PythonContext.hpp</title>
<!-- Node0 -->
<g id="node1" class="node">
<title>Node0</title>
<polygon fill="#bfbfbf" stroke="#000000" points="59.5,-54.5 59.5,-89.5 183.5,-89.5 183.5,-54.5 59.5,-54.5"/>
<text text-anchor="start" x="67.5" y="-79.1" font-family="InputSans" font-size="8.00" fill="#000000">/home/jacques/repos</text>
<text text-anchor="start" x="67.5" y="-70.1" font-family="InputSans" font-size="8.00" fill="#000000">/math4171/src/arcpython</text>
<text text-anchor="middle" x="121.5" y="-61.1" font-family="InputSans" font-size="8.00" fill="#000000">/PythonContext.hpp</text>
</g>
<!-- Node1 -->
<g id="node2" class="node">
<title>Node1</title>
<polygon fill="none" stroke="#bfbfbf" points="0,-.5 0,-17.5 53,-17.5 53,-.5 0,-.5"/>
<text text-anchor="middle" x="26.5" y="-7.1" font-family="InputSans" font-size="8.00" fill="#000000">memory</text>
</g>
<!-- Node0&#45;&gt;Node1 -->
<g id="edge1" class="edge">
<title>Node0&#45;&gt;Node1</title>
<path fill="none" stroke="#191970" d="M95.0372,-54.451C80.1751,-44.5951 61.8697,-32.4557 47.9166,-23.2026"/>
<polygon fill="#191970" stroke="#191970" points="49.7243,-20.2017 39.4559,-17.5918 45.8555,-26.0355 49.7243,-20.2017"/>
</g>
<!-- Node2 -->
<g id="node3" class="node">
<title>Node2</title>
<polygon fill="none" stroke="#bfbfbf" points="71,-.5 71,-17.5 112,-17.5 112,-.5 71,-.5"/>
<text text-anchor="middle" x="91.5" y="-7.1" font-family="InputSans" font-size="8.00" fill="#000000">string</text>
</g>
<!-- Node0&#45;&gt;Node2 -->
<g id="edge2" class="edge">
<title>Node0&#45;&gt;Node2</title>
<path fill="none" stroke="#191970" d="M113.1433,-54.451C109.056,-45.8677 104.144,-35.5525 100.0334,-26.9201"/>
<polygon fill="#191970" stroke="#191970" points="103.1328,-25.2878 95.6733,-17.764 96.8127,-28.2974 103.1328,-25.2878"/>
</g>
<!-- Node3 -->
<g id="node4" class="node">
<title>Node3</title>
<polygon fill="none" stroke="#bfbfbf" points="130.5,-.5 130.5,-17.5 174.5,-17.5 174.5,-.5 130.5,-.5"/>
<text text-anchor="middle" x="152.5" y="-7.1" font-family="InputSans" font-size="8.00" fill="#000000">vector</text>
</g>
<!-- Node0&#45;&gt;Node3 -->
<g id="edge3" class="edge">
<title>Node0&#45;&gt;Node3</title>
<path fill="none" stroke="#191970" d="M130.1352,-54.451C134.3588,-45.8677 139.4345,-35.5525 143.6822,-26.9201"/>
<polygon fill="#191970" stroke="#191970" points="146.9128,-28.2819 148.1875,-17.764 140.632,-25.1913 146.9128,-28.2819"/>
</g>
<!-- Node4 -->
<g id="node5" class="node">
<title>Node4</title>
<polygon fill="none" stroke="#bfbfbf" points="192.5,-.5 192.5,-17.5 246.5,-17.5 246.5,-.5 192.5,-.5"/>
<text text-anchor="middle" x="219.5" y="-7.1" font-family="InputSans" font-size="8.00" fill="#000000">Python.h</text>
</g>
<!-- Node0&#45;&gt;Node4 -->
<g id="edge4" class="edge">
<title>Node0&#45;&gt;Node4</title>
<path fill="none" stroke="#191970" d="M148.7985,-54.451C164.1299,-44.5951 183.0134,-32.4557 197.4071,-23.2026"/>
<polygon fill="#191970" stroke="#191970" points="199.6158,-25.9435 206.135,-17.5918 195.8305,-20.0553 199.6158,-25.9435"/>
</g>
</g>
</svg>
