<?xml version="1.0" encoding="UTF-8" standalone="no"?>
<!DOCTYPE svg PUBLIC "-//W3C//DTD SVG 1.1//EN"
 "http://www.w3.org/Graphics/SVG/1.1/DTD/svg11.dtd">
<!-- Generated by graphviz version 2.40.1 (20161225.0304)
 -->
<!-- Title: /home/jacques/repos/math4171/src/assignment1&#45;src/Main.cpp Pages: 1 -->
<svg width="1250pt" height="260pt"
 viewBox="0.00 0.00 1249.50 260.00" xmlns="http://www.w3.org/2000/svg" xmlns:xlink="http://www.w3.org/1999/xlink">
<g id="graph0" class="graph" transform="scale(1 1) rotate(0) translate(4 256)">
<title>/home/jacques/repos/math4171/src/assignment1&#45;src/Main.cpp</title>
<!-- Node0 -->
<g id="node1" class="node">
<title>Node0</title>
<polygon fill="#bfbfbf" stroke="#000000" points="544.5,-216.5 544.5,-251.5 699.5,-251.5 699.5,-216.5 544.5,-216.5"/>
<text text-anchor="start" x="552.5" y="-241.1" font-family="InputSans" font-size="8.00" fill="#000000">/home/jacques/repos</text>
<text text-anchor="start" x="552.5" y="-232.1" font-family="InputSans" font-size="8.00" fill="#000000">/math4171/src/assignment1</text>
<text text-anchor="middle" x="622" y="-223.1" font-family="InputSans" font-size="8.00" fill="#000000">&#45;src/Main.cpp</text>
</g>
<!-- Node1 -->
<g id="node2" class="node">
<title>Node1</title>
<polygon fill="none" stroke="#bfbfbf" points="0,-162.5 0,-179.5 50,-179.5 50,-162.5 0,-162.5"/>
<text text-anchor="middle" x="25" y="-169.1" font-family="InputSans" font-size="8.00" fill="#000000">cstdlib</text>
</g>
<!-- Node0&#45;&gt;Node1 -->
<g id="edge1" class="edge">
<title>Node0&#45;&gt;Node1</title>
<path fill="none" stroke="#191970" d="M544.4137,-229.6955C436.2544,-222.9681 234.2645,-207.7631 64,-180 62.7269,-179.7924 61.4335,-179.5676 60.1292,-179.3292"/>
<polygon fill="#191970" stroke="#191970" points="60.5757,-175.8486 50.0799,-177.2941 59.1863,-182.7094 60.5757,-175.8486"/>
</g>
<!-- Node2 -->
<g id="node3" class="node">
<title>Node2</title>
<polygon fill="none" stroke="#bfbfbf" points="774.5,-54.5 774.5,-71.5 833.5,-71.5 833.5,-54.5 774.5,-54.5"/>
<text text-anchor="middle" x="804" y="-61.1" font-family="InputSans" font-size="8.00" fill="#000000">iostream</text>
</g>
<!-- Node0&#45;&gt;Node2 -->
<g id="edge2" class="edge">
<title>Node0&#45;&gt;Node2</title>
<path fill="none" stroke="#191970" d="M699.8298,-229.2293C771.0574,-223.0462 868.9239,-209.3468 893,-180 898.0741,-173.8151 895.864,-169.4698 893,-162 885.5291,-142.5148 844.3112,-101.2566 820.675,-78.6394"/>
<polygon fill="#191970" stroke="#191970" points="823.0703,-76.0873 813.4075,-71.7422 818.2516,-81.1648 823.0703,-76.0873"/>
</g>
<!-- Node3 -->
<g id="node4" class="node">
<title>Node3</title>
<polygon fill="none" stroke="#bfbfbf" points="382.5,-108.5 382.5,-125.5 433.5,-125.5 433.5,-108.5 382.5,-108.5"/>
<text text-anchor="middle" x="408" y="-115.1" font-family="InputSans" font-size="8.00" fill="#000000">memory</text>
</g>
<!-- Node0&#45;&gt;Node3 -->
<g id="edge3" class="edge">
<title>Node0&#45;&gt;Node3</title>
<path fill="none" stroke="#191970" d="M544.4835,-227.8293C479.0169,-220.8176 392.5663,-206.6995 371,-180 358.8951,-165.0139 374.1754,-145.6357 388.6082,-132.3512"/>
<polygon fill="#191970" stroke="#191970" points="391.074,-134.8465 396.36,-125.6645 386.5017,-129.5461 391.074,-134.8465"/>
</g>
<!-- Node4 -->
<g id="node5" class="node">
<title>Node4</title>
<polygon fill="none" stroke="#bfbfbf" points="137,-.5 137,-17.5 183,-17.5 183,-.5 137,-.5"/>
<text text-anchor="middle" x="160" y="-7.1" font-family="InputSans" font-size="8.00" fill="#000000">string</text>
</g>
<!-- Node0&#45;&gt;Node4 -->
<g id="edge4" class="edge">
<title>Node0&#45;&gt;Node4</title>
<path fill="none" stroke="#191970" d="M544.409,-231.6455C405.5855,-226.6274 126.3885,-212.5664 97,-180 55.3792,-133.8787 114.6721,-57.9051 144.5582,-25.0091"/>
<polygon fill="#191970" stroke="#191970" points="147.188,-27.3209 151.4434,-17.6182 142.0661,-22.5495 147.188,-27.3209"/>
</g>
<!-- Node5 -->
<g id="node6" class="node">
<title>Node5</title>
<polygon fill="none" stroke="#bfbfbf" points="730,-108.5 730,-125.5 776,-125.5 776,-108.5 730,-108.5"/>
<text text-anchor="middle" x="753" y="-115.1" font-family="InputSans" font-size="8.00" fill="#000000">vector</text>
</g>
<!-- Node0&#45;&gt;Node5 -->
<g id="edge5" class="edge">
<title>Node0&#45;&gt;Node5</title>
<path fill="none" stroke="#191970" d="M694.5556,-216.4046C713.7146,-208.3501 732.5063,-196.7206 745,-180 754.3835,-167.4418 755.8113,-149.3988 755.2263,-135.8378"/>
<polygon fill="#191970" stroke="#191970" points="758.702,-135.3981 754.3919,-125.7196 751.7257,-135.9734 758.702,-135.3981"/>
</g>
<!-- Node6 -->
<g id="node7" class="node">
<title>Node6</title>
<g id="a_node7"><a xlink:href="_vec_8hpp.html" target="_top" xlink:title="Vec.hpp">
<polygon fill="none" stroke="#000000" points="968,-108.5 968,-125.5 1022,-125.5 1022,-108.5 968,-108.5"/>
<text text-anchor="middle" x="995" y="-115.1" font-family="InputSans" font-size="8.00" fill="#000000">Vec.hpp</text>
</a>
</g>
</g>
<!-- Node0&#45;&gt;Node6 -->
<g id="edge6" class="edge">
<title>Node0&#45;&gt;Node6</title>
<path fill="none" stroke="#191970" d="M699.5743,-229.3613C813.5302,-221.7453 1015.1244,-204.9065 1037,-180 1050.2967,-164.861 1032.6132,-145.2652 1016.2815,-131.977"/>
<polygon fill="#191970" stroke="#191970" points="1018.1025,-128.963 1008.0356,-125.6601 1013.8456,-134.5199 1018.1025,-128.963"/>
</g>
<!-- Node15 -->
<g id="node16" class="node">
<title>Node15</title>
<polygon fill="none" stroke="#bfbfbf" points="490.5,-162.5 490.5,-179.5 593.5,-179.5 593.5,-162.5 490.5,-162.5"/>
<text text-anchor="middle" x="542" y="-169.1" font-family="InputSans" font-size="8.00" fill="#000000">PythonContext.hpp</text>
</g>
<!-- Node0&#45;&gt;Node15 -->
<g id="edge17" class="edge">
<title>Node0&#45;&gt;Node15</title>
<path fill="none" stroke="#191970" d="M599.7155,-216.451C587.6314,-206.9347 572.8439,-195.2896 561.2625,-186.1692"/>
<polygon fill="#191970" stroke="#191970" points="563.1507,-183.2012 553.1289,-179.764 558.8199,-188.7007 563.1507,-183.2012"/>
</g>
<!-- Node16 -->
<g id="node17" class="node">
<title>Node16</title>
<g id="a_node17"><a xlink:href="_python_float_8hpp.html" target="_top" xlink:title="PythonFloat.hpp">
<polygon fill="none" stroke="#000000" points="232,-162.5 232,-179.5 324,-179.5 324,-162.5 232,-162.5"/>
<text text-anchor="middle" x="278" y="-169.1" font-family="InputSans" font-size="8.00" fill="#000000">PythonFloat.hpp</text>
</a>
</g>
</g>
<!-- Node0&#45;&gt;Node16 -->
<g id="edge18" class="edge">
<title>Node0&#45;&gt;Node16</title>
<path fill="none" stroke="#191970" d="M544.3708,-219.783C480.4378,-208.0744 391.3098,-191.7515 334.1252,-181.2787"/>
<polygon fill="#191970" stroke="#191970" points="334.6496,-177.8167 324.1827,-179.4579 333.3886,-184.7021 334.6496,-177.8167"/>
</g>
<!-- Node18 -->
<g id="node19" class="node">
<title>Node18</title>
<g id="a_node19"><a xlink:href="_python_object_8hpp.html" target="_top" xlink:title="PythonObject.hpp">
<polygon fill="none" stroke="#000000" points="532,-108.5 532,-125.5 630,-125.5 630,-108.5 532,-108.5"/>
<text text-anchor="middle" x="581" y="-115.1" font-family="InputSans" font-size="8.00" fill="#000000">PythonObject.hpp</text>
</a>
</g>
</g>
<!-- Node0&#45;&gt;Node18 -->
<g id="edge36" class="edge">
<title>Node0&#45;&gt;Node18</title>
<path fill="none" stroke="#191970" d="M618.3389,-216.241C615.054,-201.4814 609.7201,-180.0524 603,-162 599.549,-152.7296 594.8213,-142.813 590.6327,-134.6547"/>
<polygon fill="#191970" stroke="#191970" points="593.6844,-132.9384 585.9131,-125.7372 587.4975,-136.2129 593.6844,-132.9384"/>
</g>
<!-- Node19 -->
<g id="node20" class="node">
<title>Node19</title>
<g id="a_node20"><a xlink:href="_python_function_8hpp.html" target="_top" xlink:title="PythonFunction.hpp">
<polygon fill="none" stroke="#000000" points="106.5,-162.5 106.5,-179.5 213.5,-179.5 213.5,-162.5 106.5,-162.5"/>
<text text-anchor="middle" x="160" y="-169.1" font-family="InputSans" font-size="8.00" fill="#000000">PythonFunction.hpp</text>
</a>
</g>
</g>
<!-- Node0&#45;&gt;Node19 -->
<g id="edge24" class="edge">
<title>Node0&#45;&gt;Node19</title>
<path fill="none" stroke="#191970" d="M544.3671,-223.6657C466.145,-213.2136 341.6774,-196.4751 223.5581,-180.0691"/>
<polygon fill="#191970" stroke="#191970" points="223.9992,-176.5968 213.6124,-178.6863 223.0352,-183.5301 223.9992,-176.5968"/>
</g>
<!-- Node20 -->
<g id="node21" class="node">
<title>Node20</title>
<g id="a_node21"><a xlink:href="_python_list_8hpp.html" target="_top" xlink:title="PythonList.hpp">
<polygon fill="none" stroke="#000000" points="650,-162.5 650,-179.5 736,-179.5 736,-162.5 650,-162.5"/>
<text text-anchor="middle" x="693" y="-169.1" font-family="InputSans" font-size="8.00" fill="#000000">PythonList.hpp</text>
</a>
</g>
</g>
<!-- Node0&#45;&gt;Node20 -->
<g id="edge30" class="edge">
<title>Node0&#45;&gt;Node20</title>
<path fill="none" stroke="#191970" d="M641.7775,-216.451C652.397,-207.028 665.3689,-195.5177 675.6014,-186.4382"/>
<polygon fill="#191970" stroke="#191970" points="677.9662,-189.0191 683.1231,-179.764 673.3202,-183.7832 677.9662,-189.0191"/>
</g>
<!-- Node21 -->
<g id="node22" class="node">
<title>Node21</title>
<g id="a_node22"><a xlink:href="_python_tuple_8hpp.html" target="_top" xlink:title="PythonTuple.hpp">
<polygon fill="none" stroke="#000000" points="380,-162.5 380,-179.5 472,-179.5 472,-162.5 380,-162.5"/>
<text text-anchor="middle" x="426" y="-169.1" font-family="InputSans" font-size="8.00" fill="#000000">PythonTuple.hpp</text>
</a>
</g>
</g>
<!-- Node0&#45;&gt;Node21 -->
<g id="edge37" class="edge">
<title>Node0&#45;&gt;Node21</title>
<path fill="none" stroke="#191970" d="M567.4031,-216.451C533.8646,-205.6708 491.8272,-192.1587 462.3369,-182.6797"/>
<polygon fill="#191970" stroke="#191970" points="463.055,-179.2342 452.4637,-179.5062 460.9129,-185.8984 463.055,-179.2342"/>
</g>
<!-- Node22 -->
<g id="node23" class="node">
<title>Node22</title>
<g id="a_node23"><a xlink:href="_contour_plot_8hpp.html" target="_top" xlink:title="ContourPlot.hpp">
<polygon fill="none" stroke="#000000" points="792,-162.5 792,-179.5 884,-179.5 884,-162.5 792,-162.5"/>
<text text-anchor="middle" x="838" y="-169.1" font-family="InputSans" font-size="8.00" fill="#000000">ContourPlot.hpp</text>
</a>
</g>
</g>
<!-- Node0&#45;&gt;Node22 -->
<g id="edge43" class="edge">
<title>Node0&#45;&gt;Node22</title>
<path fill="none" stroke="#191970" d="M682.168,-216.451C719.613,-205.5296 766.6712,-191.8042 799.2253,-182.3093"/>
<polygon fill="#191970" stroke="#191970" points="800.216,-185.6663 808.836,-179.5062 798.2559,-178.9463 800.216,-185.6663"/>
</g>
<!-- Node24 -->
<g id="node25" class="node">
<title>Node24</title>
<g id="a_node25"><a xlink:href="_surf_plot3d_8hpp.html" target="_top" xlink:title="SurfPlot3d.hpp">
<polygon fill="none" stroke="#000000" points="940,-162.5 940,-179.5 1028,-179.5 1028,-162.5 940,-162.5"/>
<text text-anchor="middle" x="984" y="-169.1" font-family="InputSans" font-size="8.00" fill="#000000">SurfPlot3d.hpp</text>
</a>
</g>
</g>
<!-- Node0&#45;&gt;Node24 -->
<g id="edge49" class="edge">
<title>Node0&#45;&gt;Node24</title>
<path fill="none" stroke="#191970" d="M699.6581,-220.4849C768.983,-208.4201 868.7248,-191.0617 929.7875,-180.4348"/>
<polygon fill="#191970" stroke="#191970" points="930.7317,-183.8231 939.9835,-178.6603 929.5314,-176.9268 930.7317,-183.8231"/>
</g>
<!-- Node26 -->
<g id="node27" class="node">
<title>Node26</title>
<g id="a_node27"><a xlink:href="_min_nelder_mead_8hpp.html" target="_top" xlink:title="MinNelderMead.hpp">
<polygon fill="none" stroke="#000000" points="1084.5,-162.5 1084.5,-179.5 1191.5,-179.5 1191.5,-162.5 1084.5,-162.5"/>
<text text-anchor="middle" x="1138" y="-169.1" font-family="InputSans" font-size="8.00" fill="#000000">MinNelderMead.hpp</text>
</a>
</g>
</g>
<!-- Node0&#45;&gt;Node26 -->
<g id="edge53" class="edge">
<title>Node0&#45;&gt;Node26</title>
<path fill="none" stroke="#191970" d="M699.7298,-224.9087C789.104,-214.3909 940.2044,-196.4114 1070,-180 1071.2959,-179.8361 1072.6056,-179.6698 1073.9255,-179.5015"/>
<polygon fill="#191970" stroke="#191970" points="1074.7143,-182.929 1084.1857,-178.1812 1073.8208,-175.9862 1074.7143,-182.929"/>
</g>
<!-- Node6&#45;&gt;Node2 -->
<g id="edge8" class="edge">
<title>Node6&#45;&gt;Node2</title>
<path fill="none" stroke="#191970" d="M967.6344,-109.2631C935.1056,-100.0665 880.571,-84.6483 843.4784,-74.1614"/>
<polygon fill="#191970" stroke="#191970" points="844.0867,-70.6963 833.5116,-71.3436 842.1822,-77.4322 844.0867,-70.6963"/>
</g>
<!-- Node7 -->
<g id="node8" class="node">
<title>Node7</title>
<polygon fill="none" stroke="#bfbfbf" points="607.5,-54.5 607.5,-71.5 660.5,-71.5 660.5,-54.5 607.5,-54.5"/>
<text text-anchor="middle" x="634" y="-61.1" font-family="InputSans" font-size="8.00" fill="#000000">cassert</text>
</g>
<!-- Node6&#45;&gt;Node7 -->
<g id="edge7" class="edge">
<title>Node6&#45;&gt;Node7</title>
<path fill="none" stroke="#191970" d="M967.9427,-109.9047C964.9356,-109.2149 961.9094,-108.5634 959,-108 855.3355,-87.9253 731.3931,-73.3283 670.8931,-66.8018"/>
<polygon fill="#191970" stroke="#191970" points="671.0148,-63.295 660.6999,-65.7141 670.272,-70.2555 671.0148,-63.295"/>
</g>
<!-- Node8 -->
<g id="node9" class="node">
<title>Node8</title>
<g id="a_node9"><a xlink:href="_core_math_8hpp.html" target="_top" xlink:title="CoreMath.hpp">
<polygon fill="none" stroke="#000000" points="1061.5,-54.5 1061.5,-71.5 1142.5,-71.5 1142.5,-54.5 1061.5,-54.5"/>
<text text-anchor="middle" x="1102" y="-61.1" font-family="InputSans" font-size="8.00" fill="#000000">CoreMath.hpp</text>
</a>
</g>
</g>
<!-- Node6&#45;&gt;Node8 -->
<g id="edge9" class="edge">
<title>Node6&#45;&gt;Node8</title>
<path fill="none" stroke="#191970" d="M1012.1914,-108.324C1029.3509,-99.6641 1055.9457,-86.2424 1075.7473,-76.249"/>
<polygon fill="#191970" stroke="#191970" points="1077.5007,-79.2847 1084.8513,-71.6545 1074.3468,-73.0354 1077.5007,-79.2847"/>
</g>
<!-- Node13 -->
<g id="node14" class="node">
<title>Node13</title>
<g id="a_node14"><a xlink:href="_vec_8inl.html" target="_top" xlink:title="Vec.inl">
<polygon fill="none" stroke="#000000" points="881.5,-54.5 881.5,-71.5 932.5,-71.5 932.5,-54.5 881.5,-54.5"/>
<text text-anchor="middle" x="907" y="-61.1" font-family="InputSans" font-size="8.00" fill="#000000">Vec.inl</text>
</a>
</g>
</g>
<!-- Node6&#45;&gt;Node13 -->
<g id="edge14" class="edge">
<title>Node6&#45;&gt;Node13</title>
<path fill="none" stroke="#191970" d="M980.8613,-108.324C967.1337,-99.9002 946.0637,-86.9709 929.9357,-77.0741"/>
<polygon fill="#191970" stroke="#191970" points="931.4574,-73.9016 921.1036,-71.6545 927.7963,-79.8678 931.4574,-73.9016"/>
</g>
<!-- Node9 -->
<g id="node10" class="node">
<title>Node9</title>
<polygon fill="none" stroke="#bfbfbf" points="1178.5,-.5 1178.5,-17.5 1241.5,-17.5 1241.5,-.5 1178.5,-.5"/>
<text text-anchor="middle" x="1210" y="-7.1" font-family="InputSans" font-size="8.00" fill="#000000">algorithm</text>
</g>
<!-- Node8&#45;&gt;Node9 -->
<g id="edge10" class="edge">
<title>Node8&#45;&gt;Node9</title>
<path fill="none" stroke="#191970" d="M1119.3521,-54.324C1136.6719,-45.6641 1163.5153,-32.2424 1183.5019,-22.249"/>
<polygon fill="#191970" stroke="#191970" points="1185.312,-25.2572 1192.691,-17.6545 1182.1814,-18.9962 1185.312,-25.2572"/>
</g>
<!-- Node10 -->
<g id="node11" class="node">
<title>Node10</title>
<polygon fill="none" stroke="#bfbfbf" points="982.5,-.5 982.5,-17.5 1027.5,-17.5 1027.5,-.5 982.5,-.5"/>
<text text-anchor="middle" x="1005" y="-7.1" font-family="InputSans" font-size="8.00" fill="#000000">cmath</text>
</g>
<!-- Node8&#45;&gt;Node10 -->
<g id="edge11" class="edge">
<title>Node8&#45;&gt;Node10</title>
<path fill="none" stroke="#191970" d="M1086.4153,-54.324C1071.0009,-45.7428 1047.1878,-32.486 1029.2903,-22.5224"/>
<polygon fill="#191970" stroke="#191970" points="1030.9858,-19.4606 1020.5461,-17.6545 1027.5809,-25.5767 1030.9858,-19.4606"/>
</g>
<!-- Node11 -->
<g id="node12" class="node">
<title>Node11</title>
<polygon fill="none" stroke="#bfbfbf" points="1046,-.5 1046,-17.5 1092,-17.5 1092,-.5 1046,-.5"/>
<text text-anchor="middle" x="1069" y="-7.1" font-family="InputSans" font-size="8.00" fill="#000000">cfloat</text>
</g>
<!-- Node8&#45;&gt;Node11 -->
<g id="edge12" class="edge">
<title>Node8&#45;&gt;Node11</title>
<path fill="none" stroke="#191970" d="M1096.5507,-54.083C1091.9855,-46.6127 1085.3316,-35.7244 1079.7066,-26.5199"/>
<polygon fill="#191970" stroke="#191970" points="1082.5489,-24.4588 1074.3479,-17.7511 1076.5759,-28.109 1082.5489,-24.4588"/>
</g>
<!-- Node12 -->
<g id="node13" class="node">
<title>Node12</title>
<polygon fill="none" stroke="#bfbfbf" points="1110,-.5 1110,-17.5 1160,-17.5 1160,-.5 1110,-.5"/>
<text text-anchor="middle" x="1135" y="-7.1" font-family="InputSans" font-size="8.00" fill="#000000">cstdint</text>
</g>
<!-- Node8&#45;&gt;Node12 -->
<g id="edge13" class="edge">
<title>Node8&#45;&gt;Node12</title>
<path fill="none" stroke="#191970" d="M1107.4493,-54.083C1112.0145,-46.6127 1118.6684,-35.7244 1124.2934,-26.5199"/>
<polygon fill="#191970" stroke="#191970" points="1127.4241,-28.109 1129.6521,-17.7511 1121.4511,-24.4588 1127.4241,-28.109"/>
</g>
<!-- Node13&#45;&gt;Node4 -->
<g id="edge15" class="edge">
<title>Node13&#45;&gt;Node4</title>
<path fill="none" stroke="#191970" d="M881.2068,-58.93C869.5599,-57.2064 855.6122,-55.3005 843,-54 594.0507,-28.3301 292.4593,-14.4404 193.3283,-10.3216"/>
<polygon fill="#191970" stroke="#191970" points="193.182,-6.8128 183.0468,-9.8995 192.8947,-13.8069 193.182,-6.8128"/>
</g>
<!-- Node14 -->
<g id="node15" class="node">
<title>Node14</title>
<polygon fill="none" stroke="#bfbfbf" points="879.5,-.5 879.5,-17.5 934.5,-17.5 934.5,-.5 879.5,-.5"/>
<text text-anchor="middle" x="907" y="-7.1" font-family="InputSans" font-size="8.00" fill="#000000">sstream</text>
</g>
<!-- Node13&#45;&gt;Node14 -->
<g id="edge16" class="edge">
<title>Node13&#45;&gt;Node14</title>
<path fill="none" stroke="#191970" d="M907,-54.083C907,-47.0059 907,-36.8611 907,-27.9865"/>
<polygon fill="#191970" stroke="#191970" points="910.5001,-27.751 907,-17.7511 903.5001,-27.7511 910.5001,-27.751"/>
</g>
<!-- Node16&#45;&gt;Node7 -->
<g id="edge19" class="edge">
<title>Node16&#45;&gt;Node7</title>
<path fill="none" stroke="#191970" d="M289.6625,-162.4741C311.0999,-146.9518 356.1998,-115.0286 374,-108 449.7384,-78.0939 545.6509,-68.0229 597.2063,-64.6604"/>
<polygon fill="#191970" stroke="#191970" points="597.4382,-68.1529 607.2091,-64.0567 597.0164,-61.1656 597.4382,-68.1529"/>
</g>
<!-- Node17 -->
<g id="node18" class="node">
<title>Node17</title>
<polygon fill="none" stroke="#bfbfbf" points="433.5,-54.5 433.5,-71.5 490.5,-71.5 490.5,-54.5 433.5,-54.5"/>
<text text-anchor="middle" x="462" y="-61.1" font-family="InputSans" font-size="8.00" fill="#000000">Python.h</text>
</g>
<!-- Node16&#45;&gt;Node17 -->
<g id="edge20" class="edge">
<title>Node16&#45;&gt;Node17</title>
<path fill="none" stroke="#191970" d="M284.3253,-162.4879C294.628,-149.162 316.2797,-123.3174 340,-108 365.7527,-91.3701 398.5111,-79.7211 423.5973,-72.448"/>
<polygon fill="#191970" stroke="#191970" points="424.7985,-75.7466 433.491,-69.6893 422.9184,-69.0038 424.7985,-75.7466"/>
</g>
<!-- Node16&#45;&gt;Node18 -->
<g id="edge21" class="edge">
<title>Node16&#45;&gt;Node18</title>
<path fill="none" stroke="#191970" d="M324.0192,-162.7986C377.3534,-153.2935 465.3115,-137.6177 523.2064,-127.2998"/>
<polygon fill="#191970" stroke="#191970" points="524.0648,-130.7021 533.2956,-125.5018 522.8366,-123.8107 524.0648,-130.7021"/>
</g>
<!-- Node18&#45;&gt;Node2 -->
<g id="edge22" class="edge">
<title>Node18&#45;&gt;Node2</title>
<path fill="none" stroke="#191970" d="M616.335,-108.4435C656.6124,-98.6903 722.2894,-82.7864 764.3011,-72.6132"/>
<polygon fill="#191970" stroke="#191970" points="765.2874,-75.9756 774.1828,-70.2203 763.6399,-69.1722 765.2874,-75.9756"/>
</g>
<!-- Node18&#45;&gt;Node17 -->
<g id="edge23" class="edge">
<title>Node18&#45;&gt;Node17</title>
<path fill="none" stroke="#191970" d="M562.1441,-108.4435C542.734,-99.6356 512.2699,-85.8116 490.0355,-75.722"/>
<polygon fill="#191970" stroke="#191970" points="491.3203,-72.4615 480.7677,-71.5164 488.4277,-78.836 491.3203,-72.4615"/>
</g>
<!-- Node19&#45;&gt;Node2 -->
<g id="edge26" class="edge">
<title>Node19&#45;&gt;Node2</title>
<path fill="none" stroke="#191970" d="M186.981,-162.3879C235.9198,-146.8793 337.6216,-115.196 374,-108 448.269,-93.3089 672.491,-73.8289 764.2271,-66.2293"/>
<polygon fill="#191970" stroke="#191970" points="764.5486,-69.7148 774.227,-65.4046 763.9731,-62.7385 764.5486,-69.7148"/>
</g>
<!-- Node19&#45;&gt;Node3 -->
<g id="edge27" class="edge">
<title>Node19&#45;&gt;Node3</title>
<path fill="none" stroke="#191970" d="M199.2963,-162.4435C246.9128,-152.0754 326.4498,-134.7569 372.3588,-124.7606"/>
<polygon fill="#191970" stroke="#191970" points="373.1433,-128.1719 382.1697,-122.6243 371.6539,-121.3321 373.1433,-128.1719"/>
</g>
<!-- Node19&#45;&gt;Node4 -->
<g id="edge28" class="edge">
<title>Node19&#45;&gt;Node4</title>
<path fill="none" stroke="#191970" d="M160,-162.2902C160,-137.0185 160,-63.2423 160,-28.0737"/>
<polygon fill="#191970" stroke="#191970" points="163.5001,-27.7529 160,-17.7529 156.5001,-27.7529 163.5001,-27.7529"/>
</g>
<!-- Node19&#45;&gt;Node17 -->
<g id="edge25" class="edge">
<title>Node19&#45;&gt;Node17</title>
<path fill="none" stroke="#191970" d="M179.3602,-162.481C208.4898,-149.8121 265.461,-125.6108 315,-108 351.4893,-95.0283 393.8387,-82.3048 423.6832,-73.7153"/>
<polygon fill="#191970" stroke="#191970" points="424.6458,-77.0805 433.2985,-70.9665 422.7216,-70.3501 424.6458,-77.0805"/>
</g>
<!-- Node19&#45;&gt;Node18 -->
<g id="edge29" class="edge">
<title>Node19&#45;&gt;Node18</title>
<path fill="none" stroke="#191970" d="M213.6077,-163.2791C216.7849,-162.841 219.9339,-162.4117 223,-162 328.0348,-147.8972 450.594,-132.7813 521.6431,-124.1505"/>
<polygon fill="#191970" stroke="#191970" points="522.2381,-127.604 531.7437,-122.925 521.395,-120.655 522.2381,-127.604"/>
</g>
<!-- Node20&#45;&gt;Node2 -->
<g id="edge32" class="edge">
<title>Node20&#45;&gt;Node2</title>
<path fill="none" stroke="#191970" d="M694.9597,-162.2609C698.2995,-149.0903 706.2135,-123.9966 721,-108 734.3001,-93.6114 753.2767,-82.8484 769.7286,-75.4624"/>
<polygon fill="#191970" stroke="#191970" points="771.2232,-78.6303 779.0615,-71.502 768.4887,-72.1865 771.2232,-78.6303"/>
</g>
<!-- Node20&#45;&gt;Node3 -->
<g id="edge33" class="edge">
<title>Node20&#45;&gt;Node3</title>
<path fill="none" stroke="#191970" d="M649.7146,-162.7986C593.364,-152.1216 495.9211,-133.6587 443.6228,-123.7496"/>
<polygon fill="#191970" stroke="#191970" points="444.2674,-120.3095 433.7906,-121.8866 442.9642,-127.1871 444.2674,-120.3095"/>
</g>
<!-- Node20&#45;&gt;Node5 -->
<g id="edge34" class="edge">
<title>Node20&#45;&gt;Node5</title>
<path fill="none" stroke="#191970" d="M702.64,-162.324C711.5096,-154.3414 724.8747,-142.3128 735.6079,-132.6529"/>
<polygon fill="#191970" stroke="#191970" points="738.093,-135.1251 743.1846,-125.8339 733.4102,-129.922 738.093,-135.1251"/>
</g>
<!-- Node20&#45;&gt;Node17 -->
<g id="edge31" class="edge">
<title>Node20&#45;&gt;Node17</title>
<path fill="none" stroke="#191970" d="M687.9323,-162.1705C679.5638,-148.4097 661.5197,-121.98 639,-108 596.2789,-81.4792 538.5613,-70.5476 500.8226,-66.0683"/>
<polygon fill="#191970" stroke="#191970" points="501.0578,-62.5733 490.7373,-64.9684 500.2988,-69.532 501.0578,-62.5733"/>
</g>
<!-- Node20&#45;&gt;Node18 -->
<g id="edge35" class="edge">
<title>Node20&#45;&gt;Node18</title>
<path fill="none" stroke="#191970" d="M675.0053,-162.324C656.9623,-153.6247 628.9531,-140.1202 608.1973,-130.113"/>
<polygon fill="#191970" stroke="#191970" points="609.4778,-126.8449 598.9501,-125.6545 606.4377,-133.1502 609.4778,-126.8449"/>
</g>
<!-- Node21&#45;&gt;Node2 -->
<g id="edge39" class="edge">
<title>Node21&#45;&gt;Node2</title>
<path fill="none" stroke="#191970" d="M435.9727,-162.454C452.7319,-148.594 488.143,-121.4157 523,-108 566.3299,-91.3232 697.4946,-74.8787 764.1697,-67.314"/>
<polygon fill="#191970" stroke="#191970" points="764.7465,-70.7713 774.2936,-66.1775 763.9655,-63.815 764.7465,-70.7713"/>
</g>
<!-- Node21&#45;&gt;Node3 -->
<g id="edge40" class="edge">
<title>Node21&#45;&gt;Node3</title>
<path fill="none" stroke="#191970" d="M423.0277,-162.083C420.6162,-154.8486 417.1362,-144.4087 414.1323,-135.3968"/>
<polygon fill="#191970" stroke="#191970" points="417.3998,-134.1311 410.917,-125.7511 410.759,-136.3447 417.3998,-134.1311"/>
</g>
<!-- Node21&#45;&gt;Node5 -->
<g id="edge41" class="edge">
<title>Node21&#45;&gt;Node5</title>
<path fill="none" stroke="#191970" d="M472.1576,-163.3776C538.9487,-152.3479 660.9577,-132.1996 719.6801,-122.5024"/>
<polygon fill="#191970" stroke="#191970" points="720.5847,-125.9005 729.8808,-120.8178 719.4441,-118.994 720.5847,-125.9005"/>
</g>
<!-- Node21&#45;&gt;Node17 -->
<g id="edge38" class="edge">
<title>Node21&#45;&gt;Node17</title>
<path fill="none" stroke="#191970" d="M429.4349,-162.4362C433.0004,-153.4292 438.6536,-138.8121 443,-126 448.0527,-111.106 453.1658,-94.0113 456.8132,-81.3903"/>
<polygon fill="#191970" stroke="#191970" points="460.2231,-82.1953 459.6027,-71.6186 453.492,-80.2737 460.2231,-82.1953"/>
</g>
<!-- Node21&#45;&gt;Node18 -->
<g id="edge42" class="edge">
<title>Node21&#45;&gt;Node18</title>
<path fill="none" stroke="#191970" d="M450.5602,-162.4435C476.5225,-153.3986 517.668,-139.064 546.7971,-128.9158"/>
<polygon fill="#191970" stroke="#191970" points="548.2629,-132.1116 556.5547,-125.5164 545.9599,-125.5013 548.2629,-132.1116"/>
</g>
<!-- Node22&#45;&gt;Node2 -->
<g id="edge45" class="edge">
<title>Node22&#45;&gt;Node2</title>
<path fill="none" stroke="#191970" d="M835.2176,-162.1619C829.6863,-144.5918 817.2054,-104.9465 809.8093,-81.4532"/>
<polygon fill="#191970" stroke="#191970" points="813.0672,-80.1458 806.7258,-71.6584 806.3902,-82.2479 813.0672,-80.1458"/>
</g>
<!-- Node22&#45;&gt;Node5 -->
<g id="edge46" class="edge">
<title>Node22&#45;&gt;Node5</title>
<path fill="none" stroke="#191970" d="M824.3433,-162.324C811.0837,-153.9002 790.732,-140.9709 775.1538,-131.0741"/>
<polygon fill="#191970" stroke="#191970" points="776.9404,-128.0626 766.6228,-125.6545 773.1867,-133.9711 776.9404,-128.0626"/>
</g>
<!-- Node22&#45;&gt;Node6 -->
<g id="edge47" class="edge">
<title>Node22&#45;&gt;Node6</title>
<path fill="none" stroke="#191970" d="M862.8771,-162.4435C889.2893,-153.3591 931.2151,-138.9388 960.7416,-128.7831"/>
<polygon fill="#191970" stroke="#191970" points="961.9214,-132.0787 970.2393,-125.5164 959.6446,-125.4593 961.9214,-132.0787"/>
</g>
<!-- Node22&#45;&gt;Node18 -->
<g id="edge48" class="edge">
<title>Node22&#45;&gt;Node18</title>
<path fill="none" stroke="#191970" d="M797.2776,-162.4435C752.3506,-153.0036 680.0023,-137.802 631.5011,-127.6111"/>
<polygon fill="#191970" stroke="#191970" points="632.0379,-124.1476 621.5319,-125.5164 630.5985,-130.998 632.0379,-124.1476"/>
</g>
<!-- Node23 -->
<g id="node24" class="node">
<title>Node23</title>
<polygon fill="none" stroke="#bfbfbf" points="908,-108.5 908,-125.5 950,-125.5 950,-108.5 908,-108.5"/>
<text text-anchor="middle" x="929" y="-115.1" font-family="InputSans" font-size="8.00" fill="#000000">array</text>
</g>
<!-- Node22&#45;&gt;Node23 -->
<g id="edge44" class="edge">
<title>Node22&#45;&gt;Node23</title>
<path fill="none" stroke="#191970" d="M852.6207,-162.324C866.9489,-153.8215 889.0125,-140.7288 905.7487,-130.7975"/>
<polygon fill="#191970" stroke="#191970" points="907.6018,-133.7677 914.4156,-125.6545 904.0296,-127.7478 907.6018,-133.7677"/>
</g>
<!-- Node24&#45;&gt;Node2 -->
<g id="edge50" class="edge">
<title>Node24&#45;&gt;Node2</title>
<path fill="none" stroke="#191970" d="M966.4674,-162.3561C949.0845,-153.638 921.8224,-139.5639 899,-126 872.684,-110.3598 843.4848,-90.6184 824.4951,-77.4426"/>
<polygon fill="#191970" stroke="#191970" points="826.2538,-74.4019 816.0504,-71.5487 822.2474,-80.1421 826.2538,-74.4019"/>
</g>
<!-- Node24&#45;&gt;Node6 -->
<g id="edge52" class="edge">
<title>Node24&#45;&gt;Node6</title>
<path fill="none" stroke="#191970" d="M985.8164,-162.083C987.2741,-154.9272 989.3706,-144.6353 991.1925,-135.6911"/>
<polygon fill="#191970" stroke="#191970" points="994.6508,-136.2485 993.2174,-125.7511 987.7917,-134.8512 994.6508,-136.2485"/>
</g>
<!-- Node25 -->
<g id="node26" class="node">
<title>Node25</title>
<polygon fill="none" stroke="#bfbfbf" points="1040.5,-108.5 1040.5,-125.5 1105.5,-125.5 1105.5,-108.5 1040.5,-108.5"/>
<text text-anchor="middle" x="1073" y="-115.1" font-family="InputSans" font-size="8.00" fill="#000000">functional</text>
</g>
<!-- Node24&#45;&gt;Node25 -->
<g id="edge51" class="edge">
<title>Node24&#45;&gt;Node25</title>
<path fill="none" stroke="#191970" d="M998.2994,-162.324C1012.1829,-153.9002 1033.4924,-140.9709 1049.8037,-131.0741"/>
<polygon fill="#191970" stroke="#191970" points="1052.0022,-133.8341 1058.7361,-125.6545 1048.3711,-127.8495 1052.0022,-133.8341"/>
</g>
<!-- Node26&#45;&gt;Node2 -->
<g id="edge57" class="edge">
<title>Node26&#45;&gt;Node2</title>
<path fill="none" stroke="#191970" d="M1137.5115,-162.0586C1136.2356,-148.1444 1131.6289,-121.5084 1115,-108 1109.7591,-103.7426 926.5276,-79.1444 843.8129,-68.2224"/>
<polygon fill="#191970" stroke="#191970" points="844.145,-64.736 833.7733,-66.8988 843.2299,-71.676 844.145,-64.736"/>
</g>
<!-- Node26&#45;&gt;Node5 -->
<g id="edge58" class="edge">
<title>Node26&#45;&gt;Node5</title>
<path fill="none" stroke="#191970" d="M1084.4674,-163.4915C1003.6643,-152.1581 852.9127,-131.0137 786.2121,-121.6583"/>
<polygon fill="#191970" stroke="#191970" points="786.6415,-118.1844 776.2523,-120.2614 785.6692,-125.1165 786.6415,-118.1844"/>
</g>
<!-- Node26&#45;&gt;Node6 -->
<g id="edge60" class="edge">
<title>Node26&#45;&gt;Node6</title>
<path fill="none" stroke="#191970" d="M1115.3412,-162.4435C1091.5981,-153.4776 1054.0909,-139.314 1027.2616,-129.1827"/>
<polygon fill="#191970" stroke="#191970" points="1028.1445,-125.7749 1017.5528,-125.5164 1025.6715,-132.3235 1028.1445,-125.7749"/>
</g>
<!-- Node26&#45;&gt;Node8 -->
<g id="edge59" class="edge">
<title>Node26&#45;&gt;Node8</title>
<path fill="none" stroke="#191970" d="M1142.1644,-162.4976C1147.6455,-150.056 1155.7295,-126.3744 1148,-108 1142.9742,-96.0528 1133.0563,-85.6922 1123.7125,-77.9339"/>
<polygon fill="#191970" stroke="#191970" points="1125.84,-75.1547 1115.7865,-71.8113 1121.5608,-80.6944 1125.84,-75.1547"/>
</g>
<!-- Node26&#45;&gt;Node9 -->
<g id="edge54" class="edge">
<title>Node26&#45;&gt;Node9</title>
<path fill="none" stroke="#191970" d="M1143.3159,-162.208C1148.6223,-153.2604 1156.8506,-138.9097 1163,-126 1179.2533,-91.8786 1194.9617,-50.5633 1203.467,-27.2785"/>
<polygon fill="#191970" stroke="#191970" points="1206.8314,-28.2667 1206.9396,-17.6725 1200.2483,-25.8869 1206.8314,-28.2667"/>
</g>
<!-- Node26&#45;&gt;Node23 -->
<g id="edge55" class="edge">
<title>Node26&#45;&gt;Node23</title>
<path fill="none" stroke="#191970" d="M1101.8752,-162.4256C1067.6854,-154.1982 1014.7029,-141.16 960.1169,-126.2213"/>
<polygon fill="#191970" stroke="#191970" points="960.8414,-122.7906 950.271,-123.5106 958.9832,-129.5395 960.8414,-122.7906"/>
</g>
<!-- Node26&#45;&gt;Node25 -->
<g id="edge56" class="edge">
<title>Node26&#45;&gt;Node25</title>
<path fill="none" stroke="#191970" d="M1127.5566,-162.324C1117.8538,-154.2631 1103.1847,-142.0765 1091.5003,-132.3695"/>
<polygon fill="#191970" stroke="#191970" points="1093.5619,-129.532 1083.6334,-125.8339 1089.0887,-134.9163 1093.5619,-129.532"/>
</g>
</g>
</svg>
