<?xml version="1.0" encoding="UTF-8" standalone="no"?>
<!DOCTYPE svg PUBLIC "-//W3C//DTD SVG 1.1//EN"
 "http://www.w3.org/Graphics/SVG/1.1/DTD/svg11.dtd">
<!-- Generated by graphviz version 2.40.1 (20161225.0304)
 -->
<!-- Title: main Pages: 1 -->
<svg width="376pt" height="72pt"
 viewBox="0.00 0.00 376.00 71.50" xmlns="http://www.w3.org/2000/svg" xmlns:xlink="http://www.w3.org/1999/xlink">
<g id="graph0" class="graph" transform="scale(1 1) rotate(0) translate(4 67.5)">
<title>main</title>
<!-- Node0 -->
<g id="node1" class="node">
<title>Node0</title>
<polygon fill="#bfbfbf" stroke="#000000" points="0,-20.5 0,-37.5 39,-37.5 39,-20.5 0,-20.5"/>
<text text-anchor="middle" x="19.5" y="-27.1" font-family="InputSans" font-size="8.00" fill="#000000">main</text>
</g>
<!-- Node1 -->
<g id="node2" class="node">
<title>Node1</title>
<g id="a_node2"><a xlink:href="namespacearc.html#a5e0f62735567bd3a3f989619af0b4f87" target="_top" xlink:title="arc::plotSurface3dFunction">
<polygon fill="none" stroke="#000000" points="75,-39.5 75,-56.5 224,-56.5 224,-39.5 75,-39.5"/>
<text text-anchor="middle" x="149.5" y="-46.1" font-family="InputSans" font-size="8.00" fill="#000000">arc::plotSurface3dFunction</text>
</a>
</g>
</g>
<!-- Node0&#45;&gt;Node1 -->
<g id="edge1" class="edge">
<title>Node0&#45;&gt;Node1</title>
<path fill="none" stroke="#191970" d="M39.2442,-31.8857C50.6644,-33.5548 65.7847,-35.7647 81.1551,-38.0111"/>
<polygon fill="#191970" stroke="#191970" points="80.8543,-41.5043 91.2553,-39.4873 81.8667,-34.5779 80.8543,-41.5043"/>
</g>
<!-- Node3 -->
<g id="node4" class="node">
<title>Node3</title>
<g id="a_node4"><a xlink:href="namespacearc.html#accf402e2c9981646b74e76674a3c4f3d" target="_top" xlink:title="Minimizes function using Nelder&#45;Mead polytope algorithm. ">
<polygon fill="none" stroke="#000000" points="80.5,-2.5 80.5,-19.5 218.5,-19.5 218.5,-2.5 80.5,-2.5"/>
<text text-anchor="middle" x="149.5" y="-9.1" font-family="InputSans" font-size="8.00" fill="#000000">arc::minimizeNelderMead</text>
</a>
</g>
</g>
<!-- Node0&#45;&gt;Node3 -->
<g id="edge3" class="edge">
<title>Node0&#45;&gt;Node3</title>
<path fill="none" stroke="#191970" d="M39.2442,-26.2662C49.9208,-24.7879 63.8314,-22.8618 78.1568,-20.8783"/>
<polygon fill="#191970" stroke="#191970" points="78.6807,-24.3392 88.1061,-19.5007 77.7205,-17.4054 78.6807,-24.3392"/>
</g>
<!-- Node2 -->
<g id="node3" class="node">
<title>Node2</title>
<g id="a_node3"><a xlink:href="classarc_1_1_python_context.html#a2e3bb93afa3a87cbc2519cd1beb389ae" target="_top" xlink:title="arc::PythonContext\l::initialize">
<polygon fill="none" stroke="#000000" points="260,-37 260,-63 368,-63 368,-37 260,-37"/>
<text text-anchor="start" x="268" y="-52.6" font-family="InputSans" font-size="8.00" fill="#000000">arc::PythonContext</text>
<text text-anchor="middle" x="314" y="-43.6" font-family="InputSans" font-size="8.00" fill="#000000">::initialize</text>
</a>
</g>
</g>
<!-- Node1&#45;&gt;Node2 -->
<g id="edge2" class="edge">
<title>Node1&#45;&gt;Node2</title>
<path fill="none" stroke="#191970" d="M224.0491,-48.9064C232.631,-49.0107 241.3258,-49.1164 249.7552,-49.2189"/>
<polygon fill="#191970" stroke="#191970" points="249.8384,-52.7201 259.8802,-49.342 249.9235,-45.7206 249.8384,-52.7201"/>
</g>
<!-- Node4 -->
<g id="node5" class="node">
<title>Node4</title>
<g id="a_node5"><a xlink:href="namespacearc.html#a91c641235ac691030c5ce2f55b30926b" target="_top" xlink:title="arc::abs">
<polygon fill="none" stroke="#000000" points="284.5,-.5 284.5,-17.5 343.5,-17.5 343.5,-.5 284.5,-.5"/>
<text text-anchor="middle" x="314" y="-7.1" font-family="InputSans" font-size="8.00" fill="#000000">arc::abs</text>
</a>
</g>
</g>
<!-- Node3&#45;&gt;Node4 -->
<g id="edge4" class="edge">
<title>Node3&#45;&gt;Node4</title>
<path fill="none" stroke="#191970" d="M218.786,-10.1576C237.5134,-9.9299 257.1606,-9.6911 273.7116,-9.4898"/>
<polygon fill="#191970" stroke="#191970" points="274.1433,-12.9849 284.1,-9.3635 274.0582,-5.9855 274.1433,-12.9849"/>
</g>
</g>
</svg>
