<?xml version="1.0" encoding="UTF-8" standalone="no"?>
<!DOCTYPE svg PUBLIC "-//W3C//DTD SVG 1.1//EN"
 "http://www.w3.org/Graphics/SVG/1.1/DTD/svg11.dtd">
<!-- Generated by graphviz version 2.40.1 (20161225.0304)
 -->
<!-- Title: arc::python::PythonTuple::size Pages: 1 -->
<svg width="565pt" height="80pt"
 viewBox="0.00 0.00 565.00 80.00" xmlns="http://www.w3.org/2000/svg" xmlns:xlink="http://www.w3.org/1999/xlink">
<g id="graph0" class="graph" transform="scale(1 1) rotate(0) translate(4 76)">
<title>arc::python::PythonTuple::size</title>
<!-- Node16 -->
<g id="node1" class="node">
<title>Node16</title>
<polygon fill="#bfbfbf" stroke="#000000" points="0,-22.5 0,-48.5 138,-48.5 138,-22.5 0,-22.5"/>
<text text-anchor="start" x="8" y="-38.1" font-family="InputSans" font-size="8.00" fill="#000000">arc::python::PythonTuple</text>
<text text-anchor="middle" x="69" y="-29.1" font-family="InputSans" font-size="8.00" fill="#000000">::size</text>
</g>
<!-- Node17 -->
<g id="node2" class="node">
<title>Node17</title>
<g id="a_node2"><a xlink:href="classarc_1_1python_1_1_python_tuple.html#ae4ef4cc71219d8b09fd5db6d2f40712b" target="_top" xlink:title="arc::python::PythonTuple\l::getAt">
<polygon fill="none" stroke="#000000" points="174,-45.5 174,-71.5 312,-71.5 312,-45.5 174,-45.5"/>
<text text-anchor="start" x="182" y="-61.1" font-family="InputSans" font-size="8.00" fill="#000000">arc::python::PythonTuple</text>
<text text-anchor="middle" x="243" y="-52.1" font-family="InputSans" font-size="8.00" fill="#000000">::getAt</text>
</a>
</g>
</g>
<!-- Node16&#45;&gt;Node17 -->
<g id="edge1" class="edge">
<title>Node16&#45;&gt;Node17</title>
<path fill="none" stroke="#191970" d="M148.0349,-45.9471C156.6249,-47.0826 165.3194,-48.2319 173.7795,-49.3502"/>
<polygon fill="#191970" stroke="#191970" points="148.3918,-42.464 138.0193,-44.6232 147.4744,-49.4036 148.3918,-42.464"/>
</g>
<!-- Node18 -->
<g id="node3" class="node">
<title>Node18</title>
<g id="a_node3"><a xlink:href="classarc_1_1python_1_1_python_tuple.html#ab045a04daca2b8053dc5b770ee3971de" target="_top" xlink:title="arc::python::PythonTuple\l::setAt">
<polygon fill="none" stroke="#000000" points="174,-.5 174,-26.5 312,-26.5 312,-.5 174,-.5"/>
<text text-anchor="start" x="182" y="-16.1" font-family="InputSans" font-size="8.00" fill="#000000">arc::python::PythonTuple</text>
<text text-anchor="middle" x="243" y="-7.1" font-family="InputSans" font-size="8.00" fill="#000000">::setAt</text>
</a>
</g>
</g>
<!-- Node16&#45;&gt;Node18 -->
<g id="edge2" class="edge">
<title>Node16&#45;&gt;Node18</title>
<path fill="none" stroke="#191970" d="M148.0349,-25.5071C156.6249,-24.421 165.3194,-23.3217 173.7795,-22.252"/>
<polygon fill="#191970" stroke="#191970" points="147.5013,-22.0466 138.0193,-26.7734 148.3794,-28.9913 147.5013,-22.0466"/>
</g>
<!-- Node19 -->
<g id="node4" class="node">
<title>Node19</title>
<g id="a_node4"><a xlink:href="classarc_1_1plot_1_1_figure.html#a358a91c5d002412a923b59977f37de0e" target="_top" xlink:title="arc::plot::Figure::save">
<polygon fill="none" stroke="#000000" points="348,-5 348,-22 482,-22 482,-5 348,-5"/>
<text text-anchor="middle" x="415" y="-11.6" font-family="InputSans" font-size="8.00" fill="#000000">arc::plot::Figure::save</text>
</a>
</g>
</g>
<!-- Node18&#45;&gt;Node19 -->
<g id="edge3" class="edge">
<title>Node18&#45;&gt;Node19</title>
<path fill="none" stroke="#191970" d="M322.6535,-13.5C331.0587,-13.5 339.5451,-13.5 347.7893,-13.5"/>
<polygon fill="#191970" stroke="#191970" points="322.4632,-10.0001 312.4632,-13.5 322.4632,-17.0001 322.4632,-10.0001"/>
</g>
<!-- Node20 -->
<g id="node5" class="node">
<title>Node20</title>
<g id="a_node5"><a xlink:href="playground_2_main_8cpp.html#a0ddf1224851353fc92bfbff6f499fa97" target="_top" xlink:title="main">
<polygon fill="none" stroke="#000000" points="518,-5 518,-22 557,-22 557,-5 518,-5"/>
<text text-anchor="middle" x="537.5" y="-11.6" font-family="InputSans" font-size="8.00" fill="#000000">main</text>
</a>
</g>
</g>
<!-- Node19&#45;&gt;Node20 -->
<g id="edge4" class="edge">
<title>Node19&#45;&gt;Node20</title>
<path fill="none" stroke="#191970" d="M492.5861,-13.5C501.8722,-13.5 510.6179,-13.5 517.8809,-13.5"/>
<polygon fill="#191970" stroke="#191970" points="492.3421,-10.0001 482.3421,-13.5 492.3421,-17.0001 492.3421,-10.0001"/>
</g>
</g>
</svg>
