<?xml version="1.0" encoding="UTF-8" standalone="no"?>
<!DOCTYPE svg PUBLIC "-//W3C//DTD SVG 1.1//EN"
 "http://www.w3.org/Graphics/SVG/1.1/DTD/svg11.dtd">
<!-- Generated by graphviz version 2.40.1 (20161225.0304)
 -->
<!-- Title: arc::python::PythonObject Pages: 1 -->
<svg width="947pt" height="283pt"
 viewBox="0.00 0.00 947.00 283.00" xmlns="http://www.w3.org/2000/svg" xmlns:xlink="http://www.w3.org/1999/xlink">
<g id="graph0" class="graph" transform="scale(1 1) rotate(0) translate(4 279)">
<title>arc::python::PythonObject</title>
<!-- Node0 -->
<g id="node1" class="node">
<title>Node0</title>
<polygon fill="#bfbfbf" stroke="#000000" points="399.5,-142.5 399.5,-274.5 542.5,-274.5 542.5,-142.5 399.5,-142.5"/>
<text text-anchor="middle" x="471" y="-264.1" font-family="InputSans" font-size="8.00" fill="#000000">arc::python::PythonObject</text>
<polyline fill="none" stroke="#000000" points="399.5,-257.5 542.5,-257.5 "/>
<text text-anchor="start" x="407.5" y="-247.1" font-family="InputSans" font-size="8.00" fill="#000000"># pyObject</text>
<text text-anchor="start" x="407.5" y="-238.1" font-family="InputSans" font-size="8.00" fill="#000000"># id</text>
<text text-anchor="start" x="407.5" y="-229.1" font-family="InputSans" font-size="8.00" fill="#000000"># nextId</text>
<text text-anchor="start" x="407.5" y="-220.1" font-family="InputSans" font-size="8.00" fill="#000000"># objectCount</text>
<polyline fill="none" stroke="#000000" points="399.5,-213.5 542.5,-213.5 "/>
<text text-anchor="start" x="407.5" y="-203.1" font-family="InputSans" font-size="8.00" fill="#000000">+ PythonObject()</text>
<text text-anchor="start" x="407.5" y="-194.1" font-family="InputSans" font-size="8.00" fill="#000000">+ ~PythonObject()</text>
<text text-anchor="start" x="407.5" y="-185.1" font-family="InputSans" font-size="8.00" fill="#000000">+ operator=()</text>
<text text-anchor="start" x="407.5" y="-176.1" font-family="InputSans" font-size="8.00" fill="#000000">+ getType()</text>
<text text-anchor="start" x="407.5" y="-167.1" font-family="InputSans" font-size="8.00" fill="#000000">+ getId()</text>
<text text-anchor="start" x="407.5" y="-158.1" font-family="InputSans" font-size="8.00" fill="#000000">+ isValid()</text>
<text text-anchor="start" x="407.5" y="-149.1" font-family="InputSans" font-size="8.00" fill="#000000">+ getObjectCount()</text>
</g>
<!-- Node1 -->
<g id="node2" class="node">
<title>Node1</title>
<g id="a_node2"><a xlink:href="classarc_1_1python_1_1_python_float.html" target="_top" xlink:title="{arc::python::PythonFloat\n||+ PythonFloat()\l+ ~PythonFloat()\l+ getType()\l+ getValue()\l+ setValue()\l}">
<polygon fill="none" stroke="#000000" points="0,-9.5 0,-96.5 138,-96.5 138,-9.5 0,-9.5"/>
<text text-anchor="middle" x="69" y="-86.1" font-family="InputSans" font-size="8.00" fill="#000000">arc::python::PythonFloat</text>
<polyline fill="none" stroke="#000000" points="0,-79.5 138,-79.5 "/>
<text text-anchor="middle" x="69" y="-69.1" font-family="InputSans" font-size="8.00" fill="#000000"> </text>
<polyline fill="none" stroke="#000000" points="0,-62.5 138,-62.5 "/>
<text text-anchor="start" x="8" y="-52.1" font-family="InputSans" font-size="8.00" fill="#000000">+ PythonFloat()</text>
<text text-anchor="start" x="8" y="-43.1" font-family="InputSans" font-size="8.00" fill="#000000">+ ~PythonFloat()</text>
<text text-anchor="start" x="8" y="-34.1" font-family="InputSans" font-size="8.00" fill="#000000">+ getType()</text>
<text text-anchor="start" x="8" y="-25.1" font-family="InputSans" font-size="8.00" fill="#000000">+ getValue()</text>
<text text-anchor="start" x="8" y="-16.1" font-family="InputSans" font-size="8.00" fill="#000000">+ setValue()</text>
</a>
</g>
</g>
<!-- Node0&#45;&gt;Node1 -->
<g id="edge1" class="edge">
<title>Node0&#45;&gt;Node1</title>
<path fill="none" stroke="#191970" d="M389.1267,-189.6427C322.0741,-172.557 225.7659,-144.2049 147,-106 141.2551,-103.2135 135.4503,-100.0459 129.7372,-96.678"/>
<polygon fill="none" stroke="#191970" points="388.6634,-193.1353 399.2155,-192.1848 390.3737,-186.3475 388.6634,-193.1353"/>
</g>
<!-- Node2 -->
<g id="node3" class="node">
<title>Node2</title>
<g id="a_node3"><a xlink:href="classarc_1_1python_1_1_python_function.html" target="_top" xlink:title="{arc::python::PythonFunction\n||+ PythonFunction()\l+ ~PythonFunction()\l+ getType()\l+ getName()\l+ call()\l+ call()\l+ call()\l}">
<polygon fill="none" stroke="#000000" points="156.5,-.5 156.5,-105.5 309.5,-105.5 309.5,-.5 156.5,-.5"/>
<text text-anchor="middle" x="233" y="-95.1" font-family="InputSans" font-size="8.00" fill="#000000">arc::python::PythonFunction</text>
<polyline fill="none" stroke="#000000" points="156.5,-88.5 309.5,-88.5 "/>
<text text-anchor="middle" x="233" y="-78.1" font-family="InputSans" font-size="8.00" fill="#000000"> </text>
<polyline fill="none" stroke="#000000" points="156.5,-71.5 309.5,-71.5 "/>
<text text-anchor="start" x="164.5" y="-61.1" font-family="InputSans" font-size="8.00" fill="#000000">+ PythonFunction()</text>
<text text-anchor="start" x="164.5" y="-52.1" font-family="InputSans" font-size="8.00" fill="#000000">+ ~PythonFunction()</text>
<text text-anchor="start" x="164.5" y="-43.1" font-family="InputSans" font-size="8.00" fill="#000000">+ getType()</text>
<text text-anchor="start" x="164.5" y="-34.1" font-family="InputSans" font-size="8.00" fill="#000000">+ getName()</text>
<text text-anchor="start" x="164.5" y="-25.1" font-family="InputSans" font-size="8.00" fill="#000000">+ call()</text>
<text text-anchor="start" x="164.5" y="-16.1" font-family="InputSans" font-size="8.00" fill="#000000">+ call()</text>
<text text-anchor="start" x="164.5" y="-7.1" font-family="InputSans" font-size="8.00" fill="#000000">+ call()</text>
</a>
</g>
</g>
<!-- Node0&#45;&gt;Node2 -->
<g id="edge2" class="edge">
<title>Node0&#45;&gt;Node2</title>
<path fill="none" stroke="#8b1a1a" d="M390.8544,-156.136C364.6064,-138.9865 335.5255,-119.9862 309.55,-103.0148"/>
<polygon fill="none" stroke="#8b1a1a" points="388.9834,-159.0944 399.2694,-161.634 392.8122,-153.2343 388.9834,-159.0944"/>
</g>
<!-- Node3 -->
<g id="node4" class="node">
<title>Node3</title>
<g id="a_node4"><a xlink:href="classarc_1_1python_1_1_python_list.html" target="_top" xlink:title="{arc::python::PythonList\n||+ PythonList()\l+ ~PythonList()\l+ getType()\l+ size()\l+ getAt()\l+ setAt()\l+ pushBack()\l}">
<polygon fill="none" stroke="#000000" points="327.5,-.5 327.5,-105.5 458.5,-105.5 458.5,-.5 327.5,-.5"/>
<text text-anchor="middle" x="393" y="-95.1" font-family="InputSans" font-size="8.00" fill="#000000">arc::python::PythonList</text>
<polyline fill="none" stroke="#000000" points="327.5,-88.5 458.5,-88.5 "/>
<text text-anchor="middle" x="393" y="-78.1" font-family="InputSans" font-size="8.00" fill="#000000"> </text>
<polyline fill="none" stroke="#000000" points="327.5,-71.5 458.5,-71.5 "/>
<text text-anchor="start" x="335.5" y="-61.1" font-family="InputSans" font-size="8.00" fill="#000000">+ PythonList()</text>
<text text-anchor="start" x="335.5" y="-52.1" font-family="InputSans" font-size="8.00" fill="#000000">+ ~PythonList()</text>
<text text-anchor="start" x="335.5" y="-43.1" font-family="InputSans" font-size="8.00" fill="#000000">+ getType()</text>
<text text-anchor="start" x="335.5" y="-34.1" font-family="InputSans" font-size="8.00" fill="#000000">+ size()</text>
<text text-anchor="start" x="335.5" y="-25.1" font-family="InputSans" font-size="8.00" fill="#000000">+ getAt()</text>
<text text-anchor="start" x="335.5" y="-16.1" font-family="InputSans" font-size="8.00" fill="#000000">+ setAt()</text>
<text text-anchor="start" x="335.5" y="-7.1" font-family="InputSans" font-size="8.00" fill="#000000">+ pushBack()</text>
</a>
</g>
</g>
<!-- Node0&#45;&gt;Node3 -->
<g id="edge3" class="edge">
<title>Node0&#45;&gt;Node3</title>
<path fill="none" stroke="#191970" d="M433.0724,-132.8879C428.4336,-123.64 423.7745,-114.3517 419.358,-105.547"/>
<polygon fill="none" stroke="#191970" points="430.0826,-134.7337 437.6947,-142.103 436.3395,-131.5951 430.0826,-134.7337"/>
</g>
<!-- Node4 -->
<g id="node5" class="node">
<title>Node4</title>
<g id="a_node5"><a xlink:href="classarc_1_1python_1_1_python_module.html" target="_top" xlink:title="{arc::python::PythonModule\n||+ PythonModule()\l+ PythonModule()\l+ ~PythonModule()\l+ getType()\l+ getName()\l}">
<polygon fill="none" stroke="#000000" points="476.5,-9.5 476.5,-96.5 621.5,-96.5 621.5,-9.5 476.5,-9.5"/>
<text text-anchor="middle" x="549" y="-86.1" font-family="InputSans" font-size="8.00" fill="#000000">arc::python::PythonModule</text>
<polyline fill="none" stroke="#000000" points="476.5,-79.5 621.5,-79.5 "/>
<text text-anchor="middle" x="549" y="-69.1" font-family="InputSans" font-size="8.00" fill="#000000"> </text>
<polyline fill="none" stroke="#000000" points="476.5,-62.5 621.5,-62.5 "/>
<text text-anchor="start" x="484.5" y="-52.1" font-family="InputSans" font-size="8.00" fill="#000000">+ PythonModule()</text>
<text text-anchor="start" x="484.5" y="-43.1" font-family="InputSans" font-size="8.00" fill="#000000">+ PythonModule()</text>
<text text-anchor="start" x="484.5" y="-34.1" font-family="InputSans" font-size="8.00" fill="#000000">+ ~PythonModule()</text>
<text text-anchor="start" x="484.5" y="-25.1" font-family="InputSans" font-size="8.00" fill="#000000">+ getType()</text>
<text text-anchor="start" x="484.5" y="-16.1" font-family="InputSans" font-size="8.00" fill="#000000">+ getName()</text>
</a>
</g>
</g>
<!-- Node0&#45;&gt;Node4 -->
<g id="edge4" class="edge">
<title>Node0&#45;&gt;Node4</title>
<path fill="none" stroke="#191970" d="M508.8434,-133.0558C515.098,-120.5867 521.3923,-108.0384 527.0821,-96.6952"/>
<polygon fill="none" stroke="#191970" points="505.6605,-131.5951 504.3053,-142.103 511.9174,-134.7337 505.6605,-131.5951"/>
</g>
<!-- Node5 -->
<g id="node6" class="node">
<title>Node5</title>
<g id="a_node6"><a xlink:href="classarc_1_1python_1_1_python_string.html" target="_top" xlink:title="{arc::python::PythonString\n||+ PythonString()\l+ ~PythonString()\l+ getType()\l+ getValue()\l+ setValue()\l}">
<polygon fill="none" stroke="#000000" points="639.5,-9.5 639.5,-96.5 782.5,-96.5 782.5,-9.5 639.5,-9.5"/>
<text text-anchor="middle" x="711" y="-86.1" font-family="InputSans" font-size="8.00" fill="#000000">arc::python::PythonString</text>
<polyline fill="none" stroke="#000000" points="639.5,-79.5 782.5,-79.5 "/>
<text text-anchor="middle" x="711" y="-69.1" font-family="InputSans" font-size="8.00" fill="#000000"> </text>
<polyline fill="none" stroke="#000000" points="639.5,-62.5 782.5,-62.5 "/>
<text text-anchor="start" x="647.5" y="-52.1" font-family="InputSans" font-size="8.00" fill="#000000">+ PythonString()</text>
<text text-anchor="start" x="647.5" y="-43.1" font-family="InputSans" font-size="8.00" fill="#000000">+ ~PythonString()</text>
<text text-anchor="start" x="647.5" y="-34.1" font-family="InputSans" font-size="8.00" fill="#000000">+ getType()</text>
<text text-anchor="start" x="647.5" y="-25.1" font-family="InputSans" font-size="8.00" fill="#000000">+ getValue()</text>
<text text-anchor="start" x="647.5" y="-16.1" font-family="InputSans" font-size="8.00" fill="#000000">+ setValue()</text>
</a>
</g>
</g>
<!-- Node0&#45;&gt;Node5 -->
<g id="edge5" class="edge">
<title>Node0&#45;&gt;Node5</title>
<path fill="none" stroke="#191970" d="M551.3723,-157.3515C576.8851,-141.0243 605.1736,-122.8261 631,-106 635.6065,-102.9988 640.3548,-99.8907 645.1316,-96.7531"/>
<polygon fill="none" stroke="#191970" points="549.3728,-154.4757 542.8341,-162.8121 553.1443,-160.3728 549.3728,-154.4757"/>
</g>
<!-- Node6 -->
<g id="node7" class="node">
<title>Node6</title>
<g id="a_node7"><a xlink:href="classarc_1_1python_1_1_python_tuple.html" target="_top" xlink:title="{arc::python::PythonTuple\n||+ PythonTuple()\l+ ~PythonTuple()\l+ getType()\l+ size()\l+ getAt()\l+ setAt()\l}">
<polygon fill="none" stroke="#000000" points="801,-5 801,-101 939,-101 939,-5 801,-5"/>
<text text-anchor="middle" x="870" y="-90.6" font-family="InputSans" font-size="8.00" fill="#000000">arc::python::PythonTuple</text>
<polyline fill="none" stroke="#000000" points="801,-84 939,-84 "/>
<text text-anchor="middle" x="870" y="-73.6" font-family="InputSans" font-size="8.00" fill="#000000"> </text>
<polyline fill="none" stroke="#000000" points="801,-67 939,-67 "/>
<text text-anchor="start" x="809" y="-56.6" font-family="InputSans" font-size="8.00" fill="#000000">+ PythonTuple()</text>
<text text-anchor="start" x="809" y="-47.6" font-family="InputSans" font-size="8.00" fill="#000000">+ ~PythonTuple()</text>
<text text-anchor="start" x="809" y="-38.6" font-family="InputSans" font-size="8.00" fill="#000000">+ getType()</text>
<text text-anchor="start" x="809" y="-29.6" font-family="InputSans" font-size="8.00" fill="#000000">+ size()</text>
<text text-anchor="start" x="809" y="-20.6" font-family="InputSans" font-size="8.00" fill="#000000">+ getAt()</text>
<text text-anchor="start" x="809" y="-11.6" font-family="InputSans" font-size="8.00" fill="#000000">+ setAt()</text>
</a>
</g>
</g>
<!-- Node0&#45;&gt;Node6 -->
<g id="edge6" class="edge">
<title>Node0&#45;&gt;Node6</title>
<path fill="none" stroke="#191970" d="M552.7465,-189.3626C619.1452,-172.1928 714.1979,-143.8665 792,-106 795.0914,-104.4954 798.2005,-102.881 801.3036,-101.185"/>
<polygon fill="none" stroke="#191970" points="551.5744,-186.0497 542.7535,-191.9184 553.309,-192.8314 551.5744,-186.0497"/>
</g>
</g>
</svg>
