<?xml version="1.0" encoding="UTF-8" standalone="no"?>
<!DOCTYPE svg PUBLIC "-//W3C//DTD SVG 1.1//EN"
 "http://www.w3.org/Graphics/SVG/1.1/DTD/svg11.dtd">
<!-- Generated by graphviz version 2.40.1 (20161225.0304)
 -->
<!-- Title: arc::Vec::up Pages: 1 -->
<svg width="315pt" height="206pt"
 viewBox="0.00 0.00 315.00 206.00" xmlns="http://www.w3.org/2000/svg" xmlns:xlink="http://www.w3.org/1999/xlink">
<g id="graph0" class="graph" transform="scale(1 1) rotate(0) translate(4 202)">
<title>arc::Vec::up</title>
<!-- Node28 -->
<g id="node1" class="node">
<title>Node28</title>
<polygon fill="#bfbfbf" stroke="#000000" points="0,-90.5 0,-107.5 80,-107.5 80,-90.5 0,-90.5"/>
<text text-anchor="middle" x="40" y="-97.1" font-family="InputSans" font-size="8.00" fill="#000000">arc::Vec::up</text>
</g>
<!-- Node29 -->
<g id="node2" class="node">
<title>Node29</title>
<g id="a_node2"><a xlink:href="namespacearc.html#afe2e0b936c8731aea6af470f9573e188" target="_top" xlink:title="arc::operator+">
<polygon fill="none" stroke="#000000" points="119.5,-180.5 119.5,-197.5 209.5,-197.5 209.5,-180.5 119.5,-180.5"/>
<text text-anchor="middle" x="164.5" y="-187.1" font-family="InputSans" font-size="8.00" fill="#000000">arc::operator+</text>
</a>
</g>
</g>
<!-- Node28&#45;&gt;Node29 -->
<g id="edge1" class="edge">
<title>Node28&#45;&gt;Node29</title>
<path fill="none" stroke="#191970" d="M47.0983,-107.7187C59.6028,-122.5756 86.993,-152.94 116,-171 119.1998,-172.9922 122.654,-174.815 126.1932,-176.4704"/>
<polygon fill="#191970" stroke="#191970" points="125.0697,-179.7953 135.6435,-180.4626 127.7937,-173.347 125.0697,-179.7953"/>
</g>
<!-- Node30 -->
<g id="node3" class="node">
<title>Node30</title>
<g id="a_node3"><a xlink:href="namespacearc.html#a8c04034b89e02701587dcea0646377b2" target="_top" xlink:title="arc::operator&#45;">
<polygon fill="none" stroke="#000000" points="119.5,-144.5 119.5,-161.5 209.5,-161.5 209.5,-144.5 119.5,-144.5"/>
<text text-anchor="middle" x="164.5" y="-151.1" font-family="InputSans" font-size="8.00" fill="#000000">arc::operator&#45;</text>
</a>
</g>
</g>
<!-- Node28&#45;&gt;Node30 -->
<g id="edge2" class="edge">
<title>Node28&#45;&gt;Node30</title>
<path fill="none" stroke="#191970" d="M57.0122,-107.5804C72.2895,-115.1599 95.4158,-126.3244 116,-135 120.7408,-136.9981 125.7882,-139.0032 130.7677,-140.9122"/>
<polygon fill="#191970" stroke="#191970" points="129.5691,-144.2006 140.1613,-144.4375 132.0287,-137.647 129.5691,-144.2006"/>
</g>
<!-- Node31 -->
<g id="node4" class="node">
<title>Node31</title>
<g id="a_node4"><a xlink:href="namespacearc.html#aa1ab715453e42ef3f962d9fbdef3f1bd" target="_top" xlink:title="arc::operator*">
<polygon fill="none" stroke="#000000" points="119.5,-108.5 119.5,-125.5 209.5,-125.5 209.5,-108.5 119.5,-108.5"/>
<text text-anchor="middle" x="164.5" y="-115.1" font-family="InputSans" font-size="8.00" fill="#000000">arc::operator*</text>
</a>
</g>
</g>
<!-- Node28&#45;&gt;Node31 -->
<g id="edge3" class="edge">
<title>Node28&#45;&gt;Node31</title>
<path fill="none" stroke="#191970" d="M80.0779,-104.7944C89.3633,-106.1369 99.4058,-107.5888 109.2147,-109.007"/>
<polygon fill="#191970" stroke="#191970" points="108.9126,-112.4996 119.3106,-110.4666 109.9143,-105.5716 108.9126,-112.4996"/>
</g>
<!-- Node33 -->
<g id="node6" class="node">
<title>Node33</title>
<g id="a_node6"><a xlink:href="namespacearc.html#a51109ed424e8adff2637d6a2478687bc" target="_top" xlink:title="arc::operator/">
<polygon fill="none" stroke="#000000" points="120,-72.5 120,-89.5 209,-89.5 209,-72.5 120,-72.5"/>
<text text-anchor="middle" x="164.5" y="-79.1" font-family="InputSans" font-size="8.00" fill="#000000">arc::operator/</text>
</a>
</g>
</g>
<!-- Node28&#45;&gt;Node33 -->
<g id="edge5" class="edge">
<title>Node28&#45;&gt;Node33</title>
<path fill="none" stroke="#191970" d="M80.0779,-93.2056C89.4688,-91.8479 99.6342,-90.3782 109.549,-88.9447"/>
<polygon fill="#191970" stroke="#191970" points="110.3515,-92.3652 119.7478,-87.4702 109.3498,-85.4372 110.3515,-92.3652"/>
</g>
<!-- Node34 -->
<g id="node7" class="node">
<title>Node34</title>
<g id="a_node7"><a xlink:href="namespacearc.html#a92b2a1bc245caaddb780a70a9559e920" target="_top" xlink:title="arc::operator==">
<polygon fill="none" stroke="#000000" points="116,-36.5 116,-53.5 213,-53.5 213,-36.5 116,-36.5"/>
<text text-anchor="middle" x="164.5" y="-43.1" font-family="InputSans" font-size="8.00" fill="#000000">arc::operator==</text>
</a>
</g>
</g>
<!-- Node28&#45;&gt;Node34 -->
<g id="edge6" class="edge">
<title>Node28&#45;&gt;Node34</title>
<path fill="none" stroke="#191970" d="M57.0122,-90.4196C72.2895,-82.8401 95.4158,-71.6756 116,-63 120.7408,-61.0019 125.7882,-58.9968 130.7677,-57.0878"/>
<polygon fill="#191970" stroke="#191970" points="132.0287,-60.353 140.1613,-53.5625 129.5691,-53.7994 132.0287,-60.353"/>
</g>
<!-- Node35 -->
<g id="node8" class="node">
<title>Node35</title>
<g id="a_node8"><a xlink:href="namespacearc.html#aaa0b8073e411194ba478983438046a59" target="_top" xlink:title="arc::operator!=">
<polygon fill="none" stroke="#000000" points="117,-.5 117,-17.5 212,-17.5 212,-.5 117,-.5"/>
<text text-anchor="middle" x="164.5" y="-7.1" font-family="InputSans" font-size="8.00" fill="#000000">arc::operator!=</text>
</a>
</g>
</g>
<!-- Node28&#45;&gt;Node35 -->
<g id="edge7" class="edge">
<title>Node28&#45;&gt;Node35</title>
<path fill="none" stroke="#191970" d="M47.0983,-90.2813C59.6028,-75.4244 86.993,-45.06 116,-27 119.1998,-25.0078 122.654,-23.185 126.1932,-21.5296"/>
<polygon fill="#191970" stroke="#191970" points="127.7937,-24.653 135.6435,-17.5374 125.0697,-18.2047 127.7937,-24.653"/>
</g>
<!-- Node32 -->
<g id="node5" class="node">
<title>Node32</title>
<g id="a_node5"><a xlink:href="namespacearc.html#a7b51a56ef71502af24dc5d96e72de188" target="_top" xlink:title="Calculate vector dot product. ">
<polygon fill="none" stroke="#000000" points="249,-108.5 249,-125.5 307,-125.5 307,-108.5 249,-108.5"/>
<text text-anchor="middle" x="278" y="-115.1" font-family="InputSans" font-size="8.00" fill="#000000">arc::dot</text>
</a>
</g>
</g>
<!-- Node31&#45;&gt;Node32 -->
<g id="edge4" class="edge">
<title>Node31&#45;&gt;Node32</title>
<path fill="none" stroke="#191970" d="M209.6843,-117C219.2963,-117 229.3705,-117 238.7398,-117"/>
<polygon fill="#191970" stroke="#191970" points="238.9563,-120.5001 248.9563,-117 238.9562,-113.5001 238.9563,-120.5001"/>
</g>
</g>
</svg>
