<?xml version="1.0" encoding="UTF-8" standalone="no"?>
<!DOCTYPE svg PUBLIC "-//W3C//DTD SVG 1.1//EN"
 "http://www.w3.org/Graphics/SVG/1.1/DTD/svg11.dtd">
<!-- Generated by graphviz version 2.40.1 (20161225.0304)
 -->
<!-- Title: arc::PythonObject Pages: 1 -->
<svg width="549pt" height="202pt"
 viewBox="0.00 0.00 549.00 202.00" xmlns="http://www.w3.org/2000/svg" xmlns:xlink="http://www.w3.org/1999/xlink">
<g id="graph0" class="graph" transform="scale(1 1) rotate(0) translate(4 198)">
<title>arc::PythonObject</title>
<!-- Node0 -->
<g id="node1" class="node">
<title>Node0</title>
<polygon fill="#bfbfbf" stroke="#000000" points="222,-133.5 222,-193.5 317,-193.5 317,-133.5 222,-133.5"/>
<text text-anchor="middle" x="269.5" y="-183.1" font-family="InputSans" font-size="8.00" fill="#000000">arc::PythonObject</text>
<polyline fill="none" stroke="#000000" points="222,-176.5 317,-176.5 "/>
<text text-anchor="start" x="230" y="-166.1" font-family="InputSans" font-size="8.00" fill="#000000"># pyObject</text>
<polyline fill="none" stroke="#000000" points="222,-159.5 317,-159.5 "/>
<text text-anchor="start" x="230" y="-149.1" font-family="InputSans" font-size="8.00" fill="#000000">+ ~PythonObject()</text>
<text text-anchor="start" x="230" y="-140.1" font-family="InputSans" font-size="8.00" fill="#000000">+ getType()</text>
</g>
<!-- Node1 -->
<g id="node2" class="node">
<title>Node1</title>
<g id="a_node2"><a xlink:href="classarc_1_1_python_float.html" target="_top" xlink:title="{arc::PythonFloat\n||+ PythonFloat()\l+ ~PythonFloat()\l+ getType()\l+ getValue()\l+ setValue()\l+ create()\l}">
<polygon fill="none" stroke="#000000" points="0,-.5 0,-96.5 89,-96.5 89,-.5 0,-.5"/>
<text text-anchor="middle" x="44.5" y="-86.1" font-family="InputSans" font-size="8.00" fill="#000000">arc::PythonFloat</text>
<polyline fill="none" stroke="#000000" points="0,-79.5 89,-79.5 "/>
<text text-anchor="middle" x="44.5" y="-69.1" font-family="InputSans" font-size="8.00" fill="#000000"> </text>
<polyline fill="none" stroke="#000000" points="0,-62.5 89,-62.5 "/>
<text text-anchor="start" x="8" y="-52.1" font-family="InputSans" font-size="8.00" fill="#000000">+ PythonFloat()</text>
<text text-anchor="start" x="8" y="-43.1" font-family="InputSans" font-size="8.00" fill="#000000">+ ~PythonFloat()</text>
<text text-anchor="start" x="8" y="-34.1" font-family="InputSans" font-size="8.00" fill="#000000">+ getType()</text>
<text text-anchor="start" x="8" y="-25.1" font-family="InputSans" font-size="8.00" fill="#000000">+ getValue()</text>
<text text-anchor="start" x="8" y="-16.1" font-family="InputSans" font-size="8.00" fill="#000000">+ setValue()</text>
<text text-anchor="start" x="8" y="-7.1" font-family="InputSans" font-size="8.00" fill="#000000">+ create()</text>
</a>
</g>
</g>
<!-- Node0&#45;&gt;Node1 -->
<g id="edge1" class="edge">
<title>Node0&#45;&gt;Node1</title>
<path fill="none" stroke="#191970" d="M211.7059,-147.125C177.0836,-135.8945 133.0378,-119.0341 97.5,-97 94.7439,-95.2912 92.001,-93.4292 89.2969,-91.4627"/>
<polygon fill="none" stroke="#191970" points="211.0759,-150.597 221.6662,-150.2858 213.1933,-143.9249 211.0759,-150.597"/>
</g>
<!-- Node2 -->
<g id="node3" class="node">
<title>Node2</title>
<g id="a_node3"><a xlink:href="classarc_1_1_python_function.html" target="_top" xlink:title="{arc::PythonFunction\n||+ PythonFunction()\l+ ~PythonFunction()\l+ getType()\l+ getName()\l+ call()\l}">
<polygon fill="none" stroke="#000000" points="107,-5 107,-92 210,-92 210,-5 107,-5"/>
<text text-anchor="middle" x="158.5" y="-81.6" font-family="InputSans" font-size="8.00" fill="#000000">arc::PythonFunction</text>
<polyline fill="none" stroke="#000000" points="107,-75 210,-75 "/>
<text text-anchor="middle" x="158.5" y="-64.6" font-family="InputSans" font-size="8.00" fill="#000000"> </text>
<polyline fill="none" stroke="#000000" points="107,-58 210,-58 "/>
<text text-anchor="start" x="115" y="-47.6" font-family="InputSans" font-size="8.00" fill="#000000">+ PythonFunction()</text>
<text text-anchor="start" x="115" y="-38.6" font-family="InputSans" font-size="8.00" fill="#000000">+ ~PythonFunction()</text>
<text text-anchor="start" x="115" y="-29.6" font-family="InputSans" font-size="8.00" fill="#000000">+ getType()</text>
<text text-anchor="start" x="115" y="-20.6" font-family="InputSans" font-size="8.00" fill="#000000">+ getName()</text>
<text text-anchor="start" x="115" y="-11.6" font-family="InputSans" font-size="8.00" fill="#000000">+ call()</text>
</a>
</g>
</g>
<!-- Node0&#45;&gt;Node2 -->
<g id="edge2" class="edge">
<title>Node0&#45;&gt;Node2</title>
<path fill="none" stroke="#8b1a1a" d="M233.3362,-126.033C222.9567,-115.2795 211.5461,-103.4576 200.8305,-92.3559"/>
<polygon fill="none" stroke="#8b1a1a" points="230.8729,-128.5207 240.3361,-133.2851 235.9095,-123.6593 230.8729,-128.5207"/>
</g>
<!-- Node3 -->
<g id="node4" class="node">
<title>Node3</title>
<g id="a_node4"><a xlink:href="classarc_1_1_python_list.html" target="_top" xlink:title="{arc::PythonList\n||+ PythonList()\l+ ~PythonList()\l+ getType()\l+ getAt()\l+ setAt()\l+ getSize()\l}">
<polygon fill="none" stroke="#000000" points="228,-.5 228,-96.5 311,-96.5 311,-.5 228,-.5"/>
<text text-anchor="middle" x="269.5" y="-86.1" font-family="InputSans" font-size="8.00" fill="#000000">arc::PythonList</text>
<polyline fill="none" stroke="#000000" points="228,-79.5 311,-79.5 "/>
<text text-anchor="middle" x="269.5" y="-69.1" font-family="InputSans" font-size="8.00" fill="#000000"> </text>
<polyline fill="none" stroke="#000000" points="228,-62.5 311,-62.5 "/>
<text text-anchor="start" x="236" y="-52.1" font-family="InputSans" font-size="8.00" fill="#000000">+ PythonList()</text>
<text text-anchor="start" x="236" y="-43.1" font-family="InputSans" font-size="8.00" fill="#000000">+ ~PythonList()</text>
<text text-anchor="start" x="236" y="-34.1" font-family="InputSans" font-size="8.00" fill="#000000">+ getType()</text>
<text text-anchor="start" x="236" y="-25.1" font-family="InputSans" font-size="8.00" fill="#000000">+ getAt()</text>
<text text-anchor="start" x="236" y="-16.1" font-family="InputSans" font-size="8.00" fill="#000000">+ setAt()</text>
<text text-anchor="start" x="236" y="-7.1" font-family="InputSans" font-size="8.00" fill="#000000">+ getSize()</text>
</a>
</g>
</g>
<!-- Node0&#45;&gt;Node3 -->
<g id="edge3" class="edge">
<title>Node0&#45;&gt;Node3</title>
<path fill="none" stroke="#191970" d="M269.5,-123.1983C269.5,-114.655 269.5,-105.5538 269.5,-96.7497"/>
<polygon fill="none" stroke="#191970" points="266.0001,-123.2851 269.5,-133.2851 273.0001,-123.2851 266.0001,-123.2851"/>
</g>
<!-- Node4 -->
<g id="node5" class="node">
<title>Node4</title>
<g id="a_node5"><a xlink:href="classarc_1_1_python_module.html" target="_top" xlink:title="{arc::PythonModule\n||+ PythonModule()\l+ ~PythonModule()\l+ getType()\l+ getName()\l}">
<polygon fill="none" stroke="#000000" points="329.5,-9.5 329.5,-87.5 427.5,-87.5 427.5,-9.5 329.5,-9.5"/>
<text text-anchor="middle" x="378.5" y="-77.1" font-family="InputSans" font-size="8.00" fill="#000000">arc::PythonModule</text>
<polyline fill="none" stroke="#000000" points="329.5,-70.5 427.5,-70.5 "/>
<text text-anchor="middle" x="378.5" y="-60.1" font-family="InputSans" font-size="8.00" fill="#000000"> </text>
<polyline fill="none" stroke="#000000" points="329.5,-53.5 427.5,-53.5 "/>
<text text-anchor="start" x="337.5" y="-43.1" font-family="InputSans" font-size="8.00" fill="#000000">+ PythonModule()</text>
<text text-anchor="start" x="337.5" y="-34.1" font-family="InputSans" font-size="8.00" fill="#000000">+ ~PythonModule()</text>
<text text-anchor="start" x="337.5" y="-25.1" font-family="InputSans" font-size="8.00" fill="#000000">+ getType()</text>
<text text-anchor="start" x="337.5" y="-16.1" font-family="InputSans" font-size="8.00" fill="#000000">+ getName()</text>
</a>
</g>
</g>
<!-- Node0&#45;&gt;Node4 -->
<g id="edge4" class="edge">
<title>Node0&#45;&gt;Node4</title>
<path fill="none" stroke="#191970" d="M305.1812,-125.8547C316.798,-113.5984 329.7152,-99.9702 341.4312,-87.6093"/>
<polygon fill="none" stroke="#191970" points="302.4774,-123.6195 298.1385,-133.2851 307.558,-128.4349 302.4774,-123.6195"/>
</g>
<!-- Node5 -->
<g id="node6" class="node">
<title>Node5</title>
<g id="a_node6"><a xlink:href="classarc_1_1_python_tupple.html" target="_top" xlink:title="{arc::PythonTupple\n||+ PythonTupple()\l+ ~PythonTupple()\l+ getType()\l+ getSize()\l+ getAt()\l+ setAt()\l}">
<polygon fill="none" stroke="#000000" points="446,-.5 446,-96.5 541,-96.5 541,-.5 446,-.5"/>
<text text-anchor="middle" x="493.5" y="-86.1" font-family="InputSans" font-size="8.00" fill="#000000">arc::PythonTupple</text>
<polyline fill="none" stroke="#000000" points="446,-79.5 541,-79.5 "/>
<text text-anchor="middle" x="493.5" y="-69.1" font-family="InputSans" font-size="8.00" fill="#000000"> </text>
<polyline fill="none" stroke="#000000" points="446,-62.5 541,-62.5 "/>
<text text-anchor="start" x="454" y="-52.1" font-family="InputSans" font-size="8.00" fill="#000000">+ PythonTupple()</text>
<text text-anchor="start" x="454" y="-43.1" font-family="InputSans" font-size="8.00" fill="#000000">+ ~PythonTupple()</text>
<text text-anchor="start" x="454" y="-34.1" font-family="InputSans" font-size="8.00" fill="#000000">+ getType()</text>
<text text-anchor="start" x="454" y="-25.1" font-family="InputSans" font-size="8.00" fill="#000000">+ getSize()</text>
<text text-anchor="start" x="454" y="-16.1" font-family="InputSans" font-size="8.00" fill="#000000">+ getAt()</text>
<text text-anchor="start" x="454" y="-7.1" font-family="InputSans" font-size="8.00" fill="#000000">+ setAt()</text>
</a>
</g>
</g>
<!-- Node0&#45;&gt;Node5 -->
<g id="edge5" class="edge">
<title>Node0&#45;&gt;Node5</title>
<path fill="none" stroke="#191970" d="M326.7232,-145.9149C360.0157,-134.4344 402.069,-117.7318 436.5,-97 439.6167,-95.1233 442.7336,-93.077 445.8132,-90.9205"/>
<polygon fill="none" stroke="#191970" points="325.4853,-142.6387 317.1359,-149.1609 327.7301,-149.269 325.4853,-142.6387"/>
</g>
</g>
</svg>
