<?xml version="1.0" encoding="UTF-8" standalone="no"?>
<!DOCTYPE svg PUBLIC "-//W3C//DTD SVG 1.1//EN"
 "http://www.w3.org/Graphics/SVG/1.1/DTD/svg11.dtd">
<!-- Generated by graphviz version 2.40.1 (20161225.0304)
 -->
<!-- Title: arc::plot::Figure::save Pages: 1 -->
<svg width="495pt" height="80pt"
 viewBox="0.00 0.00 495.00 80.00" xmlns="http://www.w3.org/2000/svg" xmlns:xlink="http://www.w3.org/1999/xlink">
<g id="graph0" class="graph" transform="scale(1 1) rotate(0) translate(4 76)">
<title>arc::plot::Figure::save</title>
<!-- Node9 -->
<g id="node1" class="node">
<title>Node9</title>
<polygon fill="#bfbfbf" stroke="#000000" points="0,-27 0,-44 134,-44 134,-27 0,-27"/>
<text text-anchor="middle" x="67" y="-33.6" font-family="InputSans" font-size="8.00" fill="#000000">arc::plot::Figure::save</text>
</g>
<!-- Node10 -->
<g id="node2" class="node">
<title>Node10</title>
<g id="a_node2"><a xlink:href="classarc_1_1python_1_1_python_tuple.html#ab045a04daca2b8053dc5b770ee3971de" target="_top" xlink:title="arc::python::PythonTuple\l::setAt">
<polygon fill="none" stroke="#000000" points="170,-22.5 170,-48.5 308,-48.5 308,-22.5 170,-22.5"/>
<text text-anchor="start" x="178" y="-38.1" font-family="InputSans" font-size="8.00" fill="#000000">arc::python::PythonTuple</text>
<text text-anchor="middle" x="239" y="-29.1" font-family="InputSans" font-size="8.00" fill="#000000">::setAt</text>
</a>
</g>
</g>
<!-- Node9&#45;&gt;Node10 -->
<g id="edge1" class="edge">
<title>Node9&#45;&gt;Node10</title>
<path fill="none" stroke="#191970" d="M134.4853,-35.5C142.7152,-35.5 151.1826,-35.5 159.5662,-35.5"/>
<polygon fill="#191970" stroke="#191970" points="159.7294,-39.0001 169.7294,-35.5 159.7293,-32.0001 159.7294,-39.0001"/>
</g>
<!-- Node11 -->
<g id="node3" class="node">
<title>Node11</title>
<g id="a_node3"><a xlink:href="classarc_1_1python_1_1_python_object.html#ab5d924c554bddb450591e7c42aa639a1" target="_top" xlink:title="arc::python::PythonObject\l::isValid">
<polygon fill="none" stroke="#000000" points="344,-45.5 344,-71.5 487,-71.5 487,-45.5 344,-45.5"/>
<text text-anchor="start" x="352" y="-61.1" font-family="InputSans" font-size="8.00" fill="#000000">arc::python::PythonObject</text>
<text text-anchor="middle" x="415.5" y="-52.1" font-family="InputSans" font-size="8.00" fill="#000000">::isValid</text>
</a>
</g>
</g>
<!-- Node10&#45;&gt;Node11 -->
<g id="edge2" class="edge">
<title>Node10&#45;&gt;Node11</title>
<path fill="none" stroke="#191970" d="M308.2509,-44.5242C316.6501,-45.6187 325.2903,-46.7446 333.8474,-47.8597"/>
<polygon fill="#191970" stroke="#191970" points="333.4665,-51.3396 343.8349,-49.1612 334.3711,-44.3983 333.4665,-51.3396"/>
</g>
<!-- Node12 -->
<g id="node4" class="node">
<title>Node12</title>
<g id="a_node4"><a xlink:href="classarc_1_1python_1_1_python_tuple.html#a956cabb8d6c2890f37067078b0fde5c7" target="_top" xlink:title="arc::python::PythonTuple\l::size">
<polygon fill="none" stroke="#000000" points="346.5,-.5 346.5,-26.5 484.5,-26.5 484.5,-.5 346.5,-.5"/>
<text text-anchor="start" x="354.5" y="-16.1" font-family="InputSans" font-size="8.00" fill="#000000">arc::python::PythonTuple</text>
<text text-anchor="middle" x="415.5" y="-7.1" font-family="InputSans" font-size="8.00" fill="#000000">::size</text>
</a>
</g>
</g>
<!-- Node10&#45;&gt;Node12 -->
<g id="edge3" class="edge">
<title>Node10&#45;&gt;Node12</title>
<path fill="none" stroke="#191970" d="M308.2509,-26.8682C317.471,-25.7189 326.9815,-24.5335 336.3537,-23.3653"/>
<polygon fill="#191970" stroke="#191970" points="336.9585,-26.817 346.4488,-22.1069 336.0927,-19.8708 336.9585,-26.817"/>
</g>
</g>
</svg>
