<?xml version="1.0" encoding="UTF-8" standalone="no"?>
<!DOCTYPE svg PUBLIC "-//W3C//DTD SVG 1.1//EN"
 "http://www.w3.org/Graphics/SVG/1.1/DTD/svg11.dtd">
<!-- Generated by graphviz version 2.40.1 (20161225.0304)
 -->
<!-- Title: arc::details::inner_storage&lt; T, N, M &gt; Pages: 1 -->
<svg width="133pt" height="675pt"
 viewBox="0.00 0.00 133.00 675.00" xmlns="http://www.w3.org/2000/svg" xmlns:xlink="http://www.w3.org/1999/xlink">
<g id="graph0" class="graph" transform="scale(1 1) rotate(0) translate(4 671)">
<title>arc::details::inner_storage&lt; T, N, M &gt;</title>
<!-- Node0 -->
<g id="node1" class="node">
<title>Node0</title>
<polygon fill="#bfbfbf" stroke="#000000" points="1.5,-357.5 1.5,-444.5 120.5,-444.5 120.5,-357.5 1.5,-357.5"/>
<text text-anchor="start" x="9.5" y="-434.1" font-family="InputSans" font-size="8.00" fill="#000000">arc::details::inner</text>
<text text-anchor="middle" x="61" y="-425.1" font-family="InputSans" font-size="8.00" fill="#000000">_storage&lt; T, N, M &gt;</text>
<polyline fill="none" stroke="#000000" points="1.5,-418.5 120.5,-418.5 "/>
<text text-anchor="start" x="9.5" y="-408.1" font-family="InputSans" font-size="8.00" fill="#000000">+ x</text>
<text text-anchor="start" x="9.5" y="-399.1" font-family="InputSans" font-size="8.00" fill="#000000">+ y</text>
<text text-anchor="start" x="9.5" y="-390.1" font-family="InputSans" font-size="8.00" fill="#000000">+ z</text>
<text text-anchor="start" x="9.5" y="-381.1" font-family="InputSans" font-size="8.00" fill="#000000">+ w</text>
<polyline fill="none" stroke="#000000" points="1.5,-374.5 120.5,-374.5 "/>
<text text-anchor="middle" x="61" y="-364.1" font-family="InputSans" font-size="8.00" fill="#000000"> </text>
</g>
<!-- Node3 -->
<g id="node4" class="node">
<title>Node3</title>
<g id="a_node4"><a xlink:href="classarc_1_1details_1_1inner__storage.html" target="_top" xlink:title="{arc::details::inner\l_storage\&lt; T, N, N \&gt;\n|+ x\l+ y\l+ z\l+ w\l|}">
<polygon fill="none" stroke="#000000" points="1.5,-224.5 1.5,-311.5 120.5,-311.5 120.5,-224.5 1.5,-224.5"/>
<text text-anchor="start" x="9.5" y="-301.1" font-family="InputSans" font-size="8.00" fill="#000000">arc::details::inner</text>
<text text-anchor="middle" x="61" y="-292.1" font-family="InputSans" font-size="8.00" fill="#000000">_storage&lt; T, N, N &gt;</text>
<polyline fill="none" stroke="#000000" points="1.5,-285.5 120.5,-285.5 "/>
<text text-anchor="start" x="9.5" y="-275.1" font-family="InputSans" font-size="8.00" fill="#000000">+ x</text>
<text text-anchor="start" x="9.5" y="-266.1" font-family="InputSans" font-size="8.00" fill="#000000">+ y</text>
<text text-anchor="start" x="9.5" y="-257.1" font-family="InputSans" font-size="8.00" fill="#000000">+ z</text>
<text text-anchor="start" x="9.5" y="-248.1" font-family="InputSans" font-size="8.00" fill="#000000">+ w</text>
<polyline fill="none" stroke="#000000" points="1.5,-241.5 120.5,-241.5 "/>
<text text-anchor="middle" x="61" y="-231.1" font-family="InputSans" font-size="8.00" fill="#000000"> </text>
</a>
</g>
</g>
<!-- Node0&#45;&gt;Node3 -->
<g id="edge3" class="edge">
<title>Node0&#45;&gt;Node3</title>
<path fill="none" stroke="#ffa500" d="M61,-347.2384C61,-335.4087 61,-323.0202 61,-311.647"/>
<polygon fill="#ffa500" stroke="#ffa500" points="57.5001,-347.4508 61,-357.4508 64.5001,-347.4509 57.5001,-347.4508"/>
<text text-anchor="middle" x="93" y="-332.6" font-family="InputSans" font-size="8.00" fill="#000000"> &lt; T, N, N &gt;</text>
</g>
<!-- Node1 -->
<g id="node2" class="node">
<title>Node1</title>
<g id="a_node2"><a xlink:href="structarc_1_1details_1_1rule__is__greater__than__4.html" target="_top" xlink:title="{arc::details::rule\l_is_greater_than_4\&lt;\l(M \&gt; 4)\&gt;\n||}">
<polygon fill="none" stroke="#000000" points="0,-482.5 0,-551.5 122,-551.5 122,-482.5 0,-482.5"/>
<text text-anchor="start" x="8" y="-541.1" font-family="InputSans" font-size="8.00" fill="#000000">arc::details::rule</text>
<text text-anchor="start" x="8" y="-532.1" font-family="InputSans" font-size="8.00" fill="#000000">_is_greater_than_4&lt;</text>
<text text-anchor="middle" x="61" y="-523.1" font-family="InputSans" font-size="8.00" fill="#000000">(M &gt; 4)&gt;</text>
<polyline fill="none" stroke="#000000" points="0,-516.5 122,-516.5 "/>
<text text-anchor="middle" x="61" y="-506.1" font-family="InputSans" font-size="8.00" fill="#000000"> </text>
<polyline fill="none" stroke="#000000" points="0,-499.5 122,-499.5 "/>
<text text-anchor="middle" x="61" y="-489.1" font-family="InputSans" font-size="8.00" fill="#000000"> </text>
</a>
</g>
</g>
<!-- Node1&#45;&gt;Node0 -->
<g id="edge1" class="edge">
<title>Node1&#45;&gt;Node0</title>
<path fill="none" stroke="#8b1a1a" d="M61,-471.9795C61,-463.0615 61,-453.7119 61,-444.834"/>
<polygon fill="none" stroke="#8b1a1a" points="57.5001,-472.1961 61,-482.1962 64.5001,-472.1962 57.5001,-472.1961"/>
</g>
<!-- Node2 -->
<g id="node3" class="node">
<title>Node2</title>
<g id="a_node3"><a xlink:href="structarc_1_1details_1_1rule__is__greater__than__4.html" target="_top" xlink:title="{arc::details::rule\l_is_greater_than_4\&lt;\l bool \&gt;\n||}">
<polygon fill="none" stroke="#000000" points="0,-597.5 0,-666.5 122,-666.5 122,-597.5 0,-597.5"/>
<text text-anchor="start" x="8" y="-656.1" font-family="InputSans" font-size="8.00" fill="#000000">arc::details::rule</text>
<text text-anchor="start" x="8" y="-647.1" font-family="InputSans" font-size="8.00" fill="#000000">_is_greater_than_4&lt;</text>
<text text-anchor="middle" x="61" y="-638.1" font-family="InputSans" font-size="8.00" fill="#000000"> bool &gt;</text>
<polyline fill="none" stroke="#000000" points="0,-631.5 122,-631.5 "/>
<text text-anchor="middle" x="61" y="-621.1" font-family="InputSans" font-size="8.00" fill="#000000"> </text>
<polyline fill="none" stroke="#000000" points="0,-614.5 122,-614.5 "/>
<text text-anchor="middle" x="61" y="-604.1" font-family="InputSans" font-size="8.00" fill="#000000"> </text>
</a>
</g>
</g>
<!-- Node2&#45;&gt;Node1 -->
<g id="edge2" class="edge">
<title>Node2&#45;&gt;Node1</title>
<path fill="none" stroke="#ffa500" d="M61,-587.3905C61,-575.6073 61,-563.0626 61,-551.8769"/>
<polygon fill="#ffa500" stroke="#ffa500" points="57.5001,-587.4962 61,-597.4962 64.5001,-587.4962 57.5001,-587.4962"/>
<text text-anchor="middle" x="90" y="-572.6" font-family="InputSans" font-size="8.00" fill="#000000"> &lt;(M &gt; 4)&gt;</text>
</g>
<!-- Node4 -->
<g id="node5" class="node">
<title>Node4</title>
<g id="a_node5"><a xlink:href="classarc_1_1_vec.html" target="_top" xlink:title="&lt;#description#&gt; ">
<polygon fill="none" stroke="#000000" points="10,-.5 10,-186.5 112,-186.5 112,-.5 10,-.5"/>
<text text-anchor="middle" x="61" y="-176.1" font-family="InputSans" font-size="8.00" fill="#000000">arc::Vec&lt; T, N &gt;</text>
<polyline fill="none" stroke="#000000" points="10,-169.5 112,-169.5 "/>
<text text-anchor="middle" x="61" y="-159.1" font-family="InputSans" font-size="8.00" fill="#000000"> </text>
<polyline fill="none" stroke="#000000" points="10,-152.5 112,-152.5 "/>
<text text-anchor="start" x="18" y="-142.1" font-family="InputSans" font-size="8.00" fill="#000000">+ Vec()</text>
<text text-anchor="start" x="18" y="-133.1" font-family="InputSans" font-size="8.00" fill="#000000">+ Vec()</text>
<text text-anchor="start" x="18" y="-124.1" font-family="InputSans" font-size="8.00" fill="#000000">+ Vec()</text>
<text text-anchor="start" x="18" y="-115.1" font-family="InputSans" font-size="8.00" fill="#000000">+ Vec()</text>
<text text-anchor="start" x="18" y="-106.1" font-family="InputSans" font-size="8.00" fill="#000000">+ Vec()</text>
<text text-anchor="start" x="18" y="-97.1" font-family="InputSans" font-size="8.00" fill="#000000">+ Vec()</text>
<text text-anchor="start" x="18" y="-88.1" font-family="InputSans" font-size="8.00" fill="#000000">+ size()</text>
<text text-anchor="start" x="18" y="-79.1" font-family="InputSans" font-size="8.00" fill="#000000">+ operator[]()</text>
<text text-anchor="start" x="18" y="-70.1" font-family="InputSans" font-size="8.00" fill="#000000">+ operator[]()</text>
<text text-anchor="start" x="18" y="-61.1" font-family="InputSans" font-size="8.00" fill="#000000">+ operator=()</text>
<text text-anchor="start" x="18" y="-52.1" font-family="InputSans" font-size="8.00" fill="#000000">+ toString()</text>
<text text-anchor="start" x="18" y="-43.1" font-family="InputSans" font-size="8.00" fill="#000000">+ zero()</text>
<text text-anchor="start" x="18" y="-34.1" font-family="InputSans" font-size="8.00" fill="#000000">+ left()</text>
<text text-anchor="start" x="18" y="-25.1" font-family="InputSans" font-size="8.00" fill="#000000">+ right()</text>
<text text-anchor="start" x="18" y="-16.1" font-family="InputSans" font-size="8.00" fill="#000000">+ down()</text>
<text text-anchor="start" x="18" y="-7.1" font-family="InputSans" font-size="8.00" fill="#000000">+ up()</text>
</a>
</g>
</g>
<!-- Node3&#45;&gt;Node4 -->
<g id="edge4" class="edge">
<title>Node3&#45;&gt;Node4</title>
<path fill="none" stroke="#191970" d="M61,-214.3184C61,-205.4813 61,-196.1022 61,-186.6302"/>
<polygon fill="none" stroke="#191970" points="57.5001,-214.4164 61,-224.4164 64.5001,-214.4164 57.5001,-214.4164"/>
</g>
</g>
</svg>
