<?xml version="1.0" encoding="UTF-8" standalone="no"?>
<!DOCTYPE svg PUBLIC "-//W3C//DTD SVG 1.1//EN"
 "http://www.w3.org/Graphics/SVG/1.1/DTD/svg11.dtd">
<!-- Generated by graphviz version 2.40.1 (20161225.0304)
 -->
<!-- Title: arc::PythonContext::initialize Pages: 1 -->
<svg width="376pt" height="35pt"
 viewBox="0.00 0.00 376.00 35.00" xmlns="http://www.w3.org/2000/svg" xmlns:xlink="http://www.w3.org/1999/xlink">
<g id="graph0" class="graph" transform="scale(1 1) rotate(0) translate(4 31)">
<title>arc::PythonContext::initialize</title>
<!-- Node5 -->
<g id="node1" class="node">
<title>Node5</title>
<polygon fill="#bfbfbf" stroke="#000000" points="0,-.5 0,-26.5 108,-26.5 108,-.5 0,-.5"/>
<text text-anchor="start" x="8" y="-16.1" font-family="InputSans" font-size="8.00" fill="#000000">arc::PythonContext</text>
<text text-anchor="middle" x="54" y="-7.1" font-family="InputSans" font-size="8.00" fill="#000000">::initialize</text>
</g>
<!-- Node6 -->
<g id="node2" class="node">
<title>Node6</title>
<g id="a_node2"><a xlink:href="namespacearc.html#a5e0f62735567bd3a3f989619af0b4f87" target="_top" xlink:title="arc::plotSurface3dFunction">
<polygon fill="none" stroke="#000000" points="144,-5 144,-22 293,-22 293,-5 144,-5"/>
<text text-anchor="middle" x="218.5" y="-11.6" font-family="InputSans" font-size="8.00" fill="#000000">arc::plotSurface3dFunction</text>
</a>
</g>
</g>
<!-- Node5&#45;&gt;Node6 -->
<g id="edge1" class="edge">
<title>Node5&#45;&gt;Node6</title>
<path fill="none" stroke="#191970" d="M118.3995,-13.5C126.7898,-13.5 135.4404,-13.5 143.979,-13.5"/>
<polygon fill="#191970" stroke="#191970" points="118.3194,-10.0001 108.3194,-13.5 118.3193,-17.0001 118.3194,-10.0001"/>
</g>
<!-- Node7 -->
<g id="node3" class="node">
<title>Node7</title>
<g id="a_node3"><a xlink:href="assignment1-src_2_main_8cpp.html#a0ddf1224851353fc92bfbff6f499fa97" target="_top" xlink:title="main">
<polygon fill="none" stroke="#000000" points="329,-5 329,-22 368,-22 368,-5 329,-5"/>
<text text-anchor="middle" x="348.5" y="-11.6" font-family="InputSans" font-size="8.00" fill="#000000">main</text>
</a>
</g>
</g>
<!-- Node6&#45;&gt;Node7 -->
<g id="edge2" class="edge">
<title>Node6&#45;&gt;Node7</title>
<path fill="none" stroke="#191970" d="M303.646,-13.5C312.9352,-13.5 321.6152,-13.5 328.8176,-13.5"/>
<polygon fill="#191970" stroke="#191970" points="303.3683,-10.0001 293.3683,-13.5 303.3683,-17.0001 303.3683,-10.0001"/>
</g>
</g>
</svg>
