<?xml version="1.0" encoding="UTF-8" standalone="no"?>
<!DOCTYPE svg PUBLIC "-//W3C//DTD SVG 1.1//EN"
 "http://www.w3.org/Graphics/SVG/1.1/DTD/svg11.dtd">
<!-- Generated by graphviz version 2.40.1 (20161225.0304)
 -->
<!-- Title: arc::python::PythonTuple::setAt Pages: 1 -->
<svg width="391pt" height="35pt"
 viewBox="0.00 0.00 391.00 35.00" xmlns="http://www.w3.org/2000/svg" xmlns:xlink="http://www.w3.org/1999/xlink">
<g id="graph0" class="graph" transform="scale(1 1) rotate(0) translate(4 31)">
<title>arc::python::PythonTuple::setAt</title>
<!-- Node12 -->
<g id="node1" class="node">
<title>Node12</title>
<polygon fill="#bfbfbf" stroke="#000000" points="0,-.5 0,-26.5 138,-26.5 138,-.5 0,-.5"/>
<text text-anchor="start" x="8" y="-16.1" font-family="InputSans" font-size="8.00" fill="#000000">arc::python::PythonTuple</text>
<text text-anchor="middle" x="69" y="-7.1" font-family="InputSans" font-size="8.00" fill="#000000">::setAt</text>
</g>
<!-- Node13 -->
<g id="node2" class="node">
<title>Node13</title>
<g id="a_node2"><a xlink:href="classarc_1_1plot_1_1_figure.html#a358a91c5d002412a923b59977f37de0e" target="_top" xlink:title="arc::plot::Figure::save">
<polygon fill="none" stroke="#000000" points="174,-5 174,-22 308,-22 308,-5 174,-5"/>
<text text-anchor="middle" x="241" y="-11.6" font-family="InputSans" font-size="8.00" fill="#000000">arc::plot::Figure::save</text>
</a>
</g>
</g>
<!-- Node12&#45;&gt;Node13 -->
<g id="edge1" class="edge">
<title>Node12&#45;&gt;Node13</title>
<path fill="none" stroke="#191970" d="M148.6535,-13.5C157.0587,-13.5 165.5451,-13.5 173.7893,-13.5"/>
<polygon fill="#191970" stroke="#191970" points="148.4632,-10.0001 138.4632,-13.5 148.4632,-17.0001 148.4632,-10.0001"/>
</g>
<!-- Node14 -->
<g id="node3" class="node">
<title>Node14</title>
<g id="a_node3"><a xlink:href="playground_2_main_8cpp.html#a0ddf1224851353fc92bfbff6f499fa97" target="_top" xlink:title="main">
<polygon fill="none" stroke="#000000" points="344,-5 344,-22 383,-22 383,-5 344,-5"/>
<text text-anchor="middle" x="363.5" y="-11.6" font-family="InputSans" font-size="8.00" fill="#000000">main</text>
</a>
</g>
</g>
<!-- Node13&#45;&gt;Node14 -->
<g id="edge2" class="edge">
<title>Node13&#45;&gt;Node14</title>
<path fill="none" stroke="#191970" d="M318.5861,-13.5C327.8722,-13.5 336.6179,-13.5 343.8809,-13.5"/>
<polygon fill="#191970" stroke="#191970" points="318.3421,-10.0001 308.3421,-13.5 318.3421,-17.0001 318.3421,-10.0001"/>
</g>
</g>
</svg>
