<?xml version="1.0" encoding="UTF-8" standalone="no"?>
<!DOCTYPE svg PUBLIC "-//W3C//DTD SVG 1.1//EN"
 "http://www.w3.org/Graphics/SVG/1.1/DTD/svg11.dtd">
<!-- Generated by graphviz version 2.40.1 (20161225.0304)
 -->
<!-- Title: arc::PythonContext Pages: 1 -->
<svg width="124pt" height="166pt"
 viewBox="0.00 0.00 124.00 166.00" xmlns="http://www.w3.org/2000/svg" xmlns:xlink="http://www.w3.org/1999/xlink">
<g id="graph0" class="graph" transform="scale(1 1) rotate(0) translate(4 162)">
<title>arc::PythonContext</title>
<!-- Node2 -->
<g id="node1" class="node">
<title>Node2</title>
<polygon fill="#bfbfbf" stroke="#000000" points="3,-.5 3,-69.5 113,-69.5 113,-.5 3,-.5"/>
<text text-anchor="middle" x="58" y="-59.1" font-family="InputSans" font-size="8.00" fill="#000000">arc::PythonContext</text>
<polyline fill="none" stroke="#000000" points="3,-52.5 113,-52.5 "/>
<text text-anchor="middle" x="58" y="-42.1" font-family="InputSans" font-size="8.00" fill="#000000"> </text>
<polyline fill="none" stroke="#000000" points="3,-35.5 113,-35.5 "/>
<text text-anchor="start" x="11" y="-25.1" font-family="InputSans" font-size="8.00" fill="#000000">+ PythonContext()</text>
<text text-anchor="start" x="11" y="-16.1" font-family="InputSans" font-size="8.00" fill="#000000">+ ~PythonContext()</text>
<text text-anchor="start" x="11" y="-7.1" font-family="InputSans" font-size="8.00" fill="#000000">+ initialize()</text>
</g>
<!-- Node3 -->
<g id="node2" class="node">
<title>Node3</title>
<g id="a_node2"><a xlink:href="classarc_1_1_i_python_context.html" target="_top" xlink:title="{arc::IPythonContext\n||+ ~IPythonContext()\l}">
<polygon fill="none" stroke="#000000" points="0,-106.5 0,-157.5 116,-157.5 116,-106.5 0,-106.5"/>
<text text-anchor="middle" x="58" y="-147.1" font-family="InputSans" font-size="8.00" fill="#000000">arc::IPythonContext</text>
<polyline fill="none" stroke="#000000" points="0,-140.5 116,-140.5 "/>
<text text-anchor="middle" x="58" y="-130.1" font-family="InputSans" font-size="8.00" fill="#000000"> </text>
<polyline fill="none" stroke="#000000" points="0,-123.5 116,-123.5 "/>
<text text-anchor="start" x="8" y="-113.1" font-family="InputSans" font-size="8.00" fill="#000000">+ ~IPythonContext()</text>
</a>
</g>
</g>
<!-- Node3&#45;&gt;Node2 -->
<g id="edge1" class="edge">
<title>Node3&#45;&gt;Node2</title>
<path fill="none" stroke="#191970" d="M58,-96.0797C58,-87.434 58,-78.2153 58,-69.6298"/>
<polygon fill="none" stroke="#191970" points="54.5001,-96.2604 58,-106.2604 61.5001,-96.2605 54.5001,-96.2604"/>
</g>
</g>
</svg>
