<?xml version="1.0" encoding="UTF-8" standalone="no"?>
<!DOCTYPE svg PUBLIC "-//W3C//DTD SVG 1.1//EN"
 "http://www.w3.org/Graphics/SVG/1.1/DTD/svg11.dtd">
<!-- Generated by graphviz version 2.40.1 (20161225.0304)
 -->
<!-- Title: arc::details::inner_storage&lt; T, N, M &gt; Pages: 1 -->
<svg width="112pt" height="318pt"
 viewBox="0.00 0.00 112.00 318.00" xmlns="http://www.w3.org/2000/svg" xmlns:xlink="http://www.w3.org/1999/xlink">
<g id="graph0" class="graph" transform="scale(1 1) rotate(0) translate(4 314)">
<title>arc::details::inner_storage&lt; T, N, M &gt;</title>
<!-- Node5 -->
<g id="node1" class="node">
<title>Node5</title>
<polygon fill="#bfbfbf" stroke="#000000" points=".5,-.5 .5,-87.5 103.5,-87.5 103.5,-.5 .5,-.5"/>
<text text-anchor="start" x="8.5" y="-77.1" font-family="InputSans" font-size="8.00" fill="#000000">arc::details::inner</text>
<text text-anchor="middle" x="52" y="-68.1" font-family="InputSans" font-size="8.00" fill="#000000">_storage&lt; T, N, M &gt;</text>
<polyline fill="none" stroke="#000000" points=".5,-61.5 103.5,-61.5 "/>
<text text-anchor="start" x="8.5" y="-51.1" font-family="InputSans" font-size="8.00" fill="#000000">+ x</text>
<text text-anchor="start" x="8.5" y="-42.1" font-family="InputSans" font-size="8.00" fill="#000000">+ y</text>
<text text-anchor="start" x="8.5" y="-33.1" font-family="InputSans" font-size="8.00" fill="#000000">+ z</text>
<text text-anchor="start" x="8.5" y="-24.1" font-family="InputSans" font-size="8.00" fill="#000000">+ w</text>
<polyline fill="none" stroke="#000000" points=".5,-17.5 103.5,-17.5 "/>
<text text-anchor="middle" x="52" y="-7.1" font-family="InputSans" font-size="8.00" fill="#000000"> </text>
</g>
<!-- Node6 -->
<g id="node2" class="node">
<title>Node6</title>
<g id="a_node2"><a xlink:href="structarc_1_1details_1_1rule__is__greater__than__4.html" target="_top" xlink:title="{arc::details::rule\l_is_greater_than_4\&lt;\l(M \&gt; 4)\&gt;\n||}">
<polygon fill="none" stroke="#000000" points="0,-125.5 0,-194.5 104,-194.5 104,-125.5 0,-125.5"/>
<text text-anchor="start" x="8" y="-184.1" font-family="InputSans" font-size="8.00" fill="#000000">arc::details::rule</text>
<text text-anchor="start" x="8" y="-175.1" font-family="InputSans" font-size="8.00" fill="#000000">_is_greater_than_4&lt;</text>
<text text-anchor="middle" x="52" y="-166.1" font-family="InputSans" font-size="8.00" fill="#000000">(M &gt; 4)&gt;</text>
<polyline fill="none" stroke="#000000" points="0,-159.5 104,-159.5 "/>
<text text-anchor="middle" x="52" y="-149.1" font-family="InputSans" font-size="8.00" fill="#000000"> </text>
<polyline fill="none" stroke="#000000" points="0,-142.5 104,-142.5 "/>
<text text-anchor="middle" x="52" y="-132.1" font-family="InputSans" font-size="8.00" fill="#000000"> </text>
</a>
</g>
</g>
<!-- Node6&#45;&gt;Node5 -->
<g id="edge1" class="edge">
<title>Node6&#45;&gt;Node5</title>
<path fill="none" stroke="#8b1a1a" d="M52,-114.9795C52,-106.0615 52,-96.7119 52,-87.834"/>
<polygon fill="none" stroke="#8b1a1a" points="48.5001,-115.1961 52,-125.1962 55.5001,-115.1962 48.5001,-115.1961"/>
</g>
<!-- Node7 -->
<g id="node3" class="node">
<title>Node7</title>
<g id="a_node3"><a xlink:href="structarc_1_1details_1_1rule__is__greater__than__4.html" target="_top" xlink:title="{arc::details::rule\l_is_greater_than_4\&lt;\l bool \&gt;\n||}">
<polygon fill="none" stroke="#000000" points="0,-240.5 0,-309.5 104,-309.5 104,-240.5 0,-240.5"/>
<text text-anchor="start" x="8" y="-299.1" font-family="InputSans" font-size="8.00" fill="#000000">arc::details::rule</text>
<text text-anchor="start" x="8" y="-290.1" font-family="InputSans" font-size="8.00" fill="#000000">_is_greater_than_4&lt;</text>
<text text-anchor="middle" x="52" y="-281.1" font-family="InputSans" font-size="8.00" fill="#000000"> bool &gt;</text>
<polyline fill="none" stroke="#000000" points="0,-274.5 104,-274.5 "/>
<text text-anchor="middle" x="52" y="-264.1" font-family="InputSans" font-size="8.00" fill="#000000"> </text>
<polyline fill="none" stroke="#000000" points="0,-257.5 104,-257.5 "/>
<text text-anchor="middle" x="52" y="-247.1" font-family="InputSans" font-size="8.00" fill="#000000"> </text>
</a>
</g>
</g>
<!-- Node7&#45;&gt;Node6 -->
<g id="edge2" class="edge">
<title>Node7&#45;&gt;Node6</title>
<path fill="none" stroke="#ffa500" d="M52,-230.3905C52,-218.6073 52,-206.0626 52,-194.8769"/>
<polygon fill="#ffa500" stroke="#ffa500" points="48.5001,-230.4962 52,-240.4962 55.5001,-230.4962 48.5001,-230.4962"/>
<text text-anchor="middle" x="76" y="-215.6" font-family="InputSans" font-size="8.00" fill="#000000"> &lt;(M &gt; 4)&gt;</text>
</g>
</g>
</svg>
