<?xml version="1.0" encoding="UTF-8" standalone="no"?>
<!DOCTYPE svg PUBLIC "-//W3C//DTD SVG 1.1//EN"
 "http://www.w3.org/Graphics/SVG/1.1/DTD/svg11.dtd">
<!-- Generated by graphviz version 2.40.1 (20161225.0304)
 -->
<!-- Title: arc::details::inner_storage&lt; T, N, M &gt; Pages: 1 -->
<svg width="112pt" height="675pt"
 viewBox="0.00 0.00 112.00 675.00" xmlns="http://www.w3.org/2000/svg" xmlns:xlink="http://www.w3.org/1999/xlink">
<g id="graph0" class="graph" transform="scale(1 1) rotate(0) translate(4 671)">
<title>arc::details::inner_storage&lt; T, N, M &gt;</title>
<!-- Node0 -->
<g id="node1" class="node">
<title>Node0</title>
<polygon fill="#bfbfbf" stroke="#000000" points=".5,-357.5 .5,-444.5 103.5,-444.5 103.5,-357.5 .5,-357.5"/>
<text text-anchor="start" x="8.5" y="-434.1" font-family="InputSans" font-size="8.00" fill="#000000">arc::details::inner</text>
<text text-anchor="middle" x="52" y="-425.1" font-family="InputSans" font-size="8.00" fill="#000000">_storage&lt; T, N, M &gt;</text>
<polyline fill="none" stroke="#000000" points=".5,-418.5 103.5,-418.5 "/>
<text text-anchor="start" x="8.5" y="-408.1" font-family="InputSans" font-size="8.00" fill="#000000">+ x</text>
<text text-anchor="start" x="8.5" y="-399.1" font-family="InputSans" font-size="8.00" fill="#000000">+ y</text>
<text text-anchor="start" x="8.5" y="-390.1" font-family="InputSans" font-size="8.00" fill="#000000">+ z</text>
<text text-anchor="start" x="8.5" y="-381.1" font-family="InputSans" font-size="8.00" fill="#000000">+ w</text>
<polyline fill="none" stroke="#000000" points=".5,-374.5 103.5,-374.5 "/>
<text text-anchor="middle" x="52" y="-364.1" font-family="InputSans" font-size="8.00" fill="#000000"> </text>
</g>
<!-- Node3 -->
<g id="node4" class="node">
<title>Node3</title>
<g id="a_node4"><a xlink:href="classarc_1_1details_1_1inner__storage.html" target="_top" xlink:title="{arc::details::inner\l_storage\&lt; T, N, N \&gt;\n|+ x\l+ y\l+ z\l+ w\l|}">
<polygon fill="none" stroke="#000000" points="1,-224.5 1,-311.5 103,-311.5 103,-224.5 1,-224.5"/>
<text text-anchor="start" x="9" y="-301.1" font-family="InputSans" font-size="8.00" fill="#000000">arc::details::inner</text>
<text text-anchor="middle" x="52" y="-292.1" font-family="InputSans" font-size="8.00" fill="#000000">_storage&lt; T, N, N &gt;</text>
<polyline fill="none" stroke="#000000" points="1,-285.5 103,-285.5 "/>
<text text-anchor="start" x="9" y="-275.1" font-family="InputSans" font-size="8.00" fill="#000000">+ x</text>
<text text-anchor="start" x="9" y="-266.1" font-family="InputSans" font-size="8.00" fill="#000000">+ y</text>
<text text-anchor="start" x="9" y="-257.1" font-family="InputSans" font-size="8.00" fill="#000000">+ z</text>
<text text-anchor="start" x="9" y="-248.1" font-family="InputSans" font-size="8.00" fill="#000000">+ w</text>
<polyline fill="none" stroke="#000000" points="1,-241.5 103,-241.5 "/>
<text text-anchor="middle" x="52" y="-231.1" font-family="InputSans" font-size="8.00" fill="#000000"> </text>
</a>
</g>
</g>
<!-- Node0&#45;&gt;Node3 -->
<g id="edge3" class="edge">
<title>Node0&#45;&gt;Node3</title>
<path fill="none" stroke="#ffa500" d="M52,-347.2384C52,-335.4087 52,-323.0202 52,-311.647"/>
<polygon fill="#ffa500" stroke="#ffa500" points="48.5001,-347.4508 52,-357.4508 55.5001,-347.4509 48.5001,-347.4508"/>
<text text-anchor="middle" x="78" y="-332.6" font-family="InputSans" font-size="8.00" fill="#000000"> &lt; T, N, N &gt;</text>
</g>
<!-- Node1 -->
<g id="node2" class="node">
<title>Node1</title>
<g id="a_node2"><a xlink:href="structarc_1_1details_1_1rule__is__greater__than__4.html" target="_top" xlink:title="{arc::details::rule\l_is_greater_than_4\&lt;\l(M \&gt; 4)\&gt;\n||}">
<polygon fill="none" stroke="#000000" points="0,-482.5 0,-551.5 104,-551.5 104,-482.5 0,-482.5"/>
<text text-anchor="start" x="8" y="-541.1" font-family="InputSans" font-size="8.00" fill="#000000">arc::details::rule</text>
<text text-anchor="start" x="8" y="-532.1" font-family="InputSans" font-size="8.00" fill="#000000">_is_greater_than_4&lt;</text>
<text text-anchor="middle" x="52" y="-523.1" font-family="InputSans" font-size="8.00" fill="#000000">(M &gt; 4)&gt;</text>
<polyline fill="none" stroke="#000000" points="0,-516.5 104,-516.5 "/>
<text text-anchor="middle" x="52" y="-506.1" font-family="InputSans" font-size="8.00" fill="#000000"> </text>
<polyline fill="none" stroke="#000000" points="0,-499.5 104,-499.5 "/>
<text text-anchor="middle" x="52" y="-489.1" font-family="InputSans" font-size="8.00" fill="#000000"> </text>
</a>
</g>
</g>
<!-- Node1&#45;&gt;Node0 -->
<g id="edge1" class="edge">
<title>Node1&#45;&gt;Node0</title>
<path fill="none" stroke="#8b1a1a" d="M52,-471.9795C52,-463.0615 52,-453.7119 52,-444.834"/>
<polygon fill="none" stroke="#8b1a1a" points="48.5001,-472.1961 52,-482.1962 55.5001,-472.1962 48.5001,-472.1961"/>
</g>
<!-- Node2 -->
<g id="node3" class="node">
<title>Node2</title>
<g id="a_node3"><a xlink:href="structarc_1_1details_1_1rule__is__greater__than__4.html" target="_top" xlink:title="{arc::details::rule\l_is_greater_than_4\&lt;\l bool \&gt;\n||}">
<polygon fill="none" stroke="#000000" points="0,-597.5 0,-666.5 104,-666.5 104,-597.5 0,-597.5"/>
<text text-anchor="start" x="8" y="-656.1" font-family="InputSans" font-size="8.00" fill="#000000">arc::details::rule</text>
<text text-anchor="start" x="8" y="-647.1" font-family="InputSans" font-size="8.00" fill="#000000">_is_greater_than_4&lt;</text>
<text text-anchor="middle" x="52" y="-638.1" font-family="InputSans" font-size="8.00" fill="#000000"> bool &gt;</text>
<polyline fill="none" stroke="#000000" points="0,-631.5 104,-631.5 "/>
<text text-anchor="middle" x="52" y="-621.1" font-family="InputSans" font-size="8.00" fill="#000000"> </text>
<polyline fill="none" stroke="#000000" points="0,-614.5 104,-614.5 "/>
<text text-anchor="middle" x="52" y="-604.1" font-family="InputSans" font-size="8.00" fill="#000000"> </text>
</a>
</g>
</g>
<!-- Node2&#45;&gt;Node1 -->
<g id="edge2" class="edge">
<title>Node2&#45;&gt;Node1</title>
<path fill="none" stroke="#ffa500" d="M52,-587.3905C52,-575.6073 52,-563.0626 52,-551.8769"/>
<polygon fill="#ffa500" stroke="#ffa500" points="48.5001,-587.4962 52,-597.4962 55.5001,-587.4962 48.5001,-587.4962"/>
<text text-anchor="middle" x="76" y="-572.6" font-family="InputSans" font-size="8.00" fill="#000000"> &lt;(M &gt; 4)&gt;</text>
</g>
<!-- Node4 -->
<g id="node5" class="node">
<title>Node4</title>
<g id="a_node5"><a xlink:href="classarc_1_1_vec.html" target="_top" xlink:title="&lt;#description#&gt; ">
<polygon fill="none" stroke="#000000" points="8,-.5 8,-186.5 96,-186.5 96,-.5 8,-.5"/>
<text text-anchor="middle" x="52" y="-176.1" font-family="InputSans" font-size="8.00" fill="#000000">arc::Vec&lt; T, N &gt;</text>
<polyline fill="none" stroke="#000000" points="8,-169.5 96,-169.5 "/>
<text text-anchor="middle" x="52" y="-159.1" font-family="InputSans" font-size="8.00" fill="#000000"> </text>
<polyline fill="none" stroke="#000000" points="8,-152.5 96,-152.5 "/>
<text text-anchor="start" x="16" y="-142.1" font-family="InputSans" font-size="8.00" fill="#000000">+ Vec()</text>
<text text-anchor="start" x="16" y="-133.1" font-family="InputSans" font-size="8.00" fill="#000000">+ Vec()</text>
<text text-anchor="start" x="16" y="-124.1" font-family="InputSans" font-size="8.00" fill="#000000">+ Vec()</text>
<text text-anchor="start" x="16" y="-115.1" font-family="InputSans" font-size="8.00" fill="#000000">+ Vec()</text>
<text text-anchor="start" x="16" y="-106.1" font-family="InputSans" font-size="8.00" fill="#000000">+ Vec()</text>
<text text-anchor="start" x="16" y="-97.1" font-family="InputSans" font-size="8.00" fill="#000000">+ Vec()</text>
<text text-anchor="start" x="16" y="-88.1" font-family="InputSans" font-size="8.00" fill="#000000">+ size()</text>
<text text-anchor="start" x="16" y="-79.1" font-family="InputSans" font-size="8.00" fill="#000000">+ operator[]()</text>
<text text-anchor="start" x="16" y="-70.1" font-family="InputSans" font-size="8.00" fill="#000000">+ operator[]()</text>
<text text-anchor="start" x="16" y="-61.1" font-family="InputSans" font-size="8.00" fill="#000000">+ operator=()</text>
<text text-anchor="start" x="16" y="-52.1" font-family="InputSans" font-size="8.00" fill="#000000">+ toString()</text>
<text text-anchor="start" x="16" y="-43.1" font-family="InputSans" font-size="8.00" fill="#000000">+ zero()</text>
<text text-anchor="start" x="16" y="-34.1" font-family="InputSans" font-size="8.00" fill="#000000">+ left()</text>
<text text-anchor="start" x="16" y="-25.1" font-family="InputSans" font-size="8.00" fill="#000000">+ right()</text>
<text text-anchor="start" x="16" y="-16.1" font-family="InputSans" font-size="8.00" fill="#000000">+ down()</text>
<text text-anchor="start" x="16" y="-7.1" font-family="InputSans" font-size="8.00" fill="#000000">+ up()</text>
</a>
</g>
</g>
<!-- Node3&#45;&gt;Node4 -->
<g id="edge4" class="edge">
<title>Node3&#45;&gt;Node4</title>
<path fill="none" stroke="#191970" d="M52,-214.3184C52,-205.4813 52,-196.1022 52,-186.6302"/>
<polygon fill="none" stroke="#191970" points="48.5001,-214.4164 52,-224.4164 55.5001,-214.4164 48.5001,-214.4164"/>
</g>
</g>
</svg>
