<?xml version="1.0" encoding="UTF-8" standalone="no"?>
<!DOCTYPE svg PUBLIC "-//W3C//DTD SVG 1.1//EN"
 "http://www.w3.org/Graphics/SVG/1.1/DTD/svg11.dtd">
<!-- Generated by graphviz version 2.40.1 (20161225.0304)
 -->
<!-- Title: arc::Vec::up Pages: 1 -->
<svg width="284pt" height="206pt"
 viewBox="0.00 0.00 284.00 206.00" xmlns="http://www.w3.org/2000/svg" xmlns:xlink="http://www.w3.org/1999/xlink">
<g id="graph0" class="graph" transform="scale(1 1) rotate(0) translate(4 202)">
<title>arc::Vec::up</title>
<!-- Node28 -->
<g id="node1" class="node">
<title>Node28</title>
<polygon fill="#bfbfbf" stroke="#000000" points="0,-90.5 0,-107.5 68,-107.5 68,-90.5 0,-90.5"/>
<text text-anchor="middle" x="34" y="-97.1" font-family="InputSans" font-size="8.00" fill="#000000">arc::Vec::up</text>
</g>
<!-- Node29 -->
<g id="node2" class="node">
<title>Node29</title>
<g id="a_node2"><a xlink:href="namespacearc.html#afe2e0b936c8731aea6af470f9573e188" target="_top" xlink:title="arc::operator+">
<polygon fill="none" stroke="#000000" points="107,-180.5 107,-197.5 187,-197.5 187,-180.5 107,-180.5"/>
<text text-anchor="middle" x="147" y="-187.1" font-family="InputSans" font-size="8.00" fill="#000000">arc::operator+</text>
</a>
</g>
</g>
<!-- Node28&#45;&gt;Node29 -->
<g id="edge1" class="edge">
<title>Node28&#45;&gt;Node29</title>
<path fill="none" stroke="#191970" d="M40.4592,-107.6358C51.8577,-122.3676 76.9114,-152.5486 104,-171 106.5919,-172.7655 109.3843,-174.4089 112.2572,-175.9267"/>
<polygon fill="#191970" stroke="#191970" points="111.0259,-179.2165 121.5606,-180.343 114.0277,-172.8928 111.0259,-179.2165"/>
</g>
<!-- Node30 -->
<g id="node3" class="node">
<title>Node30</title>
<g id="a_node3"><a xlink:href="namespacearc.html#a8c04034b89e02701587dcea0646377b2" target="_top" xlink:title="arc::operator&#45;">
<polygon fill="none" stroke="#000000" points="109.5,-144.5 109.5,-161.5 184.5,-161.5 184.5,-144.5 109.5,-144.5"/>
<text text-anchor="middle" x="147" y="-151.1" font-family="InputSans" font-size="8.00" fill="#000000">arc::operator&#45;</text>
</a>
</g>
</g>
<!-- Node28&#45;&gt;Node30 -->
<g id="edge2" class="edge">
<title>Node28&#45;&gt;Node30</title>
<path fill="none" stroke="#191970" d="M49.6712,-107.5079C63.7437,-115.0398 85.045,-126.1751 104,-135 107.8793,-136.8061 111.9905,-138.634 116.0724,-140.3977"/>
<polygon fill="#191970" stroke="#191970" points="114.8471,-143.6796 125.4203,-144.3558 117.5765,-137.2336 114.8471,-143.6796"/>
</g>
<!-- Node31 -->
<g id="node4" class="node">
<title>Node31</title>
<g id="a_node4"><a xlink:href="namespacearc.html#aa1ab715453e42ef3f962d9fbdef3f1bd" target="_top" xlink:title="arc::operator*">
<polygon fill="none" stroke="#000000" points="108.5,-108.5 108.5,-125.5 185.5,-125.5 185.5,-108.5 108.5,-108.5"/>
<text text-anchor="middle" x="147" y="-115.1" font-family="InputSans" font-size="8.00" fill="#000000">arc::operator*</text>
</a>
</g>
</g>
<!-- Node28&#45;&gt;Node31 -->
<g id="edge3" class="edge">
<title>Node28&#45;&gt;Node31</title>
<path fill="none" stroke="#191970" d="M68.2104,-104.4494C77.6619,-105.955 88.1044,-107.6184 98.2114,-109.2284"/>
<polygon fill="#191970" stroke="#191970" points="97.7314,-112.696 108.1575,-110.8127 98.8326,-105.7831 97.7314,-112.696"/>
</g>
<!-- Node33 -->
<g id="node6" class="node">
<title>Node33</title>
<g id="a_node6"><a xlink:href="namespacearc.html#a51109ed424e8adff2637d6a2478687bc" target="_top" xlink:title="arc::operator/">
<polygon fill="none" stroke="#000000" points="109,-72.5 109,-89.5 185,-89.5 185,-72.5 109,-72.5"/>
<text text-anchor="middle" x="147" y="-79.1" font-family="InputSans" font-size="8.00" fill="#000000">arc::operator/</text>
</a>
</g>
</g>
<!-- Node28&#45;&gt;Node33 -->
<g id="edge5" class="edge">
<title>Node28&#45;&gt;Node33</title>
<path fill="none" stroke="#191970" d="M68.2104,-93.5506C77.8567,-92.014 88.5354,-90.3129 98.8362,-88.6721"/>
<polygon fill="#191970" stroke="#191970" points="99.6338,-92.0893 108.9587,-87.0597 98.5326,-85.1764 99.6338,-92.0893"/>
</g>
<!-- Node34 -->
<g id="node7" class="node">
<title>Node34</title>
<g id="a_node7"><a xlink:href="namespacearc.html#a92b2a1bc245caaddb780a70a9559e920" target="_top" xlink:title="arc::operator==">
<polygon fill="none" stroke="#000000" points="104,-36.5 104,-53.5 190,-53.5 190,-36.5 104,-36.5"/>
<text text-anchor="middle" x="147" y="-43.1" font-family="InputSans" font-size="8.00" fill="#000000">arc::operator==</text>
</a>
</g>
</g>
<!-- Node28&#45;&gt;Node34 -->
<g id="edge6" class="edge">
<title>Node28&#45;&gt;Node34</title>
<path fill="none" stroke="#191970" d="M49.6712,-90.4921C63.7437,-82.9602 85.045,-71.8249 104,-63 107.8793,-61.1939 111.9905,-59.366 116.0724,-57.6023"/>
<polygon fill="#191970" stroke="#191970" points="117.5765,-60.7664 125.4203,-53.6442 114.8471,-54.3204 117.5765,-60.7664"/>
</g>
<!-- Node35 -->
<g id="node8" class="node">
<title>Node35</title>
<g id="a_node8"><a xlink:href="namespacearc.html#aaa0b8073e411194ba478983438046a59" target="_top" xlink:title="arc::operator!=">
<polygon fill="none" stroke="#000000" points="105.5,-.5 105.5,-17.5 188.5,-17.5 188.5,-.5 105.5,-.5"/>
<text text-anchor="middle" x="147" y="-7.1" font-family="InputSans" font-size="8.00" fill="#000000">arc::operator!=</text>
</a>
</g>
</g>
<!-- Node28&#45;&gt;Node35 -->
<g id="edge7" class="edge">
<title>Node28&#45;&gt;Node35</title>
<path fill="none" stroke="#191970" d="M40.4592,-90.3642C51.8577,-75.6324 76.9114,-45.4514 104,-27 106.5919,-25.2345 109.3843,-23.5911 112.2572,-22.0733"/>
<polygon fill="#191970" stroke="#191970" points="114.0277,-25.1072 121.5606,-17.657 111.0259,-18.7835 114.0277,-25.1072"/>
</g>
<!-- Node32 -->
<g id="node5" class="node">
<title>Node32</title>
<g id="a_node5"><a xlink:href="namespacearc.html#a7b51a56ef71502af24dc5d96e72de188" target="_top" xlink:title="Calculate vector dot product. ">
<polygon fill="none" stroke="#000000" points="226,-108.5 226,-125.5 276,-125.5 276,-108.5 226,-108.5"/>
<text text-anchor="middle" x="251" y="-115.1" font-family="InputSans" font-size="8.00" fill="#000000">arc::dot</text>
</a>
</g>
</g>
<!-- Node31&#45;&gt;Node32 -->
<g id="edge4" class="edge">
<title>Node31&#45;&gt;Node32</title>
<path fill="none" stroke="#191970" d="M185.7258,-117C195.5651,-117 206.0841,-117 215.7408,-117"/>
<polygon fill="#191970" stroke="#191970" points="215.808,-120.5001 225.8079,-117 215.8079,-113.5001 215.808,-120.5001"/>
</g>
</g>
</svg>
