<?xml version="1.0" encoding="UTF-8" standalone="no"?>
<!DOCTYPE svg PUBLIC "-//W3C//DTD SVG 1.1//EN"
 "http://www.w3.org/Graphics/SVG/1.1/DTD/svg11.dtd">
<!-- Generated by graphviz version 2.40.1 (20161225.0304)
 -->
<!-- Title: arc::PythonTupple Pages: 1 -->
<svg width="103pt" height="202pt"
 viewBox="0.00 0.00 103.00 202.00" xmlns="http://www.w3.org/2000/svg" xmlns:xlink="http://www.w3.org/1999/xlink">
<g id="graph0" class="graph" transform="scale(1 1) rotate(0) translate(4 198)">
<title>arc::PythonTupple</title>
<!-- Node0 -->
<g id="node1" class="node">
<title>Node0</title>
<polygon fill="#bfbfbf" stroke="#000000" points="0,-.5 0,-96.5 95,-96.5 95,-.5 0,-.5"/>
<text text-anchor="middle" x="47.5" y="-86.1" font-family="InputSans" font-size="8.00" fill="#000000">arc::PythonTupple</text>
<polyline fill="none" stroke="#000000" points="0,-79.5 95,-79.5 "/>
<text text-anchor="middle" x="47.5" y="-69.1" font-family="InputSans" font-size="8.00" fill="#000000"> </text>
<polyline fill="none" stroke="#000000" points="0,-62.5 95,-62.5 "/>
<text text-anchor="start" x="8" y="-52.1" font-family="InputSans" font-size="8.00" fill="#000000">+ PythonTupple()</text>
<text text-anchor="start" x="8" y="-43.1" font-family="InputSans" font-size="8.00" fill="#000000">+ ~PythonTupple()</text>
<text text-anchor="start" x="8" y="-34.1" font-family="InputSans" font-size="8.00" fill="#000000">+ getType()</text>
<text text-anchor="start" x="8" y="-25.1" font-family="InputSans" font-size="8.00" fill="#000000">+ getSize()</text>
<text text-anchor="start" x="8" y="-16.1" font-family="InputSans" font-size="8.00" fill="#000000">+ getAt()</text>
<text text-anchor="start" x="8" y="-7.1" font-family="InputSans" font-size="8.00" fill="#000000">+ setAt()</text>
</g>
<!-- Node1 -->
<g id="node2" class="node">
<title>Node1</title>
<g id="a_node2"><a xlink:href="classarc_1_1_python_object.html" target="_top" xlink:title="{arc::PythonObject\n|# pyObject\l|+ ~PythonObject()\l+ getType()\l}">
<polygon fill="none" stroke="#000000" points="0,-133.5 0,-193.5 95,-193.5 95,-133.5 0,-133.5"/>
<text text-anchor="middle" x="47.5" y="-183.1" font-family="InputSans" font-size="8.00" fill="#000000">arc::PythonObject</text>
<polyline fill="none" stroke="#000000" points="0,-176.5 95,-176.5 "/>
<text text-anchor="start" x="8" y="-166.1" font-family="InputSans" font-size="8.00" fill="#000000"># pyObject</text>
<polyline fill="none" stroke="#000000" points="0,-159.5 95,-159.5 "/>
<text text-anchor="start" x="8" y="-149.1" font-family="InputSans" font-size="8.00" fill="#000000">+ ~PythonObject()</text>
<text text-anchor="start" x="8" y="-140.1" font-family="InputSans" font-size="8.00" fill="#000000">+ getType()</text>
</a>
</g>
</g>
<!-- Node1&#45;&gt;Node0 -->
<g id="edge1" class="edge">
<title>Node1&#45;&gt;Node0</title>
<path fill="none" stroke="#191970" d="M47.5,-123.1983C47.5,-114.655 47.5,-105.5538 47.5,-96.7497"/>
<polygon fill="none" stroke="#191970" points="44.0001,-123.2851 47.5,-133.2851 51.0001,-123.2851 44.0001,-123.2851"/>
</g>
</g>
</svg>
