<?xml version="1.0" encoding="UTF-8" standalone="no"?>
<!DOCTYPE svg PUBLIC "-//W3C//DTD SVG 1.1//EN"
 "http://www.w3.org/Graphics/SVG/1.1/DTD/svg11.dtd">
<!-- Generated by graphviz version 2.40.1 (20161225.0304)
 -->
<!-- Title: arc::PythonFloat::create Pages: 1 -->
<svg width="426pt" height="35pt"
 viewBox="0.00 0.00 426.00 35.00" xmlns="http://www.w3.org/2000/svg" xmlns:xlink="http://www.w3.org/1999/xlink">
<g id="graph0" class="graph" transform="scale(1 1) rotate(0) translate(4 31)">
<title>arc::PythonFloat::create</title>
<!-- Node5 -->
<g id="node1" class="node">
<title>Node5</title>
<polygon fill="#bfbfbf" stroke="#000000" points="0,-5 0,-22 119,-22 119,-5 0,-5"/>
<text text-anchor="middle" x="59.5" y="-11.6" font-family="InputSans" font-size="8.00" fill="#000000">arc::PythonFloat::create</text>
</g>
<!-- Node6 -->
<g id="node2" class="node">
<title>Node6</title>
<g id="a_node2"><a xlink:href="classarc_1_1_python_context.html#a047132c9f365ae0d7c7c49c6cbafa19c" target="_top" xlink:title="arc::PythonContext\l::createFloat">
<polygon fill="none" stroke="#000000" points="155,-.5 155,-26.5 253,-26.5 253,-.5 155,-.5"/>
<text text-anchor="start" x="163" y="-16.1" font-family="InputSans" font-size="8.00" fill="#000000">arc::PythonContext</text>
<text text-anchor="middle" x="204" y="-7.1" font-family="InputSans" font-size="8.00" fill="#000000">::createFloat</text>
</a>
</g>
</g>
<!-- Node5&#45;&gt;Node6 -->
<g id="edge1" class="edge">
<title>Node5&#45;&gt;Node6</title>
<path fill="none" stroke="#191970" d="M129.1596,-13.5C137.7663,-13.5 146.4221,-13.5 154.6376,-13.5"/>
<polygon fill="#191970" stroke="#191970" points="129.108,-10.0001 119.1079,-13.5 129.1079,-17.0001 129.108,-10.0001"/>
</g>
<!-- Node7 -->
<g id="node3" class="node">
<title>Node7</title>
<g id="a_node3"><a xlink:href="namespacearc.html#a5e0f62735567bd3a3f989619af0b4f87" target="_top" xlink:title="arc::plotSurface3dFunction">
<polygon fill="none" stroke="#000000" points="289,-5 289,-22 418,-22 418,-5 289,-5"/>
<text text-anchor="middle" x="353.5" y="-11.6" font-family="InputSans" font-size="8.00" fill="#000000">arc::plotSurface3dFunction</text>
</a>
</g>
</g>
<!-- Node6&#45;&gt;Node7 -->
<g id="edge2" class="edge">
<title>Node6&#45;&gt;Node7</title>
<path fill="none" stroke="#191970" d="M263.4432,-13.5C271.8386,-13.5 280.5032,-13.5 288.9884,-13.5"/>
<polygon fill="#191970" stroke="#191970" points="263.3663,-10.0001 253.3662,-13.5 263.3662,-17.0001 263.3663,-10.0001"/>
</g>
</g>
</svg>
