<?xml version="1.0" encoding="UTF-8" standalone="no"?>
<!DOCTYPE svg PUBLIC "-//W3C//DTD SVG 1.1//EN"
 "http://www.w3.org/Graphics/SVG/1.1/DTD/svg11.dtd">
<!-- Generated by graphviz version 2.40.1 (20161225.0304)
 -->
<!-- Title: arc::python::PythonTuple::setAt Pages: 1 -->
<svg width="325pt" height="80pt"
 viewBox="0.00 0.00 325.00 80.00" xmlns="http://www.w3.org/2000/svg" xmlns:xlink="http://www.w3.org/1999/xlink">
<g id="graph0" class="graph" transform="scale(1 1) rotate(0) translate(4 76)">
<title>arc::python::PythonTuple::setAt</title>
<!-- Node9 -->
<g id="node1" class="node">
<title>Node9</title>
<polygon fill="#bfbfbf" stroke="#000000" points="0,-22.5 0,-48.5 138,-48.5 138,-22.5 0,-22.5"/>
<text text-anchor="start" x="8" y="-38.1" font-family="InputSans" font-size="8.00" fill="#000000">arc::python::PythonTuple</text>
<text text-anchor="middle" x="69" y="-29.1" font-family="InputSans" font-size="8.00" fill="#000000">::setAt</text>
</g>
<!-- Node10 -->
<g id="node2" class="node">
<title>Node10</title>
<g id="a_node2"><a xlink:href="classarc_1_1python_1_1_python_object.html#ab5d924c554bddb450591e7c42aa639a1" target="_top" xlink:title="arc::python::PythonObject\l::isValid">
<polygon fill="none" stroke="#000000" points="174,-45.5 174,-71.5 317,-71.5 317,-45.5 174,-45.5"/>
<text text-anchor="start" x="182" y="-61.1" font-family="InputSans" font-size="8.00" fill="#000000">arc::python::PythonObject</text>
<text text-anchor="middle" x="245.5" y="-52.1" font-family="InputSans" font-size="8.00" fill="#000000">::isValid</text>
</a>
</g>
</g>
<!-- Node9&#45;&gt;Node10 -->
<g id="edge1" class="edge">
<title>Node9&#45;&gt;Node10</title>
<path fill="none" stroke="#191970" d="M138.2509,-44.5242C146.6501,-45.6187 155.2903,-46.7446 163.8474,-47.8597"/>
<polygon fill="#191970" stroke="#191970" points="163.4665,-51.3396 173.8349,-49.1612 164.3711,-44.3983 163.4665,-51.3396"/>
</g>
<!-- Node11 -->
<g id="node3" class="node">
<title>Node11</title>
<g id="a_node3"><a xlink:href="classarc_1_1python_1_1_python_tuple.html#a956cabb8d6c2890f37067078b0fde5c7" target="_top" xlink:title="arc::python::PythonTuple\l::size">
<polygon fill="none" stroke="#000000" points="176.5,-.5 176.5,-26.5 314.5,-26.5 314.5,-.5 176.5,-.5"/>
<text text-anchor="start" x="184.5" y="-16.1" font-family="InputSans" font-size="8.00" fill="#000000">arc::python::PythonTuple</text>
<text text-anchor="middle" x="245.5" y="-7.1" font-family="InputSans" font-size="8.00" fill="#000000">::size</text>
</a>
</g>
</g>
<!-- Node9&#45;&gt;Node11 -->
<g id="edge2" class="edge">
<title>Node9&#45;&gt;Node11</title>
<path fill="none" stroke="#191970" d="M138.2509,-26.8682C147.471,-25.7189 156.9815,-24.5335 166.3537,-23.3653"/>
<polygon fill="#191970" stroke="#191970" points="166.9585,-26.817 176.4488,-22.1069 166.0927,-19.8708 166.9585,-26.817"/>
</g>
</g>
</svg>
