<?xml version="1.0" encoding="UTF-8" standalone="no"?>
<!DOCTYPE svg PUBLIC "-//W3C//DTD SVG 1.1//EN"
 "http://www.w3.org/Graphics/SVG/1.1/DTD/svg11.dtd">
<!-- Generated by graphviz version 2.40.1 (20161225.0304)
 -->
<!-- Title: arc::python::PythonList::setAt Pages: 1 -->
<svg width="318pt" height="80pt"
 viewBox="0.00 0.00 318.00 80.00" xmlns="http://www.w3.org/2000/svg" xmlns:xlink="http://www.w3.org/1999/xlink">
<g id="graph0" class="graph" transform="scale(1 1) rotate(0) translate(4 76)">
<title>arc::python::PythonList::setAt</title>
<!-- Node12 -->
<g id="node1" class="node">
<title>Node12</title>
<polygon fill="#bfbfbf" stroke="#000000" points="0,-22.5 0,-48.5 131,-48.5 131,-22.5 0,-22.5"/>
<text text-anchor="start" x="8" y="-38.1" font-family="InputSans" font-size="8.00" fill="#000000">arc::python::PythonList</text>
<text text-anchor="middle" x="65.5" y="-29.1" font-family="InputSans" font-size="8.00" fill="#000000">::setAt</text>
</g>
<!-- Node13 -->
<g id="node2" class="node">
<title>Node13</title>
<g id="a_node2"><a xlink:href="classarc_1_1python_1_1_python_object.html#ab5d924c554bddb450591e7c42aa639a1" target="_top" xlink:title="arc::python::PythonObject\l::isValid">
<polygon fill="none" stroke="#000000" points="167,-45.5 167,-71.5 310,-71.5 310,-45.5 167,-45.5"/>
<text text-anchor="start" x="175" y="-61.1" font-family="InputSans" font-size="8.00" fill="#000000">arc::python::PythonObject</text>
<text text-anchor="middle" x="238.5" y="-52.1" font-family="InputSans" font-size="8.00" fill="#000000">::isValid</text>
</a>
</g>
</g>
<!-- Node12&#45;&gt;Node13 -->
<g id="edge1" class="edge">
<title>Node12&#45;&gt;Node13</title>
<path fill="none" stroke="#191970" d="M131.3974,-44.2609C139.7018,-45.365 148.2753,-46.5048 156.7868,-47.6364"/>
<polygon fill="#191970" stroke="#191970" points="156.3561,-51.1098 166.7302,-48.9583 157.2787,-44.1709 156.3561,-51.1098"/>
</g>
<!-- Node14 -->
<g id="node3" class="node">
<title>Node14</title>
<g id="a_node3"><a xlink:href="classarc_1_1python_1_1_python_list.html#abe998821eff39820c316ed4c47675f9d" target="_top" xlink:title="arc::python::PythonList\l::size">
<polygon fill="none" stroke="#000000" points="173,-.5 173,-26.5 304,-26.5 304,-.5 173,-.5"/>
<text text-anchor="start" x="181" y="-16.1" font-family="InputSans" font-size="8.00" fill="#000000">arc::python::PythonList</text>
<text text-anchor="middle" x="238.5" y="-7.1" font-family="InputSans" font-size="8.00" fill="#000000">::size</text>
</a>
</g>
</g>
<!-- Node12&#45;&gt;Node14 -->
<g id="edge2" class="edge">
<title>Node12&#45;&gt;Node14</title>
<path fill="none" stroke="#191970" d="M131.3974,-27.12C141.6728,-25.8133 152.36,-24.4542 162.832,-23.1225"/>
<polygon fill="#191970" stroke="#191970" points="163.3073,-26.5904 172.7858,-21.8567 162.4241,-19.6463 163.3073,-26.5904"/>
</g>
</g>
</svg>
