<?xml version="1.0" encoding="UTF-8" standalone="no"?>
<!DOCTYPE svg PUBLIC "-//W3C//DTD SVG 1.1//EN"
 "http://www.w3.org/Graphics/SVG/1.1/DTD/svg11.dtd">
<!-- Generated by graphviz version 2.40.1 (20161225.0304)
 -->
<!-- Title: arc::python::PythonFunction::call Pages: 1 -->
<svg width="407pt" height="225pt"
 viewBox="0.00 0.00 407.00 225.00" xmlns="http://www.w3.org/2000/svg" xmlns:xlink="http://www.w3.org/1999/xlink">
<g id="graph0" class="graph" transform="scale(1 1) rotate(0) translate(4 221)">
<title>arc::python::PythonFunction::call</title>
<!-- Node5 -->
<g id="node1" class="node">
<title>Node5</title>
<polygon fill="#bfbfbf" stroke="#000000" points="0,-88 0,-114 153,-114 153,-88 0,-88"/>
<text text-anchor="start" x="8" y="-103.6" font-family="InputSans" font-size="8.00" fill="#000000">arc::python::PythonFunction</text>
<text text-anchor="middle" x="76.5" y="-94.6" font-family="InputSans" font-size="8.00" fill="#000000">::call</text>
</g>
<!-- Node6 -->
<g id="node2" class="node">
<title>Node6</title>
<g id="a_node2"><a xlink:href="namespacearc_1_1plot.html#a261b0d898a424758e6d7f60b4d81ed05" target="_top" xlink:title="arc::plot::contourPlot">
<polygon fill="none" stroke="#000000" points="193.5,-199.5 193.5,-216.5 319.5,-216.5 319.5,-199.5 193.5,-199.5"/>
<text text-anchor="middle" x="256.5" y="-206.1" font-family="InputSans" font-size="8.00" fill="#000000">arc::plot::contourPlot</text>
</a>
</g>
</g>
<!-- Node5&#45;&gt;Node6 -->
<g id="edge1" class="edge">
<title>Node5&#45;&gt;Node6</title>
<path fill="none" stroke="#191970" d="M96.8725,-121.4351C118.1249,-141.6466 153.2729,-172.0783 189,-190 196.6969,-193.861 205.3166,-196.9649 213.755,-199.4347"/>
<polygon fill="#191970" stroke="#191970" points="99.055,-118.6766 89.4354,-114.2366 94.1866,-123.7064 99.055,-118.6766"/>
</g>
<!-- Node7 -->
<g id="node3" class="node">
<title>Node7</title>
<g id="a_node3"><a xlink:href="classarc_1_1plot_1_1_figure.html#a1909144a4b548dbcba8efae7f3765dfc" target="_top" xlink:title="arc::plot::Figure::\lFigure">
<polygon fill="none" stroke="#000000" points="200,-154 200,-180 313,-180 313,-154 200,-154"/>
<text text-anchor="start" x="208" y="-169.6" font-family="InputSans" font-size="8.00" fill="#000000">arc::plot::Figure::</text>
<text text-anchor="middle" x="256.5" y="-160.6" font-family="InputSans" font-size="8.00" fill="#000000">Figure</text>
</a>
</g>
</g>
<!-- Node5&#45;&gt;Node7 -->
<g id="edge2" class="edge">
<title>Node5&#45;&gt;Node7</title>
<path fill="none" stroke="#191970" d="M117.672,-117.7611C138.8722,-126.2238 165.2012,-136.4757 189,-145 197.4706,-148.034 206.599,-151.1266 215.3213,-153.9977"/>
<polygon fill="#191970" stroke="#191970" points="118.904,-114.4843 108.3198,-114.0114 116.299,-120.9815 118.904,-114.4843"/>
</g>
<!-- Node8 -->
<g id="node4" class="node">
<title>Node8</title>
<g id="a_node4"><a xlink:href="classarc_1_1plot_1_1_figure.html#a22e2ba290665e48219c00b443727c271" target="_top" xlink:title="arc::plot::Figure::\lgetCurrentAxes">
<polygon fill="none" stroke="#000000" points="200,-109 200,-135 313,-135 313,-109 200,-109"/>
<text text-anchor="start" x="208" y="-124.6" font-family="InputSans" font-size="8.00" fill="#000000">arc::plot::Figure::</text>
<text text-anchor="middle" x="256.5" y="-115.6" font-family="InputSans" font-size="8.00" fill="#000000">getCurrentAxes</text>
</a>
</g>
</g>
<!-- Node5&#45;&gt;Node8 -->
<g id="edge3" class="edge">
<title>Node5&#45;&gt;Node8</title>
<path fill="none" stroke="#191970" d="M163.0834,-111.1014C175.5819,-112.5596 188.1684,-114.028 199.8769,-115.394"/>
<polygon fill="#191970" stroke="#191970" points="163.4355,-107.6188 153.0972,-109.9363 162.6242,-114.5717 163.4355,-107.6188"/>
</g>
<!-- Node10 -->
<g id="node6" class="node">
<title>Node10</title>
<g id="a_node6"><a xlink:href="classarc_1_1plot_1_1_figure.html#aa9b5ff34c2513211bf97a6995f751d90" target="_top" xlink:title="arc::plot::Figure::show">
<polygon fill="none" stroke="#000000" points="189,-72.5 189,-89.5 324,-89.5 324,-72.5 189,-72.5"/>
<text text-anchor="middle" x="256.5" y="-79.1" font-family="InputSans" font-size="8.00" fill="#000000">arc::plot::Figure::show</text>
</a>
</g>
</g>
<!-- Node5&#45;&gt;Node10 -->
<g id="edge5" class="edge">
<title>Node5&#45;&gt;Node10</title>
<path fill="none" stroke="#191970" d="M163.1649,-91.3706C171.7732,-90.4141 180.4222,-89.4531 188.7963,-88.5226"/>
<polygon fill="#191970" stroke="#191970" points="162.6495,-87.9062 153.0972,-92.4892 163.4226,-94.8634 162.6495,-87.9062"/>
</g>
<!-- Node11 -->
<g id="node7" class="node">
<title>Node11</title>
<g id="a_node7"><a xlink:href="namespacearc_1_1plot.html#afe7dc6b009d82b3f5e85734d5237500c" target="_top" xlink:title="arc::plot::listPlot">
<polygon fill="none" stroke="#000000" points="202.5,-36.5 202.5,-53.5 310.5,-53.5 310.5,-36.5 202.5,-36.5"/>
<text text-anchor="middle" x="256.5" y="-43.1" font-family="InputSans" font-size="8.00" fill="#000000">arc::plot::listPlot</text>
</a>
</g>
</g>
<!-- Node5&#45;&gt;Node11 -->
<g id="edge7" class="edge">
<title>Node5&#45;&gt;Node11</title>
<path fill="none" stroke="#191970" d="M122.6482,-84.6562C142.9081,-77.6772 167.0363,-69.6302 189,-63 199.9141,-59.7053 211.914,-56.4033 222.7307,-53.5435"/>
<polygon fill="#191970" stroke="#191970" points="121.3425,-81.4044 113.0396,-87.9855 123.6344,-88.0186 121.3425,-81.4044"/>
</g>
<!-- Node12 -->
<g id="node8" class="node">
<title>Node12</title>
<g id="a_node8"><a xlink:href="namespacearc_1_1plot.html#a759662849d66bdf5e8c93f60b9d65566" target="_top" xlink:title="arc::plot::surfacePlot">
<polygon fill="none" stroke="#000000" points="193,-.5 193,-17.5 320,-17.5 320,-.5 193,-.5"/>
<text text-anchor="middle" x="256.5" y="-7.1" font-family="InputSans" font-size="8.00" fill="#000000">arc::plot::surfacePlot</text>
</a>
</g>
</g>
<!-- Node5&#45;&gt;Node12 -->
<g id="edge8" class="edge">
<title>Node5&#45;&gt;Node12</title>
<path fill="none" stroke="#191970" d="M100.7456,-81.7151C122.6703,-65.1161 156.4167,-41.5982 189,-27 197.4118,-23.2313 206.7782,-20.1138 215.791,-17.5931"/>
<polygon fill="#191970" stroke="#191970" points="98.4653,-79.0534 92.6698,-87.9226 102.7312,-84.6033 98.4653,-79.0534"/>
</g>
<!-- Node9 -->
<g id="node5" class="node">
<title>Node9</title>
<g id="a_node5"><a xlink:href="playground_2_main_8cpp.html#a0ddf1224851353fc92bfbff6f499fa97" target="_top" xlink:title="main">
<polygon fill="none" stroke="#000000" points="360,-72.5 360,-89.5 399,-89.5 399,-72.5 360,-72.5"/>
<text text-anchor="middle" x="379.5" y="-79.1" font-family="InputSans" font-size="8.00" fill="#000000">main</text>
</a>
</g>
</g>
<!-- Node8&#45;&gt;Node9 -->
<g id="edge4" class="edge">
<title>Node8&#45;&gt;Node9</title>
<path fill="none" stroke="#191970" d="M305.2454,-105.7515C324.3312,-99.3896 345.1313,-92.4562 359.8487,-87.5504"/>
<polygon fill="#191970" stroke="#191970" points="304.1362,-102.4319 295.7561,-108.9146 306.3498,-109.0727 304.1362,-102.4319"/>
</g>
<!-- Node10&#45;&gt;Node9 -->
<g id="edge6" class="edge">
<title>Node10&#45;&gt;Node9</title>
<path fill="none" stroke="#191970" d="M334.4028,-81C343.7268,-81 352.5082,-81 359.8008,-81"/>
<polygon fill="#191970" stroke="#191970" points="334.117,-77.5001 324.117,-81 334.1169,-84.5001 334.117,-77.5001"/>
</g>
<!-- Node12&#45;&gt;Node9 -->
<g id="edge9" class="edge">
<title>Node12&#45;&gt;Node9</title>
<path fill="none" stroke="#191970" d="M311.4071,-21.038C315.7816,-22.7738 320.0362,-24.7507 324,-27 344.8123,-38.8102 363.5145,-60.3036 372.979,-72.3048"/>
<polygon fill="#191970" stroke="#191970" points="312.2998,-17.6415 301.7051,-17.6106 309.9681,-24.2417 312.2998,-17.6415"/>
</g>
</g>
</svg>
