<?xml version="1.0" encoding="UTF-8" standalone="no"?>
<!DOCTYPE svg PUBLIC "-//W3C//DTD SVG 1.1//EN"
 "http://www.w3.org/Graphics/SVG/1.1/DTD/svg11.dtd">
<!-- Generated by graphviz version 2.40.1 (20161225.0304)
 -->
<!-- Title: arc::Vec&lt; T, N &gt; Pages: 1 -->
<svg width="205pt" height="675pt"
 viewBox="0.00 0.00 204.50 675.00" xmlns="http://www.w3.org/2000/svg" xmlns:xlink="http://www.w3.org/1999/xlink">
<g id="graph0" class="graph" transform="scale(1 1) rotate(0) translate(4 671)">
<title>arc::Vec&lt; T, N &gt;</title>
<!-- Node0 -->
<g id="node1" class="node">
<title>Node0</title>
<polygon fill="#bfbfbf" stroke="#000000" points="14,-.5 14,-186.5 116,-186.5 116,-.5 14,-.5"/>
<text text-anchor="middle" x="65" y="-176.1" font-family="InputSans" font-size="8.00" fill="#000000">arc::Vec&lt; T, N &gt;</text>
<polyline fill="none" stroke="#000000" points="14,-169.5 116,-169.5 "/>
<text text-anchor="middle" x="65" y="-159.1" font-family="InputSans" font-size="8.00" fill="#000000"> </text>
<polyline fill="none" stroke="#000000" points="14,-152.5 116,-152.5 "/>
<text text-anchor="start" x="22" y="-142.1" font-family="InputSans" font-size="8.00" fill="#000000">+ Vec()</text>
<text text-anchor="start" x="22" y="-133.1" font-family="InputSans" font-size="8.00" fill="#000000">+ Vec()</text>
<text text-anchor="start" x="22" y="-124.1" font-family="InputSans" font-size="8.00" fill="#000000">+ Vec()</text>
<text text-anchor="start" x="22" y="-115.1" font-family="InputSans" font-size="8.00" fill="#000000">+ Vec()</text>
<text text-anchor="start" x="22" y="-106.1" font-family="InputSans" font-size="8.00" fill="#000000">+ Vec()</text>
<text text-anchor="start" x="22" y="-97.1" font-family="InputSans" font-size="8.00" fill="#000000">+ Vec()</text>
<text text-anchor="start" x="22" y="-88.1" font-family="InputSans" font-size="8.00" fill="#000000">+ size()</text>
<text text-anchor="start" x="22" y="-79.1" font-family="InputSans" font-size="8.00" fill="#000000">+ operator[]()</text>
<text text-anchor="start" x="22" y="-70.1" font-family="InputSans" font-size="8.00" fill="#000000">+ operator[]()</text>
<text text-anchor="start" x="22" y="-61.1" font-family="InputSans" font-size="8.00" fill="#000000">+ operator=()</text>
<text text-anchor="start" x="22" y="-52.1" font-family="InputSans" font-size="8.00" fill="#000000">+ toString()</text>
<text text-anchor="start" x="22" y="-43.1" font-family="InputSans" font-size="8.00" fill="#000000">+ zero()</text>
<text text-anchor="start" x="22" y="-34.1" font-family="InputSans" font-size="8.00" fill="#000000">+ left()</text>
<text text-anchor="start" x="22" y="-25.1" font-family="InputSans" font-size="8.00" fill="#000000">+ right()</text>
<text text-anchor="start" x="22" y="-16.1" font-family="InputSans" font-size="8.00" fill="#000000">+ down()</text>
<text text-anchor="start" x="22" y="-7.1" font-family="InputSans" font-size="8.00" fill="#000000">+ up()</text>
</g>
<!-- Node1 -->
<g id="node2" class="node">
<title>Node1</title>
<g id="a_node2"><a xlink:href="classarc_1_1details_1_1inner__storage.html" target="_top" xlink:title="{arc::details::inner\l_storage\&lt; T, N, N \&gt;\n|+ x\l+ y\l+ z\l+ w\l|}">
<polygon fill="none" stroke="#000000" points="5.5,-224.5 5.5,-311.5 124.5,-311.5 124.5,-224.5 5.5,-224.5"/>
<text text-anchor="start" x="13.5" y="-301.1" font-family="InputSans" font-size="8.00" fill="#000000">arc::details::inner</text>
<text text-anchor="middle" x="65" y="-292.1" font-family="InputSans" font-size="8.00" fill="#000000">_storage&lt; T, N, N &gt;</text>
<polyline fill="none" stroke="#000000" points="5.5,-285.5 124.5,-285.5 "/>
<text text-anchor="start" x="13.5" y="-275.1" font-family="InputSans" font-size="8.00" fill="#000000">+ x</text>
<text text-anchor="start" x="13.5" y="-266.1" font-family="InputSans" font-size="8.00" fill="#000000">+ y</text>
<text text-anchor="start" x="13.5" y="-257.1" font-family="InputSans" font-size="8.00" fill="#000000">+ z</text>
<text text-anchor="start" x="13.5" y="-248.1" font-family="InputSans" font-size="8.00" fill="#000000">+ w</text>
<polyline fill="none" stroke="#000000" points="5.5,-241.5 124.5,-241.5 "/>
<text text-anchor="middle" x="65" y="-231.1" font-family="InputSans" font-size="8.00" fill="#000000"> </text>
</a>
</g>
</g>
<!-- Node1&#45;&gt;Node0 -->
<g id="edge1" class="edge">
<title>Node1&#45;&gt;Node0</title>
<path fill="none" stroke="#191970" d="M65,-214.3184C65,-205.4813 65,-196.1022 65,-186.6302"/>
<polygon fill="none" stroke="#191970" points="61.5001,-214.4164 65,-224.4164 68.5001,-214.4164 61.5001,-214.4164"/>
</g>
<!-- Node2 -->
<g id="node3" class="node">
<title>Node2</title>
<g id="a_node3"><a xlink:href="structarc_1_1details_1_1rule__is__greater__than__4.html" target="_top" xlink:title="{arc::details::rule\l_is_greater_than_4\&lt;\l(M \&gt; 4)\&gt;\n||}">
<polygon fill="none" stroke="#000000" points="0,-482.5 0,-551.5 122,-551.5 122,-482.5 0,-482.5"/>
<text text-anchor="start" x="8" y="-541.1" font-family="InputSans" font-size="8.00" fill="#000000">arc::details::rule</text>
<text text-anchor="start" x="8" y="-532.1" font-family="InputSans" font-size="8.00" fill="#000000">_is_greater_than_4&lt;</text>
<text text-anchor="middle" x="61" y="-523.1" font-family="InputSans" font-size="8.00" fill="#000000">(M &gt; 4)&gt;</text>
<polyline fill="none" stroke="#000000" points="0,-516.5 122,-516.5 "/>
<text text-anchor="middle" x="61" y="-506.1" font-family="InputSans" font-size="8.00" fill="#000000"> </text>
<polyline fill="none" stroke="#000000" points="0,-499.5 122,-499.5 "/>
<text text-anchor="middle" x="61" y="-489.1" font-family="InputSans" font-size="8.00" fill="#000000"> </text>
</a>
</g>
</g>
<!-- Node2&#45;&gt;Node1 -->
<g id="edge2" class="edge">
<title>Node2&#45;&gt;Node1</title>
<path fill="none" stroke="#8b1a1a" d="M61.7196,-472.2079C62.451,-426.677 63.5766,-356.6045 64.3007,-311.5327"/>
<polygon fill="none" stroke="#8b1a1a" points="58.2174,-472.3227 61.5562,-482.3776 65.2164,-472.4352 58.2174,-472.3227"/>
</g>
<!-- Node4 -->
<g id="node5" class="node">
<title>Node4</title>
<g id="a_node5"><a xlink:href="classarc_1_1details_1_1inner__storage.html" target="_top" xlink:title="{arc::details::inner\l_storage\&lt; T, N, M \&gt;\n|+ x\l+ y\l+ z\l+ w\l|}">
<polygon fill="none" stroke="#000000" points="77.5,-357.5 77.5,-444.5 196.5,-444.5 196.5,-357.5 77.5,-357.5"/>
<text text-anchor="start" x="85.5" y="-434.1" font-family="InputSans" font-size="8.00" fill="#000000">arc::details::inner</text>
<text text-anchor="middle" x="137" y="-425.1" font-family="InputSans" font-size="8.00" fill="#000000">_storage&lt; T, N, M &gt;</text>
<polyline fill="none" stroke="#000000" points="77.5,-418.5 196.5,-418.5 "/>
<text text-anchor="start" x="85.5" y="-408.1" font-family="InputSans" font-size="8.00" fill="#000000">+ x</text>
<text text-anchor="start" x="85.5" y="-399.1" font-family="InputSans" font-size="8.00" fill="#000000">+ y</text>
<text text-anchor="start" x="85.5" y="-390.1" font-family="InputSans" font-size="8.00" fill="#000000">+ z</text>
<text text-anchor="start" x="85.5" y="-381.1" font-family="InputSans" font-size="8.00" fill="#000000">+ w</text>
<polyline fill="none" stroke="#000000" points="77.5,-374.5 196.5,-374.5 "/>
<text text-anchor="middle" x="137" y="-364.1" font-family="InputSans" font-size="8.00" fill="#000000"> </text>
</a>
</g>
</g>
<!-- Node2&#45;&gt;Node4 -->
<g id="edge5" class="edge">
<title>Node2&#45;&gt;Node4</title>
<path fill="none" stroke="#8b1a1a" d="M89.3568,-473.7186C95.5387,-464.283 102.0853,-454.2909 108.2812,-444.834"/>
<polygon fill="none" stroke="#8b1a1a" points="86.3552,-471.9134 83.8025,-482.1962 92.2104,-475.7497 86.3552,-471.9134"/>
</g>
<!-- Node3 -->
<g id="node4" class="node">
<title>Node3</title>
<g id="a_node4"><a xlink:href="structarc_1_1details_1_1rule__is__greater__than__4.html" target="_top" xlink:title="{arc::details::rule\l_is_greater_than_4\&lt;\l bool \&gt;\n||}">
<polygon fill="none" stroke="#000000" points="0,-597.5 0,-666.5 122,-666.5 122,-597.5 0,-597.5"/>
<text text-anchor="start" x="8" y="-656.1" font-family="InputSans" font-size="8.00" fill="#000000">arc::details::rule</text>
<text text-anchor="start" x="8" y="-647.1" font-family="InputSans" font-size="8.00" fill="#000000">_is_greater_than_4&lt;</text>
<text text-anchor="middle" x="61" y="-638.1" font-family="InputSans" font-size="8.00" fill="#000000"> bool &gt;</text>
<polyline fill="none" stroke="#000000" points="0,-631.5 122,-631.5 "/>
<text text-anchor="middle" x="61" y="-621.1" font-family="InputSans" font-size="8.00" fill="#000000"> </text>
<polyline fill="none" stroke="#000000" points="0,-614.5 122,-614.5 "/>
<text text-anchor="middle" x="61" y="-604.1" font-family="InputSans" font-size="8.00" fill="#000000"> </text>
</a>
</g>
</g>
<!-- Node3&#45;&gt;Node2 -->
<g id="edge3" class="edge">
<title>Node3&#45;&gt;Node2</title>
<path fill="none" stroke="#ffa500" d="M61,-587.3905C61,-575.6073 61,-563.0626 61,-551.8769"/>
<polygon fill="#ffa500" stroke="#ffa500" points="57.5001,-587.4962 61,-597.4962 64.5001,-587.4962 57.5001,-587.4962"/>
<text text-anchor="middle" x="90" y="-572.6" font-family="InputSans" font-size="8.00" fill="#000000"> &lt;(M &gt; 4)&gt;</text>
</g>
<!-- Node4&#45;&gt;Node1 -->
<g id="edge4" class="edge">
<title>Node4&#45;&gt;Node1</title>
<path fill="none" stroke="#ffa500" d="M108.4773,-348.3122C101.8989,-336.1604 94.9719,-323.3648 88.6285,-311.647"/>
<polygon fill="#ffa500" stroke="#ffa500" points="105.5858,-350.323 113.4245,-357.4508 111.7417,-346.9905 105.5858,-350.323"/>
<text text-anchor="middle" x="135" y="-332.6" font-family="InputSans" font-size="8.00" fill="#000000"> &lt; T, N, N &gt;</text>
</g>
</g>
</svg>
