<?xml version="1.0" encoding="UTF-8" standalone="no"?>
<!DOCTYPE svg PUBLIC "-//W3C//DTD SVG 1.1//EN"
 "http://www.w3.org/Graphics/SVG/1.1/DTD/svg11.dtd">
<!-- Generated by graphviz version 2.40.1 (20161225.0304)
 -->
<!-- Title: arc::Vec&lt; T, N &gt; Pages: 1 -->
<svg width="180pt" height="675pt"
 viewBox="0.00 0.00 179.50 675.00" xmlns="http://www.w3.org/2000/svg" xmlns:xlink="http://www.w3.org/1999/xlink">
<g id="graph0" class="graph" transform="scale(1 1) rotate(0) translate(4 671)">
<title>arc::Vec&lt; T, N &gt;</title>
<!-- Node5 -->
<g id="node1" class="node">
<title>Node5</title>
<polygon fill="#bfbfbf" stroke="#000000" points="12,-.5 12,-186.5 100,-186.5 100,-.5 12,-.5"/>
<text text-anchor="middle" x="56" y="-176.1" font-family="InputSans" font-size="8.00" fill="#000000">arc::Vec&lt; T, N &gt;</text>
<polyline fill="none" stroke="#000000" points="12,-169.5 100,-169.5 "/>
<text text-anchor="middle" x="56" y="-159.1" font-family="InputSans" font-size="8.00" fill="#000000"> </text>
<polyline fill="none" stroke="#000000" points="12,-152.5 100,-152.5 "/>
<text text-anchor="start" x="20" y="-142.1" font-family="InputSans" font-size="8.00" fill="#000000">+ Vec()</text>
<text text-anchor="start" x="20" y="-133.1" font-family="InputSans" font-size="8.00" fill="#000000">+ Vec()</text>
<text text-anchor="start" x="20" y="-124.1" font-family="InputSans" font-size="8.00" fill="#000000">+ Vec()</text>
<text text-anchor="start" x="20" y="-115.1" font-family="InputSans" font-size="8.00" fill="#000000">+ Vec()</text>
<text text-anchor="start" x="20" y="-106.1" font-family="InputSans" font-size="8.00" fill="#000000">+ Vec()</text>
<text text-anchor="start" x="20" y="-97.1" font-family="InputSans" font-size="8.00" fill="#000000">+ Vec()</text>
<text text-anchor="start" x="20" y="-88.1" font-family="InputSans" font-size="8.00" fill="#000000">+ size()</text>
<text text-anchor="start" x="20" y="-79.1" font-family="InputSans" font-size="8.00" fill="#000000">+ operator[]()</text>
<text text-anchor="start" x="20" y="-70.1" font-family="InputSans" font-size="8.00" fill="#000000">+ operator[]()</text>
<text text-anchor="start" x="20" y="-61.1" font-family="InputSans" font-size="8.00" fill="#000000">+ operator=()</text>
<text text-anchor="start" x="20" y="-52.1" font-family="InputSans" font-size="8.00" fill="#000000">+ toString()</text>
<text text-anchor="start" x="20" y="-43.1" font-family="InputSans" font-size="8.00" fill="#000000">+ zero()</text>
<text text-anchor="start" x="20" y="-34.1" font-family="InputSans" font-size="8.00" fill="#000000">+ left()</text>
<text text-anchor="start" x="20" y="-25.1" font-family="InputSans" font-size="8.00" fill="#000000">+ right()</text>
<text text-anchor="start" x="20" y="-16.1" font-family="InputSans" font-size="8.00" fill="#000000">+ down()</text>
<text text-anchor="start" x="20" y="-7.1" font-family="InputSans" font-size="8.00" fill="#000000">+ up()</text>
</g>
<!-- Node6 -->
<g id="node2" class="node">
<title>Node6</title>
<g id="a_node2"><a xlink:href="classarc_1_1details_1_1inner__storage.html" target="_top" xlink:title="{arc::details::inner\l_storage\&lt; T, N, N \&gt;\n|+ x\l+ y\l+ z\l+ w\l|}">
<polygon fill="none" stroke="#000000" points="5,-224.5 5,-311.5 107,-311.5 107,-224.5 5,-224.5"/>
<text text-anchor="start" x="13" y="-301.1" font-family="InputSans" font-size="8.00" fill="#000000">arc::details::inner</text>
<text text-anchor="middle" x="56" y="-292.1" font-family="InputSans" font-size="8.00" fill="#000000">_storage&lt; T, N, N &gt;</text>
<polyline fill="none" stroke="#000000" points="5,-285.5 107,-285.5 "/>
<text text-anchor="start" x="13" y="-275.1" font-family="InputSans" font-size="8.00" fill="#000000">+ x</text>
<text text-anchor="start" x="13" y="-266.1" font-family="InputSans" font-size="8.00" fill="#000000">+ y</text>
<text text-anchor="start" x="13" y="-257.1" font-family="InputSans" font-size="8.00" fill="#000000">+ z</text>
<text text-anchor="start" x="13" y="-248.1" font-family="InputSans" font-size="8.00" fill="#000000">+ w</text>
<polyline fill="none" stroke="#000000" points="5,-241.5 107,-241.5 "/>
<text text-anchor="middle" x="56" y="-231.1" font-family="InputSans" font-size="8.00" fill="#000000"> </text>
</a>
</g>
</g>
<!-- Node6&#45;&gt;Node5 -->
<g id="edge1" class="edge">
<title>Node6&#45;&gt;Node5</title>
<path fill="none" stroke="#191970" d="M56,-214.3184C56,-205.4813 56,-196.1022 56,-186.6302"/>
<polygon fill="none" stroke="#191970" points="52.5001,-214.4164 56,-224.4164 59.5001,-214.4164 52.5001,-214.4164"/>
</g>
<!-- Node7 -->
<g id="node3" class="node">
<title>Node7</title>
<g id="a_node3"><a xlink:href="structarc_1_1details_1_1rule__is__greater__than__4.html" target="_top" xlink:title="{arc::details::rule\l_is_greater_than_4\&lt;\l(M \&gt; 4)\&gt;\n||}">
<polygon fill="none" stroke="#000000" points="0,-482.5 0,-551.5 104,-551.5 104,-482.5 0,-482.5"/>
<text text-anchor="start" x="8" y="-541.1" font-family="InputSans" font-size="8.00" fill="#000000">arc::details::rule</text>
<text text-anchor="start" x="8" y="-532.1" font-family="InputSans" font-size="8.00" fill="#000000">_is_greater_than_4&lt;</text>
<text text-anchor="middle" x="52" y="-523.1" font-family="InputSans" font-size="8.00" fill="#000000">(M &gt; 4)&gt;</text>
<polyline fill="none" stroke="#000000" points="0,-516.5 104,-516.5 "/>
<text text-anchor="middle" x="52" y="-506.1" font-family="InputSans" font-size="8.00" fill="#000000"> </text>
<polyline fill="none" stroke="#000000" points="0,-499.5 104,-499.5 "/>
<text text-anchor="middle" x="52" y="-489.1" font-family="InputSans" font-size="8.00" fill="#000000"> </text>
</a>
</g>
</g>
<!-- Node7&#45;&gt;Node6 -->
<g id="edge2" class="edge">
<title>Node7&#45;&gt;Node6</title>
<path fill="none" stroke="#8b1a1a" d="M52.7196,-472.2079C53.451,-426.677 54.5766,-356.6045 55.3007,-311.5327"/>
<polygon fill="none" stroke="#8b1a1a" points="49.2174,-472.3227 52.5562,-482.3776 56.2164,-472.4352 49.2174,-472.3227"/>
</g>
<!-- Node9 -->
<g id="node5" class="node">
<title>Node9</title>
<g id="a_node5"><a xlink:href="classarc_1_1details_1_1inner__storage.html" target="_top" xlink:title="{arc::details::inner\l_storage\&lt; T, N, M \&gt;\n|+ x\l+ y\l+ z\l+ w\l|}">
<polygon fill="none" stroke="#000000" points="68.5,-357.5 68.5,-444.5 171.5,-444.5 171.5,-357.5 68.5,-357.5"/>
<text text-anchor="start" x="76.5" y="-434.1" font-family="InputSans" font-size="8.00" fill="#000000">arc::details::inner</text>
<text text-anchor="middle" x="120" y="-425.1" font-family="InputSans" font-size="8.00" fill="#000000">_storage&lt; T, N, M &gt;</text>
<polyline fill="none" stroke="#000000" points="68.5,-418.5 171.5,-418.5 "/>
<text text-anchor="start" x="76.5" y="-408.1" font-family="InputSans" font-size="8.00" fill="#000000">+ x</text>
<text text-anchor="start" x="76.5" y="-399.1" font-family="InputSans" font-size="8.00" fill="#000000">+ y</text>
<text text-anchor="start" x="76.5" y="-390.1" font-family="InputSans" font-size="8.00" fill="#000000">+ z</text>
<text text-anchor="start" x="76.5" y="-381.1" font-family="InputSans" font-size="8.00" fill="#000000">+ w</text>
<polyline fill="none" stroke="#000000" points="68.5,-374.5 171.5,-374.5 "/>
<text text-anchor="middle" x="120" y="-364.1" font-family="InputSans" font-size="8.00" fill="#000000"> </text>
</a>
</g>
</g>
<!-- Node7&#45;&gt;Node9 -->
<g id="edge5" class="edge">
<title>Node7&#45;&gt;Node9</title>
<path fill="none" stroke="#8b1a1a" d="M77.5413,-473.4296C83.0226,-464.0791 88.8171,-454.1944 94.3042,-444.834"/>
<polygon fill="none" stroke="#8b1a1a" points="74.44,-471.7991 72.4022,-482.1962 80.4789,-475.3392 74.44,-471.7991"/>
</g>
<!-- Node8 -->
<g id="node4" class="node">
<title>Node8</title>
<g id="a_node4"><a xlink:href="structarc_1_1details_1_1rule__is__greater__than__4.html" target="_top" xlink:title="{arc::details::rule\l_is_greater_than_4\&lt;\l bool \&gt;\n||}">
<polygon fill="none" stroke="#000000" points="0,-597.5 0,-666.5 104,-666.5 104,-597.5 0,-597.5"/>
<text text-anchor="start" x="8" y="-656.1" font-family="InputSans" font-size="8.00" fill="#000000">arc::details::rule</text>
<text text-anchor="start" x="8" y="-647.1" font-family="InputSans" font-size="8.00" fill="#000000">_is_greater_than_4&lt;</text>
<text text-anchor="middle" x="52" y="-638.1" font-family="InputSans" font-size="8.00" fill="#000000"> bool &gt;</text>
<polyline fill="none" stroke="#000000" points="0,-631.5 104,-631.5 "/>
<text text-anchor="middle" x="52" y="-621.1" font-family="InputSans" font-size="8.00" fill="#000000"> </text>
<polyline fill="none" stroke="#000000" points="0,-614.5 104,-614.5 "/>
<text text-anchor="middle" x="52" y="-604.1" font-family="InputSans" font-size="8.00" fill="#000000"> </text>
</a>
</g>
</g>
<!-- Node8&#45;&gt;Node7 -->
<g id="edge3" class="edge">
<title>Node8&#45;&gt;Node7</title>
<path fill="none" stroke="#ffa500" d="M52,-587.3905C52,-575.6073 52,-563.0626 52,-551.8769"/>
<polygon fill="#ffa500" stroke="#ffa500" points="48.5001,-587.4962 52,-597.4962 55.5001,-587.4962 48.5001,-587.4962"/>
<text text-anchor="middle" x="76" y="-572.6" font-family="InputSans" font-size="8.00" fill="#000000"> &lt;(M &gt; 4)&gt;</text>
</g>
<!-- Node9&#45;&gt;Node6 -->
<g id="edge4" class="edge">
<title>Node9&#45;&gt;Node6</title>
<path fill="none" stroke="#ffa500" d="M94.6465,-348.3122C88.799,-336.1604 82.6417,-323.3648 77.0031,-311.647"/>
<polygon fill="#ffa500" stroke="#ffa500" points="91.554,-349.9575 99.044,-357.4508 97.8617,-346.9222 91.554,-349.9575"/>
<text text-anchor="middle" x="115" y="-332.6" font-family="InputSans" font-size="8.00" fill="#000000"> &lt; T, N, N &gt;</text>
</g>
</g>
</svg>
