<?xml version="1.0" encoding="UTF-8" standalone="no"?>
<!DOCTYPE svg PUBLIC "-//W3C//DTD SVG 1.1//EN"
 "http://www.w3.org/Graphics/SVG/1.1/DTD/svg11.dtd">
<!-- Generated by graphviz version 2.40.1 (20161225.0304)
 -->
<!-- Title: arc::PythonFunction Pages: 1 -->
<svg width="111pt" height="193pt"
 viewBox="0.00 0.00 111.00 193.00" xmlns="http://www.w3.org/2000/svg" xmlns:xlink="http://www.w3.org/1999/xlink">
<g id="graph0" class="graph" transform="scale(1 1) rotate(0) translate(4 189)">
<title>arc::PythonFunction</title>
<!-- Node2 -->
<g id="node1" class="node">
<title>Node2</title>
<polygon fill="#bfbfbf" stroke="#000000" points="0,-.5 0,-87.5 103,-87.5 103,-.5 0,-.5"/>
<text text-anchor="middle" x="51.5" y="-77.1" font-family="InputSans" font-size="8.00" fill="#000000">arc::PythonFunction</text>
<polyline fill="none" stroke="#000000" points="0,-70.5 103,-70.5 "/>
<text text-anchor="middle" x="51.5" y="-60.1" font-family="InputSans" font-size="8.00" fill="#000000"> </text>
<polyline fill="none" stroke="#000000" points="0,-53.5 103,-53.5 "/>
<text text-anchor="start" x="8" y="-43.1" font-family="InputSans" font-size="8.00" fill="#000000">+ PythonFunction()</text>
<text text-anchor="start" x="8" y="-34.1" font-family="InputSans" font-size="8.00" fill="#000000">+ ~PythonFunction()</text>
<text text-anchor="start" x="8" y="-25.1" font-family="InputSans" font-size="8.00" fill="#000000">+ getType()</text>
<text text-anchor="start" x="8" y="-16.1" font-family="InputSans" font-size="8.00" fill="#000000">+ getName()</text>
<text text-anchor="start" x="8" y="-7.1" font-family="InputSans" font-size="8.00" fill="#000000">+ call()</text>
</g>
<!-- Node3 -->
<g id="node2" class="node">
<title>Node3</title>
<g id="a_node2"><a xlink:href="classarc_1_1_python_object.html" target="_top" xlink:title="{arc::PythonObject\n|# pyObject\l|+ ~PythonObject()\l+ getType()\l}">
<polygon fill="none" stroke="#000000" points="4,-124.5 4,-184.5 99,-184.5 99,-124.5 4,-124.5"/>
<text text-anchor="middle" x="51.5" y="-174.1" font-family="InputSans" font-size="8.00" fill="#000000">arc::PythonObject</text>
<polyline fill="none" stroke="#000000" points="4,-167.5 99,-167.5 "/>
<text text-anchor="start" x="12" y="-157.1" font-family="InputSans" font-size="8.00" fill="#000000"># pyObject</text>
<polyline fill="none" stroke="#000000" points="4,-150.5 99,-150.5 "/>
<text text-anchor="start" x="12" y="-140.1" font-family="InputSans" font-size="8.00" fill="#000000">+ ~PythonObject()</text>
<text text-anchor="start" x="12" y="-131.1" font-family="InputSans" font-size="8.00" fill="#000000">+ getType()</text>
</a>
</g>
</g>
<!-- Node3&#45;&gt;Node2 -->
<g id="edge1" class="edge">
<title>Node3&#45;&gt;Node2</title>
<path fill="none" stroke="#8b1a1a" d="M51.5,-114.1734C51.5,-105.6063 51.5,-96.5217 51.5,-87.8312"/>
<polygon fill="none" stroke="#8b1a1a" points="48.0001,-114.3054 51.5,-124.3054 55.0001,-114.3054 48.0001,-114.3054"/>
</g>
</g>
</svg>
