<?xml version="1.0" encoding="UTF-8" standalone="no"?>
<!DOCTYPE svg PUBLIC "-//W3C//DTD SVG 1.1//EN"
 "http://www.w3.org/Graphics/SVG/1.1/DTD/svg11.dtd">
<!-- Generated by graphviz version 2.40.1 (20161225.0304)
 -->
<!-- Title: arc::python::PythonObject::isValid Pages: 1 -->
<svg width="570pt" height="236pt"
 viewBox="0.00 0.00 570.00 235.50" xmlns="http://www.w3.org/2000/svg" xmlns:xlink="http://www.w3.org/1999/xlink">
<g id="graph0" class="graph" transform="scale(1 1) rotate(0) translate(4 231.5)">
<title>arc::python::PythonObject::isValid</title>
<!-- Node11 -->
<g id="node1" class="node">
<title>Node11</title>
<polygon fill="#bfbfbf" stroke="#000000" points="0,-111.5 0,-137.5 143,-137.5 143,-111.5 0,-111.5"/>
<text text-anchor="start" x="8" y="-127.1" font-family="InputSans" font-size="8.00" fill="#000000">arc::python::PythonObject</text>
<text text-anchor="middle" x="71.5" y="-118.1" font-family="InputSans" font-size="8.00" fill="#000000">::isValid</text>
</g>
<!-- Node12 -->
<g id="node2" class="node">
<title>Node12</title>
<g id="a_node2"><a xlink:href="namespacearc_1_1plot.html#a261b0d898a424758e6d7f60b4d81ed05" target="_top" xlink:title="arc::plot::contourPlot">
<polygon fill="none" stroke="#000000" points="185,-210 185,-227 311,-227 311,-210 185,-210"/>
<text text-anchor="middle" x="248" y="-216.6" font-family="InputSans" font-size="8.00" fill="#000000">arc::plot::contourPlot</text>
</a>
</g>
</g>
<!-- Node11&#45;&gt;Node12 -->
<g id="edge1" class="edge">
<title>Node11&#45;&gt;Node12</title>
<path fill="none" stroke="#191970" d="M94.3326,-144.3712C115.1155,-161.5098 147.3055,-185.7609 179,-200.5 187.1947,-204.3108 196.3265,-207.412 205.1947,-209.8982"/>
<polygon fill="#191970" stroke="#191970" points="96.3337,-141.4814 86.4231,-137.7357 91.8347,-146.8442 96.3337,-141.4814"/>
</g>
<!-- Node13 -->
<g id="node3" class="node">
<title>Node13</title>
<g id="a_node3"><a xlink:href="namespacearc_1_1plot.html#afe7dc6b009d82b3f5e85734d5237500c" target="_top" xlink:title="arc::plot::listPlot">
<polygon fill="none" stroke="#000000" points="194,-174 194,-191 302,-191 302,-174 194,-174"/>
<text text-anchor="middle" x="248" y="-180.6" font-family="InputSans" font-size="8.00" fill="#000000">arc::plot::listPlot</text>
</a>
</g>
</g>
<!-- Node11&#45;&gt;Node13 -->
<g id="edge2" class="edge">
<title>Node11&#45;&gt;Node13</title>
<path fill="none" stroke="#191970" d="M120.9683,-140.7559C153.7411,-151.5254 195.4214,-165.222 221.9145,-173.928"/>
<polygon fill="#191970" stroke="#191970" points="121.7029,-137.3132 111.11,-137.5163 119.5176,-143.9634 121.7029,-137.3132"/>
</g>
<!-- Node14 -->
<g id="node4" class="node">
<title>Node14</title>
<g id="a_node4"><a xlink:href="namespacearc_1_1plot.html#a759662849d66bdf5e8c93f60b9d65566" target="_top" xlink:title="arc::plot::surfacePlot">
<polygon fill="none" stroke="#000000" points="356.5,-113 356.5,-130 483.5,-130 483.5,-113 356.5,-113"/>
<text text-anchor="middle" x="420" y="-119.6" font-family="InputSans" font-size="8.00" fill="#000000">arc::plot::surfacePlot</text>
</a>
</g>
</g>
<!-- Node11&#45;&gt;Node14 -->
<g id="edge3" class="edge">
<title>Node11&#45;&gt;Node14</title>
<path fill="none" stroke="#191970" d="M153.4921,-126.4949C201.2106,-127.3241 262.5151,-127.8217 317,-126.5 329.7074,-126.1917 343.2889,-125.6699 356.2821,-125.0766"/>
<polygon fill="#191970" stroke="#191970" points="153.2777,-122.9905 143.2155,-126.3076 153.1501,-129.9893 153.2777,-122.9905"/>
</g>
<!-- Node16 -->
<g id="node6" class="node">
<title>Node16</title>
<g id="a_node6"><a xlink:href="classarc_1_1python_1_1_python_list.html#a0fd884458969b0207dd6396802db4610" target="_top" xlink:title="arc::python::PythonList\l::setAt">
<polygon fill="none" stroke="#000000" points="182.5,-90.5 182.5,-116.5 313.5,-116.5 313.5,-90.5 182.5,-90.5"/>
<text text-anchor="start" x="190.5" y="-106.1" font-family="InputSans" font-size="8.00" fill="#000000">arc::python::PythonList</text>
<text text-anchor="middle" x="248" y="-97.1" font-family="InputSans" font-size="8.00" fill="#000000">::setAt</text>
</a>
</g>
</g>
<!-- Node11&#45;&gt;Node16 -->
<g id="edge5" class="edge">
<title>Node11&#45;&gt;Node16</title>
<path fill="none" stroke="#191970" d="M153.1661,-114.7834C162.9451,-113.6198 172.8326,-112.4434 182.3446,-111.3117"/>
<polygon fill="#191970" stroke="#191970" points="152.5513,-111.3317 143.0349,-115.9888 153.3784,-118.2827 152.5513,-111.3317"/>
</g>
<!-- Node17 -->
<g id="node7" class="node">
<title>Node17</title>
<g id="a_node7"><a xlink:href="classarc_1_1python_1_1_python_list.html#a0178970ba7e16c92e4f36af6bc90d5d2" target="_top" xlink:title="arc::python::PythonList\l::pushBack">
<polygon fill="none" stroke="#000000" points="182.5,-45.5 182.5,-71.5 313.5,-71.5 313.5,-45.5 182.5,-45.5"/>
<text text-anchor="start" x="190.5" y="-61.1" font-family="InputSans" font-size="8.00" fill="#000000">arc::python::PythonList</text>
<text text-anchor="middle" x="248" y="-52.1" font-family="InputSans" font-size="8.00" fill="#000000">::pushBack</text>
</a>
</g>
</g>
<!-- Node11&#45;&gt;Node17 -->
<g id="edge6" class="edge">
<title>Node11&#45;&gt;Node17</title>
<path fill="none" stroke="#191970" d="M112.2555,-107.5426C132.259,-99.3876 156.7783,-89.64 179,-81.5 188.1297,-78.1557 198.0097,-74.7425 207.3626,-71.6042"/>
<polygon fill="#191970" stroke="#191970" points="110.7555,-104.3747 102.8283,-111.4039 113.4087,-110.8524 110.7555,-104.3747"/>
</g>
<!-- Node18 -->
<g id="node8" class="node">
<title>Node18</title>
<g id="a_node8"><a xlink:href="classarc_1_1python_1_1_python_tuple.html#ab045a04daca2b8053dc5b770ee3971de" target="_top" xlink:title="arc::python::PythonTuple\l::setAt">
<polygon fill="none" stroke="#000000" points="179,-.5 179,-26.5 317,-26.5 317,-.5 179,-.5"/>
<text text-anchor="start" x="187" y="-16.1" font-family="InputSans" font-size="8.00" fill="#000000">arc::python::PythonTuple</text>
<text text-anchor="middle" x="248" y="-7.1" font-family="InputSans" font-size="8.00" fill="#000000">::setAt</text>
</a>
</g>
</g>
<!-- Node11&#45;&gt;Node18 -->
<g id="edge7" class="edge">
<title>Node11&#45;&gt;Node18</title>
<path fill="none" stroke="#191970" d="M90.9729,-104.3675C111.2855,-84.3942 144.875,-54.1465 179,-35.5 185.1788,-32.1238 191.9562,-29.1719 198.7745,-26.6203"/>
<polygon fill="#191970" stroke="#191970" points="88.4622,-101.9285 83.8646,-111.4739 93.4112,-106.879 88.4622,-101.9285"/>
</g>
<!-- Node15 -->
<g id="node5" class="node">
<title>Node15</title>
<g id="a_node5"><a xlink:href="playground_2_main_8cpp.html#a0ddf1224851353fc92bfbff6f499fa97" target="_top" xlink:title="main">
<polygon fill="none" stroke="#000000" points="523,-71 523,-88 562,-88 562,-71 523,-71"/>
<text text-anchor="middle" x="542.5" y="-77.6" font-family="InputSans" font-size="8.00" fill="#000000">main</text>
</a>
</g>
</g>
<!-- Node14&#45;&gt;Node15 -->
<g id="edge4" class="edge">
<title>Node14&#45;&gt;Node15</title>
<path fill="none" stroke="#191970" d="M454.7383,-109.5897C476.7303,-102.0496 504.3725,-92.5723 522.6949,-86.2903"/>
<polygon fill="#191970" stroke="#191970" points="453.4096,-106.3452 445.0853,-112.8993 455.6799,-112.9668 453.4096,-106.3452"/>
</g>
<!-- Node19 -->
<g id="node9" class="node">
<title>Node19</title>
<g id="a_node9"><a xlink:href="classarc_1_1plot_1_1_figure.html#a358a91c5d002412a923b59977f37de0e" target="_top" xlink:title="arc::plot::Figure::save">
<polygon fill="none" stroke="#000000" points="353,-53 353,-70 487,-70 487,-53 353,-53"/>
<text text-anchor="middle" x="420" y="-59.6" font-family="InputSans" font-size="8.00" fill="#000000">arc::plot::Figure::save</text>
</a>
</g>
</g>
<!-- Node18&#45;&gt;Node19 -->
<g id="edge8" class="edge">
<title>Node18&#45;&gt;Node19</title>
<path fill="none" stroke="#191970" d="M304.7494,-29.3371C332.9408,-37.2044 365.8928,-46.4003 389.3242,-52.9393"/>
<polygon fill="#191970" stroke="#191970" points="305.5725,-25.9331 294.9998,-26.6162 303.6909,-32.6755 305.5725,-25.9331"/>
</g>
<!-- Node19&#45;&gt;Node15 -->
<g id="edge9" class="edge">
<title>Node19&#45;&gt;Node15</title>
<path fill="none" stroke="#191970" d="M488.272,-71.5318C500.9973,-73.4016 513.313,-75.2113 522.9827,-76.6321"/>
<polygon fill="#191970" stroke="#191970" points="488.424,-68.0166 478.0214,-70.0256 487.4063,-74.9423 488.424,-68.0166"/>
</g>
</g>
</svg>
