<?xml version="1.0" encoding="UTF-8" standalone="no"?>
<!DOCTYPE svg PUBLIC "-//W3C//DTD SVG 1.1//EN"
 "http://www.w3.org/Graphics/SVG/1.1/DTD/svg11.dtd">
<!-- Generated by graphviz version 2.40.1 (20161225.0304)
 -->
<!-- Title: arc::PythonModule Pages: 1 -->
<svg width="106pt" height="184pt"
 viewBox="0.00 0.00 106.00 184.00" xmlns="http://www.w3.org/2000/svg" xmlns:xlink="http://www.w3.org/1999/xlink">
<g id="graph0" class="graph" transform="scale(1 1) rotate(0) translate(4 180)">
<title>arc::PythonModule</title>
<!-- Node0 -->
<g id="node1" class="node">
<title>Node0</title>
<polygon fill="#bfbfbf" stroke="#000000" points="0,-.5 0,-78.5 98,-78.5 98,-.5 0,-.5"/>
<text text-anchor="middle" x="49" y="-68.1" font-family="InputSans" font-size="8.00" fill="#000000">arc::PythonModule</text>
<polyline fill="none" stroke="#000000" points="0,-61.5 98,-61.5 "/>
<text text-anchor="middle" x="49" y="-51.1" font-family="InputSans" font-size="8.00" fill="#000000"> </text>
<polyline fill="none" stroke="#000000" points="0,-44.5 98,-44.5 "/>
<text text-anchor="start" x="8" y="-34.1" font-family="InputSans" font-size="8.00" fill="#000000">+ PythonModule()</text>
<text text-anchor="start" x="8" y="-25.1" font-family="InputSans" font-size="8.00" fill="#000000">+ ~PythonModule()</text>
<text text-anchor="start" x="8" y="-16.1" font-family="InputSans" font-size="8.00" fill="#000000">+ getType()</text>
<text text-anchor="start" x="8" y="-7.1" font-family="InputSans" font-size="8.00" fill="#000000">+ getName()</text>
</g>
<!-- Node1 -->
<g id="node2" class="node">
<title>Node1</title>
<g id="a_node2"><a xlink:href="classarc_1_1_python_object.html" target="_top" xlink:title="{arc::PythonObject\n|# pyObject\l|+ ~PythonObject()\l+ getType()\l}">
<polygon fill="none" stroke="#000000" points="1.5,-115.5 1.5,-175.5 96.5,-175.5 96.5,-115.5 1.5,-115.5"/>
<text text-anchor="middle" x="49" y="-165.1" font-family="InputSans" font-size="8.00" fill="#000000">arc::PythonObject</text>
<polyline fill="none" stroke="#000000" points="1.5,-158.5 96.5,-158.5 "/>
<text text-anchor="start" x="9.5" y="-148.1" font-family="InputSans" font-size="8.00" fill="#000000"># pyObject</text>
<polyline fill="none" stroke="#000000" points="1.5,-141.5 96.5,-141.5 "/>
<text text-anchor="start" x="9.5" y="-131.1" font-family="InputSans" font-size="8.00" fill="#000000">+ ~PythonObject()</text>
<text text-anchor="start" x="9.5" y="-122.1" font-family="InputSans" font-size="8.00" fill="#000000">+ getType()</text>
</a>
</g>
</g>
<!-- Node1&#45;&gt;Node0 -->
<g id="edge1" class="edge">
<title>Node1&#45;&gt;Node0</title>
<path fill="none" stroke="#191970" d="M49,-105.1648C49,-96.518 49,-87.3934 49,-78.7869"/>
<polygon fill="none" stroke="#191970" points="45.5001,-105.4082 49,-115.4082 52.5001,-105.4082 45.5001,-105.4082"/>
</g>
</g>
</svg>
