<?xml version="1.0" encoding="UTF-8" standalone="no"?>
<!DOCTYPE svg PUBLIC "-//W3C//DTD SVG 1.1//EN"
 "http://www.w3.org/Graphics/SVG/1.1/DTD/svg11.dtd">
<!-- Generated by graphviz version 2.40.1 (20161225.0304)
 -->
<!-- Title: arc::python::PythonList::size Pages: 1 -->
<svg width="306pt" height="80pt"
 viewBox="0.00 0.00 306.00 80.00" xmlns="http://www.w3.org/2000/svg" xmlns:xlink="http://www.w3.org/1999/xlink">
<g id="graph0" class="graph" transform="scale(1 1) rotate(0) translate(4 76)">
<title>arc::python::PythonList::size</title>
<!-- Node17 -->
<g id="node1" class="node">
<title>Node17</title>
<polygon fill="#bfbfbf" stroke="#000000" points="0,-22.5 0,-48.5 131,-48.5 131,-22.5 0,-22.5"/>
<text text-anchor="start" x="8" y="-38.1" font-family="InputSans" font-size="8.00" fill="#000000">arc::python::PythonList</text>
<text text-anchor="middle" x="65.5" y="-29.1" font-family="InputSans" font-size="8.00" fill="#000000">::size</text>
</g>
<!-- Node18 -->
<g id="node2" class="node">
<title>Node18</title>
<g id="a_node2"><a xlink:href="classarc_1_1python_1_1_python_list.html#a99f065646ee1fb6ece67ccfe3c9168b8" target="_top" xlink:title="arc::python::PythonList\l::getAt">
<polygon fill="none" stroke="#000000" points="167,-45.5 167,-71.5 298,-71.5 298,-45.5 167,-45.5"/>
<text text-anchor="start" x="175" y="-61.1" font-family="InputSans" font-size="8.00" fill="#000000">arc::python::PythonList</text>
<text text-anchor="middle" x="232.5" y="-52.1" font-family="InputSans" font-size="8.00" fill="#000000">::getAt</text>
</a>
</g>
</g>
<!-- Node17&#45;&gt;Node18 -->
<g id="edge1" class="edge">
<title>Node17&#45;&gt;Node18</title>
<path fill="none" stroke="#191970" d="M141.0663,-45.9073C149.6848,-47.0943 158.4171,-48.297 166.8913,-49.4641"/>
<polygon fill="#191970" stroke="#191970" points="141.4076,-42.4214 131.0235,-44.5242 140.4524,-49.3559 141.4076,-42.4214"/>
</g>
<!-- Node19 -->
<g id="node3" class="node">
<title>Node19</title>
<g id="a_node3"><a xlink:href="classarc_1_1python_1_1_python_list.html#a0fd884458969b0207dd6396802db4610" target="_top" xlink:title="arc::python::PythonList\l::setAt">
<polygon fill="none" stroke="#000000" points="167,-.5 167,-26.5 298,-26.5 298,-.5 167,-.5"/>
<text text-anchor="start" x="175" y="-16.1" font-family="InputSans" font-size="8.00" fill="#000000">arc::python::PythonList</text>
<text text-anchor="middle" x="232.5" y="-7.1" font-family="InputSans" font-size="8.00" fill="#000000">::setAt</text>
</a>
</g>
</g>
<!-- Node17&#45;&gt;Node19 -->
<g id="edge2" class="edge">
<title>Node17&#45;&gt;Node19</title>
<path fill="none" stroke="#191970" d="M141.0663,-25.5452C149.6848,-24.4098 158.4171,-23.2594 166.8913,-22.1431"/>
<polygon fill="#191970" stroke="#191970" points="140.4807,-22.092 131.0235,-26.8682 141.395,-29.032 140.4807,-22.092"/>
</g>
</g>
</svg>
