<?xml version="1.0" encoding="UTF-8" standalone="no"?>
<!DOCTYPE svg PUBLIC "-//W3C//DTD SVG 1.1//EN"
 "http://www.w3.org/Graphics/SVG/1.1/DTD/svg11.dtd">
<!-- Generated by graphviz version 2.40.1 (20161225.0304)
 -->
<!-- Title: /home/jacques/repos/math4171/src Pages: 1 -->
<svg width="198pt" height="220pt"
 viewBox="0.00 0.00 198.00 220.00" xmlns="http://www.w3.org/2000/svg" xmlns:xlink="http://www.w3.org/1999/xlink">
<g id="graph0" class="graph" transform="scale(1 1) rotate(0) translate(4 216)">
<title>/home/jacques/repos/math4171/src</title>
<g id="clust1" class="cluster">
<title>clusterdir_68267d1309a1af8e8297ef4c3efbcdba</title>
<g id="a_clust1"><a xlink:href="dir_68267d1309a1af8e8297ef4c3efbcdba.html" target="_top">
<polygon fill="#eeeeff" stroke="#000000" points="8,-8 8,-204 182,-204 182,-8 8,-8"/>
</a>
</g>
</g>
<!-- dir_68267d1309a1af8e8297ef4c3efbcdba -->
<g id="node1" class="node">
<title>dir_68267d1309a1af8e8297ef4c3efbcdba</title>
<text text-anchor="middle" x="147" y="-176.1" font-family="InputSans" font-size="8.00" fill="#000000">src</text>
</g>
<!-- dir_c02768e2d179a771618cda9adcd780a4 -->
<g id="node2" class="node">
<title>dir_c02768e2d179a771618cda9adcd780a4</title>
<g id="a_node2"><a xlink:href="dir_c02768e2d179a771618cda9adcd780a4.html" target="_top" xlink:title="arcmath">
<polygon fill="#ffffff" stroke="#ff0000" points="70,-52 16,-52 16,-16 70,-16 70,-52"/>
<text text-anchor="middle" x="43" y="-32.1" font-family="InputSans" font-size="8.00" fill="#000000">arcmath</text>
</a>
</g>
</g>
<!-- dir_3837f82086fb34c6cbcca0cce4e41b75 -->
<g id="node3" class="node">
<title>dir_3837f82086fb34c6cbcca0cce4e41b75</title>
<g id="a_node3"><a xlink:href="dir_3837f82086fb34c6cbcca0cce4e41b75.html" target="_top" xlink:title="arcplot">
<polygon fill="#ffffff" stroke="#ff0000" points="99,-124 45,-124 45,-88 99,-88 99,-124"/>
<text text-anchor="middle" x="72" y="-104.1" font-family="InputSans" font-size="8.00" fill="#000000">arcplot</text>
</a>
</g>
</g>
<!-- dir_3837f82086fb34c6cbcca0cce4e41b75&#45;&gt;dir_c02768e2d179a771618cda9adcd780a4 -->
<g id="edge1" class="edge">
<title>dir_3837f82086fb34c6cbcca0cce4e41b75&#45;&gt;dir_c02768e2d179a771618cda9adcd780a4</title>
<path fill="none" stroke="#000000" d="M64.6821,-87.8314C61.5124,-79.9617 57.73,-70.5712 54.2187,-61.8533"/>
<polygon fill="#000000" stroke="#000000" points="57.3992,-60.3815 50.4165,-52.4133 50.9061,-62.9968 57.3992,-60.3815"/>
<g id="a_edge1&#45;headlabel"><a xlink:href="dir_000004_000001.html" target="_top" xlink:title="1">
<text text-anchor="middle" x="61.3758" y="-60.755" font-family="InputSans" font-size="8.00" fill="#000000">1</text>
</a>
</g>
</g>
<!-- dir_dd728b0af33b8140d4eaa461a35ccd09 -->
<g id="node4" class="node">
<title>dir_dd728b0af33b8140d4eaa461a35ccd09</title>
<g id="a_node4"><a xlink:href="dir_dd728b0af33b8140d4eaa461a35ccd09.html" target="_top" xlink:title="arcpython">
<polygon fill="#ffffff" stroke="#000000" points="147.5,-52 88.5,-52 88.5,-16 147.5,-16 147.5,-52"/>
<text text-anchor="middle" x="118" y="-32.1" font-family="InputSans" font-size="8.00" fill="#000000">arcpython</text>
</a>
</g>
</g>
<!-- dir_3837f82086fb34c6cbcca0cce4e41b75&#45;&gt;dir_dd728b0af33b8140d4eaa461a35ccd09 -->
<g id="edge2" class="edge">
<title>dir_3837f82086fb34c6cbcca0cce4e41b75&#45;&gt;dir_dd728b0af33b8140d4eaa461a35ccd09</title>
<path fill="none" stroke="#000000" d="M83.6077,-87.8314C88.7978,-79.7079 95.0232,-69.9637 100.7425,-61.0118"/>
<polygon fill="#000000" stroke="#000000" points="103.8015,-62.7246 106.236,-52.4133 97.9026,-58.9559 103.8015,-62.7246"/>
<g id="a_edge2&#45;headlabel"><a xlink:href="dir_000004_000003.html" target="_top" xlink:title="4">
<text text-anchor="middle" x="104.2589" y="-65.3824" font-family="InputSans" font-size="8.00" fill="#000000">4</text>
</a>
</g>
</g>
<!-- dir_27b9c859e00b931579178a57b9026ce0 -->
<g id="node5" class="node">
<title>dir_27b9c859e00b931579178a57b9026ce0</title>
<g id="a_node5"><a xlink:href="dir_27b9c859e00b931579178a57b9026ce0.html" target="_top" xlink:title="assignment1&#45;src">
<polygon fill="#ffffff" stroke="#000000" points="102,-196 16,-196 16,-160 102,-160 102,-196"/>
<text text-anchor="middle" x="59" y="-176.1" font-family="InputSans" font-size="8.00" fill="#000000">assignment1&#45;src</text>
</a>
</g>
</g>
<!-- dir_27b9c859e00b931579178a57b9026ce0&#45;&gt;dir_c02768e2d179a771618cda9adcd780a4 -->
<g id="edge4" class="edge">
<title>dir_27b9c859e00b931579178a57b9026ce0&#45;&gt;dir_c02768e2d179a771618cda9adcd780a4</title>
<path fill="none" stroke="#000000" d="M48.9765,-159.6094C44.0019,-149.4366 38.5267,-136.3803 36,-124 31.8279,-103.5578 33.8879,-80.0385 36.8266,-62.1703"/>
<polygon fill="#000000" stroke="#000000" points="40.31,-62.5786 38.6697,-52.1115 33.4246,-61.3169 40.31,-62.5786"/>
<g id="a_edge4&#45;headlabel"><a xlink:href="dir_000006_000001.html" target="_top" xlink:title="2">
<text text-anchor="middle" x="42.4549" y="-64.7261" font-family="InputSans" font-size="8.00" fill="#000000">2</text>
</a>
</g>
</g>
<!-- dir_27b9c859e00b931579178a57b9026ce0&#45;&gt;dir_3837f82086fb34c6cbcca0cce4e41b75 -->
<g id="edge3" class="edge">
<title>dir_27b9c859e00b931579178a57b9026ce0&#45;&gt;dir_3837f82086fb34c6cbcca0cce4e41b75</title>
<path fill="none" stroke="#000000" d="M62.2804,-159.8314C63.6708,-152.131 65.3241,-142.9743 66.8692,-134.4166"/>
<polygon fill="#000000" stroke="#000000" points="70.3428,-134.8761 68.6754,-124.4133 63.4542,-133.6322 70.3428,-134.8761"/>
<g id="a_edge3&#45;headlabel"><a xlink:href="dir_000006_000004.html" target="_top" xlink:title="1">
<text text-anchor="middle" x="72.4983" y="-137.0179" font-family="InputSans" font-size="8.00" fill="#000000">1</text>
</a>
</g>
</g>
<!-- dir_27b9c859e00b931579178a57b9026ce0&#45;&gt;dir_dd728b0af33b8140d4eaa461a35ccd09 -->
<g id="edge5" class="edge">
<title>dir_27b9c859e00b931579178a57b9026ce0&#45;&gt;dir_dd728b0af33b8140d4eaa461a35ccd09</title>
<path fill="none" stroke="#000000" d="M80.7574,-159.9553C90.7819,-150.3659 101.8054,-137.732 108,-124 116.7545,-104.5934 119.0452,-80.5337 119.2609,-62.1745"/>
<polygon fill="#000000" stroke="#000000" points="122.7603,-62.0738 119.1813,-52.1018 115.7605,-62.1292 122.7603,-62.0738"/>
<g id="a_edge5&#45;headlabel"><a xlink:href="dir_000006_000003.html" target="_top" xlink:title="5">
<text text-anchor="middle" x="125.6278" y="-63.7459" font-family="InputSans" font-size="8.00" fill="#000000">5</text>
</a>
</g>
</g>
</g>
</svg>
