<?xml version="1.0" encoding="UTF-8" standalone="no"?>
<!DOCTYPE svg PUBLIC "-//W3C//DTD SVG 1.1//EN"
 "http://www.w3.org/Graphics/SVG/1.1/DTD/svg11.dtd">
<!-- Generated by graphviz version 2.40.1 (20161225.0304)
 -->
<!-- Title: /home/jacques/repos/math4171/src Pages: 1 -->
<svg width="296pt" height="220pt"
 viewBox="0.00 0.00 296.00 220.00" xmlns="http://www.w3.org/2000/svg" xmlns:xlink="http://www.w3.org/1999/xlink">
<g id="graph0" class="graph" transform="scale(1 1) rotate(0) translate(4 216)">
<title>/home/jacques/repos/math4171/src</title>
<g id="clust1" class="cluster">
<title>clusterdir_68267d1309a1af8e8297ef4c3efbcdba</title>
<g id="a_clust1"><a xlink:href="dir_68267d1309a1af8e8297ef4c3efbcdba.html" target="_top">
<polygon fill="#eeeeff" stroke="#000000" points="8,-8 8,-204 280,-204 280,-8 8,-8"/>
</a>
</g>
</g>
<!-- dir_68267d1309a1af8e8297ef4c3efbcdba -->
<g id="node1" class="node">
<title>dir_68267d1309a1af8e8297ef4c3efbcdba</title>
<text text-anchor="middle" x="245" y="-176.1" font-family="InputSans" font-size="8.00" fill="#000000">src</text>
</g>
<!-- dir_c02768e2d179a771618cda9adcd780a4 -->
<g id="node2" class="node">
<title>dir_c02768e2d179a771618cda9adcd780a4</title>
<g id="a_node2"><a xlink:href="dir_c02768e2d179a771618cda9adcd780a4.html" target="_top" xlink:title="arcmath">
<polygon fill="#ffffff" stroke="#ff0000" points="82,-52 26,-52 26,-16 82,-16 82,-52"/>
<text text-anchor="middle" x="54" y="-32.1" font-family="InputSans" font-size="8.00" fill="#000000">arcmath</text>
</a>
</g>
</g>
<!-- dir_3837f82086fb34c6cbcca0cce4e41b75 -->
<g id="node3" class="node">
<title>dir_3837f82086fb34c6cbcca0cce4e41b75</title>
<g id="a_node3"><a xlink:href="dir_3837f82086fb34c6cbcca0cce4e41b75.html" target="_top" xlink:title="arcplot">
<polygon fill="#ffffff" stroke="#ff0000" points="102,-124 48,-124 48,-88 102,-88 102,-124"/>
<text text-anchor="middle" x="75" y="-104.1" font-family="InputSans" font-size="8.00" fill="#000000">arcplot</text>
</a>
</g>
</g>
<!-- dir_3837f82086fb34c6cbcca0cce4e41b75&#45;&gt;dir_c02768e2d179a771618cda9adcd780a4 -->
<g id="edge1" class="edge">
<title>dir_3837f82086fb34c6cbcca0cce4e41b75&#45;&gt;dir_c02768e2d179a771618cda9adcd780a4</title>
<path fill="none" stroke="#000000" d="M69.7008,-87.8314C67.4302,-80.0463 64.7254,-70.7729 62.206,-62.1347"/>
<polygon fill="#000000" stroke="#000000" points="65.5306,-61.0332 59.3705,-52.4133 58.8106,-62.9933 65.5306,-61.0332"/>
<g id="a_edge1&#45;headlabel"><a xlink:href="dir_000004_000001.html" target="_top" xlink:title="4">
<text text-anchor="middle" x="69.2627" y="-61.7891" font-family="InputSans" font-size="8.00" fill="#000000">4</text>
</a>
</g>
</g>
<!-- dir_dd728b0af33b8140d4eaa461a35ccd09 -->
<g id="node4" class="node">
<title>dir_dd728b0af33b8140d4eaa461a35ccd09</title>
<g id="a_node4"><a xlink:href="dir_dd728b0af33b8140d4eaa461a35ccd09.html" target="_top" xlink:title="arcpython">
<polygon fill="#ffffff" stroke="#000000" points="162,-52 100,-52 100,-16 162,-16 162,-52"/>
<text text-anchor="middle" x="131" y="-32.1" font-family="InputSans" font-size="8.00" fill="#000000">arcpython</text>
</a>
</g>
</g>
<!-- dir_3837f82086fb34c6cbcca0cce4e41b75&#45;&gt;dir_dd728b0af33b8140d4eaa461a35ccd09 -->
<g id="edge2" class="edge">
<title>dir_3837f82086fb34c6cbcca0cce4e41b75&#45;&gt;dir_dd728b0af33b8140d4eaa461a35ccd09</title>
<path fill="none" stroke="#000000" d="M89.1312,-87.8314C95.5811,-79.5386 103.3445,-69.557 110.4252,-60.4533"/>
<polygon fill="#000000" stroke="#000000" points="113.3019,-62.4556 116.6786,-52.4133 107.7764,-58.158 113.3019,-62.4556"/>
<g id="a_edge2&#45;headlabel"><a xlink:href="dir_000004_000003.html" target="_top" xlink:title="29">
<text text-anchor="middle" x="113.3362" y="-65.1361" font-family="InputSans" font-size="8.00" fill="#000000">29</text>
</a>
</g>
</g>
<!-- dir_27b9c859e00b931579178a57b9026ce0 -->
<g id="node5" class="node">
<title>dir_27b9c859e00b931579178a57b9026ce0</title>
<g id="a_node5"><a xlink:href="dir_27b9c859e00b931579178a57b9026ce0.html" target="_top" xlink:title="assignment1&#45;src">
<polygon fill="#ffffff" stroke="#000000" points="200,-196 102,-196 102,-160 200,-160 200,-196"/>
<text text-anchor="middle" x="151" y="-176.1" font-family="InputSans" font-size="8.00" fill="#000000">assignment1&#45;src</text>
</a>
</g>
</g>
<!-- dir_27b9c859e00b931579178a57b9026ce0&#45;&gt;dir_c02768e2d179a771618cda9adcd780a4 -->
<g id="edge4" class="edge">
<title>dir_27b9c859e00b931579178a57b9026ce0&#45;&gt;dir_c02768e2d179a771618cda9adcd780a4</title>
<path fill="none" stroke="#000000" d="M145.2486,-159.6571C138.76,-140.6518 126.989,-110.6194 111,-88 103.6234,-77.5644 94.0053,-67.5301 84.7766,-59.0027"/>
<polygon fill="#000000" stroke="#000000" points="86.9656,-56.265 77.174,-52.2184 82.3049,-61.4879 86.9656,-56.265"/>
<g id="a_edge4&#45;headlabel"><a xlink:href="dir_000007_000001.html" target="_top" xlink:title="2">
<text text-anchor="middle" x="91.538" y="-54.6399" font-family="InputSans" font-size="8.00" fill="#000000">2</text>
</a>
</g>
</g>
<!-- dir_27b9c859e00b931579178a57b9026ce0&#45;&gt;dir_3837f82086fb34c6cbcca0cce4e41b75 -->
<g id="edge3" class="edge">
<title>dir_27b9c859e00b931579178a57b9026ce0&#45;&gt;dir_3837f82086fb34c6cbcca0cce4e41b75</title>
<path fill="none" stroke="#000000" d="M131.822,-159.8314C122.6412,-151.1337 111.4994,-140.5783 101.5224,-131.1265"/>
<polygon fill="#000000" stroke="#000000" points="103.8385,-128.4995 94.1719,-124.1628 99.0243,-133.5811 103.8385,-128.4995"/>
<g id="a_edge3&#45;headlabel"><a xlink:href="dir_000007_000004.html" target="_top" xlink:title="2">
<text text-anchor="middle" x="108.4007" y="-127.0104" font-family="InputSans" font-size="8.00" fill="#000000">2</text>
</a>
</g>
</g>
<!-- dir_27b9c859e00b931579178a57b9026ce0&#45;&gt;dir_dd728b0af33b8140d4eaa461a35ccd09 -->
<g id="edge5" class="edge">
<title>dir_27b9c859e00b931579178a57b9026ce0&#45;&gt;dir_dd728b0af33b8140d4eaa461a35ccd09</title>
<path fill="none" stroke="#000000" d="M151.1345,-159.9462C151.0047,-141.6856 150.0687,-112.7058 146,-88 144.5837,-79.3999 142.3219,-70.2067 139.9798,-61.8883"/>
<polygon fill="#000000" stroke="#000000" points="143.3286,-60.87 137.1346,-52.2744 136.6164,-62.8566 143.3286,-60.87"/>
<g id="a_edge5&#45;headlabel"><a xlink:href="dir_000007_000003.html" target="_top" xlink:title="5">
<text text-anchor="middle" x="147.0712" y="-61.6111" font-family="InputSans" font-size="8.00" fill="#000000">5</text>
</a>
</g>
</g>
<!-- dir_313cc4acf8c0488f64e506a073f8d622 -->
<g id="node6" class="node">
<title>dir_313cc4acf8c0488f64e506a073f8d622</title>
<g id="a_node6"><a xlink:href="dir_313cc4acf8c0488f64e506a073f8d622.html" target="_top" xlink:title="playground">
<polygon fill="#ffffff" stroke="#000000" points="84,-196 16,-196 16,-160 84,-160 84,-196"/>
<text text-anchor="middle" x="50" y="-176.1" font-family="InputSans" font-size="8.00" fill="#000000">playground</text>
</a>
</g>
</g>
<!-- dir_313cc4acf8c0488f64e506a073f8d622&#45;&gt;dir_c02768e2d179a771618cda9adcd780a4 -->
<g id="edge7" class="edge">
<title>dir_313cc4acf8c0488f64e506a073f8d622&#45;&gt;dir_c02768e2d179a771618cda9adcd780a4</title>
<path fill="none" stroke="#000000" d="M45.003,-159.7093C40.6817,-141.5114 35.6196,-112.7993 39,-88 40.1772,-79.3639 42.3671,-70.1599 44.717,-61.8427"/>
<polygon fill="#000000" stroke="#000000" points="48.078,-62.8195 47.6052,-52.2353 41.3743,-60.8042 48.078,-62.8195"/>
<g id="a_edge7&#45;headlabel"><a xlink:href="dir_000008_000001.html" target="_top" xlink:title="1">
<text text-anchor="middle" x="49.7622" y="-65.1794" font-family="InputSans" font-size="8.00" fill="#000000">1</text>
</a>
</g>
</g>
<!-- dir_313cc4acf8c0488f64e506a073f8d622&#45;&gt;dir_3837f82086fb34c6cbcca0cce4e41b75 -->
<g id="edge6" class="edge">
<title>dir_313cc4acf8c0488f64e506a073f8d622&#45;&gt;dir_3837f82086fb34c6cbcca0cce4e41b75</title>
<path fill="none" stroke="#000000" d="M56.3086,-159.8314C59.0117,-152.0463 62.2316,-142.7729 65.231,-134.1347"/>
<polygon fill="#000000" stroke="#000000" points="68.6327,-135.0081 68.6065,-124.4133 62.02,-132.7119 68.6327,-135.0081"/>
<g id="a_edge6&#45;headlabel"><a xlink:href="dir_000008_000004.html" target="_top" xlink:title="4">
<text text-anchor="middle" x="70.1359" y="-137.4351" font-family="InputSans" font-size="8.00" fill="#000000">4</text>
</a>
</g>
</g>
<!-- dir_313cc4acf8c0488f64e506a073f8d622&#45;&gt;dir_dd728b0af33b8140d4eaa461a35ccd09 -->
<g id="edge8" class="edge">
<title>dir_313cc4acf8c0488f64e506a073f8d622&#45;&gt;dir_dd728b0af33b8140d4eaa461a35ccd09</title>
<path fill="none" stroke="#000000" d="M77.304,-159.897C89.366,-150.5482 102.6715,-138.1356 111,-124 122.1229,-105.1215 127.0691,-80.6978 129.2638,-62.0576"/>
<polygon fill="#000000" stroke="#000000" points="132.7471,-62.3979 130.2429,-52.1033 125.7807,-61.7126 132.7471,-62.3979"/>
<g id="a_edge8&#45;headlabel"><a xlink:href="dir_000008_000003.html" target="_top" xlink:title="4">
<text text-anchor="middle" x="135.2209" y="-64.3532" font-family="InputSans" font-size="8.00" fill="#000000">4</text>
</a>
</g>
</g>
</g>
</svg>
