<?xml version="1.0" encoding="UTF-8" standalone="no"?>
<!DOCTYPE svg PUBLIC "-//W3C//DTD SVG 1.1//EN"
 "http://www.w3.org/Graphics/SVG/1.1/DTD/svg11.dtd">
<!-- Generated by graphviz version 2.40.1 (20161225.0304)
 -->
<!-- Title: /home/jacques/repos/math4171/src/assignment1&#45;src Pages: 1 -->
<svg width="152pt" height="221pt"
 viewBox="0.00 0.00 152.00 221.00" xmlns="http://www.w3.org/2000/svg" xmlns:xlink="http://www.w3.org/1999/xlink">
<g id="graph0" class="graph" transform="scale(1 1) rotate(0) translate(4 217)">
<title>/home/jacques/repos/math4171/src/assignment1&#45;src</title>
<g id="clust1" class="cluster">
<title>clusterdir_68267d1309a1af8e8297ef4c3efbcdba</title>
<g id="a_clust1"><a xlink:href="dir_68267d1309a1af8e8297ef4c3efbcdba.html" target="_top" xlink:title="src">
<polygon fill="#ddddee" stroke="#000000" points="10,-136 10,-205 124,-205 124,-136 10,-136"/>
<text text-anchor="middle" x="67" y="-194.6" font-family="InputSans" font-size="8.00" fill="#000000">src</text>
</a>
</g>
</g>
<!-- dir_27b9c859e00b931579178a57b9026ce0 -->
<g id="node1" class="node">
<title>dir_27b9c859e00b931579178a57b9026ce0</title>
<g id="a_node1"><a xlink:href="dir_27b9c859e00b931579178a57b9026ce0.html" target="_top" xlink:title="assignment1&#45;src">
<polygon fill="#eeeeff" stroke="#000000" points="116,-180 18,-180 18,-144 116,-144 116,-180"/>
<text text-anchor="middle" x="67" y="-160.1" font-family="InputSans" font-size="8.00" fill="#000000">assignment1&#45;src</text>
</a>
</g>
</g>
<!-- dir_3837f82086fb34c6cbcca0cce4e41b75 -->
<g id="node2" class="node">
<title>dir_3837f82086fb34c6cbcca0cce4e41b75</title>
<g id="a_node2"><a xlink:href="dir_3837f82086fb34c6cbcca0cce4e41b75.html" target="_top" xlink:title="arcplot">
<polygon fill="none" stroke="#ff0000" points="94,-108 40,-108 40,-72 94,-72 94,-108"/>
<text text-anchor="middle" x="67" y="-88.1" font-family="InputSans" font-size="8.00" fill="#000000">arcplot</text>
</a>
</g>
</g>
<!-- dir_27b9c859e00b931579178a57b9026ce0&#45;&gt;dir_3837f82086fb34c6cbcca0cce4e41b75 -->
<g id="edge3" class="edge">
<title>dir_27b9c859e00b931579178a57b9026ce0&#45;&gt;dir_3837f82086fb34c6cbcca0cce4e41b75</title>
<path fill="none" stroke="#000000" d="M67,-143.8314C67,-136.131 67,-126.9743 67,-118.4166"/>
<polygon fill="#000000" stroke="#000000" points="70.5001,-118.4132 67,-108.4133 63.5001,-118.4133 70.5001,-118.4132"/>
<g id="a_edge3&#45;headlabel"><a xlink:href="dir_000007_000004.html" target="_top" xlink:title="2">
<text text-anchor="middle" x="73.3393" y="-120.1079" font-family="InputSans" font-size="8.00" fill="#000000">2</text>
</a>
</g>
</g>
<!-- dir_c02768e2d179a771618cda9adcd780a4 -->
<g id="node3" class="node">
<title>dir_c02768e2d179a771618cda9adcd780a4</title>
<g id="a_node3"><a xlink:href="dir_c02768e2d179a771618cda9adcd780a4.html" target="_top" xlink:title="arcmath">
<polygon fill="none" stroke="#ff0000" points="56,-36 0,-36 0,0 56,0 56,-36"/>
<text text-anchor="middle" x="28" y="-16.1" font-family="InputSans" font-size="8.00" fill="#000000">arcmath</text>
</a>
</g>
</g>
<!-- dir_27b9c859e00b931579178a57b9026ce0&#45;&gt;dir_c02768e2d179a771618cda9adcd780a4 -->
<g id="edge4" class="edge">
<title>dir_27b9c859e00b931579178a57b9026ce0&#45;&gt;dir_c02768e2d179a771618cda9adcd780a4</title>
<path fill="none" stroke="#000000" d="M51.1892,-143.8609C43.575,-133.9657 35.202,-121.0882 31,-108 24.5981,-88.0601 24.0746,-64.3451 25.0305,-46.2655"/>
<polygon fill="#000000" stroke="#000000" points="28.5364,-46.3053 25.754,-36.0824 21.554,-45.8091 28.5364,-46.3053"/>
<g id="a_edge4&#45;headlabel"><a xlink:href="dir_000007_000001.html" target="_top" xlink:title="2">
<text text-anchor="middle" x="31.1138" y="-48.1921" font-family="InputSans" font-size="8.00" fill="#000000">2</text>
</a>
</g>
</g>
<!-- dir_dd728b0af33b8140d4eaa461a35ccd09 -->
<g id="node4" class="node">
<title>dir_dd728b0af33b8140d4eaa461a35ccd09</title>
<g id="a_node4"><a xlink:href="dir_dd728b0af33b8140d4eaa461a35ccd09.html" target="_top" xlink:title="arcpython">
<polygon fill="none" stroke="#000000" points="144,-36 82,-36 82,0 144,0 144,-36"/>
<text text-anchor="middle" x="113" y="-16.1" font-family="InputSans" font-size="8.00" fill="#000000">arcpython</text>
</a>
</g>
</g>
<!-- dir_27b9c859e00b931579178a57b9026ce0&#45;&gt;dir_dd728b0af33b8140d4eaa461a35ccd09 -->
<g id="edge5" class="edge">
<title>dir_27b9c859e00b931579178a57b9026ce0&#45;&gt;dir_dd728b0af33b8140d4eaa461a35ccd09</title>
<path fill="none" stroke="#000000" d="M82.3975,-143.7193C89.8986,-133.7854 98.2951,-120.9159 103,-108 110.208,-88.2124 112.6107,-64.4903 113.2633,-46.3693"/>
<polygon fill="#000000" stroke="#000000" points="116.7668,-46.2267 113.4698,-36.158 109.7683,-46.0852 116.7668,-46.2267"/>
<g id="a_edge5&#45;headlabel"><a xlink:href="dir_000007_000003.html" target="_top" xlink:title="5">
<text text-anchor="middle" x="119.533" y="-47.978" font-family="InputSans" font-size="8.00" fill="#000000">5</text>
</a>
</g>
</g>
<!-- dir_3837f82086fb34c6cbcca0cce4e41b75&#45;&gt;dir_c02768e2d179a771618cda9adcd780a4 -->
<g id="edge1" class="edge">
<title>dir_3837f82086fb34c6cbcca0cce4e41b75&#45;&gt;dir_c02768e2d179a771618cda9adcd780a4</title>
<path fill="none" stroke="#000000" d="M57.1587,-71.8314C52.8043,-63.7925 47.5902,-54.1666 42.7831,-45.2918"/>
<polygon fill="#000000" stroke="#000000" points="45.8143,-43.5392 37.9739,-36.4133 39.6592,-46.8732 45.8143,-43.5392"/>
<g id="a_edge1&#45;headlabel"><a xlink:href="dir_000004_000001.html" target="_top" xlink:title="4">
<text text-anchor="middle" x="50.0228" y="-43.4476" font-family="InputSans" font-size="8.00" fill="#000000">4</text>
</a>
</g>
</g>
<!-- dir_3837f82086fb34c6cbcca0cce4e41b75&#45;&gt;dir_dd728b0af33b8140d4eaa461a35ccd09 -->
<g id="edge2" class="edge">
<title>dir_3837f82086fb34c6cbcca0cce4e41b75&#45;&gt;dir_dd728b0af33b8140d4eaa461a35ccd09</title>
<path fill="none" stroke="#000000" d="M78.6077,-71.8314C83.7978,-63.7079 90.0232,-53.9637 95.7425,-45.0118"/>
<polygon fill="#000000" stroke="#000000" points="98.8015,-46.7246 101.236,-36.4133 92.9026,-42.9559 98.8015,-46.7246"/>
<g id="a_edge2&#45;headlabel"><a xlink:href="dir_000004_000003.html" target="_top" xlink:title="29">
<text text-anchor="middle" x="99.2589" y="-49.3824" font-family="InputSans" font-size="8.00" fill="#000000">29</text>
</a>
</g>
</g>
</g>
</svg>
