<?xml version="1.0" encoding="UTF-8" standalone="no"?>
<!DOCTYPE svg PUBLIC "-//W3C//DTD SVG 1.1//EN"
 "http://www.w3.org/Graphics/SVG/1.1/DTD/svg11.dtd">
<!-- Generated by graphviz version 2.40.1 (20161225.0304)
 -->
<!-- Title: /home/jacques/repos/math4171/src/assignment1&#45;src Pages: 1 -->
<svg width="149pt" height="221pt"
 viewBox="0.00 0.00 148.50 221.00" xmlns="http://www.w3.org/2000/svg" xmlns:xlink="http://www.w3.org/1999/xlink">
<g id="graph0" class="graph" transform="scale(1 1) rotate(0) translate(4 217)">
<title>/home/jacques/repos/math4171/src/assignment1&#45;src</title>
<g id="clust1" class="cluster">
<title>clusterdir_68267d1309a1af8e8297ef4c3efbcdba</title>
<g id="a_clust1"><a xlink:href="dir_68267d1309a1af8e8297ef4c3efbcdba.html" target="_top" xlink:title="src">
<polygon fill="#ddddee" stroke="#000000" points="14,-136 14,-205 116,-205 116,-136 14,-136"/>
<text text-anchor="middle" x="65" y="-194.6" font-family="InputSans" font-size="8.00" fill="#000000">src</text>
</a>
</g>
</g>
<!-- dir_27b9c859e00b931579178a57b9026ce0 -->
<g id="node1" class="node">
<title>dir_27b9c859e00b931579178a57b9026ce0</title>
<g id="a_node1"><a xlink:href="dir_27b9c859e00b931579178a57b9026ce0.html" target="_top" xlink:title="assignment1&#45;src">
<polygon fill="#eeeeff" stroke="#000000" points="108,-180 22,-180 22,-144 108,-144 108,-180"/>
<text text-anchor="middle" x="65" y="-160.1" font-family="InputSans" font-size="8.00" fill="#000000">assignment1&#45;src</text>
</a>
</g>
</g>
<!-- dir_3837f82086fb34c6cbcca0cce4e41b75 -->
<g id="node2" class="node">
<title>dir_3837f82086fb34c6cbcca0cce4e41b75</title>
<g id="a_node2"><a xlink:href="dir_3837f82086fb34c6cbcca0cce4e41b75.html" target="_top" xlink:title="arcplot">
<polygon fill="none" stroke="#ff0000" points="92,-108 38,-108 38,-72 92,-72 92,-108"/>
<text text-anchor="middle" x="65" y="-88.1" font-family="InputSans" font-size="8.00" fill="#000000">arcplot</text>
</a>
</g>
</g>
<!-- dir_27b9c859e00b931579178a57b9026ce0&#45;&gt;dir_3837f82086fb34c6cbcca0cce4e41b75 -->
<g id="edge3" class="edge">
<title>dir_27b9c859e00b931579178a57b9026ce0&#45;&gt;dir_3837f82086fb34c6cbcca0cce4e41b75</title>
<path fill="none" stroke="#000000" d="M65,-143.8314C65,-136.131 65,-126.9743 65,-118.4166"/>
<polygon fill="#000000" stroke="#000000" points="68.5001,-118.4132 65,-108.4133 61.5001,-118.4133 68.5001,-118.4132"/>
<g id="a_edge3&#45;headlabel"><a xlink:href="dir_000006_000004.html" target="_top" xlink:title="1">
<text text-anchor="middle" x="71.3393" y="-120.1079" font-family="InputSans" font-size="8.00" fill="#000000">1</text>
</a>
</g>
</g>
<!-- dir_c02768e2d179a771618cda9adcd780a4 -->
<g id="node3" class="node">
<title>dir_c02768e2d179a771618cda9adcd780a4</title>
<g id="a_node3"><a xlink:href="dir_c02768e2d179a771618cda9adcd780a4.html" target="_top" xlink:title="arcmath">
<polygon fill="none" stroke="#ff0000" points="54,-36 0,-36 0,0 54,0 54,-36"/>
<text text-anchor="middle" x="27" y="-16.1" font-family="InputSans" font-size="8.00" fill="#000000">arcmath</text>
</a>
</g>
</g>
<!-- dir_27b9c859e00b931579178a57b9026ce0&#45;&gt;dir_c02768e2d179a771618cda9adcd780a4 -->
<g id="edge4" class="edge">
<title>dir_27b9c859e00b931579178a57b9026ce0&#45;&gt;dir_c02768e2d179a771618cda9adcd780a4</title>
<path fill="none" stroke="#000000" d="M49.1294,-143.8799C41.4989,-133.9899 33.1293,-121.1113 29,-108 22.7109,-88.031 22.4559,-64.3173 23.6422,-46.2457"/>
<polygon fill="#000000" stroke="#000000" points="27.1477,-46.3263 24.4991,-36.0679 20.1724,-45.739 27.1477,-46.3263"/>
<g id="a_edge4&#45;headlabel"><a xlink:href="dir_000006_000001.html" target="_top" xlink:title="2">
<text text-anchor="middle" x="29.6755" y="-48.2464" font-family="InputSans" font-size="8.00" fill="#000000">2</text>
</a>
</g>
</g>
<!-- dir_dd728b0af33b8140d4eaa461a35ccd09 -->
<g id="node4" class="node">
<title>dir_dd728b0af33b8140d4eaa461a35ccd09</title>
<g id="a_node4"><a xlink:href="dir_dd728b0af33b8140d4eaa461a35ccd09.html" target="_top" xlink:title="arcpython">
<polygon fill="none" stroke="#000000" points="140.5,-36 81.5,-36 81.5,0 140.5,0 140.5,-36"/>
<text text-anchor="middle" x="111" y="-16.1" font-family="InputSans" font-size="8.00" fill="#000000">arcpython</text>
</a>
</g>
</g>
<!-- dir_27b9c859e00b931579178a57b9026ce0&#45;&gt;dir_dd728b0af33b8140d4eaa461a35ccd09 -->
<g id="edge5" class="edge">
<title>dir_27b9c859e00b931579178a57b9026ce0&#45;&gt;dir_dd728b0af33b8140d4eaa461a35ccd09</title>
<path fill="none" stroke="#000000" d="M80.3975,-143.7193C87.8986,-133.7854 96.2951,-120.9159 101,-108 108.208,-88.2124 110.6107,-64.4903 111.2633,-46.3693"/>
<polygon fill="#000000" stroke="#000000" points="114.7668,-46.2267 111.4698,-36.158 107.7683,-46.0852 114.7668,-46.2267"/>
<g id="a_edge5&#45;headlabel"><a xlink:href="dir_000006_000003.html" target="_top" xlink:title="5">
<text text-anchor="middle" x="117.533" y="-47.978" font-family="InputSans" font-size="8.00" fill="#000000">5</text>
</a>
</g>
</g>
<!-- dir_3837f82086fb34c6cbcca0cce4e41b75&#45;&gt;dir_c02768e2d179a771618cda9adcd780a4 -->
<g id="edge1" class="edge">
<title>dir_3837f82086fb34c6cbcca0cce4e41b75&#45;&gt;dir_c02768e2d179a771618cda9adcd780a4</title>
<path fill="none" stroke="#000000" d="M55.411,-71.8314C51.1683,-63.7925 46.0879,-54.1666 41.404,-45.2918"/>
<polygon fill="#000000" stroke="#000000" points="44.4811,-43.6235 36.7181,-36.4133 38.2904,-46.8908 44.4811,-43.6235"/>
<g id="a_edge1&#45;headlabel"><a xlink:href="dir_000004_000001.html" target="_top" xlink:title="1">
<text text-anchor="middle" x="48.6699" y="-43.5772" font-family="InputSans" font-size="8.00" fill="#000000">1</text>
</a>
</g>
</g>
<!-- dir_3837f82086fb34c6cbcca0cce4e41b75&#45;&gt;dir_dd728b0af33b8140d4eaa461a35ccd09 -->
<g id="edge2" class="edge">
<title>dir_3837f82086fb34c6cbcca0cce4e41b75&#45;&gt;dir_dd728b0af33b8140d4eaa461a35ccd09</title>
<path fill="none" stroke="#000000" d="M76.6077,-71.8314C81.7978,-63.7079 88.0232,-53.9637 93.7425,-45.0118"/>
<polygon fill="#000000" stroke="#000000" points="96.8015,-46.7246 99.236,-36.4133 90.9026,-42.9559 96.8015,-46.7246"/>
<g id="a_edge2&#45;headlabel"><a xlink:href="dir_000004_000003.html" target="_top" xlink:title="4">
<text text-anchor="middle" x="97.2589" y="-49.3824" font-family="InputSans" font-size="8.00" fill="#000000">4</text>
</a>
</g>
</g>
</g>
</svg>
