<?xml version="1.0" encoding="UTF-8" standalone="no"?>
<!DOCTYPE svg PUBLIC "-//W3C//DTD SVG 1.1//EN"
 "http://www.w3.org/Graphics/SVG/1.1/DTD/svg11.dtd">
<!-- Generated by graphviz version 2.40.1 (20161225.0304)
 -->
<!-- Title: Graph Legend Pages: 1 -->
<svg width="496pt" height="149pt"
 viewBox="0.00 0.00 496.00 149.00" xmlns="http://www.w3.org/2000/svg" xmlns:xlink="http://www.w3.org/1999/xlink">
<g id="graph0" class="graph" transform="scale(1 1) rotate(0) translate(4 145)">
<title>Graph Legend</title>
<!-- Node9 -->
<g id="node1" class="node">
<title>Node9</title>
<polygon fill="#bfbfbf" stroke="#000000" points="283,-17 229,-17 229,0 283,0 283,-17"/>
<text text-anchor="middle" x="256" y="-6.6" font-family="InputSans" font-size="8.00" fill="#000000">Inherited</text>
</g>
<!-- Node10 -->
<g id="node2" class="node">
<title>Node10</title>
<g id="a_node2"><a xlink:href="$classPublicBase.html" xlink:title="PublicBase">
<polygon fill="none" stroke="#000000" points="62,-79 0,-79 0,-62 62,-62 62,-79"/>
<text text-anchor="middle" x="31" y="-68.6" font-family="InputSans" font-size="8.00" fill="#000000">PublicBase</text>
</a>
</g>
</g>
<!-- Node10&#45;&gt;Node9 -->
<g id="edge1" class="edge">
<title>Node10&#45;&gt;Node9</title>
<path fill="none" stroke="#191970" d="M72.1411,-59.1633C117.705,-46.6079 189.8645,-26.724 228.8527,-15.9806"/>
<polygon fill="#191970" stroke="#191970" points="70.9962,-55.8483 62.2853,-61.8792 72.8558,-62.5968 70.9962,-55.8483"/>
</g>
<!-- Node11 -->
<g id="node3" class="node">
<title>Node11</title>
<g id="a_node3"><a xlink:href="$classTruncated.html" xlink:title="Truncated">
<polygon fill="none" stroke="#ff0000" points="60,-141 2,-141 2,-124 60,-124 60,-141"/>
<text text-anchor="middle" x="31" y="-130.6" font-family="InputSans" font-size="8.00" fill="#000000">Truncated</text>
</a>
</g>
</g>
<!-- Node11&#45;&gt;Node10 -->
<g id="edge2" class="edge">
<title>Node11&#45;&gt;Node10</title>
<path fill="none" stroke="#191970" d="M31,-113.5373C31,-102.0299 31,-87.9026 31,-79.0476"/>
<polygon fill="#191970" stroke="#191970" points="27.5001,-113.8791 31,-123.8792 34.5001,-113.8792 27.5001,-113.8791"/>
</g>
<!-- Node13 -->
<g id="node4" class="node">
<title>Node13</title>
<g id="a_node4"><a xlink:href="$classProtectedBase.html" xlink:title="ProtectedBase">
<polygon fill="none" stroke="#000000" points="158,-79 80,-79 80,-62 158,-62 158,-79"/>
<text text-anchor="middle" x="119" y="-68.6" font-family="InputSans" font-size="8.00" fill="#000000">ProtectedBase</text>
</a>
</g>
</g>
<!-- Node13&#45;&gt;Node9 -->
<g id="edge3" class="edge">
<title>Node13&#45;&gt;Node9</title>
<path fill="none" stroke="#006400" d="M147.3238,-57.6819C174.2133,-45.513 213.8771,-27.5629 237.1125,-17.0476"/>
<polygon fill="#006400" stroke="#006400" points="145.7167,-54.5674 138.0493,-61.8792 148.6028,-60.9448 145.7167,-54.5674"/>
</g>
<!-- Node14 -->
<g id="node5" class="node">
<title>Node14</title>
<g id="a_node5"><a xlink:href="$classPrivateBase.html" xlink:title="PrivateBase">
<polygon fill="none" stroke="#000000" points="244,-79 176,-79 176,-62 244,-62 244,-79"/>
<text text-anchor="middle" x="210" y="-68.6" font-family="InputSans" font-size="8.00" fill="#000000">PrivateBase</text>
</a>
</g>
</g>
<!-- Node14&#45;&gt;Node9 -->
<g id="edge4" class="edge">
<title>Node14&#45;&gt;Node9</title>
<path fill="none" stroke="#8b1a1a" d="M222.4925,-53.6623C231.2814,-41.8164 242.6778,-26.4561 249.6582,-17.0476"/>
<polygon fill="#8b1a1a" stroke="#8b1a1a" points="219.5438,-51.7627 216.3961,-61.8792 225.1655,-55.9336 219.5438,-51.7627"/>
</g>
<!-- Node15 -->
<g id="node6" class="node">
<title>Node15</title>
<polygon fill="none" stroke="#bfbfbf" points="342,-79 262,-79 262,-62 342,-62 342,-79"/>
<text text-anchor="middle" x="302" y="-68.6" font-family="InputSans" font-size="8.00" fill="#000000">Undocumented</text>
</g>
<!-- Node15&#45;&gt;Node9 -->
<g id="edge5" class="edge">
<title>Node15&#45;&gt;Node9</title>
<path fill="none" stroke="#191970" d="M289.5075,-53.6623C280.7186,-41.8164 269.3222,-26.4561 262.3418,-17.0476"/>
<polygon fill="#191970" stroke="#191970" points="286.8345,-55.9336 295.6039,-61.8792 292.4562,-51.7627 286.8345,-55.9336"/>
</g>
<!-- Node16 -->
<g id="node7" class="node">
<title>Node16</title>
<g id="a_node7"><a xlink:href="$classTempl.html" xlink:title="Templ&lt; int &gt;">
<polygon fill="none" stroke="#000000" points="431.5,-79 360.5,-79 360.5,-62 431.5,-62 431.5,-79"/>
<text text-anchor="middle" x="396" y="-68.6" font-family="InputSans" font-size="8.00" fill="#000000">Templ&lt; int &gt;</text>
</a>
</g>
</g>
<!-- Node16&#45;&gt;Node9 -->
<g id="edge6" class="edge">
<title>Node16&#45;&gt;Node9</title>
<path fill="none" stroke="#191970" d="M367.0559,-57.6819C339.5777,-45.513 299.0453,-27.5629 275.3011,-17.0476"/>
<polygon fill="#191970" stroke="#191970" points="365.9728,-61.0301 376.5336,-61.8792 368.8074,-54.6296 365.9728,-61.0301"/>
</g>
<!-- Node17 -->
<g id="node8" class="node">
<title>Node17</title>
<g id="a_node8"><a xlink:href="$classTempl.html" xlink:title="Templ&lt; T &gt;">
<polygon fill="none" stroke="#000000" points="429,-141 363,-141 363,-124 429,-124 429,-141"/>
<text text-anchor="middle" x="396" y="-130.6" font-family="InputSans" font-size="8.00" fill="#000000">Templ&lt; T &gt;</text>
</a>
</g>
</g>
<!-- Node17&#45;&gt;Node16 -->
<g id="edge7" class="edge">
<title>Node17&#45;&gt;Node16</title>
<path fill="none" stroke="#ffa500" stroke-dasharray="5,2" d="M396,-113.5373C396,-102.0299 396,-87.9026 396,-79.0476"/>
<polygon fill="#ffa500" stroke="#ffa500" points="392.5001,-113.8791 396,-123.8792 399.5001,-113.8792 392.5001,-113.8791"/>
<text text-anchor="middle" x="411.5" y="-99.6" font-family="InputSans" font-size="8.00" fill="#000000">&lt; int &gt;</text>
</g>
<!-- Node18 -->
<g id="node9" class="node">
<title>Node18</title>
<g id="a_node9"><a xlink:href="$classUsed.html" xlink:title="Used">
<polygon fill="none" stroke="#000000" points="488,-79 450,-79 450,-62 488,-62 488,-79"/>
<text text-anchor="middle" x="469" y="-68.6" font-family="InputSans" font-size="8.00" fill="#000000">Used</text>
</a>
</g>
</g>
<!-- Node18&#45;&gt;Node9 -->
<g id="edge8" class="edge">
<title>Node18&#45;&gt;Node9</title>
<path fill="none" stroke="#9a32cd" stroke-dasharray="5,2" d="M439.8751,-61.6938C378.4723,-43.531 317.5918,-26.0629 283.3038,-16.2739"/>
<polygon fill="#9a32cd" stroke="#9a32cd" points="439.1481,-65.1288 449.7304,-64.6138 441.1366,-58.4171 439.1481,-65.1288"/>
<text text-anchor="middle" x="402" y="-37.6" font-family="InputSans" font-size="8.00" fill="#000000">m_usedClass</text>
</g>
</g>
</svg>
