<?xml version="1.0" encoding="UTF-8" standalone="no"?>
<!DOCTYPE svg PUBLIC "-//W3C//DTD SVG 1.1//EN"
 "http://www.w3.org/Graphics/SVG/1.1/DTD/svg11.dtd">
<!-- Generated by graphviz version 2.40.1 (20161225.0304)
 -->
<!-- Title: Graph Legend Pages: 1 -->
<svg width="524pt" height="149pt"
 viewBox="0.00 0.00 524.00 149.00" xmlns="http://www.w3.org/2000/svg" xmlns:xlink="http://www.w3.org/1999/xlink">
<g id="graph0" class="graph" transform="scale(1 1) rotate(0) translate(4 145)">
<title>Graph Legend</title>
<!-- Node9 -->
<g id="node1" class="node">
<title>Node9</title>
<polygon fill="#bfbfbf" stroke="#000000" points="303.5,-17 242.5,-17 242.5,0 303.5,0 303.5,-17"/>
<text text-anchor="middle" x="273" y="-6.6" font-family="InputSans" font-size="8.00" fill="#000000">Inherited</text>
</g>
<!-- Node10 -->
<g id="node2" class="node">
<title>Node10</title>
<g id="a_node2"><a xlink:href="$classPublicBase.html" xlink:title="PublicBase">
<polygon fill="none" stroke="#000000" points="68,-79 0,-79 0,-62 68,-62 68,-79"/>
<text text-anchor="middle" x="34" y="-68.6" font-family="InputSans" font-size="8.00" fill="#000000">PublicBase</text>
</a>
</g>
</g>
<!-- Node10&#45;&gt;Node9 -->
<g id="edge1" class="edge">
<title>Node10&#45;&gt;Node9</title>
<path fill="none" stroke="#191970" d="M76.9519,-59.3577C124.6008,-46.9969 200.2894,-27.3622 242.3204,-16.4587"/>
<polygon fill="#191970" stroke="#191970" points="76.0326,-55.9802 67.2319,-61.8792 77.7904,-62.7559 76.0326,-55.9802"/>
</g>
<!-- Node11 -->
<g id="node3" class="node">
<title>Node11</title>
<g id="a_node3"><a xlink:href="$classTruncated.html" xlink:title="Truncated">
<polygon fill="none" stroke="#ff0000" points="65.5,-141 2.5,-141 2.5,-124 65.5,-124 65.5,-141"/>
<text text-anchor="middle" x="34" y="-130.6" font-family="InputSans" font-size="8.00" fill="#000000">Truncated</text>
</a>
</g>
</g>
<!-- Node11&#45;&gt;Node10 -->
<g id="edge2" class="edge">
<title>Node11&#45;&gt;Node10</title>
<path fill="none" stroke="#191970" d="M34,-113.5373C34,-102.0299 34,-87.9026 34,-79.0476"/>
<polygon fill="#191970" stroke="#191970" points="30.5001,-113.8791 34,-123.8792 37.5001,-113.8792 30.5001,-113.8791"/>
</g>
<!-- Node13 -->
<g id="node4" class="node">
<title>Node13</title>
<g id="a_node4"><a xlink:href="$classProtectedBase.html" xlink:title="ProtectedBase">
<polygon fill="none" stroke="#000000" points="170,-79 86,-79 86,-62 170,-62 170,-79"/>
<text text-anchor="middle" x="128" y="-68.6" font-family="InputSans" font-size="8.00" fill="#000000">ProtectedBase</text>
</a>
</g>
</g>
<!-- Node13&#45;&gt;Node9 -->
<g id="edge3" class="edge">
<title>Node13&#45;&gt;Node9</title>
<path fill="none" stroke="#006400" d="M157.6041,-57.8417C186.0688,-45.6706 228.3095,-27.6091 253.0096,-17.0476"/>
<polygon fill="#006400" stroke="#006400" points="155.9803,-54.7294 148.1616,-61.8792 158.7324,-61.1657 155.9803,-54.7294"/>
</g>
<!-- Node14 -->
<g id="node5" class="node">
<title>Node14</title>
<g id="a_node5"><a xlink:href="$classPrivateBase.html" xlink:title="PrivateBase">
<polygon fill="none" stroke="#000000" points="261.5,-79 188.5,-79 188.5,-62 261.5,-62 261.5,-79"/>
<text text-anchor="middle" x="225" y="-68.6" font-family="InputSans" font-size="8.00" fill="#000000">PrivateBase</text>
</a>
</g>
</g>
<!-- Node14&#45;&gt;Node9 -->
<g id="edge4" class="edge">
<title>Node14&#45;&gt;Node9</title>
<path fill="none" stroke="#8b1a1a" d="M238.0356,-53.6623C247.2067,-41.8164 259.0985,-26.4561 266.3825,-17.0476"/>
<polygon fill="#8b1a1a" stroke="#8b1a1a" points="235.0284,-51.8293 231.6742,-61.8792 240.5635,-56.1145 235.0284,-51.8293"/>
</g>
<!-- Node15 -->
<g id="node6" class="node">
<title>Node15</title>
<polygon fill="none" stroke="#bfbfbf" points="362,-79 280,-79 280,-62 362,-62 362,-79"/>
<text text-anchor="middle" x="321" y="-68.6" font-family="InputSans" font-size="8.00" fill="#000000">Undocumented</text>
</g>
<!-- Node15&#45;&gt;Node9 -->
<g id="edge5" class="edge">
<title>Node15&#45;&gt;Node9</title>
<path fill="none" stroke="#191970" d="M307.9644,-53.6623C298.7933,-41.8164 286.9015,-26.4561 279.6175,-17.0476"/>
<polygon fill="#191970" stroke="#191970" points="305.4365,-56.1145 314.3258,-61.8792 310.9716,-51.8293 305.4365,-56.1145"/>
</g>
<!-- Node16 -->
<g id="node7" class="node">
<title>Node16</title>
<g id="a_node7"><a xlink:href="$classTempl.html" xlink:title="Templ&lt; int &gt;">
<polygon fill="none" stroke="#000000" points="460,-79 380,-79 380,-62 460,-62 460,-79"/>
<text text-anchor="middle" x="420" y="-68.6" font-family="InputSans" font-size="8.00" fill="#000000">Templ&lt; int &gt;</text>
</a>
</g>
</g>
<!-- Node16&#45;&gt;Node9 -->
<g id="edge6" class="edge">
<title>Node16&#45;&gt;Node9</title>
<path fill="none" stroke="#191970" d="M389.9876,-57.8417C361.1302,-45.6706 318.3069,-27.6091 293.2661,-17.0476"/>
<polygon fill="#191970" stroke="#191970" points="388.9861,-61.2178 399.5603,-61.8792 391.7065,-54.768 388.9861,-61.2178"/>
</g>
<!-- Node17 -->
<g id="node8" class="node">
<title>Node17</title>
<g id="a_node8"><a xlink:href="$classTempl.html" xlink:title="Templ&lt; T &gt;">
<polygon fill="none" stroke="#000000" points="455.5,-141 384.5,-141 384.5,-124 455.5,-124 455.5,-141"/>
<text text-anchor="middle" x="420" y="-130.6" font-family="InputSans" font-size="8.00" fill="#000000">Templ&lt; T &gt;</text>
</a>
</g>
</g>
<!-- Node17&#45;&gt;Node16 -->
<g id="edge7" class="edge">
<title>Node17&#45;&gt;Node16</title>
<path fill="none" stroke="#ffa500" stroke-dasharray="5,2" d="M420,-113.5373C420,-102.0299 420,-87.9026 420,-79.0476"/>
<polygon fill="#ffa500" stroke="#ffa500" points="416.5001,-113.8791 420,-123.8792 423.5001,-113.8792 416.5001,-113.8791"/>
<text text-anchor="middle" x="438.5" y="-99.6" font-family="InputSans" font-size="8.00" fill="#000000">&lt; int &gt;</text>
</g>
<!-- Node18 -->
<g id="node9" class="node">
<title>Node18</title>
<g id="a_node9"><a xlink:href="$classUsed.html" xlink:title="Used">
<polygon fill="none" stroke="#000000" points="516,-79 478,-79 478,-62 516,-62 516,-79"/>
<text text-anchor="middle" x="497" y="-68.6" font-family="InputSans" font-size="8.00" fill="#000000">Used</text>
</a>
</g>
</g>
<!-- Node18&#45;&gt;Node9 -->
<g id="edge8" class="edge">
<title>Node18&#45;&gt;Node9</title>
<path fill="none" stroke="#9a32cd" stroke-dasharray="5,2" d="M467.9152,-61.7452C404.0914,-43.4238 340.3791,-26.323 303.6295,-16.5736"/>
<polygon fill="#9a32cd" stroke="#9a32cd" points="467.1634,-65.1709 477.7415,-64.5756 469.101,-58.4444 467.1634,-65.1709"/>
<text text-anchor="middle" x="435" y="-37.6" font-family="InputSans" font-size="8.00" fill="#000000">m_usedClass</text>
</g>
</g>
</svg>
