<?xml version="1.0" encoding="UTF-8" standalone="no"?>
<!DOCTYPE svg PUBLIC "-//W3C//DTD SVG 1.1//EN"
 "http://www.w3.org/Graphics/SVG/1.1/DTD/svg11.dtd">
<!-- Generated by graphviz version 2.40.1 (20161225.0304)
 -->
<!-- Title: Graphical Class Hierarchy Pages: 1 -->
<svg width="236pt" height="170pt"
 viewBox="0.00 0.00 236.00 170.00" xmlns="http://www.w3.org/2000/svg" xmlns:xlink="http://www.w3.org/1999/xlink">
<g id="graph0" class="graph" transform="scale(1 1) rotate(0) translate(4 166)">
<title>Graphical Class Hierarchy</title>
<!-- Node0 -->
<g id="node1" class="node">
<title>Node0</title>
<g id="a_node1"><a xlink:href="classarc_1_1_python_object.html" target="_top" xlink:title="arc::PythonObject">
<polygon fill="none" stroke="#000000" points="0,-72.5 0,-89.5 92,-89.5 92,-72.5 0,-72.5"/>
<text text-anchor="middle" x="46" y="-79.1" font-family="InputSans" font-size="8.00" fill="#000000">arc::PythonObject</text>
</a>
</g>
</g>
<!-- Node1 -->
<g id="node2" class="node">
<title>Node1</title>
<g id="a_node2"><a xlink:href="classarc_1_1_python_float.html" target="_top" xlink:title="arc::PythonFloat">
<polygon fill="none" stroke="#000000" points="135,-144.5 135,-161.5 221,-161.5 221,-144.5 135,-144.5"/>
<text text-anchor="middle" x="178" y="-151.1" font-family="InputSans" font-size="8.00" fill="#000000">arc::PythonFloat</text>
</a>
</g>
</g>
<!-- Node0&#45;&gt;Node1 -->
<g id="edge1" class="edge">
<title>Node0&#45;&gt;Node1</title>
<path fill="none" stroke="#191970" d="M65.2595,-95.577C81.3961,-107.3164 105.3629,-123.6728 128,-135 135.0956,-138.5505 143.0665,-141.7469 150.5239,-144.4264"/>
<polygon fill="#191970" stroke="#191970" points="67.2811,-92.719 57.1584,-89.5913 63.1213,-98.3489 67.2811,-92.719"/>
</g>
<!-- Node2 -->
<g id="node3" class="node">
<title>Node2</title>
<g id="a_node3"><a xlink:href="classarc_1_1_python_function.html" target="_top" xlink:title="arc::PythonFunction">
<polygon fill="none" stroke="#000000" points="128,-108.5 128,-125.5 228,-125.5 228,-108.5 128,-108.5"/>
<text text-anchor="middle" x="178" y="-115.1" font-family="InputSans" font-size="8.00" fill="#000000">arc::PythonFunction</text>
</a>
</g>
</g>
<!-- Node0&#45;&gt;Node2 -->
<g id="edge2" class="edge">
<title>Node0&#45;&gt;Node2</title>
<path fill="none" stroke="#8b1a1a" d="M86.971,-92.1739C106.1569,-97.4064 128.6555,-103.5424 146.4849,-108.405"/>
<polygon fill="#8b1a1a" stroke="#8b1a1a" points="87.8507,-88.7861 77.2822,-89.5315 86.0089,-95.5394 87.8507,-88.7861"/>
</g>
<!-- Node3 -->
<g id="node4" class="node">
<title>Node3</title>
<g id="a_node4"><a xlink:href="classarc_1_1_python_list.html" target="_top" xlink:title="arc::PythonList">
<polygon fill="none" stroke="#000000" points="138,-72.5 138,-89.5 218,-89.5 218,-72.5 138,-72.5"/>
<text text-anchor="middle" x="178" y="-79.1" font-family="InputSans" font-size="8.00" fill="#000000">arc::PythonList</text>
</a>
</g>
</g>
<!-- Node0&#45;&gt;Node3 -->
<g id="edge3" class="edge">
<title>Node0&#45;&gt;Node3</title>
<path fill="none" stroke="#191970" d="M102.4617,-81C114.3449,-81 126.6496,-81 137.7907,-81"/>
<polygon fill="#191970" stroke="#191970" points="102.1672,-77.5001 92.1672,-81 102.1672,-84.5001 102.1672,-77.5001"/>
</g>
<!-- Node4 -->
<g id="node5" class="node">
<title>Node4</title>
<g id="a_node5"><a xlink:href="classarc_1_1_python_module.html" target="_top" xlink:title="arc::PythonModule">
<polygon fill="none" stroke="#000000" points="130.5,-36.5 130.5,-53.5 225.5,-53.5 225.5,-36.5 130.5,-36.5"/>
<text text-anchor="middle" x="178" y="-43.1" font-family="InputSans" font-size="8.00" fill="#000000">arc::PythonModule</text>
</a>
</g>
</g>
<!-- Node0&#45;&gt;Node4 -->
<g id="edge4" class="edge">
<title>Node0&#45;&gt;Node4</title>
<path fill="none" stroke="#191970" d="M86.971,-69.8261C106.1569,-64.5936 128.6555,-58.4576 146.4849,-53.595"/>
<polygon fill="#191970" stroke="#191970" points="86.0089,-66.4606 77.2822,-72.4685 87.8507,-73.2139 86.0089,-66.4606"/>
</g>
<!-- Node5 -->
<g id="node6" class="node">
<title>Node5</title>
<g id="a_node6"><a xlink:href="classarc_1_1_python_tupple.html" target="_top" xlink:title="arc::PythonTupple">
<polygon fill="none" stroke="#000000" points="132,-.5 132,-17.5 224,-17.5 224,-.5 132,-.5"/>
<text text-anchor="middle" x="178" y="-7.1" font-family="InputSans" font-size="8.00" fill="#000000">arc::PythonTupple</text>
</a>
</g>
</g>
<!-- Node0&#45;&gt;Node5 -->
<g id="edge5" class="edge">
<title>Node0&#45;&gt;Node5</title>
<path fill="none" stroke="#191970" d="M65.2595,-66.423C81.3961,-54.6836 105.3629,-38.3272 128,-27 135.0956,-23.4495 143.0665,-20.2531 150.5239,-17.5736"/>
<polygon fill="#191970" stroke="#191970" points="63.1213,-63.6511 57.1584,-72.4087 67.2811,-69.281 63.1213,-63.6511"/>
</g>
</g>
</svg>
