<?xml version="1.0" encoding="UTF-8" standalone="no"?>
<!DOCTYPE svg PUBLIC "-//W3C//DTD SVG 1.1//EN"
 "http://www.w3.org/Graphics/SVG/1.1/DTD/svg11.dtd">
<!-- Generated by graphviz version 2.40.1 (20161225.0304)
 -->
<!-- Title: Graphical Class Hierarchy Pages: 1 -->
<svg width="340pt" height="206pt"
 viewBox="0.00 0.00 340.00 206.00" xmlns="http://www.w3.org/2000/svg" xmlns:xlink="http://www.w3.org/1999/xlink">
<g id="graph0" class="graph" transform="scale(1 1) rotate(0) translate(4 202)">
<title>Graphical Class Hierarchy</title>
<!-- Node0 -->
<g id="node1" class="node">
<title>Node0</title>
<g id="a_node1"><a xlink:href="classarc_1_1python_1_1_python_object.html" target="_top" xlink:title="arc::python::PythonObject">
<polygon fill="none" stroke="#000000" points="0,-90.5 0,-107.5 143,-107.5 143,-90.5 0,-90.5"/>
<text text-anchor="middle" x="71.5" y="-97.1" font-family="InputSans" font-size="8.00" fill="#000000">arc::python::PythonObject</text>
</a>
</g>
</g>
<!-- Node1 -->
<g id="node2" class="node">
<title>Node1</title>
<g id="a_node2"><a xlink:href="classarc_1_1python_1_1_python_float.html" target="_top" xlink:title="arc::python::PythonFloat">
<polygon fill="none" stroke="#000000" points="186.5,-180.5 186.5,-197.5 324.5,-197.5 324.5,-180.5 186.5,-180.5"/>
<text text-anchor="middle" x="255.5" y="-187.1" font-family="InputSans" font-size="8.00" fill="#000000">arc::python::PythonFloat</text>
</a>
</g>
</g>
<!-- Node0&#45;&gt;Node1 -->
<g id="edge1" class="edge">
<title>Node0&#45;&gt;Node1</title>
<path fill="none" stroke="#191970" d="M89.5723,-114.1057C110.0247,-130.455 144.9405,-156.1716 179,-171 187.8819,-174.8669 197.7215,-177.9734 207.3044,-180.4439"/>
<polygon fill="#191970" stroke="#191970" points="91.7032,-111.3273 81.7372,-107.7314 87.2855,-116.7573 91.7032,-111.3273"/>
</g>
<!-- Node2 -->
<g id="node3" class="node">
<title>Node2</title>
<g id="a_node3"><a xlink:href="classarc_1_1python_1_1_python_function.html" target="_top" xlink:title="arc::python::PythonFunction">
<polygon fill="none" stroke="#000000" points="179,-144.5 179,-161.5 332,-161.5 332,-144.5 179,-144.5"/>
<text text-anchor="middle" x="255.5" y="-151.1" font-family="InputSans" font-size="8.00" fill="#000000">arc::python::PythonFunction</text>
</a>
</g>
</g>
<!-- Node0&#45;&gt;Node2 -->
<g id="edge2" class="edge">
<title>Node0&#45;&gt;Node2</title>
<path fill="none" stroke="#8b1a1a" d="M104.6911,-110.9952C125.8127,-118.409 153.8321,-127.8413 179,-135 190.9423,-138.3968 204.0608,-141.6532 216.0102,-144.4397"/>
<polygon fill="#8b1a1a" stroke="#8b1a1a" points="105.8084,-107.678 95.2136,-107.6417 103.4733,-114.2771 105.8084,-107.678"/>
</g>
<!-- Node3 -->
<g id="node4" class="node">
<title>Node3</title>
<g id="a_node4"><a xlink:href="classarc_1_1python_1_1_python_list.html" target="_top" xlink:title="arc::python::PythonList">
<polygon fill="none" stroke="#000000" points="190,-108.5 190,-125.5 321,-125.5 321,-108.5 190,-108.5"/>
<text text-anchor="middle" x="255.5" y="-115.1" font-family="InputSans" font-size="8.00" fill="#000000">arc::python::PythonList</text>
</a>
</g>
</g>
<!-- Node0&#45;&gt;Node3 -->
<g id="edge3" class="edge">
<title>Node0&#45;&gt;Node3</title>
<path fill="none" stroke="#191970" d="M153.3264,-107.0048C165.5121,-108.1968 177.939,-109.4125 189.7375,-110.5667"/>
<polygon fill="#191970" stroke="#191970" points="153.4594,-103.5011 143.1661,-106.0108 152.7778,-110.4679 153.4594,-103.5011"/>
</g>
<!-- Node4 -->
<g id="node5" class="node">
<title>Node4</title>
<g id="a_node5"><a xlink:href="classarc_1_1python_1_1_python_module.html" target="_top" xlink:title="arc::python::PythonModule">
<polygon fill="none" stroke="#000000" points="183,-72.5 183,-89.5 328,-89.5 328,-72.5 183,-72.5"/>
<text text-anchor="middle" x="255.5" y="-79.1" font-family="InputSans" font-size="8.00" fill="#000000">arc::python::PythonModule</text>
</a>
</g>
</g>
<!-- Node0&#45;&gt;Node4 -->
<g id="edge4" class="edge">
<title>Node0&#45;&gt;Node4</title>
<path fill="none" stroke="#191970" d="M153.3288,-90.995C163.1536,-90.0339 173.135,-89.0574 182.8175,-88.1102"/>
<polygon fill="#191970" stroke="#191970" points="152.7778,-87.5321 143.1661,-91.9892 153.4594,-94.4989 152.7778,-87.5321"/>
</g>
<!-- Node5 -->
<g id="node6" class="node">
<title>Node5</title>
<g id="a_node6"><a xlink:href="classarc_1_1python_1_1_python_string.html" target="_top" xlink:title="arc::python::PythonString">
<polygon fill="none" stroke="#000000" points="184,-36.5 184,-53.5 327,-53.5 327,-36.5 184,-36.5"/>
<text text-anchor="middle" x="255.5" y="-43.1" font-family="InputSans" font-size="8.00" fill="#000000">arc::python::PythonString</text>
</a>
</g>
</g>
<!-- Node0&#45;&gt;Node5 -->
<g id="edge5" class="edge">
<title>Node0&#45;&gt;Node5</title>
<path fill="none" stroke="#191970" d="M104.6911,-87.0048C125.8127,-79.591 153.8321,-70.1587 179,-63 190.9423,-59.6032 204.0608,-56.3468 216.0102,-53.5603"/>
<polygon fill="#191970" stroke="#191970" points="103.4733,-83.7229 95.2136,-90.3583 105.8084,-90.322 103.4733,-83.7229"/>
</g>
<!-- Node6 -->
<g id="node7" class="node">
<title>Node6</title>
<g id="a_node7"><a xlink:href="classarc_1_1python_1_1_python_tuple.html" target="_top" xlink:title="arc::python::PythonTuple">
<polygon fill="none" stroke="#000000" points="186.5,-.5 186.5,-17.5 324.5,-17.5 324.5,-.5 186.5,-.5"/>
<text text-anchor="middle" x="255.5" y="-7.1" font-family="InputSans" font-size="8.00" fill="#000000">arc::python::PythonTuple</text>
</a>
</g>
</g>
<!-- Node0&#45;&gt;Node6 -->
<g id="edge6" class="edge">
<title>Node0&#45;&gt;Node6</title>
<path fill="none" stroke="#191970" d="M89.5723,-83.8943C110.0247,-67.545 144.9405,-41.8284 179,-27 187.8819,-23.1331 197.7215,-20.0266 207.3044,-17.5561"/>
<polygon fill="#191970" stroke="#191970" points="87.2855,-81.2427 81.7372,-90.2686 91.7032,-86.6727 87.2855,-81.2427"/>
</g>
</g>
</svg>
