<?xml version="1.0" encoding="UTF-8" standalone="no"?>
<!DOCTYPE svg PUBLIC "-//W3C//DTD SVG 1.1//EN"
 "http://www.w3.org/Graphics/SVG/1.1/DTD/svg11.dtd">
<!-- Generated by graphviz version 2.40.1 (20161225.0304)
 -->
<!-- Title: Graphical Class Hierarchy Pages: 1 -->
<svg width="375pt" height="80pt"
 viewBox="0.00 0.00 375.00 80.00" xmlns="http://www.w3.org/2000/svg" xmlns:xlink="http://www.w3.org/1999/xlink">
<g id="graph0" class="graph" transform="scale(1 1) rotate(0) translate(4 76)">
<title>Graphical Class Hierarchy</title>
<!-- Node0 -->
<g id="node1" class="node">
<title>Node0</title>
<g id="a_node1"><a xlink:href="structarc_1_1details_1_1rule__is__greater__than__4.html" target="_top" xlink:title="arc::details::rule\l_is_greater_than_4\&lt;\l(M \&gt; 4)\&gt;">
<polygon fill="none" stroke="#000000" points="0,-18 0,-53 104,-53 104,-18 0,-18"/>
<text text-anchor="start" x="8" y="-42.6" font-family="InputSans" font-size="8.00" fill="#000000">arc::details::rule</text>
<text text-anchor="start" x="8" y="-33.6" font-family="InputSans" font-size="8.00" fill="#000000">_is_greater_than_4&lt;</text>
<text text-anchor="middle" x="52" y="-24.6" font-family="InputSans" font-size="8.00" fill="#000000">(M &gt; 4)&gt;</text>
</a>
</g>
</g>
<!-- Node1 -->
<g id="node2" class="node">
<title>Node1</title>
<g id="a_node2"><a xlink:href="classarc_1_1details_1_1inner__storage.html" target="_top" xlink:title="arc::details::inner\l_storage\&lt; T, N, M \&gt;">
<polygon fill="none" stroke="#000000" points="140,-45.5 140,-71.5 243,-71.5 243,-45.5 140,-45.5"/>
<text text-anchor="start" x="148" y="-61.1" font-family="InputSans" font-size="8.00" fill="#000000">arc::details::inner</text>
<text text-anchor="middle" x="191.5" y="-52.1" font-family="InputSans" font-size="8.00" fill="#000000">_storage&lt; T, N, M &gt;</text>
</a>
</g>
</g>
<!-- Node0&#45;&gt;Node1 -->
<g id="edge1" class="edge">
<title>Node0&#45;&gt;Node1</title>
<path fill="none" stroke="#8b1a1a" d="M114.258,-45.7648C122.7911,-47.1716 131.4754,-48.6035 139.7923,-49.9747"/>
<polygon fill="#8b1a1a" stroke="#8b1a1a" points="114.7777,-42.3033 104.3415,-44.1298 113.6389,-49.21 114.7777,-42.3033"/>
</g>
<!-- Node2 -->
<g id="node3" class="node">
<title>Node2</title>
<g id="a_node3"><a xlink:href="classarc_1_1details_1_1inner__storage.html" target="_top" xlink:title="arc::details::inner\l_storage\&lt; T, N, N \&gt;">
<polygon fill="none" stroke="#000000" points="140.5,-.5 140.5,-26.5 242.5,-26.5 242.5,-.5 140.5,-.5"/>
<text text-anchor="start" x="148.5" y="-16.1" font-family="InputSans" font-size="8.00" fill="#000000">arc::details::inner</text>
<text text-anchor="middle" x="191.5" y="-7.1" font-family="InputSans" font-size="8.00" fill="#000000">_storage&lt; T, N, N &gt;</text>
</a>
</g>
</g>
<!-- Node0&#45;&gt;Node2 -->
<g id="edge2" class="edge">
<title>Node0&#45;&gt;Node2</title>
<path fill="none" stroke="#8b1a1a" d="M114.3916,-25.6605C123.04,-24.2966 131.841,-22.9086 140.2548,-21.5817"/>
<polygon fill="#8b1a1a" stroke="#8b1a1a" points="113.6742,-22.2303 104.3415,-27.2454 114.7647,-29.1448 113.6742,-22.2303"/>
</g>
<!-- Node3 -->
<g id="node4" class="node">
<title>Node3</title>
<g id="a_node4"><a xlink:href="classarc_1_1_vec.html" target="_top" xlink:title="&lt;#description#&gt; ">
<polygon fill="none" stroke="#000000" points="279,-5 279,-22 367,-22 367,-5 279,-5"/>
<text text-anchor="middle" x="323" y="-11.6" font-family="InputSans" font-size="8.00" fill="#000000">arc::Vec&lt; T, N &gt;</text>
</a>
</g>
</g>
<!-- Node2&#45;&gt;Node3 -->
<g id="edge3" class="edge">
<title>Node2&#45;&gt;Node3</title>
<path fill="none" stroke="#191970" d="M252.9413,-13.5C261.7226,-13.5 270.6068,-13.5 278.9638,-13.5"/>
<polygon fill="#191970" stroke="#191970" points="252.7179,-10.0001 242.7179,-13.5 252.7178,-17.0001 252.7179,-10.0001"/>
</g>
</g>
</svg>
