<?xml version="1.0" encoding="UTF-8" standalone="no"?>
<!DOCTYPE svg PUBLIC "-//W3C//DTD SVG 1.1//EN"
 "http://www.w3.org/Graphics/SVG/1.1/DTD/svg11.dtd">
<!-- Generated by graphviz version 2.40.1 (20161225.0304)
 -->
<!-- Title: Graphical Class Hierarchy Pages: 1 -->
<svg width="423pt" height="80pt"
 viewBox="0.00 0.00 423.00 80.00" xmlns="http://www.w3.org/2000/svg" xmlns:xlink="http://www.w3.org/1999/xlink">
<g id="graph0" class="graph" transform="scale(1 1) rotate(0) translate(4 76)">
<title>Graphical Class Hierarchy</title>
<!-- Node0 -->
<g id="node1" class="node">
<title>Node0</title>
<g id="a_node1"><a xlink:href="structarc_1_1details_1_1rule__is__greater__than__4.html" target="_top" xlink:title="arc::details::rule\l_is_greater_than_4\&lt;\l(M \&gt; 4)\&gt;">
<polygon fill="none" stroke="#000000" points="0,-18 0,-53 122,-53 122,-18 0,-18"/>
<text text-anchor="start" x="8" y="-42.6" font-family="InputSans" font-size="8.00" fill="#000000">arc::details::rule</text>
<text text-anchor="start" x="8" y="-33.6" font-family="InputSans" font-size="8.00" fill="#000000">_is_greater_than_4&lt;</text>
<text text-anchor="middle" x="61" y="-24.6" font-family="InputSans" font-size="8.00" fill="#000000">(M &gt; 4)&gt;</text>
</a>
</g>
</g>
<!-- Node1 -->
<g id="node2" class="node">
<title>Node1</title>
<g id="a_node2"><a xlink:href="classarc_1_1details_1_1inner__storage.html" target="_top" xlink:title="arc::details::inner\l_storage\&lt; T, N, M \&gt;">
<polygon fill="none" stroke="#000000" points="158,-45.5 158,-71.5 277,-71.5 277,-45.5 158,-45.5"/>
<text text-anchor="start" x="166" y="-61.1" font-family="InputSans" font-size="8.00" fill="#000000">arc::details::inner</text>
<text text-anchor="middle" x="217.5" y="-52.1" font-family="InputSans" font-size="8.00" fill="#000000">_storage&lt; T, N, M &gt;</text>
</a>
</g>
</g>
<!-- Node0&#45;&gt;Node1 -->
<g id="edge1" class="edge">
<title>Node0&#45;&gt;Node1</title>
<path fill="none" stroke="#8b1a1a" d="M132.3298,-45.983C140.8493,-47.235 149.479,-48.5033 157.8108,-49.7278"/>
<polygon fill="#8b1a1a" stroke="#8b1a1a" points="132.8064,-42.5155 122.4038,-44.5242 131.7886,-49.4411 132.8064,-42.5155"/>
</g>
<!-- Node2 -->
<g id="node3" class="node">
<title>Node2</title>
<g id="a_node3"><a xlink:href="classarc_1_1details_1_1inner__storage.html" target="_top" xlink:title="arc::details::inner\l_storage\&lt; T, N, N \&gt;">
<polygon fill="none" stroke="#000000" points="158,-.5 158,-26.5 277,-26.5 277,-.5 158,-.5"/>
<text text-anchor="start" x="166" y="-16.1" font-family="InputSans" font-size="8.00" fill="#000000">arc::details::inner</text>
<text text-anchor="middle" x="217.5" y="-7.1" font-family="InputSans" font-size="8.00" fill="#000000">_storage&lt; T, N, N &gt;</text>
</a>
</g>
</g>
<!-- Node0&#45;&gt;Node2 -->
<g id="edge2" class="edge">
<title>Node0&#45;&gt;Node2</title>
<path fill="none" stroke="#8b1a1a" d="M132.3298,-25.4728C140.8493,-24.2752 149.479,-23.0621 157.8108,-21.8908"/>
<polygon fill="#8b1a1a" stroke="#8b1a1a" points="131.8192,-22.0101 122.4038,-26.8682 132.7937,-28.9419 131.8192,-22.0101"/>
</g>
<!-- Node3 -->
<g id="node4" class="node">
<title>Node3</title>
<g id="a_node4"><a xlink:href="classarc_1_1_vec.html" target="_top" xlink:title="&lt;#description#&gt; ">
<polygon fill="none" stroke="#000000" points="313,-5 313,-22 415,-22 415,-5 313,-5"/>
<text text-anchor="middle" x="364" y="-11.6" font-family="InputSans" font-size="8.00" fill="#000000">arc::Vec&lt; T, N &gt;</text>
</a>
</g>
</g>
<!-- Node2&#45;&gt;Node3 -->
<g id="edge3" class="edge">
<title>Node2&#45;&gt;Node3</title>
<path fill="none" stroke="#191970" d="M287.202,-13.5C295.8691,-13.5 304.6026,-13.5 312.9157,-13.5"/>
<polygon fill="#191970" stroke="#191970" points="287.0872,-10.0001 277.0872,-13.5 287.0871,-17.0001 287.0872,-10.0001"/>
</g>
</g>
</svg>
