<?xml version="1.0" encoding="UTF-8" standalone="no"?>
<!DOCTYPE svg PUBLIC "-//W3C//DTD SVG 1.1//EN"
 "http://www.w3.org/Graphics/SVG/1.1/DTD/svg11.dtd">
<!-- Generated by graphviz version 2.40.1 (20161225.0304)
 -->
<!-- Title: arc::min Pages: 1 -->
<svg width="284pt" height="26pt"
 viewBox="0.00 0.00 284.00 26.00" xmlns="http://www.w3.org/2000/svg" xmlns:xlink="http://www.w3.org/1999/xlink">
<g id="graph0" class="graph" transform="scale(1 1) rotate(0) translate(4 22)">
<title>arc::min</title>
<!-- Node41 -->
<g id="node1" class="node">
<title>Node41</title>
<polygon fill="#bfbfbf" stroke="#000000" points="0,-.5 0,-17.5 52,-17.5 52,-.5 0,-.5"/>
<text text-anchor="middle" x="26" y="-7.1" font-family="InputSans" font-size="8.00" fill="#000000">arc::min</text>
</g>
<!-- Node42 -->
<g id="node2" class="node">
<title>Node42</title>
<g id="a_node2"><a xlink:href="namespacearc.html#a9b93516263eda5c4d4b2710f6f54dfa8" target="_top" xlink:title="arc::clamp">
<polygon fill="none" stroke="#000000" points="88,-.5 88,-17.5 150,-17.5 150,-.5 88,-.5"/>
<text text-anchor="middle" x="119" y="-7.1" font-family="InputSans" font-size="8.00" fill="#000000">arc::clamp</text>
</a>
</g>
</g>
<!-- Node41&#45;&gt;Node42 -->
<g id="edge1" class="edge">
<title>Node41&#45;&gt;Node42</title>
<path fill="none" stroke="#191970" d="M62.6642,-9C71.0223,-9 79.8247,-9 87.9233,-9"/>
<polygon fill="#191970" stroke="#191970" points="62.4013,-5.5001 52.4013,-9 62.4013,-12.5001 62.4013,-5.5001"/>
</g>
<!-- Node43 -->
<g id="node3" class="node">
<title>Node43</title>
<g id="a_node3"><a xlink:href="namespacearc.html#a7e4bd1f160eb50c3afd6f5f7df2d6eb0" target="_top" xlink:title="arc::smoothertep">
<polygon fill="none" stroke="#000000" points="186,-.5 186,-17.5 276,-17.5 276,-.5 186,-.5"/>
<text text-anchor="middle" x="231" y="-7.1" font-family="InputSans" font-size="8.00" fill="#000000">arc::smoothertep</text>
</a>
</g>
</g>
<!-- Node42&#45;&gt;Node43 -->
<g id="edge2" class="edge">
<title>Node42&#45;&gt;Node43</title>
<path fill="none" stroke="#191970" d="M160.362,-9C168.6261,-9 177.3477,-9 185.7354,-9"/>
<polygon fill="#191970" stroke="#191970" points="160.1983,-5.5001 150.1982,-9 160.1982,-12.5001 160.1983,-5.5001"/>
</g>
</g>
</svg>
