<?xml version="1.0" encoding="UTF-8" standalone="no"?>
<!DOCTYPE svg PUBLIC "-//W3C//DTD SVG 1.1//EN"
 "http://www.w3.org/Graphics/SVG/1.1/DTD/svg11.dtd">
<!-- Generated by graphviz version 2.40.1 (20161225.0304)
 -->
<!-- Title: arc::sqrt Pages: 1 -->
<svg width="304pt" height="26pt"
 viewBox="0.00 0.00 304.00 26.00" xmlns="http://www.w3.org/2000/svg" xmlns:xlink="http://www.w3.org/1999/xlink">
<g id="graph0" class="graph" transform="scale(1 1) rotate(0) translate(4 22)">
<title>arc::sqrt</title>
<!-- Node120 -->
<g id="node1" class="node">
<title>Node120</title>
<polygon fill="#bfbfbf" stroke="#000000" points="0,-.5 0,-17.5 62,-17.5 62,-.5 0,-.5"/>
<text text-anchor="middle" x="31" y="-7.1" font-family="InputSans" font-size="8.00" fill="#000000">arc::sqrt</text>
</g>
<!-- Node121 -->
<g id="node2" class="node">
<title>Node121</title>
<g id="a_node2"><a xlink:href="namespacearc.html#a919863b7a2b844d23c210dd601ea0272" target="_top" xlink:title="Calculate length of vector. ">
<polygon fill="none" stroke="#000000" points="98,-.5 98,-17.5 171,-17.5 171,-.5 98,-.5"/>
<text text-anchor="middle" x="134.5" y="-7.1" font-family="InputSans" font-size="8.00" fill="#000000">arc::length</text>
</a>
</g>
</g>
<!-- Node120&#45;&gt;Node121 -->
<g id="edge1" class="edge">
<title>Node120&#45;&gt;Node121</title>
<path fill="none" stroke="#191970" d="M72.0848,-9C80.5219,-9 89.3544,-9 97.6317,-9"/>
<polygon fill="#191970" stroke="#191970" points="72.0534,-5.5001 62.0534,-9 72.0534,-12.5001 72.0534,-5.5001"/>
</g>
<!-- Node122 -->
<g id="node3" class="node">
<title>Node122</title>
<g id="a_node3"><a xlink:href="namespacearc.html#aa96cc003d3e44b878b751c35e2240581" target="_top" xlink:title="Calculates normalized unit vector of input vector. ">
<polygon fill="none" stroke="#000000" points="207,-.5 207,-17.5 296,-17.5 296,-.5 207,-.5"/>
<text text-anchor="middle" x="251.5" y="-7.1" font-family="InputSans" font-size="8.00" fill="#000000">arc::normalize</text>
</a>
</g>
</g>
<!-- Node121&#45;&gt;Node122 -->
<g id="edge2" class="edge">
<title>Node121&#45;&gt;Node122</title>
<path fill="none" stroke="#191970" d="M181.2279,-9C189.6278,-9 198.3656,-9 206.7091,-9"/>
<polygon fill="#191970" stroke="#191970" points="181.1986,-5.5001 171.1985,-9 181.1985,-12.5001 181.1986,-5.5001"/>
</g>
</g>
</svg>
