<?xml version="1.0" encoding="UTF-8" standalone="no"?>
<!DOCTYPE svg PUBLIC "-//W3C//DTD SVG 1.1//EN"
 "http://www.w3.org/Graphics/SVG/1.1/DTD/svg11.dtd">
<!-- Generated by graphviz version 2.40.1 (20161225.0304)
 -->
<!-- Title: arc::python::isInitialized Pages: 1 -->
<svg width="410pt" height="26pt"
 viewBox="0.00 0.00 410.00 26.00" xmlns="http://www.w3.org/2000/svg" xmlns:xlink="http://www.w3.org/1999/xlink">
<g id="graph0" class="graph" transform="scale(1 1) rotate(0) translate(4 22)">
<title>arc::python::isInitialized</title>
<!-- Node5 -->
<g id="node1" class="node">
<title>Node5</title>
<polygon fill="#bfbfbf" stroke="#000000" points="0,-.5 0,-17.5 144,-17.5 144,-.5 0,-.5"/>
<text text-anchor="middle" x="72" y="-7.1" font-family="InputSans" font-size="8.00" fill="#000000">arc::python::isInitialized</text>
</g>
<!-- Node6 -->
<g id="node2" class="node">
<title>Node6</title>
<g id="a_node2"><a xlink:href="namespacearc_1_1python.html#a410b6849bac780637d66374231bbc709" target="_top" xlink:title="arc::python::appendToPath">
<polygon fill="none" stroke="#000000" points="180,-.5 180,-17.5 327,-17.5 327,-.5 180,-.5"/>
<text text-anchor="middle" x="253.5" y="-7.1" font-family="InputSans" font-size="8.00" fill="#000000">arc::python::appendToPath</text>
</a>
</g>
</g>
<!-- Node5&#45;&gt;Node6 -->
<g id="edge1" class="edge">
<title>Node5&#45;&gt;Node6</title>
<path fill="none" stroke="#191970" d="M154.4579,-9C162.8776,-9 171.3933,-9 179.7118,-9"/>
<polygon fill="#191970" stroke="#191970" points="154.2552,-5.5001 144.2551,-9 154.2551,-12.5001 154.2552,-5.5001"/>
</g>
<!-- Node7 -->
<g id="node3" class="node">
<title>Node7</title>
<g id="a_node3"><a xlink:href="playground_2_main_8cpp.html#a0ddf1224851353fc92bfbff6f499fa97" target="_top" xlink:title="main">
<polygon fill="none" stroke="#000000" points="363,-.5 363,-17.5 402,-17.5 402,-.5 363,-.5"/>
<text text-anchor="middle" x="382.5" y="-7.1" font-family="InputSans" font-size="8.00" fill="#000000">main</text>
</a>
</g>
</g>
<!-- Node6&#45;&gt;Node7 -->
<g id="edge2" class="edge">
<title>Node6&#45;&gt;Node7</title>
<path fill="none" stroke="#191970" d="M337.1414,-9C346.6565,-9 355.5604,-9 362.9164,-9"/>
<polygon fill="#191970" stroke="#191970" points="337.0438,-5.5001 327.0437,-9 337.0437,-12.5001 337.0438,-5.5001"/>
</g>
</g>
</svg>
