<?xml version="1.0" encoding="UTF-8" standalone="no"?>
<!DOCTYPE svg PUBLIC "-//W3C//DTD SVG 1.1//EN"
 "http://www.w3.org/Graphics/SVG/1.1/DTD/svg11.dtd">
<!-- Generated by graphviz version 2.40.1 (20161225.0304)
 -->
<!-- Title: arc::plotSurface3dFunction Pages: 1 -->
<svg width="426pt" height="305pt"
 viewBox="0.00 0.00 426.00 305.00" xmlns="http://www.w3.org/2000/svg" xmlns:xlink="http://www.w3.org/1999/xlink">
<g id="graph0" class="graph" transform="scale(1 1) rotate(0) translate(4 301)">
<title>arc::plotSurface3dFunction</title>
<!-- Node103 -->
<g id="node1" class="node">
<title>Node103</title>
<polygon fill="#bfbfbf" stroke="#000000" points="0,-140 0,-157 129,-157 129,-140 0,-140"/>
<text text-anchor="middle" x="64.5" y="-146.6" font-family="InputSans" font-size="8.00" fill="#000000">arc::plotSurface3dFunction</text>
</g>
<!-- Node104 -->
<g id="node2" class="node">
<title>Node104</title>
<g id="a_node2"><a xlink:href="classarc_1_1_python_context.html#a2e3bb93afa3a87cbc2519cd1beb389ae" target="_top" xlink:title="arc::PythonContext\l::initialize">
<polygon fill="none" stroke="#000000" points="165,-270.5 165,-296.5 263,-296.5 263,-270.5 165,-270.5"/>
<text text-anchor="start" x="173" y="-286.1" font-family="InputSans" font-size="8.00" fill="#000000">arc::PythonContext</text>
<text text-anchor="middle" x="214" y="-277.1" font-family="InputSans" font-size="8.00" fill="#000000">::initialize</text>
</a>
</g>
</g>
<!-- Node103&#45;&gt;Node104 -->
<g id="edge1" class="edge">
<title>Node103&#45;&gt;Node104</title>
<path fill="none" stroke="#191970" d="M70.3207,-157.2751C84.387,-177.9095 122.2391,-230.1293 165,-261.5 166.8327,-262.8445 168.7606,-264.1324 170.749,-265.3624"/>
<polygon fill="#191970" stroke="#191970" points="169.3078,-268.5661 179.7464,-270.379 172.7168,-262.4522 169.3078,-268.5661"/>
</g>
<!-- Node105 -->
<g id="node3" class="node">
<title>Node105</title>
<g id="a_node3"><a xlink:href="classarc_1_1_python_context.html#a2f9238e0f8dba6636170c56d44dd6182" target="_top" xlink:title="arc::PythonContext\l::appendToPath">
<polygon fill="none" stroke="#000000" points="165,-225.5 165,-251.5 263,-251.5 263,-225.5 165,-225.5"/>
<text text-anchor="start" x="173" y="-241.1" font-family="InputSans" font-size="8.00" fill="#000000">arc::PythonContext</text>
<text text-anchor="middle" x="214" y="-232.1" font-family="InputSans" font-size="8.00" fill="#000000">::appendToPath</text>
</a>
</g>
</g>
<!-- Node103&#45;&gt;Node105 -->
<g id="edge2" class="edge">
<title>Node103&#45;&gt;Node105</title>
<path fill="none" stroke="#191970" d="M75.8424,-157.1332C94.0356,-170.7568 131.1406,-197.6301 165,-216.5 167.8102,-218.0661 170.7529,-219.6097 173.7413,-221.1083"/>
<polygon fill="#191970" stroke="#191970" points="172.2285,-224.2645 182.7571,-225.4471 175.264,-217.9569 172.2285,-224.2645"/>
</g>
<!-- Node106 -->
<g id="node4" class="node">
<title>Node106</title>
<g id="a_node4"><a xlink:href="classarc_1_1_python_context.html#a437a1fa6f4344a8f551b608e629e185d" target="_top" xlink:title="arc::PythonContext\l::loadModule">
<polygon fill="none" stroke="#000000" points="165,-180.5 165,-206.5 263,-206.5 263,-180.5 165,-180.5"/>
<text text-anchor="start" x="173" y="-196.1" font-family="InputSans" font-size="8.00" fill="#000000">arc::PythonContext</text>
<text text-anchor="middle" x="214" y="-187.1" font-family="InputSans" font-size="8.00" fill="#000000">::loadModule</text>
</a>
</g>
</g>
<!-- Node103&#45;&gt;Node106 -->
<g id="edge3" class="edge">
<title>Node103&#45;&gt;Node106</title>
<path fill="none" stroke="#191970" d="M92.9717,-157.0701C112.1711,-162.8492 138.0859,-170.6496 161.0097,-177.5497"/>
<polygon fill="#191970" stroke="#191970" points="160.0383,-180.9124 170.6227,-180.4433 162.0559,-174.2095 160.0383,-180.9124"/>
</g>
<!-- Node107 -->
<g id="node5" class="node">
<title>Node107</title>
<g id="a_node5"><a xlink:href="classarc_1_1_python_context.html#a4e2122a1868a455e0ec8d9bd73a4c8ef" target="_top" xlink:title="arc::PythonContext\l::loadFunction">
<polygon fill="none" stroke="#000000" points="165,-135.5 165,-161.5 263,-161.5 263,-135.5 165,-135.5"/>
<text text-anchor="start" x="173" y="-151.1" font-family="InputSans" font-size="8.00" fill="#000000">arc::PythonContext</text>
<text text-anchor="middle" x="214" y="-142.1" font-family="InputSans" font-size="8.00" fill="#000000">::loadFunction</text>
</a>
</g>
</g>
<!-- Node103&#45;&gt;Node107 -->
<g id="edge4" class="edge">
<title>Node103&#45;&gt;Node107</title>
<path fill="none" stroke="#191970" d="M129.2034,-148.5C137.7311,-148.5 146.4364,-148.5 154.8645,-148.5"/>
<polygon fill="#191970" stroke="#191970" points="154.977,-152.0001 164.977,-148.5 154.9769,-145.0001 154.977,-152.0001"/>
</g>
<!-- Node108 -->
<g id="node6" class="node">
<title>Node108</title>
<g id="a_node6"><a xlink:href="classarc_1_1_python_context.html#afb56b8ee968bea244236a0d44c106371" target="_top" xlink:title="arc::PythonContext\l::createList">
<polygon fill="none" stroke="#000000" points="165,-90.5 165,-116.5 263,-116.5 263,-90.5 165,-90.5"/>
<text text-anchor="start" x="173" y="-106.1" font-family="InputSans" font-size="8.00" fill="#000000">arc::PythonContext</text>
<text text-anchor="middle" x="214" y="-97.1" font-family="InputSans" font-size="8.00" fill="#000000">::createList</text>
</a>
</g>
</g>
<!-- Node103&#45;&gt;Node108 -->
<g id="edge5" class="edge">
<title>Node103&#45;&gt;Node108</title>
<path fill="none" stroke="#191970" d="M92.9717,-139.9299C112.1711,-134.1508 138.0859,-126.3504 161.0097,-119.4503"/>
<polygon fill="#191970" stroke="#191970" points="162.0559,-122.7905 170.6227,-116.5567 160.0383,-116.0876 162.0559,-122.7905"/>
</g>
<!-- Node109 -->
<g id="node7" class="node">
<title>Node109</title>
<g id="a_node7"><a xlink:href="classarc_1_1_python_context.html#a047132c9f365ae0d7c7c49c6cbafa19c" target="_top" xlink:title="arc::PythonContext\l::createFloat">
<polygon fill="none" stroke="#000000" points="165,-45.5 165,-71.5 263,-71.5 263,-45.5 165,-45.5"/>
<text text-anchor="start" x="173" y="-61.1" font-family="InputSans" font-size="8.00" fill="#000000">arc::PythonContext</text>
<text text-anchor="middle" x="214" y="-52.1" font-family="InputSans" font-size="8.00" fill="#000000">::createFloat</text>
</a>
</g>
</g>
<!-- Node103&#45;&gt;Node109 -->
<g id="edge6" class="edge">
<title>Node103&#45;&gt;Node109</title>
<path fill="none" stroke="#191970" d="M76.2013,-139.8609C94.5806,-126.4866 131.5732,-100.3485 165,-81.5 168.2615,-79.6609 171.6948,-77.8372 175.1673,-76.0685"/>
<polygon fill="#191970" stroke="#191970" points="176.9342,-79.0999 184.3599,-71.5428 173.8423,-72.8197 176.9342,-79.0999"/>
</g>
<!-- Node111 -->
<g id="node9" class="node">
<title>Node111</title>
<g id="a_node9"><a xlink:href="classarc_1_1_python_context.html#ab36fb1bbf96719ca482a787c784f9679" target="_top" xlink:title="arc::PythonContext\l::createTupple">
<polygon fill="none" stroke="#000000" points="165,-.5 165,-26.5 263,-26.5 263,-.5 165,-.5"/>
<text text-anchor="start" x="173" y="-16.1" font-family="InputSans" font-size="8.00" fill="#000000">arc::PythonContext</text>
<text text-anchor="middle" x="214" y="-7.1" font-family="InputSans" font-size="8.00" fill="#000000">::createTupple</text>
</a>
</g>
</g>
<!-- Node103&#45;&gt;Node111 -->
<g id="edge8" class="edge">
<title>Node103&#45;&gt;Node111</title>
<path fill="none" stroke="#191970" d="M70.3749,-139.8542C84.5582,-119.514 122.645,-67.98 165,-36.5 167.3334,-34.7657 169.8185,-33.1147 172.3845,-31.5521"/>
<polygon fill="#191970" stroke="#191970" points="174.2767,-34.5048 181.3176,-26.5879 170.8764,-28.3861 174.2767,-34.5048"/>
</g>
<!-- Node110 -->
<g id="node8" class="node">
<title>Node110</title>
<g id="a_node8"><a xlink:href="classarc_1_1_python_float.html#a64a560a3cd0b4edc8a5e103753eb6d28" target="_top" xlink:title="arc::PythonFloat::create">
<polygon fill="none" stroke="#000000" points="299,-50 299,-67 418,-67 418,-50 299,-50"/>
<text text-anchor="middle" x="358.5" y="-56.6" font-family="InputSans" font-size="8.00" fill="#000000">arc::PythonFloat::create</text>
</a>
</g>
</g>
<!-- Node109&#45;&gt;Node110 -->
<g id="edge7" class="edge">
<title>Node109&#45;&gt;Node110</title>
<path fill="none" stroke="#191970" d="M263.3246,-58.5C271.5515,-58.5 280.2209,-58.5 288.8411,-58.5"/>
<polygon fill="#191970" stroke="#191970" points="288.9084,-62.0001 298.9084,-58.5 288.9083,-55.0001 288.9084,-62.0001"/>
</g>
</g>
</svg>
