<?xml version="1.0" encoding="UTF-8" standalone="no"?>
<!DOCTYPE svg PUBLIC "-//W3C//DTD SVG 1.1//EN"
 "http://www.w3.org/Graphics/SVG/1.1/DTD/svg11.dtd">
<!-- Generated by graphviz version 2.40.1 (20161225.0304)
 -->
<!-- Title: arc::abs Pages: 1 -->
<svg width="294pt" height="26pt"
 viewBox="0.00 0.00 294.00 26.00" xmlns="http://www.w3.org/2000/svg" xmlns:xlink="http://www.w3.org/1999/xlink">
<g id="graph0" class="graph" transform="scale(1 1) rotate(0) translate(4 22)">
<title>arc::abs</title>
<!-- Node1 -->
<g id="node1" class="node">
<title>Node1</title>
<polygon fill="#bfbfbf" stroke="#000000" points="0,-.5 0,-17.5 51,-17.5 51,-.5 0,-.5"/>
<text text-anchor="middle" x="25.5" y="-7.1" font-family="InputSans" font-size="8.00" fill="#000000">arc::abs</text>
</g>
<!-- Node2 -->
<g id="node2" class="node">
<title>Node2</title>
<g id="a_node2"><a xlink:href="namespacearc.html#a397c404b3a278c6e1459c9a9b7b5e766" target="_top" xlink:title="Minimizes function using Nelder&#45;Mead polytope algorithm. ">
<polygon fill="none" stroke="#000000" points="87,-.5 87,-17.5 212,-17.5 212,-.5 87,-.5"/>
<text text-anchor="middle" x="149.5" y="-7.1" font-family="InputSans" font-size="8.00" fill="#000000">arc::minimizeNelderMead</text>
</a>
</g>
</g>
<!-- Node1&#45;&gt;Node2 -->
<g id="edge1" class="edge">
<title>Node1&#45;&gt;Node2</title>
<path fill="none" stroke="#191970" d="M61.2552,-9C69.2684,-9 77.9989,-9 86.7493,-9"/>
<polygon fill="#191970" stroke="#191970" points="61.1929,-5.5001 51.1929,-9 61.1928,-12.5001 61.1929,-5.5001"/>
</g>
<!-- Node3 -->
<g id="node3" class="node">
<title>Node3</title>
<g id="a_node3"><a xlink:href="_main_8cpp.html#a0ddf1224851353fc92bfbff6f499fa97" target="_top" xlink:title="main">
<polygon fill="none" stroke="#000000" points="248,-.5 248,-17.5 286,-17.5 286,-.5 248,-.5"/>
<text text-anchor="middle" x="267" y="-7.1" font-family="InputSans" font-size="8.00" fill="#000000">main</text>
</a>
</g>
</g>
<!-- Node2&#45;&gt;Node3 -->
<g id="edge2" class="edge">
<title>Node2&#45;&gt;Node3</title>
<path fill="none" stroke="#191970" d="M222.3273,-9C231.675,-9 240.5174,-9 247.8304,-9"/>
<polygon fill="#191970" stroke="#191970" points="222.0343,-5.5001 212.0343,-9 222.0343,-12.5001 222.0343,-5.5001"/>
</g>
</g>
</svg>
