<?xml version="1.0" encoding="UTF-8" standalone="no"?>
<!DOCTYPE svg PUBLIC "-//W3C//DTD SVG 1.1//EN"
 "http://www.w3.org/Graphics/SVG/1.1/DTD/svg11.dtd">
<!-- Generated by graphviz version 2.40.1 (20161225.0304)
 -->
<!-- Title: arc::normalize Pages: 1 -->
<svg width="352pt" height="62pt"
 viewBox="0.00 0.00 352.00 62.00" xmlns="http://www.w3.org/2000/svg" xmlns:xlink="http://www.w3.org/1999/xlink">
<g id="graph0" class="graph" transform="scale(1 1) rotate(0) translate(4 58)">
<title>arc::normalize</title>
<!-- Node51 -->
<g id="node1" class="node">
<title>Node51</title>
<polygon fill="#bfbfbf" stroke="#000000" points="0,-18.5 0,-35.5 89,-35.5 89,-18.5 0,-18.5"/>
<text text-anchor="middle" x="44.5" y="-25.1" font-family="InputSans" font-size="8.00" fill="#000000">arc::normalize</text>
</g>
<!-- Node52 -->
<g id="node2" class="node">
<title>Node52</title>
<g id="a_node2"><a xlink:href="namespacearc.html#a919863b7a2b844d23c210dd601ea0272" target="_top" xlink:title="Calculate length of vector. ">
<polygon fill="none" stroke="#000000" points="125,-18.5 125,-35.5 198,-35.5 198,-18.5 125,-18.5"/>
<text text-anchor="middle" x="161.5" y="-25.1" font-family="InputSans" font-size="8.00" fill="#000000">arc::length</text>
</a>
</g>
</g>
<!-- Node51&#45;&gt;Node52 -->
<g id="edge1" class="edge">
<title>Node51&#45;&gt;Node52</title>
<path fill="none" stroke="#191970" d="M89.0664,-27C97.4223,-27 106.1808,-27 114.6049,-27"/>
<polygon fill="#191970" stroke="#191970" points="114.6649,-30.5001 124.6649,-27 114.6648,-23.5001 114.6649,-30.5001"/>
</g>
<!-- Node53 -->
<g id="node3" class="node">
<title>Node53</title>
<g id="a_node3"><a xlink:href="namespacearc.html#ac3005537cdf92d015c35b78e18de1ba3" target="_top" xlink:title="arc::sqrt">
<polygon fill="none" stroke="#000000" points="258,-36.5 258,-53.5 320,-53.5 320,-36.5 258,-36.5"/>
<text text-anchor="middle" x="289" y="-43.1" font-family="InputSans" font-size="8.00" fill="#000000">arc::sqrt</text>
</a>
</g>
</g>
<!-- Node52&#45;&gt;Node53 -->
<g id="edge2" class="edge">
<title>Node52&#45;&gt;Node53</title>
<path fill="none" stroke="#191970" d="M198.0364,-32.1581C213.4894,-34.3397 231.5688,-36.8921 247.5204,-39.1441"/>
<polygon fill="#191970" stroke="#191970" points="247.2556,-42.6413 257.6467,-40.5737 248.2342,-35.71 247.2556,-42.6413"/>
</g>
<!-- Node54 -->
<g id="node4" class="node">
<title>Node54</title>
<g id="a_node4"><a xlink:href="namespacearc.html#a07882e1693d34c608ffda3b362931f5d" target="_top" xlink:title="Calculate length squared of 2D vector. ">
<polygon fill="none" stroke="#000000" points="234,-.5 234,-17.5 344,-17.5 344,-.5 234,-.5"/>
<text text-anchor="middle" x="289" y="-7.1" font-family="InputSans" font-size="8.00" fill="#000000">arc::lengthSquared</text>
</a>
</g>
</g>
<!-- Node52&#45;&gt;Node54 -->
<g id="edge3" class="edge">
<title>Node52&#45;&gt;Node54</title>
<path fill="none" stroke="#191970" d="M198.0364,-21.8419C206.163,-20.6946 215.016,-19.4448 223.9039,-18.19"/>
<polygon fill="#191970" stroke="#191970" points="224.5041,-21.6401 233.9166,-16.7765 223.5255,-14.7088 224.5041,-21.6401"/>
</g>
</g>
</svg>
