<?xml version="1.0" encoding="UTF-8" standalone="no"?>
<!DOCTYPE svg PUBLIC "-//W3C//DTD SVG 1.1//EN"
 "http://www.w3.org/Graphics/SVG/1.1/DTD/svg11.dtd">
<!-- Generated by graphviz version 2.40.1 (20161225.0304)
 -->
<!-- Title: arc::dot Pages: 1 -->
<svg width="275pt" height="26pt"
 viewBox="0.00 0.00 275.00 26.00" xmlns="http://www.w3.org/2000/svg" xmlns:xlink="http://www.w3.org/1999/xlink">
<g id="graph0" class="graph" transform="scale(1 1) rotate(0) translate(4 22)">
<title>arc::dot</title>
<!-- Node20 -->
<g id="node1" class="node">
<title>Node20</title>
<polygon fill="#bfbfbf" stroke="#000000" points="0,-.5 0,-17.5 50,-17.5 50,-.5 0,-.5"/>
<text text-anchor="middle" x="25" y="-7.1" font-family="InputSans" font-size="8.00" fill="#000000">arc::dot</text>
</g>
<!-- Node21 -->
<g id="node2" class="node">
<title>Node21</title>
<g id="a_node2"><a xlink:href="namespacearc.html#aa1ab715453e42ef3f962d9fbdef3f1bd" target="_top" xlink:title="arc::operator*">
<polygon fill="none" stroke="#000000" points="86,-.5 86,-17.5 163,-17.5 163,-.5 86,-.5"/>
<text text-anchor="middle" x="124.5" y="-7.1" font-family="InputSans" font-size="8.00" fill="#000000">arc::operator*</text>
</a>
</g>
</g>
<!-- Node20&#45;&gt;Node21 -->
<g id="edge1" class="edge">
<title>Node20&#45;&gt;Node21</title>
<path fill="none" stroke="#191970" d="M60.2197,-9C68.5137,-9 77.3983,-9 85.8349,-9"/>
<polygon fill="#191970" stroke="#191970" points="60.1081,-5.5001 50.1081,-9 60.108,-12.5001 60.1081,-5.5001"/>
</g>
<!-- Node22 -->
<g id="node3" class="node">
<title>Node22</title>
<g id="a_node3"><a xlink:href="classarc_1_1_vec.html#a36a8ad951c1c680e26ccdbc7b5d0e223" target="_top" xlink:title="arc::Vec::up">
<polygon fill="none" stroke="#000000" points="199,-.5 199,-17.5 267,-17.5 267,-.5 199,-.5"/>
<text text-anchor="middle" x="233" y="-7.1" font-family="InputSans" font-size="8.00" fill="#000000">arc::Vec::up</text>
</a>
</g>
</g>
<!-- Node21&#45;&gt;Node22 -->
<g id="edge2" class="edge">
<title>Node21&#45;&gt;Node22</title>
<path fill="none" stroke="#191970" d="M173.1242,-9C181.8213,-9 190.7133,-9 198.8932,-9"/>
<polygon fill="#191970" stroke="#191970" points="173.0586,-5.5001 163.0585,-9 173.0585,-12.5001 173.0586,-5.5001"/>
</g>
</g>
</svg>
