<?xml version="1.0" encoding="UTF-8" standalone="no"?>
<!DOCTYPE svg PUBLIC "-//W3C//DTD SVG 1.1//EN"
 "http://www.w3.org/Graphics/SVG/1.1/DTD/svg11.dtd">
<!-- Generated by graphviz version 2.40.1 (20161225.0304)
 -->
<!-- Title: arc::clamp Pages: 1 -->
<svg width="176pt" height="62pt"
 viewBox="0.00 0.00 176.00 62.00" xmlns="http://www.w3.org/2000/svg" xmlns:xlink="http://www.w3.org/1999/xlink">
<g id="graph0" class="graph" transform="scale(1 1) rotate(0) translate(4 58)">
<title>arc::clamp</title>
<!-- Node6 -->
<g id="node1" class="node">
<title>Node6</title>
<polygon fill="#bfbfbf" stroke="#000000" points="0,-18.5 0,-35.5 71,-35.5 71,-18.5 0,-18.5"/>
<text text-anchor="middle" x="35.5" y="-25.1" font-family="InputSans" font-size="8.00" fill="#000000">arc::clamp</text>
</g>
<!-- Node7 -->
<g id="node2" class="node">
<title>Node7</title>
<g id="a_node2"><a xlink:href="namespacearc.html#a1643795165195844fc215c68cc0318c9" target="_top" xlink:title="arc::max">
<polygon fill="none" stroke="#000000" points="107,-36.5 107,-53.5 168,-53.5 168,-36.5 107,-36.5"/>
<text text-anchor="middle" x="137.5" y="-43.1" font-family="InputSans" font-size="8.00" fill="#000000">arc::max</text>
</a>
</g>
</g>
<!-- Node6&#45;&gt;Node7 -->
<g id="edge1" class="edge">
<title>Node6&#45;&gt;Node7</title>
<path fill="none" stroke="#191970" d="M71.1747,-33.2955C79.4249,-34.7514 88.2649,-36.3115 96.7149,-37.8026"/>
<polygon fill="#191970" stroke="#191970" points="96.3065,-41.2846 106.7626,-39.5758 97.5231,-34.3911 96.3065,-41.2846"/>
</g>
<!-- Node8 -->
<g id="node3" class="node">
<title>Node8</title>
<g id="a_node3"><a xlink:href="namespacearc.html#ae4aaac0faf664d9964ce8e9543511258" target="_top" xlink:title="arc::min">
<polygon fill="none" stroke="#000000" points="108,-.5 108,-17.5 167,-17.5 167,-.5 108,-.5"/>
<text text-anchor="middle" x="137.5" y="-7.1" font-family="InputSans" font-size="8.00" fill="#000000">arc::min</text>
</a>
</g>
</g>
<!-- Node6&#45;&gt;Node8 -->
<g id="edge2" class="edge">
<title>Node6&#45;&gt;Node8</title>
<path fill="none" stroke="#191970" d="M71.1747,-20.7045C79.7633,-19.1888 88.9911,-17.5604 97.7527,-16.0142"/>
<polygon fill="#191970" stroke="#191970" points="98.5179,-19.4334 107.7575,-14.2487 97.3014,-12.5399 98.5179,-19.4334"/>
</g>
</g>
</svg>
