<?xml version="1.0" encoding="UTF-8" standalone="no"?>
<!DOCTYPE svg PUBLIC "-//W3C//DTD SVG 1.1//EN"
 "http://www.w3.org/Graphics/SVG/1.1/DTD/svg11.dtd">
<!-- Generated by graphviz version 2.40.1 (20161225.0304)
 -->
<!-- Title: arc::dot Pages: 1 -->
<svg width="308pt" height="26pt"
 viewBox="0.00 0.00 308.00 26.00" xmlns="http://www.w3.org/2000/svg" xmlns:xlink="http://www.w3.org/1999/xlink">
<g id="graph0" class="graph" transform="scale(1 1) rotate(0) translate(4 22)">
<title>arc::dot</title>
<!-- Node20 -->
<g id="node1" class="node">
<title>Node20</title>
<polygon fill="#bfbfbf" stroke="#000000" points="0,-.5 0,-17.5 58,-17.5 58,-.5 0,-.5"/>
<text text-anchor="middle" x="29" y="-7.1" font-family="InputSans" font-size="8.00" fill="#000000">arc::dot</text>
</g>
<!-- Node21 -->
<g id="node2" class="node">
<title>Node21</title>
<g id="a_node2"><a xlink:href="namespacearc.html#aa1ab715453e42ef3f962d9fbdef3f1bd" target="_top" xlink:title="arc::operator*">
<polygon fill="none" stroke="#000000" points="94,-.5 94,-17.5 184,-17.5 184,-.5 94,-.5"/>
<text text-anchor="middle" x="139" y="-7.1" font-family="InputSans" font-size="8.00" fill="#000000">arc::operator*</text>
</a>
</g>
</g>
<!-- Node20&#45;&gt;Node21 -->
<g id="edge1" class="edge">
<title>Node20&#45;&gt;Node21</title>
<path fill="none" stroke="#191970" d="M68.3425,-9C76.6266,-9 85.4277,-9 93.9042,-9"/>
<polygon fill="#191970" stroke="#191970" points="68.1892,-5.5001 58.1892,-9 68.1892,-12.5001 68.1892,-5.5001"/>
</g>
<!-- Node22 -->
<g id="node3" class="node">
<title>Node22</title>
<g id="a_node3"><a xlink:href="classarc_1_1_vec.html#a36a8ad951c1c680e26ccdbc7b5d0e223" target="_top" xlink:title="arc::Vec::up">
<polygon fill="none" stroke="#000000" points="220,-.5 220,-17.5 300,-17.5 300,-.5 220,-.5"/>
<text text-anchor="middle" x="260" y="-7.1" font-family="InputSans" font-size="8.00" fill="#000000">arc::Vec::up</text>
</a>
</g>
</g>
<!-- Node21&#45;&gt;Node22 -->
<g id="edge2" class="edge">
<title>Node21&#45;&gt;Node22</title>
<path fill="none" stroke="#191970" d="M194.0737,-9C202.7015,-9 211.4778,-9 219.693,-9"/>
<polygon fill="#191970" stroke="#191970" points="194.056,-5.5001 184.0559,-9 194.0559,-12.5001 194.056,-5.5001"/>
</g>
</g>
</svg>
