<?xml version="1.0" encoding="UTF-8" standalone="no"?>
<!DOCTYPE svg PUBLIC "-//W3C//DTD SVG 1.1//EN"
 "http://www.w3.org/Graphics/SVG/1.1/DTD/svg11.dtd">
<!-- Generated by graphviz version 2.40.1 (20161225.0304)
 -->
<!-- Title: arc::max Pages: 1 -->
<svg width="287pt" height="26pt"
 viewBox="0.00 0.00 287.00 26.00" xmlns="http://www.w3.org/2000/svg" xmlns:xlink="http://www.w3.org/1999/xlink">
<g id="graph0" class="graph" transform="scale(1 1) rotate(0) translate(4 22)">
<title>arc::max</title>
<!-- Node37 -->
<g id="node1" class="node">
<title>Node37</title>
<polygon fill="#bfbfbf" stroke="#000000" points="0,-.5 0,-17.5 55,-17.5 55,-.5 0,-.5"/>
<text text-anchor="middle" x="27.5" y="-7.1" font-family="InputSans" font-size="8.00" fill="#000000">arc::max</text>
</g>
<!-- Node38 -->
<g id="node2" class="node">
<title>Node38</title>
<g id="a_node2"><a xlink:href="namespacearc.html#a9b93516263eda5c4d4b2710f6f54dfa8" target="_top" xlink:title="arc::clamp">
<polygon fill="none" stroke="#000000" points="91,-.5 91,-17.5 153,-17.5 153,-.5 91,-.5"/>
<text text-anchor="middle" x="122" y="-7.1" font-family="InputSans" font-size="8.00" fill="#000000">arc::clamp</text>
</a>
</g>
</g>
<!-- Node37&#45;&gt;Node38 -->
<g id="edge1" class="edge">
<title>Node37&#45;&gt;Node38</title>
<path fill="none" stroke="#191970" d="M65.192,-9C73.7169,-9 82.6749,-9 90.8925,-9"/>
<polygon fill="#191970" stroke="#191970" points="65.0874,-5.5001 55.0873,-9 65.0873,-12.5001 65.0874,-5.5001"/>
</g>
<!-- Node39 -->
<g id="node3" class="node">
<title>Node39</title>
<g id="a_node3"><a xlink:href="namespacearc.html#a7e4bd1f160eb50c3afd6f5f7df2d6eb0" target="_top" xlink:title="arc::smoothertep">
<polygon fill="none" stroke="#000000" points="189,-.5 189,-17.5 279,-17.5 279,-.5 189,-.5"/>
<text text-anchor="middle" x="234" y="-7.1" font-family="InputSans" font-size="8.00" fill="#000000">arc::smoothertep</text>
</a>
</g>
</g>
<!-- Node38&#45;&gt;Node39 -->
<g id="edge2" class="edge">
<title>Node38&#45;&gt;Node39</title>
<path fill="none" stroke="#191970" d="M163.362,-9C171.6261,-9 180.3477,-9 188.7354,-9"/>
<polygon fill="#191970" stroke="#191970" points="163.1983,-5.5001 153.1982,-9 163.1982,-12.5001 163.1983,-5.5001"/>
</g>
</g>
</svg>
