<?xml version="1.0" encoding="UTF-8" standalone="no"?>
<!DOCTYPE svg PUBLIC "-//W3C//DTD SVG 1.1//EN"
 "http://www.w3.org/Graphics/SVG/1.1/DTD/svg11.dtd">
<!-- Generated by graphviz version 2.40.1 (20161225.0304)
 -->
<!-- Title: arc::min Pages: 1 -->
<svg width="311pt" height="26pt"
 viewBox="0.00 0.00 311.00 26.00" xmlns="http://www.w3.org/2000/svg" xmlns:xlink="http://www.w3.org/1999/xlink">
<g id="graph0" class="graph" transform="scale(1 1) rotate(0) translate(4 22)">
<title>arc::min</title>
<!-- Node41 -->
<g id="node1" class="node">
<title>Node41</title>
<polygon fill="#bfbfbf" stroke="#000000" points="0,-.5 0,-17.5 59,-17.5 59,-.5 0,-.5"/>
<text text-anchor="middle" x="29.5" y="-7.1" font-family="InputSans" font-size="8.00" fill="#000000">arc::min</text>
</g>
<!-- Node42 -->
<g id="node2" class="node">
<title>Node42</title>
<g id="a_node2"><a xlink:href="namespacearc.html#a9b93516263eda5c4d4b2710f6f54dfa8" target="_top" xlink:title="arc::clamp">
<polygon fill="none" stroke="#000000" points="95,-.5 95,-17.5 166,-17.5 166,-.5 95,-.5"/>
<text text-anchor="middle" x="130.5" y="-7.1" font-family="InputSans" font-size="8.00" fill="#000000">arc::clamp</text>
</a>
</g>
</g>
<!-- Node41&#45;&gt;Node42 -->
<g id="edge1" class="edge">
<title>Node41&#45;&gt;Node42</title>
<path fill="none" stroke="#191970" d="M69.2887,-9C77.7389,-9 86.6085,-9 94.8912,-9"/>
<polygon fill="#191970" stroke="#191970" points="69.2571,-5.5001 59.2571,-9 69.257,-12.5001 69.2571,-5.5001"/>
</g>
<!-- Node43 -->
<g id="node3" class="node">
<title>Node43</title>
<g id="a_node3"><a xlink:href="namespacearc.html#a7e4bd1f160eb50c3afd6f5f7df2d6eb0" target="_top" xlink:title="arc::smoothertep">
<polygon fill="none" stroke="#000000" points="202,-.5 202,-17.5 303,-17.5 303,-.5 202,-.5"/>
<text text-anchor="middle" x="252.5" y="-7.1" font-family="InputSans" font-size="8.00" fill="#000000">arc::smoothertep</text>
</a>
</g>
</g>
<!-- Node42&#45;&gt;Node43 -->
<g id="edge2" class="edge">
<title>Node42&#45;&gt;Node43</title>
<path fill="none" stroke="#191970" d="M176.3244,-9C184.591,-9 193.2547,-9 201.6541,-9"/>
<polygon fill="#191970" stroke="#191970" points="176.1154,-5.5001 166.1154,-9 176.1154,-12.5001 176.1154,-5.5001"/>
</g>
</g>
</svg>
