<?xml version="1.0" encoding="UTF-8" standalone="no"?>
<!DOCTYPE svg PUBLIC "-//W3C//DTD SVG 1.1//EN"
 "http://www.w3.org/Graphics/SVG/1.1/DTD/svg11.dtd">
<!-- Generated by graphviz version 2.40.1 (20161225.0304)
 -->
<!-- Title: arc::plot::contourPlot Pages: 1 -->
<svg width="323pt" height="80pt"
 viewBox="0.00 0.00 323.00 80.00" xmlns="http://www.w3.org/2000/svg" xmlns:xlink="http://www.w3.org/1999/xlink">
<g id="graph0" class="graph" transform="scale(1 1) rotate(0) translate(4 76)">
<title>arc::plot::contourPlot</title>
<!-- Node2 -->
<g id="node1" class="node">
<title>Node2</title>
<polygon fill="#bfbfbf" stroke="#000000" points="0,-27 0,-44 126,-44 126,-27 0,-27"/>
<text text-anchor="middle" x="63" y="-33.6" font-family="InputSans" font-size="8.00" fill="#000000">arc::plot::contourPlot</text>
</g>
<!-- Node3 -->
<g id="node2" class="node">
<title>Node3</title>
<g id="a_node2"><a xlink:href="classarc_1_1python_1_1_python_function.html#a05b1fffba4d5650dffa0140135bb21e2" target="_top" xlink:title="arc::python::PythonFunction\l::call">
<polygon fill="none" stroke="#000000" points="162,-45.5 162,-71.5 315,-71.5 315,-45.5 162,-45.5"/>
<text text-anchor="start" x="170" y="-61.1" font-family="InputSans" font-size="8.00" fill="#000000">arc::python::PythonFunction</text>
<text text-anchor="middle" x="238.5" y="-52.1" font-family="InputSans" font-size="8.00" fill="#000000">::call</text>
</a>
</g>
</g>
<!-- Node2&#45;&gt;Node3 -->
<g id="edge1" class="edge">
<title>Node2&#45;&gt;Node3</title>
<path fill="none" stroke="#191970" d="M126.3595,-43.8035C134.6161,-44.8856 143.1857,-46.0087 151.7427,-47.1301"/>
<polygon fill="#191970" stroke="#191970" points="151.3925,-50.614 161.7625,-48.4432 152.3021,-43.6734 151.3925,-50.614"/>
</g>
<!-- Node4 -->
<g id="node3" class="node">
<title>Node4</title>
<g id="a_node3"><a xlink:href="classarc_1_1python_1_1_python_object.html#ab5d924c554bddb450591e7c42aa639a1" target="_top" xlink:title="arc::python::PythonObject\l::isValid">
<polygon fill="none" stroke="#000000" points="167,-.5 167,-26.5 310,-26.5 310,-.5 167,-.5"/>
<text text-anchor="start" x="175" y="-16.1" font-family="InputSans" font-size="8.00" fill="#000000">arc::python::PythonObject</text>
<text text-anchor="middle" x="238.5" y="-7.1" font-family="InputSans" font-size="8.00" fill="#000000">::isValid</text>
</a>
</g>
</g>
<!-- Node2&#45;&gt;Node4 -->
<g id="edge2" class="edge">
<title>Node2&#45;&gt;Node4</title>
<path fill="none" stroke="#191970" d="M126.3595,-27.5575C136.227,-26.3206 146.5413,-25.0276 156.7471,-23.7482"/>
<polygon fill="#191970" stroke="#191970" points="157.409,-27.1927 166.896,-22.476 156.5382,-20.2471 157.409,-27.1927"/>
</g>
</g>
</svg>
