<?xml version="1.0" encoding="UTF-8" standalone="no"?>
<!DOCTYPE svg PUBLIC "-//W3C//DTD SVG 1.1//EN"
 "http://www.w3.org/Graphics/SVG/1.1/DTD/svg11.dtd">
<!-- Generated by graphviz version 2.40.1 (20161225.0304)
 -->
<!-- Title: arc::smoothertep Pages: 1 -->
<svg width="321pt" height="80pt"
 viewBox="0.00 0.00 321.00 80.00" xmlns="http://www.w3.org/2000/svg" xmlns:xlink="http://www.w3.org/1999/xlink">
<g id="graph0" class="graph" transform="scale(1 1) rotate(0) translate(4 76)">
<title>arc::smoothertep</title>
<!-- Node119 -->
<g id="node1" class="node">
<title>Node119</title>
<polygon fill="#bfbfbf" stroke="#000000" points="0,-18.5 0,-35.5 90,-35.5 90,-18.5 0,-18.5"/>
<text text-anchor="middle" x="45" y="-25.1" font-family="InputSans" font-size="8.00" fill="#000000">arc::smoothertep</text>
</g>
<!-- Node120 -->
<g id="node2" class="node">
<title>Node120</title>
<g id="a_node2"><a xlink:href="namespacearc.html#a9b93516263eda5c4d4b2710f6f54dfa8" target="_top" xlink:title="arc::clamp">
<polygon fill="none" stroke="#000000" points="143,-36.5 143,-53.5 205,-53.5 205,-36.5 143,-36.5"/>
<text text-anchor="middle" x="174" y="-43.1" font-family="InputSans" font-size="8.00" fill="#000000">arc::clamp</text>
</a>
</g>
</g>
<!-- Node119&#45;&gt;Node120 -->
<g id="edge1" class="edge">
<title>Node119&#45;&gt;Node120</title>
<path fill="none" stroke="#191970" d="M90.1179,-33.2955C104.0134,-35.2344 119.2319,-37.3579 132.8463,-39.2576"/>
<polygon fill="#191970" stroke="#191970" points="132.5083,-42.7443 142.896,-40.6599 133.4757,-35.8115 132.5083,-42.7443"/>
</g>
<!-- Node123 -->
<g id="node5" class="node">
<title>Node123</title>
<g id="a_node5"><a xlink:href="namespacearc.html#adbfc8ef5159dc8e0d5e36204e7fcb88a" target="_top" xlink:title="arc::nextPowerOf2">
<polygon fill="none" stroke="#000000" points="126,-.5 126,-17.5 222,-17.5 222,-.5 126,-.5"/>
<text text-anchor="middle" x="174" y="-7.1" font-family="InputSans" font-size="8.00" fill="#000000">arc::nextPowerOf2</text>
</a>
</g>
</g>
<!-- Node119&#45;&gt;Node123 -->
<g id="edge4" class="edge">
<title>Node119&#45;&gt;Node123</title>
<path fill="none" stroke="#191970" d="M90.1179,-20.7045C98.3689,-19.5532 107.0864,-18.3368 115.6576,-17.1408"/>
<polygon fill="#191970" stroke="#191970" points="116.195,-20.5998 125.6154,-15.7513 115.2276,-13.667 116.195,-20.5998"/>
</g>
<!-- Node121 -->
<g id="node3" class="node">
<title>Node121</title>
<g id="a_node3"><a xlink:href="namespacearc.html#a1643795165195844fc215c68cc0318c9" target="_top" xlink:title="arc::max">
<polygon fill="none" stroke="#000000" points="258,-54.5 258,-71.5 313,-71.5 313,-54.5 258,-54.5"/>
<text text-anchor="middle" x="285.5" y="-61.1" font-family="InputSans" font-size="8.00" fill="#000000">arc::max</text>
</a>
</g>
</g>
<!-- Node120&#45;&gt;Node121 -->
<g id="edge2" class="edge">
<title>Node120&#45;&gt;Node121</title>
<path fill="none" stroke="#191970" d="M205.059,-50.014C218.2042,-52.1361 233.6445,-54.6287 247.4642,-56.8597"/>
<polygon fill="#191970" stroke="#191970" points="247.2214,-60.3657 257.6515,-58.5043 248.3371,-53.4552 247.2214,-60.3657"/>
</g>
<!-- Node122 -->
<g id="node4" class="node">
<title>Node122</title>
<g id="a_node4"><a xlink:href="namespacearc.html#ae4aaac0faf664d9964ce8e9543511258" target="_top" xlink:title="arc::min">
<polygon fill="none" stroke="#000000" points="259.5,-18.5 259.5,-35.5 311.5,-35.5 311.5,-18.5 259.5,-18.5"/>
<text text-anchor="middle" x="285.5" y="-25.1" font-family="InputSans" font-size="8.00" fill="#000000">arc::min</text>
</a>
</g>
</g>
<!-- Node120&#45;&gt;Node122 -->
<g id="edge3" class="edge">
<title>Node120&#45;&gt;Node122</title>
<path fill="none" stroke="#191970" d="M205.059,-39.986C218.7479,-37.7761 234.9257,-35.1645 249.1704,-32.8649"/>
<polygon fill="#191970" stroke="#191970" points="249.8235,-36.3048 259.1379,-31.2558 248.7078,-29.3943 249.8235,-36.3048"/>
</g>
</g>
</svg>
