<?xml version="1.0" encoding="UTF-8" standalone="no"?>
<!DOCTYPE svg PUBLIC "-//W3C//DTD SVG 1.1//EN"
 "http://www.w3.org/Graphics/SVG/1.1/DTD/svg11.dtd">
<!-- Generated by graphviz version 2.40.1 (20161225.0304)
 -->
<!-- Title: arc::smoothertep Pages: 1 -->
<svg width="348pt" height="80pt"
 viewBox="0.00 0.00 348.00 80.00" xmlns="http://www.w3.org/2000/svg" xmlns:xlink="http://www.w3.org/1999/xlink">
<g id="graph0" class="graph" transform="scale(1 1) rotate(0) translate(4 76)">
<title>arc::smoothertep</title>
<!-- Node113 -->
<g id="node1" class="node">
<title>Node113</title>
<polygon fill="#bfbfbf" stroke="#000000" points="0,-18.5 0,-35.5 101,-35.5 101,-18.5 0,-18.5"/>
<text text-anchor="middle" x="50.5" y="-25.1" font-family="InputSans" font-size="8.00" fill="#000000">arc::smoothertep</text>
</g>
<!-- Node114 -->
<g id="node2" class="node">
<title>Node114</title>
<g id="a_node2"><a xlink:href="namespacearc.html#a9b93516263eda5c4d4b2710f6f54dfa8" target="_top" xlink:title="arc::clamp">
<polygon fill="none" stroke="#000000" points="154.5,-36.5 154.5,-53.5 225.5,-53.5 225.5,-36.5 154.5,-36.5"/>
<text text-anchor="middle" x="190" y="-43.1" font-family="InputSans" font-size="8.00" fill="#000000">arc::clamp</text>
</a>
</g>
</g>
<!-- Node113&#45;&gt;Node114 -->
<g id="edge1" class="edge">
<title>Node113&#45;&gt;Node114</title>
<path fill="none" stroke="#191970" d="M101.2573,-33.5493C115.2872,-35.3596 130.4269,-37.3131 144.1598,-39.0851"/>
<polygon fill="#191970" stroke="#191970" points="143.9798,-42.5908 154.3455,-40.3994 144.8756,-35.6484 143.9798,-42.5908"/>
</g>
<!-- Node117 -->
<g id="node5" class="node">
<title>Node117</title>
<g id="a_node5"><a xlink:href="namespacearc.html#adbfc8ef5159dc8e0d5e36204e7fcb88a" target="_top" xlink:title="arc::nextPowerOf2">
<polygon fill="none" stroke="#000000" points="137,-.5 137,-17.5 243,-17.5 243,-.5 137,-.5"/>
<text text-anchor="middle" x="190" y="-7.1" font-family="InputSans" font-size="8.00" fill="#000000">arc::nextPowerOf2</text>
</a>
</g>
</g>
<!-- Node113&#45;&gt;Node117 -->
<g id="edge4" class="edge">
<title>Node113&#45;&gt;Node117</title>
<path fill="none" stroke="#191970" d="M101.2573,-20.4507C109.5443,-19.3814 118.2184,-18.2621 126.7612,-17.1598"/>
<polygon fill="#191970" stroke="#191970" points="127.2283,-20.6287 136.6982,-15.8777 126.3324,-13.6862 127.2283,-20.6287"/>
</g>
<!-- Node115 -->
<g id="node3" class="node">
<title>Node115</title>
<g id="a_node3"><a xlink:href="namespacearc.html#a1643795165195844fc215c68cc0318c9" target="_top" xlink:title="arc::max">
<polygon fill="none" stroke="#000000" points="279,-54.5 279,-71.5 340,-71.5 340,-54.5 279,-54.5"/>
<text text-anchor="middle" x="309.5" y="-61.1" font-family="InputSans" font-size="8.00" fill="#000000">arc::max</text>
</a>
</g>
</g>
<!-- Node114&#45;&gt;Node115 -->
<g id="edge2" class="edge">
<title>Node114&#45;&gt;Node115</title>
<path fill="none" stroke="#191970" d="M225.5304,-50.3519C239.1495,-52.4033 254.7894,-54.7591 268.8517,-56.8772"/>
<polygon fill="#191970" stroke="#191970" points="268.3512,-60.3413 278.761,-58.3699 269.3939,-53.4193 268.3512,-60.3413"/>
</g>
<!-- Node116 -->
<g id="node4" class="node">
<title>Node116</title>
<g id="a_node4"><a xlink:href="namespacearc.html#ae4aaac0faf664d9964ce8e9543511258" target="_top" xlink:title="arc::min">
<polygon fill="none" stroke="#000000" points="280,-18.5 280,-35.5 339,-35.5 339,-18.5 280,-18.5"/>
<text text-anchor="middle" x="309.5" y="-25.1" font-family="InputSans" font-size="8.00" fill="#000000">arc::min</text>
</a>
</g>
</g>
<!-- Node114&#45;&gt;Node116 -->
<g id="edge3" class="edge">
<title>Node114&#45;&gt;Node116</title>
<path fill="none" stroke="#191970" d="M225.5304,-39.6481C239.4816,-37.5467 255.5535,-35.1258 269.8778,-32.9682"/>
<polygon fill="#191970" stroke="#191970" points="270.5768,-36.4025 279.9439,-31.452 269.5341,-29.4806 270.5768,-36.4025"/>
</g>
</g>
</svg>
