<?xml version="1.0" encoding="UTF-8" standalone="no"?>
<!DOCTYPE svg PUBLIC "-//W3C//DTD SVG 1.1//EN"
 "http://www.w3.org/Graphics/SVG/1.1/DTD/svg11.dtd">
<!-- Generated by graphviz version 2.40.1 (20161225.0304)
 -->
<!-- Title: arc::max Pages: 1 -->
<svg width="313pt" height="26pt"
 viewBox="0.00 0.00 313.00 26.00" xmlns="http://www.w3.org/2000/svg" xmlns:xlink="http://www.w3.org/1999/xlink">
<g id="graph0" class="graph" transform="scale(1 1) rotate(0) translate(4 22)">
<title>arc::max</title>
<!-- Node37 -->
<g id="node1" class="node">
<title>Node37</title>
<polygon fill="#bfbfbf" stroke="#000000" points="0,-.5 0,-17.5 61,-17.5 61,-.5 0,-.5"/>
<text text-anchor="middle" x="30.5" y="-7.1" font-family="InputSans" font-size="8.00" fill="#000000">arc::max</text>
</g>
<!-- Node38 -->
<g id="node2" class="node">
<title>Node38</title>
<g id="a_node2"><a xlink:href="namespacearc.html#a9b93516263eda5c4d4b2710f6f54dfa8" target="_top" xlink:title="arc::clamp">
<polygon fill="none" stroke="#000000" points="97,-.5 97,-17.5 168,-17.5 168,-.5 97,-.5"/>
<text text-anchor="middle" x="132.5" y="-7.1" font-family="InputSans" font-size="8.00" fill="#000000">arc::clamp</text>
</a>
</g>
</g>
<!-- Node37&#45;&gt;Node38 -->
<g id="edge1" class="edge">
<title>Node37&#45;&gt;Node38</title>
<path fill="none" stroke="#191970" d="M71.2053,-9C79.7038,-9 88.6003,-9 96.897,-9"/>
<polygon fill="#191970" stroke="#191970" points="71.1034,-5.5001 61.1034,-9 71.1033,-12.5001 71.1034,-5.5001"/>
</g>
<!-- Node39 -->
<g id="node3" class="node">
<title>Node39</title>
<g id="a_node3"><a xlink:href="namespacearc.html#a7e4bd1f160eb50c3afd6f5f7df2d6eb0" target="_top" xlink:title="arc::smoothertep">
<polygon fill="none" stroke="#000000" points="204,-.5 204,-17.5 305,-17.5 305,-.5 204,-.5"/>
<text text-anchor="middle" x="254.5" y="-7.1" font-family="InputSans" font-size="8.00" fill="#000000">arc::smoothertep</text>
</a>
</g>
</g>
<!-- Node38&#45;&gt;Node39 -->
<g id="edge2" class="edge">
<title>Node38&#45;&gt;Node39</title>
<path fill="none" stroke="#191970" d="M178.3244,-9C186.591,-9 195.2547,-9 203.6541,-9"/>
<polygon fill="#191970" stroke="#191970" points="178.1154,-5.5001 168.1154,-9 178.1154,-12.5001 178.1154,-5.5001"/>
</g>
</g>
</svg>
