<?xml version="1.0" encoding="UTF-8" standalone="no"?>
<!DOCTYPE svg PUBLIC "-//W3C//DTD SVG 1.1//EN"
 "http://www.w3.org/Graphics/SVG/1.1/DTD/svg11.dtd">
<!-- Generated by graphviz version 2.40.1 (20161225.0304)
 -->
<!-- Title: arc::lengthSquared Pages: 1 -->
<svg width="352pt" height="26pt"
 viewBox="0.00 0.00 352.00 26.00" xmlns="http://www.w3.org/2000/svg" xmlns:xlink="http://www.w3.org/1999/xlink">
<g id="graph0" class="graph" transform="scale(1 1) rotate(0) translate(4 22)">
<title>arc::lengthSquared</title>
<!-- Node33 -->
<g id="node1" class="node">
<title>Node33</title>
<polygon fill="#bfbfbf" stroke="#000000" points="0,-.5 0,-17.5 110,-17.5 110,-.5 0,-.5"/>
<text text-anchor="middle" x="55" y="-7.1" font-family="InputSans" font-size="8.00" fill="#000000">arc::lengthSquared</text>
</g>
<!-- Node34 -->
<g id="node2" class="node">
<title>Node34</title>
<g id="a_node2"><a xlink:href="namespacearc.html#a919863b7a2b844d23c210dd601ea0272" target="_top" xlink:title="Calculate length of vector. ">
<polygon fill="none" stroke="#000000" points="146,-.5 146,-17.5 219,-17.5 219,-.5 146,-.5"/>
<text text-anchor="middle" x="182.5" y="-7.1" font-family="InputSans" font-size="8.00" fill="#000000">arc::length</text>
</a>
</g>
</g>
<!-- Node33&#45;&gt;Node34 -->
<g id="edge1" class="edge">
<title>Node33&#45;&gt;Node34</title>
<path fill="none" stroke="#191970" d="M120.4631,-9C129.2383,-9 137.9701,-9 145.993,-9"/>
<polygon fill="#191970" stroke="#191970" points="120.1818,-5.5001 110.1818,-9 120.1818,-12.5001 120.1818,-5.5001"/>
</g>
<!-- Node35 -->
<g id="node3" class="node">
<title>Node35</title>
<g id="a_node3"><a xlink:href="namespacearc.html#aa96cc003d3e44b878b751c35e2240581" target="_top" xlink:title="Calculates normalized unit vector of input vector. ">
<polygon fill="none" stroke="#000000" points="255,-.5 255,-17.5 344,-17.5 344,-.5 255,-.5"/>
<text text-anchor="middle" x="299.5" y="-7.1" font-family="InputSans" font-size="8.00" fill="#000000">arc::normalize</text>
</a>
</g>
</g>
<!-- Node34&#45;&gt;Node35 -->
<g id="edge2" class="edge">
<title>Node34&#45;&gt;Node35</title>
<path fill="none" stroke="#191970" d="M229.2279,-9C237.6278,-9 246.3656,-9 254.7091,-9"/>
<polygon fill="#191970" stroke="#191970" points="229.1986,-5.5001 219.1985,-9 229.1985,-12.5001 229.1986,-5.5001"/>
</g>
</g>
</svg>
