<?xml version="1.0" encoding="UTF-8" standalone="no"?>
<!DOCTYPE svg PUBLIC "-//W3C//DTD SVG 1.1//EN"
 "http://www.w3.org/Graphics/SVG/1.1/DTD/svg11.dtd">
<!-- Generated by graphviz version 2.40.1 (20161225.0304)
 -->
<!-- Title: arc::lengthSquared Pages: 1 -->
<svg width="318pt" height="26pt"
 viewBox="0.00 0.00 318.00 26.00" xmlns="http://www.w3.org/2000/svg" xmlns:xlink="http://www.w3.org/1999/xlink">
<g id="graph0" class="graph" transform="scale(1 1) rotate(0) translate(4 22)">
<title>arc::lengthSquared</title>
<!-- Node33 -->
<g id="node1" class="node">
<title>Node33</title>
<polygon fill="#bfbfbf" stroke="#000000" points="0,-.5 0,-17.5 98,-17.5 98,-.5 0,-.5"/>
<text text-anchor="middle" x="49" y="-7.1" font-family="InputSans" font-size="8.00" fill="#000000">arc::lengthSquared</text>
</g>
<!-- Node34 -->
<g id="node2" class="node">
<title>Node34</title>
<g id="a_node2"><a xlink:href="namespacearc.html#a919863b7a2b844d23c210dd601ea0272" target="_top" xlink:title="Calculate length of vector. ">
<polygon fill="none" stroke="#000000" points="134,-.5 134,-17.5 196,-17.5 196,-.5 134,-.5"/>
<text text-anchor="middle" x="165" y="-7.1" font-family="InputSans" font-size="8.00" fill="#000000">arc::length</text>
</a>
</g>
</g>
<!-- Node33&#45;&gt;Node34 -->
<g id="edge1" class="edge">
<title>Node33&#45;&gt;Node34</title>
<path fill="none" stroke="#191970" d="M108.1956,-9C117.0791,-9 125.9252,-9 133.8998,-9"/>
<polygon fill="#191970" stroke="#191970" points="108.1945,-5.5001 98.1944,-9 108.1944,-12.5001 108.1945,-5.5001"/>
</g>
<!-- Node35 -->
<g id="node3" class="node">
<title>Node35</title>
<g id="a_node3"><a xlink:href="namespacearc.html#aa96cc003d3e44b878b751c35e2240581" target="_top" xlink:title="Calculates normalized unit vector of input vector. ">
<polygon fill="none" stroke="#000000" points="232,-.5 232,-17.5 310,-17.5 310,-.5 232,-.5"/>
<text text-anchor="middle" x="271" y="-7.1" font-family="InputSans" font-size="8.00" fill="#000000">arc::normalize</text>
</a>
</g>
</g>
<!-- Node34&#45;&gt;Node35 -->
<g id="edge2" class="edge">
<title>Node34&#45;&gt;Node35</title>
<path fill="none" stroke="#191970" d="M206.4724,-9C214.7776,-9 223.4797,-9 231.7084,-9"/>
<polygon fill="#191970" stroke="#191970" points="206.2302,-5.5001 196.2302,-9 206.2301,-12.5001 206.2302,-5.5001"/>
</g>
</g>
</svg>
