<?xml version="1.0" encoding="UTF-8" standalone="no"?>
<!DOCTYPE svg PUBLIC "-//W3C//DTD SVG 1.1//EN"
 "http://www.w3.org/Graphics/SVG/1.1/DTD/svg11.dtd">
<!-- Generated by graphviz version 2.40.1 (20161225.0304)
 -->
<!-- Title: arc::python::pythonOmGeneralize Pages: 1 -->
<svg width="395pt" height="72pt"
 viewBox="0.00 0.00 395.00 71.50" xmlns="http://www.w3.org/2000/svg" xmlns:xlink="http://www.w3.org/1999/xlink">
<g id="graph0" class="graph" transform="scale(1 1) rotate(0) translate(4 67.5)">
<title>arc::python::pythonOmGeneralize</title>
<!-- Node11 -->
<g id="node1" class="node">
<title>Node11</title>
<polygon fill="#bfbfbf" stroke="#000000" points="0,-20.5 0,-37.5 177,-37.5 177,-20.5 0,-20.5"/>
<text text-anchor="middle" x="88.5" y="-27.1" font-family="InputSans" font-size="8.00" fill="#000000">arc::python::pythonOmGeneralize</text>
</g>
<!-- Node12 -->
<g id="node2" class="node">
<title>Node12</title>
<g id="a_node2"><a xlink:href="namespacearc_1_1python.html#ac0c1fe2dab1af30d98c87632be0d1921" target="_top" xlink:title="arc::python::pythonOmFrom\lApiCast">
<polygon fill="none" stroke="#000000" points="225.5,-37 225.5,-63 374.5,-63 374.5,-37 225.5,-37"/>
<text text-anchor="start" x="233.5" y="-52.6" font-family="InputSans" font-size="8.00" fill="#000000">arc::python::pythonOmFrom</text>
<text text-anchor="middle" x="300" y="-43.6" font-family="InputSans" font-size="8.00" fill="#000000">ApiCast</text>
</a>
</g>
</g>
<!-- Node11&#45;&gt;Node12 -->
<g id="edge1" class="edge">
<title>Node11&#45;&gt;Node12</title>
<path fill="none" stroke="#191970" d="M174.2202,-37.5112C187.7248,-38.8521 201.6818,-40.2379 215.1661,-41.5768"/>
<polygon fill="#191970" stroke="#191970" points="215.0733,-45.0847 225.3702,-42.59 215.765,-38.1189 215.0733,-45.0847"/>
</g>
<!-- Node13 -->
<g id="node3" class="node">
<title>Node13</title>
<g id="a_node3"><a xlink:href="namespacearc_1_1python.html#a536c248b651aee02e47e0f6a2986f163" target="_top" xlink:title="arc::python::pythonOmToApiCast">
<polygon fill="none" stroke="#000000" points="213,-.5 213,-17.5 387,-17.5 387,-.5 213,-.5"/>
<text text-anchor="middle" x="300" y="-7.1" font-family="InputSans" font-size="8.00" fill="#000000">arc::python::pythonOmToApiCast</text>
</a>
</g>
</g>
<!-- Node11&#45;&gt;Node13 -->
<g id="edge2" class="edge">
<title>Node11&#45;&gt;Node13</title>
<path fill="none" stroke="#191970" d="M177.2757,-20.6051C185.7259,-19.8061 194.3245,-18.993 202.8481,-18.1869"/>
<polygon fill="#191970" stroke="#191970" points="203.1802,-21.6712 212.8063,-17.2453 202.5212,-14.7023 203.1802,-21.6712"/>
</g>
</g>
</svg>
