<?xml version="1.0" encoding="UTF-8" standalone="no"?>
<!DOCTYPE svg PUBLIC "-//W3C//DTD SVG 1.1//EN"
 "http://www.w3.org/Graphics/SVG/1.1/DTD/svg11.dtd">
<!-- Generated by graphviz version 2.40.1 (20161225.0304)
 -->
<!-- Title: arc::length Pages: 1 -->
<svg width="204pt" height="62pt"
 viewBox="0.00 0.00 204.00 62.00" xmlns="http://www.w3.org/2000/svg" xmlns:xlink="http://www.w3.org/1999/xlink">
<g id="graph0" class="graph" transform="scale(1 1) rotate(0) translate(4 58)">
<title>arc::length</title>
<!-- Node27 -->
<g id="node1" class="node">
<title>Node27</title>
<polygon fill="#bfbfbf" stroke="#000000" points="0,-18.5 0,-35.5 62,-35.5 62,-18.5 0,-18.5"/>
<text text-anchor="middle" x="31" y="-25.1" font-family="InputSans" font-size="8.00" fill="#000000">arc::length</text>
</g>
<!-- Node28 -->
<g id="node2" class="node">
<title>Node28</title>
<g id="a_node2"><a xlink:href="namespacearc.html#ac3005537cdf92d015c35b78e18de1ba3" target="_top" xlink:title="arc::sqrt">
<polygon fill="none" stroke="#000000" points="120.5,-36.5 120.5,-53.5 173.5,-53.5 173.5,-36.5 120.5,-36.5"/>
<text text-anchor="middle" x="147" y="-43.1" font-family="InputSans" font-size="8.00" fill="#000000">arc::sqrt</text>
</a>
</g>
</g>
<!-- Node27&#45;&gt;Node28 -->
<g id="edge1" class="edge">
<title>Node27&#45;&gt;Node28</title>
<path fill="none" stroke="#191970" d="M62.0859,-31.8237C76.8082,-34.1082 94.5034,-36.854 109.921,-39.2464"/>
<polygon fill="#191970" stroke="#191970" points="109.748,-42.7613 120.1664,-40.8362 110.8214,-35.8441 109.748,-42.7613"/>
</g>
<!-- Node29 -->
<g id="node3" class="node">
<title>Node29</title>
<g id="a_node3"><a xlink:href="namespacearc.html#a07882e1693d34c608ffda3b362931f5d" target="_top" xlink:title="Calculate length squared of 2D vector. ">
<polygon fill="none" stroke="#000000" points="98,-.5 98,-17.5 196,-17.5 196,-.5 98,-.5"/>
<text text-anchor="middle" x="147" y="-7.1" font-family="InputSans" font-size="8.00" fill="#000000">arc::lengthSquared</text>
</a>
</g>
</g>
<!-- Node27&#45;&gt;Node29 -->
<g id="edge2" class="edge">
<title>Node27&#45;&gt;Node29</title>
<path fill="none" stroke="#191970" d="M62.0859,-22.1763C70.0825,-20.9355 78.9562,-19.5585 87.8656,-18.176"/>
<polygon fill="#191970" stroke="#191970" points="88.5499,-21.6118 97.8949,-16.6198 87.4764,-14.6946 88.5499,-21.6118"/>
</g>
</g>
</svg>
