<?xml version="1.0" encoding="UTF-8" standalone="no"?>
<!DOCTYPE svg PUBLIC "-//W3C//DTD SVG 1.1//EN"
 "http://www.w3.org/Graphics/SVG/1.1/DTD/svg11.dtd">
<!-- Generated by graphviz version 2.40.1 (20161225.0304)
 -->
<!-- Title: arc::sqrt Pages: 1 -->
<svg width="273pt" height="26pt"
 viewBox="0.00 0.00 273.00 26.00" xmlns="http://www.w3.org/2000/svg" xmlns:xlink="http://www.w3.org/1999/xlink">
<g id="graph0" class="graph" transform="scale(1 1) rotate(0) translate(4 22)">
<title>arc::sqrt</title>
<!-- Node126 -->
<g id="node1" class="node">
<title>Node126</title>
<polygon fill="#bfbfbf" stroke="#000000" points="0,-.5 0,-17.5 53,-17.5 53,-.5 0,-.5"/>
<text text-anchor="middle" x="26.5" y="-7.1" font-family="InputSans" font-size="8.00" fill="#000000">arc::sqrt</text>
</g>
<!-- Node127 -->
<g id="node2" class="node">
<title>Node127</title>
<g id="a_node2"><a xlink:href="namespacearc.html#a919863b7a2b844d23c210dd601ea0272" target="_top" xlink:title="Calculate length of vector. ">
<polygon fill="none" stroke="#000000" points="89,-.5 89,-17.5 151,-17.5 151,-.5 89,-.5"/>
<text text-anchor="middle" x="120" y="-7.1" font-family="InputSans" font-size="8.00" fill="#000000">arc::length</text>
</a>
</g>
</g>
<!-- Node126&#45;&gt;Node127 -->
<g id="edge1" class="edge">
<title>Node126&#45;&gt;Node127</title>
<path fill="none" stroke="#191970" d="M63.0814,-9C71.5676,-9 80.5236,-9 88.7562,-9"/>
<polygon fill="#191970" stroke="#191970" points="63.0433,-5.5001 53.0432,-9 63.0432,-12.5001 63.0433,-5.5001"/>
</g>
<!-- Node128 -->
<g id="node3" class="node">
<title>Node128</title>
<g id="a_node3"><a xlink:href="namespacearc.html#aa96cc003d3e44b878b751c35e2240581" target="_top" xlink:title="Calculates normalized unit vector of input vector. ">
<polygon fill="none" stroke="#000000" points="187,-.5 187,-17.5 265,-17.5 265,-.5 187,-.5"/>
<text text-anchor="middle" x="226" y="-7.1" font-family="InputSans" font-size="8.00" fill="#000000">arc::normalize</text>
</a>
</g>
</g>
<!-- Node127&#45;&gt;Node128 -->
<g id="edge2" class="edge">
<title>Node127&#45;&gt;Node128</title>
<path fill="none" stroke="#191970" d="M161.4724,-9C169.7776,-9 178.4797,-9 186.7084,-9"/>
<polygon fill="#191970" stroke="#191970" points="161.2302,-5.5001 151.2302,-9 161.2301,-12.5001 161.2302,-5.5001"/>
</g>
</g>
</svg>
