<?xml version="1.0" encoding="UTF-8" standalone="no"?>
<!DOCTYPE svg PUBLIC "-//W3C//DTD SVG 1.1//EN"
 "http://www.w3.org/Graphics/SVG/1.1/DTD/svg11.dtd">
<!-- Generated by graphviz version 2.40.1 (20161225.0304)
 -->
<!-- Title: arc::clamp Pages: 1 -->
<svg width="161pt" height="62pt"
 viewBox="0.00 0.00 161.00 62.00" xmlns="http://www.w3.org/2000/svg" xmlns:xlink="http://www.w3.org/1999/xlink">
<g id="graph0" class="graph" transform="scale(1 1) rotate(0) translate(4 58)">
<title>arc::clamp</title>
<!-- Node6 -->
<g id="node1" class="node">
<title>Node6</title>
<polygon fill="#bfbfbf" stroke="#000000" points="0,-18.5 0,-35.5 62,-35.5 62,-18.5 0,-18.5"/>
<text text-anchor="middle" x="31" y="-25.1" font-family="InputSans" font-size="8.00" fill="#000000">arc::clamp</text>
</g>
<!-- Node7 -->
<g id="node2" class="node">
<title>Node7</title>
<g id="a_node2"><a xlink:href="namespacearc.html#a1643795165195844fc215c68cc0318c9" target="_top" xlink:title="arc::max">
<polygon fill="none" stroke="#000000" points="98,-36.5 98,-53.5 153,-53.5 153,-36.5 98,-36.5"/>
<text text-anchor="middle" x="125.5" y="-43.1" font-family="InputSans" font-size="8.00" fill="#000000">arc::max</text>
</a>
</g>
</g>
<!-- Node6&#45;&gt;Node7 -->
<g id="edge1" class="edge">
<title>Node6&#45;&gt;Node7</title>
<path fill="none" stroke="#191970" d="M62.2047,-32.9438C70.384,-34.5017 79.2912,-36.1983 87.7715,-37.8136"/>
<polygon fill="#191970" stroke="#191970" points="87.3479,-41.2958 97.8262,-39.7288 88.6577,-34.4194 87.3479,-41.2958"/>
</g>
<!-- Node8 -->
<g id="node3" class="node">
<title>Node8</title>
<g id="a_node3"><a xlink:href="namespacearc.html#ae4aaac0faf664d9964ce8e9543511258" target="_top" xlink:title="arc::min">
<polygon fill="none" stroke="#000000" points="99.5,-.5 99.5,-17.5 151.5,-17.5 151.5,-.5 99.5,-.5"/>
<text text-anchor="middle" x="125.5" y="-7.1" font-family="InputSans" font-size="8.00" fill="#000000">arc::min</text>
</a>
</g>
</g>
<!-- Node6&#45;&gt;Node8 -->
<g id="edge2" class="edge">
<title>Node6&#45;&gt;Node8</title>
<path fill="none" stroke="#191970" d="M62.2047,-21.0562C70.9544,-19.3896 80.537,-17.5644 89.5389,-15.8497"/>
<polygon fill="#191970" stroke="#191970" points="90.2119,-19.2846 99.3803,-13.9752 88.902,-12.4082 90.2119,-19.2846"/>
</g>
</g>
</svg>
