<?xml version="1.0" encoding="UTF-8" standalone="no"?>
<!DOCTYPE svg PUBLIC "-//W3C//DTD SVG 1.1//EN"
 "http://www.w3.org/Graphics/SVG/1.1/DTD/svg11.dtd">
<!-- Generated by graphviz version 2.40.1 (20161225.0304)
 -->
<!-- Title: arc::plot::surfacePlot Pages: 1 -->
<svg width="324pt" height="80pt"
 viewBox="0.00 0.00 324.00 80.00" xmlns="http://www.w3.org/2000/svg" xmlns:xlink="http://www.w3.org/1999/xlink">
<g id="graph0" class="graph" transform="scale(1 1) rotate(0) translate(4 76)">
<title>arc::plot::surfacePlot</title>
<!-- Node12 -->
<g id="node1" class="node">
<title>Node12</title>
<polygon fill="#bfbfbf" stroke="#000000" points="0,-27 0,-44 127,-44 127,-27 0,-27"/>
<text text-anchor="middle" x="63.5" y="-33.6" font-family="InputSans" font-size="8.00" fill="#000000">arc::plot::surfacePlot</text>
</g>
<!-- Node13 -->
<g id="node2" class="node">
<title>Node13</title>
<g id="a_node2"><a xlink:href="classarc_1_1python_1_1_python_function.html#a05b1fffba4d5650dffa0140135bb21e2" target="_top" xlink:title="arc::python::PythonFunction\l::call">
<polygon fill="none" stroke="#000000" points="163,-45.5 163,-71.5 316,-71.5 316,-45.5 163,-45.5"/>
<text text-anchor="start" x="171" y="-61.1" font-family="InputSans" font-size="8.00" fill="#000000">arc::python::PythonFunction</text>
<text text-anchor="middle" x="239.5" y="-52.1" font-family="InputSans" font-size="8.00" fill="#000000">::call</text>
</a>
</g>
</g>
<!-- Node12&#45;&gt;Node13 -->
<g id="edge1" class="edge">
<title>Node12&#45;&gt;Node13</title>
<path fill="none" stroke="#191970" d="M127.04,-43.8035C135.3909,-44.8948 144.0611,-46.0279 152.7155,-47.1588"/>
<polygon fill="#191970" stroke="#191970" points="152.4786,-50.6576 162.8478,-48.483 153.3857,-43.7166 152.4786,-50.6576"/>
</g>
<!-- Node14 -->
<g id="node3" class="node">
<title>Node14</title>
<g id="a_node3"><a xlink:href="classarc_1_1python_1_1_python_object.html#ab5d924c554bddb450591e7c42aa639a1" target="_top" xlink:title="arc::python::PythonObject\l::isValid">
<polygon fill="none" stroke="#000000" points="168,-.5 168,-26.5 311,-26.5 311,-.5 168,-.5"/>
<text text-anchor="start" x="176" y="-16.1" font-family="InputSans" font-size="8.00" fill="#000000">arc::python::PythonObject</text>
<text text-anchor="middle" x="239.5" y="-7.1" font-family="InputSans" font-size="8.00" fill="#000000">::isValid</text>
</a>
</g>
</g>
<!-- Node12&#45;&gt;Node14 -->
<g id="edge2" class="edge">
<title>Node12&#45;&gt;Node14</title>
<path fill="none" stroke="#191970" d="M127.04,-27.5575C137.1133,-26.2983 147.651,-24.9811 158.0654,-23.6793"/>
<polygon fill="#191970" stroke="#191970" points="158.5047,-27.1517 167.9934,-22.4383 157.6364,-20.2058 158.5047,-27.1517"/>
</g>
</g>
</svg>
