<?xml version="1.0" encoding="UTF-8" standalone="no"?>
<!DOCTYPE svg PUBLIC "-//W3C//DTD SVG 1.1//EN"
 "http://www.w3.org/Graphics/SVG/1.1/DTD/svg11.dtd">
<!-- Generated by graphviz version 2.40.1 (20161225.0304)
 -->
<!-- Title: arc::length Pages: 1 -->
<svg width="227pt" height="62pt"
 viewBox="0.00 0.00 227.00 62.00" xmlns="http://www.w3.org/2000/svg" xmlns:xlink="http://www.w3.org/1999/xlink">
<g id="graph0" class="graph" transform="scale(1 1) rotate(0) translate(4 58)">
<title>arc::length</title>
<!-- Node27 -->
<g id="node1" class="node">
<title>Node27</title>
<polygon fill="#bfbfbf" stroke="#000000" points="0,-18.5 0,-35.5 73,-35.5 73,-18.5 0,-18.5"/>
<text text-anchor="middle" x="36.5" y="-25.1" font-family="InputSans" font-size="8.00" fill="#000000">arc::length</text>
</g>
<!-- Node28 -->
<g id="node2" class="node">
<title>Node28</title>
<g id="a_node2"><a xlink:href="namespacearc.html#ac3005537cdf92d015c35b78e18de1ba3" target="_top" xlink:title="arc::sqrt">
<polygon fill="none" stroke="#000000" points="133,-36.5 133,-53.5 195,-53.5 195,-36.5 133,-36.5"/>
<text text-anchor="middle" x="164" y="-43.1" font-family="InputSans" font-size="8.00" fill="#000000">arc::sqrt</text>
</a>
</g>
</g>
<!-- Node27&#45;&gt;Node28 -->
<g id="edge1" class="edge">
<title>Node27&#45;&gt;Node28</title>
<path fill="none" stroke="#191970" d="M73.0364,-32.1581C88.4894,-34.3397 106.5688,-36.8921 122.5204,-39.1441"/>
<polygon fill="#191970" stroke="#191970" points="122.2556,-42.6413 132.6467,-40.5737 123.2342,-35.71 122.2556,-42.6413"/>
</g>
<!-- Node29 -->
<g id="node3" class="node">
<title>Node29</title>
<g id="a_node3"><a xlink:href="namespacearc.html#a07882e1693d34c608ffda3b362931f5d" target="_top" xlink:title="Calculate length squared of 2D vector. ">
<polygon fill="none" stroke="#000000" points="109,-.5 109,-17.5 219,-17.5 219,-.5 109,-.5"/>
<text text-anchor="middle" x="164" y="-7.1" font-family="InputSans" font-size="8.00" fill="#000000">arc::lengthSquared</text>
</a>
</g>
</g>
<!-- Node27&#45;&gt;Node29 -->
<g id="edge2" class="edge">
<title>Node27&#45;&gt;Node29</title>
<path fill="none" stroke="#191970" d="M73.0364,-21.8419C81.163,-20.6946 90.016,-19.4448 98.9039,-18.19"/>
<polygon fill="#191970" stroke="#191970" points="99.5041,-21.6401 108.9166,-16.7765 98.5255,-14.7088 99.5041,-21.6401"/>
</g>
</g>
</svg>
