<?xml version="1.0" encoding="UTF-8" standalone="no"?>
<!DOCTYPE svg PUBLIC "-//W3C//DTD SVG 1.1//EN"
 "http://www.w3.org/Graphics/SVG/1.1/DTD/svg11.dtd">
<!-- Generated by graphviz version 2.40.1 (20161225.0304)
 -->
<!-- Title: arc::normalize Pages: 1 -->
<svg width="318pt" height="62pt"
 viewBox="0.00 0.00 318.00 62.00" xmlns="http://www.w3.org/2000/svg" xmlns:xlink="http://www.w3.org/1999/xlink">
<g id="graph0" class="graph" transform="scale(1 1) rotate(0) translate(4 58)">
<title>arc::normalize</title>
<!-- Node51 -->
<g id="node1" class="node">
<title>Node51</title>
<polygon fill="#bfbfbf" stroke="#000000" points="0,-18.5 0,-35.5 78,-35.5 78,-18.5 0,-18.5"/>
<text text-anchor="middle" x="39" y="-25.1" font-family="InputSans" font-size="8.00" fill="#000000">arc::normalize</text>
</g>
<!-- Node52 -->
<g id="node2" class="node">
<title>Node52</title>
<g id="a_node2"><a xlink:href="namespacearc.html#a919863b7a2b844d23c210dd601ea0272" target="_top" xlink:title="Calculate length of vector. ">
<polygon fill="none" stroke="#000000" points="114,-18.5 114,-35.5 176,-35.5 176,-18.5 114,-18.5"/>
<text text-anchor="middle" x="145" y="-25.1" font-family="InputSans" font-size="8.00" fill="#000000">arc::length</text>
</a>
</g>
</g>
<!-- Node51&#45;&gt;Node52 -->
<g id="edge1" class="edge">
<title>Node51&#45;&gt;Node52</title>
<path fill="none" stroke="#191970" d="M78.1693,-27C86.5549,-27 95.4371,-27 103.8934,-27"/>
<polygon fill="#191970" stroke="#191970" points="103.9351,-30.5001 113.935,-27 103.935,-23.5001 103.9351,-30.5001"/>
</g>
<!-- Node53 -->
<g id="node3" class="node">
<title>Node53</title>
<g id="a_node3"><a xlink:href="namespacearc.html#ac3005537cdf92d015c35b78e18de1ba3" target="_top" xlink:title="arc::sqrt">
<polygon fill="none" stroke="#000000" points="234.5,-36.5 234.5,-53.5 287.5,-53.5 287.5,-36.5 234.5,-36.5"/>
<text text-anchor="middle" x="261" y="-43.1" font-family="InputSans" font-size="8.00" fill="#000000">arc::sqrt</text>
</a>
</g>
</g>
<!-- Node52&#45;&gt;Node53 -->
<g id="edge2" class="edge">
<title>Node52&#45;&gt;Node53</title>
<path fill="none" stroke="#191970" d="M176.0859,-31.8237C190.8082,-34.1082 208.5034,-36.854 223.921,-39.2464"/>
<polygon fill="#191970" stroke="#191970" points="223.748,-42.7613 234.1664,-40.8362 224.8214,-35.8441 223.748,-42.7613"/>
</g>
<!-- Node54 -->
<g id="node4" class="node">
<title>Node54</title>
<g id="a_node4"><a xlink:href="namespacearc.html#a07882e1693d34c608ffda3b362931f5d" target="_top" xlink:title="Calculate length squared of 2D vector. ">
<polygon fill="none" stroke="#000000" points="212,-.5 212,-17.5 310,-17.5 310,-.5 212,-.5"/>
<text text-anchor="middle" x="261" y="-7.1" font-family="InputSans" font-size="8.00" fill="#000000">arc::lengthSquared</text>
</a>
</g>
</g>
<!-- Node52&#45;&gt;Node54 -->
<g id="edge3" class="edge">
<title>Node52&#45;&gt;Node54</title>
<path fill="none" stroke="#191970" d="M176.0859,-22.1763C184.0825,-20.9355 192.9562,-19.5585 201.8656,-18.176"/>
<polygon fill="#191970" stroke="#191970" points="202.5499,-21.6118 211.8949,-16.6198 201.4764,-14.6946 202.5499,-21.6118"/>
</g>
</g>
</svg>
