<?xml version="1.0" encoding="UTF-8" standalone="no"?>
<!DOCTYPE svg PUBLIC "-//W3C//DTD SVG 1.1//EN"
 "http://www.w3.org/Graphics/SVG/1.1/DTD/svg11.dtd">
<!-- Generated by graphviz version 2.40.1 (20161225.0304)
 -->
<!-- Title: arc::abs Pages: 1 -->
<svg width="316pt" height="26pt"
 viewBox="0.00 0.00 316.00 26.00" xmlns="http://www.w3.org/2000/svg" xmlns:xlink="http://www.w3.org/1999/xlink">
<g id="graph0" class="graph" transform="scale(1 1) rotate(0) translate(4 22)">
<title>arc::abs</title>
<!-- Node1 -->
<g id="node1" class="node">
<title>Node1</title>
<polygon fill="#bfbfbf" stroke="#000000" points="0,-.5 0,-17.5 59,-17.5 59,-.5 0,-.5"/>
<text text-anchor="middle" x="29.5" y="-7.1" font-family="InputSans" font-size="8.00" fill="#000000">arc::abs</text>
</g>
<!-- Node2 -->
<g id="node2" class="node">
<title>Node2</title>
<g id="a_node2"><a xlink:href="namespacearc.html#accf402e2c9981646b74e76674a3c4f3d" target="_top" xlink:title="Minimizes function using Nelder&#45;Mead polytope algorithm. ">
<polygon fill="none" stroke="#000000" points="95,-.5 95,-17.5 233,-17.5 233,-.5 95,-.5"/>
<text text-anchor="middle" x="164" y="-7.1" font-family="InputSans" font-size="8.00" fill="#000000">arc::minimizeNelderMead</text>
</a>
</g>
</g>
<!-- Node1&#45;&gt;Node2 -->
<g id="edge1" class="edge">
<title>Node1&#45;&gt;Node2</title>
<path fill="none" stroke="#191970" d="M69.2424,-9C77.3411,-9 86.083,-9 94.8677,-9"/>
<polygon fill="#191970" stroke="#191970" points="69.0166,-5.5001 59.0166,-9 69.0166,-12.5001 69.0166,-5.5001"/>
</g>
<!-- Node3 -->
<g id="node3" class="node">
<title>Node3</title>
<g id="a_node3"><a xlink:href="assignment1-src_2_main_8cpp.html#a0ddf1224851353fc92bfbff6f499fa97" target="_top" xlink:title="main">
<polygon fill="none" stroke="#000000" points="269,-.5 269,-17.5 308,-17.5 308,-.5 269,-.5"/>
<text text-anchor="middle" x="288.5" y="-7.1" font-family="InputSans" font-size="8.00" fill="#000000">main</text>
</a>
</g>
</g>
<!-- Node2&#45;&gt;Node3 -->
<g id="edge2" class="edge">
<title>Node2&#45;&gt;Node3</title>
<path fill="none" stroke="#191970" d="M243.1741,-9C252.6198,-9 261.5029,-9 268.8595,-9"/>
<polygon fill="#191970" stroke="#191970" points="243.1675,-5.5001 233.1675,-9 243.1674,-12.5001 243.1675,-5.5001"/>
</g>
</g>
</svg>
