<?xml version="1.0" encoding="UTF-8" standalone="no"?>
<!DOCTYPE svg PUBLIC "-//W3C//DTD SVG 1.1//EN"
 "http://www.w3.org/Graphics/SVG/1.1/DTD/svg11.dtd">
<!-- Generated by graphviz version 2.40.1 (20161225.0304)
 -->
<!-- Title: arc::plot::listPlot Pages: 1 -->
<svg width="305pt" height="80pt"
 viewBox="0.00 0.00 305.00 80.00" xmlns="http://www.w3.org/2000/svg" xmlns:xlink="http://www.w3.org/1999/xlink">
<g id="graph0" class="graph" transform="scale(1 1) rotate(0) translate(4 76)">
<title>arc::plot::listPlot</title>
<!-- Node6 -->
<g id="node1" class="node">
<title>Node6</title>
<polygon fill="#bfbfbf" stroke="#000000" points="0,-27 0,-44 108,-44 108,-27 0,-27"/>
<text text-anchor="middle" x="54" y="-33.6" font-family="InputSans" font-size="8.00" fill="#000000">arc::plot::listPlot</text>
</g>
<!-- Node7 -->
<g id="node2" class="node">
<title>Node7</title>
<g id="a_node2"><a xlink:href="classarc_1_1python_1_1_python_function.html#a05b1fffba4d5650dffa0140135bb21e2" target="_top" xlink:title="arc::python::PythonFunction\l::call">
<polygon fill="none" stroke="#000000" points="144,-45.5 144,-71.5 297,-71.5 297,-45.5 144,-45.5"/>
<text text-anchor="start" x="152" y="-61.1" font-family="InputSans" font-size="8.00" fill="#000000">arc::python::PythonFunction</text>
<text text-anchor="middle" x="220.5" y="-52.1" font-family="InputSans" font-size="8.00" fill="#000000">::call</text>
</a>
</g>
</g>
<!-- Node6&#45;&gt;Node7 -->
<g id="edge1" class="edge">
<title>Node6&#45;&gt;Node7</title>
<path fill="none" stroke="#191970" d="M108.0578,-42.9674C116.2476,-44.0988 124.8691,-45.2897 133.5443,-46.4881"/>
<polygon fill="#191970" stroke="#191970" points="133.3454,-49.9938 143.7303,-47.8952 134.3033,-43.0596 133.3454,-49.9938"/>
</g>
<!-- Node8 -->
<g id="node3" class="node">
<title>Node8</title>
<g id="a_node3"><a xlink:href="classarc_1_1python_1_1_python_object.html#ab5d924c554bddb450591e7c42aa639a1" target="_top" xlink:title="arc::python::PythonObject\l::isValid">
<polygon fill="none" stroke="#000000" points="149,-.5 149,-26.5 292,-26.5 292,-.5 149,-.5"/>
<text text-anchor="start" x="157" y="-16.1" font-family="InputSans" font-size="8.00" fill="#000000">arc::python::PythonObject</text>
<text text-anchor="middle" x="220.5" y="-7.1" font-family="InputSans" font-size="8.00" fill="#000000">::isValid</text>
</a>
</g>
</g>
<!-- Node6&#45;&gt;Node8 -->
<g id="edge2" class="edge">
<title>Node6&#45;&gt;Node8</title>
<path fill="none" stroke="#191970" d="M108.0578,-28.3572C117.916,-27.0546 128.3996,-25.6694 138.8496,-24.2886"/>
<polygon fill="#191970" stroke="#191970" points="139.3815,-27.7489 148.8368,-22.969 138.4645,-20.8092 139.3815,-27.7489"/>
</g>
</g>
</svg>
