<?xml version="1.0" encoding="UTF-8" standalone="no"?>
<!DOCTYPE svg PUBLIC "-//W3C//DTD SVG 1.1//EN"
 "http://www.w3.org/Graphics/SVG/1.1/DTD/svg11.dtd">
<!-- Generated by graphviz version 2.40.1 (20161225.0304)
 -->
<!-- Title: /home/jacques/repos/math4171/src/playground/Main.cpp Pages: 1 -->
<svg width="1380pt" height="260pt"
 viewBox="0.00 0.00 1380.00 260.00" xmlns="http://www.w3.org/2000/svg" xmlns:xlink="http://www.w3.org/1999/xlink">
<g id="graph0" class="graph" transform="scale(1 1) rotate(0) translate(4 256)">
<title>/home/jacques/repos/math4171/src/playground/Main.cpp</title>
<!-- Node0 -->
<g id="node1" class="node">
<title>Node0</title>
<polygon fill="#bfbfbf" stroke="#000000" points="509.5,-216.5 509.5,-251.5 655.5,-251.5 655.5,-216.5 509.5,-216.5"/>
<text text-anchor="start" x="517.5" y="-241.1" font-family="InputSans" font-size="8.00" fill="#000000">/home/jacques/repos</text>
<text text-anchor="start" x="517.5" y="-232.1" font-family="InputSans" font-size="8.00" fill="#000000">/math4171/src/playground</text>
<text text-anchor="middle" x="582.5" y="-223.1" font-family="InputSans" font-size="8.00" fill="#000000">/Main.cpp</text>
</g>
<!-- Node1 -->
<g id="node2" class="node">
<title>Node1</title>
<polygon fill="none" stroke="#bfbfbf" points="21.5,-162.5 21.5,-179.5 71.5,-179.5 71.5,-162.5 21.5,-162.5"/>
<text text-anchor="middle" x="46.5" y="-169.1" font-family="InputSans" font-size="8.00" fill="#000000">cstdlib</text>
</g>
<!-- Node0&#45;&gt;Node1 -->
<g id="edge1" class="edge">
<title>Node0&#45;&gt;Node1</title>
<path fill="none" stroke="#191970" d="M509.28,-228.7762C412.0125,-221.2142 235.0469,-205.288 85.5,-180 84.2282,-179.7849 82.9358,-179.5537 81.6324,-179.3099"/>
<polygon fill="#191970" stroke="#191970" points="82.0865,-175.8302 71.5872,-177.2502 80.6804,-182.6876 82.0865,-175.8302"/>
</g>
<!-- Node2 -->
<g id="node3" class="node">
<title>Node2</title>
<polygon fill="none" stroke="#bfbfbf" points="730,-.5 730,-17.5 789,-17.5 789,-.5 730,-.5"/>
<text text-anchor="middle" x="759.5" y="-7.1" font-family="InputSans" font-size="8.00" fill="#000000">iostream</text>
</g>
<!-- Node0&#45;&gt;Node2 -->
<g id="edge2" class="edge">
<title>Node0&#45;&gt;Node2</title>
<path fill="none" stroke="#191970" d="M655.77,-231.5354C770.1668,-226.7022 985.1862,-213.3749 1053.5,-180 1083.7152,-165.2383 1093.4887,-157.0092 1106.5,-126 1118.8825,-96.4895 1128.6288,-78.0369 1107.5,-54 1087.3785,-31.109 886.0678,-16.5083 799.1345,-11.2245"/>
<polygon fill="#191970" stroke="#191970" points="799.3106,-7.7289 789.1197,-10.6264 798.8932,-14.7165 799.3106,-7.7289"/>
</g>
<!-- Node3 -->
<g id="node4" class="node">
<title>Node3</title>
<polygon fill="none" stroke="#bfbfbf" points="280,-54.5 280,-71.5 331,-71.5 331,-54.5 280,-54.5"/>
<text text-anchor="middle" x="305.5" y="-61.1" font-family="InputSans" font-size="8.00" fill="#000000">memory</text>
</g>
<!-- Node0&#45;&gt;Node3 -->
<g id="edge3" class="edge">
<title>Node0&#45;&gt;Node3</title>
<path fill="none" stroke="#191970" d="M509.1909,-227.1627C445.0868,-216.8443 355.6851,-190.9551 312.5,-126 303.8368,-112.9696 302.6376,-94.9789 303.2836,-81.5578"/>
<polygon fill="#191970" stroke="#191970" points="306.773,-81.8297 304.1369,-71.5681 299.7984,-81.2339 306.773,-81.8297"/>
</g>
<!-- Node4 -->
<g id="node5" class="node">
<title>Node4</title>
<polygon fill="none" stroke="#bfbfbf" points="390.5,-.5 390.5,-17.5 436.5,-17.5 436.5,-.5 390.5,-.5"/>
<text text-anchor="middle" x="413.5" y="-7.1" font-family="InputSans" font-size="8.00" fill="#000000">string</text>
</g>
<!-- Node0&#45;&gt;Node4 -->
<g id="edge4" class="edge">
<title>Node0&#45;&gt;Node4</title>
<path fill="none" stroke="#191970" d="M509.1973,-227.6216C396.9856,-216.0002 191.8492,-186.7541 156.5,-126 131.6863,-83.3532 197.8277,-65.6678 221.5,-54 286.4899,-21.9673 310.1988,-35.5363 380.5,-18 380.6008,-17.9748 380.7018,-17.9496 380.803,-17.9243"/>
<polygon fill="#191970" stroke="#191970" points="381.6527,-21.3198 390.4546,-15.4227 379.8963,-14.5437 381.6527,-21.3198"/>
</g>
<!-- Node5 -->
<g id="node6" class="node">
<title>Node5</title>
<polygon fill="none" stroke="#bfbfbf" points="787.5,-108.5 787.5,-125.5 833.5,-125.5 833.5,-108.5 787.5,-108.5"/>
<text text-anchor="middle" x="810.5" y="-115.1" font-family="InputSans" font-size="8.00" fill="#000000">vector</text>
</g>
<!-- Node0&#45;&gt;Node5 -->
<g id="edge5" class="edge">
<title>Node0&#45;&gt;Node5</title>
<path fill="none" stroke="#191970" d="M615.3234,-216.4596C643.0031,-201.7377 683.7144,-180.2481 719.5,-162 740.8291,-151.1237 765.1457,-139.1191 783.2734,-130.2463"/>
<polygon fill="#191970" stroke="#191970" points="785.2004,-133.2003 792.6494,-125.6662 782.1279,-126.9106 785.2004,-133.2003"/>
</g>
<!-- Node6 -->
<g id="node7" class="node">
<title>Node6</title>
<g id="a_node7"><a xlink:href="_vec_8hpp.html" target="_top" xlink:title="Vec.hpp">
<polygon fill="none" stroke="#000000" points="1025.5,-108.5 1025.5,-125.5 1079.5,-125.5 1079.5,-108.5 1025.5,-108.5"/>
<text text-anchor="middle" x="1052.5" y="-115.1" font-family="InputSans" font-size="8.00" fill="#000000">Vec.hpp</text>
</a>
</g>
</g>
<!-- Node0&#45;&gt;Node6 -->
<g id="edge6" class="edge">
<title>Node0&#45;&gt;Node6</title>
<path fill="none" stroke="#191970" d="M655.5303,-229.6077C775.8055,-221.7371 1005.1551,-203.8032 1033.5,-180 1046.2017,-169.3335 1050.6074,-150.5021 1052.0417,-136.1978"/>
<polygon fill="#191970" stroke="#191970" points="1055.5519,-136.1307 1052.6565,-125.9392 1048.5644,-135.7118 1055.5519,-136.1307"/>
</g>
<!-- Node15 -->
<g id="node16" class="node">
<title>Node15</title>
<g id="a_node16"><a xlink:href="_python_common_8hpp.html" target="_top" xlink:title="PythonCommon.hpp">
<polygon fill="none" stroke="#000000" points="5.5,-108.5 5.5,-125.5 109.5,-125.5 109.5,-108.5 5.5,-108.5"/>
<text text-anchor="middle" x="57.5" y="-115.1" font-family="InputSans" font-size="8.00" fill="#000000">PythonCommon.hpp</text>
</a>
</g>
</g>
<!-- Node0&#45;&gt;Node15 -->
<g id="edge17" class="edge">
<title>Node0&#45;&gt;Node15</title>
<path fill="none" stroke="#191970" d="M509.3962,-231.0213C397.6297,-225.5302 190.208,-211.3745 123.5,-180 101.4208,-169.6156 82.0174,-148.9199 70.0631,-134.0807"/>
<polygon fill="#191970" stroke="#191970" points="72.5069,-131.5187 63.6251,-125.7425 66.9662,-135.7967 72.5069,-131.5187"/>
</g>
<!-- Node19 -->
<g id="node20" class="node">
<title>Node19</title>
<polygon fill="none" stroke="#bfbfbf" points="531,-162.5 531,-179.5 634,-179.5 634,-162.5 531,-162.5"/>
<text text-anchor="middle" x="582.5" y="-169.1" font-family="InputSans" font-size="8.00" fill="#000000">PythonContext.hpp</text>
</g>
<!-- Node0&#45;&gt;Node19 -->
<g id="edge23" class="edge">
<title>Node0&#45;&gt;Node19</title>
<path fill="none" stroke="#191970" d="M582.5,-216.451C582.5,-208.1476 582.5,-198.2234 582.5,-189.7698"/>
<polygon fill="#191970" stroke="#191970" points="586.0001,-189.764 582.5,-179.764 579.0001,-189.7641 586.0001,-189.764"/>
</g>
<!-- Node20 -->
<g id="node21" class="node">
<title>Node20</title>
<g id="a_node21"><a xlink:href="_python_float_8hpp.html" target="_top" xlink:title="PythonFloat.hpp">
<polygon fill="none" stroke="#000000" points="639.5,-108.5 639.5,-125.5 731.5,-125.5 731.5,-108.5 639.5,-108.5"/>
<text text-anchor="middle" x="685.5" y="-115.1" font-family="InputSans" font-size="8.00" fill="#000000">PythonFloat.hpp</text>
</a>
</g>
</g>
<!-- Node0&#45;&gt;Node20 -->
<g id="edge24" class="edge">
<title>Node0&#45;&gt;Node20</title>
<path fill="none" stroke="#191970" d="M604.4965,-216.4109C616.3942,-206.3716 630.9695,-193.1879 642.5,-180 655.0025,-165.7004 666.994,-147.6469 675.1221,-134.5352"/>
<polygon fill="#191970" stroke="#191970" points="678.338,-135.9819 680.5291,-125.6161 672.3521,-132.353 678.338,-135.9819"/>
</g>
<!-- Node21 -->
<g id="node22" class="node">
<title>Node21</title>
<g id="a_node22"><a xlink:href="_python_function_8hpp.html" target="_top" xlink:title="PythonFunction.hpp">
<polygon fill="none" stroke="#000000" points="322,-108.5 322,-125.5 429,-125.5 429,-108.5 322,-108.5"/>
<text text-anchor="middle" x="375.5" y="-115.1" font-family="InputSans" font-size="8.00" fill="#000000">PythonFunction.hpp</text>
</a>
</g>
</g>
<!-- Node0&#45;&gt;Node21 -->
<g id="edge28" class="edge">
<title>Node0&#45;&gt;Node21</title>
<path fill="none" stroke="#191970" d="M515.0514,-216.3974C488.9357,-207.7924 459.5921,-195.8159 435.5,-180 416.4419,-167.4888 398.9994,-147.8303 387.8926,-133.8017"/>
<polygon fill="#191970" stroke="#191970" points="390.4146,-131.3385 381.5554,-125.5277 384.8573,-135.5949 390.4146,-131.3385"/>
</g>
<!-- Node22 -->
<g id="node23" class="node">
<title>Node22</title>
<g id="a_node23"><a xlink:href="_python_module_8hpp.html" target="_top" xlink:title="PythonModule.hpp">
<polygon fill="none" stroke="#000000" points="166,-108.5 166,-125.5 265,-125.5 265,-108.5 166,-108.5"/>
<text text-anchor="middle" x="215.5" y="-115.1" font-family="InputSans" font-size="8.00" fill="#000000">PythonModule.hpp</text>
</a>
</g>
</g>
<!-- Node0&#45;&gt;Node22 -->
<g id="edge34" class="edge">
<title>Node0&#45;&gt;Node22</title>
<path fill="none" stroke="#191970" d="M509.3575,-226.0102C432.8677,-216.7695 318.6034,-200.2061 279.5,-180 258.1647,-168.9753 239.3341,-148.4099 227.718,-133.7759"/>
<polygon fill="#191970" stroke="#191970" points="230.3067,-131.3985 221.4598,-125.5691 224.7404,-135.6432 230.3067,-131.3985"/>
</g>
<!-- Node23 -->
<g id="node24" class="node">
<title>Node23</title>
<g id="a_node24"><a xlink:href="_contour_plot_8hpp.html" target="_top" xlink:title="ContourPlot.hpp">
<polygon fill="none" stroke="#000000" points="728.5,-162.5 728.5,-179.5 820.5,-179.5 820.5,-162.5 728.5,-162.5"/>
<text text-anchor="middle" x="774.5" y="-169.1" font-family="InputSans" font-size="8.00" fill="#000000">ContourPlot.hpp</text>
</a>
</g>
</g>
<!-- Node0&#45;&gt;Node23 -->
<g id="edge40" class="edge">
<title>Node0&#45;&gt;Node23</title>
<path fill="none" stroke="#191970" d="M635.9827,-216.451C668.8367,-205.6708 710.0162,-192.1587 738.9046,-182.6797"/>
<polygon fill="#191970" stroke="#191970" points="740.166,-185.9495 748.5764,-179.5062 737.9836,-179.2984 740.166,-185.9495"/>
</g>
<!-- Node25 -->
<g id="node26" class="node">
<title>Node25</title>
<g id="a_node26"><a xlink:href="_list_plot_8hpp.html" target="_top" xlink:title="ListPlot.hpp">
<polygon fill="none" stroke="#000000" points="838.5,-162.5 838.5,-179.5 912.5,-179.5 912.5,-162.5 838.5,-162.5"/>
<text text-anchor="middle" x="875.5" y="-169.1" font-family="InputSans" font-size="8.00" fill="#000000">ListPlot.hpp</text>
</a>
</g>
</g>
<!-- Node0&#45;&gt;Node25 -->
<g id="edge46" class="edge">
<title>Node0&#45;&gt;Node25</title>
<path fill="none" stroke="#191970" d="M655.6805,-218.265C709.845,-206.6187 782.0256,-191.0986 828.6348,-181.0768"/>
<polygon fill="#191970" stroke="#191970" points="829.4237,-184.4873 838.4644,-178.9633 827.9521,-177.6437 829.4237,-184.4873"/>
</g>
<!-- Node26 -->
<g id="node27" class="node">
<title>Node26</title>
<g id="a_node27"><a xlink:href="_surface_plot_8hpp.html" target="_top" xlink:title="SurfacePlot.hpp">
<polygon fill="none" stroke="#000000" points="931,-162.5 931,-179.5 1024,-179.5 1024,-162.5 931,-162.5"/>
<text text-anchor="middle" x="977.5" y="-169.1" font-family="InputSans" font-size="8.00" fill="#000000">SurfacePlot.hpp</text>
</a>
</g>
</g>
<!-- Node0&#45;&gt;Node26 -->
<g id="edge52" class="edge">
<title>Node0&#45;&gt;Node26</title>
<path fill="none" stroke="#191970" d="M655.5765,-222.3895C721.9553,-211.8362 822.8724,-195.7748 920.6847,-180.1287"/>
<polygon fill="#191970" stroke="#191970" points="921.4284,-183.5543 930.7499,-178.5184 920.3225,-176.6422 921.4284,-183.5543"/>
</g>
<!-- Node27 -->
<g id="node28" class="node">
<title>Node27</title>
<g id="a_node28"><a xlink:href="_figure_8hpp.html" target="_top" xlink:title="Figure.hpp">
<polygon fill="none" stroke="#000000" points="444.5,-162.5 444.5,-179.5 512.5,-179.5 512.5,-162.5 444.5,-162.5"/>
<text text-anchor="middle" x="478.5" y="-169.1" font-family="InputSans" font-size="8.00" fill="#000000">Figure.hpp</text>
</a>
</g>
</g>
<!-- Node0&#45;&gt;Node27 -->
<g id="edge58" class="edge">
<title>Node0&#45;&gt;Node27</title>
<path fill="none" stroke="#191970" d="M553.5302,-216.451C537.1052,-206.5012 516.8385,-194.2243 501.5104,-184.939"/>
<polygon fill="#191970" stroke="#191970" points="503.0498,-181.7795 492.6833,-179.5918 499.4229,-187.7666 503.0498,-181.7795"/>
</g>
<!-- Node6&#45;&gt;Node2 -->
<g id="edge8" class="edge">
<title>Node6&#45;&gt;Node2</title>
<path fill="none" stroke="#191970" d="M1045.1167,-108.0717C1033.1004,-94.1755 1007.8869,-67.5637 980.5,-54 921.7433,-24.8999 845.2936,-14.6154 799.4386,-10.9824"/>
<polygon fill="#191970" stroke="#191970" points="799.5294,-7.4799 789.3028,-10.2487 799.024,-14.4616 799.5294,-7.4799"/>
</g>
<!-- Node7 -->
<g id="node8" class="node">
<title>Node7</title>
<polygon fill="none" stroke="#bfbfbf" points="918,-54.5 918,-71.5 971,-71.5 971,-54.5 918,-54.5"/>
<text text-anchor="middle" x="944.5" y="-61.1" font-family="InputSans" font-size="8.00" fill="#000000">cassert</text>
</g>
<!-- Node6&#45;&gt;Node7 -->
<g id="edge7" class="edge">
<title>Node6&#45;&gt;Node7</title>
<path fill="none" stroke="#191970" d="M1035.1479,-108.324C1017.8281,-99.6641 990.9847,-86.2424 970.9981,-76.249"/>
<polygon fill="#191970" stroke="#191970" points="972.3186,-72.9962 961.809,-71.6545 969.188,-79.2572 972.3186,-72.9962"/>
</g>
<!-- Node8 -->
<g id="node9" class="node">
<title>Node8</title>
<g id="a_node9"><a xlink:href="_core_math_8hpp.html" target="_top" xlink:title="CoreMath.hpp">
<polygon fill="none" stroke="#000000" points="1174,-54.5 1174,-71.5 1255,-71.5 1255,-54.5 1174,-54.5"/>
<text text-anchor="middle" x="1214.5" y="-61.1" font-family="InputSans" font-size="8.00" fill="#000000">CoreMath.hpp</text>
</a>
</g>
</g>
<!-- Node6&#45;&gt;Node8 -->
<g id="edge9" class="edge">
<title>Node6&#45;&gt;Node8</title>
<path fill="none" stroke="#191970" d="M1078.1694,-108.4435C1105.4227,-99.3591 1148.6837,-84.9388 1179.1506,-74.7831"/>
<polygon fill="#191970" stroke="#191970" points="1180.5707,-77.9992 1188.9507,-71.5164 1178.3571,-71.3584 1180.5707,-77.9992"/>
</g>
<!-- Node13 -->
<g id="node14" class="node">
<title>Node13</title>
<g id="a_node14"><a xlink:href="_vec_8inl.html" target="_top" xlink:title="Vec.inl">
<polygon fill="none" stroke="#000000" points="1028,-54.5 1028,-71.5 1079,-71.5 1079,-54.5 1028,-54.5"/>
<text text-anchor="middle" x="1053.5" y="-61.1" font-family="InputSans" font-size="8.00" fill="#000000">Vec.inl</text>
</a>
</g>
</g>
<!-- Node6&#45;&gt;Node13 -->
<g id="edge14" class="edge">
<title>Node6&#45;&gt;Node13</title>
<path fill="none" stroke="#191970" d="M1052.6651,-108.083C1052.7962,-101.0059 1052.9841,-90.8611 1053.1484,-81.9865"/>
<polygon fill="#191970" stroke="#191970" points="1056.6521,-81.8142 1053.3379,-71.7511 1049.6533,-81.6845 1056.6521,-81.8142"/>
</g>
<!-- Node9 -->
<g id="node10" class="node">
<title>Node9</title>
<polygon fill="none" stroke="#bfbfbf" points="1309,-.5 1309,-17.5 1372,-17.5 1372,-.5 1309,-.5"/>
<text text-anchor="middle" x="1340.5" y="-7.1" font-family="InputSans" font-size="8.00" fill="#000000">algorithm</text>
</g>
<!-- Node8&#45;&gt;Node9 -->
<g id="edge10" class="edge">
<title>Node8&#45;&gt;Node9</title>
<path fill="none" stroke="#191970" d="M1234.4651,-54.4435C1255.1091,-45.5961 1287.5625,-31.6875 1311.1316,-21.5865"/>
<polygon fill="#191970" stroke="#191970" points="1312.8156,-24.6727 1320.6283,-17.5164 1310.0581,-18.2387 1312.8156,-24.6727"/>
</g>
<!-- Node10 -->
<g id="node11" class="node">
<title>Node10</title>
<polygon fill="none" stroke="#bfbfbf" points="1113,-.5 1113,-17.5 1158,-17.5 1158,-.5 1113,-.5"/>
<text text-anchor="middle" x="1135.5" y="-7.1" font-family="InputSans" font-size="8.00" fill="#000000">cmath</text>
</g>
<!-- Node8&#45;&gt;Node10 -->
<g id="edge11" class="edge">
<title>Node8&#45;&gt;Node10</title>
<path fill="none" stroke="#191970" d="M1201.8073,-54.324C1189.5989,-45.979 1170.9215,-33.2122 1156.4971,-23.3524"/>
<polygon fill="#191970" stroke="#191970" points="1158.392,-20.4082 1148.1612,-17.6545 1154.4418,-26.1871 1158.392,-20.4082"/>
</g>
<!-- Node11 -->
<g id="node12" class="node">
<title>Node11</title>
<polygon fill="none" stroke="#bfbfbf" points="1176.5,-.5 1176.5,-17.5 1222.5,-17.5 1222.5,-.5 1176.5,-.5"/>
<text text-anchor="middle" x="1199.5" y="-7.1" font-family="InputSans" font-size="8.00" fill="#000000">cfloat</text>
</g>
<!-- Node8&#45;&gt;Node11 -->
<g id="edge12" class="edge">
<title>Node8&#45;&gt;Node11</title>
<path fill="none" stroke="#191970" d="M1212.0231,-54.083C1210.0135,-46.8486 1207.1135,-36.4087 1204.6102,-27.3968"/>
<polygon fill="#191970" stroke="#191970" points="1207.9797,-26.4495 1201.9309,-17.7511 1201.2351,-28.323 1207.9797,-26.4495"/>
</g>
<!-- Node12 -->
<g id="node13" class="node">
<title>Node12</title>
<polygon fill="none" stroke="#bfbfbf" points="1240.5,-.5 1240.5,-17.5 1290.5,-17.5 1290.5,-.5 1240.5,-.5"/>
<text text-anchor="middle" x="1265.5" y="-7.1" font-family="InputSans" font-size="8.00" fill="#000000">cstdint</text>
</g>
<!-- Node8&#45;&gt;Node12 -->
<g id="edge13" class="edge">
<title>Node8&#45;&gt;Node12</title>
<path fill="none" stroke="#191970" d="M1222.9216,-54.083C1230.3482,-46.2195 1241.3517,-34.5688 1250.3122,-25.0813"/>
<polygon fill="#191970" stroke="#191970" points="1252.9134,-27.4244 1257.2351,-17.7511 1247.8243,-22.618 1252.9134,-27.4244"/>
</g>
<!-- Node13&#45;&gt;Node4 -->
<g id="edge15" class="edge">
<title>Node13&#45;&gt;Node4</title>
<path fill="none" stroke="#191970" d="M1027.8549,-59.5617C1013.8732,-57.7569 996.2537,-55.5955 980.5,-54 778.2032,-33.5118 534.5082,-16.8692 446.8908,-11.141"/>
<polygon fill="#191970" stroke="#191970" points="446.9625,-7.6383 436.7564,-10.4817 446.5081,-14.6236 446.9625,-7.6383"/>
</g>
<!-- Node14 -->
<g id="node15" class="node">
<title>Node14</title>
<polygon fill="none" stroke="#bfbfbf" points="1026,-.5 1026,-17.5 1081,-17.5 1081,-.5 1026,-.5"/>
<text text-anchor="middle" x="1053.5" y="-7.1" font-family="InputSans" font-size="8.00" fill="#000000">sstream</text>
</g>
<!-- Node13&#45;&gt;Node14 -->
<g id="edge16" class="edge">
<title>Node13&#45;&gt;Node14</title>
<path fill="none" stroke="#191970" d="M1053.5,-54.083C1053.5,-47.0059 1053.5,-36.8611 1053.5,-27.9865"/>
<polygon fill="#191970" stroke="#191970" points="1057.0001,-27.751 1053.5,-17.7511 1050.0001,-27.7511 1057.0001,-27.751"/>
</g>
<!-- Node16 -->
<g id="node17" class="node">
<title>Node16</title>
<polygon fill="none" stroke="#bfbfbf" points="0,-54.5 0,-71.5 71,-71.5 71,-54.5 0,-54.5"/>
<text text-anchor="middle" x="35.5" y="-61.1" font-family="InputSans" font-size="8.00" fill="#000000">type_traits</text>
</g>
<!-- Node15&#45;&gt;Node16 -->
<g id="edge18" class="edge">
<title>Node15&#45;&gt;Node16</title>
<path fill="none" stroke="#191970" d="M53.8671,-108.083C50.8878,-100.77 46.5739,-90.1814 42.8755,-81.1034"/>
<polygon fill="#191970" stroke="#191970" points="46.0796,-79.6914 39.0653,-71.7511 39.597,-82.3326 46.0796,-79.6914"/>
</g>
<!-- Node17 -->
<g id="node18" class="node">
<title>Node17</title>
<polygon fill="none" stroke="#bfbfbf" points="315,-.5 315,-17.5 372,-17.5 372,-.5 315,-.5"/>
<text text-anchor="middle" x="343.5" y="-7.1" font-family="InputSans" font-size="8.00" fill="#000000">Python.h</text>
</g>
<!-- Node15&#45;&gt;Node17 -->
<g id="edge19" class="edge">
<title>Node15&#45;&gt;Node17</title>
<path fill="none" stroke="#191970" d="M64.0967,-108.0589C74.8769,-94.1452 97.6735,-67.5098 123.5,-54 154.5737,-37.7454 250.6232,-22.1129 304.9782,-14.2557"/>
<polygon fill="#191970" stroke="#191970" points="305.5337,-17.712 314.9394,-12.8353 304.5455,-10.7821 305.5337,-17.712"/>
</g>
<!-- Node18 -->
<g id="node19" class="node">
<title>Node18</title>
<g id="a_node19"><a xlink:href="_python_object_8hpp.html" target="_top" xlink:title="PythonObject.hpp">
<polygon fill="none" stroke="#000000" points="501.5,-54.5 501.5,-71.5 599.5,-71.5 599.5,-54.5 501.5,-54.5"/>
<text text-anchor="middle" x="550.5" y="-61.1" font-family="InputSans" font-size="8.00" fill="#000000">PythonObject.hpp</text>
</a>
</g>
</g>
<!-- Node15&#45;&gt;Node18 -->
<g id="edge20" class="edge">
<title>Node15&#45;&gt;Node18</title>
<path fill="none" stroke="#191970" d="M109.7929,-111.2722C202.2984,-101.1397 394.1778,-80.1225 491.3557,-69.4783"/>
<polygon fill="#191970" stroke="#191970" points="491.749,-72.9562 501.3085,-68.3881 490.9868,-65.9978 491.749,-72.9562"/>
</g>
<!-- Node18&#45;&gt;Node2 -->
<g id="edge21" class="edge">
<title>Node18&#45;&gt;Node2</title>
<path fill="none" stroke="#191970" d="M583.6167,-54.4435C620.6764,-44.8683 680.68,-29.365 720.1154,-19.1759"/>
<polygon fill="#191970" stroke="#191970" points="721.111,-22.5337 729.9175,-16.6433 719.3599,-15.7563 721.111,-22.5337"/>
</g>
<!-- Node18&#45;&gt;Node17 -->
<g id="edge22" class="edge">
<title>Node18&#45;&gt;Node17</title>
<path fill="none" stroke="#191970" d="M517.7002,-54.4435C480.8637,-44.834 421.14,-29.2539 382.0892,-19.0667"/>
<polygon fill="#191970" stroke="#191970" points="382.7062,-15.6106 372.1466,-16.473 380.9392,-22.384 382.7062,-15.6106"/>
</g>
<!-- Node20&#45;&gt;Node7 -->
<g id="edge25" class="edge">
<title>Node20&#45;&gt;Node7</title>
<path fill="none" stroke="#191970" d="M726.5393,-108.4435C776.5052,-98.0259 860.1264,-80.5914 907.962,-70.618"/>
<polygon fill="#191970" stroke="#191970" points="908.8114,-74.0162 917.8865,-68.5488 907.3826,-67.1636 908.8114,-74.0162"/>
</g>
<!-- Node20&#45;&gt;Node17 -->
<g id="edge26" class="edge">
<title>Node20&#45;&gt;Node17</title>
<path fill="none" stroke="#191970" d="M677.9524,-108.3931C665.1792,-94.4454 637.8147,-67.1441 608.5,-54 518.2038,-13.5131 483.8721,-36.2522 382.1429,-17.9191"/>
<polygon fill="#191970" stroke="#191970" points="382.5603,-14.436 372.0836,-16.0133 381.2572,-21.3137 382.5603,-14.436"/>
</g>
<!-- Node20&#45;&gt;Node18 -->
<g id="edge27" class="edge">
<title>Node20&#45;&gt;Node18</title>
<path fill="none" stroke="#191970" d="M664.1088,-108.4435C641.7927,-99.5171 606.5968,-85.4387 581.292,-75.3168"/>
<polygon fill="#191970" stroke="#191970" points="582.3757,-71.9807 571.7911,-71.5164 579.776,-78.4801 582.3757,-71.9807"/>
</g>
<!-- Node21&#45;&gt;Node2 -->
<g id="edge30" class="edge">
<title>Node21&#45;&gt;Node2</title>
<path fill="none" stroke="#191970" d="M388.191,-108.3458C409.0059,-94.5822 452.1296,-67.8484 492.5,-54 570.4519,-27.2598 666.8538,-16.0401 719.8789,-11.6239"/>
<polygon fill="#191970" stroke="#191970" points="720.1959,-15.1098 729.8873,-10.8288 719.6415,-8.1318 720.1959,-15.1098"/>
</g>
<!-- Node21&#45;&gt;Node3 -->
<g id="edge31" class="edge">
<title>Node21&#45;&gt;Node3</title>
<path fill="none" stroke="#191970" d="M364.2533,-108.324C353.7026,-100.1849 337.6993,-87.8395 325.0578,-78.0874"/>
<polygon fill="#191970" stroke="#191970" points="327.007,-75.1707 316.9513,-71.8339 322.7314,-80.7132 327.007,-75.1707"/>
</g>
<!-- Node21&#45;&gt;Node4 -->
<g id="edge32" class="edge">
<title>Node21&#45;&gt;Node4</title>
<path fill="none" stroke="#191970" d="M378.6097,-108.1619C384.8198,-90.5123 398.8675,-50.5872 407.1191,-27.1352"/>
<polygon fill="#191970" stroke="#191970" points="410.436,-28.2532 410.4535,-17.6584 403.8328,-25.9298 410.436,-28.2532"/>
</g>
<!-- Node21&#45;&gt;Node17 -->
<g id="edge29" class="edge">
<title>Node21&#45;&gt;Node17</title>
<path fill="none" stroke="#191970" d="M372.8813,-108.1619C367.6753,-90.5918 355.9286,-50.9465 348.9676,-27.4532"/>
<polygon fill="#191970" stroke="#191970" points="352.2622,-26.252 346.0654,-17.6584 345.5506,-28.2407 352.2622,-26.252"/>
</g>
<!-- Node21&#45;&gt;Node18 -->
<g id="edge33" class="edge">
<title>Node21&#45;&gt;Node18</title>
<path fill="none" stroke="#191970" d="M403.2293,-108.4435C432.9256,-99.2801 480.2162,-84.6876 513.1693,-74.5192"/>
<polygon fill="#191970" stroke="#191970" points="514.377,-77.8094 522.9005,-71.5164 512.313,-71.1206 514.377,-77.8094"/>
</g>
<!-- Node22&#45;&gt;Node2 -->
<g id="edge35" class="edge">
<title>Node22&#45;&gt;Node2</title>
<path fill="none" stroke="#191970" d="M220.1939,-108.2013C228.3149,-93.9777 246.4525,-66.2889 270.5,-54 310.0818,-33.7727 609.7135,-16.6367 719.4162,-10.9797"/>
<polygon fill="#191970" stroke="#191970" points="719.9186,-14.4587 729.727,-10.4531 719.5614,-7.4679 719.9186,-14.4587"/>
</g>
<!-- Node22&#45;&gt;Node3 -->
<g id="edge36" class="edge">
<title>Node22&#45;&gt;Node3</title>
<path fill="none" stroke="#191970" d="M229.9601,-108.324C243.9996,-99.9002 265.5485,-86.9709 282.0431,-77.0741"/>
<polygon fill="#191970" stroke="#191970" points="284.3016,-79.8007 291.0758,-71.6545 280.7001,-73.7983 284.3016,-79.8007"/>
</g>
<!-- Node22&#45;&gt;Node4 -->
<g id="edge37" class="edge">
<title>Node22&#45;&gt;Node4</title>
<path fill="none" stroke="#191970" d="M216.0087,-108.2666C217.2859,-94.6375 221.7687,-68.3851 237.5,-54 285.8661,-9.773 317.1045,-34.623 380.5,-18 380.6005,-17.9736 380.7012,-17.9472 380.8021,-17.9207"/>
<polygon fill="#191970" stroke="#191970" points="381.6758,-21.3101 390.4365,-15.352 379.8724,-14.5464 381.6758,-21.3101"/>
</g>
<!-- Node22&#45;&gt;Node17 -->
<g id="edge38" class="edge">
<title>Node22&#45;&gt;Node17</title>
<path fill="none" stroke="#191970" d="M209.2126,-108.399C200.5537,-95.4087 187.3345,-70.5474 199.5,-54 212.0505,-36.9289 266.2524,-23.4619 304.4465,-15.8618"/>
<polygon fill="#191970" stroke="#191970" points="305.5904,-19.2058 314.7468,-13.8756 304.265,-12.3324 305.5904,-19.2058"/>
</g>
<!-- Node22&#45;&gt;Node18 -->
<g id="edge39" class="edge">
<title>Node22&#45;&gt;Node18</title>
<path fill="none" stroke="#191970" d="M265.2912,-108.974C325.5855,-99.2549 427.0264,-82.9032 491.2747,-72.5468"/>
<polygon fill="#191970" stroke="#191970" points="491.9393,-75.9849 501.2549,-70.938 490.8253,-69.0741 491.9393,-75.9849"/>
</g>
<!-- Node23&#45;&gt;Node2 -->
<g id="edge42" class="edge">
<title>Node23&#45;&gt;Node2</title>
<path fill="none" stroke="#191970" d="M773.6935,-162.2902C771.3536,-137.0185 764.5224,-63.2423 761.2661,-28.0737"/>
<polygon fill="#191970" stroke="#191970" points="764.7176,-27.3876 760.3105,-17.7529 757.7474,-28.033 764.7176,-27.3876"/>
</g>
<!-- Node23&#45;&gt;Node5 -->
<g id="edge43" class="edge">
<title>Node23&#45;&gt;Node5</title>
<path fill="none" stroke="#191970" d="M780.4447,-162.083C785.4773,-154.5341 792.8368,-143.4948 799.0135,-134.2298"/>
<polygon fill="#191970" stroke="#191970" points="802.0311,-136.0131 804.6659,-125.7511 796.2067,-132.1301 802.0311,-136.0131"/>
</g>
<!-- Node23&#45;&gt;Node6 -->
<g id="edge44" class="edge">
<title>Node23&#45;&gt;Node6</title>
<path fill="none" stroke="#191970" d="M818.5499,-162.4435C872.9791,-151.871 964.6152,-134.0712 1015.5473,-124.1779"/>
<polygon fill="#191970" stroke="#191970" points="1016.3198,-127.5933 1025.4689,-122.2506 1014.985,-120.7218 1016.3198,-127.5933"/>
</g>
<!-- Node23&#45;&gt;Node18 -->
<g id="edge45" class="edge">
<title>Node23&#45;&gt;Node18</title>
<path fill="none" stroke="#191970" d="M728.3069,-168.2119C670.0167,-163.6326 574.6691,-152.2524 552.5,-126 542.3607,-113.9932 542.9678,-95.6318 545.4552,-81.8238"/>
<polygon fill="#191970" stroke="#191970" points="548.8996,-82.4595 547.6837,-71.9346 542.0708,-80.9206 548.8996,-82.4595"/>
</g>
<!-- Node24 -->
<g id="node25" class="node">
<title>Node24</title>
<polygon fill="none" stroke="#bfbfbf" points="927.5,-108.5 927.5,-125.5 969.5,-125.5 969.5,-108.5 927.5,-108.5"/>
<text text-anchor="middle" x="948.5" y="-115.1" font-family="InputSans" font-size="8.00" fill="#000000">array</text>
</g>
<!-- Node23&#45;&gt;Node24 -->
<g id="edge41" class="edge">
<title>Node23&#45;&gt;Node24</title>
<path fill="none" stroke="#191970" d="M802.0708,-162.4435C833.4589,-152.7024 884.6162,-136.826 917.4017,-126.6512"/>
<polygon fill="#191970" stroke="#191970" points="918.8392,-129.8698 927.3524,-123.5631 916.7643,-123.1844 918.8392,-129.8698"/>
</g>
<!-- Node25&#45;&gt;Node2 -->
<g id="edge48" class="edge">
<title>Node25&#45;&gt;Node2</title>
<path fill="none" stroke="#191970" d="M875.4915,-162.2919C875.1284,-149.5941 873.093,-125.5965 863.5,-108 843.609,-71.5137 805.5232,-40.566 781.3735,-23.4152"/>
<polygon fill="#191970" stroke="#191970" points="783.0833,-20.3423 772.8672,-17.5348 779.1027,-26.1004 783.0833,-20.3423"/>
</g>
<!-- Node25&#45;&gt;Node5 -->
<g id="edge49" class="edge">
<title>Node25&#45;&gt;Node5</title>
<path fill="none" stroke="#191970" d="M865.0566,-162.324C855.3538,-154.2631 840.6847,-142.0765 829.0003,-132.3695"/>
<polygon fill="#191970" stroke="#191970" points="831.0619,-129.532 821.1334,-125.8339 826.5887,-134.9163 831.0619,-129.532"/>
</g>
<!-- Node25&#45;&gt;Node6 -->
<g id="edge50" class="edge">
<title>Node25&#45;&gt;Node6</title>
<path fill="none" stroke="#191970" d="M903.5462,-162.4435C933.8469,-153.1993 982.2585,-138.4296 1015.6215,-128.2511"/>
<polygon fill="#191970" stroke="#191970" points="1016.9123,-131.5166 1025.4557,-125.2508 1014.8696,-124.8213 1016.9123,-131.5166"/>
</g>
<!-- Node25&#45;&gt;Node18 -->
<g id="edge51" class="edge">
<title>Node25&#45;&gt;Node18</title>
<path fill="none" stroke="#191970" d="M873.638,-162.4404C870.1379,-148.5608 861.1834,-121.355 842.5,-108 806.1831,-82.0404 684.2579,-70.5785 609.93,-65.9007"/>
<polygon fill="#191970" stroke="#191970" points="609.9653,-62.3965 599.7718,-65.2849 609.5417,-69.3837 609.9653,-62.3965"/>
</g>
<!-- Node25&#45;&gt;Node24 -->
<g id="edge47" class="edge">
<title>Node25&#45;&gt;Node24</title>
<path fill="none" stroke="#191970" d="M887.2287,-162.324C898.3374,-154.1066 915.2422,-141.6017 928.4833,-131.8069"/>
<polygon fill="#191970" stroke="#191970" points="930.5999,-134.5948 936.5579,-125.8339 926.4369,-128.9671 930.5999,-134.5948"/>
</g>
<!-- Node26&#45;&gt;Node2 -->
<g id="edge54" class="edge">
<title>Node26&#45;&gt;Node2</title>
<path fill="none" stroke="#191970" d="M1024.1104,-164.5026C1047.6011,-158.6113 1074.094,-147.3851 1088.5,-126 1106.3785,-99.4602 1109.5384,-78.1119 1088.5,-54 1069.7129,-32.4684 882.68,-17.2962 799.2806,-11.5482"/>
<polygon fill="#191970" stroke="#191970" points="799.3835,-8.0473 789.1696,-10.8627 798.9099,-15.0312 799.3835,-8.0473"/>
</g>
<!-- Node26&#45;&gt;Node5 -->
<g id="edge55" class="edge">
<title>Node26&#45;&gt;Node5</title>
<path fill="none" stroke="#191970" d="M951.0384,-162.4435C921.8259,-152.9976 874.772,-137.7826 843.2554,-127.5916"/>
<polygon fill="#191970" stroke="#191970" points="844.2028,-124.2195 833.611,-124.473 842.0491,-130.88 844.2028,-124.2195"/>
</g>
<!-- Node26&#45;&gt;Node6 -->
<g id="edge56" class="edge">
<title>Node26&#45;&gt;Node6</title>
<path fill="none" stroke="#191970" d="M989.55,-162.324C1000.9631,-154.1066 1018.331,-141.6017 1031.9349,-131.8069"/>
<polygon fill="#191970" stroke="#191970" points="1034.1604,-134.5174 1040.2307,-125.8339 1030.0703,-128.8366 1034.1604,-134.5174"/>
</g>
<!-- Node26&#45;&gt;Node18 -->
<g id="edge57" class="edge">
<title>Node26&#45;&gt;Node18</title>
<path fill="none" stroke="#191970" d="M980.8888,-162.4025C985.559,-148.9597 991.9677,-122.9579 978.5,-108 954.2904,-81.1116 721.6779,-69.15 609.8998,-64.9207"/>
<polygon fill="#191970" stroke="#191970" points="609.9171,-61.419 599.7945,-64.5469 609.6583,-68.4142 609.9171,-61.419"/>
</g>
<!-- Node26&#45;&gt;Node24 -->
<g id="edge53" class="edge">
<title>Node26&#45;&gt;Node24</title>
<path fill="none" stroke="#191970" d="M972.7112,-162.083C968.7416,-154.6913 962.9749,-143.9533 958.0652,-134.8111"/>
<polygon fill="#191970" stroke="#191970" points="961.0145,-132.9051 953.1997,-125.7511 954.8475,-136.217 961.0145,-132.9051"/>
</g>
<!-- Node27&#45;&gt;Node4 -->
<g id="edge59" class="edge">
<title>Node27&#45;&gt;Node4</title>
<path fill="none" stroke="#191970" d="M475.0053,-162.2902C464.7773,-136.7987 434.7476,-61.9556 420.7885,-27.1651"/>
<polygon fill="#191970" stroke="#191970" points="423.9841,-25.7304 417.012,-17.7529 417.4875,-28.3371 423.9841,-25.7304"/>
</g>
<!-- Node27&#45;&gt;Node18 -->
<g id="edge60" class="edge">
<title>Node27&#45;&gt;Node18</title>
<path fill="none" stroke="#191970" d="M483.9996,-162.3935C491.802,-150.2192 506.575,-127.3005 519.5,-108 525.7801,-98.6222 532.9181,-88.242 538.7604,-79.8165"/>
<polygon fill="#191970" stroke="#191970" points="541.652,-81.7887 544.4895,-71.5809 535.9056,-77.7912 541.652,-81.7887"/>
</g>
<!-- Node27&#45;&gt;Node22 -->
<g id="edge61" class="edge">
<title>Node27&#45;&gt;Node22</title>
<path fill="none" stroke="#191970" d="M444.387,-163.9958C399.303,-154.739 319.474,-138.3483 267.0208,-127.5784"/>
<polygon fill="#191970" stroke="#191970" points="267.4132,-124.0861 256.9136,-125.5032 266.0053,-130.943 267.4132,-124.0861"/>
</g>
<!-- Node28 -->
<g id="node29" class="node">
<title>Node28</title>
<g id="a_node29"><a xlink:href="_axes_8hpp.html" target="_top" xlink:title="Axes.hpp">
<polygon fill="none" stroke="#000000" points="562,-108.5 562,-125.5 621,-125.5 621,-108.5 562,-108.5"/>
<text text-anchor="middle" x="591.5" y="-115.1" font-family="InputSans" font-size="8.00" fill="#000000">Axes.hpp</text>
</a>
</g>
</g>
<!-- Node27&#45;&gt;Node28 -->
<g id="edge62" class="edge">
<title>Node27&#45;&gt;Node28</title>
<path fill="none" stroke="#191970" d="M496.4052,-162.4435C514.754,-153.6751 543.5054,-139.9355 564.5936,-129.8579"/>
<polygon fill="#191970" stroke="#191970" points="566.165,-132.9862 573.6786,-125.5164 563.1468,-126.6703 566.165,-132.9862"/>
</g>
<!-- Node28&#45;&gt;Node2 -->
<g id="edge63" class="edge">
<title>Node28&#45;&gt;Node2</title>
<path fill="none" stroke="#191970" d="M604.9642,-108.3445C633.8403,-89.7812 701.9634,-45.9878 737.3273,-23.2539"/>
<polygon fill="#191970" stroke="#191970" points="739.4526,-26.0485 745.9717,-17.6968 735.6673,-20.1602 739.4526,-26.0485"/>
</g>
<!-- Node28&#45;&gt;Node18 -->
<g id="edge64" class="edge">
<title>Node28&#45;&gt;Node18</title>
<path fill="none" stroke="#191970" d="M584.7297,-108.083C578.9384,-100.4554 570.4415,-89.2645 563.3625,-79.9408"/>
<polygon fill="#191970" stroke="#191970" points="565.979,-77.5991 557.1443,-71.7511 560.4039,-81.8321 565.979,-77.5991"/>
</g>
</g>
</svg>
