<?xml version="1.0" encoding="UTF-8" standalone="no"?>
<!DOCTYPE svg PUBLIC "-//W3C//DTD SVG 1.1//EN"
 "http://www.w3.org/Graphics/SVG/1.1/DTD/svg11.dtd">
<!-- Generated by graphviz version 2.40.1 (20161225.0304)
 -->
<!-- Title: main Pages: 1 -->
<svg width="598pt" height="194pt"
 viewBox="0.00 0.00 598.00 193.50" xmlns="http://www.w3.org/2000/svg" xmlns:xlink="http://www.w3.org/1999/xlink">
<g id="graph0" class="graph" transform="scale(1 1) rotate(0) translate(4 189.5)">
<title>main</title>
<!-- Node0 -->
<g id="node1" class="node">
<title>Node0</title>
<polygon fill="#bfbfbf" stroke="#000000" points="0,-86 0,-103 39,-103 39,-86 0,-86"/>
<text text-anchor="middle" x="19.5" y="-92.6" font-family="InputSans" font-size="8.00" fill="#000000">main</text>
</g>
<!-- Node1 -->
<g id="node2" class="node">
<title>Node1</title>
<g id="a_node2"><a xlink:href="namespacearc_1_1python.html#a410b6849bac780637d66374231bbc709" target="_top" xlink:title="arc::python::appendToPath">
<polygon fill="none" stroke="#000000" points="75,-168 75,-185 222,-185 222,-168 75,-168"/>
<text text-anchor="middle" x="148.5" y="-174.6" font-family="InputSans" font-size="8.00" fill="#000000">arc::python::appendToPath</text>
</a>
</g>
</g>
<!-- Node0&#45;&gt;Node1 -->
<g id="edge1" class="edge">
<title>Node0&#45;&gt;Node1</title>
<path fill="none" stroke="#191970" d="M24.4431,-103.0404C32.9349,-116.9173 51.6546,-144.2417 75,-158.5 78.6578,-160.734 82.5771,-162.691 86.6317,-164.4052"/>
<polygon fill="#191970" stroke="#191970" points="85.6858,-167.7873 96.2789,-167.9807 88.1186,-161.2236 85.6858,-167.7873"/>
</g>
<!-- Node3 -->
<g id="node4" class="node">
<title>Node3</title>
<g id="a_node4"><a xlink:href="classarc_1_1plot_1_1_figure.html#a22e2ba290665e48219c00b443727c271" target="_top" xlink:title="arc::plot::Figure::\lgetCurrentAxes">
<polygon fill="none" stroke="#000000" points="92,-122.5 92,-148.5 205,-148.5 205,-122.5 92,-122.5"/>
<text text-anchor="start" x="100" y="-138.1" font-family="InputSans" font-size="8.00" fill="#000000">arc::plot::Figure::</text>
<text text-anchor="middle" x="148.5" y="-129.1" font-family="InputSans" font-size="8.00" fill="#000000">getCurrentAxes</text>
</a>
</g>
</g>
<!-- Node0&#45;&gt;Node3 -->
<g id="edge3" class="edge">
<title>Node0&#45;&gt;Node3</title>
<path fill="none" stroke="#191970" d="M39.0047,-100.8804C49.6368,-104.3446 63.0322,-108.6869 75,-112.5 82.0068,-114.7325 89.3954,-117.0673 96.6784,-119.3575"/>
<polygon fill="#191970" stroke="#191970" points="95.9094,-122.7844 106.4986,-122.4389 98.0052,-116.1054 95.9094,-122.7844"/>
</g>
<!-- Node5 -->
<g id="node6" class="node">
<title>Node5</title>
<g id="a_node6"><a xlink:href="namespacearc_1_1plot.html#a759662849d66bdf5e8c93f60b9d65566" target="_top" xlink:title="arc::plot::surfacePlot">
<polygon fill="none" stroke="#000000" points="85,-50 85,-67 212,-67 212,-50 85,-50"/>
<text text-anchor="middle" x="148.5" y="-56.6" font-family="InputSans" font-size="8.00" fill="#000000">arc::plot::surfacePlot</text>
</a>
</g>
</g>
<!-- Node0&#45;&gt;Node5 -->
<g id="edge5" class="edge">
<title>Node0&#45;&gt;Node5</title>
<path fill="none" stroke="#191970" d="M39.1707,-87.7309C49.735,-84.1944 63.0153,-79.906 75,-76.5 83.5389,-74.0733 92.6908,-71.6736 101.5371,-69.4557"/>
<polygon fill="#191970" stroke="#191970" points="102.4748,-72.8294 111.3462,-67.0372 100.799,-66.0329 102.4748,-72.8294"/>
</g>
<!-- Node7 -->
<g id="node8" class="node">
<title>Node7</title>
<g id="a_node8"><a xlink:href="classarc_1_1plot_1_1_figure.html#aa9b5ff34c2513211bf97a6995f751d90" target="_top" xlink:title="arc::plot::Figure::show">
<polygon fill="none" stroke="#000000" points="81,-86 81,-103 216,-103 216,-86 81,-86"/>
<text text-anchor="middle" x="148.5" y="-92.6" font-family="InputSans" font-size="8.00" fill="#000000">arc::plot::Figure::show</text>
</a>
</g>
</g>
<!-- Node0&#45;&gt;Node7 -->
<g id="edge8" class="edge">
<title>Node0&#45;&gt;Node7</title>
<path fill="none" stroke="#191970" d="M39.0923,-94.5C47.8691,-94.5 58.8483,-94.5 70.4394,-94.5"/>
<polygon fill="#191970" stroke="#191970" points="70.7431,-98.0001 80.7431,-94.5 70.743,-91.0001 70.7431,-98.0001"/>
</g>
<!-- Node8 -->
<g id="node9" class="node">
<title>Node8</title>
<g id="a_node9"><a xlink:href="classarc_1_1plot_1_1_figure.html#a358a91c5d002412a923b59977f37de0e" target="_top" xlink:title="arc::plot::Figure::save">
<polygon fill="none" stroke="#000000" points="81.5,-11 81.5,-28 215.5,-28 215.5,-11 81.5,-11"/>
<text text-anchor="middle" x="148.5" y="-17.6" font-family="InputSans" font-size="8.00" fill="#000000">arc::plot::Figure::save</text>
</a>
</g>
</g>
<!-- Node0&#45;&gt;Node8 -->
<g id="edge10" class="edge">
<title>Node0&#45;&gt;Node8</title>
<path fill="none" stroke="#191970" d="M26.0503,-85.856C35.5497,-73.9156 54.2931,-52.4939 75,-40.5 81.3161,-36.8416 88.3108,-33.7859 95.401,-31.2427"/>
<polygon fill="#191970" stroke="#191970" points="96.6545,-34.5153 105.074,-28.084 94.4815,-27.8611 96.6545,-34.5153"/>
</g>
<!-- Node2 -->
<g id="node3" class="node">
<title>Node2</title>
<g id="a_node3"><a xlink:href="namespacearc_1_1python.html#aa07d1dc46f9c15ec5f0ece7356e82173" target="_top" xlink:title="arc::python::isInitialized">
<polygon fill="none" stroke="#000000" points="262.5,-168 262.5,-185 406.5,-185 406.5,-168 262.5,-168"/>
<text text-anchor="middle" x="334.5" y="-174.6" font-family="InputSans" font-size="8.00" fill="#000000">arc::python::isInitialized</text>
</a>
</g>
</g>
<!-- Node1&#45;&gt;Node2 -->
<g id="edge2" class="edge">
<title>Node1&#45;&gt;Node2</title>
<path fill="none" stroke="#191970" d="M222.0121,-176.5C231.9888,-176.5 242.2787,-176.5 252.3942,-176.5"/>
<polygon fill="#191970" stroke="#191970" points="252.4337,-180.0001 262.4337,-176.5 252.4336,-173.0001 252.4337,-180.0001"/>
</g>
<!-- Node4 -->
<g id="node5" class="node">
<title>Node4</title>
<g id="a_node5"><a xlink:href="classarc_1_1python_1_1_python_function.html#a05b1fffba4d5650dffa0140135bb21e2" target="_top" xlink:title="arc::python::PythonFunction\l::call">
<polygon fill="none" stroke="#000000" points="258,-87.5 258,-113.5 411,-113.5 411,-87.5 258,-87.5"/>
<text text-anchor="start" x="266" y="-103.1" font-family="InputSans" font-size="8.00" fill="#000000">arc::python::PythonFunction</text>
<text text-anchor="middle" x="334.5" y="-94.1" font-family="InputSans" font-size="8.00" fill="#000000">::call</text>
</a>
</g>
</g>
<!-- Node3&#45;&gt;Node4 -->
<g id="edge4" class="edge">
<title>Node3&#45;&gt;Node4</title>
<path fill="none" stroke="#191970" d="M205.0637,-124.8563C220.967,-121.8637 238.5588,-118.5534 255.5145,-115.3629"/>
<polygon fill="#191970" stroke="#191970" points="256.2265,-118.7904 265.4067,-113.5014 254.9319,-111.9111 256.2265,-118.7904"/>
</g>
<!-- Node5&#45;&gt;Node4 -->
<g id="edge6" class="edge">
<title>Node5&#45;&gt;Node4</title>
<path fill="none" stroke="#191970" d="M186.5887,-67.1007C209.6853,-72.316 239.8216,-79.121 266.861,-85.2267"/>
<polygon fill="#191970" stroke="#191970" points="266.1387,-88.6516 276.664,-87.4403 267.6806,-81.8235 266.1387,-88.6516"/>
</g>
<!-- Node6 -->
<g id="node7" class="node">
<title>Node6</title>
<g id="a_node7"><a xlink:href="classarc_1_1python_1_1_python_object.html#ab5d924c554bddb450591e7c42aa639a1" target="_top" xlink:title="arc::python::PythonObject\l::isValid">
<polygon fill="none" stroke="#000000" points="447,-45.5 447,-71.5 590,-71.5 590,-45.5 447,-45.5"/>
<text text-anchor="start" x="455" y="-61.1" font-family="InputSans" font-size="8.00" fill="#000000">arc::python::PythonObject</text>
<text text-anchor="middle" x="518.5" y="-52.1" font-family="InputSans" font-size="8.00" fill="#000000">::isValid</text>
</a>
</g>
</g>
<!-- Node5&#45;&gt;Node6 -->
<g id="edge7" class="edge">
<title>Node5&#45;&gt;Node6</title>
<path fill="none" stroke="#191970" d="M212.1053,-58.5C274.2085,-58.5 368.9888,-58.5 436.6773,-58.5"/>
<polygon fill="#191970" stroke="#191970" points="436.8794,-62.0001 446.8793,-58.5 436.8793,-55.0001 436.8794,-62.0001"/>
</g>
<!-- Node7&#45;&gt;Node4 -->
<g id="edge9" class="edge">
<title>Node7&#45;&gt;Node4</title>
<path fill="none" stroke="#191970" d="M216.1764,-96.6831C226.4094,-97.0132 237.0851,-97.3576 247.6543,-97.6985"/>
<polygon fill="#191970" stroke="#191970" points="247.6295,-101.1995 257.7371,-98.0238 247.8552,-94.2031 247.6295,-101.1995"/>
</g>
<!-- Node9 -->
<g id="node10" class="node">
<title>Node9</title>
<g id="a_node10"><a xlink:href="classarc_1_1python_1_1_python_tuple.html#ab045a04daca2b8053dc5b770ee3971de" target="_top" xlink:title="arc::python::PythonTuple\l::setAt">
<polygon fill="none" stroke="#000000" points="265.5,-3.5 265.5,-29.5 403.5,-29.5 403.5,-3.5 265.5,-3.5"/>
<text text-anchor="start" x="273.5" y="-19.1" font-family="InputSans" font-size="8.00" fill="#000000">arc::python::PythonTuple</text>
<text text-anchor="middle" x="334.5" y="-10.1" font-family="InputSans" font-size="8.00" fill="#000000">::setAt</text>
</a>
</g>
</g>
<!-- Node8&#45;&gt;Node9 -->
<g id="edge11" class="edge">
<title>Node8&#45;&gt;Node9</title>
<path fill="none" stroke="#191970" d="M215.6503,-18.4169C228.377,-18.2117 241.8053,-17.9951 254.8738,-17.7843"/>
<polygon fill="#191970" stroke="#191970" points="255.3148,-21.2777 265.257,-17.6168 255.2018,-14.2786 255.3148,-21.2777"/>
</g>
<!-- Node9&#45;&gt;Node6 -->
<g id="edge12" class="edge">
<title>Node9&#45;&gt;Node6</title>
<path fill="none" stroke="#191970" d="M391.4587,-29.5014C410.5099,-33.8501 431.9181,-38.7367 451.6535,-43.2416"/>
<polygon fill="#191970" stroke="#191970" points="450.9656,-46.6745 461.4937,-45.4877 452.5234,-39.85 450.9656,-46.6745"/>
</g>
<!-- Node10 -->
<g id="node11" class="node">
<title>Node10</title>
<g id="a_node11"><a xlink:href="classarc_1_1python_1_1_python_tuple.html#a956cabb8d6c2890f37067078b0fde5c7" target="_top" xlink:title="arc::python::PythonTuple\l::size">
<polygon fill="none" stroke="#000000" points="449.5,-.5 449.5,-26.5 587.5,-26.5 587.5,-.5 449.5,-.5"/>
<text text-anchor="start" x="457.5" y="-16.1" font-family="InputSans" font-size="8.00" fill="#000000">arc::python::PythonTuple</text>
<text text-anchor="middle" x="518.5" y="-7.1" font-family="InputSans" font-size="8.00" fill="#000000">::size</text>
</a>
</g>
</g>
<!-- Node9&#45;&gt;Node10 -->
<g id="edge13" class="edge">
<title>Node9&#45;&gt;Node10</title>
<path fill="none" stroke="#191970" d="M403.5383,-15.3744C415.1323,-15.1853 427.246,-14.9878 439.0769,-14.7949"/>
<polygon fill="#191970" stroke="#191970" points="439.4393,-18.2896 449.3809,-14.6269 439.3251,-11.2905 439.4393,-18.2896"/>
</g>
</g>
</svg>
