<?xml version="1.0" encoding="UTF-8" standalone="no"?>
<!DOCTYPE svg PUBLIC "-//W3C//DTD SVG 1.1//EN"
 "http://www.w3.org/Graphics/SVG/1.1/DTD/svg11.dtd">
<!-- Generated by graphviz version 2.40.1 (20161225.0304)
 -->
<!-- Title: arc::details::rule_is_greater_than_4&lt; bool &gt; Pages: 1 -->
<svg width="152pt" height="675pt"
 viewBox="0.00 0.00 151.50 675.00" xmlns="http://www.w3.org/2000/svg" xmlns:xlink="http://www.w3.org/1999/xlink">
<g id="graph0" class="graph" transform="scale(1 1) rotate(0) translate(4 671)">
<title>arc::details::rule_is_greater_than_4&lt; bool &gt;</title>
<!-- Node0 -->
<g id="node1" class="node">
<title>Node0</title>
<polygon fill="#bfbfbf" stroke="#000000" points="39.5,-597.5 39.5,-666.5 143.5,-666.5 143.5,-597.5 39.5,-597.5"/>
<text text-anchor="start" x="47.5" y="-656.1" font-family="InputSans" font-size="8.00" fill="#000000">arc::details::rule</text>
<text text-anchor="start" x="47.5" y="-647.1" font-family="InputSans" font-size="8.00" fill="#000000">_is_greater_than_4&lt;</text>
<text text-anchor="middle" x="91.5" y="-638.1" font-family="InputSans" font-size="8.00" fill="#000000"> bool &gt;</text>
<polyline fill="none" stroke="#000000" points="39.5,-631.5 143.5,-631.5 "/>
<text text-anchor="middle" x="91.5" y="-621.1" font-family="InputSans" font-size="8.00" fill="#000000"> </text>
<polyline fill="none" stroke="#000000" points="39.5,-614.5 143.5,-614.5 "/>
<text text-anchor="middle" x="91.5" y="-604.1" font-family="InputSans" font-size="8.00" fill="#000000"> </text>
</g>
<!-- Node1 -->
<g id="node2" class="node">
<title>Node1</title>
<g id="a_node2"><a xlink:href="structarc_1_1details_1_1rule__is__greater__than__4.html" target="_top" xlink:title="{arc::details::rule\l_is_greater_than_4\&lt;\l(M \&gt; 4)\&gt;\n||}">
<polygon fill="none" stroke="#000000" points="39.5,-482.5 39.5,-551.5 143.5,-551.5 143.5,-482.5 39.5,-482.5"/>
<text text-anchor="start" x="47.5" y="-541.1" font-family="InputSans" font-size="8.00" fill="#000000">arc::details::rule</text>
<text text-anchor="start" x="47.5" y="-532.1" font-family="InputSans" font-size="8.00" fill="#000000">_is_greater_than_4&lt;</text>
<text text-anchor="middle" x="91.5" y="-523.1" font-family="InputSans" font-size="8.00" fill="#000000">(M &gt; 4)&gt;</text>
<polyline fill="none" stroke="#000000" points="39.5,-516.5 143.5,-516.5 "/>
<text text-anchor="middle" x="91.5" y="-506.1" font-family="InputSans" font-size="8.00" fill="#000000"> </text>
<polyline fill="none" stroke="#000000" points="39.5,-499.5 143.5,-499.5 "/>
<text text-anchor="middle" x="91.5" y="-489.1" font-family="InputSans" font-size="8.00" fill="#000000"> </text>
</a>
</g>
</g>
<!-- Node0&#45;&gt;Node1 -->
<g id="edge1" class="edge">
<title>Node0&#45;&gt;Node1</title>
<path fill="none" stroke="#ffa500" d="M91.5,-587.3905C91.5,-575.6073 91.5,-563.0626 91.5,-551.8769"/>
<polygon fill="#ffa500" stroke="#ffa500" points="88.0001,-587.4962 91.5,-597.4962 95.0001,-587.4962 88.0001,-587.4962"/>
<text text-anchor="middle" x="115.5" y="-572.6" font-family="InputSans" font-size="8.00" fill="#000000"> &lt;(M &gt; 4)&gt;</text>
</g>
<!-- Node2 -->
<g id="node3" class="node">
<title>Node2</title>
<g id="a_node3"><a xlink:href="classarc_1_1details_1_1inner__storage.html" target="_top" xlink:title="{arc::details::inner\l_storage\&lt; T, N, M \&gt;\n|+ x\l+ y\l+ z\l+ w\l|}">
<polygon fill="none" stroke="#000000" points="0,-357.5 0,-444.5 103,-444.5 103,-357.5 0,-357.5"/>
<text text-anchor="start" x="8" y="-434.1" font-family="InputSans" font-size="8.00" fill="#000000">arc::details::inner</text>
<text text-anchor="middle" x="51.5" y="-425.1" font-family="InputSans" font-size="8.00" fill="#000000">_storage&lt; T, N, M &gt;</text>
<polyline fill="none" stroke="#000000" points="0,-418.5 103,-418.5 "/>
<text text-anchor="start" x="8" y="-408.1" font-family="InputSans" font-size="8.00" fill="#000000">+ x</text>
<text text-anchor="start" x="8" y="-399.1" font-family="InputSans" font-size="8.00" fill="#000000">+ y</text>
<text text-anchor="start" x="8" y="-390.1" font-family="InputSans" font-size="8.00" fill="#000000">+ z</text>
<text text-anchor="start" x="8" y="-381.1" font-family="InputSans" font-size="8.00" fill="#000000">+ w</text>
<polyline fill="none" stroke="#000000" points="0,-374.5 103,-374.5 "/>
<text text-anchor="middle" x="51.5" y="-364.1" font-family="InputSans" font-size="8.00" fill="#000000"> </text>
</a>
</g>
</g>
<!-- Node1&#45;&gt;Node2 -->
<g id="edge2" class="edge">
<title>Node1&#45;&gt;Node2</title>
<path fill="none" stroke="#8b1a1a" d="M76.176,-472.5605C73.0408,-463.4682 69.7431,-453.9049 66.6152,-444.834"/>
<polygon fill="none" stroke="#8b1a1a" points="72.9299,-473.8834 79.4987,-482.1962 79.5475,-471.6014 72.9299,-473.8834"/>
</g>
<!-- Node3 -->
<g id="node4" class="node">
<title>Node3</title>
<g id="a_node4"><a xlink:href="classarc_1_1details_1_1inner__storage.html" target="_top" xlink:title="{arc::details::inner\l_storage\&lt; T, N, N \&gt;\n|+ x\l+ y\l+ z\l+ w\l|}">
<polygon fill="none" stroke="#000000" points="40.5,-224.5 40.5,-311.5 142.5,-311.5 142.5,-224.5 40.5,-224.5"/>
<text text-anchor="start" x="48.5" y="-301.1" font-family="InputSans" font-size="8.00" fill="#000000">arc::details::inner</text>
<text text-anchor="middle" x="91.5" y="-292.1" font-family="InputSans" font-size="8.00" fill="#000000">_storage&lt; T, N, N &gt;</text>
<polyline fill="none" stroke="#000000" points="40.5,-285.5 142.5,-285.5 "/>
<text text-anchor="start" x="48.5" y="-275.1" font-family="InputSans" font-size="8.00" fill="#000000">+ x</text>
<text text-anchor="start" x="48.5" y="-266.1" font-family="InputSans" font-size="8.00" fill="#000000">+ y</text>
<text text-anchor="start" x="48.5" y="-257.1" font-family="InputSans" font-size="8.00" fill="#000000">+ z</text>
<text text-anchor="start" x="48.5" y="-248.1" font-family="InputSans" font-size="8.00" fill="#000000">+ w</text>
<polyline fill="none" stroke="#000000" points="40.5,-241.5 142.5,-241.5 "/>
<text text-anchor="middle" x="91.5" y="-231.1" font-family="InputSans" font-size="8.00" fill="#000000"> </text>
</a>
</g>
</g>
<!-- Node1&#45;&gt;Node3 -->
<g id="edge5" class="edge">
<title>Node1&#45;&gt;Node3</title>
<path fill="none" stroke="#8b1a1a" d="M106.0551,-472.5751C116.5268,-434.5252 127.2328,-378.3763 117.5,-330 116.2799,-323.9353 114.4505,-317.7244 112.3165,-311.6877"/>
<polygon fill="none" stroke="#8b1a1a" points="102.6518,-471.7467 103.2682,-482.3236 109.3822,-473.6709 102.6518,-471.7467"/>
</g>
<!-- Node2&#45;&gt;Node3 -->
<g id="edge3" class="edge">
<title>Node2&#45;&gt;Node3</title>
<path fill="none" stroke="#ffa500" d="M60.8358,-347.5055C62.2323,-341.5564 63.7868,-335.6202 65.5,-330 67.3378,-323.971 69.5572,-317.7268 71.9153,-311.6265"/>
<polygon fill="#ffa500" stroke="#ffa500" points="57.3727,-346.9569 58.6344,-357.4763 64.2081,-348.4661 57.3727,-346.9569"/>
<text text-anchor="middle" x="91.5" y="-332.6" font-family="InputSans" font-size="8.00" fill="#000000"> &lt; T, N, N &gt;</text>
</g>
<!-- Node4 -->
<g id="node5" class="node">
<title>Node4</title>
<g id="a_node5"><a xlink:href="classarc_1_1_vec.html" target="_top" xlink:title="&lt;#description#&gt; ">
<polygon fill="none" stroke="#000000" points="47.5,-.5 47.5,-186.5 135.5,-186.5 135.5,-.5 47.5,-.5"/>
<text text-anchor="middle" x="91.5" y="-176.1" font-family="InputSans" font-size="8.00" fill="#000000">arc::Vec&lt; T, N &gt;</text>
<polyline fill="none" stroke="#000000" points="47.5,-169.5 135.5,-169.5 "/>
<text text-anchor="middle" x="91.5" y="-159.1" font-family="InputSans" font-size="8.00" fill="#000000"> </text>
<polyline fill="none" stroke="#000000" points="47.5,-152.5 135.5,-152.5 "/>
<text text-anchor="start" x="55.5" y="-142.1" font-family="InputSans" font-size="8.00" fill="#000000">+ Vec()</text>
<text text-anchor="start" x="55.5" y="-133.1" font-family="InputSans" font-size="8.00" fill="#000000">+ Vec()</text>
<text text-anchor="start" x="55.5" y="-124.1" font-family="InputSans" font-size="8.00" fill="#000000">+ Vec()</text>
<text text-anchor="start" x="55.5" y="-115.1" font-family="InputSans" font-size="8.00" fill="#000000">+ Vec()</text>
<text text-anchor="start" x="55.5" y="-106.1" font-family="InputSans" font-size="8.00" fill="#000000">+ Vec()</text>
<text text-anchor="start" x="55.5" y="-97.1" font-family="InputSans" font-size="8.00" fill="#000000">+ Vec()</text>
<text text-anchor="start" x="55.5" y="-88.1" font-family="InputSans" font-size="8.00" fill="#000000">+ size()</text>
<text text-anchor="start" x="55.5" y="-79.1" font-family="InputSans" font-size="8.00" fill="#000000">+ operator[]()</text>
<text text-anchor="start" x="55.5" y="-70.1" font-family="InputSans" font-size="8.00" fill="#000000">+ operator[]()</text>
<text text-anchor="start" x="55.5" y="-61.1" font-family="InputSans" font-size="8.00" fill="#000000">+ operator=()</text>
<text text-anchor="start" x="55.5" y="-52.1" font-family="InputSans" font-size="8.00" fill="#000000">+ toString()</text>
<text text-anchor="start" x="55.5" y="-43.1" font-family="InputSans" font-size="8.00" fill="#000000">+ zero()</text>
<text text-anchor="start" x="55.5" y="-34.1" font-family="InputSans" font-size="8.00" fill="#000000">+ left()</text>
<text text-anchor="start" x="55.5" y="-25.1" font-family="InputSans" font-size="8.00" fill="#000000">+ right()</text>
<text text-anchor="start" x="55.5" y="-16.1" font-family="InputSans" font-size="8.00" fill="#000000">+ down()</text>
<text text-anchor="start" x="55.5" y="-7.1" font-family="InputSans" font-size="8.00" fill="#000000">+ up()</text>
</a>
</g>
</g>
<!-- Node3&#45;&gt;Node4 -->
<g id="edge4" class="edge">
<title>Node3&#45;&gt;Node4</title>
<path fill="none" stroke="#191970" d="M91.5,-214.3184C91.5,-205.4813 91.5,-196.1022 91.5,-186.6302"/>
<polygon fill="none" stroke="#191970" points="88.0001,-214.4164 91.5,-224.4164 95.0001,-214.4164 88.0001,-214.4164"/>
</g>
</g>
</svg>
